G04 #@! TF.GenerationSoftware,KiCad,Pcbnew,9.0.1+1*
G04 #@! TF.CreationDate,2025-11-20T05:47:04+00:00*
G04 #@! TF.ProjectId,com4bbb,636f6d34-6262-4622-9e6b-696361645f70,rev?*
G04 #@! TF.SameCoordinates,Original*
G04 #@! TF.FileFunction,Paste,Top*
G04 #@! TF.FilePolarity,Positive*
%FSLAX46Y46*%
G04 Gerber Fmt 4.6, Leading zero omitted, Abs format (unit mm)*
G04 Created by KiCad (PCBNEW 9.0.1+1) date 2025-11-20 05:47:04*
%MOMM*%
%LPD*%
G01*
G04 APERTURE LIST*
%ADD10R,1.500000X0.900000*%
%ADD11R,0.900000X1.500000*%
%ADD12R,0.900000X0.900000*%
G04 APERTURE END LIST*
G36*
G01*
X124950100Y-90622400D02*
X125290100Y-90622400D01*
G75*
G02*
X125430100Y-90762400I0J-140000D01*
G01*
X125430100Y-91042400D01*
G75*
G02*
X125290100Y-91182400I-140000J0D01*
G01*
X124950100Y-91182400D01*
G75*
G02*
X124810100Y-91042400I0J140000D01*
G01*
X124810100Y-90762400D01*
G75*
G02*
X124950100Y-90622400I140000J0D01*
G01*
G37*
G36*
G01*
X124950100Y-91582400D02*
X125290100Y-91582400D01*
G75*
G02*
X125430100Y-91722400I0J-140000D01*
G01*
X125430100Y-92002400D01*
G75*
G02*
X125290100Y-92142400I-140000J0D01*
G01*
X124950100Y-92142400D01*
G75*
G02*
X124810100Y-92002400I0J140000D01*
G01*
X124810100Y-91722400D01*
G75*
G02*
X124950100Y-91582400I140000J0D01*
G01*
G37*
G36*
G01*
X134150100Y-86447400D02*
X134150100Y-86817400D01*
G75*
G02*
X134015100Y-86952400I-135000J0D01*
G01*
X133745100Y-86952400D01*
G75*
G02*
X133610100Y-86817400I0J135000D01*
G01*
X133610100Y-86447400D01*
G75*
G02*
X133745100Y-86312400I135000J0D01*
G01*
X134015100Y-86312400D01*
G75*
G02*
X134150100Y-86447400I0J-135000D01*
G01*
G37*
G36*
G01*
X133130100Y-86447400D02*
X133130100Y-86817400D01*
G75*
G02*
X132995100Y-86952400I-135000J0D01*
G01*
X132725100Y-86952400D01*
G75*
G02*
X132590100Y-86817400I0J135000D01*
G01*
X132590100Y-86447400D01*
G75*
G02*
X132725100Y-86312400I135000J0D01*
G01*
X132995100Y-86312400D01*
G75*
G02*
X133130100Y-86447400I0J-135000D01*
G01*
G37*
G36*
G01*
X134150100Y-87697400D02*
X134150100Y-88067400D01*
G75*
G02*
X134015100Y-88202400I-135000J0D01*
G01*
X133745100Y-88202400D01*
G75*
G02*
X133610100Y-88067400I0J135000D01*
G01*
X133610100Y-87697400D01*
G75*
G02*
X133745100Y-87562400I135000J0D01*
G01*
X134015100Y-87562400D01*
G75*
G02*
X134150100Y-87697400I0J-135000D01*
G01*
G37*
G36*
G01*
X133130100Y-87697400D02*
X133130100Y-88067400D01*
G75*
G02*
X132995100Y-88202400I-135000J0D01*
G01*
X132725100Y-88202400D01*
G75*
G02*
X132590100Y-88067400I0J135000D01*
G01*
X132590100Y-87697400D01*
G75*
G02*
X132725100Y-87562400I135000J0D01*
G01*
X132995100Y-87562400D01*
G75*
G02*
X133130100Y-87697400I0J-135000D01*
G01*
G37*
G36*
G01*
X122555100Y-91162400D02*
X122185100Y-91162400D01*
G75*
G02*
X122050100Y-91027400I0J135000D01*
G01*
X122050100Y-90757400D01*
G75*
G02*
X122185100Y-90622400I135000J0D01*
G01*
X122555100Y-90622400D01*
G75*
G02*
X122690100Y-90757400I0J-135000D01*
G01*
X122690100Y-91027400D01*
G75*
G02*
X122555100Y-91162400I-135000J0D01*
G01*
G37*
G36*
G01*
X122555100Y-90142400D02*
X122185100Y-90142400D01*
G75*
G02*
X122050100Y-90007400I0J135000D01*
G01*
X122050100Y-89737400D01*
G75*
G02*
X122185100Y-89602400I135000J0D01*
G01*
X122555100Y-89602400D01*
G75*
G02*
X122690100Y-89737400I0J-135000D01*
G01*
X122690100Y-90007400D01*
G75*
G02*
X122555100Y-90142400I-135000J0D01*
G01*
G37*
D10*
X145120100Y-120637400D03*
X145120100Y-119367400D03*
X145120100Y-118097400D03*
X145120100Y-116827400D03*
X145120100Y-115557400D03*
X145120100Y-114287400D03*
X145120100Y-113017400D03*
X145120100Y-111747400D03*
X145120100Y-110477400D03*
X145120100Y-109207400D03*
X145120100Y-107937400D03*
X145120100Y-106667400D03*
X145120100Y-105397400D03*
X145120100Y-104127400D03*
D11*
X142085100Y-103032400D03*
X140815100Y-103032400D03*
X139545100Y-103032400D03*
X138275100Y-103032400D03*
X137005100Y-103032400D03*
X135735100Y-103032400D03*
X134465100Y-103032400D03*
X133195100Y-103032400D03*
X131925100Y-103032400D03*
X130655100Y-103032400D03*
D10*
X127620100Y-104127400D03*
X127620100Y-105397400D03*
X127620100Y-106667400D03*
X127620100Y-107937400D03*
X127620100Y-109207400D03*
X127620100Y-110477400D03*
X127620100Y-111747400D03*
X127620100Y-113017400D03*
X127620100Y-114287400D03*
X127620100Y-115557400D03*
X127620100Y-116827400D03*
X127620100Y-118097400D03*
X127620100Y-119367400D03*
X127620100Y-120637400D03*
D12*
X139270100Y-114472400D03*
X139270100Y-113072400D03*
X139270100Y-111672400D03*
X137870100Y-114472400D03*
X137870100Y-113072400D03*
X137870100Y-111672400D03*
X136470100Y-114472400D03*
X136470100Y-113072400D03*
X136470100Y-111672400D03*
G36*
G01*
X131820100Y-89137400D02*
X131820100Y-89437400D01*
G75*
G02*
X131670100Y-89587400I-150000J0D01*
G01*
X130020100Y-89587400D01*
G75*
G02*
X129870100Y-89437400I0J150000D01*
G01*
X129870100Y-89137400D01*
G75*
G02*
X130020100Y-88987400I150000J0D01*
G01*
X131670100Y-88987400D01*
G75*
G02*
X131820100Y-89137400I0J-150000D01*
G01*
G37*
G36*
G01*
X131820100Y-87867400D02*
X131820100Y-88167400D01*
G75*
G02*
X131670100Y-88317400I-150000J0D01*
G01*
X130020100Y-88317400D01*
G75*
G02*
X129870100Y-88167400I0J150000D01*
G01*
X129870100Y-87867400D01*
G75*
G02*
X130020100Y-87717400I150000J0D01*
G01*
X131670100Y-87717400D01*
G75*
G02*
X131820100Y-87867400I0J-150000D01*
G01*
G37*
G36*
G01*
X131820100Y-86597400D02*
X131820100Y-86897400D01*
G75*
G02*
X131670100Y-87047400I-150000J0D01*
G01*
X130020100Y-87047400D01*
G75*
G02*
X129870100Y-86897400I0J150000D01*
G01*
X129870100Y-86597400D01*
G75*
G02*
X130020100Y-86447400I150000J0D01*
G01*
X131670100Y-86447400D01*
G75*
G02*
X131820100Y-86597400I0J-150000D01*
G01*
G37*
G36*
G01*
X131820100Y-85327400D02*
X131820100Y-85627400D01*
G75*
G02*
X131670100Y-85777400I-150000J0D01*
G01*
X130020100Y-85777400D01*
G75*
G02*
X129870100Y-85627400I0J150000D01*
G01*
X129870100Y-85327400D01*
G75*
G02*
X130020100Y-85177400I150000J0D01*
G01*
X131670100Y-85177400D01*
G75*
G02*
X131820100Y-85327400I0J-150000D01*
G01*
G37*
G36*
G01*
X126870100Y-85327400D02*
X126870100Y-85627400D01*
G75*
G02*
X126720100Y-85777400I-150000J0D01*
G01*
X125070100Y-85777400D01*
G75*
G02*
X124920100Y-85627400I0J150000D01*
G01*
X124920100Y-85327400D01*
G75*
G02*
X125070100Y-85177400I150000J0D01*
G01*
X126720100Y-85177400D01*
G75*
G02*
X126870100Y-85327400I0J-150000D01*
G01*
G37*
G36*
G01*
X126870100Y-86597400D02*
X126870100Y-86897400D01*
G75*
G02*
X126720100Y-87047400I-150000J0D01*
G01*
X125070100Y-87047400D01*
G75*
G02*
X124920100Y-86897400I0J150000D01*
G01*
X124920100Y-86597400D01*
G75*
G02*
X125070100Y-86447400I150000J0D01*
G01*
X126720100Y-86447400D01*
G75*
G02*
X126870100Y-86597400I0J-150000D01*
G01*
G37*
G36*
G01*
X126870100Y-87867400D02*
X126870100Y-88167400D01*
G75*
G02*
X126720100Y-88317400I-150000J0D01*
G01*
X125070100Y-88317400D01*
G75*
G02*
X124920100Y-88167400I0J150000D01*
G01*
X124920100Y-87867400D01*
G75*
G02*
X125070100Y-87717400I150000J0D01*
G01*
X126720100Y-87717400D01*
G75*
G02*
X126870100Y-87867400I0J-150000D01*
G01*
G37*
G36*
G01*
X126870100Y-89137400D02*
X126870100Y-89437400D01*
G75*
G02*
X126720100Y-89587400I-150000J0D01*
G01*
X125070100Y-89587400D01*
G75*
G02*
X124920100Y-89437400I0J150000D01*
G01*
X124920100Y-89137400D01*
G75*
G02*
X125070100Y-88987400I150000J0D01*
G01*
X126720100Y-88987400D01*
G75*
G02*
X126870100Y-89137400I0J-150000D01*
G01*
G37*
G36*
G01*
X153595100Y-75126150D02*
X153595100Y-75638650D01*
G75*
G02*
X153376350Y-75857400I-218750J0D01*
G01*
X152938850Y-75857400D01*
G75*
G02*
X152720100Y-75638650I0J218750D01*
G01*
X152720100Y-75126150D01*
G75*
G02*
X152938850Y-74907400I218750J0D01*
G01*
X153376350Y-74907400D01*
G75*
G02*
X153595100Y-75126150I0J-218750D01*
G01*
G37*
G36*
G01*
X152020100Y-75126150D02*
X152020100Y-75638650D01*
G75*
G02*
X151801350Y-75857400I-218750J0D01*
G01*
X151363850Y-75857400D01*
G75*
G02*
X151145100Y-75638650I0J218750D01*
G01*
X151145100Y-75126150D01*
G75*
G02*
X151363850Y-74907400I218750J0D01*
G01*
X151801350Y-74907400D01*
G75*
G02*
X152020100Y-75126150I0J-218750D01*
G01*
G37*
G36*
G01*
X153595100Y-76876150D02*
X153595100Y-77388650D01*
G75*
G02*
X153376350Y-77607400I-218750J0D01*
G01*
X152938850Y-77607400D01*
G75*
G02*
X152720100Y-77388650I0J218750D01*
G01*
X152720100Y-76876150D01*
G75*
G02*
X152938850Y-76657400I218750J0D01*
G01*
X153376350Y-76657400D01*
G75*
G02*
X153595100Y-76876150I0J-218750D01*
G01*
G37*
G36*
G01*
X152020100Y-76876150D02*
X152020100Y-77388650D01*
G75*
G02*
X151801350Y-77607400I-218750J0D01*
G01*
X151363850Y-77607400D01*
G75*
G02*
X151145100Y-77388650I0J218750D01*
G01*
X151145100Y-76876150D01*
G75*
G02*
X151363850Y-76657400I218750J0D01*
G01*
X151801350Y-76657400D01*
G75*
G02*
X152020100Y-76876150I0J-218750D01*
G01*
G37*
G36*
G01*
X153595100Y-78626150D02*
X153595100Y-79138650D01*
G75*
G02*
X153376350Y-79357400I-218750J0D01*
G01*
X152938850Y-79357400D01*
G75*
G02*
X152720100Y-79138650I0J218750D01*
G01*
X152720100Y-78626150D01*
G75*
G02*
X152938850Y-78407400I218750J0D01*
G01*
X153376350Y-78407400D01*
G75*
G02*
X153595100Y-78626150I0J-218750D01*
G01*
G37*
G36*
G01*
X152020100Y-78626150D02*
X152020100Y-79138650D01*
G75*
G02*
X151801350Y-79357400I-218750J0D01*
G01*
X151363850Y-79357400D01*
G75*
G02*
X151145100Y-79138650I0J218750D01*
G01*
X151145100Y-78626150D01*
G75*
G02*
X151363850Y-78407400I218750J0D01*
G01*
X151801350Y-78407400D01*
G75*
G02*
X152020100Y-78626150I0J-218750D01*
G01*
G37*
G36*
G01*
X153595100Y-80376150D02*
X153595100Y-80888650D01*
G75*
G02*
X153376350Y-81107400I-218750J0D01*
G01*
X152938850Y-81107400D01*
G75*
G02*
X152720100Y-80888650I0J218750D01*
G01*
X152720100Y-80376150D01*
G75*
G02*
X152938850Y-80157400I218750J0D01*
G01*
X153376350Y-80157400D01*
G75*
G02*
X153595100Y-80376150I0J-218750D01*
G01*
G37*
G36*
G01*
X152020100Y-80376150D02*
X152020100Y-80888650D01*
G75*
G02*
X151801350Y-81107400I-218750J0D01*
G01*
X151363850Y-81107400D01*
G75*
G02*
X151145100Y-80888650I0J218750D01*
G01*
X151145100Y-80376150D01*
G75*
G02*
X151363850Y-80157400I218750J0D01*
G01*
X151801350Y-80157400D01*
G75*
G02*
X152020100Y-80376150I0J-218750D01*
G01*
G37*
G36*
G01*
X153595100Y-82126150D02*
X153595100Y-82638650D01*
G75*
G02*
X153376350Y-82857400I-218750J0D01*
G01*
X152938850Y-82857400D01*
G75*
G02*
X152720100Y-82638650I0J218750D01*
G01*
X152720100Y-82126150D01*
G75*
G02*
X152938850Y-81907400I218750J0D01*
G01*
X153376350Y-81907400D01*
G75*
G02*
X153595100Y-82126150I0J-218750D01*
G01*
G37*
G36*
G01*
X152020100Y-82126150D02*
X152020100Y-82638650D01*
G75*
G02*
X151801350Y-82857400I-218750J0D01*
G01*
X151363850Y-82857400D01*
G75*
G02*
X151145100Y-82638650I0J218750D01*
G01*
X151145100Y-82126150D01*
G75*
G02*
X151363850Y-81907400I218750J0D01*
G01*
X151801350Y-81907400D01*
G75*
G02*
X152020100Y-82126150I0J-218750D01*
G01*
G37*
G36*
G01*
X153595100Y-83876150D02*
X153595100Y-84388650D01*
G75*
G02*
X153376350Y-84607400I-218750J0D01*
G01*
X152938850Y-84607400D01*
G75*
G02*
X152720100Y-84388650I0J218750D01*
G01*
X152720100Y-83876150D01*
G75*
G02*
X152938850Y-83657400I218750J0D01*
G01*
X153376350Y-83657400D01*
G75*
G02*
X153595100Y-83876150I0J-218750D01*
G01*
G37*
G36*
G01*
X152020100Y-83876150D02*
X152020100Y-84388650D01*
G75*
G02*
X151801350Y-84607400I-218750J0D01*
G01*
X151363850Y-84607400D01*
G75*
G02*
X151145100Y-84388650I0J218750D01*
G01*
X151145100Y-83876150D01*
G75*
G02*
X151363850Y-83657400I218750J0D01*
G01*
X151801350Y-83657400D01*
G75*
G02*
X152020100Y-83876150I0J-218750D01*
G01*
G37*
G36*
G01*
X153595100Y-85626150D02*
X153595100Y-86138650D01*
G75*
G02*
X153376350Y-86357400I-218750J0D01*
G01*
X152938850Y-86357400D01*
G75*
G02*
X152720100Y-86138650I0J218750D01*
G01*
X152720100Y-85626150D01*
G75*
G02*
X152938850Y-85407400I218750J0D01*
G01*
X153376350Y-85407400D01*
G75*
G02*
X153595100Y-85626150I0J-218750D01*
G01*
G37*
G36*
G01*
X152020100Y-85626150D02*
X152020100Y-86138650D01*
G75*
G02*
X151801350Y-86357400I-218750J0D01*
G01*
X151363850Y-86357400D01*
G75*
G02*
X151145100Y-86138650I0J218750D01*
G01*
X151145100Y-85626150D01*
G75*
G02*
X151363850Y-85407400I218750J0D01*
G01*
X151801350Y-85407400D01*
G75*
G02*
X152020100Y-85626150I0J-218750D01*
G01*
G37*
G36*
G01*
X153595100Y-87376150D02*
X153595100Y-87888650D01*
G75*
G02*
X153376350Y-88107400I-218750J0D01*
G01*
X152938850Y-88107400D01*
G75*
G02*
X152720100Y-87888650I0J218750D01*
G01*
X152720100Y-87376150D01*
G75*
G02*
X152938850Y-87157400I218750J0D01*
G01*
X153376350Y-87157400D01*
G75*
G02*
X153595100Y-87376150I0J-218750D01*
G01*
G37*
G36*
G01*
X152020100Y-87376150D02*
X152020100Y-87888650D01*
G75*
G02*
X151801350Y-88107400I-218750J0D01*
G01*
X151363850Y-88107400D01*
G75*
G02*
X151145100Y-87888650I0J218750D01*
G01*
X151145100Y-87376150D01*
G75*
G02*
X151363850Y-87157400I218750J0D01*
G01*
X151801350Y-87157400D01*
G75*
G02*
X152020100Y-87376150I0J-218750D01*
G01*
G37*
G36*
G01*
X153595100Y-89126150D02*
X153595100Y-89638650D01*
G75*
G02*
X153376350Y-89857400I-218750J0D01*
G01*
X152938850Y-89857400D01*
G75*
G02*
X152720100Y-89638650I0J218750D01*
G01*
X152720100Y-89126150D01*
G75*
G02*
X152938850Y-88907400I218750J0D01*
G01*
X153376350Y-88907400D01*
G75*
G02*
X153595100Y-89126150I0J-218750D01*
G01*
G37*
G36*
G01*
X152020100Y-89126150D02*
X152020100Y-89638650D01*
G75*
G02*
X151801350Y-89857400I-218750J0D01*
G01*
X151363850Y-89857400D01*
G75*
G02*
X151145100Y-89638650I0J218750D01*
G01*
X151145100Y-89126150D01*
G75*
G02*
X151363850Y-88907400I218750J0D01*
G01*
X151801350Y-88907400D01*
G75*
G02*
X152020100Y-89126150I0J-218750D01*
G01*
G37*
G36*
G01*
X153595100Y-90876150D02*
X153595100Y-91388650D01*
G75*
G02*
X153376350Y-91607400I-218750J0D01*
G01*
X152938850Y-91607400D01*
G75*
G02*
X152720100Y-91388650I0J218750D01*
G01*
X152720100Y-90876150D01*
G75*
G02*
X152938850Y-90657400I218750J0D01*
G01*
X153376350Y-90657400D01*
G75*
G02*
X153595100Y-90876150I0J-218750D01*
G01*
G37*
G36*
G01*
X152020100Y-90876150D02*
X152020100Y-91388650D01*
G75*
G02*
X151801350Y-91607400I-218750J0D01*
G01*
X151363850Y-91607400D01*
G75*
G02*
X151145100Y-91388650I0J218750D01*
G01*
X151145100Y-90876150D01*
G75*
G02*
X151363850Y-90657400I218750J0D01*
G01*
X151801350Y-90657400D01*
G75*
G02*
X152020100Y-90876150I0J-218750D01*
G01*
G37*
G36*
G01*
X153595100Y-92626150D02*
X153595100Y-93138650D01*
G75*
G02*
X153376350Y-93357400I-218750J0D01*
G01*
X152938850Y-93357400D01*
G75*
G02*
X152720100Y-93138650I0J218750D01*
G01*
X152720100Y-92626150D01*
G75*
G02*
X152938850Y-92407400I218750J0D01*
G01*
X153376350Y-92407400D01*
G75*
G02*
X153595100Y-92626150I0J-218750D01*
G01*
G37*
G36*
G01*
X152020100Y-92626150D02*
X152020100Y-93138650D01*
G75*
G02*
X151801350Y-93357400I-218750J0D01*
G01*
X151363850Y-93357400D01*
G75*
G02*
X151145100Y-93138650I0J218750D01*
G01*
X151145100Y-92626150D01*
G75*
G02*
X151363850Y-92407400I218750J0D01*
G01*
X151801350Y-92407400D01*
G75*
G02*
X152020100Y-92626150I0J-218750D01*
G01*
G37*
G36*
G01*
X153595100Y-94376150D02*
X153595100Y-94888650D01*
G75*
G02*
X153376350Y-95107400I-218750J0D01*
G01*
X152938850Y-95107400D01*
G75*
G02*
X152720100Y-94888650I0J218750D01*
G01*
X152720100Y-94376150D01*
G75*
G02*
X152938850Y-94157400I218750J0D01*
G01*
X153376350Y-94157400D01*
G75*
G02*
X153595100Y-94376150I0J-218750D01*
G01*
G37*
G36*
G01*
X152020100Y-94376150D02*
X152020100Y-94888650D01*
G75*
G02*
X151801350Y-95107400I-218750J0D01*
G01*
X151363850Y-95107400D01*
G75*
G02*
X151145100Y-94888650I0J218750D01*
G01*
X151145100Y-94376150D01*
G75*
G02*
X151363850Y-94157400I218750J0D01*
G01*
X151801350Y-94157400D01*
G75*
G02*
X152020100Y-94376150I0J-218750D01*
G01*
G37*
G36*
G01*
X153595100Y-96126150D02*
X153595100Y-96638650D01*
G75*
G02*
X153376350Y-96857400I-218750J0D01*
G01*
X152938850Y-96857400D01*
G75*
G02*
X152720100Y-96638650I0J218750D01*
G01*
X152720100Y-96126150D01*
G75*
G02*
X152938850Y-95907400I218750J0D01*
G01*
X153376350Y-95907400D01*
G75*
G02*
X153595100Y-96126150I0J-218750D01*
G01*
G37*
G36*
G01*
X152020100Y-96126150D02*
X152020100Y-96638650D01*
G75*
G02*
X151801350Y-96857400I-218750J0D01*
G01*
X151363850Y-96857400D01*
G75*
G02*
X151145100Y-96638650I0J218750D01*
G01*
X151145100Y-96126150D01*
G75*
G02*
X151363850Y-95907400I218750J0D01*
G01*
X151801350Y-95907400D01*
G75*
G02*
X152020100Y-96126150I0J-218750D01*
G01*
G37*
G36*
G01*
X154590100Y-75567400D02*
X154590100Y-75197400D01*
G75*
G02*
X154725100Y-75062400I135000J0D01*
G01*
X154995100Y-75062400D01*
G75*
G02*
X155130100Y-75197400I0J-135000D01*
G01*
X155130100Y-75567400D01*
G75*
G02*
X154995100Y-75702400I-135000J0D01*
G01*
X154725100Y-75702400D01*
G75*
G02*
X154590100Y-75567400I0J135000D01*
G01*
G37*
G36*
G01*
X155610100Y-75567400D02*
X155610100Y-75197400D01*
G75*
G02*
X155745100Y-75062400I135000J0D01*
G01*
X156015100Y-75062400D01*
G75*
G02*
X156150100Y-75197400I0J-135000D01*
G01*
X156150100Y-75567400D01*
G75*
G02*
X156015100Y-75702400I-135000J0D01*
G01*
X155745100Y-75702400D01*
G75*
G02*
X155610100Y-75567400I0J135000D01*
G01*
G37*
G36*
G01*
X154590100Y-77317400D02*
X154590100Y-76947400D01*
G75*
G02*
X154725100Y-76812400I135000J0D01*
G01*
X154995100Y-76812400D01*
G75*
G02*
X155130100Y-76947400I0J-135000D01*
G01*
X155130100Y-77317400D01*
G75*
G02*
X154995100Y-77452400I-135000J0D01*
G01*
X154725100Y-77452400D01*
G75*
G02*
X154590100Y-77317400I0J135000D01*
G01*
G37*
G36*
G01*
X155610100Y-77317400D02*
X155610100Y-76947400D01*
G75*
G02*
X155745100Y-76812400I135000J0D01*
G01*
X156015100Y-76812400D01*
G75*
G02*
X156150100Y-76947400I0J-135000D01*
G01*
X156150100Y-77317400D01*
G75*
G02*
X156015100Y-77452400I-135000J0D01*
G01*
X155745100Y-77452400D01*
G75*
G02*
X155610100Y-77317400I0J135000D01*
G01*
G37*
G36*
G01*
X154590100Y-79067400D02*
X154590100Y-78697400D01*
G75*
G02*
X154725100Y-78562400I135000J0D01*
G01*
X154995100Y-78562400D01*
G75*
G02*
X155130100Y-78697400I0J-135000D01*
G01*
X155130100Y-79067400D01*
G75*
G02*
X154995100Y-79202400I-135000J0D01*
G01*
X154725100Y-79202400D01*
G75*
G02*
X154590100Y-79067400I0J135000D01*
G01*
G37*
G36*
G01*
X155610100Y-79067400D02*
X155610100Y-78697400D01*
G75*
G02*
X155745100Y-78562400I135000J0D01*
G01*
X156015100Y-78562400D01*
G75*
G02*
X156150100Y-78697400I0J-135000D01*
G01*
X156150100Y-79067400D01*
G75*
G02*
X156015100Y-79202400I-135000J0D01*
G01*
X155745100Y-79202400D01*
G75*
G02*
X155610100Y-79067400I0J135000D01*
G01*
G37*
G36*
G01*
X154590100Y-80817400D02*
X154590100Y-80447400D01*
G75*
G02*
X154725100Y-80312400I135000J0D01*
G01*
X154995100Y-80312400D01*
G75*
G02*
X155130100Y-80447400I0J-135000D01*
G01*
X155130100Y-80817400D01*
G75*
G02*
X154995100Y-80952400I-135000J0D01*
G01*
X154725100Y-80952400D01*
G75*
G02*
X154590100Y-80817400I0J135000D01*
G01*
G37*
G36*
G01*
X155610100Y-80817400D02*
X155610100Y-80447400D01*
G75*
G02*
X155745100Y-80312400I135000J0D01*
G01*
X156015100Y-80312400D01*
G75*
G02*
X156150100Y-80447400I0J-135000D01*
G01*
X156150100Y-80817400D01*
G75*
G02*
X156015100Y-80952400I-135000J0D01*
G01*
X155745100Y-80952400D01*
G75*
G02*
X155610100Y-80817400I0J135000D01*
G01*
G37*
G36*
G01*
X154590100Y-82567400D02*
X154590100Y-82197400D01*
G75*
G02*
X154725100Y-82062400I135000J0D01*
G01*
X154995100Y-82062400D01*
G75*
G02*
X155130100Y-82197400I0J-135000D01*
G01*
X155130100Y-82567400D01*
G75*
G02*
X154995100Y-82702400I-135000J0D01*
G01*
X154725100Y-82702400D01*
G75*
G02*
X154590100Y-82567400I0J135000D01*
G01*
G37*
G36*
G01*
X155610100Y-82567400D02*
X155610100Y-82197400D01*
G75*
G02*
X155745100Y-82062400I135000J0D01*
G01*
X156015100Y-82062400D01*
G75*
G02*
X156150100Y-82197400I0J-135000D01*
G01*
X156150100Y-82567400D01*
G75*
G02*
X156015100Y-82702400I-135000J0D01*
G01*
X155745100Y-82702400D01*
G75*
G02*
X155610100Y-82567400I0J135000D01*
G01*
G37*
G36*
G01*
X154590100Y-84317400D02*
X154590100Y-83947400D01*
G75*
G02*
X154725100Y-83812400I135000J0D01*
G01*
X154995100Y-83812400D01*
G75*
G02*
X155130100Y-83947400I0J-135000D01*
G01*
X155130100Y-84317400D01*
G75*
G02*
X154995100Y-84452400I-135000J0D01*
G01*
X154725100Y-84452400D01*
G75*
G02*
X154590100Y-84317400I0J135000D01*
G01*
G37*
G36*
G01*
X155610100Y-84317400D02*
X155610100Y-83947400D01*
G75*
G02*
X155745100Y-83812400I135000J0D01*
G01*
X156015100Y-83812400D01*
G75*
G02*
X156150100Y-83947400I0J-135000D01*
G01*
X156150100Y-84317400D01*
G75*
G02*
X156015100Y-84452400I-135000J0D01*
G01*
X155745100Y-84452400D01*
G75*
G02*
X155610100Y-84317400I0J135000D01*
G01*
G37*
G36*
G01*
X154590100Y-86067400D02*
X154590100Y-85697400D01*
G75*
G02*
X154725100Y-85562400I135000J0D01*
G01*
X154995100Y-85562400D01*
G75*
G02*
X155130100Y-85697400I0J-135000D01*
G01*
X155130100Y-86067400D01*
G75*
G02*
X154995100Y-86202400I-135000J0D01*
G01*
X154725100Y-86202400D01*
G75*
G02*
X154590100Y-86067400I0J135000D01*
G01*
G37*
G36*
G01*
X155610100Y-86067400D02*
X155610100Y-85697400D01*
G75*
G02*
X155745100Y-85562400I135000J0D01*
G01*
X156015100Y-85562400D01*
G75*
G02*
X156150100Y-85697400I0J-135000D01*
G01*
X156150100Y-86067400D01*
G75*
G02*
X156015100Y-86202400I-135000J0D01*
G01*
X155745100Y-86202400D01*
G75*
G02*
X155610100Y-86067400I0J135000D01*
G01*
G37*
G36*
G01*
X154590100Y-87817400D02*
X154590100Y-87447400D01*
G75*
G02*
X154725100Y-87312400I135000J0D01*
G01*
X154995100Y-87312400D01*
G75*
G02*
X155130100Y-87447400I0J-135000D01*
G01*
X155130100Y-87817400D01*
G75*
G02*
X154995100Y-87952400I-135000J0D01*
G01*
X154725100Y-87952400D01*
G75*
G02*
X154590100Y-87817400I0J135000D01*
G01*
G37*
G36*
G01*
X155610100Y-87817400D02*
X155610100Y-87447400D01*
G75*
G02*
X155745100Y-87312400I135000J0D01*
G01*
X156015100Y-87312400D01*
G75*
G02*
X156150100Y-87447400I0J-135000D01*
G01*
X156150100Y-87817400D01*
G75*
G02*
X156015100Y-87952400I-135000J0D01*
G01*
X155745100Y-87952400D01*
G75*
G02*
X155610100Y-87817400I0J135000D01*
G01*
G37*
G36*
G01*
X154590100Y-89567400D02*
X154590100Y-89197400D01*
G75*
G02*
X154725100Y-89062400I135000J0D01*
G01*
X154995100Y-89062400D01*
G75*
G02*
X155130100Y-89197400I0J-135000D01*
G01*
X155130100Y-89567400D01*
G75*
G02*
X154995100Y-89702400I-135000J0D01*
G01*
X154725100Y-89702400D01*
G75*
G02*
X154590100Y-89567400I0J135000D01*
G01*
G37*
G36*
G01*
X155610100Y-89567400D02*
X155610100Y-89197400D01*
G75*
G02*
X155745100Y-89062400I135000J0D01*
G01*
X156015100Y-89062400D01*
G75*
G02*
X156150100Y-89197400I0J-135000D01*
G01*
X156150100Y-89567400D01*
G75*
G02*
X156015100Y-89702400I-135000J0D01*
G01*
X155745100Y-89702400D01*
G75*
G02*
X155610100Y-89567400I0J135000D01*
G01*
G37*
G36*
G01*
X154590100Y-91317400D02*
X154590100Y-90947400D01*
G75*
G02*
X154725100Y-90812400I135000J0D01*
G01*
X154995100Y-90812400D01*
G75*
G02*
X155130100Y-90947400I0J-135000D01*
G01*
X155130100Y-91317400D01*
G75*
G02*
X154995100Y-91452400I-135000J0D01*
G01*
X154725100Y-91452400D01*
G75*
G02*
X154590100Y-91317400I0J135000D01*
G01*
G37*
G36*
G01*
X155610100Y-91317400D02*
X155610100Y-90947400D01*
G75*
G02*
X155745100Y-90812400I135000J0D01*
G01*
X156015100Y-90812400D01*
G75*
G02*
X156150100Y-90947400I0J-135000D01*
G01*
X156150100Y-91317400D01*
G75*
G02*
X156015100Y-91452400I-135000J0D01*
G01*
X155745100Y-91452400D01*
G75*
G02*
X155610100Y-91317400I0J135000D01*
G01*
G37*
G36*
G01*
X154590100Y-93067400D02*
X154590100Y-92697400D01*
G75*
G02*
X154725100Y-92562400I135000J0D01*
G01*
X154995100Y-92562400D01*
G75*
G02*
X155130100Y-92697400I0J-135000D01*
G01*
X155130100Y-93067400D01*
G75*
G02*
X154995100Y-93202400I-135000J0D01*
G01*
X154725100Y-93202400D01*
G75*
G02*
X154590100Y-93067400I0J135000D01*
G01*
G37*
G36*
G01*
X155610100Y-93067400D02*
X155610100Y-92697400D01*
G75*
G02*
X155745100Y-92562400I135000J0D01*
G01*
X156015100Y-92562400D01*
G75*
G02*
X156150100Y-92697400I0J-135000D01*
G01*
X156150100Y-93067400D01*
G75*
G02*
X156015100Y-93202400I-135000J0D01*
G01*
X155745100Y-93202400D01*
G75*
G02*
X155610100Y-93067400I0J135000D01*
G01*
G37*
G36*
G01*
X154590100Y-94817400D02*
X154590100Y-94447400D01*
G75*
G02*
X154725100Y-94312400I135000J0D01*
G01*
X154995100Y-94312400D01*
G75*
G02*
X155130100Y-94447400I0J-135000D01*
G01*
X155130100Y-94817400D01*
G75*
G02*
X154995100Y-94952400I-135000J0D01*
G01*
X154725100Y-94952400D01*
G75*
G02*
X154590100Y-94817400I0J135000D01*
G01*
G37*
G36*
G01*
X155610100Y-94817400D02*
X155610100Y-94447400D01*
G75*
G02*
X155745100Y-94312400I135000J0D01*
G01*
X156015100Y-94312400D01*
G75*
G02*
X156150100Y-94447400I0J-135000D01*
G01*
X156150100Y-94817400D01*
G75*
G02*
X156015100Y-94952400I-135000J0D01*
G01*
X155745100Y-94952400D01*
G75*
G02*
X155610100Y-94817400I0J135000D01*
G01*
G37*
G36*
G01*
X154590100Y-96567400D02*
X154590100Y-96197400D01*
G75*
G02*
X154725100Y-96062400I135000J0D01*
G01*
X154995100Y-96062400D01*
G75*
G02*
X155130100Y-96197400I0J-135000D01*
G01*
X155130100Y-96567400D01*
G75*
G02*
X154995100Y-96702400I-135000J0D01*
G01*
X154725100Y-96702400D01*
G75*
G02*
X154590100Y-96567400I0J135000D01*
G01*
G37*
G36*
G01*
X155610100Y-96567400D02*
X155610100Y-96197400D01*
G75*
G02*
X155745100Y-96062400I135000J0D01*
G01*
X156015100Y-96062400D01*
G75*
G02*
X156150100Y-96197400I0J-135000D01*
G01*
X156150100Y-96567400D01*
G75*
G02*
X156015100Y-96702400I-135000J0D01*
G01*
X155745100Y-96702400D01*
G75*
G02*
X155610100Y-96567400I0J135000D01*
G01*
G37*
G36*
G01*
X134150100Y-88947400D02*
X134150100Y-89317400D01*
G75*
G02*
X134015100Y-89452400I-135000J0D01*
G01*
X133745100Y-89452400D01*
G75*
G02*
X133610100Y-89317400I0J135000D01*
G01*
X133610100Y-88947400D01*
G75*
G02*
X133745100Y-88812400I135000J0D01*
G01*
X134015100Y-88812400D01*
G75*
G02*
X134150100Y-88947400I0J-135000D01*
G01*
G37*
G36*
G01*
X133130100Y-88947400D02*
X133130100Y-89317400D01*
G75*
G02*
X132995100Y-89452400I-135000J0D01*
G01*
X132725100Y-89452400D01*
G75*
G02*
X132590100Y-89317400I0J135000D01*
G01*
X132590100Y-88947400D01*
G75*
G02*
X132725100Y-88812400I135000J0D01*
G01*
X132995100Y-88812400D01*
G75*
G02*
X133130100Y-88947400I0J-135000D01*
G01*
G37*
G36*
G01*
X155625100Y-102182400D02*
X155925100Y-102182400D01*
G75*
G02*
X156075100Y-102332400I0J-150000D01*
G01*
X156075100Y-103982400D01*
G75*
G02*
X155925100Y-104132400I-150000J0D01*
G01*
X155625100Y-104132400D01*
G75*
G02*
X155475100Y-103982400I0J150000D01*
G01*
X155475100Y-102332400D01*
G75*
G02*
X155625100Y-102182400I150000J0D01*
G01*
G37*
G36*
G01*
X154355100Y-102182400D02*
X154655100Y-102182400D01*
G75*
G02*
X154805100Y-102332400I0J-150000D01*
G01*
X154805100Y-103982400D01*
G75*
G02*
X154655100Y-104132400I-150000J0D01*
G01*
X154355100Y-104132400D01*
G75*
G02*
X154205100Y-103982400I0J150000D01*
G01*
X154205100Y-102332400D01*
G75*
G02*
X154355100Y-102182400I150000J0D01*
G01*
G37*
G36*
G01*
X153085100Y-102182400D02*
X153385100Y-102182400D01*
G75*
G02*
X153535100Y-102332400I0J-150000D01*
G01*
X153535100Y-103982400D01*
G75*
G02*
X153385100Y-104132400I-150000J0D01*
G01*
X153085100Y-104132400D01*
G75*
G02*
X152935100Y-103982400I0J150000D01*
G01*
X152935100Y-102332400D01*
G75*
G02*
X153085100Y-102182400I150000J0D01*
G01*
G37*
G36*
G01*
X151815100Y-102182400D02*
X152115100Y-102182400D01*
G75*
G02*
X152265100Y-102332400I0J-150000D01*
G01*
X152265100Y-103982400D01*
G75*
G02*
X152115100Y-104132400I-150000J0D01*
G01*
X151815100Y-104132400D01*
G75*
G02*
X151665100Y-103982400I0J150000D01*
G01*
X151665100Y-102332400D01*
G75*
G02*
X151815100Y-102182400I150000J0D01*
G01*
G37*
G36*
G01*
X151815100Y-107132400D02*
X152115100Y-107132400D01*
G75*
G02*
X152265100Y-107282400I0J-150000D01*
G01*
X152265100Y-108932400D01*
G75*
G02*
X152115100Y-109082400I-150000J0D01*
G01*
X151815100Y-109082400D01*
G75*
G02*
X151665100Y-108932400I0J150000D01*
G01*
X151665100Y-107282400D01*
G75*
G02*
X151815100Y-107132400I150000J0D01*
G01*
G37*
G36*
G01*
X153085100Y-107132400D02*
X153385100Y-107132400D01*
G75*
G02*
X153535100Y-107282400I0J-150000D01*
G01*
X153535100Y-108932400D01*
G75*
G02*
X153385100Y-109082400I-150000J0D01*
G01*
X153085100Y-109082400D01*
G75*
G02*
X152935100Y-108932400I0J150000D01*
G01*
X152935100Y-107282400D01*
G75*
G02*
X153085100Y-107132400I150000J0D01*
G01*
G37*
G36*
G01*
X154355100Y-107132400D02*
X154655100Y-107132400D01*
G75*
G02*
X154805100Y-107282400I0J-150000D01*
G01*
X154805100Y-108932400D01*
G75*
G02*
X154655100Y-109082400I-150000J0D01*
G01*
X154355100Y-109082400D01*
G75*
G02*
X154205100Y-108932400I0J150000D01*
G01*
X154205100Y-107282400D01*
G75*
G02*
X154355100Y-107132400I150000J0D01*
G01*
G37*
G36*
G01*
X155625100Y-107132400D02*
X155925100Y-107132400D01*
G75*
G02*
X156075100Y-107282400I0J-150000D01*
G01*
X156075100Y-108932400D01*
G75*
G02*
X155925100Y-109082400I-150000J0D01*
G01*
X155625100Y-109082400D01*
G75*
G02*
X155475100Y-108932400I0J150000D01*
G01*
X155475100Y-107282400D01*
G75*
G02*
X155625100Y-107132400I150000J0D01*
G01*
G37*
M02*
