G04 #@! TF.GenerationSoftware,KiCad,Pcbnew,9.0.1+1*
G04 #@! TF.CreationDate,2025-11-20T05:47:04+00:00*
G04 #@! TF.ProjectId,com4bbb,636f6d34-6262-4622-9e6b-696361645f70,rev?*
G04 #@! TF.SameCoordinates,Original*
G04 #@! TF.FileFunction,Copper,L1,Top*
G04 #@! TF.FilePolarity,Positive*
%FSLAX46Y46*%
G04 Gerber Fmt 4.6, Leading zero omitted, Abs format (unit mm)*
G04 Created by KiCad (PCBNEW 9.0.1+1) date 2025-11-20 05:47:04*
%MOMM*%
%LPD*%
G01*
G04 APERTURE LIST*
G04 #@! TA.AperFunction,ComponentPad*
%ADD10R,1.700000X1.700000*%
G04 #@! TD*
G04 #@! TA.AperFunction,ComponentPad*
%ADD11C,1.700000*%
G04 #@! TD*
G04 #@! TA.AperFunction,ComponentPad*
%ADD12O,1.500000X3.000000*%
G04 #@! TD*
G04 #@! TA.AperFunction,SMDPad,CuDef*
%ADD13R,1.500000X1.000000*%
G04 #@! TD*
G04 #@! TA.AperFunction,ComponentPad*
%ADD14C,2.000000*%
G04 #@! TD*
G04 #@! TA.AperFunction,SMDPad,CuDef*
%ADD15R,1.500000X0.900000*%
G04 #@! TD*
G04 #@! TA.AperFunction,SMDPad,CuDef*
%ADD16R,0.900000X1.500000*%
G04 #@! TD*
G04 #@! TA.AperFunction,SMDPad,CuDef*
%ADD17R,0.900000X0.900000*%
G04 #@! TD*
G04 #@! TA.AperFunction,HeatsinkPad*
%ADD18C,0.600000*%
G04 #@! TD*
G04 #@! TA.AperFunction,HeatsinkPad*
%ADD19R,3.800000X3.800000*%
G04 #@! TD*
G04 #@! TA.AperFunction,ComponentPad*
%ADD20C,2.200000*%
G04 #@! TD*
G04 #@! TA.AperFunction,ViaPad*
%ADD21C,0.600000*%
G04 #@! TD*
G04 #@! TA.AperFunction,Conductor*
%ADD22C,0.500000*%
G04 #@! TD*
G04 #@! TA.AperFunction,Conductor*
%ADD23C,0.250000*%
G04 #@! TD*
G04 APERTURE END LIST*
D10*
X164630100Y-62382400D03*
D11*
X167170100Y-62382400D03*
X164630100Y-64922400D03*
X167170100Y-64922400D03*
X164630100Y-67462400D03*
X167170100Y-67462400D03*
X164630100Y-70002400D03*
X167170100Y-70002400D03*
X164630100Y-72542400D03*
X167170100Y-72542400D03*
X164630100Y-75082400D03*
X167170100Y-75082400D03*
X164630100Y-77622400D03*
X167170100Y-77622400D03*
X164630100Y-80162400D03*
X167170100Y-80162400D03*
X164630100Y-82702400D03*
X167170100Y-82702400D03*
X164630100Y-85242400D03*
X167170100Y-85242400D03*
X164630100Y-87782400D03*
X167170100Y-87782400D03*
X164630100Y-90322400D03*
X167170100Y-90322400D03*
X164630100Y-92862400D03*
X167170100Y-92862400D03*
X164630100Y-95402400D03*
X167170100Y-95402400D03*
X164630100Y-97942400D03*
X167170100Y-97942400D03*
X164630100Y-100482400D03*
X167170100Y-100482400D03*
X164630100Y-103022400D03*
X167170100Y-103022400D03*
X164630100Y-105562400D03*
X167170100Y-105562400D03*
X164630100Y-108102400D03*
X167170100Y-108102400D03*
X164630100Y-110642400D03*
X167170100Y-110642400D03*
X164630100Y-113182400D03*
X167170100Y-113182400D03*
X164630100Y-115722400D03*
X167170100Y-115722400D03*
X164630100Y-118262400D03*
X167170100Y-118262400D03*
D10*
X116370100Y-62382400D03*
D11*
X118910100Y-62382400D03*
X116370100Y-64922400D03*
X118910100Y-64922400D03*
X116370100Y-67462400D03*
X118910100Y-67462400D03*
X116370100Y-70002400D03*
X118910100Y-70002400D03*
X116370100Y-72542400D03*
X118910100Y-72542400D03*
X116370100Y-75082400D03*
X118910100Y-75082400D03*
X116370100Y-77622400D03*
X118910100Y-77622400D03*
X116370100Y-80162400D03*
X118910100Y-80162400D03*
X116370100Y-82702400D03*
X118910100Y-82702400D03*
X116370100Y-85242400D03*
X118910100Y-85242400D03*
X116370100Y-87782400D03*
X118910100Y-87782400D03*
X116370100Y-90322400D03*
X118910100Y-90322400D03*
X116370100Y-92862400D03*
X118910100Y-92862400D03*
X116370100Y-95402400D03*
X118910100Y-95402400D03*
X116370100Y-97942400D03*
X118910100Y-97942400D03*
X116370100Y-100482400D03*
X118910100Y-100482400D03*
X116370100Y-103022400D03*
X118910100Y-103022400D03*
X116370100Y-105562400D03*
X118910100Y-105562400D03*
X116370100Y-108102400D03*
X118910100Y-108102400D03*
X116370100Y-110642400D03*
X118910100Y-110642400D03*
X116370100Y-113182400D03*
X118910100Y-113182400D03*
X116370100Y-115722400D03*
X118910100Y-115722400D03*
X116370100Y-118262400D03*
X118910100Y-118262400D03*
G04 #@! TA.AperFunction,SMDPad,CuDef*
G36*
G01*
X124950100Y-90622400D02*
X125290100Y-90622400D01*
G75*
G02*
X125430100Y-90762400I0J-140000D01*
G01*
X125430100Y-91042400D01*
G75*
G02*
X125290100Y-91182400I-140000J0D01*
G01*
X124950100Y-91182400D01*
G75*
G02*
X124810100Y-91042400I0J140000D01*
G01*
X124810100Y-90762400D01*
G75*
G02*
X124950100Y-90622400I140000J0D01*
G01*
G37*
G04 #@! TD.AperFunction*
G04 #@! TA.AperFunction,SMDPad,CuDef*
G36*
G01*
X124950100Y-91582400D02*
X125290100Y-91582400D01*
G75*
G02*
X125430100Y-91722400I0J-140000D01*
G01*
X125430100Y-92002400D01*
G75*
G02*
X125290100Y-92142400I-140000J0D01*
G01*
X124950100Y-92142400D01*
G75*
G02*
X124810100Y-92002400I0J140000D01*
G01*
X124810100Y-91722400D01*
G75*
G02*
X124950100Y-91582400I140000J0D01*
G01*
G37*
G04 #@! TD.AperFunction*
G04 #@! TA.AperFunction,ComponentPad*
G36*
G01*
X150620100Y-119632399D02*
X150620100Y-117132401D01*
G75*
G02*
X150870101Y-116882400I250001J0D01*
G01*
X151870099Y-116882400D01*
G75*
G02*
X152120100Y-117132401I0J-250001D01*
G01*
X152120100Y-119632399D01*
G75*
G02*
X151870099Y-119882400I-250001J0D01*
G01*
X150870101Y-119882400D01*
G75*
G02*
X150620100Y-119632399I0J250001D01*
G01*
G37*
G04 #@! TD.AperFunction*
D12*
X156370100Y-118382400D03*
G04 #@! TA.AperFunction,SMDPad,CuDef*
G36*
X125620100Y-78132400D02*
G01*
X125620100Y-78682400D01*
X125615822Y-78682400D01*
X125615822Y-78747663D01*
X125582040Y-78873742D01*
X125516777Y-78986781D01*
X125424481Y-79079077D01*
X125311442Y-79144340D01*
X125185363Y-79178122D01*
X125120100Y-79178122D01*
X125120100Y-79182400D01*
X124620100Y-79182400D01*
X124620100Y-79178122D01*
X124554837Y-79178122D01*
X124428758Y-79144340D01*
X124315719Y-79079077D01*
X124223423Y-78986781D01*
X124158160Y-78873742D01*
X124124378Y-78747663D01*
X124124378Y-78682400D01*
X124120100Y-78682400D01*
X124120100Y-78132400D01*
X125620100Y-78132400D01*
G37*
G04 #@! TD.AperFunction*
D13*
X124870100Y-77382400D03*
G04 #@! TA.AperFunction,SMDPad,CuDef*
G36*
X124124378Y-76082400D02*
G01*
X124124378Y-76017137D01*
X124158160Y-75891058D01*
X124223423Y-75778019D01*
X124315719Y-75685723D01*
X124428758Y-75620460D01*
X124554837Y-75586678D01*
X124620100Y-75586678D01*
X124620100Y-75582400D01*
X125120100Y-75582400D01*
X125120100Y-75586678D01*
X125185363Y-75586678D01*
X125311442Y-75620460D01*
X125424481Y-75685723D01*
X125516777Y-75778019D01*
X125582040Y-75891058D01*
X125615822Y-76017137D01*
X125615822Y-76082400D01*
X125620100Y-76082400D01*
X125620100Y-76632400D01*
X124120100Y-76632400D01*
X124120100Y-76082400D01*
X124124378Y-76082400D01*
G37*
G04 #@! TD.AperFunction*
G04 #@! TA.AperFunction,SMDPad,CuDef*
G36*
X127620100Y-76632400D02*
G01*
X127620100Y-76082400D01*
X127624378Y-76082400D01*
X127624378Y-76017137D01*
X127658160Y-75891058D01*
X127723423Y-75778019D01*
X127815719Y-75685723D01*
X127928758Y-75620460D01*
X128054837Y-75586678D01*
X128120100Y-75586678D01*
X128120100Y-75582400D01*
X128620100Y-75582400D01*
X128620100Y-75586678D01*
X128685363Y-75586678D01*
X128811442Y-75620460D01*
X128924481Y-75685723D01*
X129016777Y-75778019D01*
X129082040Y-75891058D01*
X129115822Y-76017137D01*
X129115822Y-76082400D01*
X129120100Y-76082400D01*
X129120100Y-76632400D01*
X127620100Y-76632400D01*
G37*
G04 #@! TD.AperFunction*
X128370100Y-77382400D03*
G04 #@! TA.AperFunction,SMDPad,CuDef*
G36*
X129115822Y-78682400D02*
G01*
X129115822Y-78747663D01*
X129082040Y-78873742D01*
X129016777Y-78986781D01*
X128924481Y-79079077D01*
X128811442Y-79144340D01*
X128685363Y-79178122D01*
X128620100Y-79178122D01*
X128620100Y-79182400D01*
X128120100Y-79182400D01*
X128120100Y-79178122D01*
X128054837Y-79178122D01*
X127928758Y-79144340D01*
X127815719Y-79079077D01*
X127723423Y-78986781D01*
X127658160Y-78873742D01*
X127624378Y-78747663D01*
X127624378Y-78682400D01*
X127620100Y-78682400D01*
X127620100Y-78132400D01*
X129120100Y-78132400D01*
X129120100Y-78682400D01*
X129115822Y-78682400D01*
G37*
G04 #@! TD.AperFunction*
G04 #@! TA.AperFunction,SMDPad,CuDef*
G36*
X125120100Y-112382400D02*
G01*
X125120100Y-112932400D01*
X125115822Y-112932400D01*
X125115822Y-112997663D01*
X125082040Y-113123742D01*
X125016777Y-113236781D01*
X124924481Y-113329077D01*
X124811442Y-113394340D01*
X124685363Y-113428122D01*
X124620100Y-113428122D01*
X124620100Y-113432400D01*
X124120100Y-113432400D01*
X124120100Y-113428122D01*
X124054837Y-113428122D01*
X123928758Y-113394340D01*
X123815719Y-113329077D01*
X123723423Y-113236781D01*
X123658160Y-113123742D01*
X123624378Y-112997663D01*
X123624378Y-112932400D01*
X123620100Y-112932400D01*
X123620100Y-112382400D01*
X125120100Y-112382400D01*
G37*
G04 #@! TD.AperFunction*
X124370100Y-111632400D03*
G04 #@! TA.AperFunction,SMDPad,CuDef*
G36*
X123624378Y-110332400D02*
G01*
X123624378Y-110267137D01*
X123658160Y-110141058D01*
X123723423Y-110028019D01*
X123815719Y-109935723D01*
X123928758Y-109870460D01*
X124054837Y-109836678D01*
X124120100Y-109836678D01*
X124120100Y-109832400D01*
X124620100Y-109832400D01*
X124620100Y-109836678D01*
X124685363Y-109836678D01*
X124811442Y-109870460D01*
X124924481Y-109935723D01*
X125016777Y-110028019D01*
X125082040Y-110141058D01*
X125115822Y-110267137D01*
X125115822Y-110332400D01*
X125120100Y-110332400D01*
X125120100Y-110882400D01*
X123620100Y-110882400D01*
X123620100Y-110332400D01*
X123624378Y-110332400D01*
G37*
G04 #@! TD.AperFunction*
G04 #@! TA.AperFunction,SMDPad,CuDef*
G36*
X125120100Y-120132400D02*
G01*
X125120100Y-120682400D01*
X125115822Y-120682400D01*
X125115822Y-120747663D01*
X125082040Y-120873742D01*
X125016777Y-120986781D01*
X124924481Y-121079077D01*
X124811442Y-121144340D01*
X124685363Y-121178122D01*
X124620100Y-121178122D01*
X124620100Y-121182400D01*
X124120100Y-121182400D01*
X124120100Y-121178122D01*
X124054837Y-121178122D01*
X123928758Y-121144340D01*
X123815719Y-121079077D01*
X123723423Y-120986781D01*
X123658160Y-120873742D01*
X123624378Y-120747663D01*
X123624378Y-120682400D01*
X123620100Y-120682400D01*
X123620100Y-120132400D01*
X125120100Y-120132400D01*
G37*
G04 #@! TD.AperFunction*
X124370100Y-119382400D03*
G04 #@! TA.AperFunction,SMDPad,CuDef*
G36*
X123624378Y-118082400D02*
G01*
X123624378Y-118017137D01*
X123658160Y-117891058D01*
X123723423Y-117778019D01*
X123815719Y-117685723D01*
X123928758Y-117620460D01*
X124054837Y-117586678D01*
X124120100Y-117586678D01*
X124120100Y-117582400D01*
X124620100Y-117582400D01*
X124620100Y-117586678D01*
X124685363Y-117586678D01*
X124811442Y-117620460D01*
X124924481Y-117685723D01*
X125016777Y-117778019D01*
X125082040Y-117891058D01*
X125115822Y-118017137D01*
X125115822Y-118082400D01*
X125120100Y-118082400D01*
X125120100Y-118632400D01*
X123620100Y-118632400D01*
X123620100Y-118082400D01*
X123624378Y-118082400D01*
G37*
G04 #@! TD.AperFunction*
G04 #@! TA.AperFunction,SMDPad,CuDef*
G36*
X127620100Y-92232400D02*
G01*
X127620100Y-91732400D01*
X127624378Y-91732400D01*
X127624378Y-91667137D01*
X127658160Y-91541058D01*
X127723423Y-91428019D01*
X127815719Y-91335723D01*
X127928758Y-91270460D01*
X128054837Y-91236678D01*
X128120100Y-91236678D01*
X128120100Y-91232400D01*
X128620100Y-91232400D01*
X128620100Y-91236678D01*
X128685363Y-91236678D01*
X128811442Y-91270460D01*
X128924481Y-91335723D01*
X129016777Y-91428019D01*
X129082040Y-91541058D01*
X129115822Y-91667137D01*
X129115822Y-91732400D01*
X129120100Y-91732400D01*
X129120100Y-92232400D01*
X127620100Y-92232400D01*
G37*
G04 #@! TD.AperFunction*
G04 #@! TA.AperFunction,SMDPad,CuDef*
G36*
X129115822Y-93032400D02*
G01*
X129115822Y-93097663D01*
X129082040Y-93223742D01*
X129016777Y-93336781D01*
X128924481Y-93429077D01*
X128811442Y-93494340D01*
X128685363Y-93528122D01*
X128620100Y-93528122D01*
X128620100Y-93532400D01*
X128120100Y-93532400D01*
X128120100Y-93528122D01*
X128054837Y-93528122D01*
X127928758Y-93494340D01*
X127815719Y-93429077D01*
X127723423Y-93336781D01*
X127658160Y-93223742D01*
X127624378Y-93097663D01*
X127624378Y-93032400D01*
X127620100Y-93032400D01*
X127620100Y-92532400D01*
X129120100Y-92532400D01*
X129120100Y-93032400D01*
X129115822Y-93032400D01*
G37*
G04 #@! TD.AperFunction*
G04 #@! TA.AperFunction,SMDPad,CuDef*
G36*
X133620100Y-92232400D02*
G01*
X133620100Y-91732400D01*
X133624378Y-91732400D01*
X133624378Y-91667137D01*
X133658160Y-91541058D01*
X133723423Y-91428019D01*
X133815719Y-91335723D01*
X133928758Y-91270460D01*
X134054837Y-91236678D01*
X134120100Y-91236678D01*
X134120100Y-91232400D01*
X134620100Y-91232400D01*
X134620100Y-91236678D01*
X134685363Y-91236678D01*
X134811442Y-91270460D01*
X134924481Y-91335723D01*
X135016777Y-91428019D01*
X135082040Y-91541058D01*
X135115822Y-91667137D01*
X135115822Y-91732400D01*
X135120100Y-91732400D01*
X135120100Y-92232400D01*
X133620100Y-92232400D01*
G37*
G04 #@! TD.AperFunction*
G04 #@! TA.AperFunction,SMDPad,CuDef*
G36*
X135115822Y-93032400D02*
G01*
X135115822Y-93097663D01*
X135082040Y-93223742D01*
X135016777Y-93336781D01*
X134924481Y-93429077D01*
X134811442Y-93494340D01*
X134685363Y-93528122D01*
X134620100Y-93528122D01*
X134620100Y-93532400D01*
X134120100Y-93532400D01*
X134120100Y-93528122D01*
X134054837Y-93528122D01*
X133928758Y-93494340D01*
X133815719Y-93429077D01*
X133723423Y-93336781D01*
X133658160Y-93223742D01*
X133624378Y-93097663D01*
X133624378Y-93032400D01*
X133620100Y-93032400D01*
X133620100Y-92532400D01*
X135120100Y-92532400D01*
X135120100Y-93032400D01*
X135115822Y-93032400D01*
G37*
G04 #@! TD.AperFunction*
G04 #@! TA.AperFunction,SMDPad,CuDef*
G36*
X123120100Y-87532400D02*
G01*
X123120100Y-88032400D01*
X123115822Y-88032400D01*
X123115822Y-88097663D01*
X123082040Y-88223742D01*
X123016777Y-88336781D01*
X122924481Y-88429077D01*
X122811442Y-88494340D01*
X122685363Y-88528122D01*
X122620100Y-88528122D01*
X122620100Y-88532400D01*
X122120100Y-88532400D01*
X122120100Y-88528122D01*
X122054837Y-88528122D01*
X121928758Y-88494340D01*
X121815719Y-88429077D01*
X121723423Y-88336781D01*
X121658160Y-88223742D01*
X121624378Y-88097663D01*
X121624378Y-88032400D01*
X121620100Y-88032400D01*
X121620100Y-87532400D01*
X123120100Y-87532400D01*
G37*
G04 #@! TD.AperFunction*
G04 #@! TA.AperFunction,SMDPad,CuDef*
G36*
X121624378Y-86732400D02*
G01*
X121624378Y-86667137D01*
X121658160Y-86541058D01*
X121723423Y-86428019D01*
X121815719Y-86335723D01*
X121928758Y-86270460D01*
X122054837Y-86236678D01*
X122120100Y-86236678D01*
X122120100Y-86232400D01*
X122620100Y-86232400D01*
X122620100Y-86236678D01*
X122685363Y-86236678D01*
X122811442Y-86270460D01*
X122924481Y-86335723D01*
X123016777Y-86428019D01*
X123082040Y-86541058D01*
X123115822Y-86667137D01*
X123115822Y-86732400D01*
X123120100Y-86732400D01*
X123120100Y-87232400D01*
X121620100Y-87232400D01*
X121620100Y-86732400D01*
X121624378Y-86732400D01*
G37*
G04 #@! TD.AperFunction*
G04 #@! TA.AperFunction,SMDPad,CuDef*
G36*
G01*
X134150100Y-86447400D02*
X134150100Y-86817400D01*
G75*
G02*
X134015100Y-86952400I-135000J0D01*
G01*
X133745100Y-86952400D01*
G75*
G02*
X133610100Y-86817400I0J135000D01*
G01*
X133610100Y-86447400D01*
G75*
G02*
X133745100Y-86312400I135000J0D01*
G01*
X134015100Y-86312400D01*
G75*
G02*
X134150100Y-86447400I0J-135000D01*
G01*
G37*
G04 #@! TD.AperFunction*
G04 #@! TA.AperFunction,SMDPad,CuDef*
G36*
G01*
X133130100Y-86447400D02*
X133130100Y-86817400D01*
G75*
G02*
X132995100Y-86952400I-135000J0D01*
G01*
X132725100Y-86952400D01*
G75*
G02*
X132590100Y-86817400I0J135000D01*
G01*
X132590100Y-86447400D01*
G75*
G02*
X132725100Y-86312400I135000J0D01*
G01*
X132995100Y-86312400D01*
G75*
G02*
X133130100Y-86447400I0J-135000D01*
G01*
G37*
G04 #@! TD.AperFunction*
G04 #@! TA.AperFunction,SMDPad,CuDef*
G36*
G01*
X134150100Y-87697400D02*
X134150100Y-88067400D01*
G75*
G02*
X134015100Y-88202400I-135000J0D01*
G01*
X133745100Y-88202400D01*
G75*
G02*
X133610100Y-88067400I0J135000D01*
G01*
X133610100Y-87697400D01*
G75*
G02*
X133745100Y-87562400I135000J0D01*
G01*
X134015100Y-87562400D01*
G75*
G02*
X134150100Y-87697400I0J-135000D01*
G01*
G37*
G04 #@! TD.AperFunction*
G04 #@! TA.AperFunction,SMDPad,CuDef*
G36*
G01*
X133130100Y-87697400D02*
X133130100Y-88067400D01*
G75*
G02*
X132995100Y-88202400I-135000J0D01*
G01*
X132725100Y-88202400D01*
G75*
G02*
X132590100Y-88067400I0J135000D01*
G01*
X132590100Y-87697400D01*
G75*
G02*
X132725100Y-87562400I135000J0D01*
G01*
X132995100Y-87562400D01*
G75*
G02*
X133130100Y-87697400I0J-135000D01*
G01*
G37*
G04 #@! TD.AperFunction*
G04 #@! TA.AperFunction,SMDPad,CuDef*
G36*
G01*
X122555100Y-91162400D02*
X122185100Y-91162400D01*
G75*
G02*
X122050100Y-91027400I0J135000D01*
G01*
X122050100Y-90757400D01*
G75*
G02*
X122185100Y-90622400I135000J0D01*
G01*
X122555100Y-90622400D01*
G75*
G02*
X122690100Y-90757400I0J-135000D01*
G01*
X122690100Y-91027400D01*
G75*
G02*
X122555100Y-91162400I-135000J0D01*
G01*
G37*
G04 #@! TD.AperFunction*
G04 #@! TA.AperFunction,SMDPad,CuDef*
G36*
G01*
X122555100Y-90142400D02*
X122185100Y-90142400D01*
G75*
G02*
X122050100Y-90007400I0J135000D01*
G01*
X122050100Y-89737400D01*
G75*
G02*
X122185100Y-89602400I135000J0D01*
G01*
X122555100Y-89602400D01*
G75*
G02*
X122690100Y-89737400I0J-135000D01*
G01*
X122690100Y-90007400D01*
G75*
G02*
X122555100Y-90142400I-135000J0D01*
G01*
G37*
G04 #@! TD.AperFunction*
D14*
X155370100Y-72382400D03*
X155370100Y-65882400D03*
X159870100Y-72382400D03*
X159870100Y-65882400D03*
X125370100Y-72382400D03*
X125370100Y-65882400D03*
X129870100Y-72382400D03*
X129870100Y-65882400D03*
D15*
X145120100Y-120637400D03*
X145120100Y-119367400D03*
X145120100Y-118097400D03*
X145120100Y-116827400D03*
X145120100Y-115557400D03*
X145120100Y-114287400D03*
X145120100Y-113017400D03*
X145120100Y-111747400D03*
X145120100Y-110477400D03*
X145120100Y-109207400D03*
X145120100Y-107937400D03*
X145120100Y-106667400D03*
X145120100Y-105397400D03*
X145120100Y-104127400D03*
D16*
X142085100Y-103032400D03*
X140815100Y-103032400D03*
X139545100Y-103032400D03*
X138275100Y-103032400D03*
X137005100Y-103032400D03*
X135735100Y-103032400D03*
X134465100Y-103032400D03*
X133195100Y-103032400D03*
X131925100Y-103032400D03*
X130655100Y-103032400D03*
D15*
X127620100Y-104127400D03*
X127620100Y-105397400D03*
X127620100Y-106667400D03*
X127620100Y-107937400D03*
X127620100Y-109207400D03*
X127620100Y-110477400D03*
X127620100Y-111747400D03*
X127620100Y-113017400D03*
X127620100Y-114287400D03*
X127620100Y-115557400D03*
X127620100Y-116827400D03*
X127620100Y-118097400D03*
X127620100Y-119367400D03*
X127620100Y-120637400D03*
D17*
X139270100Y-114472400D03*
D18*
X139270100Y-113772400D03*
D17*
X139270100Y-113072400D03*
D18*
X139270100Y-112372400D03*
D17*
X139270100Y-111672400D03*
D18*
X138570100Y-114472400D03*
X138570100Y-113072400D03*
X138570100Y-111672400D03*
D17*
X137870100Y-114472400D03*
D18*
X137870100Y-113772400D03*
D17*
X137870100Y-113072400D03*
D19*
X137870100Y-113072400D03*
D18*
X137870100Y-112372400D03*
D17*
X137870100Y-111672400D03*
D18*
X137170100Y-114472400D03*
X137170100Y-113072400D03*
X137170100Y-111672400D03*
D17*
X136470100Y-114472400D03*
D18*
X136470100Y-113772400D03*
D17*
X136470100Y-113072400D03*
D18*
X136470100Y-112372400D03*
D17*
X136470100Y-111672400D03*
G04 #@! TA.AperFunction,SMDPad,CuDef*
G36*
G01*
X131820100Y-89137400D02*
X131820100Y-89437400D01*
G75*
G02*
X131670100Y-89587400I-150000J0D01*
G01*
X130020100Y-89587400D01*
G75*
G02*
X129870100Y-89437400I0J150000D01*
G01*
X129870100Y-89137400D01*
G75*
G02*
X130020100Y-88987400I150000J0D01*
G01*
X131670100Y-88987400D01*
G75*
G02*
X131820100Y-89137400I0J-150000D01*
G01*
G37*
G04 #@! TD.AperFunction*
G04 #@! TA.AperFunction,SMDPad,CuDef*
G36*
G01*
X131820100Y-87867400D02*
X131820100Y-88167400D01*
G75*
G02*
X131670100Y-88317400I-150000J0D01*
G01*
X130020100Y-88317400D01*
G75*
G02*
X129870100Y-88167400I0J150000D01*
G01*
X129870100Y-87867400D01*
G75*
G02*
X130020100Y-87717400I150000J0D01*
G01*
X131670100Y-87717400D01*
G75*
G02*
X131820100Y-87867400I0J-150000D01*
G01*
G37*
G04 #@! TD.AperFunction*
G04 #@! TA.AperFunction,SMDPad,CuDef*
G36*
G01*
X131820100Y-86597400D02*
X131820100Y-86897400D01*
G75*
G02*
X131670100Y-87047400I-150000J0D01*
G01*
X130020100Y-87047400D01*
G75*
G02*
X129870100Y-86897400I0J150000D01*
G01*
X129870100Y-86597400D01*
G75*
G02*
X130020100Y-86447400I150000J0D01*
G01*
X131670100Y-86447400D01*
G75*
G02*
X131820100Y-86597400I0J-150000D01*
G01*
G37*
G04 #@! TD.AperFunction*
G04 #@! TA.AperFunction,SMDPad,CuDef*
G36*
G01*
X131820100Y-85327400D02*
X131820100Y-85627400D01*
G75*
G02*
X131670100Y-85777400I-150000J0D01*
G01*
X130020100Y-85777400D01*
G75*
G02*
X129870100Y-85627400I0J150000D01*
G01*
X129870100Y-85327400D01*
G75*
G02*
X130020100Y-85177400I150000J0D01*
G01*
X131670100Y-85177400D01*
G75*
G02*
X131820100Y-85327400I0J-150000D01*
G01*
G37*
G04 #@! TD.AperFunction*
G04 #@! TA.AperFunction,SMDPad,CuDef*
G36*
G01*
X126870100Y-85327400D02*
X126870100Y-85627400D01*
G75*
G02*
X126720100Y-85777400I-150000J0D01*
G01*
X125070100Y-85777400D01*
G75*
G02*
X124920100Y-85627400I0J150000D01*
G01*
X124920100Y-85327400D01*
G75*
G02*
X125070100Y-85177400I150000J0D01*
G01*
X126720100Y-85177400D01*
G75*
G02*
X126870100Y-85327400I0J-150000D01*
G01*
G37*
G04 #@! TD.AperFunction*
G04 #@! TA.AperFunction,SMDPad,CuDef*
G36*
G01*
X126870100Y-86597400D02*
X126870100Y-86897400D01*
G75*
G02*
X126720100Y-87047400I-150000J0D01*
G01*
X125070100Y-87047400D01*
G75*
G02*
X124920100Y-86897400I0J150000D01*
G01*
X124920100Y-86597400D01*
G75*
G02*
X125070100Y-86447400I150000J0D01*
G01*
X126720100Y-86447400D01*
G75*
G02*
X126870100Y-86597400I0J-150000D01*
G01*
G37*
G04 #@! TD.AperFunction*
G04 #@! TA.AperFunction,SMDPad,CuDef*
G36*
G01*
X126870100Y-87867400D02*
X126870100Y-88167400D01*
G75*
G02*
X126720100Y-88317400I-150000J0D01*
G01*
X125070100Y-88317400D01*
G75*
G02*
X124920100Y-88167400I0J150000D01*
G01*
X124920100Y-87867400D01*
G75*
G02*
X125070100Y-87717400I150000J0D01*
G01*
X126720100Y-87717400D01*
G75*
G02*
X126870100Y-87867400I0J-150000D01*
G01*
G37*
G04 #@! TD.AperFunction*
G04 #@! TA.AperFunction,SMDPad,CuDef*
G36*
G01*
X126870100Y-89137400D02*
X126870100Y-89437400D01*
G75*
G02*
X126720100Y-89587400I-150000J0D01*
G01*
X125070100Y-89587400D01*
G75*
G02*
X124920100Y-89437400I0J150000D01*
G01*
X124920100Y-89137400D01*
G75*
G02*
X125070100Y-88987400I150000J0D01*
G01*
X126720100Y-88987400D01*
G75*
G02*
X126870100Y-89137400I0J-150000D01*
G01*
G37*
G04 #@! TD.AperFunction*
G04 #@! TA.AperFunction,SMDPad,CuDef*
G36*
G01*
X153595100Y-75126150D02*
X153595100Y-75638650D01*
G75*
G02*
X153376350Y-75857400I-218750J0D01*
G01*
X152938850Y-75857400D01*
G75*
G02*
X152720100Y-75638650I0J218750D01*
G01*
X152720100Y-75126150D01*
G75*
G02*
X152938850Y-74907400I218750J0D01*
G01*
X153376350Y-74907400D01*
G75*
G02*
X153595100Y-75126150I0J-218750D01*
G01*
G37*
G04 #@! TD.AperFunction*
G04 #@! TA.AperFunction,SMDPad,CuDef*
G36*
G01*
X152020100Y-75126150D02*
X152020100Y-75638650D01*
G75*
G02*
X151801350Y-75857400I-218750J0D01*
G01*
X151363850Y-75857400D01*
G75*
G02*
X151145100Y-75638650I0J218750D01*
G01*
X151145100Y-75126150D01*
G75*
G02*
X151363850Y-74907400I218750J0D01*
G01*
X151801350Y-74907400D01*
G75*
G02*
X152020100Y-75126150I0J-218750D01*
G01*
G37*
G04 #@! TD.AperFunction*
G04 #@! TA.AperFunction,SMDPad,CuDef*
G36*
G01*
X153595100Y-76876150D02*
X153595100Y-77388650D01*
G75*
G02*
X153376350Y-77607400I-218750J0D01*
G01*
X152938850Y-77607400D01*
G75*
G02*
X152720100Y-77388650I0J218750D01*
G01*
X152720100Y-76876150D01*
G75*
G02*
X152938850Y-76657400I218750J0D01*
G01*
X153376350Y-76657400D01*
G75*
G02*
X153595100Y-76876150I0J-218750D01*
G01*
G37*
G04 #@! TD.AperFunction*
G04 #@! TA.AperFunction,SMDPad,CuDef*
G36*
G01*
X152020100Y-76876150D02*
X152020100Y-77388650D01*
G75*
G02*
X151801350Y-77607400I-218750J0D01*
G01*
X151363850Y-77607400D01*
G75*
G02*
X151145100Y-77388650I0J218750D01*
G01*
X151145100Y-76876150D01*
G75*
G02*
X151363850Y-76657400I218750J0D01*
G01*
X151801350Y-76657400D01*
G75*
G02*
X152020100Y-76876150I0J-218750D01*
G01*
G37*
G04 #@! TD.AperFunction*
G04 #@! TA.AperFunction,SMDPad,CuDef*
G36*
G01*
X153595100Y-78626150D02*
X153595100Y-79138650D01*
G75*
G02*
X153376350Y-79357400I-218750J0D01*
G01*
X152938850Y-79357400D01*
G75*
G02*
X152720100Y-79138650I0J218750D01*
G01*
X152720100Y-78626150D01*
G75*
G02*
X152938850Y-78407400I218750J0D01*
G01*
X153376350Y-78407400D01*
G75*
G02*
X153595100Y-78626150I0J-218750D01*
G01*
G37*
G04 #@! TD.AperFunction*
G04 #@! TA.AperFunction,SMDPad,CuDef*
G36*
G01*
X152020100Y-78626150D02*
X152020100Y-79138650D01*
G75*
G02*
X151801350Y-79357400I-218750J0D01*
G01*
X151363850Y-79357400D01*
G75*
G02*
X151145100Y-79138650I0J218750D01*
G01*
X151145100Y-78626150D01*
G75*
G02*
X151363850Y-78407400I218750J0D01*
G01*
X151801350Y-78407400D01*
G75*
G02*
X152020100Y-78626150I0J-218750D01*
G01*
G37*
G04 #@! TD.AperFunction*
G04 #@! TA.AperFunction,SMDPad,CuDef*
G36*
G01*
X153595100Y-80376150D02*
X153595100Y-80888650D01*
G75*
G02*
X153376350Y-81107400I-218750J0D01*
G01*
X152938850Y-81107400D01*
G75*
G02*
X152720100Y-80888650I0J218750D01*
G01*
X152720100Y-80376150D01*
G75*
G02*
X152938850Y-80157400I218750J0D01*
G01*
X153376350Y-80157400D01*
G75*
G02*
X153595100Y-80376150I0J-218750D01*
G01*
G37*
G04 #@! TD.AperFunction*
G04 #@! TA.AperFunction,SMDPad,CuDef*
G36*
G01*
X152020100Y-80376150D02*
X152020100Y-80888650D01*
G75*
G02*
X151801350Y-81107400I-218750J0D01*
G01*
X151363850Y-81107400D01*
G75*
G02*
X151145100Y-80888650I0J218750D01*
G01*
X151145100Y-80376150D01*
G75*
G02*
X151363850Y-80157400I218750J0D01*
G01*
X151801350Y-80157400D01*
G75*
G02*
X152020100Y-80376150I0J-218750D01*
G01*
G37*
G04 #@! TD.AperFunction*
G04 #@! TA.AperFunction,SMDPad,CuDef*
G36*
G01*
X153595100Y-82126150D02*
X153595100Y-82638650D01*
G75*
G02*
X153376350Y-82857400I-218750J0D01*
G01*
X152938850Y-82857400D01*
G75*
G02*
X152720100Y-82638650I0J218750D01*
G01*
X152720100Y-82126150D01*
G75*
G02*
X152938850Y-81907400I218750J0D01*
G01*
X153376350Y-81907400D01*
G75*
G02*
X153595100Y-82126150I0J-218750D01*
G01*
G37*
G04 #@! TD.AperFunction*
G04 #@! TA.AperFunction,SMDPad,CuDef*
G36*
G01*
X152020100Y-82126150D02*
X152020100Y-82638650D01*
G75*
G02*
X151801350Y-82857400I-218750J0D01*
G01*
X151363850Y-82857400D01*
G75*
G02*
X151145100Y-82638650I0J218750D01*
G01*
X151145100Y-82126150D01*
G75*
G02*
X151363850Y-81907400I218750J0D01*
G01*
X151801350Y-81907400D01*
G75*
G02*
X152020100Y-82126150I0J-218750D01*
G01*
G37*
G04 #@! TD.AperFunction*
G04 #@! TA.AperFunction,SMDPad,CuDef*
G36*
G01*
X153595100Y-83876150D02*
X153595100Y-84388650D01*
G75*
G02*
X153376350Y-84607400I-218750J0D01*
G01*
X152938850Y-84607400D01*
G75*
G02*
X152720100Y-84388650I0J218750D01*
G01*
X152720100Y-83876150D01*
G75*
G02*
X152938850Y-83657400I218750J0D01*
G01*
X153376350Y-83657400D01*
G75*
G02*
X153595100Y-83876150I0J-218750D01*
G01*
G37*
G04 #@! TD.AperFunction*
G04 #@! TA.AperFunction,SMDPad,CuDef*
G36*
G01*
X152020100Y-83876150D02*
X152020100Y-84388650D01*
G75*
G02*
X151801350Y-84607400I-218750J0D01*
G01*
X151363850Y-84607400D01*
G75*
G02*
X151145100Y-84388650I0J218750D01*
G01*
X151145100Y-83876150D01*
G75*
G02*
X151363850Y-83657400I218750J0D01*
G01*
X151801350Y-83657400D01*
G75*
G02*
X152020100Y-83876150I0J-218750D01*
G01*
G37*
G04 #@! TD.AperFunction*
G04 #@! TA.AperFunction,SMDPad,CuDef*
G36*
G01*
X153595100Y-85626150D02*
X153595100Y-86138650D01*
G75*
G02*
X153376350Y-86357400I-218750J0D01*
G01*
X152938850Y-86357400D01*
G75*
G02*
X152720100Y-86138650I0J218750D01*
G01*
X152720100Y-85626150D01*
G75*
G02*
X152938850Y-85407400I218750J0D01*
G01*
X153376350Y-85407400D01*
G75*
G02*
X153595100Y-85626150I0J-218750D01*
G01*
G37*
G04 #@! TD.AperFunction*
G04 #@! TA.AperFunction,SMDPad,CuDef*
G36*
G01*
X152020100Y-85626150D02*
X152020100Y-86138650D01*
G75*
G02*
X151801350Y-86357400I-218750J0D01*
G01*
X151363850Y-86357400D01*
G75*
G02*
X151145100Y-86138650I0J218750D01*
G01*
X151145100Y-85626150D01*
G75*
G02*
X151363850Y-85407400I218750J0D01*
G01*
X151801350Y-85407400D01*
G75*
G02*
X152020100Y-85626150I0J-218750D01*
G01*
G37*
G04 #@! TD.AperFunction*
G04 #@! TA.AperFunction,SMDPad,CuDef*
G36*
G01*
X153595100Y-87376150D02*
X153595100Y-87888650D01*
G75*
G02*
X153376350Y-88107400I-218750J0D01*
G01*
X152938850Y-88107400D01*
G75*
G02*
X152720100Y-87888650I0J218750D01*
G01*
X152720100Y-87376150D01*
G75*
G02*
X152938850Y-87157400I218750J0D01*
G01*
X153376350Y-87157400D01*
G75*
G02*
X153595100Y-87376150I0J-218750D01*
G01*
G37*
G04 #@! TD.AperFunction*
G04 #@! TA.AperFunction,SMDPad,CuDef*
G36*
G01*
X152020100Y-87376150D02*
X152020100Y-87888650D01*
G75*
G02*
X151801350Y-88107400I-218750J0D01*
G01*
X151363850Y-88107400D01*
G75*
G02*
X151145100Y-87888650I0J218750D01*
G01*
X151145100Y-87376150D01*
G75*
G02*
X151363850Y-87157400I218750J0D01*
G01*
X151801350Y-87157400D01*
G75*
G02*
X152020100Y-87376150I0J-218750D01*
G01*
G37*
G04 #@! TD.AperFunction*
G04 #@! TA.AperFunction,SMDPad,CuDef*
G36*
G01*
X153595100Y-89126150D02*
X153595100Y-89638650D01*
G75*
G02*
X153376350Y-89857400I-218750J0D01*
G01*
X152938850Y-89857400D01*
G75*
G02*
X152720100Y-89638650I0J218750D01*
G01*
X152720100Y-89126150D01*
G75*
G02*
X152938850Y-88907400I218750J0D01*
G01*
X153376350Y-88907400D01*
G75*
G02*
X153595100Y-89126150I0J-218750D01*
G01*
G37*
G04 #@! TD.AperFunction*
G04 #@! TA.AperFunction,SMDPad,CuDef*
G36*
G01*
X152020100Y-89126150D02*
X152020100Y-89638650D01*
G75*
G02*
X151801350Y-89857400I-218750J0D01*
G01*
X151363850Y-89857400D01*
G75*
G02*
X151145100Y-89638650I0J218750D01*
G01*
X151145100Y-89126150D01*
G75*
G02*
X151363850Y-88907400I218750J0D01*
G01*
X151801350Y-88907400D01*
G75*
G02*
X152020100Y-89126150I0J-218750D01*
G01*
G37*
G04 #@! TD.AperFunction*
G04 #@! TA.AperFunction,SMDPad,CuDef*
G36*
G01*
X153595100Y-90876150D02*
X153595100Y-91388650D01*
G75*
G02*
X153376350Y-91607400I-218750J0D01*
G01*
X152938850Y-91607400D01*
G75*
G02*
X152720100Y-91388650I0J218750D01*
G01*
X152720100Y-90876150D01*
G75*
G02*
X152938850Y-90657400I218750J0D01*
G01*
X153376350Y-90657400D01*
G75*
G02*
X153595100Y-90876150I0J-218750D01*
G01*
G37*
G04 #@! TD.AperFunction*
G04 #@! TA.AperFunction,SMDPad,CuDef*
G36*
G01*
X152020100Y-90876150D02*
X152020100Y-91388650D01*
G75*
G02*
X151801350Y-91607400I-218750J0D01*
G01*
X151363850Y-91607400D01*
G75*
G02*
X151145100Y-91388650I0J218750D01*
G01*
X151145100Y-90876150D01*
G75*
G02*
X151363850Y-90657400I218750J0D01*
G01*
X151801350Y-90657400D01*
G75*
G02*
X152020100Y-90876150I0J-218750D01*
G01*
G37*
G04 #@! TD.AperFunction*
G04 #@! TA.AperFunction,SMDPad,CuDef*
G36*
G01*
X153595100Y-92626150D02*
X153595100Y-93138650D01*
G75*
G02*
X153376350Y-93357400I-218750J0D01*
G01*
X152938850Y-93357400D01*
G75*
G02*
X152720100Y-93138650I0J218750D01*
G01*
X152720100Y-92626150D01*
G75*
G02*
X152938850Y-92407400I218750J0D01*
G01*
X153376350Y-92407400D01*
G75*
G02*
X153595100Y-92626150I0J-218750D01*
G01*
G37*
G04 #@! TD.AperFunction*
G04 #@! TA.AperFunction,SMDPad,CuDef*
G36*
G01*
X152020100Y-92626150D02*
X152020100Y-93138650D01*
G75*
G02*
X151801350Y-93357400I-218750J0D01*
G01*
X151363850Y-93357400D01*
G75*
G02*
X151145100Y-93138650I0J218750D01*
G01*
X151145100Y-92626150D01*
G75*
G02*
X151363850Y-92407400I218750J0D01*
G01*
X151801350Y-92407400D01*
G75*
G02*
X152020100Y-92626150I0J-218750D01*
G01*
G37*
G04 #@! TD.AperFunction*
G04 #@! TA.AperFunction,SMDPad,CuDef*
G36*
G01*
X153595100Y-94376150D02*
X153595100Y-94888650D01*
G75*
G02*
X153376350Y-95107400I-218750J0D01*
G01*
X152938850Y-95107400D01*
G75*
G02*
X152720100Y-94888650I0J218750D01*
G01*
X152720100Y-94376150D01*
G75*
G02*
X152938850Y-94157400I218750J0D01*
G01*
X153376350Y-94157400D01*
G75*
G02*
X153595100Y-94376150I0J-218750D01*
G01*
G37*
G04 #@! TD.AperFunction*
G04 #@! TA.AperFunction,SMDPad,CuDef*
G36*
G01*
X152020100Y-94376150D02*
X152020100Y-94888650D01*
G75*
G02*
X151801350Y-95107400I-218750J0D01*
G01*
X151363850Y-95107400D01*
G75*
G02*
X151145100Y-94888650I0J218750D01*
G01*
X151145100Y-94376150D01*
G75*
G02*
X151363850Y-94157400I218750J0D01*
G01*
X151801350Y-94157400D01*
G75*
G02*
X152020100Y-94376150I0J-218750D01*
G01*
G37*
G04 #@! TD.AperFunction*
G04 #@! TA.AperFunction,SMDPad,CuDef*
G36*
G01*
X153595100Y-96126150D02*
X153595100Y-96638650D01*
G75*
G02*
X153376350Y-96857400I-218750J0D01*
G01*
X152938850Y-96857400D01*
G75*
G02*
X152720100Y-96638650I0J218750D01*
G01*
X152720100Y-96126150D01*
G75*
G02*
X152938850Y-95907400I218750J0D01*
G01*
X153376350Y-95907400D01*
G75*
G02*
X153595100Y-96126150I0J-218750D01*
G01*
G37*
G04 #@! TD.AperFunction*
G04 #@! TA.AperFunction,SMDPad,CuDef*
G36*
G01*
X152020100Y-96126150D02*
X152020100Y-96638650D01*
G75*
G02*
X151801350Y-96857400I-218750J0D01*
G01*
X151363850Y-96857400D01*
G75*
G02*
X151145100Y-96638650I0J218750D01*
G01*
X151145100Y-96126150D01*
G75*
G02*
X151363850Y-95907400I218750J0D01*
G01*
X151801350Y-95907400D01*
G75*
G02*
X152020100Y-96126150I0J-218750D01*
G01*
G37*
G04 #@! TD.AperFunction*
G04 #@! TA.AperFunction,SMDPad,CuDef*
G36*
G01*
X154590100Y-75567400D02*
X154590100Y-75197400D01*
G75*
G02*
X154725100Y-75062400I135000J0D01*
G01*
X154995100Y-75062400D01*
G75*
G02*
X155130100Y-75197400I0J-135000D01*
G01*
X155130100Y-75567400D01*
G75*
G02*
X154995100Y-75702400I-135000J0D01*
G01*
X154725100Y-75702400D01*
G75*
G02*
X154590100Y-75567400I0J135000D01*
G01*
G37*
G04 #@! TD.AperFunction*
G04 #@! TA.AperFunction,SMDPad,CuDef*
G36*
G01*
X155610100Y-75567400D02*
X155610100Y-75197400D01*
G75*
G02*
X155745100Y-75062400I135000J0D01*
G01*
X156015100Y-75062400D01*
G75*
G02*
X156150100Y-75197400I0J-135000D01*
G01*
X156150100Y-75567400D01*
G75*
G02*
X156015100Y-75702400I-135000J0D01*
G01*
X155745100Y-75702400D01*
G75*
G02*
X155610100Y-75567400I0J135000D01*
G01*
G37*
G04 #@! TD.AperFunction*
G04 #@! TA.AperFunction,SMDPad,CuDef*
G36*
G01*
X154590100Y-77317400D02*
X154590100Y-76947400D01*
G75*
G02*
X154725100Y-76812400I135000J0D01*
G01*
X154995100Y-76812400D01*
G75*
G02*
X155130100Y-76947400I0J-135000D01*
G01*
X155130100Y-77317400D01*
G75*
G02*
X154995100Y-77452400I-135000J0D01*
G01*
X154725100Y-77452400D01*
G75*
G02*
X154590100Y-77317400I0J135000D01*
G01*
G37*
G04 #@! TD.AperFunction*
G04 #@! TA.AperFunction,SMDPad,CuDef*
G36*
G01*
X155610100Y-77317400D02*
X155610100Y-76947400D01*
G75*
G02*
X155745100Y-76812400I135000J0D01*
G01*
X156015100Y-76812400D01*
G75*
G02*
X156150100Y-76947400I0J-135000D01*
G01*
X156150100Y-77317400D01*
G75*
G02*
X156015100Y-77452400I-135000J0D01*
G01*
X155745100Y-77452400D01*
G75*
G02*
X155610100Y-77317400I0J135000D01*
G01*
G37*
G04 #@! TD.AperFunction*
G04 #@! TA.AperFunction,SMDPad,CuDef*
G36*
G01*
X154590100Y-79067400D02*
X154590100Y-78697400D01*
G75*
G02*
X154725100Y-78562400I135000J0D01*
G01*
X154995100Y-78562400D01*
G75*
G02*
X155130100Y-78697400I0J-135000D01*
G01*
X155130100Y-79067400D01*
G75*
G02*
X154995100Y-79202400I-135000J0D01*
G01*
X154725100Y-79202400D01*
G75*
G02*
X154590100Y-79067400I0J135000D01*
G01*
G37*
G04 #@! TD.AperFunction*
G04 #@! TA.AperFunction,SMDPad,CuDef*
G36*
G01*
X155610100Y-79067400D02*
X155610100Y-78697400D01*
G75*
G02*
X155745100Y-78562400I135000J0D01*
G01*
X156015100Y-78562400D01*
G75*
G02*
X156150100Y-78697400I0J-135000D01*
G01*
X156150100Y-79067400D01*
G75*
G02*
X156015100Y-79202400I-135000J0D01*
G01*
X155745100Y-79202400D01*
G75*
G02*
X155610100Y-79067400I0J135000D01*
G01*
G37*
G04 #@! TD.AperFunction*
G04 #@! TA.AperFunction,SMDPad,CuDef*
G36*
G01*
X154590100Y-80817400D02*
X154590100Y-80447400D01*
G75*
G02*
X154725100Y-80312400I135000J0D01*
G01*
X154995100Y-80312400D01*
G75*
G02*
X155130100Y-80447400I0J-135000D01*
G01*
X155130100Y-80817400D01*
G75*
G02*
X154995100Y-80952400I-135000J0D01*
G01*
X154725100Y-80952400D01*
G75*
G02*
X154590100Y-80817400I0J135000D01*
G01*
G37*
G04 #@! TD.AperFunction*
G04 #@! TA.AperFunction,SMDPad,CuDef*
G36*
G01*
X155610100Y-80817400D02*
X155610100Y-80447400D01*
G75*
G02*
X155745100Y-80312400I135000J0D01*
G01*
X156015100Y-80312400D01*
G75*
G02*
X156150100Y-80447400I0J-135000D01*
G01*
X156150100Y-80817400D01*
G75*
G02*
X156015100Y-80952400I-135000J0D01*
G01*
X155745100Y-80952400D01*
G75*
G02*
X155610100Y-80817400I0J135000D01*
G01*
G37*
G04 #@! TD.AperFunction*
G04 #@! TA.AperFunction,SMDPad,CuDef*
G36*
G01*
X154590100Y-82567400D02*
X154590100Y-82197400D01*
G75*
G02*
X154725100Y-82062400I135000J0D01*
G01*
X154995100Y-82062400D01*
G75*
G02*
X155130100Y-82197400I0J-135000D01*
G01*
X155130100Y-82567400D01*
G75*
G02*
X154995100Y-82702400I-135000J0D01*
G01*
X154725100Y-82702400D01*
G75*
G02*
X154590100Y-82567400I0J135000D01*
G01*
G37*
G04 #@! TD.AperFunction*
G04 #@! TA.AperFunction,SMDPad,CuDef*
G36*
G01*
X155610100Y-82567400D02*
X155610100Y-82197400D01*
G75*
G02*
X155745100Y-82062400I135000J0D01*
G01*
X156015100Y-82062400D01*
G75*
G02*
X156150100Y-82197400I0J-135000D01*
G01*
X156150100Y-82567400D01*
G75*
G02*
X156015100Y-82702400I-135000J0D01*
G01*
X155745100Y-82702400D01*
G75*
G02*
X155610100Y-82567400I0J135000D01*
G01*
G37*
G04 #@! TD.AperFunction*
G04 #@! TA.AperFunction,SMDPad,CuDef*
G36*
G01*
X154590100Y-84317400D02*
X154590100Y-83947400D01*
G75*
G02*
X154725100Y-83812400I135000J0D01*
G01*
X154995100Y-83812400D01*
G75*
G02*
X155130100Y-83947400I0J-135000D01*
G01*
X155130100Y-84317400D01*
G75*
G02*
X154995100Y-84452400I-135000J0D01*
G01*
X154725100Y-84452400D01*
G75*
G02*
X154590100Y-84317400I0J135000D01*
G01*
G37*
G04 #@! TD.AperFunction*
G04 #@! TA.AperFunction,SMDPad,CuDef*
G36*
G01*
X155610100Y-84317400D02*
X155610100Y-83947400D01*
G75*
G02*
X155745100Y-83812400I135000J0D01*
G01*
X156015100Y-83812400D01*
G75*
G02*
X156150100Y-83947400I0J-135000D01*
G01*
X156150100Y-84317400D01*
G75*
G02*
X156015100Y-84452400I-135000J0D01*
G01*
X155745100Y-84452400D01*
G75*
G02*
X155610100Y-84317400I0J135000D01*
G01*
G37*
G04 #@! TD.AperFunction*
G04 #@! TA.AperFunction,SMDPad,CuDef*
G36*
G01*
X154590100Y-86067400D02*
X154590100Y-85697400D01*
G75*
G02*
X154725100Y-85562400I135000J0D01*
G01*
X154995100Y-85562400D01*
G75*
G02*
X155130100Y-85697400I0J-135000D01*
G01*
X155130100Y-86067400D01*
G75*
G02*
X154995100Y-86202400I-135000J0D01*
G01*
X154725100Y-86202400D01*
G75*
G02*
X154590100Y-86067400I0J135000D01*
G01*
G37*
G04 #@! TD.AperFunction*
G04 #@! TA.AperFunction,SMDPad,CuDef*
G36*
G01*
X155610100Y-86067400D02*
X155610100Y-85697400D01*
G75*
G02*
X155745100Y-85562400I135000J0D01*
G01*
X156015100Y-85562400D01*
G75*
G02*
X156150100Y-85697400I0J-135000D01*
G01*
X156150100Y-86067400D01*
G75*
G02*
X156015100Y-86202400I-135000J0D01*
G01*
X155745100Y-86202400D01*
G75*
G02*
X155610100Y-86067400I0J135000D01*
G01*
G37*
G04 #@! TD.AperFunction*
G04 #@! TA.AperFunction,SMDPad,CuDef*
G36*
G01*
X154590100Y-87817400D02*
X154590100Y-87447400D01*
G75*
G02*
X154725100Y-87312400I135000J0D01*
G01*
X154995100Y-87312400D01*
G75*
G02*
X155130100Y-87447400I0J-135000D01*
G01*
X155130100Y-87817400D01*
G75*
G02*
X154995100Y-87952400I-135000J0D01*
G01*
X154725100Y-87952400D01*
G75*
G02*
X154590100Y-87817400I0J135000D01*
G01*
G37*
G04 #@! TD.AperFunction*
G04 #@! TA.AperFunction,SMDPad,CuDef*
G36*
G01*
X155610100Y-87817400D02*
X155610100Y-87447400D01*
G75*
G02*
X155745100Y-87312400I135000J0D01*
G01*
X156015100Y-87312400D01*
G75*
G02*
X156150100Y-87447400I0J-135000D01*
G01*
X156150100Y-87817400D01*
G75*
G02*
X156015100Y-87952400I-135000J0D01*
G01*
X155745100Y-87952400D01*
G75*
G02*
X155610100Y-87817400I0J135000D01*
G01*
G37*
G04 #@! TD.AperFunction*
G04 #@! TA.AperFunction,SMDPad,CuDef*
G36*
G01*
X154590100Y-89567400D02*
X154590100Y-89197400D01*
G75*
G02*
X154725100Y-89062400I135000J0D01*
G01*
X154995100Y-89062400D01*
G75*
G02*
X155130100Y-89197400I0J-135000D01*
G01*
X155130100Y-89567400D01*
G75*
G02*
X154995100Y-89702400I-135000J0D01*
G01*
X154725100Y-89702400D01*
G75*
G02*
X154590100Y-89567400I0J135000D01*
G01*
G37*
G04 #@! TD.AperFunction*
G04 #@! TA.AperFunction,SMDPad,CuDef*
G36*
G01*
X155610100Y-89567400D02*
X155610100Y-89197400D01*
G75*
G02*
X155745100Y-89062400I135000J0D01*
G01*
X156015100Y-89062400D01*
G75*
G02*
X156150100Y-89197400I0J-135000D01*
G01*
X156150100Y-89567400D01*
G75*
G02*
X156015100Y-89702400I-135000J0D01*
G01*
X155745100Y-89702400D01*
G75*
G02*
X155610100Y-89567400I0J135000D01*
G01*
G37*
G04 #@! TD.AperFunction*
G04 #@! TA.AperFunction,SMDPad,CuDef*
G36*
G01*
X154590100Y-91317400D02*
X154590100Y-90947400D01*
G75*
G02*
X154725100Y-90812400I135000J0D01*
G01*
X154995100Y-90812400D01*
G75*
G02*
X155130100Y-90947400I0J-135000D01*
G01*
X155130100Y-91317400D01*
G75*
G02*
X154995100Y-91452400I-135000J0D01*
G01*
X154725100Y-91452400D01*
G75*
G02*
X154590100Y-91317400I0J135000D01*
G01*
G37*
G04 #@! TD.AperFunction*
G04 #@! TA.AperFunction,SMDPad,CuDef*
G36*
G01*
X155610100Y-91317400D02*
X155610100Y-90947400D01*
G75*
G02*
X155745100Y-90812400I135000J0D01*
G01*
X156015100Y-90812400D01*
G75*
G02*
X156150100Y-90947400I0J-135000D01*
G01*
X156150100Y-91317400D01*
G75*
G02*
X156015100Y-91452400I-135000J0D01*
G01*
X155745100Y-91452400D01*
G75*
G02*
X155610100Y-91317400I0J135000D01*
G01*
G37*
G04 #@! TD.AperFunction*
G04 #@! TA.AperFunction,SMDPad,CuDef*
G36*
G01*
X154590100Y-93067400D02*
X154590100Y-92697400D01*
G75*
G02*
X154725100Y-92562400I135000J0D01*
G01*
X154995100Y-92562400D01*
G75*
G02*
X155130100Y-92697400I0J-135000D01*
G01*
X155130100Y-93067400D01*
G75*
G02*
X154995100Y-93202400I-135000J0D01*
G01*
X154725100Y-93202400D01*
G75*
G02*
X154590100Y-93067400I0J135000D01*
G01*
G37*
G04 #@! TD.AperFunction*
G04 #@! TA.AperFunction,SMDPad,CuDef*
G36*
G01*
X155610100Y-93067400D02*
X155610100Y-92697400D01*
G75*
G02*
X155745100Y-92562400I135000J0D01*
G01*
X156015100Y-92562400D01*
G75*
G02*
X156150100Y-92697400I0J-135000D01*
G01*
X156150100Y-93067400D01*
G75*
G02*
X156015100Y-93202400I-135000J0D01*
G01*
X155745100Y-93202400D01*
G75*
G02*
X155610100Y-93067400I0J135000D01*
G01*
G37*
G04 #@! TD.AperFunction*
G04 #@! TA.AperFunction,SMDPad,CuDef*
G36*
G01*
X154590100Y-94817400D02*
X154590100Y-94447400D01*
G75*
G02*
X154725100Y-94312400I135000J0D01*
G01*
X154995100Y-94312400D01*
G75*
G02*
X155130100Y-94447400I0J-135000D01*
G01*
X155130100Y-94817400D01*
G75*
G02*
X154995100Y-94952400I-135000J0D01*
G01*
X154725100Y-94952400D01*
G75*
G02*
X154590100Y-94817400I0J135000D01*
G01*
G37*
G04 #@! TD.AperFunction*
G04 #@! TA.AperFunction,SMDPad,CuDef*
G36*
G01*
X155610100Y-94817400D02*
X155610100Y-94447400D01*
G75*
G02*
X155745100Y-94312400I135000J0D01*
G01*
X156015100Y-94312400D01*
G75*
G02*
X156150100Y-94447400I0J-135000D01*
G01*
X156150100Y-94817400D01*
G75*
G02*
X156015100Y-94952400I-135000J0D01*
G01*
X155745100Y-94952400D01*
G75*
G02*
X155610100Y-94817400I0J135000D01*
G01*
G37*
G04 #@! TD.AperFunction*
G04 #@! TA.AperFunction,SMDPad,CuDef*
G36*
G01*
X154590100Y-96567400D02*
X154590100Y-96197400D01*
G75*
G02*
X154725100Y-96062400I135000J0D01*
G01*
X154995100Y-96062400D01*
G75*
G02*
X155130100Y-96197400I0J-135000D01*
G01*
X155130100Y-96567400D01*
G75*
G02*
X154995100Y-96702400I-135000J0D01*
G01*
X154725100Y-96702400D01*
G75*
G02*
X154590100Y-96567400I0J135000D01*
G01*
G37*
G04 #@! TD.AperFunction*
G04 #@! TA.AperFunction,SMDPad,CuDef*
G36*
G01*
X155610100Y-96567400D02*
X155610100Y-96197400D01*
G75*
G02*
X155745100Y-96062400I135000J0D01*
G01*
X156015100Y-96062400D01*
G75*
G02*
X156150100Y-96197400I0J-135000D01*
G01*
X156150100Y-96567400D01*
G75*
G02*
X156015100Y-96702400I-135000J0D01*
G01*
X155745100Y-96702400D01*
G75*
G02*
X155610100Y-96567400I0J135000D01*
G01*
G37*
G04 #@! TD.AperFunction*
G04 #@! TA.AperFunction,SMDPad,CuDef*
G36*
G01*
X134150100Y-88947400D02*
X134150100Y-89317400D01*
G75*
G02*
X134015100Y-89452400I-135000J0D01*
G01*
X133745100Y-89452400D01*
G75*
G02*
X133610100Y-89317400I0J135000D01*
G01*
X133610100Y-88947400D01*
G75*
G02*
X133745100Y-88812400I135000J0D01*
G01*
X134015100Y-88812400D01*
G75*
G02*
X134150100Y-88947400I0J-135000D01*
G01*
G37*
G04 #@! TD.AperFunction*
G04 #@! TA.AperFunction,SMDPad,CuDef*
G36*
G01*
X133130100Y-88947400D02*
X133130100Y-89317400D01*
G75*
G02*
X132995100Y-89452400I-135000J0D01*
G01*
X132725100Y-89452400D01*
G75*
G02*
X132590100Y-89317400I0J135000D01*
G01*
X132590100Y-88947400D01*
G75*
G02*
X132725100Y-88812400I135000J0D01*
G01*
X132995100Y-88812400D01*
G75*
G02*
X133130100Y-88947400I0J-135000D01*
G01*
G37*
G04 #@! TD.AperFunction*
G04 #@! TA.AperFunction,SMDPad,CuDef*
G36*
X130620100Y-92232400D02*
G01*
X130620100Y-91732400D01*
X130624378Y-91732400D01*
X130624378Y-91667137D01*
X130658160Y-91541058D01*
X130723423Y-91428019D01*
X130815719Y-91335723D01*
X130928758Y-91270460D01*
X131054837Y-91236678D01*
X131120100Y-91236678D01*
X131120100Y-91232400D01*
X131620100Y-91232400D01*
X131620100Y-91236678D01*
X131685363Y-91236678D01*
X131811442Y-91270460D01*
X131924481Y-91335723D01*
X132016777Y-91428019D01*
X132082040Y-91541058D01*
X132115822Y-91667137D01*
X132115822Y-91732400D01*
X132120100Y-91732400D01*
X132120100Y-92232400D01*
X130620100Y-92232400D01*
G37*
G04 #@! TD.AperFunction*
G04 #@! TA.AperFunction,SMDPad,CuDef*
G36*
X132115822Y-93032400D02*
G01*
X132115822Y-93097663D01*
X132082040Y-93223742D01*
X132016777Y-93336781D01*
X131924481Y-93429077D01*
X131811442Y-93494340D01*
X131685363Y-93528122D01*
X131620100Y-93528122D01*
X131620100Y-93532400D01*
X131120100Y-93532400D01*
X131120100Y-93528122D01*
X131054837Y-93528122D01*
X130928758Y-93494340D01*
X130815719Y-93429077D01*
X130723423Y-93336781D01*
X130658160Y-93223742D01*
X130624378Y-93097663D01*
X130624378Y-93032400D01*
X130620100Y-93032400D01*
X130620100Y-92532400D01*
X132120100Y-92532400D01*
X132120100Y-93032400D01*
X132115822Y-93032400D01*
G37*
G04 #@! TD.AperFunction*
G04 #@! TA.AperFunction,SMDPad,CuDef*
G36*
G01*
X155625100Y-102182400D02*
X155925100Y-102182400D01*
G75*
G02*
X156075100Y-102332400I0J-150000D01*
G01*
X156075100Y-103982400D01*
G75*
G02*
X155925100Y-104132400I-150000J0D01*
G01*
X155625100Y-104132400D01*
G75*
G02*
X155475100Y-103982400I0J150000D01*
G01*
X155475100Y-102332400D01*
G75*
G02*
X155625100Y-102182400I150000J0D01*
G01*
G37*
G04 #@! TD.AperFunction*
G04 #@! TA.AperFunction,SMDPad,CuDef*
G36*
G01*
X154355100Y-102182400D02*
X154655100Y-102182400D01*
G75*
G02*
X154805100Y-102332400I0J-150000D01*
G01*
X154805100Y-103982400D01*
G75*
G02*
X154655100Y-104132400I-150000J0D01*
G01*
X154355100Y-104132400D01*
G75*
G02*
X154205100Y-103982400I0J150000D01*
G01*
X154205100Y-102332400D01*
G75*
G02*
X154355100Y-102182400I150000J0D01*
G01*
G37*
G04 #@! TD.AperFunction*
G04 #@! TA.AperFunction,SMDPad,CuDef*
G36*
G01*
X153085100Y-102182400D02*
X153385100Y-102182400D01*
G75*
G02*
X153535100Y-102332400I0J-150000D01*
G01*
X153535100Y-103982400D01*
G75*
G02*
X153385100Y-104132400I-150000J0D01*
G01*
X153085100Y-104132400D01*
G75*
G02*
X152935100Y-103982400I0J150000D01*
G01*
X152935100Y-102332400D01*
G75*
G02*
X153085100Y-102182400I150000J0D01*
G01*
G37*
G04 #@! TD.AperFunction*
G04 #@! TA.AperFunction,SMDPad,CuDef*
G36*
G01*
X151815100Y-102182400D02*
X152115100Y-102182400D01*
G75*
G02*
X152265100Y-102332400I0J-150000D01*
G01*
X152265100Y-103982400D01*
G75*
G02*
X152115100Y-104132400I-150000J0D01*
G01*
X151815100Y-104132400D01*
G75*
G02*
X151665100Y-103982400I0J150000D01*
G01*
X151665100Y-102332400D01*
G75*
G02*
X151815100Y-102182400I150000J0D01*
G01*
G37*
G04 #@! TD.AperFunction*
G04 #@! TA.AperFunction,SMDPad,CuDef*
G36*
G01*
X151815100Y-107132400D02*
X152115100Y-107132400D01*
G75*
G02*
X152265100Y-107282400I0J-150000D01*
G01*
X152265100Y-108932400D01*
G75*
G02*
X152115100Y-109082400I-150000J0D01*
G01*
X151815100Y-109082400D01*
G75*
G02*
X151665100Y-108932400I0J150000D01*
G01*
X151665100Y-107282400D01*
G75*
G02*
X151815100Y-107132400I150000J0D01*
G01*
G37*
G04 #@! TD.AperFunction*
G04 #@! TA.AperFunction,SMDPad,CuDef*
G36*
G01*
X153085100Y-107132400D02*
X153385100Y-107132400D01*
G75*
G02*
X153535100Y-107282400I0J-150000D01*
G01*
X153535100Y-108932400D01*
G75*
G02*
X153385100Y-109082400I-150000J0D01*
G01*
X153085100Y-109082400D01*
G75*
G02*
X152935100Y-108932400I0J150000D01*
G01*
X152935100Y-107282400D01*
G75*
G02*
X153085100Y-107132400I150000J0D01*
G01*
G37*
G04 #@! TD.AperFunction*
G04 #@! TA.AperFunction,SMDPad,CuDef*
G36*
G01*
X154355100Y-107132400D02*
X154655100Y-107132400D01*
G75*
G02*
X154805100Y-107282400I0J-150000D01*
G01*
X154805100Y-108932400D01*
G75*
G02*
X154655100Y-109082400I-150000J0D01*
G01*
X154355100Y-109082400D01*
G75*
G02*
X154205100Y-108932400I0J150000D01*
G01*
X154205100Y-107282400D01*
G75*
G02*
X154355100Y-107132400I150000J0D01*
G01*
G37*
G04 #@! TD.AperFunction*
G04 #@! TA.AperFunction,SMDPad,CuDef*
G36*
G01*
X155625100Y-107132400D02*
X155925100Y-107132400D01*
G75*
G02*
X156075100Y-107282400I0J-150000D01*
G01*
X156075100Y-108932400D01*
G75*
G02*
X155925100Y-109082400I-150000J0D01*
G01*
X155625100Y-109082400D01*
G75*
G02*
X155475100Y-108932400I0J150000D01*
G01*
X155475100Y-107282400D01*
G75*
G02*
X155625100Y-107132400I150000J0D01*
G01*
G37*
G04 #@! TD.AperFunction*
G04 #@! TA.AperFunction,ComponentPad*
G36*
G01*
X117957499Y-52532400D02*
X119657501Y-52532400D01*
G75*
G02*
X119907500Y-52782399I0J-249999D01*
G01*
X119907500Y-54482401D01*
G75*
G02*
X119657501Y-54732400I-249999J0D01*
G01*
X117957499Y-54732400D01*
G75*
G02*
X117707500Y-54482401I0J249999D01*
G01*
X117707500Y-52782399D01*
G75*
G02*
X117957499Y-52532400I249999J0D01*
G01*
G37*
G04 #@! TD.AperFunction*
D20*
X118807500Y-56172400D03*
D14*
X126500000Y-57132400D03*
X129040000Y-57132400D03*
X131580000Y-57132400D03*
G04 #@! TA.AperFunction,ComponentPad*
G36*
G01*
X132720100Y-46282399D02*
X132720100Y-47982401D01*
G75*
G02*
X132470101Y-48232400I-249999J0D01*
G01*
X130770099Y-48232400D01*
G75*
G02*
X130520100Y-47982401I0J249999D01*
G01*
X130520100Y-46282399D01*
G75*
G02*
X130770099Y-46032400I249999J0D01*
G01*
X132470101Y-46032400D01*
G75*
G02*
X132720100Y-46282399I0J-249999D01*
G01*
G37*
G04 #@! TD.AperFunction*
D20*
X121460100Y-47132400D03*
D21*
X121870100Y-95882400D03*
X144870100Y-97632400D03*
X122620100Y-74882400D03*
X129870100Y-92882400D03*
X129370100Y-97632400D03*
X123370100Y-103882400D03*
X139370100Y-95132400D03*
X121370100Y-69632400D03*
X122870100Y-106132400D03*
X136870100Y-108132400D03*
X121870100Y-99382400D03*
X123620100Y-84132400D03*
X123120100Y-70132400D03*
X121620100Y-114632400D03*
X121370100Y-104632400D03*
X132620100Y-106882400D03*
X120870100Y-82632400D03*
X120870100Y-87382400D03*
X120870100Y-101382400D03*
X137870100Y-90382400D03*
X121120100Y-72382400D03*
X123270100Y-100982400D03*
X135620100Y-98132400D03*
X123870100Y-86882400D03*
X124370100Y-91882400D03*
X123120100Y-72632400D03*
X141870100Y-106882400D03*
X121120100Y-74632400D03*
X121370100Y-110882400D03*
X121120100Y-94632400D03*
X121620100Y-80132400D03*
X141870100Y-115382400D03*
X126120100Y-120632400D03*
X150370100Y-75382400D03*
X127370100Y-82382400D03*
X127370100Y-89132400D03*
X124370100Y-114132400D03*
X123170099Y-110772399D03*
X125370100Y-114132400D03*
X124620100Y-108882400D03*
X150215149Y-100880796D03*
X122870100Y-92882400D03*
X155620100Y-101382400D03*
X126120100Y-77882400D03*
X126120100Y-116882400D03*
X129620100Y-115632400D03*
X130120100Y-77382400D03*
D22*
X125895100Y-89287400D02*
X127215100Y-89287400D01*
X155450200Y-100000000D02*
X156525110Y-101074910D01*
X150370100Y-75382400D02*
X151582600Y-75382400D01*
X154000000Y-100000000D02*
X155450200Y-100000000D01*
X129950100Y-82382400D02*
X127370100Y-82382400D01*
X151566566Y-106682390D02*
X146320101Y-111928855D01*
X155775100Y-108107400D02*
X155775100Y-105250010D01*
X133880100Y-86312400D02*
X133880100Y-86632400D01*
X155325090Y-106682390D02*
X151566566Y-106682390D01*
X133880100Y-87882400D02*
X133880100Y-89132400D01*
X125895100Y-89287400D02*
X125895100Y-90127400D01*
X122370100Y-90892400D02*
X125110100Y-90892400D01*
X151582600Y-75382400D02*
X151582600Y-96382400D01*
X155775100Y-108107400D02*
X155775100Y-107132400D01*
X125895100Y-90127400D02*
X125120100Y-90902400D01*
X146320101Y-118907401D02*
X145860102Y-119367400D01*
X156525110Y-101074910D02*
X156525110Y-104500000D01*
X146320101Y-111928855D02*
X146320101Y-118907401D01*
X151582600Y-97582600D02*
X154000000Y-100000000D01*
X133880100Y-86632400D02*
X133880100Y-87882400D01*
X129950100Y-82382400D02*
X133880100Y-86312400D01*
X151582600Y-96382400D02*
X151582600Y-97582600D01*
X155775100Y-107132400D02*
X155325090Y-106682390D01*
X155775100Y-105250010D02*
X156525110Y-104500000D01*
X127215100Y-89287400D02*
X127370100Y-89132400D01*
X133880100Y-89452400D02*
X133880100Y-86632400D01*
X116370100Y-64922400D02*
X118910100Y-64922400D01*
X145860102Y-119367400D02*
X144870100Y-119367400D01*
X124280001Y-64432399D02*
X121940101Y-64432399D01*
X116370100Y-67462400D02*
X118910100Y-67462400D01*
X118910100Y-67462400D02*
X121940101Y-64432399D01*
X131580000Y-57132400D02*
X124280001Y-64432399D01*
X116370100Y-70002400D02*
X118910100Y-70002400D01*
X125370100Y-65882400D02*
X125370100Y-72382400D01*
D23*
X124341499Y-71353799D02*
X125370100Y-72382400D01*
X117558701Y-71353799D02*
X124341499Y-71353799D01*
X116370100Y-72542400D02*
X117558701Y-71353799D01*
D22*
X155370100Y-65882400D02*
X155370100Y-72382400D01*
D23*
X120075101Y-73707401D02*
X154045099Y-73707401D01*
X154045099Y-73707401D02*
X155370100Y-72382400D01*
X118910100Y-72542400D02*
X120075101Y-73707401D01*
D22*
X153157600Y-75382400D02*
X154860100Y-75382400D01*
X153157600Y-77132400D02*
X154860100Y-77132400D01*
D23*
X116370100Y-77622400D02*
X117558701Y-78811001D01*
X117558701Y-78811001D02*
X124741499Y-78811001D01*
X124870100Y-78682400D02*
X128370100Y-78682400D01*
X124870100Y-76082400D02*
X128370100Y-76082400D01*
X117558701Y-76271001D02*
X124681499Y-76271001D01*
X116370100Y-75082400D02*
X117558701Y-76271001D01*
D22*
X153120100Y-78882400D02*
X154860100Y-78882400D01*
X153157600Y-78882400D02*
X154860100Y-78882400D01*
X153157600Y-80632400D02*
X154860100Y-80632400D01*
X124370100Y-112932400D02*
X124370100Y-114132400D01*
X124370100Y-114132400D02*
X124370100Y-118082400D01*
X123170099Y-110772399D02*
X123170099Y-120242401D01*
X123610098Y-120682400D02*
X124370100Y-120682400D01*
X123170099Y-120242401D02*
X123610098Y-120682400D01*
X124370100Y-110332400D02*
X123610098Y-110332400D01*
X123610098Y-110332400D02*
X123170099Y-110772399D01*
X153157600Y-82382400D02*
X154860100Y-82382400D01*
X153157600Y-84132400D02*
X154860100Y-84132400D01*
X154860100Y-85882400D02*
X153157600Y-85882400D01*
X154860100Y-87632400D02*
X153157600Y-87632400D01*
X154860100Y-89382400D02*
X153157600Y-89382400D01*
X154860100Y-91132400D02*
X153157600Y-91132400D01*
D23*
X125370100Y-114132400D02*
X127715100Y-114132400D01*
D22*
X153235100Y-102182400D02*
X132403701Y-81351001D01*
D23*
X119901499Y-81351001D02*
X120088701Y-81351001D01*
D22*
X130801499Y-81351001D02*
X120088701Y-81351001D01*
X153235100Y-103157400D02*
X153235100Y-102182400D01*
X130801499Y-81351001D02*
X132553701Y-81351001D01*
D23*
X116370100Y-80162400D02*
X117558701Y-81351001D01*
X117558701Y-81351001D02*
X119901499Y-81351001D01*
D22*
X154505100Y-103157400D02*
X153235100Y-103157400D01*
X132403701Y-81351001D02*
X119901499Y-81351001D01*
D23*
X115962369Y-101833799D02*
X119731497Y-101833799D01*
X116370100Y-82702400D02*
X115181499Y-83891001D01*
X115181499Y-101052929D02*
X115962369Y-101833799D01*
X115181499Y-83891001D02*
X115181499Y-101052929D01*
X119731497Y-101833799D02*
X127105098Y-109207400D01*
X121029601Y-85901400D02*
X120500000Y-86431001D01*
X125895100Y-86747400D02*
X124920101Y-86747400D01*
X116370100Y-85242400D02*
X117558701Y-86431001D01*
X124920101Y-86747400D02*
X124074101Y-85901400D01*
X124074101Y-85901400D02*
X121029601Y-85901400D01*
X117558701Y-86431001D02*
X120500000Y-86431001D01*
X125660100Y-85242400D02*
X125895100Y-85477400D01*
X118910100Y-85242400D02*
X125660100Y-85242400D01*
D22*
X126215100Y-110477400D02*
X127870100Y-110477400D01*
X124620100Y-108882400D02*
X126215100Y-110477400D01*
X118910100Y-90322400D02*
X130170101Y-101582401D01*
X130170101Y-101582401D02*
X147570101Y-101582401D01*
X149145100Y-103157400D02*
X151965100Y-103157400D01*
X147570101Y-101582401D02*
X149145100Y-103157400D01*
X130868496Y-100880796D02*
X150215149Y-100880796D01*
X155775100Y-101537400D02*
X155620100Y-101382400D01*
X155775100Y-103157400D02*
X155775100Y-101537400D01*
X122870100Y-92882400D02*
X130868496Y-100880796D01*
D23*
X123621922Y-121507410D02*
X129035092Y-121507410D01*
X116370100Y-113182400D02*
X117558701Y-114371001D01*
X122595089Y-117648259D02*
X122595089Y-120480577D01*
X119317831Y-114371001D02*
X122595089Y-117648259D01*
X129195101Y-121347401D02*
X129195101Y-118657399D01*
X122595089Y-120480577D02*
X123621922Y-121507410D01*
X128635102Y-118097400D02*
X127870100Y-118097400D01*
X129035092Y-121507410D02*
X129195101Y-121347401D01*
X129195101Y-118657399D02*
X128635102Y-118097400D01*
X117558701Y-114371001D02*
X119317831Y-114371001D01*
D22*
X154860100Y-92882400D02*
X153157600Y-92882400D01*
X154860100Y-94632400D02*
X153157600Y-94632400D01*
X154860100Y-96382400D02*
X153157600Y-96382400D01*
X126500000Y-57132400D02*
X131620100Y-52012300D01*
X131620100Y-52012300D02*
X131620100Y-47132400D01*
X118370100Y-56172400D02*
X119925734Y-56172400D01*
X121460100Y-54638034D02*
X121460100Y-47132400D01*
X119925734Y-56172400D02*
X121460100Y-54638034D01*
X154505100Y-116517400D02*
X156370100Y-118382400D01*
X154505100Y-108107400D02*
X154505100Y-116517400D01*
X153235100Y-116517400D02*
X151370100Y-118382400D01*
X153235100Y-108107400D02*
X153235100Y-116517400D01*
X126175100Y-116827400D02*
X126120100Y-116882400D01*
X127870100Y-116827400D02*
X126175100Y-116827400D01*
X125620100Y-77382400D02*
X126120100Y-77882400D01*
X124870100Y-77382400D02*
X125620100Y-77382400D01*
X130120100Y-77382400D02*
X128370100Y-77382400D01*
X129620100Y-115632400D02*
X127945100Y-115632400D01*
X127870100Y-111747400D02*
X124485100Y-111747400D01*
X127870100Y-119367400D02*
X124385100Y-119367400D01*
X132745100Y-86747400D02*
X132860100Y-86632400D01*
X129870100Y-86747400D02*
X128370100Y-88247400D01*
X130845100Y-86747400D02*
X129870100Y-86747400D01*
X128370100Y-88247400D02*
X128370100Y-91732400D01*
X130845100Y-86747400D02*
X132745100Y-86747400D01*
X129420090Y-89782390D02*
X131370100Y-91732400D01*
X130845100Y-88017400D02*
X129870100Y-88017400D01*
X129420090Y-88467410D02*
X129420090Y-89782390D01*
X132725100Y-88017400D02*
X132860100Y-87882400D01*
X130845100Y-88017400D02*
X132725100Y-88017400D01*
X129870100Y-88017400D02*
X129420090Y-88467410D01*
D23*
X164630100Y-70002400D02*
X159250100Y-75382400D01*
X159250100Y-75382400D02*
X155880100Y-75382400D01*
X158196951Y-77132400D02*
X155880100Y-77132400D01*
X167170100Y-70002400D02*
X165980500Y-71192000D01*
X164137351Y-71192000D02*
X158196951Y-77132400D01*
X165980500Y-71192000D02*
X164137351Y-71192000D01*
X164630100Y-72542400D02*
X158290100Y-78882400D01*
X158290100Y-78882400D02*
X155880100Y-78882400D01*
X157177910Y-80632400D02*
X155880100Y-80632400D01*
X165819700Y-73892800D02*
X163917510Y-73892800D01*
X167170100Y-72542400D02*
X165819700Y-73892800D01*
X163917510Y-73892800D02*
X157177910Y-80632400D01*
X164630100Y-75082400D02*
X157330100Y-82382400D01*
X157330100Y-82382400D02*
X155880100Y-82382400D01*
X164078310Y-76272000D02*
X156217910Y-84132400D01*
X167170100Y-75082400D02*
X165980500Y-76272000D01*
X165980500Y-76272000D02*
X164078310Y-76272000D01*
X156217910Y-84132400D02*
X155880100Y-84132400D01*
X164630100Y-77622400D02*
X156370100Y-85882400D01*
X156370100Y-85882400D02*
X155880100Y-85882400D01*
X167170100Y-77622400D02*
X165980500Y-78812000D01*
X165980500Y-78812000D02*
X164298151Y-78812000D01*
X164298151Y-78812000D02*
X155880100Y-87230051D01*
X155880100Y-87230051D02*
X155880100Y-87632400D01*
X155880100Y-88912400D02*
X155880100Y-89382400D01*
X164630100Y-80162400D02*
X155880100Y-88912400D01*
X156476100Y-89002706D02*
X156476100Y-90536400D01*
X167170100Y-80162400D02*
X165980500Y-81352000D01*
X165980500Y-81352000D02*
X164126806Y-81352000D01*
X164126806Y-81352000D02*
X156476100Y-89002706D01*
X156476100Y-90536400D02*
X155880100Y-91132400D01*
X164630100Y-82702400D02*
X157432500Y-89900000D01*
X157432500Y-89900000D02*
X157400000Y-89900000D01*
X157400000Y-89900000D02*
X156927100Y-90372900D01*
X156927100Y-91835400D02*
X155880100Y-92882400D01*
X156927100Y-90372900D02*
X156927100Y-91835400D01*
X157378100Y-90812051D02*
X157378100Y-93134400D01*
X165980500Y-83892000D02*
X164298151Y-83892000D01*
X167170100Y-82702400D02*
X165980500Y-83892000D01*
X157378100Y-93134400D02*
X155880100Y-94632400D01*
X164298151Y-83892000D02*
X157378100Y-90812051D01*
X155880100Y-96382400D02*
X155880100Y-95819900D01*
X157829100Y-93870900D02*
X157829100Y-92043400D01*
X155880100Y-95819900D02*
X157829100Y-93870900D01*
X157829100Y-92043400D02*
X164630100Y-85242400D01*
D22*
X132705100Y-89287400D02*
X132860100Y-89132400D01*
X132860100Y-90222400D02*
X134370100Y-91732400D01*
X130845100Y-89287400D02*
X132705100Y-89287400D01*
X132860100Y-89132400D02*
X132860100Y-90222400D01*
X122370100Y-88032400D02*
X122370100Y-89872400D01*
X125895100Y-88017400D02*
X122385100Y-88017400D01*
D23*
X117721499Y-98512929D02*
X118502369Y-99293799D01*
X120106497Y-99293799D02*
X124940098Y-104127400D01*
X117721499Y-96753799D02*
X117721499Y-98512929D01*
X116370100Y-95402400D02*
X117721499Y-96753799D01*
X124940098Y-104127400D02*
X127870100Y-104127400D01*
X118502369Y-99293799D02*
X120106497Y-99293799D01*
D22*
X129755099Y-111332401D02*
X136520098Y-118097400D01*
X118910100Y-97942400D02*
X124680100Y-97942400D01*
X136520098Y-118097400D02*
X144870100Y-118097400D01*
X129755099Y-103017399D02*
X129755099Y-111332401D01*
X124680100Y-97942400D02*
X129755099Y-103017399D01*
G04 #@! TA.AperFunction,Conductor*
G36*
X135360451Y-42719172D02*
G01*
X135406944Y-42772828D01*
X135418330Y-42825170D01*
X135418330Y-64288134D01*
X135419365Y-64289169D01*
X135419367Y-64289170D01*
X153200833Y-64289170D01*
X153201870Y-64288133D01*
X153201870Y-49810170D01*
X153221872Y-49742049D01*
X153275528Y-49695556D01*
X153327870Y-49684170D01*
X168947330Y-49684170D01*
X169015451Y-49704172D01*
X169061944Y-49757828D01*
X169073330Y-49810170D01*
X169073330Y-116355686D01*
X169073284Y-116359098D01*
X169055413Y-117018775D01*
X169055261Y-117022427D01*
X169052521Y-117071220D01*
X169052303Y-117074382D01*
X169000710Y-117707989D01*
X169000333Y-117711873D01*
X168995377Y-117755852D01*
X168995017Y-117758752D01*
X168908437Y-118394217D01*
X168907809Y-118398315D01*
X168901724Y-118434125D01*
X168901248Y-118436761D01*
X168778743Y-119075198D01*
X168777840Y-119079494D01*
X168772389Y-119103374D01*
X168771825Y-119105742D01*
X168611911Y-119748773D01*
X168610713Y-119753238D01*
X168608539Y-119760786D01*
X168607911Y-119762897D01*
X168409619Y-120408701D01*
X168407440Y-120415168D01*
X168172635Y-121054300D01*
X168170109Y-121060639D01*
X167901050Y-121686109D01*
X167898185Y-121692302D01*
X167595658Y-122302294D01*
X167592462Y-122308323D01*
X167257347Y-122901054D01*
X167253828Y-122906902D01*
X166887126Y-123480600D01*
X166883297Y-123486248D01*
X166486058Y-124039277D01*
X166481928Y-124044709D01*
X166055345Y-124575402D01*
X166050927Y-124580603D01*
X165596234Y-125087428D01*
X165591541Y-125092382D01*
X165110082Y-125573841D01*
X165105128Y-125578534D01*
X164598303Y-126033227D01*
X164593102Y-126037645D01*
X164062409Y-126464228D01*
X164056977Y-126468358D01*
X163503948Y-126865597D01*
X163498300Y-126869426D01*
X162924602Y-127236128D01*
X162918754Y-127239647D01*
X162326023Y-127574762D01*
X162319994Y-127577958D01*
X161710002Y-127880485D01*
X161703809Y-127883350D01*
X161078339Y-128152409D01*
X161072000Y-128154935D01*
X160432868Y-128389740D01*
X160426401Y-128391919D01*
X159780597Y-128590211D01*
X159778486Y-128590839D01*
X159770938Y-128593013D01*
X159766473Y-128594211D01*
X159123442Y-128754125D01*
X159121074Y-128754689D01*
X159097194Y-128760140D01*
X159092898Y-128761043D01*
X158454461Y-128883548D01*
X158451825Y-128884024D01*
X158416015Y-128890109D01*
X158411917Y-128890737D01*
X157776452Y-128977317D01*
X157773552Y-128977677D01*
X157729573Y-128982633D01*
X157725689Y-128983010D01*
X157092082Y-129034603D01*
X157088920Y-129034821D01*
X157040127Y-129037561D01*
X157036475Y-129037713D01*
X156376798Y-129055584D01*
X156373386Y-129055630D01*
X127166814Y-129055630D01*
X127163402Y-129055584D01*
X126503723Y-129037713D01*
X126500071Y-129037561D01*
X126451278Y-129034821D01*
X126448116Y-129034603D01*
X125814509Y-128983010D01*
X125810625Y-128982633D01*
X125766646Y-128977677D01*
X125763746Y-128977317D01*
X125128281Y-128890737D01*
X125124183Y-128890109D01*
X125088373Y-128884024D01*
X125085737Y-128883548D01*
X124447300Y-128761043D01*
X124443004Y-128760140D01*
X124419124Y-128754689D01*
X124416756Y-128754125D01*
X123773725Y-128594211D01*
X123769260Y-128593013D01*
X123761712Y-128590839D01*
X123759601Y-128590211D01*
X123113798Y-128391919D01*
X123107331Y-128389740D01*
X122468199Y-128154935D01*
X122461860Y-128152409D01*
X121836390Y-127883350D01*
X121830197Y-127880485D01*
X121220205Y-127577958D01*
X121214176Y-127574762D01*
X120621445Y-127239647D01*
X120615597Y-127236128D01*
X120041899Y-126869426D01*
X120036251Y-126865597D01*
X119483222Y-126468358D01*
X119477790Y-126464228D01*
X118947097Y-126037645D01*
X118941896Y-126033227D01*
X118435071Y-125578534D01*
X118430117Y-125573841D01*
X117948658Y-125092382D01*
X117943965Y-125087428D01*
X117489272Y-124580603D01*
X117484854Y-124575402D01*
X117278033Y-124318105D01*
X117058260Y-124044695D01*
X117054152Y-124039291D01*
X116656902Y-123486248D01*
X116653073Y-123480600D01*
X116572249Y-123354153D01*
X116286362Y-122906888D01*
X116282860Y-122901068D01*
X115947731Y-122308313D01*
X115944541Y-122302294D01*
X115642014Y-121692302D01*
X115639149Y-121686109D01*
X115466607Y-121285007D01*
X115370080Y-121060615D01*
X115367573Y-121054323D01*
X115132757Y-120415164D01*
X115130580Y-120408701D01*
X115121856Y-120380287D01*
X114932248Y-119762766D01*
X114931693Y-119760902D01*
X114929477Y-119753210D01*
X114928298Y-119748814D01*
X114768370Y-119105730D01*
X114767809Y-119103374D01*
X114762358Y-119079494D01*
X114761463Y-119075239D01*
X114638947Y-118436746D01*
X114638474Y-118434125D01*
X114632389Y-118398315D01*
X114631768Y-118394267D01*
X114545173Y-117758688D01*
X114544821Y-117755852D01*
X114539859Y-117711821D01*
X114539498Y-117708094D01*
X114487887Y-117074278D01*
X114487683Y-117071316D01*
X114484933Y-117022352D01*
X114484788Y-117018856D01*
X114466916Y-116359098D01*
X114466870Y-116355686D01*
X114466870Y-101537720D01*
X114486872Y-101469599D01*
X114540528Y-101423106D01*
X114610802Y-101413002D01*
X114675382Y-101442496D01*
X114685030Y-101452405D01*
X114685051Y-101452385D01*
X115273019Y-102040353D01*
X115307045Y-102102665D01*
X115301980Y-102173480D01*
X115285860Y-102203509D01*
X115208208Y-102310387D01*
X115111129Y-102500915D01*
X115111126Y-102500921D01*
X115045052Y-102704278D01*
X115045051Y-102704283D01*
X115045051Y-102704284D01*
X115011600Y-102915484D01*
X115011600Y-103129316D01*
X115043636Y-103331580D01*
X115045052Y-103340521D01*
X115111125Y-103543875D01*
X115111128Y-103543883D01*
X115208206Y-103734409D01*
X115208208Y-103734412D01*
X115239282Y-103777181D01*
X115333894Y-103907404D01*
X115333896Y-103907406D01*
X115333898Y-103907409D01*
X115485090Y-104058601D01*
X115485093Y-104058603D01*
X115485096Y-104058606D01*
X115658091Y-104184294D01*
X115658096Y-104184296D01*
X115659188Y-104184966D01*
X115659518Y-104185331D01*
X115662096Y-104187204D01*
X115661702Y-104187745D01*
X115706821Y-104237613D01*
X115718428Y-104307655D01*
X115690326Y-104372853D01*
X115661970Y-104397423D01*
X115662096Y-104397596D01*
X115660082Y-104399058D01*
X115659188Y-104399834D01*
X115658087Y-104400508D01*
X115485093Y-104526196D01*
X115485090Y-104526198D01*
X115333898Y-104677390D01*
X115333896Y-104677393D01*
X115208208Y-104850387D01*
X115111129Y-105040915D01*
X115111126Y-105040921D01*
X115045052Y-105244278D01*
X115045051Y-105244283D01*
X115045051Y-105244284D01*
X115011600Y-105455484D01*
X115011600Y-105669316D01*
X115042754Y-105866011D01*
X115045052Y-105880521D01*
X115108706Y-106076430D01*
X115111128Y-106083883D01*
X115208206Y-106274409D01*
X115333894Y-106447404D01*
X115333896Y-106447406D01*
X115333898Y-106447409D01*
X115485090Y-106598601D01*
X115485093Y-106598603D01*
X115485096Y-106598606D01*
X115658091Y-106724294D01*
X115658096Y-106724296D01*
X115659188Y-106724966D01*
X115659518Y-106725331D01*
X115662096Y-106727204D01*
X115661702Y-106727745D01*
X115706821Y-106777613D01*
X115718428Y-106847655D01*
X115690326Y-106912853D01*
X115661970Y-106937423D01*
X115662096Y-106937596D01*
X115660082Y-106939058D01*
X115659188Y-106939834D01*
X115658087Y-106940508D01*
X115485093Y-107066196D01*
X115485090Y-107066198D01*
X115333898Y-107217390D01*
X115333896Y-107217393D01*
X115208208Y-107390387D01*
X115111129Y-107580915D01*
X115111126Y-107580921D01*
X115045052Y-107784278D01*
X115045051Y-107784283D01*
X115045051Y-107784284D01*
X115011600Y-107995484D01*
X115011600Y-108209316D01*
X115036577Y-108367011D01*
X115045052Y-108420521D01*
X115108706Y-108616430D01*
X115111128Y-108623883D01*
X115208206Y-108814409D01*
X115333894Y-108987404D01*
X115333896Y-108987406D01*
X115333898Y-108987409D01*
X115485090Y-109138601D01*
X115485093Y-109138603D01*
X115485096Y-109138606D01*
X115658091Y-109264294D01*
X115658096Y-109264296D01*
X115659188Y-109264966D01*
X115659518Y-109265331D01*
X115662096Y-109267204D01*
X115661702Y-109267745D01*
X115706821Y-109317613D01*
X115718428Y-109387655D01*
X115690326Y-109452853D01*
X115661970Y-109477423D01*
X115662096Y-109477596D01*
X115660082Y-109479058D01*
X115659188Y-109479834D01*
X115658087Y-109480508D01*
X115485093Y-109606196D01*
X115485090Y-109606198D01*
X115333898Y-109757390D01*
X115333896Y-109757393D01*
X115208208Y-109930387D01*
X115111129Y-110120915D01*
X115111126Y-110120921D01*
X115045052Y-110324278D01*
X115045051Y-110324283D01*
X115045051Y-110324284D01*
X115011600Y-110535484D01*
X115011600Y-110749316D01*
X115045051Y-110960516D01*
X115045052Y-110960521D01*
X115108706Y-111156430D01*
X115111128Y-111163883D01*
X115208206Y-111354409D01*
X115333894Y-111527404D01*
X115333896Y-111527406D01*
X115333898Y-111527409D01*
X115485090Y-111678601D01*
X115485093Y-111678603D01*
X115485096Y-111678606D01*
X115658091Y-111804294D01*
X115658096Y-111804296D01*
X115659188Y-111804966D01*
X115659518Y-111805331D01*
X115662096Y-111807204D01*
X115661702Y-111807745D01*
X115706821Y-111857613D01*
X115718428Y-111927655D01*
X115690326Y-111992853D01*
X115661970Y-112017423D01*
X115662096Y-112017596D01*
X115660082Y-112019058D01*
X115659188Y-112019834D01*
X115658087Y-112020508D01*
X115485093Y-112146196D01*
X115485090Y-112146198D01*
X115333898Y-112297390D01*
X115333896Y-112297393D01*
X115208208Y-112470387D01*
X115111129Y-112660915D01*
X115111126Y-112660921D01*
X115045052Y-112864278D01*
X115045051Y-112864283D01*
X115045051Y-112864284D01*
X115011600Y-113075484D01*
X115011600Y-113289316D01*
X115044352Y-113496102D01*
X115045052Y-113500521D01*
X115108706Y-113696430D01*
X115111128Y-113703883D01*
X115208206Y-113894409D01*
X115333894Y-114067404D01*
X115333896Y-114067406D01*
X115333898Y-114067409D01*
X115485090Y-114218601D01*
X115485093Y-114218603D01*
X115485096Y-114218606D01*
X115658091Y-114344294D01*
X115848617Y-114441372D01*
X116051978Y-114507447D01*
X116051979Y-114507447D01*
X116051984Y-114507449D01*
X116263184Y-114540900D01*
X116263187Y-114540900D01*
X116477013Y-114540900D01*
X116477016Y-114540900D01*
X116688216Y-114507449D01*
X116698575Y-114504082D01*
X116769541Y-114502050D01*
X116826613Y-114534818D01*
X117154868Y-114863073D01*
X117258626Y-114932402D01*
X117325801Y-114960226D01*
X117373916Y-114980156D01*
X117496307Y-115004501D01*
X117496308Y-115004501D01*
X117621095Y-115004501D01*
X119003237Y-115004501D01*
X119071358Y-115024503D01*
X119092332Y-115041406D01*
X121924684Y-117873758D01*
X121958710Y-117936070D01*
X121961589Y-117962853D01*
X121961589Y-120418183D01*
X121961589Y-120542971D01*
X121985934Y-120665362D01*
X122033689Y-120780652D01*
X122103018Y-120884410D01*
X123218089Y-121999481D01*
X123321847Y-122068810D01*
X123437137Y-122116565D01*
X123559528Y-122140910D01*
X123559529Y-122140910D01*
X129097485Y-122140910D01*
X129097486Y-122140910D01*
X129219877Y-122116565D01*
X129335167Y-122068810D01*
X129438925Y-121999481D01*
X129687172Y-121751234D01*
X129756501Y-121647476D01*
X129804256Y-121532186D01*
X129828601Y-121409795D01*
X129828601Y-121285007D01*
X129828601Y-118595005D01*
X129804256Y-118472614D01*
X129756501Y-118357324D01*
X129687172Y-118253566D01*
X129598934Y-118165328D01*
X129038935Y-117605329D01*
X128935177Y-117536000D01*
X128935173Y-117535998D01*
X128933275Y-117534984D01*
X128932463Y-117534187D01*
X128930030Y-117532561D01*
X128930338Y-117532099D01*
X128882626Y-117485232D01*
X128866916Y-117415995D01*
X128871491Y-117394555D01*
X128870277Y-117394268D01*
X128872090Y-117386596D01*
X128878599Y-117326049D01*
X128878600Y-117326032D01*
X128878600Y-116516900D01*
X128898602Y-116448779D01*
X128952258Y-116402286D01*
X129004600Y-116390900D01*
X129313507Y-116390900D01*
X129361724Y-116400491D01*
X129384269Y-116409830D01*
X129540470Y-116440900D01*
X129540471Y-116440900D01*
X129699729Y-116440900D01*
X129699730Y-116440900D01*
X129855931Y-116409830D01*
X130003068Y-116348883D01*
X130135489Y-116260403D01*
X130248103Y-116147789D01*
X130336583Y-116015368D01*
X130397530Y-115868231D01*
X130428600Y-115712030D01*
X130428600Y-115552770D01*
X130397530Y-115396569D01*
X130336583Y-115249432D01*
X130248103Y-115117011D01*
X130248101Y-115117009D01*
X130248096Y-115117003D01*
X130135496Y-115004403D01*
X130135490Y-115004398D01*
X130126220Y-114998204D01*
X130003068Y-114915917D01*
X129855931Y-114854970D01*
X129767565Y-114837393D01*
X129699732Y-114823900D01*
X129699730Y-114823900D01*
X129540470Y-114823900D01*
X129540467Y-114823900D01*
X129384269Y-114854970D01*
X129384268Y-114854970D01*
X129374883Y-114858857D01*
X129361724Y-114864308D01*
X129313507Y-114873900D01*
X129004600Y-114873900D01*
X128936479Y-114853898D01*
X128889986Y-114800242D01*
X128878600Y-114747900D01*
X128878600Y-113788767D01*
X128878599Y-113788750D01*
X128872090Y-113728203D01*
X128872089Y-113728201D01*
X128872089Y-113728199D01*
X128860240Y-113696433D01*
X128855174Y-113625621D01*
X128860237Y-113608374D01*
X128872089Y-113576601D01*
X128878600Y-113516038D01*
X128878600Y-112518762D01*
X128878599Y-112518750D01*
X128872090Y-112458203D01*
X128872089Y-112458201D01*
X128872089Y-112458199D01*
X128860240Y-112426433D01*
X128855174Y-112355621D01*
X128860237Y-112338374D01*
X128872089Y-112306601D01*
X128873080Y-112297390D01*
X128878599Y-112246049D01*
X128878600Y-112246032D01*
X128878600Y-111801257D01*
X128898602Y-111733136D01*
X128952258Y-111686643D01*
X129022532Y-111676539D01*
X129087112Y-111706033D01*
X129109363Y-111731253D01*
X129165933Y-111815916D01*
X135930932Y-118580915D01*
X135930933Y-118580916D01*
X136036582Y-118686565D01*
X136160814Y-118769574D01*
X136218828Y-118793604D01*
X136298851Y-118826751D01*
X136328739Y-118832696D01*
X136445392Y-118855900D01*
X136445393Y-118855900D01*
X136594803Y-118855900D01*
X143735600Y-118855900D01*
X143803721Y-118875902D01*
X143850214Y-118929558D01*
X143861600Y-118981900D01*
X143861600Y-119866049D01*
X143868109Y-119926596D01*
X143868111Y-119926604D01*
X143919210Y-120063602D01*
X143919212Y-120063607D01*
X144006838Y-120180661D01*
X144123892Y-120268287D01*
X144123894Y-120268288D01*
X144123896Y-120268289D01*
X144178598Y-120288692D01*
X144260895Y-120319388D01*
X144260903Y-120319390D01*
X144321450Y-120325899D01*
X144321455Y-120325899D01*
X144321462Y-120325900D01*
X144321468Y-120325900D01*
X145918732Y-120325900D01*
X145918738Y-120325900D01*
X145918745Y-120325899D01*
X145918749Y-120325899D01*
X145979296Y-120319390D01*
X145979299Y-120319389D01*
X145979301Y-120319389D01*
X146116304Y-120268289D01*
X146233361Y-120180661D01*
X146289209Y-120106057D01*
X146320987Y-120063607D01*
X146320987Y-120063606D01*
X146320989Y-120063604D01*
X146361622Y-119954660D01*
X146390580Y-119909601D01*
X146909267Y-119390916D01*
X146992275Y-119266685D01*
X147049452Y-119128648D01*
X147078601Y-118982106D01*
X147078601Y-118832696D01*
X147078601Y-112295226D01*
X147098603Y-112227105D01*
X147115506Y-112206131D01*
X151843842Y-107477795D01*
X151906154Y-107443769D01*
X151932937Y-107440890D01*
X152300600Y-107440890D01*
X152368721Y-107460892D01*
X152415214Y-107514548D01*
X152426600Y-107566890D01*
X152426600Y-108998911D01*
X152429537Y-109036228D01*
X152429537Y-109036229D01*
X152429538Y-109036231D01*
X152459280Y-109138606D01*
X152471597Y-109180999D01*
X152476600Y-109216152D01*
X152476600Y-116151027D01*
X152467816Y-116180942D01*
X152461188Y-116211412D01*
X152457373Y-116216507D01*
X152456598Y-116219148D01*
X152439695Y-116240122D01*
X152282865Y-116396952D01*
X152220553Y-116430978D01*
X152154140Y-116427462D01*
X152024525Y-116384513D01*
X152024523Y-116384512D01*
X152024521Y-116384512D01*
X151920652Y-116373900D01*
X151920644Y-116373900D01*
X150819556Y-116373900D01*
X150819548Y-116373900D01*
X150715678Y-116384512D01*
X150547362Y-116440285D01*
X150547360Y-116440286D01*
X150396448Y-116533370D01*
X150396442Y-116533375D01*
X150271075Y-116658742D01*
X150271070Y-116658748D01*
X150177986Y-116809660D01*
X150177985Y-116809662D01*
X150122212Y-116977978D01*
X150111600Y-117081847D01*
X150111600Y-119682952D01*
X150111599Y-119682952D01*
X150122212Y-119786821D01*
X150122212Y-119786823D01*
X150122213Y-119786825D01*
X150177985Y-119955138D01*
X150262607Y-120092330D01*
X150271070Y-120106051D01*
X150271075Y-120106057D01*
X150396442Y-120231424D01*
X150396448Y-120231429D01*
X150396449Y-120231430D01*
X150547362Y-120324515D01*
X150715675Y-120380287D01*
X150744006Y-120383181D01*
X150819548Y-120390900D01*
X150819556Y-120390900D01*
X151920652Y-120390900D01*
X151989898Y-120383824D01*
X152024525Y-120380287D01*
X152192838Y-120324515D01*
X152343751Y-120231430D01*
X152469130Y-120106051D01*
X152562215Y-119955138D01*
X152617987Y-119786825D01*
X152621875Y-119748773D01*
X152628600Y-119682952D01*
X152628600Y-118248771D01*
X152648602Y-118180650D01*
X152665505Y-118159676D01*
X153781005Y-117044176D01*
X153843317Y-117010150D01*
X153914132Y-117015215D01*
X153959195Y-117044176D01*
X155074695Y-118159676D01*
X155108721Y-118221988D01*
X155111600Y-118248771D01*
X155111600Y-119231446D01*
X155142588Y-119427100D01*
X155203802Y-119615497D01*
X155293734Y-119791998D01*
X155293736Y-119792001D01*
X155410171Y-119952260D01*
X155550239Y-120092328D01*
X155596447Y-120125900D01*
X155710502Y-120208766D01*
X155887003Y-120298698D01*
X156075400Y-120359912D01*
X156271054Y-120390900D01*
X156271057Y-120390900D01*
X156469143Y-120390900D01*
X156469146Y-120390900D01*
X156664800Y-120359912D01*
X156853197Y-120298698D01*
X157029698Y-120208766D01*
X157189958Y-120092330D01*
X157330030Y-119952258D01*
X157446466Y-119791998D01*
X157536398Y-119615497D01*
X157597612Y-119427100D01*
X157628600Y-119231446D01*
X157628600Y-117533354D01*
X157597612Y-117337700D01*
X157536398Y-117149303D01*
X157446466Y-116972802D01*
X157330030Y-116812542D01*
X157330028Y-116812539D01*
X157189960Y-116672471D01*
X157029701Y-116556036D01*
X157029700Y-116556035D01*
X157029698Y-116556034D01*
X156853197Y-116466102D01*
X156664800Y-116404888D01*
X156469146Y-116373900D01*
X156271054Y-116373900D01*
X156075400Y-116404888D01*
X156075397Y-116404888D01*
X156075396Y-116404889D01*
X155887003Y-116466102D01*
X155887001Y-116466103D01*
X155729739Y-116546232D01*
X155659962Y-116559336D01*
X155594177Y-116532636D01*
X155583441Y-116523060D01*
X155300505Y-116240124D01*
X155266479Y-116177812D01*
X155263600Y-116151029D01*
X155263600Y-109680918D01*
X155283602Y-109612797D01*
X155337258Y-109566304D01*
X155407532Y-109556200D01*
X155424742Y-109559918D01*
X155521269Y-109587962D01*
X155558588Y-109590899D01*
X155558589Y-109590900D01*
X155558598Y-109590900D01*
X155991611Y-109590900D01*
X155991611Y-109590899D01*
X156028931Y-109587962D01*
X156188701Y-109541545D01*
X156188703Y-109541543D01*
X156188705Y-109541543D01*
X156286601Y-109483647D01*
X156331907Y-109456853D01*
X156449553Y-109339207D01*
X156522328Y-109216152D01*
X156534243Y-109196005D01*
X156534243Y-109196003D01*
X156534245Y-109196001D01*
X156580662Y-109036231D01*
X156583599Y-108998911D01*
X156583600Y-108998911D01*
X156583600Y-107215889D01*
X156583599Y-107215888D01*
X156580662Y-107178571D01*
X156580661Y-107178567D01*
X156577024Y-107166049D01*
X156548015Y-107066196D01*
X156538603Y-107033797D01*
X156533600Y-106998645D01*
X156533600Y-105616381D01*
X156553602Y-105548260D01*
X156570500Y-105527290D01*
X157114275Y-104983516D01*
X157157036Y-104919519D01*
X157197284Y-104859284D01*
X157254461Y-104721246D01*
X157260916Y-104688798D01*
X157261354Y-104686599D01*
X157273399Y-104626040D01*
X157273399Y-104626039D01*
X157275093Y-104617522D01*
X157283610Y-104574706D01*
X157283610Y-101000204D01*
X157254461Y-100853664D01*
X157245517Y-100832072D01*
X157202969Y-100729351D01*
X157197284Y-100715626D01*
X157114275Y-100591394D01*
X157008626Y-100485745D01*
X155933715Y-99410834D01*
X155809484Y-99327826D01*
X155671447Y-99270649D01*
X155598176Y-99256074D01*
X155598175Y-99256073D01*
X155524911Y-99241500D01*
X155524906Y-99241500D01*
X154366371Y-99241500D01*
X154298250Y-99221498D01*
X154277276Y-99204595D01*
X152624737Y-97552056D01*
X152590711Y-97489744D01*
X152595776Y-97418929D01*
X152638323Y-97362093D01*
X152704843Y-97337282D01*
X152753463Y-97343356D01*
X152790786Y-97355724D01*
X152890389Y-97365900D01*
X153424810Y-97365899D01*
X153524414Y-97355724D01*
X153685792Y-97302249D01*
X153830487Y-97213000D01*
X153865682Y-97177804D01*
X153927992Y-97143780D01*
X153954777Y-97140900D01*
X154396225Y-97140900D01*
X154460366Y-97158448D01*
X154467501Y-97162668D01*
X154467503Y-97162668D01*
X154467504Y-97162669D01*
X154623634Y-97208029D01*
X154660111Y-97210900D01*
X155060088Y-97210899D01*
X155096566Y-97208029D01*
X155252696Y-97162669D01*
X155305962Y-97131167D01*
X155374775Y-97113708D01*
X155434237Y-97131166D01*
X155487504Y-97162669D01*
X155643634Y-97208029D01*
X155680111Y-97210900D01*
X156080088Y-97210899D01*
X156116566Y-97208029D01*
X156272696Y-97162669D01*
X156272698Y-97162667D01*
X156272700Y-97162667D01*
X156412639Y-97079907D01*
X156412638Y-97079907D01*
X156412641Y-97079906D01*
X156527606Y-96964941D01*
X156610369Y-96824996D01*
X156655729Y-96668866D01*
X156658600Y-96632389D01*
X156658599Y-96132412D01*
X156655729Y-96095934D01*
X156641452Y-96046792D01*
X156641654Y-95975801D01*
X156673351Y-95922552D01*
X158321171Y-94274733D01*
X158390500Y-94170975D01*
X158438255Y-94055685D01*
X158462600Y-93933294D01*
X158462600Y-93808506D01*
X158462600Y-92357993D01*
X158482602Y-92289872D01*
X158499500Y-92268903D01*
X163056505Y-87711897D01*
X163118817Y-87677872D01*
X163189632Y-87682937D01*
X163246468Y-87725484D01*
X163271279Y-87792004D01*
X163271600Y-87800993D01*
X163271600Y-87889316D01*
X163304689Y-88098228D01*
X163305052Y-88100521D01*
X163371126Y-88303878D01*
X163371128Y-88303883D01*
X163468206Y-88494409D01*
X163593894Y-88667404D01*
X163593896Y-88667406D01*
X163593898Y-88667409D01*
X163745090Y-88818601D01*
X163745093Y-88818603D01*
X163745096Y-88818606D01*
X163918091Y-88944294D01*
X163918096Y-88944296D01*
X163919188Y-88944966D01*
X163919518Y-88945331D01*
X163922096Y-88947204D01*
X163921702Y-88947745D01*
X163966821Y-88997613D01*
X163978428Y-89067655D01*
X163950326Y-89132853D01*
X163921970Y-89157423D01*
X163922096Y-89157596D01*
X163920082Y-89159058D01*
X163919188Y-89159834D01*
X163918087Y-89160508D01*
X163745093Y-89286196D01*
X163745090Y-89286198D01*
X163593898Y-89437390D01*
X163593896Y-89437393D01*
X163468208Y-89610387D01*
X163371129Y-89800915D01*
X163371126Y-89800921D01*
X163305052Y-90004278D01*
X163305051Y-90004283D01*
X163305051Y-90004284D01*
X163271600Y-90215484D01*
X163271600Y-90429316D01*
X163304322Y-90635913D01*
X163305052Y-90640521D01*
X163363230Y-90819576D01*
X163371128Y-90843883D01*
X163468206Y-91034409D01*
X163593894Y-91207404D01*
X163593896Y-91207406D01*
X163593898Y-91207409D01*
X163745090Y-91358601D01*
X163745093Y-91358603D01*
X163745096Y-91358606D01*
X163918091Y-91484294D01*
X163918096Y-91484296D01*
X163919188Y-91484966D01*
X163919518Y-91485331D01*
X163922096Y-91487204D01*
X163921702Y-91487745D01*
X163966821Y-91537613D01*
X163978428Y-91607655D01*
X163950326Y-91672853D01*
X163921970Y-91697423D01*
X163922096Y-91697596D01*
X163920082Y-91699058D01*
X163919188Y-91699834D01*
X163918087Y-91700508D01*
X163745093Y-91826196D01*
X163745090Y-91826198D01*
X163593898Y-91977390D01*
X163593896Y-91977393D01*
X163468208Y-92150387D01*
X163371129Y-92340915D01*
X163371126Y-92340921D01*
X163305052Y-92544278D01*
X163305051Y-92544283D01*
X163305051Y-92544284D01*
X163271600Y-92755484D01*
X163271600Y-92969316D01*
X163305051Y-93180516D01*
X163305052Y-93180521D01*
X163371126Y-93383878D01*
X163371128Y-93383883D01*
X163468206Y-93574409D01*
X163468208Y-93574412D01*
X163485627Y-93598387D01*
X163593894Y-93747404D01*
X163593896Y-93747406D01*
X163593898Y-93747409D01*
X163745090Y-93898601D01*
X163745093Y-93898603D01*
X163745096Y-93898606D01*
X163918091Y-94024294D01*
X163918096Y-94024296D01*
X163919188Y-94024966D01*
X163919518Y-94025331D01*
X163922096Y-94027204D01*
X163921702Y-94027745D01*
X163966821Y-94077613D01*
X163978428Y-94147655D01*
X163950326Y-94212853D01*
X163921970Y-94237423D01*
X163922096Y-94237596D01*
X163920082Y-94239058D01*
X163919188Y-94239834D01*
X163918087Y-94240508D01*
X163745093Y-94366196D01*
X163745090Y-94366198D01*
X163593898Y-94517390D01*
X163593896Y-94517393D01*
X163468208Y-94690387D01*
X163371129Y-94880915D01*
X163371126Y-94880921D01*
X163305052Y-95084278D01*
X163305051Y-95084283D01*
X163305051Y-95084284D01*
X163271600Y-95295484D01*
X163271600Y-95509316D01*
X163291889Y-95637413D01*
X163305052Y-95720521D01*
X163370694Y-95922547D01*
X163371128Y-95923883D01*
X163468206Y-96114409D01*
X163593894Y-96287404D01*
X163593896Y-96287406D01*
X163593898Y-96287409D01*
X163745090Y-96438601D01*
X163745093Y-96438603D01*
X163745096Y-96438606D01*
X163918091Y-96564294D01*
X163918096Y-96564296D01*
X163919188Y-96564966D01*
X163919518Y-96565331D01*
X163922096Y-96567204D01*
X163921702Y-96567745D01*
X163966821Y-96617613D01*
X163978428Y-96687655D01*
X163950326Y-96752853D01*
X163921970Y-96777423D01*
X163922096Y-96777596D01*
X163920082Y-96779058D01*
X163919188Y-96779834D01*
X163918087Y-96780508D01*
X163745093Y-96906196D01*
X163745090Y-96906198D01*
X163593898Y-97057390D01*
X163593896Y-97057393D01*
X163468208Y-97230387D01*
X163371129Y-97420915D01*
X163371126Y-97420921D01*
X163305052Y-97624278D01*
X163305051Y-97624283D01*
X163305051Y-97624284D01*
X163271600Y-97835484D01*
X163271600Y-98049316D01*
X163305051Y-98260516D01*
X163305052Y-98260521D01*
X163371126Y-98463878D01*
X163371128Y-98463883D01*
X163468206Y-98654409D01*
X163593894Y-98827404D01*
X163593896Y-98827406D01*
X163593898Y-98827409D01*
X163745090Y-98978601D01*
X163745093Y-98978603D01*
X163745096Y-98978606D01*
X163918091Y-99104294D01*
X163918096Y-99104296D01*
X163919188Y-99104966D01*
X163919518Y-99105331D01*
X163922096Y-99107204D01*
X163921702Y-99107745D01*
X163966821Y-99157613D01*
X163978428Y-99227655D01*
X163950326Y-99292853D01*
X163921970Y-99317423D01*
X163922096Y-99317596D01*
X163920082Y-99319058D01*
X163919188Y-99319834D01*
X163918087Y-99320508D01*
X163745093Y-99446196D01*
X163745090Y-99446198D01*
X163593898Y-99597390D01*
X163593896Y-99597393D01*
X163468208Y-99770387D01*
X163371129Y-99960915D01*
X163371126Y-99960921D01*
X163305052Y-100164278D01*
X163305051Y-100164283D01*
X163305051Y-100164284D01*
X163271600Y-100375484D01*
X163271600Y-100589316D01*
X163305051Y-100800516D01*
X163305052Y-100800521D01*
X163371126Y-101003878D01*
X163371128Y-101003883D01*
X163468206Y-101194409D01*
X163593894Y-101367404D01*
X163593896Y-101367406D01*
X163593898Y-101367409D01*
X163745090Y-101518601D01*
X163745093Y-101518603D01*
X163745096Y-101518606D01*
X163918091Y-101644294D01*
X163918096Y-101644296D01*
X163919188Y-101644966D01*
X163919518Y-101645331D01*
X163922096Y-101647204D01*
X163921702Y-101647745D01*
X163966821Y-101697613D01*
X163978428Y-101767655D01*
X163950326Y-101832853D01*
X163921970Y-101857423D01*
X163922096Y-101857596D01*
X163920082Y-101859058D01*
X163919188Y-101859834D01*
X163918087Y-101860508D01*
X163745093Y-101986196D01*
X163745090Y-101986198D01*
X163593898Y-102137390D01*
X163593896Y-102137393D01*
X163468208Y-102310387D01*
X163371129Y-102500915D01*
X163371126Y-102500921D01*
X163305052Y-102704278D01*
X163305051Y-102704283D01*
X163305051Y-102704284D01*
X163271600Y-102915484D01*
X163271600Y-103129316D01*
X163303636Y-103331580D01*
X163305052Y-103340521D01*
X163371125Y-103543875D01*
X163371128Y-103543883D01*
X163468206Y-103734409D01*
X163468208Y-103734412D01*
X163499282Y-103777181D01*
X163593894Y-103907404D01*
X163593896Y-103907406D01*
X163593898Y-103907409D01*
X163745090Y-104058601D01*
X163745093Y-104058603D01*
X163745096Y-104058606D01*
X163918091Y-104184294D01*
X163918096Y-104184296D01*
X163919188Y-104184966D01*
X163919518Y-104185331D01*
X163922096Y-104187204D01*
X163921702Y-104187745D01*
X163966821Y-104237613D01*
X163978428Y-104307655D01*
X163950326Y-104372853D01*
X163921970Y-104397423D01*
X163922096Y-104397596D01*
X163920082Y-104399058D01*
X163919188Y-104399834D01*
X163918087Y-104400508D01*
X163745093Y-104526196D01*
X163745090Y-104526198D01*
X163593898Y-104677390D01*
X163593896Y-104677393D01*
X163468208Y-104850387D01*
X163371129Y-105040915D01*
X163371126Y-105040921D01*
X163305052Y-105244278D01*
X163305051Y-105244283D01*
X163305051Y-105244284D01*
X163271600Y-105455484D01*
X163271600Y-105669316D01*
X163302754Y-105866011D01*
X163305052Y-105880521D01*
X163368706Y-106076430D01*
X163371128Y-106083883D01*
X163468206Y-106274409D01*
X163593894Y-106447404D01*
X163593896Y-106447406D01*
X163593898Y-106447409D01*
X163745090Y-106598601D01*
X163745093Y-106598603D01*
X163745096Y-106598606D01*
X163918091Y-106724294D01*
X163918096Y-106724296D01*
X163919188Y-106724966D01*
X163919518Y-106725331D01*
X163922096Y-106727204D01*
X163921702Y-106727745D01*
X163966821Y-106777613D01*
X163978428Y-106847655D01*
X163950326Y-106912853D01*
X163921970Y-106937423D01*
X163922096Y-106937596D01*
X163920082Y-106939058D01*
X163919188Y-106939834D01*
X163918087Y-106940508D01*
X163745093Y-107066196D01*
X163745090Y-107066198D01*
X163593898Y-107217390D01*
X163593896Y-107217393D01*
X163468208Y-107390387D01*
X163371129Y-107580915D01*
X163371126Y-107580921D01*
X163305052Y-107784278D01*
X163305051Y-107784283D01*
X163305051Y-107784284D01*
X163271600Y-107995484D01*
X163271600Y-108209316D01*
X163296577Y-108367011D01*
X163305052Y-108420521D01*
X163368706Y-108616430D01*
X163371128Y-108623883D01*
X163468206Y-108814409D01*
X163593894Y-108987404D01*
X163593896Y-108987406D01*
X163593898Y-108987409D01*
X163745090Y-109138601D01*
X163745093Y-109138603D01*
X163745096Y-109138606D01*
X163918091Y-109264294D01*
X163918096Y-109264296D01*
X163919188Y-109264966D01*
X163919518Y-109265331D01*
X163922096Y-109267204D01*
X163921702Y-109267745D01*
X163966821Y-109317613D01*
X163978428Y-109387655D01*
X163950326Y-109452853D01*
X163921970Y-109477423D01*
X163922096Y-109477596D01*
X163920082Y-109479058D01*
X163919188Y-109479834D01*
X163918087Y-109480508D01*
X163745093Y-109606196D01*
X163745090Y-109606198D01*
X163593898Y-109757390D01*
X163593896Y-109757393D01*
X163468208Y-109930387D01*
X163371129Y-110120915D01*
X163371126Y-110120921D01*
X163305052Y-110324278D01*
X163305051Y-110324283D01*
X163305051Y-110324284D01*
X163271600Y-110535484D01*
X163271600Y-110749316D01*
X163305051Y-110960516D01*
X163305052Y-110960521D01*
X163368706Y-111156430D01*
X163371128Y-111163883D01*
X163468206Y-111354409D01*
X163593894Y-111527404D01*
X163593896Y-111527406D01*
X163593898Y-111527409D01*
X163745090Y-111678601D01*
X163745093Y-111678603D01*
X163745096Y-111678606D01*
X163918091Y-111804294D01*
X163918096Y-111804296D01*
X163919188Y-111804966D01*
X163919518Y-111805331D01*
X163922096Y-111807204D01*
X163921702Y-111807745D01*
X163966821Y-111857613D01*
X163978428Y-111927655D01*
X163950326Y-111992853D01*
X163921970Y-112017423D01*
X163922096Y-112017596D01*
X163920082Y-112019058D01*
X163919188Y-112019834D01*
X163918087Y-112020508D01*
X163745093Y-112146196D01*
X163745090Y-112146198D01*
X163593898Y-112297390D01*
X163593896Y-112297393D01*
X163468208Y-112470387D01*
X163371129Y-112660915D01*
X163371126Y-112660921D01*
X163305052Y-112864278D01*
X163305051Y-112864283D01*
X163305051Y-112864284D01*
X163271600Y-113075484D01*
X163271600Y-113289316D01*
X163304352Y-113496102D01*
X163305052Y-113500521D01*
X163368706Y-113696430D01*
X163371128Y-113703883D01*
X163468206Y-113894409D01*
X163593894Y-114067404D01*
X163593896Y-114067406D01*
X163593898Y-114067409D01*
X163745090Y-114218601D01*
X163745093Y-114218603D01*
X163745096Y-114218606D01*
X163918091Y-114344294D01*
X163918096Y-114344296D01*
X163919188Y-114344966D01*
X163919518Y-114345331D01*
X163922096Y-114347204D01*
X163921702Y-114347745D01*
X163966821Y-114397613D01*
X163978428Y-114467655D01*
X163950326Y-114532853D01*
X163921970Y-114557423D01*
X163922096Y-114557596D01*
X163920082Y-114559058D01*
X163919188Y-114559834D01*
X163918087Y-114560508D01*
X163745093Y-114686196D01*
X163745090Y-114686198D01*
X163593898Y-114837390D01*
X163593896Y-114837393D01*
X163468208Y-115010387D01*
X163371129Y-115200915D01*
X163371126Y-115200921D01*
X163305052Y-115404278D01*
X163305051Y-115404283D01*
X163305051Y-115404284D01*
X163271600Y-115615484D01*
X163271600Y-115829316D01*
X163301068Y-116015367D01*
X163305052Y-116040521D01*
X163371126Y-116243878D01*
X163371128Y-116243883D01*
X163468206Y-116434409D01*
X163593894Y-116607404D01*
X163593896Y-116607406D01*
X163593898Y-116607409D01*
X163745090Y-116758601D01*
X163745093Y-116758603D01*
X163745096Y-116758606D01*
X163918091Y-116884294D01*
X163918096Y-116884296D01*
X163919188Y-116884966D01*
X163919518Y-116885331D01*
X163922096Y-116887204D01*
X163921702Y-116887745D01*
X163966821Y-116937613D01*
X163978428Y-117007655D01*
X163950326Y-117072853D01*
X163921970Y-117097423D01*
X163922096Y-117097596D01*
X163920082Y-117099058D01*
X163919188Y-117099834D01*
X163918087Y-117100508D01*
X163745093Y-117226196D01*
X163745090Y-117226198D01*
X163593898Y-117377390D01*
X163593896Y-117377393D01*
X163468208Y-117550387D01*
X163371129Y-117740915D01*
X163371126Y-117740921D01*
X163305052Y-117944278D01*
X163305051Y-117944283D01*
X163305051Y-117944284D01*
X163271600Y-118155484D01*
X163271600Y-118369316D01*
X163305051Y-118580516D01*
X163305052Y-118580521D01*
X163366479Y-118769575D01*
X163371128Y-118783883D01*
X163468206Y-118974409D01*
X163468208Y-118974412D01*
X163499282Y-119017181D01*
X163593894Y-119147404D01*
X163593896Y-119147406D01*
X163593898Y-119147409D01*
X163745090Y-119298601D01*
X163745093Y-119298603D01*
X163745096Y-119298606D01*
X163918091Y-119424294D01*
X164108617Y-119521372D01*
X164311978Y-119587447D01*
X164311979Y-119587447D01*
X164311984Y-119587449D01*
X164523184Y-119620900D01*
X164523187Y-119620900D01*
X164737013Y-119620900D01*
X164737016Y-119620900D01*
X164948216Y-119587449D01*
X165151583Y-119521372D01*
X165342109Y-119424294D01*
X165515104Y-119298606D01*
X165666306Y-119147404D01*
X165791994Y-118974409D01*
X165791999Y-118974397D01*
X165792661Y-118973320D01*
X165793024Y-118972991D01*
X165794904Y-118970404D01*
X165795447Y-118970798D01*
X165845304Y-118925683D01*
X165915344Y-118914070D01*
X165980545Y-118942166D01*
X166005121Y-118970530D01*
X166005296Y-118970404D01*
X166006768Y-118972430D01*
X166007539Y-118973320D01*
X166008208Y-118974412D01*
X166039282Y-119017181D01*
X166133894Y-119147404D01*
X166133896Y-119147406D01*
X166133898Y-119147409D01*
X166285090Y-119298601D01*
X166285093Y-119298603D01*
X166285096Y-119298606D01*
X166458091Y-119424294D01*
X166648617Y-119521372D01*
X166851978Y-119587447D01*
X166851979Y-119587447D01*
X166851984Y-119587449D01*
X167063184Y-119620900D01*
X167063187Y-119620900D01*
X167277013Y-119620900D01*
X167277016Y-119620900D01*
X167488216Y-119587449D01*
X167691583Y-119521372D01*
X167882109Y-119424294D01*
X168055104Y-119298606D01*
X168206306Y-119147404D01*
X168331994Y-118974409D01*
X168429072Y-118783883D01*
X168495149Y-118580516D01*
X168528600Y-118369316D01*
X168528600Y-118155484D01*
X168495149Y-117944284D01*
X168429072Y-117740917D01*
X168331994Y-117550391D01*
X168206306Y-117377396D01*
X168206303Y-117377393D01*
X168206301Y-117377390D01*
X168055109Y-117226198D01*
X168055106Y-117226196D01*
X168055104Y-117226194D01*
X167924881Y-117131582D01*
X167882112Y-117100508D01*
X167881020Y-117099839D01*
X167880691Y-117099475D01*
X167878104Y-117097596D01*
X167878498Y-117097052D01*
X167833383Y-117047196D01*
X167821770Y-116977156D01*
X167849866Y-116911955D01*
X167878230Y-116887378D01*
X167878104Y-116887204D01*
X167880130Y-116885731D01*
X167881020Y-116884961D01*
X167882097Y-116884299D01*
X167882109Y-116884294D01*
X168055104Y-116758606D01*
X168206306Y-116607404D01*
X168331994Y-116434409D01*
X168429072Y-116243883D01*
X168495149Y-116040516D01*
X168528600Y-115829316D01*
X168528600Y-115615484D01*
X168495149Y-115404284D01*
X168429072Y-115200917D01*
X168331994Y-115010391D01*
X168206306Y-114837396D01*
X168206303Y-114837393D01*
X168206301Y-114837390D01*
X168055109Y-114686198D01*
X168055106Y-114686196D01*
X168055104Y-114686194D01*
X167882109Y-114560506D01*
X167882107Y-114560505D01*
X167881020Y-114559839D01*
X167880691Y-114559475D01*
X167878104Y-114557596D01*
X167878498Y-114557052D01*
X167833383Y-114507196D01*
X167821770Y-114437156D01*
X167849866Y-114371955D01*
X167878230Y-114347378D01*
X167878104Y-114347204D01*
X167880130Y-114345731D01*
X167881020Y-114344961D01*
X167882097Y-114344299D01*
X167882109Y-114344294D01*
X168055104Y-114218606D01*
X168206306Y-114067404D01*
X168331994Y-113894409D01*
X168429072Y-113703883D01*
X168495149Y-113500516D01*
X168528600Y-113289316D01*
X168528600Y-113075484D01*
X168495149Y-112864284D01*
X168429072Y-112660917D01*
X168331994Y-112470391D01*
X168206306Y-112297396D01*
X168206303Y-112297393D01*
X168206301Y-112297390D01*
X168055109Y-112146198D01*
X168055106Y-112146196D01*
X168055104Y-112146194D01*
X167882109Y-112020506D01*
X167882107Y-112020505D01*
X167881020Y-112019839D01*
X167880691Y-112019475D01*
X167878104Y-112017596D01*
X167878498Y-112017052D01*
X167833383Y-111967196D01*
X167821770Y-111897156D01*
X167849866Y-111831955D01*
X167878230Y-111807378D01*
X167878104Y-111807204D01*
X167880130Y-111805731D01*
X167881020Y-111804961D01*
X167882097Y-111804299D01*
X167882109Y-111804294D01*
X168055104Y-111678606D01*
X168206306Y-111527404D01*
X168331994Y-111354409D01*
X168429072Y-111163883D01*
X168495149Y-110960516D01*
X168528600Y-110749316D01*
X168528600Y-110535484D01*
X168495149Y-110324284D01*
X168429072Y-110120917D01*
X168331994Y-109930391D01*
X168206306Y-109757396D01*
X168206303Y-109757393D01*
X168206301Y-109757390D01*
X168055109Y-109606198D01*
X168055106Y-109606196D01*
X168055104Y-109606194D01*
X167882109Y-109480506D01*
X167882107Y-109480505D01*
X167881020Y-109479839D01*
X167880691Y-109479475D01*
X167878104Y-109477596D01*
X167878498Y-109477052D01*
X167833383Y-109427196D01*
X167821770Y-109357156D01*
X167849866Y-109291955D01*
X167878230Y-109267378D01*
X167878104Y-109267204D01*
X167880130Y-109265731D01*
X167881020Y-109264961D01*
X167882097Y-109264299D01*
X167882109Y-109264294D01*
X168055104Y-109138606D01*
X168206306Y-108987404D01*
X168331994Y-108814409D01*
X168429072Y-108623883D01*
X168495149Y-108420516D01*
X168528600Y-108209316D01*
X168528600Y-107995484D01*
X168495149Y-107784284D01*
X168429072Y-107580917D01*
X168331994Y-107390391D01*
X168206306Y-107217396D01*
X168206303Y-107217393D01*
X168206301Y-107217390D01*
X168055109Y-107066198D01*
X168055106Y-107066196D01*
X168055104Y-107066194D01*
X167882109Y-106940506D01*
X167882107Y-106940505D01*
X167881020Y-106939839D01*
X167880691Y-106939475D01*
X167878104Y-106937596D01*
X167878498Y-106937052D01*
X167833383Y-106887196D01*
X167821770Y-106817156D01*
X167849866Y-106751955D01*
X167878230Y-106727378D01*
X167878104Y-106727204D01*
X167880130Y-106725731D01*
X167881020Y-106724961D01*
X167882097Y-106724299D01*
X167882109Y-106724294D01*
X168055104Y-106598606D01*
X168206306Y-106447404D01*
X168331994Y-106274409D01*
X168429072Y-106083883D01*
X168495149Y-105880516D01*
X168528600Y-105669316D01*
X168528600Y-105455484D01*
X168495149Y-105244284D01*
X168429072Y-105040917D01*
X168331994Y-104850391D01*
X168206306Y-104677396D01*
X168206303Y-104677393D01*
X168206301Y-104677390D01*
X168055109Y-104526198D01*
X168055106Y-104526196D01*
X168055104Y-104526194D01*
X167920860Y-104428660D01*
X167882112Y-104400508D01*
X167881020Y-104399839D01*
X167880691Y-104399475D01*
X167878104Y-104397596D01*
X167878498Y-104397052D01*
X167833383Y-104347196D01*
X167821770Y-104277156D01*
X167849866Y-104211955D01*
X167878230Y-104187378D01*
X167878104Y-104187204D01*
X167880130Y-104185731D01*
X167881020Y-104184961D01*
X167882097Y-104184299D01*
X167882109Y-104184294D01*
X168055104Y-104058606D01*
X168206306Y-103907404D01*
X168331994Y-103734409D01*
X168429072Y-103543883D01*
X168495149Y-103340516D01*
X168528600Y-103129316D01*
X168528600Y-102915484D01*
X168495149Y-102704284D01*
X168429072Y-102500917D01*
X168331994Y-102310391D01*
X168206306Y-102137396D01*
X168206303Y-102137393D01*
X168206301Y-102137390D01*
X168055109Y-101986198D01*
X168055106Y-101986196D01*
X168055104Y-101986194D01*
X167882109Y-101860506D01*
X167882107Y-101860505D01*
X167881020Y-101859839D01*
X167880691Y-101859475D01*
X167878104Y-101857596D01*
X167878498Y-101857052D01*
X167833383Y-101807196D01*
X167821770Y-101737156D01*
X167849866Y-101671955D01*
X167878230Y-101647378D01*
X167878104Y-101647204D01*
X167880130Y-101645731D01*
X167881020Y-101644961D01*
X167882097Y-101644299D01*
X167882109Y-101644294D01*
X168055104Y-101518606D01*
X168206306Y-101367404D01*
X168331994Y-101194409D01*
X168429072Y-101003883D01*
X168495149Y-100800516D01*
X168528600Y-100589316D01*
X168528600Y-100375484D01*
X168495149Y-100164284D01*
X168429072Y-99960917D01*
X168331994Y-99770391D01*
X168206306Y-99597396D01*
X168206303Y-99597393D01*
X168206301Y-99597390D01*
X168055109Y-99446198D01*
X168055106Y-99446196D01*
X168055104Y-99446194D01*
X167882109Y-99320506D01*
X167882107Y-99320505D01*
X167881020Y-99319839D01*
X167880691Y-99319475D01*
X167878104Y-99317596D01*
X167878498Y-99317052D01*
X167833383Y-99267196D01*
X167821770Y-99197156D01*
X167849866Y-99131955D01*
X167878230Y-99107378D01*
X167878104Y-99107204D01*
X167880130Y-99105731D01*
X167881020Y-99104961D01*
X167882097Y-99104299D01*
X167882109Y-99104294D01*
X168055104Y-98978606D01*
X168206306Y-98827404D01*
X168331994Y-98654409D01*
X168429072Y-98463883D01*
X168495149Y-98260516D01*
X168528600Y-98049316D01*
X168528600Y-97835484D01*
X168495149Y-97624284D01*
X168429072Y-97420917D01*
X168331994Y-97230391D01*
X168206306Y-97057396D01*
X168206303Y-97057393D01*
X168206301Y-97057390D01*
X168055109Y-96906198D01*
X168055106Y-96906196D01*
X168055104Y-96906194D01*
X167882109Y-96780506D01*
X167882107Y-96780505D01*
X167881020Y-96779839D01*
X167880691Y-96779475D01*
X167878104Y-96777596D01*
X167878498Y-96777052D01*
X167833383Y-96727196D01*
X167821770Y-96657156D01*
X167849866Y-96591955D01*
X167878230Y-96567378D01*
X167878104Y-96567204D01*
X167880130Y-96565731D01*
X167881020Y-96564961D01*
X167882097Y-96564299D01*
X167882109Y-96564294D01*
X168055104Y-96438606D01*
X168206306Y-96287404D01*
X168331994Y-96114409D01*
X168429072Y-95923883D01*
X168495149Y-95720516D01*
X168528600Y-95509316D01*
X168528600Y-95295484D01*
X168495149Y-95084284D01*
X168429072Y-94880917D01*
X168331994Y-94690391D01*
X168206306Y-94517396D01*
X168206303Y-94517393D01*
X168206301Y-94517390D01*
X168055109Y-94366198D01*
X168055106Y-94366196D01*
X168055104Y-94366194D01*
X167882109Y-94240506D01*
X167882107Y-94240505D01*
X167881020Y-94239839D01*
X167880691Y-94239475D01*
X167878104Y-94237596D01*
X167878498Y-94237052D01*
X167833383Y-94187196D01*
X167821770Y-94117156D01*
X167849866Y-94051955D01*
X167878230Y-94027378D01*
X167878104Y-94027204D01*
X167880130Y-94025731D01*
X167881020Y-94024961D01*
X167882097Y-94024299D01*
X167882109Y-94024294D01*
X168055104Y-93898606D01*
X168206306Y-93747404D01*
X168331994Y-93574409D01*
X168429072Y-93383883D01*
X168495149Y-93180516D01*
X168528600Y-92969316D01*
X168528600Y-92755484D01*
X168495149Y-92544284D01*
X168429072Y-92340917D01*
X168331994Y-92150391D01*
X168206306Y-91977396D01*
X168206303Y-91977393D01*
X168206301Y-91977390D01*
X168055109Y-91826198D01*
X168055106Y-91826196D01*
X168055104Y-91826194D01*
X167882109Y-91700506D01*
X167882107Y-91700505D01*
X167881020Y-91699839D01*
X167880691Y-91699475D01*
X167878104Y-91697596D01*
X167878498Y-91697052D01*
X167833383Y-91647196D01*
X167821770Y-91577156D01*
X167849866Y-91511955D01*
X167878230Y-91487378D01*
X167878104Y-91487204D01*
X167880130Y-91485731D01*
X167881020Y-91484961D01*
X167882097Y-91484299D01*
X167882109Y-91484294D01*
X168055104Y-91358606D01*
X168206306Y-91207404D01*
X168331994Y-91034409D01*
X168429072Y-90843883D01*
X168495149Y-90640516D01*
X168528600Y-90429316D01*
X168528600Y-90215484D01*
X168495149Y-90004284D01*
X168429072Y-89800917D01*
X168331994Y-89610391D01*
X168206306Y-89437396D01*
X168206303Y-89437393D01*
X168206301Y-89437390D01*
X168055109Y-89286198D01*
X168055106Y-89286196D01*
X168055104Y-89286194D01*
X167882109Y-89160506D01*
X167882107Y-89160505D01*
X167881020Y-89159839D01*
X167880691Y-89159475D01*
X167878104Y-89157596D01*
X167878498Y-89157052D01*
X167833383Y-89107196D01*
X167821770Y-89037156D01*
X167849866Y-88971955D01*
X167878230Y-88947378D01*
X167878104Y-88947204D01*
X167880130Y-88945731D01*
X167881020Y-88944961D01*
X167882097Y-88944299D01*
X167882109Y-88944294D01*
X168055104Y-88818606D01*
X168206306Y-88667404D01*
X168331994Y-88494409D01*
X168429072Y-88303883D01*
X168495149Y-88100516D01*
X168528600Y-87889316D01*
X168528600Y-87675484D01*
X168495149Y-87464284D01*
X168429072Y-87260917D01*
X168331994Y-87070391D01*
X168206306Y-86897396D01*
X168206303Y-86897393D01*
X168206301Y-86897390D01*
X168055109Y-86746198D01*
X168055106Y-86746196D01*
X168055104Y-86746194D01*
X167882109Y-86620506D01*
X167882107Y-86620505D01*
X167881020Y-86619839D01*
X167880691Y-86619475D01*
X167878104Y-86617596D01*
X167878498Y-86617052D01*
X167833383Y-86567196D01*
X167821770Y-86497156D01*
X167849866Y-86431955D01*
X167878230Y-86407378D01*
X167878104Y-86407204D01*
X167880130Y-86405731D01*
X167881020Y-86404961D01*
X167882097Y-86404299D01*
X167882109Y-86404294D01*
X168055104Y-86278606D01*
X168206306Y-86127404D01*
X168331994Y-85954409D01*
X168429072Y-85763883D01*
X168495149Y-85560516D01*
X168528600Y-85349316D01*
X168528600Y-85135484D01*
X168495149Y-84924284D01*
X168429072Y-84720917D01*
X168331994Y-84530391D01*
X168206306Y-84357396D01*
X168206303Y-84357393D01*
X168206301Y-84357390D01*
X168055109Y-84206198D01*
X168055106Y-84206196D01*
X168055104Y-84206194D01*
X167882109Y-84080506D01*
X167882107Y-84080505D01*
X167881020Y-84079839D01*
X167880691Y-84079475D01*
X167878104Y-84077596D01*
X167878498Y-84077052D01*
X167833383Y-84027196D01*
X167821770Y-83957156D01*
X167849866Y-83891955D01*
X167878230Y-83867378D01*
X167878104Y-83867204D01*
X167880130Y-83865731D01*
X167881020Y-83864961D01*
X167882097Y-83864299D01*
X167882109Y-83864294D01*
X168055104Y-83738606D01*
X168206306Y-83587404D01*
X168331994Y-83414409D01*
X168429072Y-83223883D01*
X168495149Y-83020516D01*
X168528600Y-82809316D01*
X168528600Y-82595484D01*
X168495149Y-82384284D01*
X168429072Y-82180917D01*
X168331994Y-81990391D01*
X168206306Y-81817396D01*
X168206303Y-81817393D01*
X168206301Y-81817390D01*
X168055109Y-81666198D01*
X168055106Y-81666196D01*
X168055104Y-81666194D01*
X167882109Y-81540506D01*
X167882107Y-81540505D01*
X167881020Y-81539839D01*
X167880691Y-81539475D01*
X167878104Y-81537596D01*
X167878498Y-81537052D01*
X167833383Y-81487196D01*
X167821770Y-81417156D01*
X167849866Y-81351955D01*
X167878230Y-81327378D01*
X167878104Y-81327204D01*
X167880130Y-81325731D01*
X167881020Y-81324961D01*
X167882097Y-81324299D01*
X167882109Y-81324294D01*
X168055104Y-81198606D01*
X168206306Y-81047404D01*
X168331994Y-80874409D01*
X168429072Y-80683883D01*
X168495149Y-80480516D01*
X168528600Y-80269316D01*
X168528600Y-80055484D01*
X168495149Y-79844284D01*
X168429072Y-79640917D01*
X168331994Y-79450391D01*
X168206306Y-79277396D01*
X168206303Y-79277393D01*
X168206301Y-79277390D01*
X168055109Y-79126198D01*
X168055106Y-79126196D01*
X168055104Y-79126194D01*
X167882109Y-79000506D01*
X167882107Y-79000505D01*
X167881020Y-78999839D01*
X167880691Y-78999475D01*
X167878104Y-78997596D01*
X167878498Y-78997052D01*
X167833383Y-78947196D01*
X167821770Y-78877156D01*
X167849866Y-78811955D01*
X167878230Y-78787378D01*
X167878104Y-78787204D01*
X167880130Y-78785731D01*
X167881020Y-78784961D01*
X167882097Y-78784299D01*
X167882109Y-78784294D01*
X168055104Y-78658606D01*
X168206306Y-78507404D01*
X168331994Y-78334409D01*
X168429072Y-78143883D01*
X168495149Y-77940516D01*
X168528600Y-77729316D01*
X168528600Y-77515484D01*
X168495149Y-77304284D01*
X168429072Y-77100917D01*
X168331994Y-76910391D01*
X168206306Y-76737396D01*
X168206303Y-76737393D01*
X168206301Y-76737390D01*
X168055109Y-76586198D01*
X168055106Y-76586196D01*
X168055104Y-76586194D01*
X167924881Y-76491582D01*
X167882112Y-76460508D01*
X167881020Y-76459839D01*
X167880691Y-76459475D01*
X167878104Y-76457596D01*
X167878498Y-76457052D01*
X167833383Y-76407196D01*
X167821770Y-76337156D01*
X167849866Y-76271955D01*
X167878230Y-76247378D01*
X167878104Y-76247204D01*
X167880130Y-76245731D01*
X167881020Y-76244961D01*
X167882097Y-76244299D01*
X167882109Y-76244294D01*
X168055104Y-76118606D01*
X168206306Y-75967404D01*
X168331994Y-75794409D01*
X168429072Y-75603883D01*
X168495149Y-75400516D01*
X168528600Y-75189316D01*
X168528600Y-74975484D01*
X168495149Y-74764284D01*
X168429072Y-74560917D01*
X168331994Y-74370391D01*
X168206306Y-74197396D01*
X168206303Y-74197393D01*
X168206301Y-74197390D01*
X168055109Y-74046198D01*
X168055106Y-74046196D01*
X168055104Y-74046194D01*
X167882109Y-73920506D01*
X167882107Y-73920505D01*
X167881020Y-73919839D01*
X167880691Y-73919475D01*
X167878104Y-73917596D01*
X167878498Y-73917052D01*
X167833383Y-73867196D01*
X167821770Y-73797156D01*
X167849866Y-73731955D01*
X167878230Y-73707378D01*
X167878104Y-73707204D01*
X167880130Y-73705731D01*
X167881020Y-73704961D01*
X167882097Y-73704299D01*
X167882109Y-73704294D01*
X168055104Y-73578606D01*
X168206306Y-73427404D01*
X168331994Y-73254409D01*
X168429072Y-73063883D01*
X168495149Y-72860516D01*
X168528600Y-72649316D01*
X168528600Y-72435484D01*
X168495149Y-72224284D01*
X168429072Y-72020917D01*
X168331994Y-71830391D01*
X168206306Y-71657396D01*
X168206303Y-71657393D01*
X168206301Y-71657390D01*
X168055109Y-71506198D01*
X168055106Y-71506196D01*
X168055104Y-71506194D01*
X167882109Y-71380506D01*
X167882107Y-71380505D01*
X167881020Y-71379839D01*
X167880691Y-71379475D01*
X167878104Y-71377596D01*
X167878498Y-71377052D01*
X167833383Y-71327196D01*
X167821770Y-71257156D01*
X167849866Y-71191955D01*
X167878230Y-71167378D01*
X167878104Y-71167204D01*
X167880130Y-71165731D01*
X167881020Y-71164961D01*
X167882097Y-71164299D01*
X167882109Y-71164294D01*
X168055104Y-71038606D01*
X168206306Y-70887404D01*
X168331994Y-70714409D01*
X168429072Y-70523883D01*
X168495149Y-70320516D01*
X168528600Y-70109316D01*
X168528600Y-69895484D01*
X168495149Y-69684284D01*
X168429072Y-69480917D01*
X168331994Y-69290391D01*
X168206306Y-69117396D01*
X168206303Y-69117393D01*
X168206301Y-69117390D01*
X168055109Y-68966198D01*
X168055106Y-68966196D01*
X168055104Y-68966194D01*
X167882109Y-68840506D01*
X167882107Y-68840505D01*
X167881020Y-68839839D01*
X167880691Y-68839475D01*
X167878104Y-68837596D01*
X167878498Y-68837052D01*
X167833383Y-68787196D01*
X167821770Y-68717156D01*
X167849866Y-68651955D01*
X167878230Y-68627378D01*
X167878104Y-68627204D01*
X167880130Y-68625731D01*
X167881020Y-68624961D01*
X167882097Y-68624299D01*
X167882109Y-68624294D01*
X168055104Y-68498606D01*
X168206306Y-68347404D01*
X168331994Y-68174409D01*
X168429072Y-67983883D01*
X168495149Y-67780516D01*
X168528600Y-67569316D01*
X168528600Y-67355484D01*
X168495149Y-67144284D01*
X168429072Y-66940917D01*
X168331994Y-66750391D01*
X168206306Y-66577396D01*
X168206303Y-66577393D01*
X168206301Y-66577390D01*
X168055109Y-66426198D01*
X168055106Y-66426196D01*
X168055104Y-66426194D01*
X167882109Y-66300506D01*
X167882107Y-66300505D01*
X167881020Y-66299839D01*
X167880691Y-66299475D01*
X167878104Y-66297596D01*
X167878498Y-66297052D01*
X167833383Y-66247196D01*
X167821770Y-66177156D01*
X167849866Y-66111955D01*
X167878230Y-66087378D01*
X167878104Y-66087204D01*
X167880130Y-66085731D01*
X167881020Y-66084961D01*
X167882097Y-66084299D01*
X167882109Y-66084294D01*
X168055104Y-65958606D01*
X168206306Y-65807404D01*
X168331994Y-65634409D01*
X168429072Y-65443883D01*
X168495149Y-65240516D01*
X168528600Y-65029316D01*
X168528600Y-64815484D01*
X168495149Y-64604284D01*
X168429072Y-64400917D01*
X168331994Y-64210391D01*
X168206306Y-64037396D01*
X168206303Y-64037393D01*
X168206301Y-64037390D01*
X168055109Y-63886198D01*
X168055106Y-63886196D01*
X168055104Y-63886194D01*
X167882109Y-63760506D01*
X167691583Y-63663428D01*
X167691580Y-63663427D01*
X167691578Y-63663426D01*
X167488220Y-63597352D01*
X167488223Y-63597352D01*
X167448901Y-63591124D01*
X167277016Y-63563900D01*
X167063184Y-63563900D01*
X166851984Y-63597351D01*
X166851978Y-63597352D01*
X166648621Y-63663426D01*
X166648615Y-63663429D01*
X166458087Y-63760508D01*
X166285093Y-63886196D01*
X166285090Y-63886198D01*
X166133898Y-64037390D01*
X166133896Y-64037393D01*
X166008208Y-64210387D01*
X166007534Y-64211488D01*
X166007168Y-64211818D01*
X166005296Y-64214396D01*
X166004754Y-64214002D01*
X165954887Y-64259121D01*
X165884845Y-64270728D01*
X165819647Y-64242626D01*
X165795076Y-64214270D01*
X165794904Y-64214396D01*
X165793441Y-64212382D01*
X165792666Y-64211488D01*
X165791996Y-64210396D01*
X165791994Y-64210391D01*
X165666306Y-64037396D01*
X165666303Y-64037393D01*
X165666301Y-64037390D01*
X165515109Y-63886198D01*
X165515106Y-63886196D01*
X165515104Y-63886194D01*
X165342109Y-63760506D01*
X165151583Y-63663428D01*
X165151580Y-63663427D01*
X165151578Y-63663426D01*
X164948220Y-63597352D01*
X164948223Y-63597352D01*
X164908901Y-63591124D01*
X164737016Y-63563900D01*
X164523184Y-63563900D01*
X164311984Y-63597351D01*
X164311978Y-63597352D01*
X164108621Y-63663426D01*
X164108615Y-63663429D01*
X163918087Y-63760508D01*
X163745093Y-63886196D01*
X163745090Y-63886198D01*
X163593898Y-64037390D01*
X163593896Y-64037393D01*
X163468208Y-64210387D01*
X163371129Y-64400915D01*
X163371126Y-64400921D01*
X163305052Y-64604278D01*
X163305051Y-64604283D01*
X163305051Y-64604284D01*
X163271600Y-64815484D01*
X163271600Y-65029316D01*
X163305051Y-65240516D01*
X163305052Y-65240521D01*
X163371126Y-65443878D01*
X163371128Y-65443883D01*
X163468206Y-65634409D01*
X163593894Y-65807404D01*
X163593896Y-65807406D01*
X163593898Y-65807409D01*
X163745090Y-65958601D01*
X163745093Y-65958603D01*
X163745096Y-65958606D01*
X163918091Y-66084294D01*
X163918096Y-66084296D01*
X163919188Y-66084966D01*
X163919518Y-66085331D01*
X163922096Y-66087204D01*
X163921702Y-66087745D01*
X163966821Y-66137613D01*
X163978428Y-66207655D01*
X163950326Y-66272853D01*
X163921970Y-66297423D01*
X163922096Y-66297596D01*
X163920082Y-66299058D01*
X163919188Y-66299834D01*
X163918087Y-66300508D01*
X163745093Y-66426196D01*
X163745090Y-66426198D01*
X163593898Y-66577390D01*
X163593896Y-66577393D01*
X163468208Y-66750387D01*
X163371129Y-66940915D01*
X163371126Y-66940921D01*
X163305052Y-67144278D01*
X163305051Y-67144283D01*
X163305051Y-67144284D01*
X163271600Y-67355484D01*
X163271600Y-67569316D01*
X163305051Y-67780516D01*
X163305052Y-67780521D01*
X163371126Y-67983878D01*
X163371128Y-67983883D01*
X163468206Y-68174409D01*
X163593894Y-68347404D01*
X163593896Y-68347406D01*
X163593898Y-68347409D01*
X163745090Y-68498601D01*
X163745093Y-68498603D01*
X163745096Y-68498606D01*
X163918091Y-68624294D01*
X163918096Y-68624296D01*
X163919188Y-68624966D01*
X163919518Y-68625331D01*
X163922096Y-68627204D01*
X163921702Y-68627745D01*
X163966821Y-68677613D01*
X163978428Y-68747655D01*
X163950326Y-68812853D01*
X163921970Y-68837423D01*
X163922096Y-68837596D01*
X163920082Y-68839058D01*
X163919188Y-68839834D01*
X163918087Y-68840508D01*
X163745093Y-68966196D01*
X163745090Y-68966198D01*
X163593898Y-69117390D01*
X163593896Y-69117393D01*
X163468208Y-69290387D01*
X163371129Y-69480915D01*
X163371126Y-69480921D01*
X163305052Y-69684278D01*
X163305051Y-69684283D01*
X163305051Y-69684284D01*
X163271600Y-69895484D01*
X163271600Y-70109316D01*
X163305051Y-70320516D01*
X163305052Y-70320519D01*
X163308419Y-70330881D01*
X163310447Y-70401848D01*
X163277681Y-70458913D01*
X159024601Y-74711995D01*
X158962289Y-74746020D01*
X158935506Y-74748900D01*
X156528838Y-74748900D01*
X156460717Y-74728898D01*
X156439743Y-74711995D01*
X156412646Y-74684898D01*
X156412639Y-74684892D01*
X156272700Y-74602132D01*
X156116564Y-74556770D01*
X156080098Y-74553900D01*
X155680112Y-74553900D01*
X155643635Y-74556770D01*
X155487500Y-74602132D01*
X155434238Y-74633631D01*
X155365421Y-74651090D01*
X155305962Y-74633631D01*
X155252699Y-74602132D01*
X155252038Y-74601940D01*
X155200594Y-74586994D01*
X155096564Y-74556770D01*
X155060098Y-74553900D01*
X154660112Y-74553900D01*
X154623635Y-74556770D01*
X154467501Y-74602131D01*
X154460366Y-74606352D01*
X154396225Y-74623900D01*
X153954777Y-74623900D01*
X153924859Y-74615115D01*
X153894390Y-74608487D01*
X153889295Y-74604672D01*
X153886656Y-74603898D01*
X153865685Y-74586998D01*
X153834682Y-74555995D01*
X153800658Y-74493682D01*
X153805724Y-74422867D01*
X153848272Y-74366032D01*
X153914792Y-74341222D01*
X153923779Y-74340901D01*
X154107492Y-74340901D01*
X154107493Y-74340901D01*
X154229884Y-74316556D01*
X154345174Y-74268801D01*
X154448932Y-74199472D01*
X154794545Y-73853857D01*
X154856855Y-73819834D01*
X154922574Y-73823120D01*
X155016859Y-73853756D01*
X155251378Y-73890900D01*
X155251381Y-73890900D01*
X155488819Y-73890900D01*
X155488822Y-73890900D01*
X155723341Y-73853756D01*
X155949163Y-73780382D01*
X156160727Y-73672585D01*
X156352822Y-73533020D01*
X156520720Y-73365122D01*
X156660285Y-73173027D01*
X156768082Y-72961463D01*
X156841456Y-72735641D01*
X156878600Y-72501122D01*
X156878600Y-72263678D01*
X156841456Y-72029159D01*
X156768082Y-71803337D01*
X156660285Y-71591773D01*
X156520720Y-71399678D01*
X156520717Y-71399675D01*
X156520715Y-71399672D01*
X156352827Y-71231784D01*
X156352824Y-71231782D01*
X156352822Y-71231780D01*
X156180539Y-71106609D01*
X156137185Y-71050387D01*
X156128600Y-71004673D01*
X156128600Y-67260126D01*
X156148602Y-67192005D01*
X156180536Y-67158192D01*
X156352822Y-67033020D01*
X156520720Y-66865122D01*
X156660285Y-66673027D01*
X156768082Y-66461463D01*
X156841456Y-66235641D01*
X156878600Y-66001122D01*
X156878600Y-65763678D01*
X156841456Y-65529159D01*
X156768082Y-65303337D01*
X156660285Y-65091773D01*
X156520720Y-64899678D01*
X156520717Y-64899675D01*
X156520715Y-64899672D01*
X156352827Y-64731784D01*
X156352824Y-64731782D01*
X156352822Y-64731780D01*
X156160727Y-64592215D01*
X155949163Y-64484418D01*
X155949160Y-64484417D01*
X155949158Y-64484416D01*
X155723346Y-64411045D01*
X155723342Y-64411044D01*
X155723341Y-64411044D01*
X155488822Y-64373900D01*
X155251378Y-64373900D01*
X155016859Y-64411044D01*
X155016853Y-64411045D01*
X154791041Y-64484416D01*
X154791035Y-64484419D01*
X154579469Y-64592217D01*
X154387375Y-64731782D01*
X154387372Y-64731784D01*
X154219484Y-64899672D01*
X154219482Y-64899675D01*
X154079917Y-65091769D01*
X153972119Y-65303335D01*
X153972116Y-65303341D01*
X153898745Y-65529153D01*
X153898745Y-65529155D01*
X153898744Y-65529159D01*
X153861600Y-65763678D01*
X153861600Y-66001122D01*
X153898744Y-66235641D01*
X153898745Y-66235646D01*
X153972116Y-66461458D01*
X153972118Y-66461463D01*
X154079915Y-66673027D01*
X154079917Y-66673030D01*
X154114422Y-66720521D01*
X154219480Y-66865122D01*
X154219482Y-66865124D01*
X154219484Y-66865127D01*
X154387372Y-67033015D01*
X154387375Y-67033017D01*
X154387378Y-67033020D01*
X154559662Y-67158191D01*
X154603015Y-67214412D01*
X154611600Y-67260126D01*
X154611600Y-71004673D01*
X154591598Y-71072794D01*
X154559661Y-71106609D01*
X154387375Y-71231782D01*
X154387372Y-71231784D01*
X154219484Y-71399672D01*
X154219482Y-71399675D01*
X154079917Y-71591769D01*
X153972119Y-71803335D01*
X153972116Y-71803341D01*
X153898745Y-72029153D01*
X153898744Y-72029158D01*
X153898744Y-72029159D01*
X153861600Y-72263678D01*
X153861600Y-72501122D01*
X153885071Y-72649312D01*
X153898745Y-72735648D01*
X153898746Y-72735649D01*
X153929377Y-72829924D01*
X153929818Y-72845379D01*
X153935223Y-72859869D01*
X153930811Y-72880148D01*
X153931404Y-72900891D01*
X153923185Y-72915204D01*
X153920132Y-72929243D01*
X153898641Y-72957953D01*
X153819601Y-73036995D01*
X153757289Y-73071021D01*
X153730504Y-73073901D01*
X126904972Y-73073901D01*
X126836851Y-73053899D01*
X126790358Y-73000243D01*
X126780254Y-72929969D01*
X126785136Y-72908974D01*
X126841456Y-72735641D01*
X126878600Y-72501122D01*
X126878600Y-72263678D01*
X126841456Y-72029159D01*
X126768082Y-71803337D01*
X126660285Y-71591773D01*
X126520720Y-71399678D01*
X126520717Y-71399675D01*
X126520715Y-71399672D01*
X126352827Y-71231784D01*
X126352824Y-71231782D01*
X126352822Y-71231780D01*
X126180539Y-71106609D01*
X126137185Y-71050387D01*
X126128600Y-71004673D01*
X126128600Y-67260126D01*
X126148602Y-67192005D01*
X126180536Y-67158192D01*
X126352822Y-67033020D01*
X126520720Y-66865122D01*
X126660285Y-66673027D01*
X126768082Y-66461463D01*
X126841456Y-66235641D01*
X126878600Y-66001122D01*
X126878600Y-65763678D01*
X126841456Y-65529159D01*
X126768082Y-65303337D01*
X126660285Y-65091773D01*
X126520720Y-64899678D01*
X126520717Y-64899675D01*
X126520715Y-64899672D01*
X126352827Y-64731784D01*
X126352824Y-64731782D01*
X126352822Y-64731780D01*
X126160727Y-64592215D01*
X125949163Y-64484418D01*
X125949160Y-64484417D01*
X125949158Y-64484416D01*
X125723346Y-64411045D01*
X125723342Y-64411044D01*
X125723341Y-64411044D01*
X125666036Y-64401967D01*
X125601886Y-64371557D01*
X125564359Y-64311289D01*
X125565373Y-64240299D01*
X125596653Y-64188427D01*
X131142141Y-58642938D01*
X131204451Y-58608914D01*
X131250941Y-58607586D01*
X131461278Y-58640900D01*
X131461281Y-58640900D01*
X131698719Y-58640900D01*
X131698722Y-58640900D01*
X131933241Y-58603756D01*
X132159063Y-58530382D01*
X132370627Y-58422585D01*
X132562722Y-58283020D01*
X132730620Y-58115122D01*
X132870185Y-57923027D01*
X132977982Y-57711463D01*
X133051356Y-57485641D01*
X133088500Y-57251122D01*
X133088500Y-57013678D01*
X133051356Y-56779159D01*
X132977982Y-56553337D01*
X132870185Y-56341773D01*
X132730620Y-56149678D01*
X132730617Y-56149675D01*
X132730615Y-56149672D01*
X132562727Y-55981784D01*
X132562724Y-55981782D01*
X132562722Y-55981780D01*
X132370627Y-55842215D01*
X132159063Y-55734418D01*
X132159060Y-55734417D01*
X132159058Y-55734416D01*
X131933246Y-55661045D01*
X131933242Y-55661044D01*
X131933241Y-55661044D01*
X131698722Y-55623900D01*
X131461278Y-55623900D01*
X131226759Y-55661044D01*
X131226753Y-55661045D01*
X131000941Y-55734416D01*
X131000935Y-55734419D01*
X130789369Y-55842217D01*
X130597275Y-55981782D01*
X130597272Y-55981784D01*
X130429384Y-56149672D01*
X130429382Y-56149675D01*
X130289817Y-56341769D01*
X130182019Y-56553335D01*
X130182016Y-56553341D01*
X130108645Y-56779153D01*
X130108644Y-56779158D01*
X130108644Y-56779159D01*
X130071500Y-57013678D01*
X130071500Y-57251122D01*
X130094968Y-57399292D01*
X130104813Y-57461453D01*
X130095713Y-57531864D01*
X130069459Y-57570258D01*
X124002725Y-63636994D01*
X123940413Y-63671020D01*
X123913630Y-63673899D01*
X121865391Y-63673899D01*
X121718854Y-63703048D01*
X121718851Y-63703049D01*
X121580817Y-63760225D01*
X121456584Y-63843234D01*
X121456578Y-63843239D01*
X120472956Y-64826861D01*
X120410644Y-64860887D01*
X120339828Y-64855822D01*
X120282993Y-64813275D01*
X120259412Y-64757479D01*
X120235149Y-64604284D01*
X120169072Y-64400917D01*
X120071994Y-64210391D01*
X119946306Y-64037396D01*
X119946303Y-64037393D01*
X119946301Y-64037390D01*
X119795109Y-63886198D01*
X119795106Y-63886196D01*
X119795104Y-63886194D01*
X119622109Y-63760506D01*
X119431583Y-63663428D01*
X119431580Y-63663427D01*
X119431578Y-63663426D01*
X119228220Y-63597352D01*
X119228223Y-63597352D01*
X119188901Y-63591124D01*
X119017016Y-63563900D01*
X118803184Y-63563900D01*
X118591984Y-63597351D01*
X118591978Y-63597352D01*
X118388621Y-63663426D01*
X118388615Y-63663429D01*
X118198087Y-63760508D01*
X118025093Y-63886196D01*
X118025090Y-63886198D01*
X117873898Y-64037390D01*
X117873896Y-64037393D01*
X117819720Y-64111961D01*
X117815316Y-64115356D01*
X117813008Y-64120412D01*
X117787510Y-64136798D01*
X117763498Y-64155315D01*
X117756716Y-64156588D01*
X117753282Y-64158796D01*
X117717784Y-64163900D01*
X117562416Y-64163900D01*
X117494295Y-64143898D01*
X117460480Y-64111961D01*
X117406306Y-64037396D01*
X117406303Y-64037393D01*
X117406301Y-64037390D01*
X117255109Y-63886198D01*
X117255106Y-63886196D01*
X117255104Y-63886194D01*
X117082109Y-63760506D01*
X116891583Y-63663428D01*
X116891580Y-63663427D01*
X116891578Y-63663426D01*
X116688220Y-63597352D01*
X116688223Y-63597352D01*
X116648901Y-63591124D01*
X116477016Y-63563900D01*
X116263184Y-63563900D01*
X116051984Y-63597351D01*
X116051978Y-63597352D01*
X115848621Y-63663426D01*
X115848615Y-63663429D01*
X115658087Y-63760508D01*
X115485093Y-63886196D01*
X115485090Y-63886198D01*
X115333898Y-64037390D01*
X115333896Y-64037393D01*
X115208208Y-64210387D01*
X115111129Y-64400915D01*
X115111126Y-64400921D01*
X115045052Y-64604278D01*
X115045051Y-64604283D01*
X115045051Y-64604284D01*
X115011600Y-64815484D01*
X115011600Y-65029316D01*
X115045051Y-65240516D01*
X115045052Y-65240521D01*
X115111126Y-65443878D01*
X115111128Y-65443883D01*
X115208206Y-65634409D01*
X115333894Y-65807404D01*
X115333896Y-65807406D01*
X115333898Y-65807409D01*
X115485090Y-65958601D01*
X115485093Y-65958603D01*
X115485096Y-65958606D01*
X115658091Y-66084294D01*
X115658096Y-66084296D01*
X115659188Y-66084966D01*
X115659518Y-66085331D01*
X115662096Y-66087204D01*
X115661702Y-66087745D01*
X115706821Y-66137613D01*
X115718428Y-66207655D01*
X115690326Y-66272853D01*
X115661970Y-66297423D01*
X115662096Y-66297596D01*
X115660082Y-66299058D01*
X115659188Y-66299834D01*
X115658087Y-66300508D01*
X115485093Y-66426196D01*
X115485090Y-66426198D01*
X115333898Y-66577390D01*
X115333896Y-66577393D01*
X115208208Y-66750387D01*
X115111129Y-66940915D01*
X115111126Y-66940921D01*
X115045052Y-67144278D01*
X115045051Y-67144283D01*
X115045051Y-67144284D01*
X115011600Y-67355484D01*
X115011600Y-67569316D01*
X115045051Y-67780516D01*
X115045052Y-67780521D01*
X115111126Y-67983878D01*
X115111128Y-67983883D01*
X115208206Y-68174409D01*
X115333894Y-68347404D01*
X115333896Y-68347406D01*
X115333898Y-68347409D01*
X115485090Y-68498601D01*
X115485093Y-68498603D01*
X115485096Y-68498606D01*
X115658091Y-68624294D01*
X115658096Y-68624296D01*
X115659188Y-68624966D01*
X115659518Y-68625331D01*
X115662096Y-68627204D01*
X115661702Y-68627745D01*
X115706821Y-68677613D01*
X115718428Y-68747655D01*
X115690326Y-68812853D01*
X115661970Y-68837423D01*
X115662096Y-68837596D01*
X115660082Y-68839058D01*
X115659188Y-68839834D01*
X115658087Y-68840508D01*
X115485093Y-68966196D01*
X115485090Y-68966198D01*
X115333898Y-69117390D01*
X115333896Y-69117393D01*
X115208208Y-69290387D01*
X115111129Y-69480915D01*
X115111126Y-69480921D01*
X115045052Y-69684278D01*
X115045051Y-69684283D01*
X115045051Y-69684284D01*
X115011600Y-69895484D01*
X115011600Y-70109316D01*
X115045051Y-70320516D01*
X115045052Y-70320521D01*
X115090018Y-70458913D01*
X115111128Y-70523883D01*
X115188740Y-70676204D01*
X115208208Y-70714412D01*
X115230173Y-70744644D01*
X115333894Y-70887404D01*
X115333896Y-70887406D01*
X115333898Y-70887409D01*
X115485090Y-71038601D01*
X115485093Y-71038603D01*
X115485096Y-71038606D01*
X115658091Y-71164294D01*
X115658096Y-71164296D01*
X115659188Y-71164966D01*
X115659518Y-71165331D01*
X115662096Y-71167204D01*
X115661702Y-71167745D01*
X115706821Y-71217613D01*
X115718428Y-71287655D01*
X115690326Y-71352853D01*
X115661970Y-71377423D01*
X115662096Y-71377596D01*
X115660082Y-71379058D01*
X115659188Y-71379834D01*
X115658087Y-71380508D01*
X115485093Y-71506196D01*
X115485090Y-71506198D01*
X115333898Y-71657390D01*
X115333896Y-71657393D01*
X115208208Y-71830387D01*
X115111129Y-72020915D01*
X115111126Y-72020921D01*
X115045052Y-72224278D01*
X115045051Y-72224283D01*
X115045051Y-72224284D01*
X115011600Y-72435484D01*
X115011600Y-72649316D01*
X115025274Y-72735648D01*
X115045052Y-72860521D01*
X115109375Y-73058489D01*
X115111128Y-73063883D01*
X115208206Y-73254409D01*
X115333894Y-73427404D01*
X115333896Y-73427406D01*
X115333898Y-73427409D01*
X115485090Y-73578601D01*
X115485093Y-73578603D01*
X115485096Y-73578606D01*
X115658091Y-73704294D01*
X115658096Y-73704296D01*
X115659188Y-73704966D01*
X115659518Y-73705331D01*
X115662096Y-73707204D01*
X115661702Y-73707745D01*
X115706821Y-73757613D01*
X115718428Y-73827655D01*
X115690326Y-73892853D01*
X115661970Y-73917423D01*
X115662096Y-73917596D01*
X115660082Y-73919058D01*
X115659188Y-73919834D01*
X115658087Y-73920508D01*
X115485093Y-74046196D01*
X115485090Y-74046198D01*
X115333898Y-74197390D01*
X115333896Y-74197393D01*
X115208208Y-74370387D01*
X115111129Y-74560915D01*
X115111126Y-74560921D01*
X115045052Y-74764278D01*
X115045051Y-74764283D01*
X115045051Y-74764284D01*
X115011600Y-74975484D01*
X115011600Y-75189316D01*
X115032171Y-75319194D01*
X115045052Y-75400521D01*
X115083432Y-75518643D01*
X115111128Y-75603883D01*
X115208206Y-75794409D01*
X115333894Y-75967404D01*
X115333896Y-75967406D01*
X115333898Y-75967409D01*
X115485090Y-76118601D01*
X115485093Y-76118603D01*
X115485096Y-76118606D01*
X115658091Y-76244294D01*
X115658096Y-76244296D01*
X115659188Y-76244966D01*
X115659518Y-76245331D01*
X115662096Y-76247204D01*
X115661702Y-76247745D01*
X115706821Y-76297613D01*
X115718428Y-76367655D01*
X115690326Y-76432853D01*
X115661970Y-76457423D01*
X115662096Y-76457596D01*
X115660082Y-76459058D01*
X115659188Y-76459834D01*
X115658087Y-76460508D01*
X115485093Y-76586196D01*
X115485090Y-76586198D01*
X115333898Y-76737390D01*
X115333896Y-76737393D01*
X115208208Y-76910387D01*
X115111129Y-77100915D01*
X115111126Y-77100921D01*
X115045052Y-77304278D01*
X115045051Y-77304283D01*
X115045051Y-77304284D01*
X115011600Y-77515484D01*
X115011600Y-77729316D01*
X115043550Y-77931038D01*
X115045052Y-77940521D01*
X115111126Y-78143878D01*
X115111128Y-78143883D01*
X115208206Y-78334409D01*
X115333894Y-78507404D01*
X115333896Y-78507406D01*
X115333898Y-78507409D01*
X115485090Y-78658601D01*
X115485093Y-78658603D01*
X115485096Y-78658606D01*
X115658091Y-78784294D01*
X115658096Y-78784296D01*
X115659188Y-78784966D01*
X115659518Y-78785331D01*
X115662096Y-78787204D01*
X115661702Y-78787745D01*
X115706821Y-78837613D01*
X115718428Y-78907655D01*
X115690326Y-78972853D01*
X115661970Y-78997423D01*
X115662096Y-78997596D01*
X115660082Y-78999058D01*
X115659188Y-78999834D01*
X115658087Y-79000508D01*
X115485093Y-79126196D01*
X115485090Y-79126198D01*
X115333898Y-79277390D01*
X115333896Y-79277393D01*
X115208208Y-79450387D01*
X115111129Y-79640915D01*
X115111126Y-79640921D01*
X115045052Y-79844278D01*
X115045051Y-79844283D01*
X115045051Y-79844284D01*
X115011600Y-80055484D01*
X115011600Y-80269316D01*
X115039991Y-80448569D01*
X115045052Y-80480521D01*
X115109485Y-80678827D01*
X115111128Y-80683883D01*
X115208206Y-80874409D01*
X115333894Y-81047404D01*
X115333896Y-81047406D01*
X115333898Y-81047409D01*
X115485090Y-81198601D01*
X115485093Y-81198603D01*
X115485096Y-81198606D01*
X115658091Y-81324294D01*
X115658096Y-81324296D01*
X115659188Y-81324966D01*
X115659518Y-81325331D01*
X115662096Y-81327204D01*
X115661702Y-81327745D01*
X115706821Y-81377613D01*
X115718428Y-81447655D01*
X115690326Y-81512853D01*
X115661970Y-81537423D01*
X115662096Y-81537596D01*
X115660082Y-81539058D01*
X115659188Y-81539834D01*
X115658087Y-81540508D01*
X115485093Y-81666196D01*
X115485090Y-81666198D01*
X115333898Y-81817390D01*
X115333896Y-81817393D01*
X115208208Y-81990387D01*
X115111129Y-82180915D01*
X115111126Y-82180921D01*
X115045052Y-82384278D01*
X115045051Y-82384283D01*
X115045051Y-82384284D01*
X115011600Y-82595484D01*
X115011600Y-82809316D01*
X115025613Y-82897789D01*
X115045052Y-83020522D01*
X115048420Y-83030888D01*
X115050444Y-83101856D01*
X115017681Y-83158913D01*
X114824465Y-83352131D01*
X114777666Y-83398930D01*
X114689428Y-83487168D01*
X114689426Y-83487170D01*
X114685052Y-83491545D01*
X114683955Y-83490448D01*
X114631572Y-83526118D01*
X114560600Y-83528007D01*
X114499874Y-83491225D01*
X114468674Y-83427452D01*
X114466870Y-83406209D01*
X114466870Y-56093555D01*
X115467000Y-56093555D01*
X115467000Y-56093558D01*
X115467000Y-56251242D01*
X115497763Y-56405897D01*
X115558106Y-56551579D01*
X115645711Y-56682689D01*
X115757211Y-56794189D01*
X115888321Y-56881794D01*
X116034003Y-56942137D01*
X116188658Y-56972900D01*
X116188659Y-56972900D01*
X116346341Y-56972900D01*
X116346342Y-56972900D01*
X116500997Y-56942137D01*
X116646679Y-56881794D01*
X116777789Y-56794189D01*
X116889289Y-56682689D01*
X116976894Y-56551579D01*
X116995535Y-56506574D01*
X117040082Y-56451294D01*
X117107446Y-56428872D01*
X117176237Y-56446430D01*
X117224616Y-56498391D01*
X117236391Y-56535078D01*
X117238606Y-56549058D01*
X117238607Y-56549062D01*
X117285875Y-56694539D01*
X117316844Y-56789850D01*
X117431787Y-57015438D01*
X117580605Y-57220268D01*
X117580607Y-57220270D01*
X117580609Y-57220273D01*
X117759626Y-57399290D01*
X117759629Y-57399292D01*
X117759632Y-57399295D01*
X117964462Y-57548113D01*
X118190050Y-57663056D01*
X118430842Y-57741294D01*
X118680908Y-57780900D01*
X118680911Y-57780900D01*
X118934089Y-57780900D01*
X118934092Y-57780900D01*
X119184158Y-57741294D01*
X119424950Y-57663056D01*
X119650538Y-57548113D01*
X119855368Y-57399295D01*
X120034395Y-57220268D01*
X120183213Y-57015438D01*
X120184110Y-57013678D01*
X124991500Y-57013678D01*
X124991500Y-57251122D01*
X125024813Y-57461453D01*
X125028645Y-57485646D01*
X125086290Y-57663057D01*
X125102018Y-57711463D01*
X125209815Y-57923027D01*
X125349380Y-58115122D01*
X125349382Y-58115124D01*
X125349384Y-58115127D01*
X125517272Y-58283015D01*
X125517275Y-58283017D01*
X125517278Y-58283020D01*
X125709373Y-58422585D01*
X125920937Y-58530382D01*
X126146759Y-58603756D01*
X126381278Y-58640900D01*
X126381281Y-58640900D01*
X126618719Y-58640900D01*
X126618722Y-58640900D01*
X126853241Y-58603756D01*
X127079063Y-58530382D01*
X127290627Y-58422585D01*
X127482722Y-58283020D01*
X127650620Y-58115122D01*
X127790185Y-57923027D01*
X127897982Y-57711463D01*
X127971356Y-57485641D01*
X128008500Y-57251122D01*
X128008500Y-57013678D01*
X127975186Y-56803342D01*
X127984286Y-56732934D01*
X128010537Y-56694542D01*
X132209266Y-52495815D01*
X132292274Y-52371584D01*
X132349451Y-52233547D01*
X132378600Y-52087005D01*
X132378600Y-51937595D01*
X132378600Y-48866900D01*
X132398602Y-48798779D01*
X132452258Y-48752286D01*
X132504600Y-48740900D01*
X132520654Y-48740900D01*
X132580006Y-48734835D01*
X132624527Y-48730287D01*
X132792839Y-48674515D01*
X132943752Y-48581430D01*
X133069130Y-48456052D01*
X133162215Y-48305139D01*
X133217987Y-48136827D01*
X133223495Y-48082911D01*
X133228600Y-48032954D01*
X133228600Y-46231845D01*
X133221777Y-46165073D01*
X133217987Y-46127973D01*
X133162215Y-45959661D01*
X133069130Y-45808748D01*
X133069129Y-45808747D01*
X133069124Y-45808741D01*
X132943758Y-45683375D01*
X132943752Y-45683370D01*
X132792839Y-45590285D01*
X132708683Y-45562399D01*
X132624528Y-45534513D01*
X132624521Y-45534512D01*
X132520654Y-45523900D01*
X132520646Y-45523900D01*
X130719554Y-45523900D01*
X130719546Y-45523900D01*
X130615678Y-45534512D01*
X130615671Y-45534513D01*
X130447361Y-45590285D01*
X130296447Y-45683370D01*
X130296441Y-45683375D01*
X130171075Y-45808741D01*
X130171070Y-45808747D01*
X130077985Y-45959661D01*
X130022213Y-46127971D01*
X130022212Y-46127978D01*
X130011600Y-46231845D01*
X130011600Y-48032954D01*
X130011599Y-48032954D01*
X130022212Y-48136821D01*
X130022213Y-48136828D01*
X130036608Y-48180270D01*
X130077985Y-48305139D01*
X130111389Y-48359295D01*
X130171070Y-48456052D01*
X130171075Y-48456058D01*
X130296441Y-48581424D01*
X130296447Y-48581429D01*
X130296448Y-48581430D01*
X130447361Y-48674515D01*
X130615673Y-48730287D01*
X130655627Y-48734368D01*
X130719546Y-48740900D01*
X130719554Y-48740900D01*
X130735600Y-48740900D01*
X130803721Y-48760902D01*
X130850214Y-48814558D01*
X130861600Y-48866900D01*
X130861600Y-51645928D01*
X130841598Y-51714049D01*
X130824695Y-51735023D01*
X126937858Y-55621859D01*
X126875546Y-55655885D01*
X126829053Y-55657213D01*
X126618722Y-55623900D01*
X126381278Y-55623900D01*
X126146759Y-55661044D01*
X126146753Y-55661045D01*
X125920941Y-55734416D01*
X125920935Y-55734419D01*
X125709369Y-55842217D01*
X125517275Y-55981782D01*
X125517272Y-55981784D01*
X125349384Y-56149672D01*
X125349382Y-56149675D01*
X125209817Y-56341769D01*
X125102019Y-56553335D01*
X125102016Y-56553341D01*
X125028645Y-56779153D01*
X125028644Y-56779158D01*
X125028644Y-56779159D01*
X124991500Y-57013678D01*
X120184110Y-57013678D01*
X120247734Y-56888807D01*
X120289996Y-56841247D01*
X120409249Y-56761566D01*
X122049265Y-55121550D01*
X122132273Y-54997319D01*
X122132274Y-54997318D01*
X122189451Y-54859280D01*
X122218600Y-54712740D01*
X122218600Y-48628400D01*
X122238602Y-48560279D01*
X122287396Y-48516133D01*
X122303138Y-48508113D01*
X122507968Y-48359295D01*
X122686995Y-48180268D01*
X122835813Y-47975438D01*
X122950756Y-47749850D01*
X123028994Y-47509058D01*
X123068600Y-47258992D01*
X123068600Y-47005808D01*
X123028994Y-46755742D01*
X122950756Y-46514950D01*
X122835813Y-46289362D01*
X122686995Y-46084532D01*
X122686992Y-46084529D01*
X122686990Y-46084526D01*
X122507973Y-45905509D01*
X122507970Y-45905507D01*
X122507968Y-45905505D01*
X122303138Y-45756687D01*
X122077550Y-45641744D01*
X122077547Y-45641743D01*
X122077545Y-45641742D01*
X121836763Y-45563507D01*
X121836759Y-45563506D01*
X121836758Y-45563506D01*
X121586692Y-45523900D01*
X121333508Y-45523900D01*
X121083442Y-45563506D01*
X121083436Y-45563507D01*
X120842654Y-45641742D01*
X120842648Y-45641745D01*
X120617058Y-45756689D01*
X120412229Y-45905507D01*
X120412226Y-45905509D01*
X120233209Y-46084526D01*
X120233207Y-46084529D01*
X120084389Y-46289358D01*
X119969445Y-46514948D01*
X119969442Y-46514954D01*
X119891207Y-46755736D01*
X119891206Y-46755741D01*
X119891206Y-46755742D01*
X119851600Y-47005808D01*
X119851600Y-47258992D01*
X119874296Y-47402291D01*
X119891207Y-47509063D01*
X119969442Y-47749845D01*
X119969444Y-47749850D01*
X120084387Y-47975438D01*
X120233205Y-48180268D01*
X120233207Y-48180270D01*
X120233209Y-48180273D01*
X120412226Y-48359290D01*
X120412229Y-48359292D01*
X120412232Y-48359295D01*
X120617062Y-48508113D01*
X120632803Y-48516133D01*
X120684418Y-48564881D01*
X120701600Y-48628400D01*
X120701600Y-54271663D01*
X120681598Y-54339784D01*
X120664699Y-54360753D01*
X120343711Y-54681742D01*
X120056753Y-54968700D01*
X119994441Y-55002725D01*
X119923625Y-54997660D01*
X119878563Y-54968699D01*
X119855373Y-54945509D01*
X119855370Y-54945507D01*
X119855368Y-54945505D01*
X119650538Y-54796687D01*
X119424950Y-54681744D01*
X119424947Y-54681743D01*
X119424945Y-54681742D01*
X119184163Y-54603507D01*
X119184159Y-54603506D01*
X119184158Y-54603506D01*
X118934092Y-54563900D01*
X118680908Y-54563900D01*
X118430842Y-54603506D01*
X118430836Y-54603507D01*
X118190054Y-54681742D01*
X118190048Y-54681745D01*
X117964458Y-54796689D01*
X117759629Y-54945507D01*
X117759626Y-54945509D01*
X117580609Y-55124526D01*
X117580607Y-55124529D01*
X117431789Y-55329358D01*
X117316845Y-55554948D01*
X117316842Y-55554954D01*
X117238607Y-55795736D01*
X117238606Y-55795741D01*
X117238606Y-55795742D01*
X117236392Y-55809719D01*
X117205980Y-55873871D01*
X117145712Y-55911398D01*
X117074723Y-55910384D01*
X117015551Y-55871151D01*
X116995535Y-55838225D01*
X116977938Y-55795742D01*
X116976894Y-55793221D01*
X116889289Y-55662111D01*
X116777789Y-55550611D01*
X116646679Y-55463006D01*
X116500997Y-55402663D01*
X116346344Y-55371900D01*
X116346342Y-55371900D01*
X116188658Y-55371900D01*
X116188655Y-55371900D01*
X116034002Y-55402663D01*
X116033997Y-55402665D01*
X115888320Y-55463006D01*
X115757215Y-55550608D01*
X115757208Y-55550613D01*
X115645713Y-55662108D01*
X115645708Y-55662115D01*
X115558106Y-55793220D01*
X115497765Y-55938897D01*
X115497763Y-55938902D01*
X115467000Y-56093555D01*
X114466870Y-56093555D01*
X114466870Y-53553555D01*
X115467000Y-53553555D01*
X115467000Y-53553558D01*
X115467000Y-53711242D01*
X115497763Y-53865897D01*
X115558106Y-54011579D01*
X115645711Y-54142689D01*
X115757211Y-54254189D01*
X115888321Y-54341794D01*
X116034003Y-54402137D01*
X116188658Y-54432900D01*
X116188659Y-54432900D01*
X116346341Y-54432900D01*
X116346342Y-54432900D01*
X116500997Y-54402137D01*
X116646679Y-54341794D01*
X116777789Y-54254189D01*
X116889289Y-54142689D01*
X116976894Y-54011579D01*
X117037237Y-53865897D01*
X117068000Y-53711242D01*
X117068000Y-53553558D01*
X117037237Y-53398903D01*
X116976894Y-53253221D01*
X116889289Y-53122111D01*
X116777789Y-53010611D01*
X116646679Y-52923006D01*
X116500997Y-52862663D01*
X116346344Y-52831900D01*
X116346342Y-52831900D01*
X116188658Y-52831900D01*
X116188655Y-52831900D01*
X116034002Y-52862663D01*
X116033997Y-52862665D01*
X115888320Y-52923006D01*
X115757215Y-53010608D01*
X115757208Y-53010613D01*
X115645713Y-53122108D01*
X115645708Y-53122115D01*
X115558106Y-53253220D01*
X115497765Y-53398897D01*
X115497763Y-53398902D01*
X115467000Y-53553555D01*
X114466870Y-53553555D01*
X114466870Y-49049759D01*
X114466958Y-49045048D01*
X114483951Y-48590901D01*
X114484243Y-48585864D01*
X114486564Y-48556374D01*
X114486960Y-48552229D01*
X114536209Y-48115134D01*
X114536965Y-48109556D01*
X114540596Y-48086628D01*
X114541230Y-48082975D01*
X114624405Y-47643388D01*
X114625665Y-47637512D01*
X114628428Y-47626003D01*
X114629193Y-47622991D01*
X114747691Y-47180749D01*
X114750456Y-47171790D01*
X114904144Y-46732573D01*
X114907582Y-46723814D01*
X115093668Y-46297301D01*
X115097736Y-46288854D01*
X115315175Y-45877441D01*
X115319871Y-45869307D01*
X115567446Y-45475293D01*
X115572740Y-45467529D01*
X115849062Y-45093125D01*
X115854920Y-45085779D01*
X116158456Y-44733064D01*
X116164840Y-44726184D01*
X116493884Y-44397140D01*
X116500764Y-44390756D01*
X116853479Y-44087220D01*
X116860825Y-44081362D01*
X117235229Y-43805040D01*
X117242993Y-43799746D01*
X117637007Y-43552171D01*
X117645141Y-43547475D01*
X118056554Y-43330036D01*
X118065001Y-43325968D01*
X118491525Y-43139877D01*
X118500273Y-43136444D01*
X118939490Y-42982756D01*
X118948449Y-42979991D01*
X119390691Y-42861493D01*
X119393703Y-42860728D01*
X119405212Y-42857965D01*
X119411088Y-42856705D01*
X119850675Y-42773530D01*
X119854296Y-42772901D01*
X119877258Y-42769264D01*
X119882834Y-42768509D01*
X120319929Y-42719260D01*
X120324074Y-42718864D01*
X120353564Y-42716543D01*
X120358601Y-42716251D01*
X120812748Y-42699257D01*
X120817459Y-42699170D01*
X135292330Y-42699170D01*
X135360451Y-42719172D01*
G37*
G04 #@! TD.AperFunction*
G04 #@! TA.AperFunction,Conductor*
G36*
X126470895Y-120145902D02*
G01*
X126503640Y-120176389D01*
X126506837Y-120180660D01*
X126623892Y-120268287D01*
X126623894Y-120268288D01*
X126623896Y-120268289D01*
X126678598Y-120288692D01*
X126760895Y-120319388D01*
X126760903Y-120319390D01*
X126821450Y-120325899D01*
X126821455Y-120325899D01*
X126821462Y-120325900D01*
X126821468Y-120325900D01*
X128418732Y-120325900D01*
X128418738Y-120325900D01*
X128420539Y-120325706D01*
X128422127Y-120325536D01*
X128491996Y-120338138D01*
X128543960Y-120386514D01*
X128561601Y-120450813D01*
X128561601Y-120747910D01*
X128541599Y-120816031D01*
X128487943Y-120862524D01*
X128435601Y-120873910D01*
X125759600Y-120873910D01*
X125691479Y-120853908D01*
X125644986Y-120800252D01*
X125633600Y-120747910D01*
X125633600Y-120251900D01*
X125653602Y-120183779D01*
X125707258Y-120137286D01*
X125759600Y-120125900D01*
X126402774Y-120125900D01*
X126470895Y-120145902D01*
G37*
G04 #@! TD.AperFunction*
G04 #@! TA.AperFunction,Conductor*
G36*
X147271851Y-102360903D02*
G01*
X147292825Y-102377806D01*
X148661585Y-103746566D01*
X148785816Y-103829574D01*
X148923853Y-103886751D01*
X148948236Y-103891601D01*
X149070394Y-103915900D01*
X149070395Y-103915900D01*
X149219805Y-103915900D01*
X151030600Y-103915900D01*
X151098721Y-103935902D01*
X151145214Y-103989558D01*
X151156600Y-104041900D01*
X151156600Y-104048911D01*
X151159537Y-104086228D01*
X151159537Y-104086229D01*
X151205956Y-104246005D01*
X151290644Y-104389203D01*
X151290649Y-104389210D01*
X151408289Y-104506850D01*
X151408296Y-104506855D01*
X151551494Y-104591543D01*
X151551497Y-104591543D01*
X151551499Y-104591545D01*
X151711269Y-104637962D01*
X151748588Y-104640899D01*
X151748589Y-104640900D01*
X151748598Y-104640900D01*
X152181611Y-104640900D01*
X152181611Y-104640899D01*
X152218931Y-104637962D01*
X152378701Y-104591545D01*
X152378703Y-104591543D01*
X152378705Y-104591543D01*
X152470865Y-104537039D01*
X152521907Y-104506853D01*
X152521914Y-104506845D01*
X152522867Y-104506108D01*
X152523762Y-104505756D01*
X152528731Y-104502818D01*
X152529204Y-104503619D01*
X152588950Y-104480156D01*
X152658574Y-104494052D01*
X152677333Y-104506108D01*
X152678289Y-104506849D01*
X152678293Y-104506853D01*
X152678297Y-104506855D01*
X152678298Y-104506856D01*
X152821494Y-104591543D01*
X152821497Y-104591543D01*
X152821499Y-104591545D01*
X152981269Y-104637962D01*
X153018588Y-104640899D01*
X153018589Y-104640900D01*
X153018598Y-104640900D01*
X153451611Y-104640900D01*
X153451611Y-104640899D01*
X153488931Y-104637962D01*
X153648701Y-104591545D01*
X153648703Y-104591543D01*
X153648705Y-104591543D01*
X153740865Y-104537039D01*
X153791907Y-104506853D01*
X153791914Y-104506845D01*
X153792867Y-104506108D01*
X153793762Y-104505756D01*
X153798731Y-104502818D01*
X153799204Y-104503619D01*
X153858950Y-104480156D01*
X153928574Y-104494052D01*
X153947333Y-104506108D01*
X153948289Y-104506849D01*
X153948293Y-104506853D01*
X153948297Y-104506855D01*
X153948298Y-104506856D01*
X154091494Y-104591543D01*
X154091497Y-104591543D01*
X154091499Y-104591545D01*
X154251269Y-104637962D01*
X154288588Y-104640899D01*
X154288589Y-104640900D01*
X154288598Y-104640900D01*
X154721611Y-104640900D01*
X154721611Y-104640899D01*
X154758931Y-104637962D01*
X154918701Y-104591545D01*
X154918703Y-104591543D01*
X154918705Y-104591543D01*
X155010865Y-104537039D01*
X155061907Y-104506853D01*
X155061914Y-104506845D01*
X155062867Y-104506108D01*
X155063762Y-104505756D01*
X155068731Y-104502818D01*
X155069204Y-104503619D01*
X155085855Y-104497079D01*
X155106880Y-104484120D01*
X155118309Y-104484334D01*
X155128950Y-104480156D01*
X155153169Y-104484989D01*
X155177864Y-104485454D01*
X155191655Y-104492671D01*
X155198574Y-104494052D01*
X155210200Y-104500963D01*
X155216866Y-104505426D01*
X155218293Y-104506853D01*
X155224325Y-104510420D01*
X155227255Y-104512382D01*
X155247823Y-104537039D01*
X155269745Y-104560516D01*
X155270397Y-104564102D01*
X155272732Y-104566901D01*
X155276704Y-104598768D01*
X155282453Y-104630366D01*
X155281063Y-104633735D01*
X155281514Y-104637353D01*
X155267627Y-104666307D01*
X155255380Y-104695998D01*
X155251097Y-104700772D01*
X155250812Y-104701368D01*
X155250256Y-104701710D01*
X155246252Y-104706175D01*
X155185936Y-104766492D01*
X155185935Y-104766493D01*
X155102926Y-104890726D01*
X155045751Y-105028757D01*
X155045749Y-105028762D01*
X155035679Y-105079389D01*
X155016600Y-105175300D01*
X155016600Y-105797890D01*
X154996598Y-105866011D01*
X154942942Y-105912504D01*
X154890600Y-105923890D01*
X151491854Y-105923890D01*
X151418590Y-105938463D01*
X151418590Y-105938464D01*
X151345319Y-105953039D01*
X151345317Y-105953039D01*
X151345316Y-105953040D01*
X151264455Y-105986534D01*
X151218376Y-106005621D01*
X151207280Y-106010217D01*
X151083052Y-106093223D01*
X151083046Y-106093228D01*
X146593695Y-110582580D01*
X146531383Y-110616606D01*
X146460568Y-110611541D01*
X146403732Y-110568994D01*
X146378921Y-110502474D01*
X146378600Y-110493485D01*
X146378600Y-109978767D01*
X146378599Y-109978750D01*
X146372090Y-109918203D01*
X146372089Y-109918201D01*
X146372089Y-109918199D01*
X146360240Y-109886433D01*
X146355174Y-109815621D01*
X146360237Y-109798374D01*
X146372089Y-109766601D01*
X146373080Y-109757390D01*
X146378599Y-109706049D01*
X146378600Y-109706032D01*
X146378600Y-108708767D01*
X146378599Y-108708750D01*
X146372090Y-108648203D01*
X146372089Y-108648201D01*
X146372089Y-108648199D01*
X146360240Y-108616433D01*
X146355174Y-108545621D01*
X146360237Y-108528374D01*
X146372089Y-108496601D01*
X146378600Y-108436038D01*
X146378600Y-107438762D01*
X146378599Y-107438750D01*
X146372090Y-107378203D01*
X146372089Y-107378201D01*
X146372089Y-107378199D01*
X146360240Y-107346433D01*
X146355174Y-107275621D01*
X146360237Y-107258374D01*
X146372089Y-107226601D01*
X146373080Y-107217390D01*
X146378599Y-107166049D01*
X146378600Y-107166032D01*
X146378600Y-106168767D01*
X146378599Y-106168750D01*
X146372090Y-106108203D01*
X146372089Y-106108201D01*
X146372089Y-106108199D01*
X146360240Y-106076433D01*
X146355174Y-106005621D01*
X146360237Y-105988374D01*
X146372089Y-105956601D01*
X146378600Y-105896038D01*
X146378600Y-104898762D01*
X146378599Y-104898750D01*
X146372090Y-104838203D01*
X146372089Y-104838201D01*
X146372089Y-104838199D01*
X146360240Y-104806433D01*
X146355174Y-104735621D01*
X146360237Y-104718374D01*
X146372089Y-104686601D01*
X146372088Y-104686601D01*
X146372090Y-104686599D01*
X146372090Y-104686596D01*
X146378600Y-104626039D01*
X146378600Y-103628767D01*
X146378599Y-103628750D01*
X146372090Y-103568203D01*
X146372088Y-103568195D01*
X146336916Y-103473898D01*
X146320989Y-103431196D01*
X146320988Y-103431194D01*
X146320987Y-103431192D01*
X146233361Y-103314138D01*
X146116307Y-103226512D01*
X146116302Y-103226510D01*
X145979304Y-103175411D01*
X145979296Y-103175409D01*
X145918749Y-103168900D01*
X145918738Y-103168900D01*
X144321462Y-103168900D01*
X144321450Y-103168900D01*
X144260903Y-103175409D01*
X144260895Y-103175411D01*
X144123897Y-103226510D01*
X144123892Y-103226512D01*
X144006838Y-103314138D01*
X143919212Y-103431192D01*
X143919210Y-103431197D01*
X143868111Y-103568195D01*
X143868109Y-103568203D01*
X143861600Y-103628750D01*
X143861600Y-104626039D01*
X143868109Y-104686595D01*
X143868110Y-104686598D01*
X143868110Y-104686600D01*
X143868111Y-104686601D01*
X143868931Y-104688800D01*
X143879960Y-104718370D01*
X143885023Y-104789186D01*
X143879960Y-104806430D01*
X143868110Y-104838201D01*
X143868109Y-104838204D01*
X143861600Y-104898750D01*
X143861600Y-105896049D01*
X143868109Y-105956595D01*
X143868110Y-105956598D01*
X143879960Y-105988370D01*
X143885023Y-106059186D01*
X143879960Y-106076430D01*
X143868110Y-106108201D01*
X143868109Y-106108204D01*
X143861600Y-106168750D01*
X143861600Y-107166049D01*
X143868109Y-107226595D01*
X143868110Y-107226598D01*
X143879960Y-107258370D01*
X143885023Y-107329186D01*
X143879960Y-107346430D01*
X143868110Y-107378201D01*
X143868109Y-107378204D01*
X143861600Y-107438750D01*
X143861600Y-108436049D01*
X143868109Y-108496595D01*
X143868110Y-108496598D01*
X143879960Y-108528370D01*
X143885023Y-108599186D01*
X143879960Y-108616430D01*
X143868110Y-108648201D01*
X143868109Y-108648204D01*
X143861600Y-108708750D01*
X143861600Y-109706049D01*
X143868109Y-109766595D01*
X143868110Y-109766598D01*
X143879960Y-109798370D01*
X143885023Y-109869186D01*
X143879960Y-109886430D01*
X143868110Y-109918201D01*
X143868109Y-109918204D01*
X143861600Y-109978750D01*
X143861600Y-110976049D01*
X143868109Y-111036595D01*
X143868110Y-111036598D01*
X143879960Y-111068370D01*
X143885023Y-111139186D01*
X143879960Y-111156430D01*
X143868110Y-111188201D01*
X143868109Y-111188204D01*
X143861600Y-111248750D01*
X143861600Y-112246049D01*
X143868109Y-112306595D01*
X143868110Y-112306598D01*
X143879960Y-112338370D01*
X143885023Y-112409186D01*
X143879960Y-112426430D01*
X143868110Y-112458201D01*
X143868109Y-112458204D01*
X143861600Y-112518750D01*
X143861600Y-113516049D01*
X143868109Y-113576595D01*
X143868110Y-113576598D01*
X143879960Y-113608370D01*
X143885023Y-113679186D01*
X143879960Y-113696430D01*
X143868110Y-113728201D01*
X143868109Y-113728204D01*
X143861600Y-113788750D01*
X143861600Y-114786049D01*
X143868109Y-114846595D01*
X143868110Y-114846598D01*
X143868110Y-114846600D01*
X143868111Y-114846601D01*
X143874255Y-114863073D01*
X143879960Y-114878370D01*
X143885023Y-114949186D01*
X143879960Y-114966430D01*
X143868110Y-114998201D01*
X143868109Y-114998204D01*
X143861600Y-115058750D01*
X143861600Y-116056049D01*
X143868109Y-116116595D01*
X143868110Y-116116598D01*
X143879960Y-116148370D01*
X143885023Y-116219186D01*
X143879960Y-116236430D01*
X143868110Y-116268201D01*
X143868109Y-116268204D01*
X143861600Y-116328750D01*
X143861600Y-117212900D01*
X143841598Y-117281021D01*
X143787942Y-117327514D01*
X143735600Y-117338900D01*
X136886469Y-117338900D01*
X136818348Y-117318898D01*
X136797374Y-117301995D01*
X130550504Y-111055125D01*
X130516478Y-110992813D01*
X130513599Y-110966030D01*
X130513599Y-104416900D01*
X130533601Y-104348779D01*
X130587257Y-104302286D01*
X130639599Y-104290900D01*
X131153732Y-104290900D01*
X131153738Y-104290900D01*
X131153745Y-104290899D01*
X131153749Y-104290899D01*
X131214296Y-104284390D01*
X131214297Y-104284389D01*
X131214301Y-104284389D01*
X131246066Y-104272540D01*
X131316879Y-104267474D01*
X131334125Y-104272537D01*
X131365899Y-104284389D01*
X131365901Y-104284389D01*
X131365903Y-104284390D01*
X131426450Y-104290899D01*
X131426455Y-104290899D01*
X131426462Y-104290900D01*
X131426468Y-104290900D01*
X132423732Y-104290900D01*
X132423738Y-104290900D01*
X132423745Y-104290899D01*
X132423749Y-104290899D01*
X132484296Y-104284390D01*
X132484297Y-104284389D01*
X132484301Y-104284389D01*
X132516066Y-104272540D01*
X132586879Y-104267474D01*
X132604125Y-104272537D01*
X132635899Y-104284389D01*
X132635901Y-104284389D01*
X132635903Y-104284390D01*
X132696450Y-104290899D01*
X132696455Y-104290899D01*
X132696462Y-104290900D01*
X132696468Y-104290900D01*
X133693732Y-104290900D01*
X133693738Y-104290900D01*
X133693745Y-104290899D01*
X133693749Y-104290899D01*
X133754296Y-104284390D01*
X133754297Y-104284389D01*
X133754301Y-104284389D01*
X133786066Y-104272540D01*
X133856879Y-104267474D01*
X133874125Y-104272537D01*
X133905899Y-104284389D01*
X133905901Y-104284389D01*
X133905903Y-104284390D01*
X133966450Y-104290899D01*
X133966455Y-104290899D01*
X133966462Y-104290900D01*
X133966468Y-104290900D01*
X134963732Y-104290900D01*
X134963738Y-104290900D01*
X134963745Y-104290899D01*
X134963749Y-104290899D01*
X135024296Y-104284390D01*
X135024297Y-104284389D01*
X135024301Y-104284389D01*
X135056066Y-104272540D01*
X135126879Y-104267474D01*
X135144125Y-104272537D01*
X135175899Y-104284389D01*
X135175901Y-104284389D01*
X135175903Y-104284390D01*
X135236450Y-104290899D01*
X135236455Y-104290899D01*
X135236462Y-104290900D01*
X135236468Y-104290900D01*
X136233732Y-104290900D01*
X136233738Y-104290900D01*
X136233745Y-104290899D01*
X136233749Y-104290899D01*
X136294296Y-104284390D01*
X136294297Y-104284389D01*
X136294301Y-104284389D01*
X136326066Y-104272540D01*
X136396879Y-104267474D01*
X136414125Y-104272537D01*
X136445899Y-104284389D01*
X136445901Y-104284389D01*
X136445903Y-104284390D01*
X136506450Y-104290899D01*
X136506455Y-104290899D01*
X136506462Y-104290900D01*
X136506468Y-104290900D01*
X137503732Y-104290900D01*
X137503738Y-104290900D01*
X137503745Y-104290899D01*
X137503749Y-104290899D01*
X137564296Y-104284390D01*
X137564297Y-104284389D01*
X137564301Y-104284389D01*
X137596066Y-104272540D01*
X137666879Y-104267474D01*
X137684125Y-104272537D01*
X137715899Y-104284389D01*
X137715901Y-104284389D01*
X137715903Y-104284390D01*
X137776450Y-104290899D01*
X137776455Y-104290899D01*
X137776462Y-104290900D01*
X137776468Y-104290900D01*
X138773732Y-104290900D01*
X138773738Y-104290900D01*
X138773745Y-104290899D01*
X138773749Y-104290899D01*
X138834296Y-104284390D01*
X138834297Y-104284389D01*
X138834301Y-104284389D01*
X138866066Y-104272540D01*
X138936879Y-104267474D01*
X138954125Y-104272537D01*
X138985899Y-104284389D01*
X138985901Y-104284389D01*
X138985903Y-104284390D01*
X139046450Y-104290899D01*
X139046455Y-104290899D01*
X139046462Y-104290900D01*
X139046468Y-104290900D01*
X140043732Y-104290900D01*
X140043738Y-104290900D01*
X140043745Y-104290899D01*
X140043749Y-104290899D01*
X140104296Y-104284390D01*
X140104297Y-104284389D01*
X140104301Y-104284389D01*
X140136066Y-104272540D01*
X140206879Y-104267474D01*
X140224125Y-104272537D01*
X140255899Y-104284389D01*
X140255901Y-104284389D01*
X140255903Y-104284390D01*
X140316450Y-104290899D01*
X140316455Y-104290899D01*
X140316462Y-104290900D01*
X140316468Y-104290900D01*
X141313732Y-104290900D01*
X141313738Y-104290900D01*
X141313745Y-104290899D01*
X141313749Y-104290899D01*
X141374296Y-104284390D01*
X141374299Y-104284389D01*
X141374301Y-104284389D01*
X141511304Y-104233289D01*
X141575863Y-104184961D01*
X141628361Y-104145661D01*
X141715987Y-104028607D01*
X141715987Y-104028606D01*
X141715989Y-104028604D01*
X141767089Y-103891601D01*
X141767611Y-103886751D01*
X141773599Y-103831049D01*
X141773600Y-103831032D01*
X141773600Y-102466901D01*
X141793602Y-102398780D01*
X141847258Y-102352287D01*
X141899600Y-102340901D01*
X147203730Y-102340901D01*
X147271851Y-102360903D01*
G37*
G04 #@! TD.AperFunction*
G04 #@! TA.AperFunction,Conductor*
G36*
X120373317Y-103381047D02*
G01*
X120406819Y-103405025D01*
X124875339Y-107873545D01*
X124909365Y-107935857D01*
X124904300Y-108006672D01*
X124861753Y-108063508D01*
X124795233Y-108088319D01*
X124761662Y-108086219D01*
X124699732Y-108073900D01*
X124699730Y-108073900D01*
X124540470Y-108073900D01*
X124540467Y-108073900D01*
X124423319Y-108097202D01*
X124384269Y-108104970D01*
X124384267Y-108104971D01*
X124237132Y-108165917D01*
X124104709Y-108254398D01*
X124104703Y-108254403D01*
X123992103Y-108367003D01*
X123992098Y-108367009D01*
X123992097Y-108367011D01*
X123903617Y-108499432D01*
X123842670Y-108646569D01*
X123842345Y-108648203D01*
X123811600Y-108802767D01*
X123811600Y-108962032D01*
X123816648Y-108987409D01*
X123842670Y-109118231D01*
X123851110Y-109138606D01*
X123876890Y-109200845D01*
X123884479Y-109271435D01*
X123852699Y-109334922D01*
X123797717Y-109367992D01*
X123798109Y-109369146D01*
X123794207Y-109370470D01*
X123670355Y-109421771D01*
X123670345Y-109421777D01*
X123556346Y-109487594D01*
X123556339Y-109487599D01*
X123450003Y-109569193D01*
X123449982Y-109569212D01*
X123449935Y-109569260D01*
X123449917Y-109569269D01*
X123446894Y-109571921D01*
X123446300Y-109571243D01*
X123394278Y-109599638D01*
X123394769Y-109601255D01*
X123388853Y-109603048D01*
X123388852Y-109603049D01*
X123388850Y-109603049D01*
X123388846Y-109603051D01*
X123250814Y-109660226D01*
X123126581Y-109743235D01*
X123126580Y-109743236D01*
X122850550Y-110019265D01*
X122809678Y-110046576D01*
X122787129Y-110055917D01*
X122654708Y-110144397D01*
X122654702Y-110144402D01*
X122542102Y-110257002D01*
X122542097Y-110257008D01*
X122542096Y-110257010D01*
X122453616Y-110389431D01*
X122406792Y-110502474D01*
X122392670Y-110536566D01*
X122392669Y-110536569D01*
X122361599Y-110692766D01*
X122361599Y-110692769D01*
X122361599Y-110852029D01*
X122392669Y-111008230D01*
X122402007Y-111030774D01*
X122411599Y-111078992D01*
X122411599Y-116264674D01*
X122391597Y-116332795D01*
X122337941Y-116379288D01*
X122267667Y-116389392D01*
X122203087Y-116359898D01*
X122196504Y-116353769D01*
X120007181Y-114164446D01*
X119973155Y-114102134D01*
X119978220Y-114031319D01*
X119994338Y-114001292D01*
X120071994Y-113894409D01*
X120169072Y-113703883D01*
X120235149Y-113500516D01*
X120268600Y-113289316D01*
X120268600Y-113075484D01*
X120235149Y-112864284D01*
X120169072Y-112660917D01*
X120071994Y-112470391D01*
X119946306Y-112297396D01*
X119946303Y-112297393D01*
X119946301Y-112297390D01*
X119795109Y-112146198D01*
X119795106Y-112146196D01*
X119795104Y-112146194D01*
X119622109Y-112020506D01*
X119622107Y-112020505D01*
X119621020Y-112019839D01*
X119620691Y-112019475D01*
X119618104Y-112017596D01*
X119618498Y-112017052D01*
X119573383Y-111967196D01*
X119561770Y-111897156D01*
X119589866Y-111831955D01*
X119618230Y-111807378D01*
X119618104Y-111807204D01*
X119620130Y-111805731D01*
X119621020Y-111804961D01*
X119622097Y-111804299D01*
X119622109Y-111804294D01*
X119795104Y-111678606D01*
X119946306Y-111527404D01*
X120071994Y-111354409D01*
X120169072Y-111163883D01*
X120235149Y-110960516D01*
X120268600Y-110749316D01*
X120268600Y-110535484D01*
X120235149Y-110324284D01*
X120169072Y-110120917D01*
X120071994Y-109930391D01*
X119946306Y-109757396D01*
X119946303Y-109757393D01*
X119946301Y-109757390D01*
X119795109Y-109606198D01*
X119795106Y-109606196D01*
X119795104Y-109606194D01*
X119622109Y-109480506D01*
X119622107Y-109480505D01*
X119621020Y-109479839D01*
X119620691Y-109479475D01*
X119618104Y-109477596D01*
X119618498Y-109477052D01*
X119573383Y-109427196D01*
X119561770Y-109357156D01*
X119589866Y-109291955D01*
X119618230Y-109267378D01*
X119618104Y-109267204D01*
X119620130Y-109265731D01*
X119621020Y-109264961D01*
X119622097Y-109264299D01*
X119622109Y-109264294D01*
X119795104Y-109138606D01*
X119946306Y-108987404D01*
X120071994Y-108814409D01*
X120169072Y-108623883D01*
X120235149Y-108420516D01*
X120268600Y-108209316D01*
X120268600Y-107995484D01*
X120235149Y-107784284D01*
X120169072Y-107580917D01*
X120071994Y-107390391D01*
X119946306Y-107217396D01*
X119946303Y-107217393D01*
X119946301Y-107217390D01*
X119795109Y-107066198D01*
X119795106Y-107066196D01*
X119795104Y-107066194D01*
X119622109Y-106940506D01*
X119622107Y-106940505D01*
X119621020Y-106939839D01*
X119620691Y-106939475D01*
X119618104Y-106937596D01*
X119618498Y-106937052D01*
X119573383Y-106887196D01*
X119561770Y-106817156D01*
X119589866Y-106751955D01*
X119618230Y-106727378D01*
X119618104Y-106727204D01*
X119620130Y-106725731D01*
X119621020Y-106724961D01*
X119622097Y-106724299D01*
X119622109Y-106724294D01*
X119795104Y-106598606D01*
X119946306Y-106447404D01*
X120071994Y-106274409D01*
X120169072Y-106083883D01*
X120235149Y-105880516D01*
X120268600Y-105669316D01*
X120268600Y-105455484D01*
X120235149Y-105244284D01*
X120169072Y-105040917D01*
X120071994Y-104850391D01*
X119946306Y-104677396D01*
X119946303Y-104677393D01*
X119946301Y-104677390D01*
X119795109Y-104526198D01*
X119795106Y-104526196D01*
X119795104Y-104526194D01*
X119660860Y-104428660D01*
X119622112Y-104400508D01*
X119621020Y-104399839D01*
X119620691Y-104399475D01*
X119618104Y-104397596D01*
X119618498Y-104397052D01*
X119573383Y-104347196D01*
X119561770Y-104277156D01*
X119589866Y-104211955D01*
X119618230Y-104187378D01*
X119618104Y-104187204D01*
X119620130Y-104185731D01*
X119621020Y-104184961D01*
X119622097Y-104184299D01*
X119622109Y-104184294D01*
X119795104Y-104058606D01*
X119946306Y-103907404D01*
X120071994Y-103734409D01*
X120169072Y-103543883D01*
X120197891Y-103455184D01*
X120237964Y-103396579D01*
X120303360Y-103368941D01*
X120373317Y-103381047D01*
G37*
G04 #@! TD.AperFunction*
G04 #@! TA.AperFunction,Conductor*
G36*
X120424059Y-100527857D02*
G01*
X120475933Y-100559139D01*
X124448027Y-104531233D01*
X124536265Y-104619471D01*
X124640023Y-104688800D01*
X124755313Y-104736555D01*
X124877704Y-104760900D01*
X126236149Y-104760900D01*
X126304270Y-104780902D01*
X126350763Y-104834558D01*
X126360610Y-104895326D01*
X126361781Y-104895389D01*
X126361600Y-104898767D01*
X126361600Y-105896049D01*
X126368109Y-105956595D01*
X126368110Y-105956598D01*
X126379960Y-105988370D01*
X126385023Y-106059186D01*
X126379960Y-106076430D01*
X126368110Y-106108201D01*
X126368109Y-106108204D01*
X126361600Y-106168750D01*
X126361600Y-107166049D01*
X126368109Y-107226595D01*
X126368110Y-107226598D01*
X126372650Y-107238770D01*
X126377713Y-107309586D01*
X126343686Y-107371898D01*
X126281373Y-107405921D01*
X126210558Y-107400855D01*
X126165498Y-107371895D01*
X120135332Y-101341730D01*
X120135320Y-101341720D01*
X120125176Y-101334942D01*
X120079649Y-101280464D01*
X120070803Y-101210021D01*
X120082912Y-101172979D01*
X120169072Y-101003883D01*
X120235149Y-100800516D01*
X120262390Y-100628520D01*
X120292801Y-100564370D01*
X120353069Y-100526843D01*
X120424059Y-100527857D01*
G37*
G04 #@! TD.AperFunction*
G04 #@! TA.AperFunction,Conductor*
G36*
X124381850Y-98720902D02*
G01*
X124402824Y-98737805D01*
X128645682Y-102980663D01*
X128679708Y-103042975D01*
X128674643Y-103113790D01*
X128632096Y-103170626D01*
X128565576Y-103195437D01*
X128512555Y-103187814D01*
X128479300Y-103175410D01*
X128479296Y-103175409D01*
X128418749Y-103168900D01*
X128418738Y-103168900D01*
X126821462Y-103168900D01*
X126821450Y-103168900D01*
X126760903Y-103175409D01*
X126760895Y-103175411D01*
X126623897Y-103226510D01*
X126623892Y-103226512D01*
X126506838Y-103314138D01*
X126413811Y-103438410D01*
X126412018Y-103437068D01*
X126370593Y-103478491D01*
X126310213Y-103493900D01*
X125254692Y-103493900D01*
X125186571Y-103473898D01*
X125165597Y-103456995D01*
X120624597Y-98915995D01*
X120590571Y-98853683D01*
X120595636Y-98782868D01*
X120638183Y-98726032D01*
X120704703Y-98701221D01*
X120713692Y-98700900D01*
X124313729Y-98700900D01*
X124381850Y-98720902D01*
G37*
G04 #@! TD.AperFunction*
G04 #@! TA.AperFunction,Conductor*
G36*
X150250656Y-74360903D02*
G01*
X150297149Y-74414559D01*
X150307253Y-74484833D01*
X150277759Y-74549413D01*
X150218033Y-74587797D01*
X150207121Y-74590478D01*
X150134269Y-74604970D01*
X150088569Y-74623900D01*
X149987132Y-74665917D01*
X149854709Y-74754398D01*
X149854703Y-74754403D01*
X149742103Y-74867003D01*
X149742098Y-74867009D01*
X149742097Y-74867011D01*
X149653617Y-74999432D01*
X149603480Y-75120473D01*
X149592671Y-75146567D01*
X149592670Y-75146570D01*
X149561600Y-75302767D01*
X149561600Y-75462032D01*
X149577135Y-75540130D01*
X149592670Y-75618231D01*
X149653617Y-75765368D01*
X149732657Y-75883661D01*
X149742098Y-75897790D01*
X149742103Y-75897796D01*
X149854703Y-76010396D01*
X149854709Y-76010401D01*
X149854711Y-76010403D01*
X149987132Y-76098883D01*
X150134269Y-76159830D01*
X150290470Y-76190900D01*
X150290471Y-76190900D01*
X150449729Y-76190900D01*
X150449730Y-76190900D01*
X150605931Y-76159830D01*
X150628475Y-76150491D01*
X150636784Y-76148838D01*
X150641195Y-76146004D01*
X150676693Y-76140900D01*
X150698100Y-76140900D01*
X150766221Y-76160902D01*
X150812714Y-76214558D01*
X150824100Y-76266900D01*
X150824100Y-76335222D01*
X150804098Y-76403343D01*
X150793832Y-76416080D01*
X150794053Y-76416255D01*
X150789500Y-76422012D01*
X150700251Y-76566707D01*
X150646775Y-76728090D01*
X150636600Y-76827680D01*
X150636600Y-77437110D01*
X150646775Y-77536709D01*
X150646776Y-77536714D01*
X150675856Y-77624471D01*
X150700251Y-77698092D01*
X150789500Y-77842787D01*
X150794053Y-77848545D01*
X150792335Y-77849903D01*
X150802137Y-77867846D01*
X150818996Y-77894079D01*
X150819899Y-77900361D01*
X150821216Y-77902772D01*
X150824100Y-77929577D01*
X150824100Y-78085222D01*
X150804098Y-78153343D01*
X150793832Y-78166080D01*
X150794053Y-78166255D01*
X150789500Y-78172012D01*
X150700251Y-78316707D01*
X150646775Y-78478090D01*
X150636600Y-78577680D01*
X150636600Y-79187110D01*
X150645824Y-79277396D01*
X150646776Y-79286714D01*
X150699061Y-79444501D01*
X150700251Y-79448092D01*
X150789500Y-79592787D01*
X150794053Y-79598545D01*
X150792335Y-79599903D01*
X150802137Y-79617846D01*
X150818996Y-79644079D01*
X150819899Y-79650361D01*
X150821216Y-79652772D01*
X150824100Y-79679577D01*
X150824100Y-79835222D01*
X150804098Y-79903343D01*
X150793832Y-79916080D01*
X150794053Y-79916255D01*
X150789500Y-79922012D01*
X150700251Y-80066707D01*
X150646775Y-80228090D01*
X150636600Y-80327680D01*
X150636600Y-80937110D01*
X150642179Y-80991716D01*
X150646776Y-81036714D01*
X150675856Y-81124471D01*
X150700251Y-81198092D01*
X150789500Y-81342787D01*
X150794053Y-81348545D01*
X150792335Y-81349903D01*
X150802137Y-81367846D01*
X150818996Y-81394079D01*
X150819899Y-81400361D01*
X150821216Y-81402772D01*
X150824100Y-81429577D01*
X150824100Y-81585222D01*
X150804098Y-81653343D01*
X150793832Y-81666080D01*
X150794053Y-81666255D01*
X150789500Y-81672012D01*
X150700251Y-81816707D01*
X150646775Y-81978090D01*
X150636600Y-82077680D01*
X150636600Y-82687110D01*
X150644595Y-82765367D01*
X150646776Y-82786714D01*
X150683583Y-82897790D01*
X150700251Y-82948092D01*
X150789500Y-83092787D01*
X150794053Y-83098545D01*
X150792335Y-83099903D01*
X150802137Y-83117846D01*
X150818996Y-83144079D01*
X150819899Y-83150361D01*
X150821216Y-83152772D01*
X150824100Y-83179577D01*
X150824100Y-83335222D01*
X150804098Y-83403343D01*
X150793832Y-83416080D01*
X150794053Y-83416255D01*
X150789500Y-83422012D01*
X150700251Y-83566707D01*
X150646775Y-83728090D01*
X150636600Y-83827680D01*
X150636600Y-84437110D01*
X150646526Y-84534270D01*
X150646776Y-84536714D01*
X150690578Y-84668900D01*
X150700251Y-84698092D01*
X150789500Y-84842787D01*
X150794053Y-84848545D01*
X150792335Y-84849903D01*
X150802137Y-84867846D01*
X150818996Y-84894079D01*
X150819899Y-84900361D01*
X150821216Y-84902772D01*
X150824100Y-84929577D01*
X150824100Y-85085222D01*
X150804098Y-85153343D01*
X150793832Y-85166080D01*
X150794053Y-85166255D01*
X150789500Y-85172012D01*
X150700251Y-85316707D01*
X150646775Y-85478090D01*
X150636600Y-85577680D01*
X150636600Y-86187110D01*
X150646775Y-86286709D01*
X150646776Y-86286714D01*
X150694904Y-86431955D01*
X150700251Y-86448092D01*
X150789500Y-86592787D01*
X150794053Y-86598545D01*
X150792335Y-86599903D01*
X150802137Y-86617846D01*
X150818996Y-86644079D01*
X150819899Y-86650361D01*
X150821216Y-86652772D01*
X150824100Y-86679577D01*
X150824100Y-86835222D01*
X150804098Y-86903343D01*
X150793832Y-86916080D01*
X150794053Y-86916255D01*
X150789500Y-86922012D01*
X150700251Y-87066707D01*
X150698371Y-87072382D01*
X150655745Y-87201021D01*
X150646775Y-87228090D01*
X150636600Y-87327680D01*
X150636600Y-87937110D01*
X150645697Y-88026154D01*
X150646776Y-88036714D01*
X150681685Y-88142062D01*
X150700251Y-88198092D01*
X150789500Y-88342787D01*
X150794053Y-88348545D01*
X150792335Y-88349903D01*
X150802137Y-88367846D01*
X150818996Y-88394079D01*
X150819899Y-88400361D01*
X150821216Y-88402772D01*
X150824100Y-88429577D01*
X150824100Y-88585222D01*
X150804098Y-88653343D01*
X150793832Y-88666080D01*
X150794053Y-88666255D01*
X150789500Y-88672012D01*
X150700251Y-88816707D01*
X150681333Y-88873799D01*
X150646919Y-88977656D01*
X150646775Y-88978090D01*
X150636600Y-89077680D01*
X150636600Y-89687110D01*
X150638020Y-89701005D01*
X150646776Y-89786714D01*
X150690546Y-89918805D01*
X150700251Y-89948092D01*
X150789500Y-90092787D01*
X150794053Y-90098545D01*
X150792335Y-90099903D01*
X150802137Y-90117846D01*
X150818996Y-90144079D01*
X150819899Y-90150361D01*
X150821216Y-90152772D01*
X150824100Y-90179577D01*
X150824100Y-90335222D01*
X150804098Y-90403343D01*
X150793832Y-90416080D01*
X150794053Y-90416255D01*
X150789500Y-90422012D01*
X150700251Y-90566707D01*
X150685603Y-90610913D01*
X150658598Y-90692411D01*
X150646775Y-90728090D01*
X150636600Y-90827680D01*
X150636600Y-91437110D01*
X150646465Y-91533674D01*
X150646776Y-91536714D01*
X150697868Y-91690900D01*
X150700251Y-91698092D01*
X150789500Y-91842787D01*
X150794053Y-91848545D01*
X150792335Y-91849903D01*
X150802137Y-91867846D01*
X150818996Y-91894079D01*
X150819899Y-91900361D01*
X150821216Y-91902772D01*
X150824100Y-91929577D01*
X150824100Y-92085222D01*
X150804098Y-92153343D01*
X150793832Y-92166080D01*
X150794053Y-92166255D01*
X150789500Y-92172012D01*
X150700251Y-92316707D01*
X150683585Y-92367003D01*
X150665217Y-92422436D01*
X150646775Y-92478090D01*
X150636600Y-92577680D01*
X150636600Y-93187110D01*
X150646775Y-93286709D01*
X150646776Y-93286714D01*
X150678975Y-93383884D01*
X150700251Y-93448092D01*
X150789500Y-93592787D01*
X150794053Y-93598545D01*
X150792335Y-93599903D01*
X150802137Y-93617846D01*
X150818996Y-93644079D01*
X150819899Y-93650361D01*
X150821216Y-93652772D01*
X150824100Y-93679577D01*
X150824100Y-93835222D01*
X150804098Y-93903343D01*
X150793832Y-93916080D01*
X150794053Y-93916255D01*
X150789500Y-93922012D01*
X150700251Y-94066707D01*
X150646775Y-94228090D01*
X150636600Y-94327680D01*
X150636600Y-94937110D01*
X150646775Y-95036709D01*
X150646776Y-95036714D01*
X150662539Y-95084284D01*
X150700251Y-95198092D01*
X150789500Y-95342787D01*
X150794053Y-95348545D01*
X150792335Y-95349903D01*
X150802137Y-95367846D01*
X150818996Y-95394079D01*
X150819899Y-95400361D01*
X150821216Y-95402772D01*
X150824100Y-95429577D01*
X150824100Y-95585222D01*
X150804098Y-95653343D01*
X150793832Y-95666080D01*
X150794053Y-95666255D01*
X150789500Y-95672012D01*
X150700251Y-95816707D01*
X150700251Y-95816708D01*
X150647720Y-95975239D01*
X150646775Y-95978090D01*
X150636600Y-96077680D01*
X150636600Y-96687110D01*
X150646142Y-96780508D01*
X150646776Y-96786714D01*
X150686368Y-96906196D01*
X150700251Y-96948092D01*
X150789500Y-97092787D01*
X150794053Y-97098545D01*
X150792335Y-97099903D01*
X150821216Y-97152772D01*
X150824100Y-97179577D01*
X150824100Y-97507895D01*
X150824100Y-97657305D01*
X150853249Y-97803847D01*
X150910426Y-97941884D01*
X150993434Y-98066115D01*
X153516485Y-100589166D01*
X153640716Y-100672174D01*
X153778753Y-100729351D01*
X153852022Y-100743924D01*
X153852023Y-100743925D01*
X153866598Y-100746824D01*
X153925294Y-100758500D01*
X153925295Y-100758500D01*
X154074705Y-100758500D01*
X154828873Y-100758500D01*
X154896994Y-100778502D01*
X154943487Y-100832158D01*
X154953591Y-100902432D01*
X154933639Y-100954501D01*
X154903616Y-100999433D01*
X154842671Y-101146567D01*
X154842670Y-101146570D01*
X154811600Y-101302767D01*
X154811600Y-101462032D01*
X154823791Y-101523318D01*
X154817463Y-101594032D01*
X154773909Y-101650100D01*
X154706957Y-101673719D01*
X154700212Y-101673900D01*
X154288589Y-101673900D01*
X154251271Y-101676837D01*
X154251270Y-101676837D01*
X154091497Y-101723255D01*
X154014275Y-101768925D01*
X153945459Y-101786384D01*
X153878127Y-101763867D01*
X153845373Y-101730474D01*
X153824266Y-101698885D01*
X133317011Y-81191630D01*
X133286229Y-81135260D01*
X133284849Y-81135679D01*
X133283051Y-81129753D01*
X133244511Y-81036709D01*
X133225875Y-80991717D01*
X133142866Y-80867485D01*
X133037217Y-80761836D01*
X132912985Y-80678827D01*
X132774950Y-80621651D01*
X132774947Y-80621650D01*
X132628410Y-80592501D01*
X132628407Y-80592501D01*
X132478407Y-80592501D01*
X120364939Y-80592501D01*
X120296818Y-80572499D01*
X120250325Y-80518843D01*
X120240221Y-80448569D01*
X120240475Y-80446888D01*
X120268600Y-80269316D01*
X120268600Y-80055484D01*
X120235149Y-79844284D01*
X120169072Y-79640917D01*
X120162338Y-79627702D01*
X120149235Y-79557928D01*
X120175935Y-79492143D01*
X120233962Y-79451236D01*
X120274606Y-79444501D01*
X123905793Y-79444501D01*
X123973914Y-79464503D01*
X123982497Y-79470539D01*
X124010652Y-79492143D01*
X124056343Y-79527203D01*
X124170357Y-79593029D01*
X124294201Y-79644327D01*
X124421368Y-79678402D01*
X124421371Y-79678402D01*
X124421374Y-79678403D01*
X124455623Y-79682911D01*
X124554274Y-79695900D01*
X124554281Y-79695900D01*
X125185919Y-79695900D01*
X125185926Y-79695900D01*
X125309907Y-79679577D01*
X125318825Y-79678403D01*
X125318825Y-79678402D01*
X125318832Y-79678402D01*
X125445999Y-79644327D01*
X125569843Y-79593029D01*
X125683857Y-79527203D01*
X125777574Y-79455290D01*
X125790197Y-79445605D01*
X125790197Y-79445604D01*
X125790206Y-79445598D01*
X125791303Y-79444501D01*
X125883000Y-79352805D01*
X125945312Y-79318779D01*
X125972095Y-79315900D01*
X127268105Y-79315900D01*
X127336226Y-79335902D01*
X127357200Y-79352805D01*
X127449981Y-79445586D01*
X127450002Y-79445605D01*
X127510652Y-79492143D01*
X127556343Y-79527203D01*
X127670357Y-79593029D01*
X127794201Y-79644327D01*
X127921368Y-79678402D01*
X127921371Y-79678402D01*
X127921374Y-79678403D01*
X127955623Y-79682911D01*
X128054274Y-79695900D01*
X128054281Y-79695900D01*
X128685919Y-79695900D01*
X128685926Y-79695900D01*
X128809907Y-79679577D01*
X128818825Y-79678403D01*
X128818825Y-79678402D01*
X128818832Y-79678402D01*
X128945999Y-79644327D01*
X129069843Y-79593029D01*
X129183857Y-79527203D01*
X129277574Y-79455290D01*
X129290197Y-79445605D01*
X129290197Y-79445604D01*
X129290206Y-79445598D01*
X129383298Y-79352506D01*
X129464903Y-79246157D01*
X129530729Y-79132143D01*
X129582027Y-79008299D01*
X129616102Y-78881132D01*
X129616626Y-78877156D01*
X129617785Y-78868341D01*
X129633600Y-78748226D01*
X129633600Y-78266900D01*
X129636191Y-78258074D01*
X129634882Y-78248968D01*
X129646037Y-78224542D01*
X129653602Y-78198779D01*
X129660555Y-78192754D01*
X129664376Y-78184388D01*
X129686961Y-78169873D01*
X129707258Y-78152286D01*
X129717944Y-78149961D01*
X129724102Y-78146004D01*
X129759600Y-78140900D01*
X129813507Y-78140900D01*
X129861724Y-78150491D01*
X129884269Y-78159830D01*
X130040470Y-78190900D01*
X130040471Y-78190900D01*
X130199729Y-78190900D01*
X130199730Y-78190900D01*
X130355931Y-78159830D01*
X130503068Y-78098883D01*
X130635489Y-78010403D01*
X130748103Y-77897789D01*
X130836583Y-77765368D01*
X130897530Y-77618231D01*
X130928600Y-77462030D01*
X130928600Y-77302770D01*
X130897530Y-77146569D01*
X130836583Y-76999432D01*
X130748103Y-76867011D01*
X130748101Y-76867009D01*
X130748096Y-76867003D01*
X130635496Y-76754403D01*
X130635490Y-76754398D01*
X130635489Y-76754397D01*
X130503068Y-76665917D01*
X130355931Y-76604970D01*
X130261537Y-76586194D01*
X130199732Y-76573900D01*
X130199730Y-76573900D01*
X130040470Y-76573900D01*
X130040467Y-76573900D01*
X129884269Y-76604970D01*
X129884268Y-76604970D01*
X129874883Y-76608857D01*
X129861724Y-76614308D01*
X129853415Y-76615961D01*
X129849005Y-76618796D01*
X129813507Y-76623900D01*
X129759600Y-76623900D01*
X129691479Y-76603898D01*
X129644986Y-76550242D01*
X129633600Y-76497900D01*
X129633600Y-76016581D01*
X129633600Y-76016574D01*
X129616102Y-75883668D01*
X129582027Y-75756501D01*
X129530729Y-75632657D01*
X129464903Y-75518643D01*
X129421464Y-75462032D01*
X129383305Y-75412302D01*
X129383286Y-75412281D01*
X129290218Y-75319213D01*
X129290197Y-75319194D01*
X129183860Y-75237599D01*
X129183853Y-75237594D01*
X129069854Y-75171777D01*
X129069844Y-75171771D01*
X128945994Y-75120471D01*
X128818838Y-75086399D01*
X128818825Y-75086396D01*
X128685928Y-75068900D01*
X128685926Y-75068900D01*
X128054274Y-75068900D01*
X128054271Y-75068900D01*
X127921374Y-75086396D01*
X127921361Y-75086399D01*
X127794205Y-75120471D01*
X127670355Y-75171771D01*
X127670345Y-75171777D01*
X127556346Y-75237594D01*
X127556339Y-75237599D01*
X127450002Y-75319194D01*
X127449981Y-75319213D01*
X127357200Y-75411995D01*
X127294888Y-75446021D01*
X127268105Y-75448900D01*
X125972095Y-75448900D01*
X125903974Y-75428898D01*
X125883000Y-75411995D01*
X125790218Y-75319213D01*
X125790197Y-75319194D01*
X125683860Y-75237599D01*
X125683853Y-75237594D01*
X125569854Y-75171777D01*
X125569844Y-75171771D01*
X125445994Y-75120471D01*
X125318838Y-75086399D01*
X125318825Y-75086396D01*
X125185928Y-75068900D01*
X125185926Y-75068900D01*
X124554274Y-75068900D01*
X124554271Y-75068900D01*
X124421374Y-75086396D01*
X124421361Y-75086399D01*
X124294205Y-75120471D01*
X124170355Y-75171771D01*
X124170345Y-75171777D01*
X124056346Y-75237594D01*
X124056339Y-75237599D01*
X123950002Y-75319194D01*
X123949981Y-75319213D01*
X123856913Y-75412281D01*
X123856894Y-75412302D01*
X123775299Y-75518639D01*
X123775294Y-75518646D01*
X123743047Y-75574501D01*
X123691664Y-75623494D01*
X123633928Y-75637501D01*
X120331573Y-75637501D01*
X120263452Y-75617499D01*
X120216959Y-75563843D01*
X120206855Y-75493569D01*
X120211739Y-75472566D01*
X120225927Y-75428898D01*
X120235149Y-75400516D01*
X120268600Y-75189316D01*
X120268600Y-74975484D01*
X120235149Y-74764284D01*
X120169072Y-74560917D01*
X120150314Y-74524104D01*
X120137210Y-74454328D01*
X120163910Y-74388543D01*
X120221937Y-74347636D01*
X120262581Y-74340901D01*
X150182535Y-74340901D01*
X150250656Y-74360903D01*
G37*
G04 #@! TD.AperFunction*
G04 #@! TA.AperFunction,Conductor*
G36*
X132105451Y-82129503D02*
G01*
X132126425Y-82146406D01*
X149887220Y-99907201D01*
X149921246Y-99969513D01*
X149916181Y-100040328D01*
X149873634Y-100097164D01*
X149807114Y-100121975D01*
X149798125Y-100122296D01*
X131234867Y-100122296D01*
X131166746Y-100102294D01*
X131145772Y-100085391D01*
X123623235Y-92562854D01*
X123595921Y-92521976D01*
X123586584Y-92499434D01*
X123586583Y-92499432D01*
X123535136Y-92422436D01*
X123498103Y-92367011D01*
X123498101Y-92367009D01*
X123498096Y-92367003D01*
X123385496Y-92254403D01*
X123385490Y-92254398D01*
X123385489Y-92254397D01*
X123253068Y-92165917D01*
X123105931Y-92104970D01*
X123027830Y-92089435D01*
X122949732Y-92073900D01*
X122949730Y-92073900D01*
X122790470Y-92073900D01*
X122790467Y-92073900D01*
X122673319Y-92097202D01*
X122634269Y-92104970D01*
X122634267Y-92104971D01*
X122487132Y-92165917D01*
X122354709Y-92254398D01*
X122354703Y-92254403D01*
X122242101Y-92367005D01*
X122242095Y-92367013D01*
X122241393Y-92368064D01*
X122240883Y-92368490D01*
X122238170Y-92371796D01*
X122237542Y-92371281D01*
X122186914Y-92413590D01*
X122116471Y-92422436D01*
X122052428Y-92391793D01*
X122047535Y-92387154D01*
X120289535Y-90629154D01*
X120255509Y-90566842D01*
X120254181Y-90520349D01*
X120268600Y-90429316D01*
X120268600Y-90215484D01*
X120235149Y-90004284D01*
X120169072Y-89800917D01*
X120071994Y-89610391D01*
X119946306Y-89437396D01*
X119946303Y-89437393D01*
X119946301Y-89437390D01*
X119795109Y-89286198D01*
X119795106Y-89286196D01*
X119795104Y-89286194D01*
X119622109Y-89160506D01*
X119622107Y-89160505D01*
X119621020Y-89159839D01*
X119620691Y-89159475D01*
X119618104Y-89157596D01*
X119618498Y-89157052D01*
X119573383Y-89107196D01*
X119561770Y-89037156D01*
X119589866Y-88971955D01*
X119618230Y-88947378D01*
X119618104Y-88947204D01*
X119620130Y-88945731D01*
X119621020Y-88944961D01*
X119622097Y-88944299D01*
X119622109Y-88944294D01*
X119795104Y-88818606D01*
X119946306Y-88667404D01*
X120071994Y-88494409D01*
X120169072Y-88303883D01*
X120235149Y-88100516D01*
X120268600Y-87889316D01*
X120268600Y-87675484D01*
X120235149Y-87464284D01*
X120169072Y-87260917D01*
X120162338Y-87247702D01*
X120149235Y-87177928D01*
X120175935Y-87112143D01*
X120233962Y-87071236D01*
X120274606Y-87064501D01*
X120562393Y-87064501D01*
X120562394Y-87064501D01*
X120684785Y-87040156D01*
X120800075Y-86992401D01*
X120903833Y-86923072D01*
X121255100Y-86571805D01*
X121317412Y-86537779D01*
X121344195Y-86534900D01*
X123759506Y-86534900D01*
X123827627Y-86554902D01*
X123848602Y-86571805D01*
X124320601Y-87043805D01*
X124354626Y-87106117D01*
X124349561Y-87176933D01*
X124307014Y-87233768D01*
X124240494Y-87258579D01*
X124231505Y-87258900D01*
X123617319Y-87258900D01*
X123549198Y-87238898D01*
X123511321Y-87201021D01*
X123508177Y-87196129D01*
X123397719Y-87100416D01*
X123264770Y-87039700D01*
X123120100Y-87018900D01*
X121620100Y-87018900D01*
X121571380Y-87022384D01*
X121547018Y-87024127D01*
X121406786Y-87065303D01*
X121406782Y-87065305D01*
X121283829Y-87144322D01*
X121188116Y-87254780D01*
X121127400Y-87387729D01*
X121106600Y-87532402D01*
X121106600Y-88098228D01*
X121124096Y-88231125D01*
X121124099Y-88231138D01*
X121158171Y-88358294D01*
X121209471Y-88482144D01*
X121209477Y-88482154D01*
X121275294Y-88596153D01*
X121275299Y-88596160D01*
X121356894Y-88702497D01*
X121356913Y-88702518D01*
X121449981Y-88795586D01*
X121449988Y-88795592D01*
X121449994Y-88795598D01*
X121505458Y-88838157D01*
X121559616Y-88879715D01*
X121558893Y-88880656D01*
X121601120Y-88931163D01*
X121611600Y-88981473D01*
X121611600Y-89408525D01*
X121594054Y-89472663D01*
X121589831Y-89479802D01*
X121544470Y-89635934D01*
X121544470Y-89635935D01*
X121541600Y-89672401D01*
X121541600Y-90072387D01*
X121544470Y-90108864D01*
X121589832Y-90264999D01*
X121621331Y-90318262D01*
X121638790Y-90387079D01*
X121621331Y-90446538D01*
X121589832Y-90499800D01*
X121544470Y-90655934D01*
X121544470Y-90655935D01*
X121541600Y-90692401D01*
X121541600Y-91092387D01*
X121544470Y-91128864D01*
X121589832Y-91285000D01*
X121672592Y-91424939D01*
X121672598Y-91424946D01*
X121787553Y-91539901D01*
X121787560Y-91539907D01*
X121927499Y-91622667D01*
X121927502Y-91622667D01*
X121927504Y-91622669D01*
X122083634Y-91668029D01*
X122120111Y-91670900D01*
X122620088Y-91670899D01*
X122656566Y-91668029D01*
X122698304Y-91655902D01*
X122733456Y-91650900D01*
X124702193Y-91650900D01*
X124737345Y-91655903D01*
X124770404Y-91665507D01*
X124847846Y-91688006D01*
X124884606Y-91690899D01*
X124884607Y-91690900D01*
X124884616Y-91690900D01*
X125355593Y-91690900D01*
X125355593Y-91690899D01*
X125392354Y-91688006D01*
X125549697Y-91642294D01*
X125690729Y-91558888D01*
X125806588Y-91443029D01*
X125889994Y-91301997D01*
X125920611Y-91196608D01*
X125952510Y-91142669D01*
X126484266Y-90610915D01*
X126567274Y-90486684D01*
X126624451Y-90348646D01*
X126649430Y-90223071D01*
X126653600Y-90202106D01*
X126654552Y-90197320D01*
X126687458Y-90134410D01*
X126749153Y-90099278D01*
X126750881Y-90098882D01*
X126764343Y-90095900D01*
X126786602Y-90095900D01*
X126823931Y-90092962D01*
X126972617Y-90049765D01*
X126976604Y-90048882D01*
X126980871Y-90049170D01*
X127003854Y-90045900D01*
X127289806Y-90045900D01*
X127378633Y-90028231D01*
X127436347Y-90016751D01*
X127447017Y-90012330D01*
X127457175Y-90009979D01*
X127482623Y-90011457D01*
X127507965Y-90008732D01*
X127517456Y-90013482D01*
X127528052Y-90014098D01*
X127548661Y-90029100D01*
X127571454Y-90040508D01*
X127576869Y-90049634D01*
X127585451Y-90055881D01*
X127594677Y-90079643D01*
X127607685Y-90101564D01*
X127609835Y-90118683D01*
X127611148Y-90122064D01*
X127610598Y-90124761D01*
X127611600Y-90132731D01*
X127611600Y-90783327D01*
X127591598Y-90851448D01*
X127559150Y-90884481D01*
X127559615Y-90885086D01*
X127450002Y-90969194D01*
X127449981Y-90969213D01*
X127356913Y-91062281D01*
X127356894Y-91062302D01*
X127275299Y-91168639D01*
X127275294Y-91168646D01*
X127209477Y-91282645D01*
X127209471Y-91282655D01*
X127158171Y-91406505D01*
X127124099Y-91533661D01*
X127124096Y-91533674D01*
X127106600Y-91666571D01*
X127106600Y-91666574D01*
X127106600Y-92232400D01*
X127108174Y-92254403D01*
X127111827Y-92305481D01*
X127137171Y-92391793D01*
X127153004Y-92445716D01*
X127153005Y-92445717D01*
X127228284Y-92562854D01*
X127232023Y-92568671D01*
X127342481Y-92664384D01*
X127475430Y-92725100D01*
X127620100Y-92745900D01*
X127620103Y-92745900D01*
X129120094Y-92745900D01*
X129120100Y-92745900D01*
X129193179Y-92740673D01*
X129333416Y-92699496D01*
X129456371Y-92620477D01*
X129552084Y-92510019D01*
X129612800Y-92377070D01*
X129633600Y-92232400D01*
X129633600Y-91666574D01*
X129619058Y-91556122D01*
X129616103Y-91533674D01*
X129616100Y-91533661D01*
X129610345Y-91512185D01*
X129590229Y-91437110D01*
X129582029Y-91406508D01*
X129582028Y-91406505D01*
X129582027Y-91406501D01*
X129549020Y-91326816D01*
X129541432Y-91256230D01*
X129573211Y-91192743D01*
X129634269Y-91156515D01*
X129705220Y-91159049D01*
X129754525Y-91189506D01*
X130077204Y-91512185D01*
X130111230Y-91574497D01*
X130113030Y-91617725D01*
X130106600Y-91666574D01*
X130106600Y-92232400D01*
X130108174Y-92254403D01*
X130111827Y-92305481D01*
X130137171Y-92391793D01*
X130153004Y-92445716D01*
X130153005Y-92445717D01*
X130228284Y-92562854D01*
X130232023Y-92568671D01*
X130342481Y-92664384D01*
X130475430Y-92725100D01*
X130620100Y-92745900D01*
X130620103Y-92745900D01*
X132120094Y-92745900D01*
X132120100Y-92745900D01*
X132193179Y-92740673D01*
X132333416Y-92699496D01*
X132456371Y-92620477D01*
X132552084Y-92510019D01*
X132612800Y-92377070D01*
X132633600Y-92232400D01*
X132633600Y-91666574D01*
X132619058Y-91556122D01*
X132616103Y-91533674D01*
X132616100Y-91533661D01*
X132610345Y-91512185D01*
X132590229Y-91437110D01*
X132582029Y-91406508D01*
X132582028Y-91406505D01*
X132582027Y-91406501D01*
X132549020Y-91326816D01*
X132541432Y-91256230D01*
X132573211Y-91192743D01*
X132634269Y-91156515D01*
X132705220Y-91159049D01*
X132754525Y-91189506D01*
X133077204Y-91512185D01*
X133111230Y-91574497D01*
X133113030Y-91617725D01*
X133106600Y-91666574D01*
X133106600Y-92232400D01*
X133108174Y-92254403D01*
X133111827Y-92305481D01*
X133137171Y-92391793D01*
X133153004Y-92445716D01*
X133153005Y-92445717D01*
X133228284Y-92562854D01*
X133232023Y-92568671D01*
X133342481Y-92664384D01*
X133475430Y-92725100D01*
X133620100Y-92745900D01*
X133620103Y-92745900D01*
X135120094Y-92745900D01*
X135120100Y-92745900D01*
X135193179Y-92740673D01*
X135333416Y-92699496D01*
X135456371Y-92620477D01*
X135552084Y-92510019D01*
X135612800Y-92377070D01*
X135633600Y-92232400D01*
X135633600Y-91666574D01*
X135619058Y-91556122D01*
X135616103Y-91533674D01*
X135616100Y-91533661D01*
X135610345Y-91512185D01*
X135582027Y-91406501D01*
X135530729Y-91282657D01*
X135464903Y-91168643D01*
X135434381Y-91128866D01*
X135383305Y-91062302D01*
X135383286Y-91062281D01*
X135290218Y-90969213D01*
X135290197Y-90969194D01*
X135183860Y-90887599D01*
X135183853Y-90887594D01*
X135069854Y-90821777D01*
X135069844Y-90821771D01*
X134964132Y-90777984D01*
X134945999Y-90770473D01*
X134945998Y-90770472D01*
X134945994Y-90770471D01*
X134818838Y-90736399D01*
X134818825Y-90736396D01*
X134685928Y-90718900D01*
X134685926Y-90718900D01*
X134481471Y-90718900D01*
X134413350Y-90698898D01*
X134392376Y-90681995D01*
X134086750Y-90376369D01*
X134052724Y-90314057D01*
X134057789Y-90243242D01*
X134100336Y-90186406D01*
X134127627Y-90170865D01*
X134147414Y-90162669D01*
X134239384Y-90124574D01*
X134363616Y-90041565D01*
X134469265Y-89935916D01*
X134552274Y-89811684D01*
X134609451Y-89673646D01*
X134638600Y-89527106D01*
X134638600Y-89495756D01*
X134643603Y-89460603D01*
X134648719Y-89442994D01*
X134655729Y-89418866D01*
X134658600Y-89382389D01*
X134658599Y-88882412D01*
X134655729Y-88845934D01*
X134647789Y-88818603D01*
X134643603Y-88804193D01*
X134638600Y-88769042D01*
X134638600Y-88245756D01*
X134643603Y-88210603D01*
X134647238Y-88198092D01*
X134655729Y-88168866D01*
X134658600Y-88132389D01*
X134658599Y-87632412D01*
X134655729Y-87595934D01*
X134653973Y-87589891D01*
X134643603Y-87554193D01*
X134638600Y-87519042D01*
X134638600Y-86995756D01*
X134643603Y-86960603D01*
X134654506Y-86923074D01*
X134655729Y-86918866D01*
X134658600Y-86882389D01*
X134658599Y-86382412D01*
X134655729Y-86345934D01*
X134653973Y-86339891D01*
X134643603Y-86304193D01*
X134640754Y-86292241D01*
X134638600Y-86280742D01*
X134638600Y-86237694D01*
X134609451Y-86091154D01*
X134602853Y-86075226D01*
X134559048Y-85969471D01*
X134552274Y-85953116D01*
X134469265Y-85828884D01*
X134363616Y-85723235D01*
X130964977Y-82324596D01*
X130930951Y-82262284D01*
X130936016Y-82191469D01*
X130978563Y-82134633D01*
X131045083Y-82109822D01*
X131054072Y-82109501D01*
X132037330Y-82109501D01*
X132105451Y-82129503D01*
G37*
G04 #@! TD.AperFunction*
G04 #@! TA.AperFunction,Conductor*
G36*
X120421082Y-92926655D02*
G01*
X120472956Y-92957937D01*
X124483824Y-96968805D01*
X124517850Y-97031117D01*
X124512785Y-97101932D01*
X124470238Y-97158768D01*
X124403718Y-97183579D01*
X124394729Y-97183900D01*
X120102416Y-97183900D01*
X120034295Y-97163898D01*
X120000480Y-97131961D01*
X119997157Y-97127387D01*
X119946306Y-97057396D01*
X119946303Y-97057393D01*
X119946301Y-97057390D01*
X119795109Y-96906198D01*
X119795106Y-96906196D01*
X119795104Y-96906194D01*
X119622109Y-96780506D01*
X119622107Y-96780505D01*
X119621020Y-96779839D01*
X119620691Y-96779475D01*
X119618104Y-96777596D01*
X119618498Y-96777052D01*
X119573383Y-96727196D01*
X119561770Y-96657156D01*
X119589866Y-96591955D01*
X119618230Y-96567378D01*
X119618104Y-96567204D01*
X119620130Y-96565731D01*
X119621020Y-96564961D01*
X119622097Y-96564299D01*
X119622109Y-96564294D01*
X119795104Y-96438606D01*
X119946306Y-96287404D01*
X120071994Y-96114409D01*
X120169072Y-95923883D01*
X120235149Y-95720516D01*
X120268600Y-95509316D01*
X120268600Y-95295484D01*
X120235149Y-95084284D01*
X120169072Y-94880917D01*
X120071994Y-94690391D01*
X119946306Y-94517396D01*
X119946303Y-94517393D01*
X119946301Y-94517390D01*
X119795109Y-94366198D01*
X119795106Y-94366196D01*
X119795104Y-94366194D01*
X119622109Y-94240506D01*
X119622107Y-94240505D01*
X119621020Y-94239839D01*
X119620691Y-94239475D01*
X119618104Y-94237596D01*
X119618498Y-94237052D01*
X119573383Y-94187196D01*
X119561770Y-94117156D01*
X119589866Y-94051955D01*
X119618230Y-94027378D01*
X119618104Y-94027204D01*
X119620130Y-94025731D01*
X119621020Y-94024961D01*
X119622097Y-94024299D01*
X119622109Y-94024294D01*
X119795104Y-93898606D01*
X119946306Y-93747404D01*
X120071994Y-93574409D01*
X120169072Y-93383883D01*
X120235149Y-93180516D01*
X120259413Y-93027318D01*
X120289824Y-92963168D01*
X120350093Y-92925641D01*
X120421082Y-92926655D01*
G37*
G04 #@! TD.AperFunction*
G04 #@! TA.AperFunction,Conductor*
G36*
X126514633Y-82129503D02*
G01*
X126561126Y-82183159D01*
X126571230Y-82253433D01*
X126570091Y-82260083D01*
X126561600Y-82302767D01*
X126561600Y-82302770D01*
X126561600Y-82462030D01*
X126592670Y-82618231D01*
X126653617Y-82765368D01*
X126682982Y-82809316D01*
X126742098Y-82897790D01*
X126742103Y-82897796D01*
X126854703Y-83010396D01*
X126854709Y-83010401D01*
X126854711Y-83010403D01*
X126987132Y-83098883D01*
X127134269Y-83159830D01*
X127290470Y-83190900D01*
X127290471Y-83190900D01*
X127449729Y-83190900D01*
X127449730Y-83190900D01*
X127605931Y-83159830D01*
X127628475Y-83150491D01*
X127676693Y-83140900D01*
X129583729Y-83140900D01*
X129651850Y-83160902D01*
X129672824Y-83177805D01*
X132268824Y-85773805D01*
X132279606Y-85793551D01*
X132294343Y-85810558D01*
X132296290Y-85824105D01*
X132302850Y-85836117D01*
X132301244Y-85858560D01*
X132304447Y-85880832D01*
X132298761Y-85893281D01*
X132297785Y-85906932D01*
X132284300Y-85924945D01*
X132274953Y-85945412D01*
X132263440Y-85952810D01*
X132255238Y-85963768D01*
X132234154Y-85971631D01*
X132215227Y-85983796D01*
X132192956Y-85986998D01*
X132188718Y-85988579D01*
X132179729Y-85988900D01*
X131953854Y-85988900D01*
X131918702Y-85983897D01*
X131773932Y-85941838D01*
X131773928Y-85941837D01*
X131736611Y-85938900D01*
X131736602Y-85938900D01*
X129953598Y-85938900D01*
X129953589Y-85938900D01*
X129916271Y-85941837D01*
X129916267Y-85941838D01*
X129756502Y-85988253D01*
X129756490Y-85988258D01*
X129753618Y-85989957D01*
X129714078Y-86005073D01*
X129648860Y-86018047D01*
X129648853Y-86018049D01*
X129609845Y-86034207D01*
X129510815Y-86075226D01*
X129419680Y-86136121D01*
X129386587Y-86158232D01*
X129386581Y-86158237D01*
X127780938Y-87763880D01*
X127780933Y-87763886D01*
X127697927Y-87888114D01*
X127658254Y-87983894D01*
X127640749Y-88026154D01*
X127628179Y-88089347D01*
X127595271Y-88152257D01*
X127533576Y-88187388D01*
X127462681Y-88183587D01*
X127405095Y-88142062D01*
X127379101Y-88075995D01*
X127378600Y-88064765D01*
X127378600Y-87800889D01*
X127378599Y-87800888D01*
X127375662Y-87763571D01*
X127375662Y-87763570D01*
X127350071Y-87675484D01*
X127329245Y-87603799D01*
X127329243Y-87603797D01*
X127329243Y-87603794D01*
X127244556Y-87460598D01*
X127244555Y-87460597D01*
X127244553Y-87460593D01*
X127244549Y-87460589D01*
X127243808Y-87459633D01*
X127243456Y-87458737D01*
X127240518Y-87453769D01*
X127241319Y-87453295D01*
X127217856Y-87393550D01*
X127231752Y-87323926D01*
X127243808Y-87305167D01*
X127244545Y-87304214D01*
X127244553Y-87304207D01*
X127308470Y-87196129D01*
X127329243Y-87161005D01*
X127329243Y-87161003D01*
X127329245Y-87161001D01*
X127375662Y-87001231D01*
X127378599Y-86963911D01*
X127378600Y-86963911D01*
X127378600Y-86530889D01*
X127378599Y-86530888D01*
X127375662Y-86493571D01*
X127375662Y-86493570D01*
X127365216Y-86457613D01*
X127329245Y-86333799D01*
X127329243Y-86333797D01*
X127329243Y-86333794D01*
X127244556Y-86190598D01*
X127244555Y-86190597D01*
X127244553Y-86190593D01*
X127244549Y-86190589D01*
X127243808Y-86189633D01*
X127243456Y-86188737D01*
X127240518Y-86183769D01*
X127241319Y-86183295D01*
X127217856Y-86123550D01*
X127231752Y-86053926D01*
X127243808Y-86035167D01*
X127244545Y-86034214D01*
X127244553Y-86034207D01*
X127310814Y-85922166D01*
X127329243Y-85891005D01*
X127329243Y-85891003D01*
X127329245Y-85891001D01*
X127375662Y-85731231D01*
X127378599Y-85693911D01*
X127378600Y-85693911D01*
X127378600Y-85260889D01*
X127378599Y-85260888D01*
X127375662Y-85223571D01*
X127375662Y-85223570D01*
X127375662Y-85223569D01*
X127329245Y-85063799D01*
X127329243Y-85063797D01*
X127329243Y-85063794D01*
X127244555Y-84920596D01*
X127244550Y-84920589D01*
X127126910Y-84802949D01*
X127126903Y-84802944D01*
X126983705Y-84718256D01*
X126823929Y-84671837D01*
X126786611Y-84668900D01*
X126786602Y-84668900D01*
X125956027Y-84668900D01*
X125907808Y-84659308D01*
X125844892Y-84633247D01*
X125844887Y-84633246D01*
X125844885Y-84633245D01*
X125770924Y-84618533D01*
X125722496Y-84608900D01*
X125722494Y-84608900D01*
X120189209Y-84608900D01*
X120121088Y-84588898D01*
X120076944Y-84540106D01*
X120075213Y-84536709D01*
X120071994Y-84530391D01*
X120068440Y-84525500D01*
X120041264Y-84488095D01*
X119946306Y-84357396D01*
X119946303Y-84357393D01*
X119946301Y-84357390D01*
X119795109Y-84206198D01*
X119795106Y-84206196D01*
X119795104Y-84206194D01*
X119622109Y-84080506D01*
X119622107Y-84080505D01*
X119621020Y-84079839D01*
X119620691Y-84079475D01*
X119618104Y-84077596D01*
X119618498Y-84077052D01*
X119573383Y-84027196D01*
X119561770Y-83957156D01*
X119589866Y-83891955D01*
X119618230Y-83867378D01*
X119618104Y-83867204D01*
X119620130Y-83865731D01*
X119621020Y-83864961D01*
X119622097Y-83864299D01*
X119622109Y-83864294D01*
X119795104Y-83738606D01*
X119946306Y-83587404D01*
X120071994Y-83414409D01*
X120169072Y-83223883D01*
X120235149Y-83020516D01*
X120268600Y-82809316D01*
X120268600Y-82595484D01*
X120235149Y-82384284D01*
X120199457Y-82274436D01*
X120197431Y-82203469D01*
X120234093Y-82142671D01*
X120297805Y-82111346D01*
X120319291Y-82109501D01*
X126446512Y-82109501D01*
X126514633Y-82129503D01*
G37*
G04 #@! TD.AperFunction*
G04 #@! TA.AperFunction,Conductor*
G36*
X123776073Y-71992650D02*
G01*
X123795068Y-71992922D01*
X123809431Y-72002445D01*
X123825968Y-72007301D01*
X123838408Y-72021658D01*
X123854240Y-72032155D01*
X123861174Y-72047931D01*
X123872461Y-72060957D01*
X123875164Y-72079760D01*
X123882808Y-72097150D01*
X123882343Y-72129689D01*
X123882565Y-72131231D01*
X123882299Y-72132987D01*
X123861600Y-72263678D01*
X123861600Y-72501122D01*
X123898744Y-72735641D01*
X123955061Y-72908967D01*
X123957089Y-72979932D01*
X123920426Y-73040730D01*
X123856714Y-73072055D01*
X123835228Y-73073901D01*
X120389695Y-73073901D01*
X120359779Y-73065117D01*
X120329310Y-73058489D01*
X120324214Y-73054674D01*
X120321574Y-73053899D01*
X120300600Y-73036996D01*
X120262518Y-72998914D01*
X120228492Y-72936602D01*
X120231783Y-72870875D01*
X120235147Y-72860522D01*
X120235147Y-72860521D01*
X120235149Y-72860516D01*
X120268600Y-72649316D01*
X120268600Y-72435484D01*
X120235149Y-72224284D01*
X120211739Y-72152234D01*
X120209713Y-72081266D01*
X120246376Y-72020469D01*
X120310088Y-71989144D01*
X120331573Y-71987299D01*
X123757847Y-71987299D01*
X123776073Y-71992650D01*
G37*
G04 #@! TD.AperFunction*
G04 #@! TA.AperFunction,Conductor*
G36*
X123903349Y-65210901D02*
G01*
X123949842Y-65264557D01*
X123959946Y-65334831D01*
X123955063Y-65355825D01*
X123898744Y-65529159D01*
X123861600Y-65763678D01*
X123861600Y-66001122D01*
X123898744Y-66235641D01*
X123898745Y-66235646D01*
X123972116Y-66461458D01*
X123972118Y-66461463D01*
X124079915Y-66673027D01*
X124079917Y-66673030D01*
X124114422Y-66720521D01*
X124219480Y-66865122D01*
X124219482Y-66865124D01*
X124219484Y-66865127D01*
X124387372Y-67033015D01*
X124387375Y-67033017D01*
X124387378Y-67033020D01*
X124559662Y-67158191D01*
X124603015Y-67214412D01*
X124611600Y-67260126D01*
X124611600Y-70608083D01*
X124591598Y-70676204D01*
X124537942Y-70722697D01*
X124467668Y-70732801D01*
X124461024Y-70731663D01*
X124443915Y-70728259D01*
X124403895Y-70720299D01*
X124403893Y-70720299D01*
X120274606Y-70720299D01*
X120206485Y-70700297D01*
X120159992Y-70646641D01*
X120149888Y-70576367D01*
X120162337Y-70537099D01*
X120169072Y-70523883D01*
X120235149Y-70320516D01*
X120268600Y-70109316D01*
X120268600Y-69895484D01*
X120235149Y-69684284D01*
X120169072Y-69480917D01*
X120071994Y-69290391D01*
X119946306Y-69117396D01*
X119946303Y-69117393D01*
X119946301Y-69117390D01*
X119795109Y-68966198D01*
X119795106Y-68966196D01*
X119795104Y-68966194D01*
X119622109Y-68840506D01*
X119622107Y-68840505D01*
X119621020Y-68839839D01*
X119620691Y-68839475D01*
X119618104Y-68837596D01*
X119618498Y-68837052D01*
X119573383Y-68787196D01*
X119561770Y-68717156D01*
X119589866Y-68651955D01*
X119618230Y-68627378D01*
X119618104Y-68627204D01*
X119620130Y-68625731D01*
X119621020Y-68624961D01*
X119622097Y-68624299D01*
X119622109Y-68624294D01*
X119795104Y-68498606D01*
X119946306Y-68347404D01*
X120071994Y-68174409D01*
X120169072Y-67983883D01*
X120235149Y-67780516D01*
X120268600Y-67569316D01*
X120268600Y-67355484D01*
X120254181Y-67264449D01*
X120263280Y-67194039D01*
X120289530Y-67155649D01*
X122217379Y-65227801D01*
X122279689Y-65193778D01*
X122306472Y-65190899D01*
X123835228Y-65190899D01*
X123903349Y-65210901D01*
G37*
G04 #@! TD.AperFunction*
M02*
