G04 #@! TF.GenerationSoftware,KiCad,Pcbnew,9.0.1+1*
G04 #@! TF.CreationDate,2025-11-20T17:42:09+00:00*
G04 #@! TF.ProjectId,com4bbb,636f6d34-6262-4622-9e6b-696361645f70,rev?*
G04 #@! TF.SameCoordinates,Original*
G04 #@! TF.FileFunction,Paste,Top*
G04 #@! TF.FilePolarity,Positive*
%FSLAX46Y46*%
G04 Gerber Fmt 4.6, Leading zero omitted, Abs format (unit mm)*
G04 Created by KiCad (PCBNEW 9.0.1+1) date 2025-11-20 17:42:09*
%MOMM*%
%LPD*%
G01*
G04 APERTURE LIST*
%ADD10R,0.850000X1.600000*%
%ADD11R,1.500000X0.900000*%
%ADD12R,0.900000X1.500000*%
%ADD13R,0.900000X0.900000*%
%ADD14R,1.650000X0.400000*%
%ADD15R,0.700000X1.825000*%
%ADD16R,1.500000X2.000000*%
%ADD17R,2.000000X1.350000*%
%ADD18R,2.500000X1.430000*%
G04 APERTURE END LIST*
G36*
G01*
X124950100Y-90622400D02*
X125290100Y-90622400D01*
G75*
G02*
X125430100Y-90762400I0J-140000D01*
G01*
X125430100Y-91042400D01*
G75*
G02*
X125290100Y-91182400I-140000J0D01*
G01*
X124950100Y-91182400D01*
G75*
G02*
X124810100Y-91042400I0J140000D01*
G01*
X124810100Y-90762400D01*
G75*
G02*
X124950100Y-90622400I140000J0D01*
G01*
G37*
G36*
G01*
X124950100Y-91582400D02*
X125290100Y-91582400D01*
G75*
G02*
X125430100Y-91722400I0J-140000D01*
G01*
X125430100Y-92002400D01*
G75*
G02*
X125290100Y-92142400I-140000J0D01*
G01*
X124950100Y-92142400D01*
G75*
G02*
X124810100Y-92002400I0J140000D01*
G01*
X124810100Y-91722400D01*
G75*
G02*
X124950100Y-91582400I140000J0D01*
G01*
G37*
G36*
G01*
X154590100Y-75567400D02*
X154590100Y-75197400D01*
G75*
G02*
X154725100Y-75062400I135000J0D01*
G01*
X154995100Y-75062400D01*
G75*
G02*
X155130100Y-75197400I0J-135000D01*
G01*
X155130100Y-75567400D01*
G75*
G02*
X154995100Y-75702400I-135000J0D01*
G01*
X154725100Y-75702400D01*
G75*
G02*
X154590100Y-75567400I0J135000D01*
G01*
G37*
G36*
G01*
X155610100Y-75567400D02*
X155610100Y-75197400D01*
G75*
G02*
X155745100Y-75062400I135000J0D01*
G01*
X156015100Y-75062400D01*
G75*
G02*
X156150100Y-75197400I0J-135000D01*
G01*
X156150100Y-75567400D01*
G75*
G02*
X156015100Y-75702400I-135000J0D01*
G01*
X155745100Y-75702400D01*
G75*
G02*
X155610100Y-75567400I0J135000D01*
G01*
G37*
G36*
G01*
X154590100Y-77317400D02*
X154590100Y-76947400D01*
G75*
G02*
X154725100Y-76812400I135000J0D01*
G01*
X154995100Y-76812400D01*
G75*
G02*
X155130100Y-76947400I0J-135000D01*
G01*
X155130100Y-77317400D01*
G75*
G02*
X154995100Y-77452400I-135000J0D01*
G01*
X154725100Y-77452400D01*
G75*
G02*
X154590100Y-77317400I0J135000D01*
G01*
G37*
G36*
G01*
X155610100Y-77317400D02*
X155610100Y-76947400D01*
G75*
G02*
X155745100Y-76812400I135000J0D01*
G01*
X156015100Y-76812400D01*
G75*
G02*
X156150100Y-76947400I0J-135000D01*
G01*
X156150100Y-77317400D01*
G75*
G02*
X156015100Y-77452400I-135000J0D01*
G01*
X155745100Y-77452400D01*
G75*
G02*
X155610100Y-77317400I0J135000D01*
G01*
G37*
G36*
G01*
X154590100Y-80817400D02*
X154590100Y-80447400D01*
G75*
G02*
X154725100Y-80312400I135000J0D01*
G01*
X154995100Y-80312400D01*
G75*
G02*
X155130100Y-80447400I0J-135000D01*
G01*
X155130100Y-80817400D01*
G75*
G02*
X154995100Y-80952400I-135000J0D01*
G01*
X154725100Y-80952400D01*
G75*
G02*
X154590100Y-80817400I0J135000D01*
G01*
G37*
G36*
G01*
X155610100Y-80817400D02*
X155610100Y-80447400D01*
G75*
G02*
X155745100Y-80312400I135000J0D01*
G01*
X156015100Y-80312400D01*
G75*
G02*
X156150100Y-80447400I0J-135000D01*
G01*
X156150100Y-80817400D01*
G75*
G02*
X156015100Y-80952400I-135000J0D01*
G01*
X155745100Y-80952400D01*
G75*
G02*
X155610100Y-80817400I0J135000D01*
G01*
G37*
G36*
G01*
X131820100Y-89137400D02*
X131820100Y-89437400D01*
G75*
G02*
X131670100Y-89587400I-150000J0D01*
G01*
X130020100Y-89587400D01*
G75*
G02*
X129870100Y-89437400I0J150000D01*
G01*
X129870100Y-89137400D01*
G75*
G02*
X130020100Y-88987400I150000J0D01*
G01*
X131670100Y-88987400D01*
G75*
G02*
X131820100Y-89137400I0J-150000D01*
G01*
G37*
G36*
G01*
X131820100Y-87867400D02*
X131820100Y-88167400D01*
G75*
G02*
X131670100Y-88317400I-150000J0D01*
G01*
X130020100Y-88317400D01*
G75*
G02*
X129870100Y-88167400I0J150000D01*
G01*
X129870100Y-87867400D01*
G75*
G02*
X130020100Y-87717400I150000J0D01*
G01*
X131670100Y-87717400D01*
G75*
G02*
X131820100Y-87867400I0J-150000D01*
G01*
G37*
G36*
G01*
X131820100Y-86597400D02*
X131820100Y-86897400D01*
G75*
G02*
X131670100Y-87047400I-150000J0D01*
G01*
X130020100Y-87047400D01*
G75*
G02*
X129870100Y-86897400I0J150000D01*
G01*
X129870100Y-86597400D01*
G75*
G02*
X130020100Y-86447400I150000J0D01*
G01*
X131670100Y-86447400D01*
G75*
G02*
X131820100Y-86597400I0J-150000D01*
G01*
G37*
G36*
G01*
X131820100Y-85327400D02*
X131820100Y-85627400D01*
G75*
G02*
X131670100Y-85777400I-150000J0D01*
G01*
X130020100Y-85777400D01*
G75*
G02*
X129870100Y-85627400I0J150000D01*
G01*
X129870100Y-85327400D01*
G75*
G02*
X130020100Y-85177400I150000J0D01*
G01*
X131670100Y-85177400D01*
G75*
G02*
X131820100Y-85327400I0J-150000D01*
G01*
G37*
G36*
G01*
X126870100Y-85327400D02*
X126870100Y-85627400D01*
G75*
G02*
X126720100Y-85777400I-150000J0D01*
G01*
X125070100Y-85777400D01*
G75*
G02*
X124920100Y-85627400I0J150000D01*
G01*
X124920100Y-85327400D01*
G75*
G02*
X125070100Y-85177400I150000J0D01*
G01*
X126720100Y-85177400D01*
G75*
G02*
X126870100Y-85327400I0J-150000D01*
G01*
G37*
G36*
G01*
X126870100Y-86597400D02*
X126870100Y-86897400D01*
G75*
G02*
X126720100Y-87047400I-150000J0D01*
G01*
X125070100Y-87047400D01*
G75*
G02*
X124920100Y-86897400I0J150000D01*
G01*
X124920100Y-86597400D01*
G75*
G02*
X125070100Y-86447400I150000J0D01*
G01*
X126720100Y-86447400D01*
G75*
G02*
X126870100Y-86597400I0J-150000D01*
G01*
G37*
G36*
G01*
X126870100Y-87867400D02*
X126870100Y-88167400D01*
G75*
G02*
X126720100Y-88317400I-150000J0D01*
G01*
X125070100Y-88317400D01*
G75*
G02*
X124920100Y-88167400I0J150000D01*
G01*
X124920100Y-87867400D01*
G75*
G02*
X125070100Y-87717400I150000J0D01*
G01*
X126720100Y-87717400D01*
G75*
G02*
X126870100Y-87867400I0J-150000D01*
G01*
G37*
G36*
G01*
X126870100Y-89137400D02*
X126870100Y-89437400D01*
G75*
G02*
X126720100Y-89587400I-150000J0D01*
G01*
X125070100Y-89587400D01*
G75*
G02*
X124920100Y-89437400I0J150000D01*
G01*
X124920100Y-89137400D01*
G75*
G02*
X125070100Y-88987400I150000J0D01*
G01*
X126720100Y-88987400D01*
G75*
G02*
X126870100Y-89137400I0J-150000D01*
G01*
G37*
G36*
G01*
X153595100Y-75126150D02*
X153595100Y-75638650D01*
G75*
G02*
X153376350Y-75857400I-218750J0D01*
G01*
X152938850Y-75857400D01*
G75*
G02*
X152720100Y-75638650I0J218750D01*
G01*
X152720100Y-75126150D01*
G75*
G02*
X152938850Y-74907400I218750J0D01*
G01*
X153376350Y-74907400D01*
G75*
G02*
X153595100Y-75126150I0J-218750D01*
G01*
G37*
G36*
G01*
X152020100Y-75126150D02*
X152020100Y-75638650D01*
G75*
G02*
X151801350Y-75857400I-218750J0D01*
G01*
X151363850Y-75857400D01*
G75*
G02*
X151145100Y-75638650I0J218750D01*
G01*
X151145100Y-75126150D01*
G75*
G02*
X151363850Y-74907400I218750J0D01*
G01*
X151801350Y-74907400D01*
G75*
G02*
X152020100Y-75126150I0J-218750D01*
G01*
G37*
G36*
G01*
X153595100Y-76876150D02*
X153595100Y-77388650D01*
G75*
G02*
X153376350Y-77607400I-218750J0D01*
G01*
X152938850Y-77607400D01*
G75*
G02*
X152720100Y-77388650I0J218750D01*
G01*
X152720100Y-76876150D01*
G75*
G02*
X152938850Y-76657400I218750J0D01*
G01*
X153376350Y-76657400D01*
G75*
G02*
X153595100Y-76876150I0J-218750D01*
G01*
G37*
G36*
G01*
X152020100Y-76876150D02*
X152020100Y-77388650D01*
G75*
G02*
X151801350Y-77607400I-218750J0D01*
G01*
X151363850Y-77607400D01*
G75*
G02*
X151145100Y-77388650I0J218750D01*
G01*
X151145100Y-76876150D01*
G75*
G02*
X151363850Y-76657400I218750J0D01*
G01*
X151801350Y-76657400D01*
G75*
G02*
X152020100Y-76876150I0J-218750D01*
G01*
G37*
G36*
G01*
X153595100Y-78626150D02*
X153595100Y-79138650D01*
G75*
G02*
X153376350Y-79357400I-218750J0D01*
G01*
X152938850Y-79357400D01*
G75*
G02*
X152720100Y-79138650I0J218750D01*
G01*
X152720100Y-78626150D01*
G75*
G02*
X152938850Y-78407400I218750J0D01*
G01*
X153376350Y-78407400D01*
G75*
G02*
X153595100Y-78626150I0J-218750D01*
G01*
G37*
G36*
G01*
X152020100Y-78626150D02*
X152020100Y-79138650D01*
G75*
G02*
X151801350Y-79357400I-218750J0D01*
G01*
X151363850Y-79357400D01*
G75*
G02*
X151145100Y-79138650I0J218750D01*
G01*
X151145100Y-78626150D01*
G75*
G02*
X151363850Y-78407400I218750J0D01*
G01*
X151801350Y-78407400D01*
G75*
G02*
X152020100Y-78626150I0J-218750D01*
G01*
G37*
G36*
G01*
X153595100Y-80376150D02*
X153595100Y-80888650D01*
G75*
G02*
X153376350Y-81107400I-218750J0D01*
G01*
X152938850Y-81107400D01*
G75*
G02*
X152720100Y-80888650I0J218750D01*
G01*
X152720100Y-80376150D01*
G75*
G02*
X152938850Y-80157400I218750J0D01*
G01*
X153376350Y-80157400D01*
G75*
G02*
X153595100Y-80376150I0J-218750D01*
G01*
G37*
G36*
G01*
X152020100Y-80376150D02*
X152020100Y-80888650D01*
G75*
G02*
X151801350Y-81107400I-218750J0D01*
G01*
X151363850Y-81107400D01*
G75*
G02*
X151145100Y-80888650I0J218750D01*
G01*
X151145100Y-80376150D01*
G75*
G02*
X151363850Y-80157400I218750J0D01*
G01*
X151801350Y-80157400D01*
G75*
G02*
X152020100Y-80376150I0J-218750D01*
G01*
G37*
G36*
G01*
X153595100Y-82126150D02*
X153595100Y-82638650D01*
G75*
G02*
X153376350Y-82857400I-218750J0D01*
G01*
X152938850Y-82857400D01*
G75*
G02*
X152720100Y-82638650I0J218750D01*
G01*
X152720100Y-82126150D01*
G75*
G02*
X152938850Y-81907400I218750J0D01*
G01*
X153376350Y-81907400D01*
G75*
G02*
X153595100Y-82126150I0J-218750D01*
G01*
G37*
G36*
G01*
X152020100Y-82126150D02*
X152020100Y-82638650D01*
G75*
G02*
X151801350Y-82857400I-218750J0D01*
G01*
X151363850Y-82857400D01*
G75*
G02*
X151145100Y-82638650I0J218750D01*
G01*
X151145100Y-82126150D01*
G75*
G02*
X151363850Y-81907400I218750J0D01*
G01*
X151801350Y-81907400D01*
G75*
G02*
X152020100Y-82126150I0J-218750D01*
G01*
G37*
G36*
G01*
X153595100Y-83876150D02*
X153595100Y-84388650D01*
G75*
G02*
X153376350Y-84607400I-218750J0D01*
G01*
X152938850Y-84607400D01*
G75*
G02*
X152720100Y-84388650I0J218750D01*
G01*
X152720100Y-83876150D01*
G75*
G02*
X152938850Y-83657400I218750J0D01*
G01*
X153376350Y-83657400D01*
G75*
G02*
X153595100Y-83876150I0J-218750D01*
G01*
G37*
G36*
G01*
X152020100Y-83876150D02*
X152020100Y-84388650D01*
G75*
G02*
X151801350Y-84607400I-218750J0D01*
G01*
X151363850Y-84607400D01*
G75*
G02*
X151145100Y-84388650I0J218750D01*
G01*
X151145100Y-83876150D01*
G75*
G02*
X151363850Y-83657400I218750J0D01*
G01*
X151801350Y-83657400D01*
G75*
G02*
X152020100Y-83876150I0J-218750D01*
G01*
G37*
G36*
G01*
X153595100Y-85626150D02*
X153595100Y-86138650D01*
G75*
G02*
X153376350Y-86357400I-218750J0D01*
G01*
X152938850Y-86357400D01*
G75*
G02*
X152720100Y-86138650I0J218750D01*
G01*
X152720100Y-85626150D01*
G75*
G02*
X152938850Y-85407400I218750J0D01*
G01*
X153376350Y-85407400D01*
G75*
G02*
X153595100Y-85626150I0J-218750D01*
G01*
G37*
G36*
G01*
X152020100Y-85626150D02*
X152020100Y-86138650D01*
G75*
G02*
X151801350Y-86357400I-218750J0D01*
G01*
X151363850Y-86357400D01*
G75*
G02*
X151145100Y-86138650I0J218750D01*
G01*
X151145100Y-85626150D01*
G75*
G02*
X151363850Y-85407400I218750J0D01*
G01*
X151801350Y-85407400D01*
G75*
G02*
X152020100Y-85626150I0J-218750D01*
G01*
G37*
G36*
G01*
X153595100Y-87376150D02*
X153595100Y-87888650D01*
G75*
G02*
X153376350Y-88107400I-218750J0D01*
G01*
X152938850Y-88107400D01*
G75*
G02*
X152720100Y-87888650I0J218750D01*
G01*
X152720100Y-87376150D01*
G75*
G02*
X152938850Y-87157400I218750J0D01*
G01*
X153376350Y-87157400D01*
G75*
G02*
X153595100Y-87376150I0J-218750D01*
G01*
G37*
G36*
G01*
X152020100Y-87376150D02*
X152020100Y-87888650D01*
G75*
G02*
X151801350Y-88107400I-218750J0D01*
G01*
X151363850Y-88107400D01*
G75*
G02*
X151145100Y-87888650I0J218750D01*
G01*
X151145100Y-87376150D01*
G75*
G02*
X151363850Y-87157400I218750J0D01*
G01*
X151801350Y-87157400D01*
G75*
G02*
X152020100Y-87376150I0J-218750D01*
G01*
G37*
G36*
G01*
X153595100Y-89126150D02*
X153595100Y-89638650D01*
G75*
G02*
X153376350Y-89857400I-218750J0D01*
G01*
X152938850Y-89857400D01*
G75*
G02*
X152720100Y-89638650I0J218750D01*
G01*
X152720100Y-89126150D01*
G75*
G02*
X152938850Y-88907400I218750J0D01*
G01*
X153376350Y-88907400D01*
G75*
G02*
X153595100Y-89126150I0J-218750D01*
G01*
G37*
G36*
G01*
X152020100Y-89126150D02*
X152020100Y-89638650D01*
G75*
G02*
X151801350Y-89857400I-218750J0D01*
G01*
X151363850Y-89857400D01*
G75*
G02*
X151145100Y-89638650I0J218750D01*
G01*
X151145100Y-89126150D01*
G75*
G02*
X151363850Y-88907400I218750J0D01*
G01*
X151801350Y-88907400D01*
G75*
G02*
X152020100Y-89126150I0J-218750D01*
G01*
G37*
G36*
G01*
X153595100Y-90876150D02*
X153595100Y-91388650D01*
G75*
G02*
X153376350Y-91607400I-218750J0D01*
G01*
X152938850Y-91607400D01*
G75*
G02*
X152720100Y-91388650I0J218750D01*
G01*
X152720100Y-90876150D01*
G75*
G02*
X152938850Y-90657400I218750J0D01*
G01*
X153376350Y-90657400D01*
G75*
G02*
X153595100Y-90876150I0J-218750D01*
G01*
G37*
G36*
G01*
X152020100Y-90876150D02*
X152020100Y-91388650D01*
G75*
G02*
X151801350Y-91607400I-218750J0D01*
G01*
X151363850Y-91607400D01*
G75*
G02*
X151145100Y-91388650I0J218750D01*
G01*
X151145100Y-90876150D01*
G75*
G02*
X151363850Y-90657400I218750J0D01*
G01*
X151801350Y-90657400D01*
G75*
G02*
X152020100Y-90876150I0J-218750D01*
G01*
G37*
G36*
G01*
X153595100Y-92626150D02*
X153595100Y-93138650D01*
G75*
G02*
X153376350Y-93357400I-218750J0D01*
G01*
X152938850Y-93357400D01*
G75*
G02*
X152720100Y-93138650I0J218750D01*
G01*
X152720100Y-92626150D01*
G75*
G02*
X152938850Y-92407400I218750J0D01*
G01*
X153376350Y-92407400D01*
G75*
G02*
X153595100Y-92626150I0J-218750D01*
G01*
G37*
G36*
G01*
X152020100Y-92626150D02*
X152020100Y-93138650D01*
G75*
G02*
X151801350Y-93357400I-218750J0D01*
G01*
X151363850Y-93357400D01*
G75*
G02*
X151145100Y-93138650I0J218750D01*
G01*
X151145100Y-92626150D01*
G75*
G02*
X151363850Y-92407400I218750J0D01*
G01*
X151801350Y-92407400D01*
G75*
G02*
X152020100Y-92626150I0J-218750D01*
G01*
G37*
G36*
G01*
X153595100Y-94376150D02*
X153595100Y-94888650D01*
G75*
G02*
X153376350Y-95107400I-218750J0D01*
G01*
X152938850Y-95107400D01*
G75*
G02*
X152720100Y-94888650I0J218750D01*
G01*
X152720100Y-94376150D01*
G75*
G02*
X152938850Y-94157400I218750J0D01*
G01*
X153376350Y-94157400D01*
G75*
G02*
X153595100Y-94376150I0J-218750D01*
G01*
G37*
G36*
G01*
X152020100Y-94376150D02*
X152020100Y-94888650D01*
G75*
G02*
X151801350Y-95107400I-218750J0D01*
G01*
X151363850Y-95107400D01*
G75*
G02*
X151145100Y-94888650I0J218750D01*
G01*
X151145100Y-94376150D01*
G75*
G02*
X151363850Y-94157400I218750J0D01*
G01*
X151801350Y-94157400D01*
G75*
G02*
X152020100Y-94376150I0J-218750D01*
G01*
G37*
G36*
G01*
X153595100Y-96126150D02*
X153595100Y-96638650D01*
G75*
G02*
X153376350Y-96857400I-218750J0D01*
G01*
X152938850Y-96857400D01*
G75*
G02*
X152720100Y-96638650I0J218750D01*
G01*
X152720100Y-96126150D01*
G75*
G02*
X152938850Y-95907400I218750J0D01*
G01*
X153376350Y-95907400D01*
G75*
G02*
X153595100Y-96126150I0J-218750D01*
G01*
G37*
G36*
G01*
X152020100Y-96126150D02*
X152020100Y-96638650D01*
G75*
G02*
X151801350Y-96857400I-218750J0D01*
G01*
X151363850Y-96857400D01*
G75*
G02*
X151145100Y-96638650I0J218750D01*
G01*
X151145100Y-96126150D01*
G75*
G02*
X151363850Y-95907400I218750J0D01*
G01*
X151801350Y-95907400D01*
G75*
G02*
X152020100Y-96126150I0J-218750D01*
G01*
G37*
G36*
G01*
X154580100Y-82567400D02*
X154580100Y-82197400D01*
G75*
G02*
X154715100Y-82062400I135000J0D01*
G01*
X154985100Y-82062400D01*
G75*
G02*
X155120100Y-82197400I0J-135000D01*
G01*
X155120100Y-82567400D01*
G75*
G02*
X154985100Y-82702400I-135000J0D01*
G01*
X154715100Y-82702400D01*
G75*
G02*
X154580100Y-82567400I0J135000D01*
G01*
G37*
G36*
G01*
X155600100Y-82567400D02*
X155600100Y-82197400D01*
G75*
G02*
X155735100Y-82062400I135000J0D01*
G01*
X156005100Y-82062400D01*
G75*
G02*
X156140100Y-82197400I0J-135000D01*
G01*
X156140100Y-82567400D01*
G75*
G02*
X156005100Y-82702400I-135000J0D01*
G01*
X155735100Y-82702400D01*
G75*
G02*
X155600100Y-82567400I0J135000D01*
G01*
G37*
G36*
G01*
X154590100Y-84317400D02*
X154590100Y-83947400D01*
G75*
G02*
X154725100Y-83812400I135000J0D01*
G01*
X154995100Y-83812400D01*
G75*
G02*
X155130100Y-83947400I0J-135000D01*
G01*
X155130100Y-84317400D01*
G75*
G02*
X154995100Y-84452400I-135000J0D01*
G01*
X154725100Y-84452400D01*
G75*
G02*
X154590100Y-84317400I0J135000D01*
G01*
G37*
G36*
G01*
X155610100Y-84317400D02*
X155610100Y-83947400D01*
G75*
G02*
X155745100Y-83812400I135000J0D01*
G01*
X156015100Y-83812400D01*
G75*
G02*
X156150100Y-83947400I0J-135000D01*
G01*
X156150100Y-84317400D01*
G75*
G02*
X156015100Y-84452400I-135000J0D01*
G01*
X155745100Y-84452400D01*
G75*
G02*
X155610100Y-84317400I0J135000D01*
G01*
G37*
G36*
G01*
X154590100Y-86067400D02*
X154590100Y-85697400D01*
G75*
G02*
X154725100Y-85562400I135000J0D01*
G01*
X154995100Y-85562400D01*
G75*
G02*
X155130100Y-85697400I0J-135000D01*
G01*
X155130100Y-86067400D01*
G75*
G02*
X154995100Y-86202400I-135000J0D01*
G01*
X154725100Y-86202400D01*
G75*
G02*
X154590100Y-86067400I0J135000D01*
G01*
G37*
G36*
G01*
X155610100Y-86067400D02*
X155610100Y-85697400D01*
G75*
G02*
X155745100Y-85562400I135000J0D01*
G01*
X156015100Y-85562400D01*
G75*
G02*
X156150100Y-85697400I0J-135000D01*
G01*
X156150100Y-86067400D01*
G75*
G02*
X156015100Y-86202400I-135000J0D01*
G01*
X155745100Y-86202400D01*
G75*
G02*
X155610100Y-86067400I0J135000D01*
G01*
G37*
G36*
G01*
X154590100Y-87817400D02*
X154590100Y-87447400D01*
G75*
G02*
X154725100Y-87312400I135000J0D01*
G01*
X154995100Y-87312400D01*
G75*
G02*
X155130100Y-87447400I0J-135000D01*
G01*
X155130100Y-87817400D01*
G75*
G02*
X154995100Y-87952400I-135000J0D01*
G01*
X154725100Y-87952400D01*
G75*
G02*
X154590100Y-87817400I0J135000D01*
G01*
G37*
G36*
G01*
X155610100Y-87817400D02*
X155610100Y-87447400D01*
G75*
G02*
X155745100Y-87312400I135000J0D01*
G01*
X156015100Y-87312400D01*
G75*
G02*
X156150100Y-87447400I0J-135000D01*
G01*
X156150100Y-87817400D01*
G75*
G02*
X156015100Y-87952400I-135000J0D01*
G01*
X155745100Y-87952400D01*
G75*
G02*
X155610100Y-87817400I0J135000D01*
G01*
G37*
G36*
G01*
X154590100Y-89567400D02*
X154590100Y-89197400D01*
G75*
G02*
X154725100Y-89062400I135000J0D01*
G01*
X154995100Y-89062400D01*
G75*
G02*
X155130100Y-89197400I0J-135000D01*
G01*
X155130100Y-89567400D01*
G75*
G02*
X154995100Y-89702400I-135000J0D01*
G01*
X154725100Y-89702400D01*
G75*
G02*
X154590100Y-89567400I0J135000D01*
G01*
G37*
G36*
G01*
X155610100Y-89567400D02*
X155610100Y-89197400D01*
G75*
G02*
X155745100Y-89062400I135000J0D01*
G01*
X156015100Y-89062400D01*
G75*
G02*
X156150100Y-89197400I0J-135000D01*
G01*
X156150100Y-89567400D01*
G75*
G02*
X156015100Y-89702400I-135000J0D01*
G01*
X155745100Y-89702400D01*
G75*
G02*
X155610100Y-89567400I0J135000D01*
G01*
G37*
G36*
G01*
X154590100Y-91317400D02*
X154590100Y-90947400D01*
G75*
G02*
X154725100Y-90812400I135000J0D01*
G01*
X154995100Y-90812400D01*
G75*
G02*
X155130100Y-90947400I0J-135000D01*
G01*
X155130100Y-91317400D01*
G75*
G02*
X154995100Y-91452400I-135000J0D01*
G01*
X154725100Y-91452400D01*
G75*
G02*
X154590100Y-91317400I0J135000D01*
G01*
G37*
G36*
G01*
X155610100Y-91317400D02*
X155610100Y-90947400D01*
G75*
G02*
X155745100Y-90812400I135000J0D01*
G01*
X156015100Y-90812400D01*
G75*
G02*
X156150100Y-90947400I0J-135000D01*
G01*
X156150100Y-91317400D01*
G75*
G02*
X156015100Y-91452400I-135000J0D01*
G01*
X155745100Y-91452400D01*
G75*
G02*
X155610100Y-91317400I0J135000D01*
G01*
G37*
G36*
G01*
X154590100Y-93067400D02*
X154590100Y-92697400D01*
G75*
G02*
X154725100Y-92562400I135000J0D01*
G01*
X154995100Y-92562400D01*
G75*
G02*
X155130100Y-92697400I0J-135000D01*
G01*
X155130100Y-93067400D01*
G75*
G02*
X154995100Y-93202400I-135000J0D01*
G01*
X154725100Y-93202400D01*
G75*
G02*
X154590100Y-93067400I0J135000D01*
G01*
G37*
G36*
G01*
X155610100Y-93067400D02*
X155610100Y-92697400D01*
G75*
G02*
X155745100Y-92562400I135000J0D01*
G01*
X156015100Y-92562400D01*
G75*
G02*
X156150100Y-92697400I0J-135000D01*
G01*
X156150100Y-93067400D01*
G75*
G02*
X156015100Y-93202400I-135000J0D01*
G01*
X155745100Y-93202400D01*
G75*
G02*
X155610100Y-93067400I0J135000D01*
G01*
G37*
G36*
G01*
X154590100Y-94817400D02*
X154590100Y-94447400D01*
G75*
G02*
X154725100Y-94312400I135000J0D01*
G01*
X154995100Y-94312400D01*
G75*
G02*
X155130100Y-94447400I0J-135000D01*
G01*
X155130100Y-94817400D01*
G75*
G02*
X154995100Y-94952400I-135000J0D01*
G01*
X154725100Y-94952400D01*
G75*
G02*
X154590100Y-94817400I0J135000D01*
G01*
G37*
G36*
G01*
X155610100Y-94817400D02*
X155610100Y-94447400D01*
G75*
G02*
X155745100Y-94312400I135000J0D01*
G01*
X156015100Y-94312400D01*
G75*
G02*
X156150100Y-94447400I0J-135000D01*
G01*
X156150100Y-94817400D01*
G75*
G02*
X156015100Y-94952400I-135000J0D01*
G01*
X155745100Y-94952400D01*
G75*
G02*
X155610100Y-94817400I0J135000D01*
G01*
G37*
G36*
G01*
X154590100Y-96567400D02*
X154590100Y-96197400D01*
G75*
G02*
X154725100Y-96062400I135000J0D01*
G01*
X154995100Y-96062400D01*
G75*
G02*
X155130100Y-96197400I0J-135000D01*
G01*
X155130100Y-96567400D01*
G75*
G02*
X154995100Y-96702400I-135000J0D01*
G01*
X154725100Y-96702400D01*
G75*
G02*
X154590100Y-96567400I0J135000D01*
G01*
G37*
G36*
G01*
X155610100Y-96567400D02*
X155610100Y-96197400D01*
G75*
G02*
X155745100Y-96062400I135000J0D01*
G01*
X156015100Y-96062400D01*
G75*
G02*
X156150100Y-96197400I0J-135000D01*
G01*
X156150100Y-96567400D01*
G75*
G02*
X156015100Y-96702400I-135000J0D01*
G01*
X155745100Y-96702400D01*
G75*
G02*
X155610100Y-96567400I0J135000D01*
G01*
G37*
G36*
G01*
X134140100Y-86597400D02*
X134140100Y-86967400D01*
G75*
G02*
X134005100Y-87102400I-135000J0D01*
G01*
X133735100Y-87102400D01*
G75*
G02*
X133600100Y-86967400I0J135000D01*
G01*
X133600100Y-86597400D01*
G75*
G02*
X133735100Y-86462400I135000J0D01*
G01*
X134005100Y-86462400D01*
G75*
G02*
X134140100Y-86597400I0J-135000D01*
G01*
G37*
G36*
G01*
X133120100Y-86597400D02*
X133120100Y-86967400D01*
G75*
G02*
X132985100Y-87102400I-135000J0D01*
G01*
X132715100Y-87102400D01*
G75*
G02*
X132580100Y-86967400I0J135000D01*
G01*
X132580100Y-86597400D01*
G75*
G02*
X132715100Y-86462400I135000J0D01*
G01*
X132985100Y-86462400D01*
G75*
G02*
X133120100Y-86597400I0J-135000D01*
G01*
G37*
G36*
G01*
X134140100Y-87847400D02*
X134140100Y-88217400D01*
G75*
G02*
X134005100Y-88352400I-135000J0D01*
G01*
X133735100Y-88352400D01*
G75*
G02*
X133600100Y-88217400I0J135000D01*
G01*
X133600100Y-87847400D01*
G75*
G02*
X133735100Y-87712400I135000J0D01*
G01*
X134005100Y-87712400D01*
G75*
G02*
X134140100Y-87847400I0J-135000D01*
G01*
G37*
G36*
G01*
X133120100Y-87847400D02*
X133120100Y-88217400D01*
G75*
G02*
X132985100Y-88352400I-135000J0D01*
G01*
X132715100Y-88352400D01*
G75*
G02*
X132580100Y-88217400I0J135000D01*
G01*
X132580100Y-87847400D01*
G75*
G02*
X132715100Y-87712400I135000J0D01*
G01*
X132985100Y-87712400D01*
G75*
G02*
X133120100Y-87847400I0J-135000D01*
G01*
G37*
G36*
G01*
X134150100Y-89097400D02*
X134150100Y-89467400D01*
G75*
G02*
X134015100Y-89602400I-135000J0D01*
G01*
X133745100Y-89602400D01*
G75*
G02*
X133610100Y-89467400I0J135000D01*
G01*
X133610100Y-89097400D01*
G75*
G02*
X133745100Y-88962400I135000J0D01*
G01*
X134015100Y-88962400D01*
G75*
G02*
X134150100Y-89097400I0J-135000D01*
G01*
G37*
G36*
G01*
X133130100Y-89097400D02*
X133130100Y-89467400D01*
G75*
G02*
X132995100Y-89602400I-135000J0D01*
G01*
X132725100Y-89602400D01*
G75*
G02*
X132590100Y-89467400I0J135000D01*
G01*
X132590100Y-89097400D01*
G75*
G02*
X132725100Y-88962400I135000J0D01*
G01*
X132995100Y-88962400D01*
G75*
G02*
X133130100Y-89097400I0J-135000D01*
G01*
G37*
G36*
G01*
X122555100Y-91162400D02*
X122185100Y-91162400D01*
G75*
G02*
X122050100Y-91027400I0J135000D01*
G01*
X122050100Y-90757400D01*
G75*
G02*
X122185100Y-90622400I135000J0D01*
G01*
X122555100Y-90622400D01*
G75*
G02*
X122690100Y-90757400I0J-135000D01*
G01*
X122690100Y-91027400D01*
G75*
G02*
X122555100Y-91162400I-135000J0D01*
G01*
G37*
G36*
G01*
X122555100Y-90142400D02*
X122185100Y-90142400D01*
G75*
G02*
X122050100Y-90007400I0J135000D01*
G01*
X122050100Y-89737400D01*
G75*
G02*
X122185100Y-89602400I135000J0D01*
G01*
X122555100Y-89602400D01*
G75*
G02*
X122690100Y-89737400I0J-135000D01*
G01*
X122690100Y-90007400D01*
G75*
G02*
X122555100Y-90142400I-135000J0D01*
G01*
G37*
G36*
G01*
X154590100Y-79067400D02*
X154590100Y-78697400D01*
G75*
G02*
X154725100Y-78562400I135000J0D01*
G01*
X154995100Y-78562400D01*
G75*
G02*
X155130100Y-78697400I0J-135000D01*
G01*
X155130100Y-79067400D01*
G75*
G02*
X154995100Y-79202400I-135000J0D01*
G01*
X154725100Y-79202400D01*
G75*
G02*
X154590100Y-79067400I0J135000D01*
G01*
G37*
G36*
G01*
X155610100Y-79067400D02*
X155610100Y-78697400D01*
G75*
G02*
X155745100Y-78562400I135000J0D01*
G01*
X156015100Y-78562400D01*
G75*
G02*
X156150100Y-78697400I0J-135000D01*
G01*
X156150100Y-79067400D01*
G75*
G02*
X156015100Y-79202400I-135000J0D01*
G01*
X155745100Y-79202400D01*
G75*
G02*
X155610100Y-79067400I0J135000D01*
G01*
G37*
G36*
G01*
X155625100Y-102182400D02*
X155925100Y-102182400D01*
G75*
G02*
X156075100Y-102332400I0J-150000D01*
G01*
X156075100Y-103982400D01*
G75*
G02*
X155925100Y-104132400I-150000J0D01*
G01*
X155625100Y-104132400D01*
G75*
G02*
X155475100Y-103982400I0J150000D01*
G01*
X155475100Y-102332400D01*
G75*
G02*
X155625100Y-102182400I150000J0D01*
G01*
G37*
G36*
G01*
X154355100Y-102182400D02*
X154655100Y-102182400D01*
G75*
G02*
X154805100Y-102332400I0J-150000D01*
G01*
X154805100Y-103982400D01*
G75*
G02*
X154655100Y-104132400I-150000J0D01*
G01*
X154355100Y-104132400D01*
G75*
G02*
X154205100Y-103982400I0J150000D01*
G01*
X154205100Y-102332400D01*
G75*
G02*
X154355100Y-102182400I150000J0D01*
G01*
G37*
G36*
G01*
X153085100Y-102182400D02*
X153385100Y-102182400D01*
G75*
G02*
X153535100Y-102332400I0J-150000D01*
G01*
X153535100Y-103982400D01*
G75*
G02*
X153385100Y-104132400I-150000J0D01*
G01*
X153085100Y-104132400D01*
G75*
G02*
X152935100Y-103982400I0J150000D01*
G01*
X152935100Y-102332400D01*
G75*
G02*
X153085100Y-102182400I150000J0D01*
G01*
G37*
G36*
G01*
X151815100Y-102182400D02*
X152115100Y-102182400D01*
G75*
G02*
X152265100Y-102332400I0J-150000D01*
G01*
X152265100Y-103982400D01*
G75*
G02*
X152115100Y-104132400I-150000J0D01*
G01*
X151815100Y-104132400D01*
G75*
G02*
X151665100Y-103982400I0J150000D01*
G01*
X151665100Y-102332400D01*
G75*
G02*
X151815100Y-102182400I150000J0D01*
G01*
G37*
G36*
G01*
X151815100Y-107132400D02*
X152115100Y-107132400D01*
G75*
G02*
X152265100Y-107282400I0J-150000D01*
G01*
X152265100Y-108932400D01*
G75*
G02*
X152115100Y-109082400I-150000J0D01*
G01*
X151815100Y-109082400D01*
G75*
G02*
X151665100Y-108932400I0J150000D01*
G01*
X151665100Y-107282400D01*
G75*
G02*
X151815100Y-107132400I150000J0D01*
G01*
G37*
G36*
G01*
X153085100Y-107132400D02*
X153385100Y-107132400D01*
G75*
G02*
X153535100Y-107282400I0J-150000D01*
G01*
X153535100Y-108932400D01*
G75*
G02*
X153385100Y-109082400I-150000J0D01*
G01*
X153085100Y-109082400D01*
G75*
G02*
X152935100Y-108932400I0J150000D01*
G01*
X152935100Y-107282400D01*
G75*
G02*
X153085100Y-107132400I150000J0D01*
G01*
G37*
G36*
G01*
X154355100Y-107132400D02*
X154655100Y-107132400D01*
G75*
G02*
X154805100Y-107282400I0J-150000D01*
G01*
X154805100Y-108932400D01*
G75*
G02*
X154655100Y-109082400I-150000J0D01*
G01*
X154355100Y-109082400D01*
G75*
G02*
X154205100Y-108932400I0J150000D01*
G01*
X154205100Y-107282400D01*
G75*
G02*
X154355100Y-107132400I150000J0D01*
G01*
G37*
G36*
G01*
X155625100Y-107132400D02*
X155925100Y-107132400D01*
G75*
G02*
X156075100Y-107282400I0J-150000D01*
G01*
X156075100Y-108932400D01*
G75*
G02*
X155925100Y-109082400I-150000J0D01*
G01*
X155625100Y-109082400D01*
G75*
G02*
X155475100Y-108932400I0J150000D01*
G01*
X155475100Y-107282400D01*
G75*
G02*
X155625100Y-107132400I150000J0D01*
G01*
G37*
G36*
G01*
X130870100Y-60732400D02*
X130870100Y-62032400D01*
G75*
G02*
X130620100Y-62282400I-250000J0D01*
G01*
X128620100Y-62282400D01*
G75*
G02*
X128370100Y-62032400I0J250000D01*
G01*
X128370100Y-60732400D01*
G75*
G02*
X128620100Y-60482400I250000J0D01*
G01*
X130620100Y-60482400D01*
G75*
G02*
X130870100Y-60732400I0J-250000D01*
G01*
G37*
G36*
G01*
X126870100Y-60732400D02*
X126870100Y-62032400D01*
G75*
G02*
X126620100Y-62282400I-250000J0D01*
G01*
X124620100Y-62282400D01*
G75*
G02*
X124370100Y-62032400I0J250000D01*
G01*
X124370100Y-60732400D01*
G75*
G02*
X124620100Y-60482400I250000J0D01*
G01*
X126620100Y-60482400D01*
G75*
G02*
X126870100Y-60732400I0J-250000D01*
G01*
G37*
G36*
G01*
X157870100Y-54282400D02*
X157870100Y-53982400D01*
G75*
G02*
X158020100Y-53832400I150000J0D01*
G01*
X159045100Y-53832400D01*
G75*
G02*
X159195100Y-53982400I0J-150000D01*
G01*
X159195100Y-54282400D01*
G75*
G02*
X159045100Y-54432400I-150000J0D01*
G01*
X158020100Y-54432400D01*
G75*
G02*
X157870100Y-54282400I0J150000D01*
G01*
G37*
G36*
G01*
X157870100Y-55232400D02*
X157870100Y-54932400D01*
G75*
G02*
X158020100Y-54782400I150000J0D01*
G01*
X159045100Y-54782400D01*
G75*
G02*
X159195100Y-54932400I0J-150000D01*
G01*
X159195100Y-55232400D01*
G75*
G02*
X159045100Y-55382400I-150000J0D01*
G01*
X158020100Y-55382400D01*
G75*
G02*
X157870100Y-55232400I0J150000D01*
G01*
G37*
G36*
G01*
X157870100Y-56182400D02*
X157870100Y-55882400D01*
G75*
G02*
X158020100Y-55732400I150000J0D01*
G01*
X159045100Y-55732400D01*
G75*
G02*
X159195100Y-55882400I0J-150000D01*
G01*
X159195100Y-56182400D01*
G75*
G02*
X159045100Y-56332400I-150000J0D01*
G01*
X158020100Y-56332400D01*
G75*
G02*
X157870100Y-56182400I0J150000D01*
G01*
G37*
G36*
G01*
X160145100Y-56182400D02*
X160145100Y-55882400D01*
G75*
G02*
X160295100Y-55732400I150000J0D01*
G01*
X161320100Y-55732400D01*
G75*
G02*
X161470100Y-55882400I0J-150000D01*
G01*
X161470100Y-56182400D01*
G75*
G02*
X161320100Y-56332400I-150000J0D01*
G01*
X160295100Y-56332400D01*
G75*
G02*
X160145100Y-56182400I0J150000D01*
G01*
G37*
G36*
G01*
X160145100Y-55232400D02*
X160145100Y-54932400D01*
G75*
G02*
X160295100Y-54782400I150000J0D01*
G01*
X161320100Y-54782400D01*
G75*
G02*
X161470100Y-54932400I0J-150000D01*
G01*
X161470100Y-55232400D01*
G75*
G02*
X161320100Y-55382400I-150000J0D01*
G01*
X160295100Y-55382400D01*
G75*
G02*
X160145100Y-55232400I0J150000D01*
G01*
G37*
G36*
G01*
X160145100Y-54282400D02*
X160145100Y-53982400D01*
G75*
G02*
X160295100Y-53832400I150000J0D01*
G01*
X161320100Y-53832400D01*
G75*
G02*
X161470100Y-53982400I0J-150000D01*
G01*
X161470100Y-54282400D01*
G75*
G02*
X161320100Y-54432400I-150000J0D01*
G01*
X160295100Y-54432400D01*
G75*
G02*
X160145100Y-54282400I0J150000D01*
G01*
G37*
D10*
X123495100Y-126382400D03*
X125245100Y-126382400D03*
X125245100Y-122882400D03*
X123495100Y-122882400D03*
D11*
X145450000Y-125720000D03*
X145450000Y-124450000D03*
X145450000Y-123180000D03*
X145450000Y-121910000D03*
X145450000Y-120640000D03*
X145450000Y-119370000D03*
X145450000Y-118100000D03*
X145450000Y-116830000D03*
X145450000Y-115560000D03*
X145450000Y-114290000D03*
X145450000Y-113020000D03*
X145450000Y-111750000D03*
X145450000Y-110480000D03*
X145450000Y-109210000D03*
D12*
X143685000Y-107960000D03*
X142415000Y-107960000D03*
X141145000Y-107960000D03*
X139875000Y-107960000D03*
X138605000Y-107960000D03*
X137335000Y-107960000D03*
X136065000Y-107960000D03*
X134795000Y-107960000D03*
X133525000Y-107960000D03*
X132255000Y-107960000D03*
X130985000Y-107960000D03*
X129715000Y-107960000D03*
D11*
X127950000Y-109210000D03*
X127950000Y-110480000D03*
X127950000Y-111750000D03*
X127950000Y-113020000D03*
X127950000Y-114290000D03*
X127950000Y-115560000D03*
X127950000Y-116830000D03*
X127950000Y-118100000D03*
X127950000Y-119370000D03*
X127950000Y-120640000D03*
X127950000Y-121910000D03*
X127950000Y-123180000D03*
X127950000Y-124450000D03*
X127950000Y-125720000D03*
D13*
X139600000Y-119400000D03*
X139600000Y-118000000D03*
X139600000Y-116600000D03*
X138200000Y-119400000D03*
X138200000Y-118000000D03*
X138200000Y-116600000D03*
X136800000Y-119400000D03*
X136800000Y-118000000D03*
X136800000Y-116600000D03*
G36*
G01*
X164400100Y-59459900D02*
X164400100Y-59804900D01*
G75*
G02*
X164252600Y-59952400I-147500J0D01*
G01*
X163957600Y-59952400D01*
G75*
G02*
X163810100Y-59804900I0J147500D01*
G01*
X163810100Y-59459900D01*
G75*
G02*
X163957600Y-59312400I147500J0D01*
G01*
X164252600Y-59312400D01*
G75*
G02*
X164400100Y-59459900I0J-147500D01*
G01*
G37*
G36*
G01*
X163430100Y-59459900D02*
X163430100Y-59804900D01*
G75*
G02*
X163282600Y-59952400I-147500J0D01*
G01*
X162987600Y-59952400D01*
G75*
G02*
X162840100Y-59804900I0J147500D01*
G01*
X162840100Y-59459900D01*
G75*
G02*
X162987600Y-59312400I147500J0D01*
G01*
X163282600Y-59312400D01*
G75*
G02*
X163430100Y-59459900I0J-147500D01*
G01*
G37*
D14*
X164370100Y-55982400D03*
X164370100Y-55332400D03*
X164370100Y-54682400D03*
X164370100Y-54032400D03*
X164370100Y-53382400D03*
D15*
X165570100Y-57632400D03*
D16*
X164270100Y-57532400D03*
D17*
X166320100Y-57412400D03*
D18*
X167520100Y-55642400D03*
X167520100Y-53722400D03*
D17*
X166320100Y-51932400D03*
D16*
X164250100Y-51782400D03*
D15*
X165570100Y-51682400D03*
M02*
