M48
INCH,TZ
T1C0.0157
T2C0.0256
T3C0.0276
T4C0.0315
T5C0.0394
T6C0.0433
T7C0.0453
%
G90
G05
T1
X47587Y-32532
X47587Y-34403
X47587Y-35308
X47587Y-37631
X47685Y-28497
X47685Y-29383
X47685Y-45426
X47705Y-33143
X47784Y-27414
X47882Y-31548
X48059Y-39127
X48177Y-32788
X48183Y-34653
X48276Y-29481
X48472Y-27611
X48472Y-28595
X48492Y-43611
X48650Y-30466
X48965Y-33560
X48965Y-34127
X48965Y-36174
X48965Y-44934
X49424Y-43371
X49427Y-38269
X49427Y-44048
X49427Y-44934
X49850Y-30466
X49909Y-47513
X49909Y-47985
X50096Y-38851
X50096Y-39206
X50096Y-39599
X50146Y-32434
X50146Y-35091
X50146Y-38515
X50274Y-41725
X50618Y-33615
X50736Y-31529
X50972Y-45466
X50972Y-45977
X50972Y-46489
X50972Y-47001
X51130Y-36056
X51287Y-48615
X51681Y-39954
X52114Y-38438
X52665Y-49560
X52902Y-47591
X53492Y-41292
X53571Y-43103
X53846Y-36056
X53857Y-36371
X53984Y-44540
X54083Y-38340
X54083Y-43103
X54555Y-43103
X54995Y-35610
X55067Y-41962
X55697Y-49442
X56287Y-46292
X56681Y-44481
X56681Y-44993
X56721Y-48497
X56740Y-39816
X57429Y-34304
X57823Y-42985
X57823Y-43497
X58315Y-42473
X58807Y-33812
X60087Y-29678
X60835Y-39422
X61268Y-39914
X61445Y-21519
X61445Y-21853
X61917Y-21686
X62449Y-39574
X63925Y-36851
X64240Y-21017
T4
X53295Y-30526
X53295Y-31904
X56839Y-30526
X56839Y-31904
T5
X45815Y-24560
X45815Y-25560
X45815Y-26560
X45815Y-27560
X45815Y-28560
X45815Y-29560
X45815Y-30560
X45815Y-31560
X45815Y-32560
X45815Y-33560
X45815Y-34560
X45815Y-35560
X45815Y-36560
X45815Y-37560
X45815Y-38560
X45815Y-39560
X45815Y-40560
X45815Y-41560
X45815Y-42560
X45815Y-43560
X45815Y-44560
X45815Y-45560
X45815Y-46560
X46307Y-18841
X46307Y-19841
X46307Y-21499
X46307Y-22499
X46815Y-24560
X46815Y-25560
X46815Y-26560
X46815Y-27560
X46815Y-28560
X46815Y-29560
X46815Y-30560
X46815Y-31560
X46815Y-32560
X46815Y-33560
X46815Y-34560
X46815Y-35560
X46815Y-36560
X46815Y-37560
X46815Y-38560
X46815Y-39560
X46815Y-40560
X46815Y-41560
X46815Y-42560
X46815Y-43560
X46815Y-44560
X46815Y-45560
X46815Y-46560
X49244Y-26233
X50244Y-26233
X51244Y-26233
X53476Y-39324
X54476Y-39324
X55476Y-39324
X63335Y-42562
X63335Y-43562
X64815Y-24560
X64815Y-25560
X64815Y-26560
X64815Y-27560
X64815Y-28560
X64815Y-29560
X64815Y-30560
X64815Y-31560
X64815Y-32560
X64815Y-33560
X64815Y-34560
X64815Y-35560
X64815Y-36560
X64815Y-37560
X64815Y-38560
X64815Y-39560
X64815Y-40560
X64815Y-41560
X64815Y-42560
X64815Y-43560
X64815Y-44560
X64815Y-45560
X64815Y-46560
X65815Y-24560
X65815Y-25560
X65815Y-26560
X65815Y-27560
X65815Y-28560
X65815Y-29560
X65815Y-30560
X65815Y-31560
X65815Y-32560
X65815Y-33560
X65815Y-34560
X65815Y-35560
X65815Y-36560
X65815Y-37560
X65815Y-38560
X65815Y-39560
X65815Y-40560
X65815Y-41560
X65815Y-42560
X65815Y-43560
X65815Y-44560
X65815Y-45560
X65815Y-46560
T6
X53886Y-25938
X53886Y-28497
X55658Y-25938
X55658Y-28497
X61169Y-25938
X61169Y-28497
X62941Y-25938
X62941Y-28497
T7
X49161Y-18851
X49161Y-20820
X51130Y-18851
X51130Y-20820
X59595Y-46607
X59595Y-48576
X61563Y-46607
X61563Y-48576
T2
G00X64744Y-20576
M15
G01X64587Y-20576
M16
G05
G00X64744Y-22481
M15
G01X64587Y-22481
M16
G05
T3
G00X65945Y-20454
M15
G01X65748Y-20454
M16
G05
G00X65945Y-22603
M15
G01X65748Y-22603
M16
G05
M30
