M48
INCH,TZ
T1C0.0079
T2C0.0157
T3C0.0394
T4C0.0433
T5C0.0453
%
G90
G05
T1
X53728Y-44241
X53728Y-44792
X54004Y-43966
X54004Y-44517
X54004Y-45068
X54280Y-44241
X54280Y-44792
X54555Y-43966
X54555Y-44517
X54555Y-45068
X54831Y-44241
X54831Y-44792
T2
X47587Y-32532
X47587Y-34403
X47587Y-39914
X47685Y-28497
X47685Y-29383
X47685Y-37257
X47784Y-27414
X47784Y-41194
X47784Y-43654
X47882Y-31548
X47882Y-45131
X47980Y-37749
X47980Y-39127
X48276Y-29481
X48374Y-36568
X48374Y-41784
X48472Y-27611
X48472Y-28595
X48492Y-43611
X48532Y-39757
X48571Y-40899
X48669Y-33123
X48768Y-34206
X48965Y-36174
X48965Y-44934
X49063Y-42867
X49358Y-44934
X49654Y-30662
X49654Y-46017
X49654Y-47493
X50146Y-32434
X50146Y-35091
X50933Y-38438
X51032Y-45525
X51130Y-36568
X51228Y-30466
X52213Y-42080
X53394Y-38635
X53886Y-42572
X54280Y-35584
X54870Y-37454
X55854Y-42080
X55854Y-45426
X57035Y-38438
X59140Y-39717
X59201Y-29678
X61268Y-39914
T3
X45815Y-24560
X45815Y-25560
X45815Y-26560
X45815Y-27560
X45815Y-28560
X45815Y-29560
X45815Y-30560
X45815Y-31560
X45815Y-32560
X45815Y-33560
X45815Y-34560
X45815Y-35560
X45815Y-36560
X45815Y-37560
X45815Y-38560
X45815Y-39560
X45815Y-40560
X45815Y-41560
X45815Y-42560
X45815Y-43560
X45815Y-44560
X45815Y-45560
X45815Y-46560
X46815Y-24560
X46815Y-25560
X46815Y-26560
X46815Y-27560
X46815Y-28560
X46815Y-29560
X46815Y-30560
X46815Y-31560
X46815Y-32560
X46815Y-33560
X46815Y-34560
X46815Y-35560
X46815Y-36560
X46815Y-37560
X46815Y-38560
X46815Y-39560
X46815Y-40560
X46815Y-41560
X46815Y-42560
X46815Y-43560
X46815Y-44560
X46815Y-45560
X46815Y-46560
X49803Y-22493
X50803Y-22493
X51803Y-22493
X64815Y-24560
X64815Y-25560
X64815Y-26560
X64815Y-27560
X64815Y-28560
X64815Y-29560
X64815Y-30560
X64815Y-31560
X64815Y-32560
X64815Y-33560
X64815Y-34560
X64815Y-35560
X64815Y-36560
X64815Y-37560
X64815Y-38560
X64815Y-39560
X64815Y-40560
X64815Y-41560
X64815Y-42560
X64815Y-43560
X64815Y-44560
X64815Y-45560
X64815Y-46560
X65815Y-24560
X65815Y-25560
X65815Y-26560
X65815Y-27560
X65815Y-28560
X65815Y-29560
X65815Y-30560
X65815Y-31560
X65815Y-32560
X65815Y-33560
X65815Y-34560
X65815Y-35560
X65815Y-36560
X65815Y-37560
X65815Y-38560
X65815Y-39560
X65815Y-40560
X65815Y-41560
X65815Y-42560
X65815Y-43560
X65815Y-44560
X65815Y-45560
X65815Y-46560
T4
X46775Y-21115
X46775Y-22115
X47819Y-18556
X49358Y-25938
X49358Y-28497
X51130Y-25938
X51130Y-28497
X51819Y-18556
X61169Y-25938
X61169Y-28497
X62941Y-25938
X62941Y-28497
T5
X59595Y-46607
X61563Y-46607
M30
