G04 #@! TF.GenerationSoftware,KiCad,Pcbnew,9.0.1+1*
G04 #@! TF.CreationDate,2025-11-20T15:33:24+00:00*
G04 #@! TF.ProjectId,com4bbb,636f6d34-6262-4622-9e6b-696361645f70,rev?*
G04 #@! TF.SameCoordinates,Original*
G04 #@! TF.FileFunction,Copper,L2,Inr*
G04 #@! TF.FilePolarity,Positive*
%FSLAX46Y46*%
G04 Gerber Fmt 4.6, Leading zero omitted, Abs format (unit mm)*
G04 Created by KiCad (PCBNEW 9.0.1+1) date 2025-11-20 15:33:24*
%MOMM*%
%LPD*%
G01*
G04 APERTURE LIST*
G04 #@! TA.AperFunction,ComponentPad*
%ADD10R,1.700000X1.700000*%
G04 #@! TD*
G04 #@! TA.AperFunction,ComponentPad*
%ADD11C,1.700000*%
G04 #@! TD*
G04 #@! TA.AperFunction,ComponentPad*
%ADD12R,1.500000X3.000000*%
G04 #@! TD*
G04 #@! TA.AperFunction,ComponentPad*
%ADD13O,1.500000X3.000000*%
G04 #@! TD*
G04 #@! TA.AperFunction,ComponentPad*
%ADD14C,2.000000*%
G04 #@! TD*
G04 #@! TA.AperFunction,HeatsinkPad*
%ADD15O,1.700000X1.350000*%
G04 #@! TD*
G04 #@! TA.AperFunction,HeatsinkPad*
%ADD16O,1.500000X1.100000*%
G04 #@! TD*
G04 #@! TA.AperFunction,ViaPad*
%ADD17C,0.600000*%
G04 #@! TD*
G04 #@! TA.AperFunction,Conductor*
%ADD18C,0.250000*%
G04 #@! TD*
G04 #@! TA.AperFunction,Conductor*
%ADD19C,0.500000*%
G04 #@! TD*
G04 APERTURE END LIST*
D10*
X164630100Y-62382400D03*
D11*
X167170100Y-62382400D03*
X164630100Y-64922400D03*
X167170100Y-64922400D03*
X164630100Y-67462400D03*
X167170100Y-67462400D03*
X164630100Y-70002400D03*
X167170100Y-70002400D03*
X164630100Y-72542400D03*
X167170100Y-72542400D03*
X164630100Y-75082400D03*
X167170100Y-75082400D03*
X164630100Y-77622400D03*
X167170100Y-77622400D03*
X164630100Y-80162400D03*
X167170100Y-80162400D03*
X164630100Y-82702400D03*
X167170100Y-82702400D03*
X164630100Y-85242400D03*
X167170100Y-85242400D03*
X164630100Y-87782400D03*
X167170100Y-87782400D03*
X164630100Y-90322400D03*
X167170100Y-90322400D03*
X164630100Y-92862400D03*
X167170100Y-92862400D03*
X164630100Y-95402400D03*
X167170100Y-95402400D03*
X164630100Y-97942400D03*
X167170100Y-97942400D03*
X164630100Y-100482400D03*
X167170100Y-100482400D03*
X164630100Y-103022400D03*
X167170100Y-103022400D03*
X164630100Y-105562400D03*
X167170100Y-105562400D03*
X164630100Y-108102400D03*
X167170100Y-108102400D03*
X164630100Y-110642400D03*
X167170100Y-110642400D03*
X164630100Y-113182400D03*
X167170100Y-113182400D03*
X164630100Y-115722400D03*
X167170100Y-115722400D03*
X164630100Y-118262400D03*
X167170100Y-118262400D03*
D10*
X116370100Y-62382400D03*
D11*
X118910100Y-62382400D03*
X116370100Y-64922400D03*
X118910100Y-64922400D03*
X116370100Y-67462400D03*
X118910100Y-67462400D03*
X116370100Y-70002400D03*
X118910100Y-70002400D03*
X116370100Y-72542400D03*
X118910100Y-72542400D03*
X116370100Y-75082400D03*
X118910100Y-75082400D03*
X116370100Y-77622400D03*
X118910100Y-77622400D03*
X116370100Y-80162400D03*
X118910100Y-80162400D03*
X116370100Y-82702400D03*
X118910100Y-82702400D03*
X116370100Y-85242400D03*
X118910100Y-85242400D03*
X116370100Y-87782400D03*
X118910100Y-87782400D03*
X116370100Y-90322400D03*
X118910100Y-90322400D03*
X116370100Y-92862400D03*
X118910100Y-92862400D03*
X116370100Y-95402400D03*
X118910100Y-95402400D03*
X116370100Y-97942400D03*
X118910100Y-97942400D03*
X116370100Y-100482400D03*
X118910100Y-100482400D03*
X116370100Y-103022400D03*
X118910100Y-103022400D03*
X116370100Y-105562400D03*
X118910100Y-105562400D03*
X116370100Y-108102400D03*
X118910100Y-108102400D03*
X116370100Y-110642400D03*
X118910100Y-110642400D03*
X116370100Y-113182400D03*
X118910100Y-113182400D03*
X116370100Y-115722400D03*
X118910100Y-115722400D03*
X116370100Y-118262400D03*
X118910100Y-118262400D03*
G04 #@! TA.AperFunction,ComponentPad*
G36*
G01*
X150620100Y-119632399D02*
X150620100Y-117132401D01*
G75*
G02*
X150870101Y-116882400I250001J0D01*
G01*
X151870099Y-116882400D01*
G75*
G02*
X152120100Y-117132401I0J-250001D01*
G01*
X152120100Y-119632399D01*
G75*
G02*
X151870099Y-119882400I-250001J0D01*
G01*
X150870101Y-119882400D01*
G75*
G02*
X150620100Y-119632399I0J250001D01*
G01*
G37*
G04 #@! TD.AperFunction*
D12*
X151370100Y-123382400D03*
D13*
X156370100Y-118382400D03*
X156370100Y-123382400D03*
D14*
X155370100Y-72382400D03*
X155370100Y-65882400D03*
X159870100Y-72382400D03*
X159870100Y-65882400D03*
X136870100Y-72382400D03*
X136870100Y-65882400D03*
X141370100Y-72382400D03*
X141370100Y-65882400D03*
G04 #@! TA.AperFunction,ComponentPad*
G36*
G01*
X130620100Y-51632401D02*
X130620100Y-54132399D01*
G75*
G02*
X130370099Y-54382400I-250001J0D01*
G01*
X129370101Y-54382400D01*
G75*
G02*
X129120100Y-54132399I0J250001D01*
G01*
X129120100Y-51632401D01*
G75*
G02*
X129370101Y-51382400I250001J0D01*
G01*
X130370099Y-51382400D01*
G75*
G02*
X130620100Y-51632401I0J-250001D01*
G01*
G37*
G04 #@! TD.AperFunction*
D12*
X129870100Y-47882400D03*
D13*
X124870100Y-52882400D03*
X124870100Y-47882400D03*
D14*
X130160100Y-66632400D03*
X127620100Y-66632400D03*
X125080100Y-66632400D03*
D15*
X167250100Y-57412400D03*
D16*
X164250100Y-57102400D03*
X164250100Y-52262400D03*
D15*
X167250100Y-51952400D03*
D10*
X143670100Y-100282400D03*
D11*
X141130100Y-100282400D03*
X138590100Y-100282400D03*
D17*
X133770100Y-125882400D03*
X122620100Y-74882400D03*
X130270100Y-123482400D03*
X129870100Y-92882400D03*
X121370100Y-69632400D03*
X128870100Y-80082400D03*
X128570100Y-85382400D03*
X123120100Y-70132400D03*
X127245100Y-99582400D03*
X163170100Y-53382400D03*
X120870100Y-95582400D03*
X120870100Y-82632400D03*
X120870100Y-87382400D03*
X121120100Y-72382400D03*
X141470100Y-125582400D03*
X123870100Y-86882400D03*
X124370100Y-91882400D03*
X123120100Y-72632400D03*
X134370100Y-120882400D03*
X121170100Y-84182400D03*
X121120100Y-74632400D03*
X140670100Y-96682400D03*
X157270100Y-55082400D03*
X133270100Y-115982400D03*
X122070100Y-99382400D03*
X121620100Y-80132400D03*
X138370100Y-97882400D03*
X142970100Y-117582400D03*
X150370100Y-75382400D03*
X127370100Y-97828400D03*
X127370100Y-82382400D03*
X127370100Y-89132400D03*
X124370100Y-114132400D03*
X123170099Y-110772399D03*
X143970100Y-114282400D03*
X139870100Y-106582400D03*
X125544100Y-97203400D03*
X125537012Y-110162188D03*
X137370100Y-109482400D03*
X155620100Y-101382400D03*
X143970100Y-112982400D03*
X129470100Y-115482400D03*
X127245100Y-98682400D03*
X129470100Y-118082400D03*
X127696100Y-105982400D03*
X131270100Y-101482400D03*
X129470100Y-116782400D03*
X127245100Y-100582400D03*
X129470100Y-119382400D03*
X122385100Y-88017400D03*
X122370100Y-83282400D03*
X123570100Y-77382400D03*
X126770100Y-121882400D03*
X126620100Y-77382400D03*
X126770100Y-120682400D03*
X144070100Y-123182400D03*
X138570100Y-109482400D03*
X125544100Y-114133400D03*
X125544100Y-111882400D03*
X136070100Y-109482400D03*
X146870100Y-109182400D03*
X156070100Y-54657400D03*
X156070100Y-55507400D03*
X146870100Y-110482400D03*
D18*
X124370100Y-114132400D02*
X124370100Y-109359284D01*
X117734100Y-103509516D02*
X117734100Y-83878400D01*
X118506984Y-104282400D02*
X117734100Y-103509516D01*
X119293216Y-104282400D02*
X118506984Y-104282400D01*
X117734100Y-83878400D02*
X118910100Y-82702400D01*
X124370100Y-109359284D02*
X119293216Y-104282400D01*
X115170100Y-103485516D02*
X115170100Y-88982400D01*
X123170099Y-110182399D02*
X119726100Y-106738400D01*
X116857216Y-104386400D02*
X116070984Y-104386400D01*
X123170099Y-110772399D02*
X123170099Y-110182399D01*
X116070984Y-104386400D02*
X115170100Y-103485516D01*
X117546100Y-105075284D02*
X116857216Y-104386400D01*
X115170100Y-88982400D02*
X116370100Y-87782400D01*
X117546100Y-106049516D02*
X117546100Y-105075284D01*
X118234984Y-106738400D02*
X117546100Y-106049516D01*
X119726100Y-106738400D02*
X118234984Y-106738400D01*
X130491100Y-97203400D02*
X139870100Y-106582400D01*
X125544100Y-97203400D02*
X130491100Y-97203400D01*
X125537012Y-110162188D02*
X126842800Y-108856400D01*
X126842800Y-108856400D02*
X136744100Y-108856400D01*
X136744100Y-108856400D02*
X137370100Y-109482400D01*
D19*
X150215149Y-100880796D02*
X155118496Y-100880796D01*
X155118496Y-100880796D02*
X155620100Y-101382400D01*
X118910100Y-92862400D02*
X122850100Y-92862400D01*
X143616753Y-94282400D02*
X150215149Y-100880796D01*
X122850100Y-92862400D02*
X124270100Y-94282400D01*
X124270100Y-94282400D02*
X143616753Y-94282400D01*
D18*
X124110802Y-114758400D02*
X142194100Y-114758400D01*
X142194100Y-114758400D02*
X143970100Y-112982400D01*
X117546100Y-114358400D02*
X123710802Y-114358400D01*
X123710802Y-114358400D02*
X124110802Y-114758400D01*
X116370100Y-113182400D02*
X117546100Y-114358400D01*
X133919100Y-114133400D02*
X138570100Y-109482400D01*
X125544100Y-114133400D02*
X133919100Y-114133400D01*
X125544100Y-111882400D02*
X133670100Y-111882400D01*
X133670100Y-111882400D02*
X136070100Y-109482400D01*
M02*
