G04 #@! TF.GenerationSoftware,KiCad,Pcbnew,9.0.1+1*
G04 #@! TF.CreationDate,2025-11-22T15:40:27+00:00*
G04 #@! TF.ProjectId,com4bbb,636f6d34-6262-4622-9e6b-696361645f70,rev?*
G04 #@! TF.SameCoordinates,Original*
G04 #@! TF.FileFunction,Soldermask,Top*
G04 #@! TF.FilePolarity,Negative*
%FSLAX46Y46*%
G04 Gerber Fmt 4.6, Leading zero omitted, Abs format (unit mm)*
G04 Created by KiCad (PCBNEW 9.0.1+1) date 2025-11-22 15:40:27*
%MOMM*%
%LPD*%
G01*
G04 APERTURE LIST*
%ADD10R,1.700000X1.700000*%
%ADD11C,1.700000*%
%ADD12R,1.500000X3.000000*%
%ADD13O,1.500000X3.000000*%
%ADD14R,1.500000X1.000000*%
%ADD15C,2.000000*%
%ADD16R,0.850000X1.600000*%
%ADD17R,1.500000X0.900000*%
%ADD18R,0.900000X1.500000*%
%ADD19R,0.900000X0.900000*%
%ADD20C,2.374900*%
%ADD21C,0.990600*%
%ADD22C,0.787400*%
%ADD23C,1.600000*%
%ADD24R,1.000000X1.000000*%
%ADD25R,1.650000X0.400000*%
%ADD26R,0.700000X1.825000*%
%ADD27R,1.500000X2.000000*%
%ADD28R,2.000000X1.350000*%
%ADD29O,1.700000X1.350000*%
%ADD30O,1.500000X1.100000*%
%ADD31R,2.500000X1.430000*%
%ADD32R,0.750000X0.300000*%
%ADD33R,1.300000X1.500000*%
G04 APERTURE END LIST*
G36*
X124120100Y-78132400D02*
G01*
X125620100Y-78132400D01*
X125620100Y-76632400D01*
X124120100Y-76632400D01*
X124120100Y-78132400D01*
G37*
G36*
X129120100Y-76632400D02*
G01*
X127620100Y-76632400D01*
X127620100Y-78132400D01*
X129120100Y-78132400D01*
X129120100Y-76632400D01*
G37*
G36*
X123620100Y-120132400D02*
G01*
X125120100Y-120132400D01*
X125120100Y-118632400D01*
X123620100Y-118632400D01*
X123620100Y-120132400D01*
G37*
G36*
X123620100Y-112632400D02*
G01*
X125120100Y-112632400D01*
X125120100Y-111132400D01*
X123620100Y-111132400D01*
X123620100Y-112632400D01*
G37*
G36*
X129120100Y-92232400D02*
G01*
X127620100Y-92232400D01*
X127620100Y-92532400D01*
X129120100Y-92532400D01*
X129120100Y-92232400D01*
G37*
G36*
X135120100Y-92232400D02*
G01*
X133620100Y-92232400D01*
X133620100Y-92532400D01*
X135120100Y-92532400D01*
X135120100Y-92232400D01*
G37*
G36*
X132120100Y-92232400D02*
G01*
X130620100Y-92232400D01*
X130620100Y-92532400D01*
X132120100Y-92532400D01*
X132120100Y-92232400D01*
G37*
G36*
X124120100Y-82532400D02*
G01*
X124420100Y-82532400D01*
X124420100Y-84032400D01*
X124120100Y-84032400D01*
X124120100Y-82532400D01*
G37*
D10*
X164630100Y-62382400D03*
D11*
X167170100Y-62382400D03*
X164630100Y-64922400D03*
X167170100Y-64922400D03*
X164630100Y-67462400D03*
X167170100Y-67462400D03*
X164630100Y-70002400D03*
X167170100Y-70002400D03*
X164630100Y-72542400D03*
X167170100Y-72542400D03*
X164630100Y-75082400D03*
X167170100Y-75082400D03*
X164630100Y-77622400D03*
X167170100Y-77622400D03*
X164630100Y-80162400D03*
X167170100Y-80162400D03*
X164630100Y-82702400D03*
X167170100Y-82702400D03*
X164630100Y-85242400D03*
X167170100Y-85242400D03*
X164630100Y-87782400D03*
X167170100Y-87782400D03*
X164630100Y-90322400D03*
X167170100Y-90322400D03*
X164630100Y-92862400D03*
X167170100Y-92862400D03*
X164630100Y-95402400D03*
X167170100Y-95402400D03*
X164630100Y-97942400D03*
X167170100Y-97942400D03*
X164630100Y-100482400D03*
X167170100Y-100482400D03*
X164630100Y-103022400D03*
X167170100Y-103022400D03*
X164630100Y-105562400D03*
X167170100Y-105562400D03*
X164630100Y-108102400D03*
X167170100Y-108102400D03*
X164630100Y-110642400D03*
X167170100Y-110642400D03*
X164630100Y-113182400D03*
X167170100Y-113182400D03*
X164630100Y-115722400D03*
X167170100Y-115722400D03*
X164630100Y-118262400D03*
X167170100Y-118262400D03*
D10*
X116370100Y-62382400D03*
D11*
X118910100Y-62382400D03*
X116370100Y-64922400D03*
X118910100Y-64922400D03*
X116370100Y-67462400D03*
X118910100Y-67462400D03*
X116370100Y-70002400D03*
X118910100Y-70002400D03*
X116370100Y-72542400D03*
X118910100Y-72542400D03*
X116370100Y-75082400D03*
X118910100Y-75082400D03*
X116370100Y-77622400D03*
X118910100Y-77622400D03*
X116370100Y-80162400D03*
X118910100Y-80162400D03*
X116370100Y-82702400D03*
X118910100Y-82702400D03*
X116370100Y-85242400D03*
X118910100Y-85242400D03*
X116370100Y-87782400D03*
X118910100Y-87782400D03*
X116370100Y-90322400D03*
X118910100Y-90322400D03*
X116370100Y-92862400D03*
X118910100Y-92862400D03*
X116370100Y-95402400D03*
X118910100Y-95402400D03*
X116370100Y-97942400D03*
X118910100Y-97942400D03*
X116370100Y-100482400D03*
X118910100Y-100482400D03*
X116370100Y-103022400D03*
X118910100Y-103022400D03*
X116370100Y-105562400D03*
X118910100Y-105562400D03*
X116370100Y-108102400D03*
X118910100Y-108102400D03*
X116370100Y-110642400D03*
X118910100Y-110642400D03*
X116370100Y-113182400D03*
X118910100Y-113182400D03*
X116370100Y-115722400D03*
X118910100Y-115722400D03*
X116370100Y-118262400D03*
X118910100Y-118262400D03*
G36*
G01*
X124950100Y-90622400D02*
X125290100Y-90622400D01*
G75*
G02*
X125430100Y-90762400I0J-140000D01*
G01*
X125430100Y-91042400D01*
G75*
G02*
X125290100Y-91182400I-140000J0D01*
G01*
X124950100Y-91182400D01*
G75*
G02*
X124810100Y-91042400I0J140000D01*
G01*
X124810100Y-90762400D01*
G75*
G02*
X124950100Y-90622400I140000J0D01*
G01*
G37*
G36*
G01*
X124950100Y-91582400D02*
X125290100Y-91582400D01*
G75*
G02*
X125430100Y-91722400I0J-140000D01*
G01*
X125430100Y-92002400D01*
G75*
G02*
X125290100Y-92142400I-140000J0D01*
G01*
X124950100Y-92142400D01*
G75*
G02*
X124810100Y-92002400I0J140000D01*
G01*
X124810100Y-91722400D01*
G75*
G02*
X124950100Y-91582400I140000J0D01*
G01*
G37*
G36*
G01*
X150620100Y-119632399D02*
X150620100Y-117132401D01*
G75*
G02*
X150870101Y-116882400I250001J0D01*
G01*
X151870099Y-116882400D01*
G75*
G02*
X152120100Y-117132401I0J-250001D01*
G01*
X152120100Y-119632399D01*
G75*
G02*
X151870099Y-119882400I-250001J0D01*
G01*
X150870101Y-119882400D01*
G75*
G02*
X150620100Y-119632399I0J250001D01*
G01*
G37*
D12*
X151370100Y-123382400D03*
D13*
X156370100Y-118382400D03*
X156370100Y-123382400D03*
G36*
X125620100Y-78132400D02*
G01*
X125620100Y-78682400D01*
X125615822Y-78682400D01*
X125615822Y-78747663D01*
X125582040Y-78873742D01*
X125516777Y-78986781D01*
X125424481Y-79079077D01*
X125311442Y-79144340D01*
X125185363Y-79178122D01*
X125120100Y-79178122D01*
X125120100Y-79182400D01*
X124620100Y-79182400D01*
X124620100Y-79178122D01*
X124554837Y-79178122D01*
X124428758Y-79144340D01*
X124315719Y-79079077D01*
X124223423Y-78986781D01*
X124158160Y-78873742D01*
X124124378Y-78747663D01*
X124124378Y-78682400D01*
X124120100Y-78682400D01*
X124120100Y-78132400D01*
X125620100Y-78132400D01*
G37*
D14*
X124870100Y-77382400D03*
G36*
X124124378Y-76082400D02*
G01*
X124124378Y-76017137D01*
X124158160Y-75891058D01*
X124223423Y-75778019D01*
X124315719Y-75685723D01*
X124428758Y-75620460D01*
X124554837Y-75586678D01*
X124620100Y-75586678D01*
X124620100Y-75582400D01*
X125120100Y-75582400D01*
X125120100Y-75586678D01*
X125185363Y-75586678D01*
X125311442Y-75620460D01*
X125424481Y-75685723D01*
X125516777Y-75778019D01*
X125582040Y-75891058D01*
X125615822Y-76017137D01*
X125615822Y-76082400D01*
X125620100Y-76082400D01*
X125620100Y-76632400D01*
X124120100Y-76632400D01*
X124120100Y-76082400D01*
X124124378Y-76082400D01*
G37*
G36*
X127620100Y-76632400D02*
G01*
X127620100Y-76082400D01*
X127624378Y-76082400D01*
X127624378Y-76017137D01*
X127658160Y-75891058D01*
X127723423Y-75778019D01*
X127815719Y-75685723D01*
X127928758Y-75620460D01*
X128054837Y-75586678D01*
X128120100Y-75586678D01*
X128120100Y-75582400D01*
X128620100Y-75582400D01*
X128620100Y-75586678D01*
X128685363Y-75586678D01*
X128811442Y-75620460D01*
X128924481Y-75685723D01*
X129016777Y-75778019D01*
X129082040Y-75891058D01*
X129115822Y-76017137D01*
X129115822Y-76082400D01*
X129120100Y-76082400D01*
X129120100Y-76632400D01*
X127620100Y-76632400D01*
G37*
X128370100Y-77382400D03*
G36*
X129115822Y-78682400D02*
G01*
X129115822Y-78747663D01*
X129082040Y-78873742D01*
X129016777Y-78986781D01*
X128924481Y-79079077D01*
X128811442Y-79144340D01*
X128685363Y-79178122D01*
X128620100Y-79178122D01*
X128620100Y-79182400D01*
X128120100Y-79182400D01*
X128120100Y-79178122D01*
X128054837Y-79178122D01*
X127928758Y-79144340D01*
X127815719Y-79079077D01*
X127723423Y-78986781D01*
X127658160Y-78873742D01*
X127624378Y-78747663D01*
X127624378Y-78682400D01*
X127620100Y-78682400D01*
X127620100Y-78132400D01*
X129120100Y-78132400D01*
X129120100Y-78682400D01*
X129115822Y-78682400D01*
G37*
G36*
X125120100Y-120132400D02*
G01*
X125120100Y-120682400D01*
X125115822Y-120682400D01*
X125115822Y-120747663D01*
X125082040Y-120873742D01*
X125016777Y-120986781D01*
X124924481Y-121079077D01*
X124811442Y-121144340D01*
X124685363Y-121178122D01*
X124620100Y-121178122D01*
X124620100Y-121182400D01*
X124120100Y-121182400D01*
X124120100Y-121178122D01*
X124054837Y-121178122D01*
X123928758Y-121144340D01*
X123815719Y-121079077D01*
X123723423Y-120986781D01*
X123658160Y-120873742D01*
X123624378Y-120747663D01*
X123624378Y-120682400D01*
X123620100Y-120682400D01*
X123620100Y-120132400D01*
X125120100Y-120132400D01*
G37*
X124370100Y-119382400D03*
G36*
X123624378Y-118082400D02*
G01*
X123624378Y-118017137D01*
X123658160Y-117891058D01*
X123723423Y-117778019D01*
X123815719Y-117685723D01*
X123928758Y-117620460D01*
X124054837Y-117586678D01*
X124120100Y-117586678D01*
X124120100Y-117582400D01*
X124620100Y-117582400D01*
X124620100Y-117586678D01*
X124685363Y-117586678D01*
X124811442Y-117620460D01*
X124924481Y-117685723D01*
X125016777Y-117778019D01*
X125082040Y-117891058D01*
X125115822Y-118017137D01*
X125115822Y-118082400D01*
X125120100Y-118082400D01*
X125120100Y-118632400D01*
X123620100Y-118632400D01*
X123620100Y-118082400D01*
X123624378Y-118082400D01*
G37*
G36*
X125120100Y-112632400D02*
G01*
X125120100Y-113182400D01*
X125115822Y-113182400D01*
X125115822Y-113247663D01*
X125082040Y-113373742D01*
X125016777Y-113486781D01*
X124924481Y-113579077D01*
X124811442Y-113644340D01*
X124685363Y-113678122D01*
X124620100Y-113678122D01*
X124620100Y-113682400D01*
X124120100Y-113682400D01*
X124120100Y-113678122D01*
X124054837Y-113678122D01*
X123928758Y-113644340D01*
X123815719Y-113579077D01*
X123723423Y-113486781D01*
X123658160Y-113373742D01*
X123624378Y-113247663D01*
X123624378Y-113182400D01*
X123620100Y-113182400D01*
X123620100Y-112632400D01*
X125120100Y-112632400D01*
G37*
X124370100Y-111882400D03*
G36*
X123624378Y-110582400D02*
G01*
X123624378Y-110517137D01*
X123658160Y-110391058D01*
X123723423Y-110278019D01*
X123815719Y-110185723D01*
X123928758Y-110120460D01*
X124054837Y-110086678D01*
X124120100Y-110086678D01*
X124120100Y-110082400D01*
X124620100Y-110082400D01*
X124620100Y-110086678D01*
X124685363Y-110086678D01*
X124811442Y-110120460D01*
X124924481Y-110185723D01*
X125016777Y-110278019D01*
X125082040Y-110391058D01*
X125115822Y-110517137D01*
X125115822Y-110582400D01*
X125120100Y-110582400D01*
X125120100Y-111132400D01*
X123620100Y-111132400D01*
X123620100Y-110582400D01*
X123624378Y-110582400D01*
G37*
G36*
X127620100Y-92232400D02*
G01*
X127620100Y-91732400D01*
X127624378Y-91732400D01*
X127624378Y-91667137D01*
X127658160Y-91541058D01*
X127723423Y-91428019D01*
X127815719Y-91335723D01*
X127928758Y-91270460D01*
X128054837Y-91236678D01*
X128120100Y-91236678D01*
X128120100Y-91232400D01*
X128620100Y-91232400D01*
X128620100Y-91236678D01*
X128685363Y-91236678D01*
X128811442Y-91270460D01*
X128924481Y-91335723D01*
X129016777Y-91428019D01*
X129082040Y-91541058D01*
X129115822Y-91667137D01*
X129115822Y-91732400D01*
X129120100Y-91732400D01*
X129120100Y-92232400D01*
X127620100Y-92232400D01*
G37*
G36*
X129115822Y-93032400D02*
G01*
X129115822Y-93097663D01*
X129082040Y-93223742D01*
X129016777Y-93336781D01*
X128924481Y-93429077D01*
X128811442Y-93494340D01*
X128685363Y-93528122D01*
X128620100Y-93528122D01*
X128620100Y-93532400D01*
X128120100Y-93532400D01*
X128120100Y-93528122D01*
X128054837Y-93528122D01*
X127928758Y-93494340D01*
X127815719Y-93429077D01*
X127723423Y-93336781D01*
X127658160Y-93223742D01*
X127624378Y-93097663D01*
X127624378Y-93032400D01*
X127620100Y-93032400D01*
X127620100Y-92532400D01*
X129120100Y-92532400D01*
X129120100Y-93032400D01*
X129115822Y-93032400D01*
G37*
G36*
X133620100Y-92232400D02*
G01*
X133620100Y-91732400D01*
X133624378Y-91732400D01*
X133624378Y-91667137D01*
X133658160Y-91541058D01*
X133723423Y-91428019D01*
X133815719Y-91335723D01*
X133928758Y-91270460D01*
X134054837Y-91236678D01*
X134120100Y-91236678D01*
X134120100Y-91232400D01*
X134620100Y-91232400D01*
X134620100Y-91236678D01*
X134685363Y-91236678D01*
X134811442Y-91270460D01*
X134924481Y-91335723D01*
X135016777Y-91428019D01*
X135082040Y-91541058D01*
X135115822Y-91667137D01*
X135115822Y-91732400D01*
X135120100Y-91732400D01*
X135120100Y-92232400D01*
X133620100Y-92232400D01*
G37*
G36*
X135115822Y-93032400D02*
G01*
X135115822Y-93097663D01*
X135082040Y-93223742D01*
X135016777Y-93336781D01*
X134924481Y-93429077D01*
X134811442Y-93494340D01*
X134685363Y-93528122D01*
X134620100Y-93528122D01*
X134620100Y-93532400D01*
X134120100Y-93532400D01*
X134120100Y-93528122D01*
X134054837Y-93528122D01*
X133928758Y-93494340D01*
X133815719Y-93429077D01*
X133723423Y-93336781D01*
X133658160Y-93223742D01*
X133624378Y-93097663D01*
X133624378Y-93032400D01*
X133620100Y-93032400D01*
X133620100Y-92532400D01*
X135120100Y-92532400D01*
X135120100Y-93032400D01*
X135115822Y-93032400D01*
G37*
G36*
G01*
X157131100Y-75567400D02*
X157131100Y-75197400D01*
G75*
G02*
X157266100Y-75062400I135000J0D01*
G01*
X157536100Y-75062400D01*
G75*
G02*
X157671100Y-75197400I0J-135000D01*
G01*
X157671100Y-75567400D01*
G75*
G02*
X157536100Y-75702400I-135000J0D01*
G01*
X157266100Y-75702400D01*
G75*
G02*
X157131100Y-75567400I0J135000D01*
G01*
G37*
G36*
G01*
X158151100Y-75567400D02*
X158151100Y-75197400D01*
G75*
G02*
X158286100Y-75062400I135000J0D01*
G01*
X158556100Y-75062400D01*
G75*
G02*
X158691100Y-75197400I0J-135000D01*
G01*
X158691100Y-75567400D01*
G75*
G02*
X158556100Y-75702400I-135000J0D01*
G01*
X158286100Y-75702400D01*
G75*
G02*
X158151100Y-75567400I0J135000D01*
G01*
G37*
G36*
G01*
X157131100Y-77317400D02*
X157131100Y-76947400D01*
G75*
G02*
X157266100Y-76812400I135000J0D01*
G01*
X157536100Y-76812400D01*
G75*
G02*
X157671100Y-76947400I0J-135000D01*
G01*
X157671100Y-77317400D01*
G75*
G02*
X157536100Y-77452400I-135000J0D01*
G01*
X157266100Y-77452400D01*
G75*
G02*
X157131100Y-77317400I0J135000D01*
G01*
G37*
G36*
G01*
X158151100Y-77317400D02*
X158151100Y-76947400D01*
G75*
G02*
X158286100Y-76812400I135000J0D01*
G01*
X158556100Y-76812400D01*
G75*
G02*
X158691100Y-76947400I0J-135000D01*
G01*
X158691100Y-77317400D01*
G75*
G02*
X158556100Y-77452400I-135000J0D01*
G01*
X158286100Y-77452400D01*
G75*
G02*
X158151100Y-77317400I0J135000D01*
G01*
G37*
G36*
G01*
X157131100Y-80817400D02*
X157131100Y-80447400D01*
G75*
G02*
X157266100Y-80312400I135000J0D01*
G01*
X157536100Y-80312400D01*
G75*
G02*
X157671100Y-80447400I0J-135000D01*
G01*
X157671100Y-80817400D01*
G75*
G02*
X157536100Y-80952400I-135000J0D01*
G01*
X157266100Y-80952400D01*
G75*
G02*
X157131100Y-80817400I0J135000D01*
G01*
G37*
G36*
G01*
X158151100Y-80817400D02*
X158151100Y-80447400D01*
G75*
G02*
X158286100Y-80312400I135000J0D01*
G01*
X158556100Y-80312400D01*
G75*
G02*
X158691100Y-80447400I0J-135000D01*
G01*
X158691100Y-80817400D01*
G75*
G02*
X158556100Y-80952400I-135000J0D01*
G01*
X158286100Y-80952400D01*
G75*
G02*
X158151100Y-80817400I0J135000D01*
G01*
G37*
D15*
X155370100Y-72382400D03*
X155370100Y-65882400D03*
X159870100Y-72382400D03*
X159870100Y-65882400D03*
X136870100Y-72382400D03*
X136870100Y-65882400D03*
X141370100Y-72382400D03*
X141370100Y-65882400D03*
G36*
G01*
X131820100Y-89137400D02*
X131820100Y-89437400D01*
G75*
G02*
X131670100Y-89587400I-150000J0D01*
G01*
X130020100Y-89587400D01*
G75*
G02*
X129870100Y-89437400I0J150000D01*
G01*
X129870100Y-89137400D01*
G75*
G02*
X130020100Y-88987400I150000J0D01*
G01*
X131670100Y-88987400D01*
G75*
G02*
X131820100Y-89137400I0J-150000D01*
G01*
G37*
G36*
G01*
X131820100Y-87867400D02*
X131820100Y-88167400D01*
G75*
G02*
X131670100Y-88317400I-150000J0D01*
G01*
X130020100Y-88317400D01*
G75*
G02*
X129870100Y-88167400I0J150000D01*
G01*
X129870100Y-87867400D01*
G75*
G02*
X130020100Y-87717400I150000J0D01*
G01*
X131670100Y-87717400D01*
G75*
G02*
X131820100Y-87867400I0J-150000D01*
G01*
G37*
G36*
G01*
X131820100Y-86597400D02*
X131820100Y-86897400D01*
G75*
G02*
X131670100Y-87047400I-150000J0D01*
G01*
X130020100Y-87047400D01*
G75*
G02*
X129870100Y-86897400I0J150000D01*
G01*
X129870100Y-86597400D01*
G75*
G02*
X130020100Y-86447400I150000J0D01*
G01*
X131670100Y-86447400D01*
G75*
G02*
X131820100Y-86597400I0J-150000D01*
G01*
G37*
G36*
G01*
X131820100Y-85327400D02*
X131820100Y-85627400D01*
G75*
G02*
X131670100Y-85777400I-150000J0D01*
G01*
X130020100Y-85777400D01*
G75*
G02*
X129870100Y-85627400I0J150000D01*
G01*
X129870100Y-85327400D01*
G75*
G02*
X130020100Y-85177400I150000J0D01*
G01*
X131670100Y-85177400D01*
G75*
G02*
X131820100Y-85327400I0J-150000D01*
G01*
G37*
G36*
G01*
X126870100Y-85327400D02*
X126870100Y-85627400D01*
G75*
G02*
X126720100Y-85777400I-150000J0D01*
G01*
X125070100Y-85777400D01*
G75*
G02*
X124920100Y-85627400I0J150000D01*
G01*
X124920100Y-85327400D01*
G75*
G02*
X125070100Y-85177400I150000J0D01*
G01*
X126720100Y-85177400D01*
G75*
G02*
X126870100Y-85327400I0J-150000D01*
G01*
G37*
G36*
G01*
X126870100Y-86597400D02*
X126870100Y-86897400D01*
G75*
G02*
X126720100Y-87047400I-150000J0D01*
G01*
X125070100Y-87047400D01*
G75*
G02*
X124920100Y-86897400I0J150000D01*
G01*
X124920100Y-86597400D01*
G75*
G02*
X125070100Y-86447400I150000J0D01*
G01*
X126720100Y-86447400D01*
G75*
G02*
X126870100Y-86597400I0J-150000D01*
G01*
G37*
G36*
G01*
X126870100Y-87867400D02*
X126870100Y-88167400D01*
G75*
G02*
X126720100Y-88317400I-150000J0D01*
G01*
X125070100Y-88317400D01*
G75*
G02*
X124920100Y-88167400I0J150000D01*
G01*
X124920100Y-87867400D01*
G75*
G02*
X125070100Y-87717400I150000J0D01*
G01*
X126720100Y-87717400D01*
G75*
G02*
X126870100Y-87867400I0J-150000D01*
G01*
G37*
G36*
G01*
X126870100Y-89137400D02*
X126870100Y-89437400D01*
G75*
G02*
X126720100Y-89587400I-150000J0D01*
G01*
X125070100Y-89587400D01*
G75*
G02*
X124920100Y-89437400I0J150000D01*
G01*
X124920100Y-89137400D01*
G75*
G02*
X125070100Y-88987400I150000J0D01*
G01*
X126720100Y-88987400D01*
G75*
G02*
X126870100Y-89137400I0J-150000D01*
G01*
G37*
G36*
G01*
X156136100Y-75126150D02*
X156136100Y-75638650D01*
G75*
G02*
X155917350Y-75857400I-218750J0D01*
G01*
X155479850Y-75857400D01*
G75*
G02*
X155261100Y-75638650I0J218750D01*
G01*
X155261100Y-75126150D01*
G75*
G02*
X155479850Y-74907400I218750J0D01*
G01*
X155917350Y-74907400D01*
G75*
G02*
X156136100Y-75126150I0J-218750D01*
G01*
G37*
G36*
G01*
X154561100Y-75126150D02*
X154561100Y-75638650D01*
G75*
G02*
X154342350Y-75857400I-218750J0D01*
G01*
X153904850Y-75857400D01*
G75*
G02*
X153686100Y-75638650I0J218750D01*
G01*
X153686100Y-75126150D01*
G75*
G02*
X153904850Y-74907400I218750J0D01*
G01*
X154342350Y-74907400D01*
G75*
G02*
X154561100Y-75126150I0J-218750D01*
G01*
G37*
G36*
G01*
X156136100Y-76876150D02*
X156136100Y-77388650D01*
G75*
G02*
X155917350Y-77607400I-218750J0D01*
G01*
X155479850Y-77607400D01*
G75*
G02*
X155261100Y-77388650I0J218750D01*
G01*
X155261100Y-76876150D01*
G75*
G02*
X155479850Y-76657400I218750J0D01*
G01*
X155917350Y-76657400D01*
G75*
G02*
X156136100Y-76876150I0J-218750D01*
G01*
G37*
G36*
G01*
X154561100Y-76876150D02*
X154561100Y-77388650D01*
G75*
G02*
X154342350Y-77607400I-218750J0D01*
G01*
X153904850Y-77607400D01*
G75*
G02*
X153686100Y-77388650I0J218750D01*
G01*
X153686100Y-76876150D01*
G75*
G02*
X153904850Y-76657400I218750J0D01*
G01*
X154342350Y-76657400D01*
G75*
G02*
X154561100Y-76876150I0J-218750D01*
G01*
G37*
G36*
G01*
X156136100Y-78626150D02*
X156136100Y-79138650D01*
G75*
G02*
X155917350Y-79357400I-218750J0D01*
G01*
X155479850Y-79357400D01*
G75*
G02*
X155261100Y-79138650I0J218750D01*
G01*
X155261100Y-78626150D01*
G75*
G02*
X155479850Y-78407400I218750J0D01*
G01*
X155917350Y-78407400D01*
G75*
G02*
X156136100Y-78626150I0J-218750D01*
G01*
G37*
G36*
G01*
X154561100Y-78626150D02*
X154561100Y-79138650D01*
G75*
G02*
X154342350Y-79357400I-218750J0D01*
G01*
X153904850Y-79357400D01*
G75*
G02*
X153686100Y-79138650I0J218750D01*
G01*
X153686100Y-78626150D01*
G75*
G02*
X153904850Y-78407400I218750J0D01*
G01*
X154342350Y-78407400D01*
G75*
G02*
X154561100Y-78626150I0J-218750D01*
G01*
G37*
G36*
G01*
X156136100Y-80376150D02*
X156136100Y-80888650D01*
G75*
G02*
X155917350Y-81107400I-218750J0D01*
G01*
X155479850Y-81107400D01*
G75*
G02*
X155261100Y-80888650I0J218750D01*
G01*
X155261100Y-80376150D01*
G75*
G02*
X155479850Y-80157400I218750J0D01*
G01*
X155917350Y-80157400D01*
G75*
G02*
X156136100Y-80376150I0J-218750D01*
G01*
G37*
G36*
G01*
X154561100Y-80376150D02*
X154561100Y-80888650D01*
G75*
G02*
X154342350Y-81107400I-218750J0D01*
G01*
X153904850Y-81107400D01*
G75*
G02*
X153686100Y-80888650I0J218750D01*
G01*
X153686100Y-80376150D01*
G75*
G02*
X153904850Y-80157400I218750J0D01*
G01*
X154342350Y-80157400D01*
G75*
G02*
X154561100Y-80376150I0J-218750D01*
G01*
G37*
G36*
G01*
X156136100Y-82126150D02*
X156136100Y-82638650D01*
G75*
G02*
X155917350Y-82857400I-218750J0D01*
G01*
X155479850Y-82857400D01*
G75*
G02*
X155261100Y-82638650I0J218750D01*
G01*
X155261100Y-82126150D01*
G75*
G02*
X155479850Y-81907400I218750J0D01*
G01*
X155917350Y-81907400D01*
G75*
G02*
X156136100Y-82126150I0J-218750D01*
G01*
G37*
G36*
G01*
X154561100Y-82126150D02*
X154561100Y-82638650D01*
G75*
G02*
X154342350Y-82857400I-218750J0D01*
G01*
X153904850Y-82857400D01*
G75*
G02*
X153686100Y-82638650I0J218750D01*
G01*
X153686100Y-82126150D01*
G75*
G02*
X153904850Y-81907400I218750J0D01*
G01*
X154342350Y-81907400D01*
G75*
G02*
X154561100Y-82126150I0J-218750D01*
G01*
G37*
G36*
G01*
X156136100Y-83876150D02*
X156136100Y-84388650D01*
G75*
G02*
X155917350Y-84607400I-218750J0D01*
G01*
X155479850Y-84607400D01*
G75*
G02*
X155261100Y-84388650I0J218750D01*
G01*
X155261100Y-83876150D01*
G75*
G02*
X155479850Y-83657400I218750J0D01*
G01*
X155917350Y-83657400D01*
G75*
G02*
X156136100Y-83876150I0J-218750D01*
G01*
G37*
G36*
G01*
X154561100Y-83876150D02*
X154561100Y-84388650D01*
G75*
G02*
X154342350Y-84607400I-218750J0D01*
G01*
X153904850Y-84607400D01*
G75*
G02*
X153686100Y-84388650I0J218750D01*
G01*
X153686100Y-83876150D01*
G75*
G02*
X153904850Y-83657400I218750J0D01*
G01*
X154342350Y-83657400D01*
G75*
G02*
X154561100Y-83876150I0J-218750D01*
G01*
G37*
G36*
G01*
X156136100Y-85626150D02*
X156136100Y-86138650D01*
G75*
G02*
X155917350Y-86357400I-218750J0D01*
G01*
X155479850Y-86357400D01*
G75*
G02*
X155261100Y-86138650I0J218750D01*
G01*
X155261100Y-85626150D01*
G75*
G02*
X155479850Y-85407400I218750J0D01*
G01*
X155917350Y-85407400D01*
G75*
G02*
X156136100Y-85626150I0J-218750D01*
G01*
G37*
G36*
G01*
X154561100Y-85626150D02*
X154561100Y-86138650D01*
G75*
G02*
X154342350Y-86357400I-218750J0D01*
G01*
X153904850Y-86357400D01*
G75*
G02*
X153686100Y-86138650I0J218750D01*
G01*
X153686100Y-85626150D01*
G75*
G02*
X153904850Y-85407400I218750J0D01*
G01*
X154342350Y-85407400D01*
G75*
G02*
X154561100Y-85626150I0J-218750D01*
G01*
G37*
G36*
G01*
X156136100Y-87376150D02*
X156136100Y-87888650D01*
G75*
G02*
X155917350Y-88107400I-218750J0D01*
G01*
X155479850Y-88107400D01*
G75*
G02*
X155261100Y-87888650I0J218750D01*
G01*
X155261100Y-87376150D01*
G75*
G02*
X155479850Y-87157400I218750J0D01*
G01*
X155917350Y-87157400D01*
G75*
G02*
X156136100Y-87376150I0J-218750D01*
G01*
G37*
G36*
G01*
X154561100Y-87376150D02*
X154561100Y-87888650D01*
G75*
G02*
X154342350Y-88107400I-218750J0D01*
G01*
X153904850Y-88107400D01*
G75*
G02*
X153686100Y-87888650I0J218750D01*
G01*
X153686100Y-87376150D01*
G75*
G02*
X153904850Y-87157400I218750J0D01*
G01*
X154342350Y-87157400D01*
G75*
G02*
X154561100Y-87376150I0J-218750D01*
G01*
G37*
G36*
G01*
X156136100Y-89126150D02*
X156136100Y-89638650D01*
G75*
G02*
X155917350Y-89857400I-218750J0D01*
G01*
X155479850Y-89857400D01*
G75*
G02*
X155261100Y-89638650I0J218750D01*
G01*
X155261100Y-89126150D01*
G75*
G02*
X155479850Y-88907400I218750J0D01*
G01*
X155917350Y-88907400D01*
G75*
G02*
X156136100Y-89126150I0J-218750D01*
G01*
G37*
G36*
G01*
X154561100Y-89126150D02*
X154561100Y-89638650D01*
G75*
G02*
X154342350Y-89857400I-218750J0D01*
G01*
X153904850Y-89857400D01*
G75*
G02*
X153686100Y-89638650I0J218750D01*
G01*
X153686100Y-89126150D01*
G75*
G02*
X153904850Y-88907400I218750J0D01*
G01*
X154342350Y-88907400D01*
G75*
G02*
X154561100Y-89126150I0J-218750D01*
G01*
G37*
G36*
G01*
X156136100Y-90876150D02*
X156136100Y-91388650D01*
G75*
G02*
X155917350Y-91607400I-218750J0D01*
G01*
X155479850Y-91607400D01*
G75*
G02*
X155261100Y-91388650I0J218750D01*
G01*
X155261100Y-90876150D01*
G75*
G02*
X155479850Y-90657400I218750J0D01*
G01*
X155917350Y-90657400D01*
G75*
G02*
X156136100Y-90876150I0J-218750D01*
G01*
G37*
G36*
G01*
X154561100Y-90876150D02*
X154561100Y-91388650D01*
G75*
G02*
X154342350Y-91607400I-218750J0D01*
G01*
X153904850Y-91607400D01*
G75*
G02*
X153686100Y-91388650I0J218750D01*
G01*
X153686100Y-90876150D01*
G75*
G02*
X153904850Y-90657400I218750J0D01*
G01*
X154342350Y-90657400D01*
G75*
G02*
X154561100Y-90876150I0J-218750D01*
G01*
G37*
G36*
G01*
X156136100Y-92626150D02*
X156136100Y-93138650D01*
G75*
G02*
X155917350Y-93357400I-218750J0D01*
G01*
X155479850Y-93357400D01*
G75*
G02*
X155261100Y-93138650I0J218750D01*
G01*
X155261100Y-92626150D01*
G75*
G02*
X155479850Y-92407400I218750J0D01*
G01*
X155917350Y-92407400D01*
G75*
G02*
X156136100Y-92626150I0J-218750D01*
G01*
G37*
G36*
G01*
X154561100Y-92626150D02*
X154561100Y-93138650D01*
G75*
G02*
X154342350Y-93357400I-218750J0D01*
G01*
X153904850Y-93357400D01*
G75*
G02*
X153686100Y-93138650I0J218750D01*
G01*
X153686100Y-92626150D01*
G75*
G02*
X153904850Y-92407400I218750J0D01*
G01*
X154342350Y-92407400D01*
G75*
G02*
X154561100Y-92626150I0J-218750D01*
G01*
G37*
G36*
G01*
X156136100Y-94376150D02*
X156136100Y-94888650D01*
G75*
G02*
X155917350Y-95107400I-218750J0D01*
G01*
X155479850Y-95107400D01*
G75*
G02*
X155261100Y-94888650I0J218750D01*
G01*
X155261100Y-94376150D01*
G75*
G02*
X155479850Y-94157400I218750J0D01*
G01*
X155917350Y-94157400D01*
G75*
G02*
X156136100Y-94376150I0J-218750D01*
G01*
G37*
G36*
G01*
X154561100Y-94376150D02*
X154561100Y-94888650D01*
G75*
G02*
X154342350Y-95107400I-218750J0D01*
G01*
X153904850Y-95107400D01*
G75*
G02*
X153686100Y-94888650I0J218750D01*
G01*
X153686100Y-94376150D01*
G75*
G02*
X153904850Y-94157400I218750J0D01*
G01*
X154342350Y-94157400D01*
G75*
G02*
X154561100Y-94376150I0J-218750D01*
G01*
G37*
G36*
G01*
X156136100Y-96126150D02*
X156136100Y-96638650D01*
G75*
G02*
X155917350Y-96857400I-218750J0D01*
G01*
X155479850Y-96857400D01*
G75*
G02*
X155261100Y-96638650I0J218750D01*
G01*
X155261100Y-96126150D01*
G75*
G02*
X155479850Y-95907400I218750J0D01*
G01*
X155917350Y-95907400D01*
G75*
G02*
X156136100Y-96126150I0J-218750D01*
G01*
G37*
G36*
G01*
X154561100Y-96126150D02*
X154561100Y-96638650D01*
G75*
G02*
X154342350Y-96857400I-218750J0D01*
G01*
X153904850Y-96857400D01*
G75*
G02*
X153686100Y-96638650I0J218750D01*
G01*
X153686100Y-96126150D01*
G75*
G02*
X153904850Y-95907400I218750J0D01*
G01*
X154342350Y-95907400D01*
G75*
G02*
X154561100Y-96126150I0J-218750D01*
G01*
G37*
G36*
G01*
X157121100Y-82567400D02*
X157121100Y-82197400D01*
G75*
G02*
X157256100Y-82062400I135000J0D01*
G01*
X157526100Y-82062400D01*
G75*
G02*
X157661100Y-82197400I0J-135000D01*
G01*
X157661100Y-82567400D01*
G75*
G02*
X157526100Y-82702400I-135000J0D01*
G01*
X157256100Y-82702400D01*
G75*
G02*
X157121100Y-82567400I0J135000D01*
G01*
G37*
G36*
G01*
X158141100Y-82567400D02*
X158141100Y-82197400D01*
G75*
G02*
X158276100Y-82062400I135000J0D01*
G01*
X158546100Y-82062400D01*
G75*
G02*
X158681100Y-82197400I0J-135000D01*
G01*
X158681100Y-82567400D01*
G75*
G02*
X158546100Y-82702400I-135000J0D01*
G01*
X158276100Y-82702400D01*
G75*
G02*
X158141100Y-82567400I0J135000D01*
G01*
G37*
G36*
G01*
X157131100Y-84317400D02*
X157131100Y-83947400D01*
G75*
G02*
X157266100Y-83812400I135000J0D01*
G01*
X157536100Y-83812400D01*
G75*
G02*
X157671100Y-83947400I0J-135000D01*
G01*
X157671100Y-84317400D01*
G75*
G02*
X157536100Y-84452400I-135000J0D01*
G01*
X157266100Y-84452400D01*
G75*
G02*
X157131100Y-84317400I0J135000D01*
G01*
G37*
G36*
G01*
X158151100Y-84317400D02*
X158151100Y-83947400D01*
G75*
G02*
X158286100Y-83812400I135000J0D01*
G01*
X158556100Y-83812400D01*
G75*
G02*
X158691100Y-83947400I0J-135000D01*
G01*
X158691100Y-84317400D01*
G75*
G02*
X158556100Y-84452400I-135000J0D01*
G01*
X158286100Y-84452400D01*
G75*
G02*
X158151100Y-84317400I0J135000D01*
G01*
G37*
G36*
G01*
X157131100Y-86067400D02*
X157131100Y-85697400D01*
G75*
G02*
X157266100Y-85562400I135000J0D01*
G01*
X157536100Y-85562400D01*
G75*
G02*
X157671100Y-85697400I0J-135000D01*
G01*
X157671100Y-86067400D01*
G75*
G02*
X157536100Y-86202400I-135000J0D01*
G01*
X157266100Y-86202400D01*
G75*
G02*
X157131100Y-86067400I0J135000D01*
G01*
G37*
G36*
G01*
X158151100Y-86067400D02*
X158151100Y-85697400D01*
G75*
G02*
X158286100Y-85562400I135000J0D01*
G01*
X158556100Y-85562400D01*
G75*
G02*
X158691100Y-85697400I0J-135000D01*
G01*
X158691100Y-86067400D01*
G75*
G02*
X158556100Y-86202400I-135000J0D01*
G01*
X158286100Y-86202400D01*
G75*
G02*
X158151100Y-86067400I0J135000D01*
G01*
G37*
G36*
G01*
X157131100Y-87817400D02*
X157131100Y-87447400D01*
G75*
G02*
X157266100Y-87312400I135000J0D01*
G01*
X157536100Y-87312400D01*
G75*
G02*
X157671100Y-87447400I0J-135000D01*
G01*
X157671100Y-87817400D01*
G75*
G02*
X157536100Y-87952400I-135000J0D01*
G01*
X157266100Y-87952400D01*
G75*
G02*
X157131100Y-87817400I0J135000D01*
G01*
G37*
G36*
G01*
X158151100Y-87817400D02*
X158151100Y-87447400D01*
G75*
G02*
X158286100Y-87312400I135000J0D01*
G01*
X158556100Y-87312400D01*
G75*
G02*
X158691100Y-87447400I0J-135000D01*
G01*
X158691100Y-87817400D01*
G75*
G02*
X158556100Y-87952400I-135000J0D01*
G01*
X158286100Y-87952400D01*
G75*
G02*
X158151100Y-87817400I0J135000D01*
G01*
G37*
G36*
G01*
X157131100Y-89567400D02*
X157131100Y-89197400D01*
G75*
G02*
X157266100Y-89062400I135000J0D01*
G01*
X157536100Y-89062400D01*
G75*
G02*
X157671100Y-89197400I0J-135000D01*
G01*
X157671100Y-89567400D01*
G75*
G02*
X157536100Y-89702400I-135000J0D01*
G01*
X157266100Y-89702400D01*
G75*
G02*
X157131100Y-89567400I0J135000D01*
G01*
G37*
G36*
G01*
X158151100Y-89567400D02*
X158151100Y-89197400D01*
G75*
G02*
X158286100Y-89062400I135000J0D01*
G01*
X158556100Y-89062400D01*
G75*
G02*
X158691100Y-89197400I0J-135000D01*
G01*
X158691100Y-89567400D01*
G75*
G02*
X158556100Y-89702400I-135000J0D01*
G01*
X158286100Y-89702400D01*
G75*
G02*
X158151100Y-89567400I0J135000D01*
G01*
G37*
G36*
G01*
X157131100Y-91317400D02*
X157131100Y-90947400D01*
G75*
G02*
X157266100Y-90812400I135000J0D01*
G01*
X157536100Y-90812400D01*
G75*
G02*
X157671100Y-90947400I0J-135000D01*
G01*
X157671100Y-91317400D01*
G75*
G02*
X157536100Y-91452400I-135000J0D01*
G01*
X157266100Y-91452400D01*
G75*
G02*
X157131100Y-91317400I0J135000D01*
G01*
G37*
G36*
G01*
X158151100Y-91317400D02*
X158151100Y-90947400D01*
G75*
G02*
X158286100Y-90812400I135000J0D01*
G01*
X158556100Y-90812400D01*
G75*
G02*
X158691100Y-90947400I0J-135000D01*
G01*
X158691100Y-91317400D01*
G75*
G02*
X158556100Y-91452400I-135000J0D01*
G01*
X158286100Y-91452400D01*
G75*
G02*
X158151100Y-91317400I0J135000D01*
G01*
G37*
G36*
G01*
X157131100Y-93067400D02*
X157131100Y-92697400D01*
G75*
G02*
X157266100Y-92562400I135000J0D01*
G01*
X157536100Y-92562400D01*
G75*
G02*
X157671100Y-92697400I0J-135000D01*
G01*
X157671100Y-93067400D01*
G75*
G02*
X157536100Y-93202400I-135000J0D01*
G01*
X157266100Y-93202400D01*
G75*
G02*
X157131100Y-93067400I0J135000D01*
G01*
G37*
G36*
G01*
X158151100Y-93067400D02*
X158151100Y-92697400D01*
G75*
G02*
X158286100Y-92562400I135000J0D01*
G01*
X158556100Y-92562400D01*
G75*
G02*
X158691100Y-92697400I0J-135000D01*
G01*
X158691100Y-93067400D01*
G75*
G02*
X158556100Y-93202400I-135000J0D01*
G01*
X158286100Y-93202400D01*
G75*
G02*
X158151100Y-93067400I0J135000D01*
G01*
G37*
G36*
G01*
X157131100Y-94817400D02*
X157131100Y-94447400D01*
G75*
G02*
X157266100Y-94312400I135000J0D01*
G01*
X157536100Y-94312400D01*
G75*
G02*
X157671100Y-94447400I0J-135000D01*
G01*
X157671100Y-94817400D01*
G75*
G02*
X157536100Y-94952400I-135000J0D01*
G01*
X157266100Y-94952400D01*
G75*
G02*
X157131100Y-94817400I0J135000D01*
G01*
G37*
G36*
G01*
X158151100Y-94817400D02*
X158151100Y-94447400D01*
G75*
G02*
X158286100Y-94312400I135000J0D01*
G01*
X158556100Y-94312400D01*
G75*
G02*
X158691100Y-94447400I0J-135000D01*
G01*
X158691100Y-94817400D01*
G75*
G02*
X158556100Y-94952400I-135000J0D01*
G01*
X158286100Y-94952400D01*
G75*
G02*
X158151100Y-94817400I0J135000D01*
G01*
G37*
G36*
G01*
X157131100Y-96567400D02*
X157131100Y-96197400D01*
G75*
G02*
X157266100Y-96062400I135000J0D01*
G01*
X157536100Y-96062400D01*
G75*
G02*
X157671100Y-96197400I0J-135000D01*
G01*
X157671100Y-96567400D01*
G75*
G02*
X157536100Y-96702400I-135000J0D01*
G01*
X157266100Y-96702400D01*
G75*
G02*
X157131100Y-96567400I0J135000D01*
G01*
G37*
G36*
G01*
X158151100Y-96567400D02*
X158151100Y-96197400D01*
G75*
G02*
X158286100Y-96062400I135000J0D01*
G01*
X158556100Y-96062400D01*
G75*
G02*
X158691100Y-96197400I0J-135000D01*
G01*
X158691100Y-96567400D01*
G75*
G02*
X158556100Y-96702400I-135000J0D01*
G01*
X158286100Y-96702400D01*
G75*
G02*
X158151100Y-96567400I0J135000D01*
G01*
G37*
G36*
G01*
X134140100Y-86597400D02*
X134140100Y-86967400D01*
G75*
G02*
X134005100Y-87102400I-135000J0D01*
G01*
X133735100Y-87102400D01*
G75*
G02*
X133600100Y-86967400I0J135000D01*
G01*
X133600100Y-86597400D01*
G75*
G02*
X133735100Y-86462400I135000J0D01*
G01*
X134005100Y-86462400D01*
G75*
G02*
X134140100Y-86597400I0J-135000D01*
G01*
G37*
G36*
G01*
X133120100Y-86597400D02*
X133120100Y-86967400D01*
G75*
G02*
X132985100Y-87102400I-135000J0D01*
G01*
X132715100Y-87102400D01*
G75*
G02*
X132580100Y-86967400I0J135000D01*
G01*
X132580100Y-86597400D01*
G75*
G02*
X132715100Y-86462400I135000J0D01*
G01*
X132985100Y-86462400D01*
G75*
G02*
X133120100Y-86597400I0J-135000D01*
G01*
G37*
G36*
G01*
X134140100Y-87847400D02*
X134140100Y-88217400D01*
G75*
G02*
X134005100Y-88352400I-135000J0D01*
G01*
X133735100Y-88352400D01*
G75*
G02*
X133600100Y-88217400I0J135000D01*
G01*
X133600100Y-87847400D01*
G75*
G02*
X133735100Y-87712400I135000J0D01*
G01*
X134005100Y-87712400D01*
G75*
G02*
X134140100Y-87847400I0J-135000D01*
G01*
G37*
G36*
G01*
X133120100Y-87847400D02*
X133120100Y-88217400D01*
G75*
G02*
X132985100Y-88352400I-135000J0D01*
G01*
X132715100Y-88352400D01*
G75*
G02*
X132580100Y-88217400I0J135000D01*
G01*
X132580100Y-87847400D01*
G75*
G02*
X132715100Y-87712400I135000J0D01*
G01*
X132985100Y-87712400D01*
G75*
G02*
X133120100Y-87847400I0J-135000D01*
G01*
G37*
G36*
G01*
X134150100Y-89097400D02*
X134150100Y-89467400D01*
G75*
G02*
X134015100Y-89602400I-135000J0D01*
G01*
X133745100Y-89602400D01*
G75*
G02*
X133610100Y-89467400I0J135000D01*
G01*
X133610100Y-89097400D01*
G75*
G02*
X133745100Y-88962400I135000J0D01*
G01*
X134015100Y-88962400D01*
G75*
G02*
X134150100Y-89097400I0J-135000D01*
G01*
G37*
G36*
G01*
X133130100Y-89097400D02*
X133130100Y-89467400D01*
G75*
G02*
X132995100Y-89602400I-135000J0D01*
G01*
X132725100Y-89602400D01*
G75*
G02*
X132590100Y-89467400I0J135000D01*
G01*
X132590100Y-89097400D01*
G75*
G02*
X132725100Y-88962400I135000J0D01*
G01*
X132995100Y-88962400D01*
G75*
G02*
X133130100Y-89097400I0J-135000D01*
G01*
G37*
G36*
G01*
X122555100Y-91162400D02*
X122185100Y-91162400D01*
G75*
G02*
X122050100Y-91027400I0J135000D01*
G01*
X122050100Y-90757400D01*
G75*
G02*
X122185100Y-90622400I135000J0D01*
G01*
X122555100Y-90622400D01*
G75*
G02*
X122690100Y-90757400I0J-135000D01*
G01*
X122690100Y-91027400D01*
G75*
G02*
X122555100Y-91162400I-135000J0D01*
G01*
G37*
G36*
G01*
X122555100Y-90142400D02*
X122185100Y-90142400D01*
G75*
G02*
X122050100Y-90007400I0J135000D01*
G01*
X122050100Y-89737400D01*
G75*
G02*
X122185100Y-89602400I135000J0D01*
G01*
X122555100Y-89602400D01*
G75*
G02*
X122690100Y-89737400I0J-135000D01*
G01*
X122690100Y-90007400D01*
G75*
G02*
X122555100Y-90142400I-135000J0D01*
G01*
G37*
G36*
G01*
X157131100Y-79067400D02*
X157131100Y-78697400D01*
G75*
G02*
X157266100Y-78562400I135000J0D01*
G01*
X157536100Y-78562400D01*
G75*
G02*
X157671100Y-78697400I0J-135000D01*
G01*
X157671100Y-79067400D01*
G75*
G02*
X157536100Y-79202400I-135000J0D01*
G01*
X157266100Y-79202400D01*
G75*
G02*
X157131100Y-79067400I0J135000D01*
G01*
G37*
G36*
G01*
X158151100Y-79067400D02*
X158151100Y-78697400D01*
G75*
G02*
X158286100Y-78562400I135000J0D01*
G01*
X158556100Y-78562400D01*
G75*
G02*
X158691100Y-78697400I0J-135000D01*
G01*
X158691100Y-79067400D01*
G75*
G02*
X158556100Y-79202400I-135000J0D01*
G01*
X158286100Y-79202400D01*
G75*
G02*
X158151100Y-79067400I0J135000D01*
G01*
G37*
G36*
X130620100Y-92232400D02*
G01*
X130620100Y-91732400D01*
X130624378Y-91732400D01*
X130624378Y-91667137D01*
X130658160Y-91541058D01*
X130723423Y-91428019D01*
X130815719Y-91335723D01*
X130928758Y-91270460D01*
X131054837Y-91236678D01*
X131120100Y-91236678D01*
X131120100Y-91232400D01*
X131620100Y-91232400D01*
X131620100Y-91236678D01*
X131685363Y-91236678D01*
X131811442Y-91270460D01*
X131924481Y-91335723D01*
X132016777Y-91428019D01*
X132082040Y-91541058D01*
X132115822Y-91667137D01*
X132115822Y-91732400D01*
X132120100Y-91732400D01*
X132120100Y-92232400D01*
X130620100Y-92232400D01*
G37*
G36*
X132115822Y-93032400D02*
G01*
X132115822Y-93097663D01*
X132082040Y-93223742D01*
X132016777Y-93336781D01*
X131924481Y-93429077D01*
X131811442Y-93494340D01*
X131685363Y-93528122D01*
X131620100Y-93528122D01*
X131620100Y-93532400D01*
X131120100Y-93532400D01*
X131120100Y-93528122D01*
X131054837Y-93528122D01*
X130928758Y-93494340D01*
X130815719Y-93429077D01*
X130723423Y-93336781D01*
X130658160Y-93223742D01*
X130624378Y-93097663D01*
X130624378Y-93032400D01*
X130620100Y-93032400D01*
X130620100Y-92532400D01*
X132120100Y-92532400D01*
X132120100Y-93032400D01*
X132115822Y-93032400D01*
G37*
G36*
G01*
X155625100Y-102182400D02*
X155925100Y-102182400D01*
G75*
G02*
X156075100Y-102332400I0J-150000D01*
G01*
X156075100Y-103982400D01*
G75*
G02*
X155925100Y-104132400I-150000J0D01*
G01*
X155625100Y-104132400D01*
G75*
G02*
X155475100Y-103982400I0J150000D01*
G01*
X155475100Y-102332400D01*
G75*
G02*
X155625100Y-102182400I150000J0D01*
G01*
G37*
G36*
G01*
X154355100Y-102182400D02*
X154655100Y-102182400D01*
G75*
G02*
X154805100Y-102332400I0J-150000D01*
G01*
X154805100Y-103982400D01*
G75*
G02*
X154655100Y-104132400I-150000J0D01*
G01*
X154355100Y-104132400D01*
G75*
G02*
X154205100Y-103982400I0J150000D01*
G01*
X154205100Y-102332400D01*
G75*
G02*
X154355100Y-102182400I150000J0D01*
G01*
G37*
G36*
G01*
X153085100Y-102182400D02*
X153385100Y-102182400D01*
G75*
G02*
X153535100Y-102332400I0J-150000D01*
G01*
X153535100Y-103982400D01*
G75*
G02*
X153385100Y-104132400I-150000J0D01*
G01*
X153085100Y-104132400D01*
G75*
G02*
X152935100Y-103982400I0J150000D01*
G01*
X152935100Y-102332400D01*
G75*
G02*
X153085100Y-102182400I150000J0D01*
G01*
G37*
G36*
G01*
X151815100Y-102182400D02*
X152115100Y-102182400D01*
G75*
G02*
X152265100Y-102332400I0J-150000D01*
G01*
X152265100Y-103982400D01*
G75*
G02*
X152115100Y-104132400I-150000J0D01*
G01*
X151815100Y-104132400D01*
G75*
G02*
X151665100Y-103982400I0J150000D01*
G01*
X151665100Y-102332400D01*
G75*
G02*
X151815100Y-102182400I150000J0D01*
G01*
G37*
G36*
G01*
X151815100Y-107132400D02*
X152115100Y-107132400D01*
G75*
G02*
X152265100Y-107282400I0J-150000D01*
G01*
X152265100Y-108932400D01*
G75*
G02*
X152115100Y-109082400I-150000J0D01*
G01*
X151815100Y-109082400D01*
G75*
G02*
X151665100Y-108932400I0J150000D01*
G01*
X151665100Y-107282400D01*
G75*
G02*
X151815100Y-107132400I150000J0D01*
G01*
G37*
G36*
G01*
X153085100Y-107132400D02*
X153385100Y-107132400D01*
G75*
G02*
X153535100Y-107282400I0J-150000D01*
G01*
X153535100Y-108932400D01*
G75*
G02*
X153385100Y-109082400I-150000J0D01*
G01*
X153085100Y-109082400D01*
G75*
G02*
X152935100Y-108932400I0J150000D01*
G01*
X152935100Y-107282400D01*
G75*
G02*
X153085100Y-107132400I150000J0D01*
G01*
G37*
G36*
G01*
X154355100Y-107132400D02*
X154655100Y-107132400D01*
G75*
G02*
X154805100Y-107282400I0J-150000D01*
G01*
X154805100Y-108932400D01*
G75*
G02*
X154655100Y-109082400I-150000J0D01*
G01*
X154355100Y-109082400D01*
G75*
G02*
X154205100Y-108932400I0J150000D01*
G01*
X154205100Y-107282400D01*
G75*
G02*
X154355100Y-107132400I150000J0D01*
G01*
G37*
G36*
G01*
X155625100Y-107132400D02*
X155925100Y-107132400D01*
G75*
G02*
X156075100Y-107282400I0J-150000D01*
G01*
X156075100Y-108932400D01*
G75*
G02*
X155925100Y-109082400I-150000J0D01*
G01*
X155625100Y-109082400D01*
G75*
G02*
X155475100Y-108932400I0J150000D01*
G01*
X155475100Y-107282400D01*
G75*
G02*
X155625100Y-107132400I150000J0D01*
G01*
G37*
G36*
G01*
X130620100Y-51632401D02*
X130620100Y-54132399D01*
G75*
G02*
X130370099Y-54382400I-250001J0D01*
G01*
X129370101Y-54382400D01*
G75*
G02*
X129120100Y-54132399I0J250001D01*
G01*
X129120100Y-51632401D01*
G75*
G02*
X129370101Y-51382400I250001J0D01*
G01*
X130370099Y-51382400D01*
G75*
G02*
X130620100Y-51632401I0J-250001D01*
G01*
G37*
D12*
X129870100Y-47882400D03*
D13*
X124870100Y-52882400D03*
X124870100Y-47882400D03*
D15*
X130160100Y-66632400D03*
X127620100Y-66632400D03*
X125080100Y-66632400D03*
G36*
G01*
X130870100Y-60732400D02*
X130870100Y-62032400D01*
G75*
G02*
X130620100Y-62282400I-250000J0D01*
G01*
X128620100Y-62282400D01*
G75*
G02*
X128370100Y-62032400I0J250000D01*
G01*
X128370100Y-60732400D01*
G75*
G02*
X128620100Y-60482400I250000J0D01*
G01*
X130620100Y-60482400D01*
G75*
G02*
X130870100Y-60732400I0J-250000D01*
G01*
G37*
G36*
G01*
X126870100Y-60732400D02*
X126870100Y-62032400D01*
G75*
G02*
X126620100Y-62282400I-250000J0D01*
G01*
X124620100Y-62282400D01*
G75*
G02*
X124370100Y-62032400I0J250000D01*
G01*
X124370100Y-60732400D01*
G75*
G02*
X124620100Y-60482400I250000J0D01*
G01*
X126620100Y-60482400D01*
G75*
G02*
X126870100Y-60732400I0J-250000D01*
G01*
G37*
G36*
G01*
X157870100Y-54282400D02*
X157870100Y-53982400D01*
G75*
G02*
X158020100Y-53832400I150000J0D01*
G01*
X159045100Y-53832400D01*
G75*
G02*
X159195100Y-53982400I0J-150000D01*
G01*
X159195100Y-54282400D01*
G75*
G02*
X159045100Y-54432400I-150000J0D01*
G01*
X158020100Y-54432400D01*
G75*
G02*
X157870100Y-54282400I0J150000D01*
G01*
G37*
G36*
G01*
X157870100Y-55232400D02*
X157870100Y-54932400D01*
G75*
G02*
X158020100Y-54782400I150000J0D01*
G01*
X159045100Y-54782400D01*
G75*
G02*
X159195100Y-54932400I0J-150000D01*
G01*
X159195100Y-55232400D01*
G75*
G02*
X159045100Y-55382400I-150000J0D01*
G01*
X158020100Y-55382400D01*
G75*
G02*
X157870100Y-55232400I0J150000D01*
G01*
G37*
G36*
G01*
X157870100Y-56182400D02*
X157870100Y-55882400D01*
G75*
G02*
X158020100Y-55732400I150000J0D01*
G01*
X159045100Y-55732400D01*
G75*
G02*
X159195100Y-55882400I0J-150000D01*
G01*
X159195100Y-56182400D01*
G75*
G02*
X159045100Y-56332400I-150000J0D01*
G01*
X158020100Y-56332400D01*
G75*
G02*
X157870100Y-56182400I0J150000D01*
G01*
G37*
G36*
G01*
X160145100Y-56182400D02*
X160145100Y-55882400D01*
G75*
G02*
X160295100Y-55732400I150000J0D01*
G01*
X161320100Y-55732400D01*
G75*
G02*
X161470100Y-55882400I0J-150000D01*
G01*
X161470100Y-56182400D01*
G75*
G02*
X161320100Y-56332400I-150000J0D01*
G01*
X160295100Y-56332400D01*
G75*
G02*
X160145100Y-56182400I0J150000D01*
G01*
G37*
G36*
G01*
X160145100Y-55232400D02*
X160145100Y-54932400D01*
G75*
G02*
X160295100Y-54782400I150000J0D01*
G01*
X161320100Y-54782400D01*
G75*
G02*
X161470100Y-54932400I0J-150000D01*
G01*
X161470100Y-55232400D01*
G75*
G02*
X161320100Y-55382400I-150000J0D01*
G01*
X160295100Y-55382400D01*
G75*
G02*
X160145100Y-55232400I0J150000D01*
G01*
G37*
G36*
G01*
X160145100Y-54282400D02*
X160145100Y-53982400D01*
G75*
G02*
X160295100Y-53832400I150000J0D01*
G01*
X161320100Y-53832400D01*
G75*
G02*
X161470100Y-53982400I0J-150000D01*
G01*
X161470100Y-54282400D01*
G75*
G02*
X161320100Y-54432400I-150000J0D01*
G01*
X160295100Y-54432400D01*
G75*
G02*
X160145100Y-54282400I0J150000D01*
G01*
G37*
D16*
X123495100Y-126382400D03*
X125245100Y-126382400D03*
X125245100Y-122882400D03*
X123495100Y-122882400D03*
D17*
X145450000Y-125720000D03*
X145450000Y-124450000D03*
X145450000Y-123180000D03*
X145450000Y-121910000D03*
X145450000Y-120640000D03*
X145450000Y-119370000D03*
X145450000Y-118100000D03*
X145450000Y-116830000D03*
X145450000Y-115560000D03*
X145450000Y-114290000D03*
X145450000Y-113020000D03*
X145450000Y-111750000D03*
X145450000Y-110480000D03*
X145450000Y-109210000D03*
D18*
X143685000Y-107960000D03*
X142415000Y-107960000D03*
X141145000Y-107960000D03*
X139875000Y-107960000D03*
X138605000Y-107960000D03*
X137335000Y-107960000D03*
X136065000Y-107960000D03*
X134795000Y-107960000D03*
X133525000Y-107960000D03*
X132255000Y-107960000D03*
X130985000Y-107960000D03*
X129715000Y-107960000D03*
D17*
X127950000Y-109210000D03*
X127950000Y-110480000D03*
X127950000Y-111750000D03*
X127950000Y-113020000D03*
X127950000Y-114290000D03*
X127950000Y-115560000D03*
X127950000Y-116830000D03*
X127950000Y-118100000D03*
X127950000Y-119370000D03*
X127950000Y-120640000D03*
X127950000Y-121910000D03*
X127950000Y-123180000D03*
X127950000Y-124450000D03*
X127950000Y-125720000D03*
D19*
X139600000Y-119400000D03*
X139600000Y-118000000D03*
X139600000Y-116600000D03*
X138200000Y-119400000D03*
X138200000Y-118000000D03*
X138200000Y-116600000D03*
X136800000Y-119400000D03*
X136800000Y-118000000D03*
X136800000Y-116600000D03*
G36*
G01*
X164400100Y-59459900D02*
X164400100Y-59804900D01*
G75*
G02*
X164252600Y-59952400I-147500J0D01*
G01*
X163957600Y-59952400D01*
G75*
G02*
X163810100Y-59804900I0J147500D01*
G01*
X163810100Y-59459900D01*
G75*
G02*
X163957600Y-59312400I147500J0D01*
G01*
X164252600Y-59312400D01*
G75*
G02*
X164400100Y-59459900I0J-147500D01*
G01*
G37*
G36*
G01*
X163430100Y-59459900D02*
X163430100Y-59804900D01*
G75*
G02*
X163282600Y-59952400I-147500J0D01*
G01*
X162987600Y-59952400D01*
G75*
G02*
X162840100Y-59804900I0J147500D01*
G01*
X162840100Y-59459900D01*
G75*
G02*
X162987600Y-59312400I147500J0D01*
G01*
X163282600Y-59312400D01*
G75*
G02*
X163430100Y-59459900I0J-147500D01*
G01*
G37*
G36*
G01*
X148545100Y-89542400D02*
X148545100Y-89842400D01*
G75*
G02*
X148395100Y-89992400I-150000J0D01*
G01*
X146745100Y-89992400D01*
G75*
G02*
X146595100Y-89842400I0J150000D01*
G01*
X146595100Y-89542400D01*
G75*
G02*
X146745100Y-89392400I150000J0D01*
G01*
X148395100Y-89392400D01*
G75*
G02*
X148545100Y-89542400I0J-150000D01*
G01*
G37*
G36*
G01*
X148545100Y-88272400D02*
X148545100Y-88572400D01*
G75*
G02*
X148395100Y-88722400I-150000J0D01*
G01*
X146745100Y-88722400D01*
G75*
G02*
X146595100Y-88572400I0J150000D01*
G01*
X146595100Y-88272400D01*
G75*
G02*
X146745100Y-88122400I150000J0D01*
G01*
X148395100Y-88122400D01*
G75*
G02*
X148545100Y-88272400I0J-150000D01*
G01*
G37*
G36*
G01*
X148545100Y-87002400D02*
X148545100Y-87302400D01*
G75*
G02*
X148395100Y-87452400I-150000J0D01*
G01*
X146745100Y-87452400D01*
G75*
G02*
X146595100Y-87302400I0J150000D01*
G01*
X146595100Y-87002400D01*
G75*
G02*
X146745100Y-86852400I150000J0D01*
G01*
X148395100Y-86852400D01*
G75*
G02*
X148545100Y-87002400I0J-150000D01*
G01*
G37*
G36*
G01*
X148545100Y-85732400D02*
X148545100Y-86032400D01*
G75*
G02*
X148395100Y-86182400I-150000J0D01*
G01*
X146745100Y-86182400D01*
G75*
G02*
X146595100Y-86032400I0J150000D01*
G01*
X146595100Y-85732400D01*
G75*
G02*
X146745100Y-85582400I150000J0D01*
G01*
X148395100Y-85582400D01*
G75*
G02*
X148545100Y-85732400I0J-150000D01*
G01*
G37*
G36*
G01*
X143595100Y-85732400D02*
X143595100Y-86032400D01*
G75*
G02*
X143445100Y-86182400I-150000J0D01*
G01*
X141795100Y-86182400D01*
G75*
G02*
X141645100Y-86032400I0J150000D01*
G01*
X141645100Y-85732400D01*
G75*
G02*
X141795100Y-85582400I150000J0D01*
G01*
X143445100Y-85582400D01*
G75*
G02*
X143595100Y-85732400I0J-150000D01*
G01*
G37*
G36*
G01*
X143595100Y-87002400D02*
X143595100Y-87302400D01*
G75*
G02*
X143445100Y-87452400I-150000J0D01*
G01*
X141795100Y-87452400D01*
G75*
G02*
X141645100Y-87302400I0J150000D01*
G01*
X141645100Y-87002400D01*
G75*
G02*
X141795100Y-86852400I150000J0D01*
G01*
X143445100Y-86852400D01*
G75*
G02*
X143595100Y-87002400I0J-150000D01*
G01*
G37*
G36*
G01*
X143595100Y-88272400D02*
X143595100Y-88572400D01*
G75*
G02*
X143445100Y-88722400I-150000J0D01*
G01*
X141795100Y-88722400D01*
G75*
G02*
X141645100Y-88572400I0J150000D01*
G01*
X141645100Y-88272400D01*
G75*
G02*
X141795100Y-88122400I150000J0D01*
G01*
X143445100Y-88122400D01*
G75*
G02*
X143595100Y-88272400I0J-150000D01*
G01*
G37*
G36*
G01*
X143595100Y-89542400D02*
X143595100Y-89842400D01*
G75*
G02*
X143445100Y-89992400I-150000J0D01*
G01*
X141795100Y-89992400D01*
G75*
G02*
X141645100Y-89842400I0J150000D01*
G01*
X141645100Y-89542400D01*
G75*
G02*
X141795100Y-89392400I150000J0D01*
G01*
X143445100Y-89392400D01*
G75*
G02*
X143595100Y-89542400I0J-150000D01*
G01*
G37*
G36*
G01*
X150920100Y-78707400D02*
X151820100Y-78707400D01*
G75*
G02*
X152070100Y-78957400I0J-250000D01*
G01*
X152070100Y-79482400D01*
G75*
G02*
X151820100Y-79732400I-250000J0D01*
G01*
X150920100Y-79732400D01*
G75*
G02*
X150670100Y-79482400I0J250000D01*
G01*
X150670100Y-78957400D01*
G75*
G02*
X150920100Y-78707400I250000J0D01*
G01*
G37*
G36*
G01*
X150920100Y-80532400D02*
X151820100Y-80532400D01*
G75*
G02*
X152070100Y-80782400I0J-250000D01*
G01*
X152070100Y-81307400D01*
G75*
G02*
X151820100Y-81557400I-250000J0D01*
G01*
X150920100Y-81557400D01*
G75*
G02*
X150670100Y-81307400I0J250000D01*
G01*
X150670100Y-80782400D01*
G75*
G02*
X150920100Y-80532400I250000J0D01*
G01*
G37*
D20*
X129740100Y-104688400D03*
D21*
X129740100Y-102148400D03*
D20*
X129740100Y-99608400D03*
X124025100Y-104688400D03*
X124025100Y-99608400D03*
D21*
X122120100Y-103164400D03*
X122120100Y-101132400D03*
D22*
X128470100Y-101513400D03*
X127200100Y-101513400D03*
X125930100Y-101513400D03*
X124660100Y-101513400D03*
X123390100Y-101513400D03*
X123390100Y-102783400D03*
X124660100Y-102783400D03*
X125930100Y-102783400D03*
X127200100Y-102783400D03*
X128470100Y-102783400D03*
G36*
G01*
X135920100Y-81835051D02*
X134820100Y-81835051D01*
G75*
G02*
X134570100Y-81585051I0J250000D01*
G01*
X134570100Y-80485051D01*
G75*
G02*
X134820100Y-80235051I250000J0D01*
G01*
X135920100Y-80235051D01*
G75*
G02*
X136170100Y-80485051I0J-250000D01*
G01*
X136170100Y-81585051D01*
G75*
G02*
X135920100Y-81835051I-250000J0D01*
G01*
G37*
D23*
X135370100Y-77535051D03*
D24*
X147370100Y-93132400D03*
G36*
G01*
X139700100Y-81622400D02*
X140040100Y-81622400D01*
G75*
G02*
X140180100Y-81762400I0J-140000D01*
G01*
X140180100Y-82042400D01*
G75*
G02*
X140040100Y-82182400I-140000J0D01*
G01*
X139700100Y-82182400D01*
G75*
G02*
X139560100Y-82042400I0J140000D01*
G01*
X139560100Y-81762400D01*
G75*
G02*
X139700100Y-81622400I140000J0D01*
G01*
G37*
G36*
G01*
X139700100Y-82582400D02*
X140040100Y-82582400D01*
G75*
G02*
X140180100Y-82722400I0J-140000D01*
G01*
X140180100Y-83002400D01*
G75*
G02*
X140040100Y-83142400I-140000J0D01*
G01*
X139700100Y-83142400D01*
G75*
G02*
X139560100Y-83002400I0J140000D01*
G01*
X139560100Y-82722400D01*
G75*
G02*
X139700100Y-82582400I140000J0D01*
G01*
G37*
G36*
G01*
X144920100Y-81835051D02*
X143820100Y-81835051D01*
G75*
G02*
X143570100Y-81585051I0J250000D01*
G01*
X143570100Y-80485051D01*
G75*
G02*
X143820100Y-80235051I250000J0D01*
G01*
X144920100Y-80235051D01*
G75*
G02*
X145170100Y-80485051I0J-250000D01*
G01*
X145170100Y-81585051D01*
G75*
G02*
X144920100Y-81835051I-250000J0D01*
G01*
G37*
D23*
X144370100Y-77535051D03*
D25*
X164370100Y-55982400D03*
X164370100Y-55332400D03*
X164370100Y-54682400D03*
X164370100Y-54032400D03*
X164370100Y-53382400D03*
D26*
X165570100Y-57632400D03*
D27*
X164270100Y-57532400D03*
D28*
X166320100Y-57412400D03*
D29*
X167250100Y-57412400D03*
D30*
X164250100Y-57102400D03*
D31*
X167520100Y-55642400D03*
X167520100Y-53722400D03*
D30*
X164250100Y-52262400D03*
D29*
X167250100Y-51952400D03*
D28*
X166320100Y-51932400D03*
D27*
X164250100Y-51782400D03*
D26*
X165570100Y-51682400D03*
D32*
X140570100Y-93082400D03*
X140570100Y-92582400D03*
X140570100Y-92082400D03*
X140570100Y-91582400D03*
X137670100Y-91582400D03*
X137670100Y-92082400D03*
X137670100Y-92582400D03*
X137670100Y-93082400D03*
D33*
X139120100Y-92332400D03*
G36*
G01*
X151482600Y-77732400D02*
X151257600Y-77732400D01*
G75*
G02*
X151145100Y-77619900I0J112500D01*
G01*
X151145100Y-77244900D01*
G75*
G02*
X151257600Y-77132400I112500J0D01*
G01*
X151482600Y-77132400D01*
G75*
G02*
X151595100Y-77244900I0J-112500D01*
G01*
X151595100Y-77619900D01*
G75*
G02*
X151482600Y-77732400I-112500J0D01*
G01*
G37*
G36*
G01*
X151482600Y-75632400D02*
X151257600Y-75632400D01*
G75*
G02*
X151145100Y-75519900I0J112500D01*
G01*
X151145100Y-75144900D01*
G75*
G02*
X151257600Y-75032400I112500J0D01*
G01*
X151482600Y-75032400D01*
G75*
G02*
X151595100Y-75144900I0J-112500D01*
G01*
X151595100Y-75519900D01*
G75*
G02*
X151482600Y-75632400I-112500J0D01*
G01*
G37*
D10*
X135830100Y-99882400D03*
D11*
X138370100Y-99882400D03*
X140910100Y-99882400D03*
G36*
X124120100Y-84032400D02*
G01*
X123620100Y-84032400D01*
X123620100Y-84028122D01*
X123554837Y-84028122D01*
X123428758Y-83994340D01*
X123315719Y-83929077D01*
X123223423Y-83836781D01*
X123158160Y-83723742D01*
X123124378Y-83597663D01*
X123124378Y-83532400D01*
X123120100Y-83532400D01*
X123120100Y-83032400D01*
X123124378Y-83032400D01*
X123124378Y-82967137D01*
X123158160Y-82841058D01*
X123223423Y-82728019D01*
X123315719Y-82635723D01*
X123428758Y-82570460D01*
X123554837Y-82536678D01*
X123620100Y-82536678D01*
X123620100Y-82532400D01*
X124120100Y-82532400D01*
X124120100Y-84032400D01*
G37*
G36*
X124920100Y-82536678D02*
G01*
X124985363Y-82536678D01*
X125111442Y-82570460D01*
X125224481Y-82635723D01*
X125316777Y-82728019D01*
X125382040Y-82841058D01*
X125415822Y-82967137D01*
X125415822Y-83032400D01*
X125420100Y-83032400D01*
X125420100Y-83532400D01*
X125415822Y-83532400D01*
X125415822Y-83597663D01*
X125382040Y-83723742D01*
X125316777Y-83836781D01*
X125224481Y-83929077D01*
X125111442Y-83994340D01*
X124985363Y-84028122D01*
X124920100Y-84028122D01*
X124920100Y-84032400D01*
X124420100Y-84032400D01*
X124420100Y-82532400D01*
X124920100Y-82532400D01*
X124920100Y-82536678D01*
G37*
M02*
