G04 #@! TF.GenerationSoftware,KiCad,Pcbnew,9.0.1+1*
G04 #@! TF.CreationDate,2025-11-20T01:05:31+00:00*
G04 #@! TF.ProjectId,com4bbb,636f6d34-6262-4622-9e6b-696361645f70,rev?*
G04 #@! TF.SameCoordinates,Original*
G04 #@! TF.FileFunction,Legend,Top*
G04 #@! TF.FilePolarity,Positive*
%FSLAX46Y46*%
G04 Gerber Fmt 4.6, Leading zero omitted, Abs format (unit mm)*
G04 Created by KiCad (PCBNEW 9.0.1+1) date 2025-11-20 01:05:31*
%MOMM*%
%LPD*%
G01*
G04 APERTURE LIST*
%ADD10C,0.150000*%
%ADD11C,0.120000*%
G04 APERTURE END LIST*
D10*
X165162005Y-60457219D02*
X165162005Y-59457219D01*
X165162005Y-59457219D02*
X165542957Y-59457219D01*
X165542957Y-59457219D02*
X165638195Y-59504838D01*
X165638195Y-59504838D02*
X165685814Y-59552457D01*
X165685814Y-59552457D02*
X165733433Y-59647695D01*
X165733433Y-59647695D02*
X165733433Y-59790552D01*
X165733433Y-59790552D02*
X165685814Y-59885790D01*
X165685814Y-59885790D02*
X165638195Y-59933409D01*
X165638195Y-59933409D02*
X165542957Y-59981028D01*
X165542957Y-59981028D02*
X165162005Y-59981028D01*
X166304862Y-59885790D02*
X166209624Y-59838171D01*
X166209624Y-59838171D02*
X166162005Y-59790552D01*
X166162005Y-59790552D02*
X166114386Y-59695314D01*
X166114386Y-59695314D02*
X166114386Y-59647695D01*
X166114386Y-59647695D02*
X166162005Y-59552457D01*
X166162005Y-59552457D02*
X166209624Y-59504838D01*
X166209624Y-59504838D02*
X166304862Y-59457219D01*
X166304862Y-59457219D02*
X166495338Y-59457219D01*
X166495338Y-59457219D02*
X166590576Y-59504838D01*
X166590576Y-59504838D02*
X166638195Y-59552457D01*
X166638195Y-59552457D02*
X166685814Y-59647695D01*
X166685814Y-59647695D02*
X166685814Y-59695314D01*
X166685814Y-59695314D02*
X166638195Y-59790552D01*
X166638195Y-59790552D02*
X166590576Y-59838171D01*
X166590576Y-59838171D02*
X166495338Y-59885790D01*
X166495338Y-59885790D02*
X166304862Y-59885790D01*
X166304862Y-59885790D02*
X166209624Y-59933409D01*
X166209624Y-59933409D02*
X166162005Y-59981028D01*
X166162005Y-59981028D02*
X166114386Y-60076266D01*
X166114386Y-60076266D02*
X166114386Y-60266742D01*
X166114386Y-60266742D02*
X166162005Y-60361980D01*
X166162005Y-60361980D02*
X166209624Y-60409600D01*
X166209624Y-60409600D02*
X166304862Y-60457219D01*
X166304862Y-60457219D02*
X166495338Y-60457219D01*
X166495338Y-60457219D02*
X166590576Y-60409600D01*
X166590576Y-60409600D02*
X166638195Y-60361980D01*
X166638195Y-60361980D02*
X166685814Y-60266742D01*
X166685814Y-60266742D02*
X166685814Y-60076266D01*
X166685814Y-60076266D02*
X166638195Y-59981028D01*
X166638195Y-59981028D02*
X166590576Y-59933409D01*
X166590576Y-59933409D02*
X166495338Y-59885790D01*
X116902005Y-60457219D02*
X116902005Y-59457219D01*
X116902005Y-59457219D02*
X117282957Y-59457219D01*
X117282957Y-59457219D02*
X117378195Y-59504838D01*
X117378195Y-59504838D02*
X117425814Y-59552457D01*
X117425814Y-59552457D02*
X117473433Y-59647695D01*
X117473433Y-59647695D02*
X117473433Y-59790552D01*
X117473433Y-59790552D02*
X117425814Y-59885790D01*
X117425814Y-59885790D02*
X117378195Y-59933409D01*
X117378195Y-59933409D02*
X117282957Y-59981028D01*
X117282957Y-59981028D02*
X116902005Y-59981028D01*
X117949624Y-60457219D02*
X118140100Y-60457219D01*
X118140100Y-60457219D02*
X118235338Y-60409600D01*
X118235338Y-60409600D02*
X118282957Y-60361980D01*
X118282957Y-60361980D02*
X118378195Y-60219123D01*
X118378195Y-60219123D02*
X118425814Y-60028647D01*
X118425814Y-60028647D02*
X118425814Y-59647695D01*
X118425814Y-59647695D02*
X118378195Y-59552457D01*
X118378195Y-59552457D02*
X118330576Y-59504838D01*
X118330576Y-59504838D02*
X118235338Y-59457219D01*
X118235338Y-59457219D02*
X118044862Y-59457219D01*
X118044862Y-59457219D02*
X117949624Y-59504838D01*
X117949624Y-59504838D02*
X117902005Y-59552457D01*
X117902005Y-59552457D02*
X117854386Y-59647695D01*
X117854386Y-59647695D02*
X117854386Y-59885790D01*
X117854386Y-59885790D02*
X117902005Y-59981028D01*
X117902005Y-59981028D02*
X117949624Y-60028647D01*
X117949624Y-60028647D02*
X118044862Y-60076266D01*
X118044862Y-60076266D02*
X118235338Y-60076266D01*
X118235338Y-60076266D02*
X118330576Y-60028647D01*
X118330576Y-60028647D02*
X118378195Y-59981028D01*
X118378195Y-59981028D02*
X118425814Y-59885790D01*
X125479680Y-95501447D02*
X125527300Y-95549066D01*
X125527300Y-95549066D02*
X125574919Y-95691923D01*
X125574919Y-95691923D02*
X125574919Y-95787161D01*
X125574919Y-95787161D02*
X125527300Y-95930018D01*
X125527300Y-95930018D02*
X125432061Y-96025256D01*
X125432061Y-96025256D02*
X125336823Y-96072875D01*
X125336823Y-96072875D02*
X125146347Y-96120494D01*
X125146347Y-96120494D02*
X125003490Y-96120494D01*
X125003490Y-96120494D02*
X124813014Y-96072875D01*
X124813014Y-96072875D02*
X124717776Y-96025256D01*
X124717776Y-96025256D02*
X124622538Y-95930018D01*
X124622538Y-95930018D02*
X124574919Y-95787161D01*
X124574919Y-95787161D02*
X124574919Y-95691923D01*
X124574919Y-95691923D02*
X124622538Y-95549066D01*
X124622538Y-95549066D02*
X124670157Y-95501447D01*
X125574919Y-94549066D02*
X125574919Y-95120494D01*
X125574919Y-94834780D02*
X124574919Y-94834780D01*
X124574919Y-94834780D02*
X124717776Y-94930018D01*
X124717776Y-94930018D02*
X124813014Y-95025256D01*
X124813014Y-95025256D02*
X124860633Y-95120494D01*
X124574919Y-93930018D02*
X124574919Y-93834780D01*
X124574919Y-93834780D02*
X124622538Y-93739542D01*
X124622538Y-93739542D02*
X124670157Y-93691923D01*
X124670157Y-93691923D02*
X124765395Y-93644304D01*
X124765395Y-93644304D02*
X124955871Y-93596685D01*
X124955871Y-93596685D02*
X125193966Y-93596685D01*
X125193966Y-93596685D02*
X125384442Y-93644304D01*
X125384442Y-93644304D02*
X125479680Y-93691923D01*
X125479680Y-93691923D02*
X125527300Y-93739542D01*
X125527300Y-93739542D02*
X125574919Y-93834780D01*
X125574919Y-93834780D02*
X125574919Y-93930018D01*
X125574919Y-93930018D02*
X125527300Y-94025256D01*
X125527300Y-94025256D02*
X125479680Y-94072875D01*
X125479680Y-94072875D02*
X125384442Y-94120494D01*
X125384442Y-94120494D02*
X125193966Y-94168113D01*
X125193966Y-94168113D02*
X124955871Y-94168113D01*
X124955871Y-94168113D02*
X124765395Y-94120494D01*
X124765395Y-94120494D02*
X124670157Y-94072875D01*
X124670157Y-94072875D02*
X124622538Y-94025256D01*
X124622538Y-94025256D02*
X124574919Y-93930018D01*
X125574919Y-92644304D02*
X125574919Y-93215732D01*
X125574919Y-92930018D02*
X124574919Y-92930018D01*
X124574919Y-92930018D02*
X124717776Y-93025256D01*
X124717776Y-93025256D02*
X124813014Y-93120494D01*
X124813014Y-93120494D02*
X124860633Y-93215732D01*
X152734385Y-111637219D02*
X152734385Y-112351504D01*
X152734385Y-112351504D02*
X152686766Y-112494361D01*
X152686766Y-112494361D02*
X152591528Y-112589600D01*
X152591528Y-112589600D02*
X152448671Y-112637219D01*
X152448671Y-112637219D02*
X152353433Y-112637219D01*
X153734385Y-112637219D02*
X153162957Y-112637219D01*
X153448671Y-112637219D02*
X153448671Y-111637219D01*
X153448671Y-111637219D02*
X153353433Y-111780076D01*
X153353433Y-111780076D02*
X153258195Y-111875314D01*
X153258195Y-111875314D02*
X153162957Y-111922933D01*
X154353433Y-111637219D02*
X154448671Y-111637219D01*
X154448671Y-111637219D02*
X154543909Y-111684838D01*
X154543909Y-111684838D02*
X154591528Y-111732457D01*
X154591528Y-111732457D02*
X154639147Y-111827695D01*
X154639147Y-111827695D02*
X154686766Y-112018171D01*
X154686766Y-112018171D02*
X154686766Y-112256266D01*
X154686766Y-112256266D02*
X154639147Y-112446742D01*
X154639147Y-112446742D02*
X154591528Y-112541980D01*
X154591528Y-112541980D02*
X154543909Y-112589600D01*
X154543909Y-112589600D02*
X154448671Y-112637219D01*
X154448671Y-112637219D02*
X154353433Y-112637219D01*
X154353433Y-112637219D02*
X154258195Y-112589600D01*
X154258195Y-112589600D02*
X154210576Y-112541980D01*
X154210576Y-112541980D02*
X154162957Y-112446742D01*
X154162957Y-112446742D02*
X154115338Y-112256266D01*
X154115338Y-112256266D02*
X154115338Y-112018171D01*
X154115338Y-112018171D02*
X154162957Y-111827695D01*
X154162957Y-111827695D02*
X154210576Y-111732457D01*
X154210576Y-111732457D02*
X154258195Y-111684838D01*
X154258195Y-111684838D02*
X154353433Y-111637219D01*
X155067719Y-111732457D02*
X155115338Y-111684838D01*
X155115338Y-111684838D02*
X155210576Y-111637219D01*
X155210576Y-111637219D02*
X155448671Y-111637219D01*
X155448671Y-111637219D02*
X155543909Y-111684838D01*
X155543909Y-111684838D02*
X155591528Y-111732457D01*
X155591528Y-111732457D02*
X155639147Y-111827695D01*
X155639147Y-111827695D02*
X155639147Y-111922933D01*
X155639147Y-111922933D02*
X155591528Y-112065790D01*
X155591528Y-112065790D02*
X155020100Y-112637219D01*
X155020100Y-112637219D02*
X155639147Y-112637219D01*
X122224919Y-79168114D02*
X122939204Y-79168114D01*
X122939204Y-79168114D02*
X123082061Y-79215733D01*
X123082061Y-79215733D02*
X123177300Y-79310971D01*
X123177300Y-79310971D02*
X123224919Y-79453828D01*
X123224919Y-79453828D02*
X123224919Y-79549066D01*
X123224919Y-78691923D02*
X122224919Y-78691923D01*
X122224919Y-78691923D02*
X122224919Y-78310971D01*
X122224919Y-78310971D02*
X122272538Y-78215733D01*
X122272538Y-78215733D02*
X122320157Y-78168114D01*
X122320157Y-78168114D02*
X122415395Y-78120495D01*
X122415395Y-78120495D02*
X122558252Y-78120495D01*
X122558252Y-78120495D02*
X122653490Y-78168114D01*
X122653490Y-78168114D02*
X122701109Y-78215733D01*
X122701109Y-78215733D02*
X122748728Y-78310971D01*
X122748728Y-78310971D02*
X122748728Y-78691923D01*
X123224919Y-77168114D02*
X123224919Y-77739542D01*
X123224919Y-77453828D02*
X122224919Y-77453828D01*
X122224919Y-77453828D02*
X122367776Y-77549066D01*
X122367776Y-77549066D02*
X122463014Y-77644304D01*
X122463014Y-77644304D02*
X122510633Y-77739542D01*
X122224919Y-76549066D02*
X122224919Y-76453828D01*
X122224919Y-76453828D02*
X122272538Y-76358590D01*
X122272538Y-76358590D02*
X122320157Y-76310971D01*
X122320157Y-76310971D02*
X122415395Y-76263352D01*
X122415395Y-76263352D02*
X122605871Y-76215733D01*
X122605871Y-76215733D02*
X122843966Y-76215733D01*
X122843966Y-76215733D02*
X123034442Y-76263352D01*
X123034442Y-76263352D02*
X123129680Y-76310971D01*
X123129680Y-76310971D02*
X123177300Y-76358590D01*
X123177300Y-76358590D02*
X123224919Y-76453828D01*
X123224919Y-76453828D02*
X123224919Y-76549066D01*
X123224919Y-76549066D02*
X123177300Y-76644304D01*
X123177300Y-76644304D02*
X123129680Y-76691923D01*
X123129680Y-76691923D02*
X123034442Y-76739542D01*
X123034442Y-76739542D02*
X122843966Y-76787161D01*
X122843966Y-76787161D02*
X122605871Y-76787161D01*
X122605871Y-76787161D02*
X122415395Y-76739542D01*
X122415395Y-76739542D02*
X122320157Y-76691923D01*
X122320157Y-76691923D02*
X122272538Y-76644304D01*
X122272538Y-76644304D02*
X122224919Y-76549066D01*
X123224919Y-75263352D02*
X123224919Y-75834780D01*
X123224919Y-75549066D02*
X122224919Y-75549066D01*
X122224919Y-75549066D02*
X122367776Y-75644304D01*
X122367776Y-75644304D02*
X122463014Y-75739542D01*
X122463014Y-75739542D02*
X122510633Y-75834780D01*
X130024919Y-79168114D02*
X130739204Y-79168114D01*
X130739204Y-79168114D02*
X130882061Y-79215733D01*
X130882061Y-79215733D02*
X130977300Y-79310971D01*
X130977300Y-79310971D02*
X131024919Y-79453828D01*
X131024919Y-79453828D02*
X131024919Y-79549066D01*
X131024919Y-78691923D02*
X130024919Y-78691923D01*
X130024919Y-78691923D02*
X130024919Y-78310971D01*
X130024919Y-78310971D02*
X130072538Y-78215733D01*
X130072538Y-78215733D02*
X130120157Y-78168114D01*
X130120157Y-78168114D02*
X130215395Y-78120495D01*
X130215395Y-78120495D02*
X130358252Y-78120495D01*
X130358252Y-78120495D02*
X130453490Y-78168114D01*
X130453490Y-78168114D02*
X130501109Y-78215733D01*
X130501109Y-78215733D02*
X130548728Y-78310971D01*
X130548728Y-78310971D02*
X130548728Y-78691923D01*
X131024919Y-77168114D02*
X131024919Y-77739542D01*
X131024919Y-77453828D02*
X130024919Y-77453828D01*
X130024919Y-77453828D02*
X130167776Y-77549066D01*
X130167776Y-77549066D02*
X130263014Y-77644304D01*
X130263014Y-77644304D02*
X130310633Y-77739542D01*
X130024919Y-76549066D02*
X130024919Y-76453828D01*
X130024919Y-76453828D02*
X130072538Y-76358590D01*
X130072538Y-76358590D02*
X130120157Y-76310971D01*
X130120157Y-76310971D02*
X130215395Y-76263352D01*
X130215395Y-76263352D02*
X130405871Y-76215733D01*
X130405871Y-76215733D02*
X130643966Y-76215733D01*
X130643966Y-76215733D02*
X130834442Y-76263352D01*
X130834442Y-76263352D02*
X130929680Y-76310971D01*
X130929680Y-76310971D02*
X130977300Y-76358590D01*
X130977300Y-76358590D02*
X131024919Y-76453828D01*
X131024919Y-76453828D02*
X131024919Y-76549066D01*
X131024919Y-76549066D02*
X130977300Y-76644304D01*
X130977300Y-76644304D02*
X130929680Y-76691923D01*
X130929680Y-76691923D02*
X130834442Y-76739542D01*
X130834442Y-76739542D02*
X130643966Y-76787161D01*
X130643966Y-76787161D02*
X130405871Y-76787161D01*
X130405871Y-76787161D02*
X130215395Y-76739542D01*
X130215395Y-76739542D02*
X130120157Y-76691923D01*
X130120157Y-76691923D02*
X130072538Y-76644304D01*
X130072538Y-76644304D02*
X130024919Y-76549066D01*
X130120157Y-75834780D02*
X130072538Y-75787161D01*
X130072538Y-75787161D02*
X130024919Y-75691923D01*
X130024919Y-75691923D02*
X130024919Y-75453828D01*
X130024919Y-75453828D02*
X130072538Y-75358590D01*
X130072538Y-75358590D02*
X130120157Y-75310971D01*
X130120157Y-75310971D02*
X130215395Y-75263352D01*
X130215395Y-75263352D02*
X130310633Y-75263352D01*
X130310633Y-75263352D02*
X130453490Y-75310971D01*
X130453490Y-75310971D02*
X131024919Y-75882399D01*
X131024919Y-75882399D02*
X131024919Y-75263352D01*
X121824919Y-113368114D02*
X122539204Y-113368114D01*
X122539204Y-113368114D02*
X122682061Y-113415733D01*
X122682061Y-113415733D02*
X122777300Y-113510971D01*
X122777300Y-113510971D02*
X122824919Y-113653828D01*
X122824919Y-113653828D02*
X122824919Y-113749066D01*
X122824919Y-112891923D02*
X121824919Y-112891923D01*
X121824919Y-112891923D02*
X121824919Y-112510971D01*
X121824919Y-112510971D02*
X121872538Y-112415733D01*
X121872538Y-112415733D02*
X121920157Y-112368114D01*
X121920157Y-112368114D02*
X122015395Y-112320495D01*
X122015395Y-112320495D02*
X122158252Y-112320495D01*
X122158252Y-112320495D02*
X122253490Y-112368114D01*
X122253490Y-112368114D02*
X122301109Y-112415733D01*
X122301109Y-112415733D02*
X122348728Y-112510971D01*
X122348728Y-112510971D02*
X122348728Y-112891923D01*
X122824919Y-111368114D02*
X122824919Y-111939542D01*
X122824919Y-111653828D02*
X121824919Y-111653828D01*
X121824919Y-111653828D02*
X121967776Y-111749066D01*
X121967776Y-111749066D02*
X122063014Y-111844304D01*
X122063014Y-111844304D02*
X122110633Y-111939542D01*
X121824919Y-110749066D02*
X121824919Y-110653828D01*
X121824919Y-110653828D02*
X121872538Y-110558590D01*
X121872538Y-110558590D02*
X121920157Y-110510971D01*
X121920157Y-110510971D02*
X122015395Y-110463352D01*
X122015395Y-110463352D02*
X122205871Y-110415733D01*
X122205871Y-110415733D02*
X122443966Y-110415733D01*
X122443966Y-110415733D02*
X122634442Y-110463352D01*
X122634442Y-110463352D02*
X122729680Y-110510971D01*
X122729680Y-110510971D02*
X122777300Y-110558590D01*
X122777300Y-110558590D02*
X122824919Y-110653828D01*
X122824919Y-110653828D02*
X122824919Y-110749066D01*
X122824919Y-110749066D02*
X122777300Y-110844304D01*
X122777300Y-110844304D02*
X122729680Y-110891923D01*
X122729680Y-110891923D02*
X122634442Y-110939542D01*
X122634442Y-110939542D02*
X122443966Y-110987161D01*
X122443966Y-110987161D02*
X122205871Y-110987161D01*
X122205871Y-110987161D02*
X122015395Y-110939542D01*
X122015395Y-110939542D02*
X121920157Y-110891923D01*
X121920157Y-110891923D02*
X121872538Y-110844304D01*
X121872538Y-110844304D02*
X121824919Y-110749066D01*
X121824919Y-110082399D02*
X121824919Y-109463352D01*
X121824919Y-109463352D02*
X122205871Y-109796685D01*
X122205871Y-109796685D02*
X122205871Y-109653828D01*
X122205871Y-109653828D02*
X122253490Y-109558590D01*
X122253490Y-109558590D02*
X122301109Y-109510971D01*
X122301109Y-109510971D02*
X122396347Y-109463352D01*
X122396347Y-109463352D02*
X122634442Y-109463352D01*
X122634442Y-109463352D02*
X122729680Y-109510971D01*
X122729680Y-109510971D02*
X122777300Y-109558590D01*
X122777300Y-109558590D02*
X122824919Y-109653828D01*
X122824919Y-109653828D02*
X122824919Y-109939542D01*
X122824919Y-109939542D02*
X122777300Y-110034780D01*
X122777300Y-110034780D02*
X122729680Y-110082399D01*
X121824919Y-121168114D02*
X122539204Y-121168114D01*
X122539204Y-121168114D02*
X122682061Y-121215733D01*
X122682061Y-121215733D02*
X122777300Y-121310971D01*
X122777300Y-121310971D02*
X122824919Y-121453828D01*
X122824919Y-121453828D02*
X122824919Y-121549066D01*
X122824919Y-120691923D02*
X121824919Y-120691923D01*
X121824919Y-120691923D02*
X121824919Y-120310971D01*
X121824919Y-120310971D02*
X121872538Y-120215733D01*
X121872538Y-120215733D02*
X121920157Y-120168114D01*
X121920157Y-120168114D02*
X122015395Y-120120495D01*
X122015395Y-120120495D02*
X122158252Y-120120495D01*
X122158252Y-120120495D02*
X122253490Y-120168114D01*
X122253490Y-120168114D02*
X122301109Y-120215733D01*
X122301109Y-120215733D02*
X122348728Y-120310971D01*
X122348728Y-120310971D02*
X122348728Y-120691923D01*
X122824919Y-119168114D02*
X122824919Y-119739542D01*
X122824919Y-119453828D02*
X121824919Y-119453828D01*
X121824919Y-119453828D02*
X121967776Y-119549066D01*
X121967776Y-119549066D02*
X122063014Y-119644304D01*
X122063014Y-119644304D02*
X122110633Y-119739542D01*
X121824919Y-118549066D02*
X121824919Y-118453828D01*
X121824919Y-118453828D02*
X121872538Y-118358590D01*
X121872538Y-118358590D02*
X121920157Y-118310971D01*
X121920157Y-118310971D02*
X122015395Y-118263352D01*
X122015395Y-118263352D02*
X122205871Y-118215733D01*
X122205871Y-118215733D02*
X122443966Y-118215733D01*
X122443966Y-118215733D02*
X122634442Y-118263352D01*
X122634442Y-118263352D02*
X122729680Y-118310971D01*
X122729680Y-118310971D02*
X122777300Y-118358590D01*
X122777300Y-118358590D02*
X122824919Y-118453828D01*
X122824919Y-118453828D02*
X122824919Y-118549066D01*
X122824919Y-118549066D02*
X122777300Y-118644304D01*
X122777300Y-118644304D02*
X122729680Y-118691923D01*
X122729680Y-118691923D02*
X122634442Y-118739542D01*
X122634442Y-118739542D02*
X122443966Y-118787161D01*
X122443966Y-118787161D02*
X122205871Y-118787161D01*
X122205871Y-118787161D02*
X122015395Y-118739542D01*
X122015395Y-118739542D02*
X121920157Y-118691923D01*
X121920157Y-118691923D02*
X121872538Y-118644304D01*
X121872538Y-118644304D02*
X121824919Y-118549066D01*
X122158252Y-117358590D02*
X122824919Y-117358590D01*
X121777300Y-117596685D02*
X122491585Y-117834780D01*
X122491585Y-117834780D02*
X122491585Y-117215733D01*
X127824919Y-99668114D02*
X128539204Y-99668114D01*
X128539204Y-99668114D02*
X128682061Y-99715733D01*
X128682061Y-99715733D02*
X128777300Y-99810971D01*
X128777300Y-99810971D02*
X128824919Y-99953828D01*
X128824919Y-99953828D02*
X128824919Y-100049066D01*
X128824919Y-99191923D02*
X127824919Y-99191923D01*
X127824919Y-99191923D02*
X127824919Y-98810971D01*
X127824919Y-98810971D02*
X127872538Y-98715733D01*
X127872538Y-98715733D02*
X127920157Y-98668114D01*
X127920157Y-98668114D02*
X128015395Y-98620495D01*
X128015395Y-98620495D02*
X128158252Y-98620495D01*
X128158252Y-98620495D02*
X128253490Y-98668114D01*
X128253490Y-98668114D02*
X128301109Y-98715733D01*
X128301109Y-98715733D02*
X128348728Y-98810971D01*
X128348728Y-98810971D02*
X128348728Y-99191923D01*
X128824919Y-97668114D02*
X128824919Y-98239542D01*
X128824919Y-97953828D02*
X127824919Y-97953828D01*
X127824919Y-97953828D02*
X127967776Y-98049066D01*
X127967776Y-98049066D02*
X128063014Y-98144304D01*
X128063014Y-98144304D02*
X128110633Y-98239542D01*
X127824919Y-97049066D02*
X127824919Y-96953828D01*
X127824919Y-96953828D02*
X127872538Y-96858590D01*
X127872538Y-96858590D02*
X127920157Y-96810971D01*
X127920157Y-96810971D02*
X128015395Y-96763352D01*
X128015395Y-96763352D02*
X128205871Y-96715733D01*
X128205871Y-96715733D02*
X128443966Y-96715733D01*
X128443966Y-96715733D02*
X128634442Y-96763352D01*
X128634442Y-96763352D02*
X128729680Y-96810971D01*
X128729680Y-96810971D02*
X128777300Y-96858590D01*
X128777300Y-96858590D02*
X128824919Y-96953828D01*
X128824919Y-96953828D02*
X128824919Y-97049066D01*
X128824919Y-97049066D02*
X128777300Y-97144304D01*
X128777300Y-97144304D02*
X128729680Y-97191923D01*
X128729680Y-97191923D02*
X128634442Y-97239542D01*
X128634442Y-97239542D02*
X128443966Y-97287161D01*
X128443966Y-97287161D02*
X128205871Y-97287161D01*
X128205871Y-97287161D02*
X128015395Y-97239542D01*
X128015395Y-97239542D02*
X127920157Y-97191923D01*
X127920157Y-97191923D02*
X127872538Y-97144304D01*
X127872538Y-97144304D02*
X127824919Y-97049066D01*
X127824919Y-95810971D02*
X127824919Y-96287161D01*
X127824919Y-96287161D02*
X128301109Y-96334780D01*
X128301109Y-96334780D02*
X128253490Y-96287161D01*
X128253490Y-96287161D02*
X128205871Y-96191923D01*
X128205871Y-96191923D02*
X128205871Y-95953828D01*
X128205871Y-95953828D02*
X128253490Y-95858590D01*
X128253490Y-95858590D02*
X128301109Y-95810971D01*
X128301109Y-95810971D02*
X128396347Y-95763352D01*
X128396347Y-95763352D02*
X128634442Y-95763352D01*
X128634442Y-95763352D02*
X128729680Y-95810971D01*
X128729680Y-95810971D02*
X128777300Y-95858590D01*
X128777300Y-95858590D02*
X128824919Y-95953828D01*
X128824919Y-95953828D02*
X128824919Y-96191923D01*
X128824919Y-96191923D02*
X128777300Y-96287161D01*
X128777300Y-96287161D02*
X128729680Y-96334780D01*
X127655814Y-95051504D02*
X128132004Y-95051504D01*
X127560576Y-95337219D02*
X127893909Y-94337219D01*
X127893909Y-94337219D02*
X128227242Y-95337219D01*
X128512957Y-94432457D02*
X128560576Y-94384838D01*
X128560576Y-94384838D02*
X128655814Y-94337219D01*
X128655814Y-94337219D02*
X128893909Y-94337219D01*
X128893909Y-94337219D02*
X128989147Y-94384838D01*
X128989147Y-94384838D02*
X129036766Y-94432457D01*
X129036766Y-94432457D02*
X129084385Y-94527695D01*
X129084385Y-94527695D02*
X129084385Y-94622933D01*
X129084385Y-94622933D02*
X129036766Y-94765790D01*
X129036766Y-94765790D02*
X128465338Y-95337219D01*
X128465338Y-95337219D02*
X129084385Y-95337219D01*
X133824919Y-99668114D02*
X134539204Y-99668114D01*
X134539204Y-99668114D02*
X134682061Y-99715733D01*
X134682061Y-99715733D02*
X134777300Y-99810971D01*
X134777300Y-99810971D02*
X134824919Y-99953828D01*
X134824919Y-99953828D02*
X134824919Y-100049066D01*
X134824919Y-99191923D02*
X133824919Y-99191923D01*
X133824919Y-99191923D02*
X133824919Y-98810971D01*
X133824919Y-98810971D02*
X133872538Y-98715733D01*
X133872538Y-98715733D02*
X133920157Y-98668114D01*
X133920157Y-98668114D02*
X134015395Y-98620495D01*
X134015395Y-98620495D02*
X134158252Y-98620495D01*
X134158252Y-98620495D02*
X134253490Y-98668114D01*
X134253490Y-98668114D02*
X134301109Y-98715733D01*
X134301109Y-98715733D02*
X134348728Y-98810971D01*
X134348728Y-98810971D02*
X134348728Y-99191923D01*
X134824919Y-97668114D02*
X134824919Y-98239542D01*
X134824919Y-97953828D02*
X133824919Y-97953828D01*
X133824919Y-97953828D02*
X133967776Y-98049066D01*
X133967776Y-98049066D02*
X134063014Y-98144304D01*
X134063014Y-98144304D02*
X134110633Y-98239542D01*
X133824919Y-97049066D02*
X133824919Y-96953828D01*
X133824919Y-96953828D02*
X133872538Y-96858590D01*
X133872538Y-96858590D02*
X133920157Y-96810971D01*
X133920157Y-96810971D02*
X134015395Y-96763352D01*
X134015395Y-96763352D02*
X134205871Y-96715733D01*
X134205871Y-96715733D02*
X134443966Y-96715733D01*
X134443966Y-96715733D02*
X134634442Y-96763352D01*
X134634442Y-96763352D02*
X134729680Y-96810971D01*
X134729680Y-96810971D02*
X134777300Y-96858590D01*
X134777300Y-96858590D02*
X134824919Y-96953828D01*
X134824919Y-96953828D02*
X134824919Y-97049066D01*
X134824919Y-97049066D02*
X134777300Y-97144304D01*
X134777300Y-97144304D02*
X134729680Y-97191923D01*
X134729680Y-97191923D02*
X134634442Y-97239542D01*
X134634442Y-97239542D02*
X134443966Y-97287161D01*
X134443966Y-97287161D02*
X134205871Y-97287161D01*
X134205871Y-97287161D02*
X134015395Y-97239542D01*
X134015395Y-97239542D02*
X133920157Y-97191923D01*
X133920157Y-97191923D02*
X133872538Y-97144304D01*
X133872538Y-97144304D02*
X133824919Y-97049066D01*
X133824919Y-96382399D02*
X133824919Y-95715733D01*
X133824919Y-95715733D02*
X134824919Y-96144304D01*
X133655814Y-95051504D02*
X134132004Y-95051504D01*
X133560576Y-95337219D02*
X133893909Y-94337219D01*
X133893909Y-94337219D02*
X134227242Y-95337219D01*
X134751052Y-94337219D02*
X134846290Y-94337219D01*
X134846290Y-94337219D02*
X134941528Y-94384838D01*
X134941528Y-94384838D02*
X134989147Y-94432457D01*
X134989147Y-94432457D02*
X135036766Y-94527695D01*
X135036766Y-94527695D02*
X135084385Y-94718171D01*
X135084385Y-94718171D02*
X135084385Y-94956266D01*
X135084385Y-94956266D02*
X135036766Y-95146742D01*
X135036766Y-95146742D02*
X134989147Y-95241980D01*
X134989147Y-95241980D02*
X134941528Y-95289600D01*
X134941528Y-95289600D02*
X134846290Y-95337219D01*
X134846290Y-95337219D02*
X134751052Y-95337219D01*
X134751052Y-95337219D02*
X134655814Y-95289600D01*
X134655814Y-95289600D02*
X134608195Y-95241980D01*
X134608195Y-95241980D02*
X134560576Y-95146742D01*
X134560576Y-95146742D02*
X134512957Y-94956266D01*
X134512957Y-94956266D02*
X134512957Y-94718171D01*
X134512957Y-94718171D02*
X134560576Y-94527695D01*
X134560576Y-94527695D02*
X134608195Y-94432457D01*
X134608195Y-94432457D02*
X134655814Y-94384838D01*
X134655814Y-94384838D02*
X134751052Y-94337219D01*
X121384385Y-83037219D02*
X121384385Y-83751504D01*
X121384385Y-83751504D02*
X121336766Y-83894361D01*
X121336766Y-83894361D02*
X121241528Y-83989600D01*
X121241528Y-83989600D02*
X121098671Y-84037219D01*
X121098671Y-84037219D02*
X121003433Y-84037219D01*
X121860576Y-84037219D02*
X121860576Y-83037219D01*
X121860576Y-83037219D02*
X122241528Y-83037219D01*
X122241528Y-83037219D02*
X122336766Y-83084838D01*
X122336766Y-83084838D02*
X122384385Y-83132457D01*
X122384385Y-83132457D02*
X122432004Y-83227695D01*
X122432004Y-83227695D02*
X122432004Y-83370552D01*
X122432004Y-83370552D02*
X122384385Y-83465790D01*
X122384385Y-83465790D02*
X122336766Y-83513409D01*
X122336766Y-83513409D02*
X122241528Y-83561028D01*
X122241528Y-83561028D02*
X121860576Y-83561028D01*
X123384385Y-84037219D02*
X122812957Y-84037219D01*
X123098671Y-84037219D02*
X123098671Y-83037219D01*
X123098671Y-83037219D02*
X123003433Y-83180076D01*
X123003433Y-83180076D02*
X122908195Y-83275314D01*
X122908195Y-83275314D02*
X122812957Y-83322933D01*
X124003433Y-83037219D02*
X124098671Y-83037219D01*
X124098671Y-83037219D02*
X124193909Y-83084838D01*
X124193909Y-83084838D02*
X124241528Y-83132457D01*
X124241528Y-83132457D02*
X124289147Y-83227695D01*
X124289147Y-83227695D02*
X124336766Y-83418171D01*
X124336766Y-83418171D02*
X124336766Y-83656266D01*
X124336766Y-83656266D02*
X124289147Y-83846742D01*
X124289147Y-83846742D02*
X124241528Y-83941980D01*
X124241528Y-83941980D02*
X124193909Y-83989600D01*
X124193909Y-83989600D02*
X124098671Y-84037219D01*
X124098671Y-84037219D02*
X124003433Y-84037219D01*
X124003433Y-84037219D02*
X123908195Y-83989600D01*
X123908195Y-83989600D02*
X123860576Y-83941980D01*
X123860576Y-83941980D02*
X123812957Y-83846742D01*
X123812957Y-83846742D02*
X123765338Y-83656266D01*
X123765338Y-83656266D02*
X123765338Y-83418171D01*
X123765338Y-83418171D02*
X123812957Y-83227695D01*
X123812957Y-83227695D02*
X123860576Y-83132457D01*
X123860576Y-83132457D02*
X123908195Y-83084838D01*
X123908195Y-83084838D02*
X124003433Y-83037219D01*
X124908195Y-83465790D02*
X124812957Y-83418171D01*
X124812957Y-83418171D02*
X124765338Y-83370552D01*
X124765338Y-83370552D02*
X124717719Y-83275314D01*
X124717719Y-83275314D02*
X124717719Y-83227695D01*
X124717719Y-83227695D02*
X124765338Y-83132457D01*
X124765338Y-83132457D02*
X124812957Y-83084838D01*
X124812957Y-83084838D02*
X124908195Y-83037219D01*
X124908195Y-83037219D02*
X125098671Y-83037219D01*
X125098671Y-83037219D02*
X125193909Y-83084838D01*
X125193909Y-83084838D02*
X125241528Y-83132457D01*
X125241528Y-83132457D02*
X125289147Y-83227695D01*
X125289147Y-83227695D02*
X125289147Y-83275314D01*
X125289147Y-83275314D02*
X125241528Y-83370552D01*
X125241528Y-83370552D02*
X125193909Y-83418171D01*
X125193909Y-83418171D02*
X125098671Y-83465790D01*
X125098671Y-83465790D02*
X124908195Y-83465790D01*
X124908195Y-83465790D02*
X124812957Y-83513409D01*
X124812957Y-83513409D02*
X124765338Y-83561028D01*
X124765338Y-83561028D02*
X124717719Y-83656266D01*
X124717719Y-83656266D02*
X124717719Y-83846742D01*
X124717719Y-83846742D02*
X124765338Y-83941980D01*
X124765338Y-83941980D02*
X124812957Y-83989600D01*
X124812957Y-83989600D02*
X124908195Y-84037219D01*
X124908195Y-84037219D02*
X125098671Y-84037219D01*
X125098671Y-84037219D02*
X125193909Y-83989600D01*
X125193909Y-83989600D02*
X125241528Y-83941980D01*
X125241528Y-83941980D02*
X125289147Y-83846742D01*
X125289147Y-83846742D02*
X125289147Y-83656266D01*
X125289147Y-83656266D02*
X125241528Y-83561028D01*
X125241528Y-83561028D02*
X125193909Y-83513409D01*
X125193909Y-83513409D02*
X125098671Y-83465790D01*
X121441529Y-84437219D02*
X121679624Y-85437219D01*
X121679624Y-85437219D02*
X121870100Y-84722933D01*
X121870100Y-84722933D02*
X122060576Y-85437219D01*
X122060576Y-85437219D02*
X122298672Y-84437219D01*
X122679624Y-85437219D02*
X122679624Y-84437219D01*
X122679624Y-84437219D02*
X123060576Y-84437219D01*
X123060576Y-84437219D02*
X123155814Y-84484838D01*
X123155814Y-84484838D02*
X123203433Y-84532457D01*
X123203433Y-84532457D02*
X123251052Y-84627695D01*
X123251052Y-84627695D02*
X123251052Y-84770552D01*
X123251052Y-84770552D02*
X123203433Y-84865790D01*
X123203433Y-84865790D02*
X123155814Y-84913409D01*
X123155814Y-84913409D02*
X123060576Y-84961028D01*
X123060576Y-84961028D02*
X122679624Y-84961028D01*
X135251052Y-87037219D02*
X134917719Y-86561028D01*
X134679624Y-87037219D02*
X134679624Y-86037219D01*
X134679624Y-86037219D02*
X135060576Y-86037219D01*
X135060576Y-86037219D02*
X135155814Y-86084838D01*
X135155814Y-86084838D02*
X135203433Y-86132457D01*
X135203433Y-86132457D02*
X135251052Y-86227695D01*
X135251052Y-86227695D02*
X135251052Y-86370552D01*
X135251052Y-86370552D02*
X135203433Y-86465790D01*
X135203433Y-86465790D02*
X135155814Y-86513409D01*
X135155814Y-86513409D02*
X135060576Y-86561028D01*
X135060576Y-86561028D02*
X134679624Y-86561028D01*
X136203433Y-87037219D02*
X135632005Y-87037219D01*
X135917719Y-87037219D02*
X135917719Y-86037219D01*
X135917719Y-86037219D02*
X135822481Y-86180076D01*
X135822481Y-86180076D02*
X135727243Y-86275314D01*
X135727243Y-86275314D02*
X135632005Y-86322933D01*
X136822481Y-86037219D02*
X136917719Y-86037219D01*
X136917719Y-86037219D02*
X137012957Y-86084838D01*
X137012957Y-86084838D02*
X137060576Y-86132457D01*
X137060576Y-86132457D02*
X137108195Y-86227695D01*
X137108195Y-86227695D02*
X137155814Y-86418171D01*
X137155814Y-86418171D02*
X137155814Y-86656266D01*
X137155814Y-86656266D02*
X137108195Y-86846742D01*
X137108195Y-86846742D02*
X137060576Y-86941980D01*
X137060576Y-86941980D02*
X137012957Y-86989600D01*
X137012957Y-86989600D02*
X136917719Y-87037219D01*
X136917719Y-87037219D02*
X136822481Y-87037219D01*
X136822481Y-87037219D02*
X136727243Y-86989600D01*
X136727243Y-86989600D02*
X136679624Y-86941980D01*
X136679624Y-86941980D02*
X136632005Y-86846742D01*
X136632005Y-86846742D02*
X136584386Y-86656266D01*
X136584386Y-86656266D02*
X136584386Y-86418171D01*
X136584386Y-86418171D02*
X136632005Y-86227695D01*
X136632005Y-86227695D02*
X136679624Y-86132457D01*
X136679624Y-86132457D02*
X136727243Y-86084838D01*
X136727243Y-86084838D02*
X136822481Y-86037219D01*
X138108195Y-87037219D02*
X137536767Y-87037219D01*
X137822481Y-87037219D02*
X137822481Y-86037219D01*
X137822481Y-86037219D02*
X137727243Y-86180076D01*
X137727243Y-86180076D02*
X137632005Y-86275314D01*
X137632005Y-86275314D02*
X137536767Y-86322933D01*
X135251052Y-88337219D02*
X134917719Y-87861028D01*
X134679624Y-88337219D02*
X134679624Y-87337219D01*
X134679624Y-87337219D02*
X135060576Y-87337219D01*
X135060576Y-87337219D02*
X135155814Y-87384838D01*
X135155814Y-87384838D02*
X135203433Y-87432457D01*
X135203433Y-87432457D02*
X135251052Y-87527695D01*
X135251052Y-87527695D02*
X135251052Y-87670552D01*
X135251052Y-87670552D02*
X135203433Y-87765790D01*
X135203433Y-87765790D02*
X135155814Y-87813409D01*
X135155814Y-87813409D02*
X135060576Y-87861028D01*
X135060576Y-87861028D02*
X134679624Y-87861028D01*
X136203433Y-88337219D02*
X135632005Y-88337219D01*
X135917719Y-88337219D02*
X135917719Y-87337219D01*
X135917719Y-87337219D02*
X135822481Y-87480076D01*
X135822481Y-87480076D02*
X135727243Y-87575314D01*
X135727243Y-87575314D02*
X135632005Y-87622933D01*
X136822481Y-87337219D02*
X136917719Y-87337219D01*
X136917719Y-87337219D02*
X137012957Y-87384838D01*
X137012957Y-87384838D02*
X137060576Y-87432457D01*
X137060576Y-87432457D02*
X137108195Y-87527695D01*
X137108195Y-87527695D02*
X137155814Y-87718171D01*
X137155814Y-87718171D02*
X137155814Y-87956266D01*
X137155814Y-87956266D02*
X137108195Y-88146742D01*
X137108195Y-88146742D02*
X137060576Y-88241980D01*
X137060576Y-88241980D02*
X137012957Y-88289600D01*
X137012957Y-88289600D02*
X136917719Y-88337219D01*
X136917719Y-88337219D02*
X136822481Y-88337219D01*
X136822481Y-88337219D02*
X136727243Y-88289600D01*
X136727243Y-88289600D02*
X136679624Y-88241980D01*
X136679624Y-88241980D02*
X136632005Y-88146742D01*
X136632005Y-88146742D02*
X136584386Y-87956266D01*
X136584386Y-87956266D02*
X136584386Y-87718171D01*
X136584386Y-87718171D02*
X136632005Y-87527695D01*
X136632005Y-87527695D02*
X136679624Y-87432457D01*
X136679624Y-87432457D02*
X136727243Y-87384838D01*
X136727243Y-87384838D02*
X136822481Y-87337219D01*
X137536767Y-87432457D02*
X137584386Y-87384838D01*
X137584386Y-87384838D02*
X137679624Y-87337219D01*
X137679624Y-87337219D02*
X137917719Y-87337219D01*
X137917719Y-87337219D02*
X138012957Y-87384838D01*
X138012957Y-87384838D02*
X138060576Y-87432457D01*
X138060576Y-87432457D02*
X138108195Y-87527695D01*
X138108195Y-87527695D02*
X138108195Y-87622933D01*
X138108195Y-87622933D02*
X138060576Y-87765790D01*
X138060576Y-87765790D02*
X137489148Y-88337219D01*
X137489148Y-88337219D02*
X138108195Y-88337219D01*
X122824919Y-94501447D02*
X122348728Y-94834780D01*
X122824919Y-95072875D02*
X121824919Y-95072875D01*
X121824919Y-95072875D02*
X121824919Y-94691923D01*
X121824919Y-94691923D02*
X121872538Y-94596685D01*
X121872538Y-94596685D02*
X121920157Y-94549066D01*
X121920157Y-94549066D02*
X122015395Y-94501447D01*
X122015395Y-94501447D02*
X122158252Y-94501447D01*
X122158252Y-94501447D02*
X122253490Y-94549066D01*
X122253490Y-94549066D02*
X122301109Y-94596685D01*
X122301109Y-94596685D02*
X122348728Y-94691923D01*
X122348728Y-94691923D02*
X122348728Y-95072875D01*
X122824919Y-93549066D02*
X122824919Y-94120494D01*
X122824919Y-93834780D02*
X121824919Y-93834780D01*
X121824919Y-93834780D02*
X121967776Y-93930018D01*
X121967776Y-93930018D02*
X122063014Y-94025256D01*
X122063014Y-94025256D02*
X122110633Y-94120494D01*
X121824919Y-92930018D02*
X121824919Y-92834780D01*
X121824919Y-92834780D02*
X121872538Y-92739542D01*
X121872538Y-92739542D02*
X121920157Y-92691923D01*
X121920157Y-92691923D02*
X122015395Y-92644304D01*
X122015395Y-92644304D02*
X122205871Y-92596685D01*
X122205871Y-92596685D02*
X122443966Y-92596685D01*
X122443966Y-92596685D02*
X122634442Y-92644304D01*
X122634442Y-92644304D02*
X122729680Y-92691923D01*
X122729680Y-92691923D02*
X122777300Y-92739542D01*
X122777300Y-92739542D02*
X122824919Y-92834780D01*
X122824919Y-92834780D02*
X122824919Y-92930018D01*
X122824919Y-92930018D02*
X122777300Y-93025256D01*
X122777300Y-93025256D02*
X122729680Y-93072875D01*
X122729680Y-93072875D02*
X122634442Y-93120494D01*
X122634442Y-93120494D02*
X122443966Y-93168113D01*
X122443966Y-93168113D02*
X122205871Y-93168113D01*
X122205871Y-93168113D02*
X122015395Y-93120494D01*
X122015395Y-93120494D02*
X121920157Y-93072875D01*
X121920157Y-93072875D02*
X121872538Y-93025256D01*
X121872538Y-93025256D02*
X121824919Y-92930018D01*
X122158252Y-91739542D02*
X122824919Y-91739542D01*
X121777300Y-91977637D02*
X122491585Y-92215732D01*
X122491585Y-92215732D02*
X122491585Y-91596685D01*
X153377300Y-71468113D02*
X153424919Y-71325256D01*
X153424919Y-71325256D02*
X153424919Y-71087161D01*
X153424919Y-71087161D02*
X153377300Y-70991923D01*
X153377300Y-70991923D02*
X153329680Y-70944304D01*
X153329680Y-70944304D02*
X153234442Y-70896685D01*
X153234442Y-70896685D02*
X153139204Y-70896685D01*
X153139204Y-70896685D02*
X153043966Y-70944304D01*
X153043966Y-70944304D02*
X152996347Y-70991923D01*
X152996347Y-70991923D02*
X152948728Y-71087161D01*
X152948728Y-71087161D02*
X152901109Y-71277637D01*
X152901109Y-71277637D02*
X152853490Y-71372875D01*
X152853490Y-71372875D02*
X152805871Y-71420494D01*
X152805871Y-71420494D02*
X152710633Y-71468113D01*
X152710633Y-71468113D02*
X152615395Y-71468113D01*
X152615395Y-71468113D02*
X152520157Y-71420494D01*
X152520157Y-71420494D02*
X152472538Y-71372875D01*
X152472538Y-71372875D02*
X152424919Y-71277637D01*
X152424919Y-71277637D02*
X152424919Y-71039542D01*
X152424919Y-71039542D02*
X152472538Y-70896685D01*
X152424919Y-70563351D02*
X153424919Y-70325256D01*
X153424919Y-70325256D02*
X152710633Y-70134780D01*
X152710633Y-70134780D02*
X153424919Y-69944304D01*
X153424919Y-69944304D02*
X152424919Y-69706209D01*
X153424919Y-68801447D02*
X153424919Y-69372875D01*
X153424919Y-69087161D02*
X152424919Y-69087161D01*
X152424919Y-69087161D02*
X152567776Y-69182399D01*
X152567776Y-69182399D02*
X152663014Y-69277637D01*
X152663014Y-69277637D02*
X152710633Y-69372875D01*
X152424919Y-68182399D02*
X152424919Y-68087161D01*
X152424919Y-68087161D02*
X152472538Y-67991923D01*
X152472538Y-67991923D02*
X152520157Y-67944304D01*
X152520157Y-67944304D02*
X152615395Y-67896685D01*
X152615395Y-67896685D02*
X152805871Y-67849066D01*
X152805871Y-67849066D02*
X153043966Y-67849066D01*
X153043966Y-67849066D02*
X153234442Y-67896685D01*
X153234442Y-67896685D02*
X153329680Y-67944304D01*
X153329680Y-67944304D02*
X153377300Y-67991923D01*
X153377300Y-67991923D02*
X153424919Y-68087161D01*
X153424919Y-68087161D02*
X153424919Y-68182399D01*
X153424919Y-68182399D02*
X153377300Y-68277637D01*
X153377300Y-68277637D02*
X153329680Y-68325256D01*
X153329680Y-68325256D02*
X153234442Y-68372875D01*
X153234442Y-68372875D02*
X153043966Y-68420494D01*
X153043966Y-68420494D02*
X152805871Y-68420494D01*
X152805871Y-68420494D02*
X152615395Y-68372875D01*
X152615395Y-68372875D02*
X152520157Y-68325256D01*
X152520157Y-68325256D02*
X152472538Y-68277637D01*
X152472538Y-68277637D02*
X152424919Y-68182399D01*
X153424919Y-66896685D02*
X153424919Y-67468113D01*
X153424919Y-67182399D02*
X152424919Y-67182399D01*
X152424919Y-67182399D02*
X152567776Y-67277637D01*
X152567776Y-67277637D02*
X152663014Y-67372875D01*
X152663014Y-67372875D02*
X152710633Y-67468113D01*
X123377300Y-71418113D02*
X123424919Y-71275256D01*
X123424919Y-71275256D02*
X123424919Y-71037161D01*
X123424919Y-71037161D02*
X123377300Y-70941923D01*
X123377300Y-70941923D02*
X123329680Y-70894304D01*
X123329680Y-70894304D02*
X123234442Y-70846685D01*
X123234442Y-70846685D02*
X123139204Y-70846685D01*
X123139204Y-70846685D02*
X123043966Y-70894304D01*
X123043966Y-70894304D02*
X122996347Y-70941923D01*
X122996347Y-70941923D02*
X122948728Y-71037161D01*
X122948728Y-71037161D02*
X122901109Y-71227637D01*
X122901109Y-71227637D02*
X122853490Y-71322875D01*
X122853490Y-71322875D02*
X122805871Y-71370494D01*
X122805871Y-71370494D02*
X122710633Y-71418113D01*
X122710633Y-71418113D02*
X122615395Y-71418113D01*
X122615395Y-71418113D02*
X122520157Y-71370494D01*
X122520157Y-71370494D02*
X122472538Y-71322875D01*
X122472538Y-71322875D02*
X122424919Y-71227637D01*
X122424919Y-71227637D02*
X122424919Y-70989542D01*
X122424919Y-70989542D02*
X122472538Y-70846685D01*
X122424919Y-70513351D02*
X123424919Y-70275256D01*
X123424919Y-70275256D02*
X122710633Y-70084780D01*
X122710633Y-70084780D02*
X123424919Y-69894304D01*
X123424919Y-69894304D02*
X122424919Y-69656209D01*
X123424919Y-68751447D02*
X123424919Y-69322875D01*
X123424919Y-69037161D02*
X122424919Y-69037161D01*
X122424919Y-69037161D02*
X122567776Y-69132399D01*
X122567776Y-69132399D02*
X122663014Y-69227637D01*
X122663014Y-69227637D02*
X122710633Y-69322875D01*
X122424919Y-68132399D02*
X122424919Y-68037161D01*
X122424919Y-68037161D02*
X122472538Y-67941923D01*
X122472538Y-67941923D02*
X122520157Y-67894304D01*
X122520157Y-67894304D02*
X122615395Y-67846685D01*
X122615395Y-67846685D02*
X122805871Y-67799066D01*
X122805871Y-67799066D02*
X123043966Y-67799066D01*
X123043966Y-67799066D02*
X123234442Y-67846685D01*
X123234442Y-67846685D02*
X123329680Y-67894304D01*
X123329680Y-67894304D02*
X123377300Y-67941923D01*
X123377300Y-67941923D02*
X123424919Y-68037161D01*
X123424919Y-68037161D02*
X123424919Y-68132399D01*
X123424919Y-68132399D02*
X123377300Y-68227637D01*
X123377300Y-68227637D02*
X123329680Y-68275256D01*
X123329680Y-68275256D02*
X123234442Y-68322875D01*
X123234442Y-68322875D02*
X123043966Y-68370494D01*
X123043966Y-68370494D02*
X122805871Y-68370494D01*
X122805871Y-68370494D02*
X122615395Y-68322875D01*
X122615395Y-68322875D02*
X122520157Y-68275256D01*
X122520157Y-68275256D02*
X122472538Y-68227637D01*
X122472538Y-68227637D02*
X122424919Y-68132399D01*
X122520157Y-67418113D02*
X122472538Y-67370494D01*
X122472538Y-67370494D02*
X122424919Y-67275256D01*
X122424919Y-67275256D02*
X122424919Y-67037161D01*
X122424919Y-67037161D02*
X122472538Y-66941923D01*
X122472538Y-66941923D02*
X122520157Y-66894304D01*
X122520157Y-66894304D02*
X122615395Y-66846685D01*
X122615395Y-66846685D02*
X122710633Y-66846685D01*
X122710633Y-66846685D02*
X122853490Y-66894304D01*
X122853490Y-66894304D02*
X123424919Y-67465732D01*
X123424919Y-67465732D02*
X123424919Y-66846685D01*
X142235814Y-122637219D02*
X142235814Y-123446742D01*
X142235814Y-123446742D02*
X142283433Y-123541980D01*
X142283433Y-123541980D02*
X142331052Y-123589600D01*
X142331052Y-123589600D02*
X142426290Y-123637219D01*
X142426290Y-123637219D02*
X142616766Y-123637219D01*
X142616766Y-123637219D02*
X142712004Y-123589600D01*
X142712004Y-123589600D02*
X142759623Y-123541980D01*
X142759623Y-123541980D02*
X142807242Y-123446742D01*
X142807242Y-123446742D02*
X142807242Y-122637219D01*
X143807242Y-123637219D02*
X143235814Y-123637219D01*
X143521528Y-123637219D02*
X143521528Y-122637219D01*
X143521528Y-122637219D02*
X143426290Y-122780076D01*
X143426290Y-122780076D02*
X143331052Y-122875314D01*
X143331052Y-122875314D02*
X143235814Y-122922933D01*
X144426290Y-122637219D02*
X144521528Y-122637219D01*
X144521528Y-122637219D02*
X144616766Y-122684838D01*
X144616766Y-122684838D02*
X144664385Y-122732457D01*
X144664385Y-122732457D02*
X144712004Y-122827695D01*
X144712004Y-122827695D02*
X144759623Y-123018171D01*
X144759623Y-123018171D02*
X144759623Y-123256266D01*
X144759623Y-123256266D02*
X144712004Y-123446742D01*
X144712004Y-123446742D02*
X144664385Y-123541980D01*
X144664385Y-123541980D02*
X144616766Y-123589600D01*
X144616766Y-123589600D02*
X144521528Y-123637219D01*
X144521528Y-123637219D02*
X144426290Y-123637219D01*
X144426290Y-123637219D02*
X144331052Y-123589600D01*
X144331052Y-123589600D02*
X144283433Y-123541980D01*
X144283433Y-123541980D02*
X144235814Y-123446742D01*
X144235814Y-123446742D02*
X144188195Y-123256266D01*
X144188195Y-123256266D02*
X144188195Y-123018171D01*
X144188195Y-123018171D02*
X144235814Y-122827695D01*
X144235814Y-122827695D02*
X144283433Y-122732457D01*
X144283433Y-122732457D02*
X144331052Y-122684838D01*
X144331052Y-122684838D02*
X144426290Y-122637219D01*
X145616766Y-122970552D02*
X145616766Y-123637219D01*
X145378671Y-122589600D02*
X145140576Y-123303885D01*
X145140576Y-123303885D02*
X145759623Y-123303885D01*
X126655814Y-83337219D02*
X126655814Y-84146742D01*
X126655814Y-84146742D02*
X126703433Y-84241980D01*
X126703433Y-84241980D02*
X126751052Y-84289600D01*
X126751052Y-84289600D02*
X126846290Y-84337219D01*
X126846290Y-84337219D02*
X127036766Y-84337219D01*
X127036766Y-84337219D02*
X127132004Y-84289600D01*
X127132004Y-84289600D02*
X127179623Y-84241980D01*
X127179623Y-84241980D02*
X127227242Y-84146742D01*
X127227242Y-84146742D02*
X127227242Y-83337219D01*
X128227242Y-84337219D02*
X127655814Y-84337219D01*
X127941528Y-84337219D02*
X127941528Y-83337219D01*
X127941528Y-83337219D02*
X127846290Y-83480076D01*
X127846290Y-83480076D02*
X127751052Y-83575314D01*
X127751052Y-83575314D02*
X127655814Y-83622933D01*
X128846290Y-83337219D02*
X128941528Y-83337219D01*
X128941528Y-83337219D02*
X129036766Y-83384838D01*
X129036766Y-83384838D02*
X129084385Y-83432457D01*
X129084385Y-83432457D02*
X129132004Y-83527695D01*
X129132004Y-83527695D02*
X129179623Y-83718171D01*
X129179623Y-83718171D02*
X129179623Y-83956266D01*
X129179623Y-83956266D02*
X129132004Y-84146742D01*
X129132004Y-84146742D02*
X129084385Y-84241980D01*
X129084385Y-84241980D02*
X129036766Y-84289600D01*
X129036766Y-84289600D02*
X128941528Y-84337219D01*
X128941528Y-84337219D02*
X128846290Y-84337219D01*
X128846290Y-84337219D02*
X128751052Y-84289600D01*
X128751052Y-84289600D02*
X128703433Y-84241980D01*
X128703433Y-84241980D02*
X128655814Y-84146742D01*
X128655814Y-84146742D02*
X128608195Y-83956266D01*
X128608195Y-83956266D02*
X128608195Y-83718171D01*
X128608195Y-83718171D02*
X128655814Y-83527695D01*
X128655814Y-83527695D02*
X128703433Y-83432457D01*
X128703433Y-83432457D02*
X128751052Y-83384838D01*
X128751052Y-83384838D02*
X128846290Y-83337219D01*
X129560576Y-83432457D02*
X129608195Y-83384838D01*
X129608195Y-83384838D02*
X129703433Y-83337219D01*
X129703433Y-83337219D02*
X129941528Y-83337219D01*
X129941528Y-83337219D02*
X130036766Y-83384838D01*
X130036766Y-83384838D02*
X130084385Y-83432457D01*
X130084385Y-83432457D02*
X130132004Y-83527695D01*
X130132004Y-83527695D02*
X130132004Y-83622933D01*
X130132004Y-83622933D02*
X130084385Y-83765790D01*
X130084385Y-83765790D02*
X129512957Y-84337219D01*
X129512957Y-84337219D02*
X130132004Y-84337219D01*
X147179624Y-75837219D02*
X147179624Y-74837219D01*
X147179624Y-74837219D02*
X147417719Y-74837219D01*
X147417719Y-74837219D02*
X147560576Y-74884838D01*
X147560576Y-74884838D02*
X147655814Y-74980076D01*
X147655814Y-74980076D02*
X147703433Y-75075314D01*
X147703433Y-75075314D02*
X147751052Y-75265790D01*
X147751052Y-75265790D02*
X147751052Y-75408647D01*
X147751052Y-75408647D02*
X147703433Y-75599123D01*
X147703433Y-75599123D02*
X147655814Y-75694361D01*
X147655814Y-75694361D02*
X147560576Y-75789600D01*
X147560576Y-75789600D02*
X147417719Y-75837219D01*
X147417719Y-75837219D02*
X147179624Y-75837219D01*
X148703433Y-75837219D02*
X148132005Y-75837219D01*
X148417719Y-75837219D02*
X148417719Y-74837219D01*
X148417719Y-74837219D02*
X148322481Y-74980076D01*
X148322481Y-74980076D02*
X148227243Y-75075314D01*
X148227243Y-75075314D02*
X148132005Y-75122933D01*
X149322481Y-74837219D02*
X149417719Y-74837219D01*
X149417719Y-74837219D02*
X149512957Y-74884838D01*
X149512957Y-74884838D02*
X149560576Y-74932457D01*
X149560576Y-74932457D02*
X149608195Y-75027695D01*
X149608195Y-75027695D02*
X149655814Y-75218171D01*
X149655814Y-75218171D02*
X149655814Y-75456266D01*
X149655814Y-75456266D02*
X149608195Y-75646742D01*
X149608195Y-75646742D02*
X149560576Y-75741980D01*
X149560576Y-75741980D02*
X149512957Y-75789600D01*
X149512957Y-75789600D02*
X149417719Y-75837219D01*
X149417719Y-75837219D02*
X149322481Y-75837219D01*
X149322481Y-75837219D02*
X149227243Y-75789600D01*
X149227243Y-75789600D02*
X149179624Y-75741980D01*
X149179624Y-75741980D02*
X149132005Y-75646742D01*
X149132005Y-75646742D02*
X149084386Y-75456266D01*
X149084386Y-75456266D02*
X149084386Y-75218171D01*
X149084386Y-75218171D02*
X149132005Y-75027695D01*
X149132005Y-75027695D02*
X149179624Y-74932457D01*
X149179624Y-74932457D02*
X149227243Y-74884838D01*
X149227243Y-74884838D02*
X149322481Y-74837219D01*
X150608195Y-75837219D02*
X150036767Y-75837219D01*
X150322481Y-75837219D02*
X150322481Y-74837219D01*
X150322481Y-74837219D02*
X150227243Y-74980076D01*
X150227243Y-74980076D02*
X150132005Y-75075314D01*
X150132005Y-75075314D02*
X150036767Y-75122933D01*
X147179624Y-77587219D02*
X147179624Y-76587219D01*
X147179624Y-76587219D02*
X147417719Y-76587219D01*
X147417719Y-76587219D02*
X147560576Y-76634838D01*
X147560576Y-76634838D02*
X147655814Y-76730076D01*
X147655814Y-76730076D02*
X147703433Y-76825314D01*
X147703433Y-76825314D02*
X147751052Y-77015790D01*
X147751052Y-77015790D02*
X147751052Y-77158647D01*
X147751052Y-77158647D02*
X147703433Y-77349123D01*
X147703433Y-77349123D02*
X147655814Y-77444361D01*
X147655814Y-77444361D02*
X147560576Y-77539600D01*
X147560576Y-77539600D02*
X147417719Y-77587219D01*
X147417719Y-77587219D02*
X147179624Y-77587219D01*
X148703433Y-77587219D02*
X148132005Y-77587219D01*
X148417719Y-77587219D02*
X148417719Y-76587219D01*
X148417719Y-76587219D02*
X148322481Y-76730076D01*
X148322481Y-76730076D02*
X148227243Y-76825314D01*
X148227243Y-76825314D02*
X148132005Y-76872933D01*
X149322481Y-76587219D02*
X149417719Y-76587219D01*
X149417719Y-76587219D02*
X149512957Y-76634838D01*
X149512957Y-76634838D02*
X149560576Y-76682457D01*
X149560576Y-76682457D02*
X149608195Y-76777695D01*
X149608195Y-76777695D02*
X149655814Y-76968171D01*
X149655814Y-76968171D02*
X149655814Y-77206266D01*
X149655814Y-77206266D02*
X149608195Y-77396742D01*
X149608195Y-77396742D02*
X149560576Y-77491980D01*
X149560576Y-77491980D02*
X149512957Y-77539600D01*
X149512957Y-77539600D02*
X149417719Y-77587219D01*
X149417719Y-77587219D02*
X149322481Y-77587219D01*
X149322481Y-77587219D02*
X149227243Y-77539600D01*
X149227243Y-77539600D02*
X149179624Y-77491980D01*
X149179624Y-77491980D02*
X149132005Y-77396742D01*
X149132005Y-77396742D02*
X149084386Y-77206266D01*
X149084386Y-77206266D02*
X149084386Y-76968171D01*
X149084386Y-76968171D02*
X149132005Y-76777695D01*
X149132005Y-76777695D02*
X149179624Y-76682457D01*
X149179624Y-76682457D02*
X149227243Y-76634838D01*
X149227243Y-76634838D02*
X149322481Y-76587219D01*
X150036767Y-76682457D02*
X150084386Y-76634838D01*
X150084386Y-76634838D02*
X150179624Y-76587219D01*
X150179624Y-76587219D02*
X150417719Y-76587219D01*
X150417719Y-76587219D02*
X150512957Y-76634838D01*
X150512957Y-76634838D02*
X150560576Y-76682457D01*
X150560576Y-76682457D02*
X150608195Y-76777695D01*
X150608195Y-76777695D02*
X150608195Y-76872933D01*
X150608195Y-76872933D02*
X150560576Y-77015790D01*
X150560576Y-77015790D02*
X149989148Y-77587219D01*
X149989148Y-77587219D02*
X150608195Y-77587219D01*
X147179624Y-79337219D02*
X147179624Y-78337219D01*
X147179624Y-78337219D02*
X147417719Y-78337219D01*
X147417719Y-78337219D02*
X147560576Y-78384838D01*
X147560576Y-78384838D02*
X147655814Y-78480076D01*
X147655814Y-78480076D02*
X147703433Y-78575314D01*
X147703433Y-78575314D02*
X147751052Y-78765790D01*
X147751052Y-78765790D02*
X147751052Y-78908647D01*
X147751052Y-78908647D02*
X147703433Y-79099123D01*
X147703433Y-79099123D02*
X147655814Y-79194361D01*
X147655814Y-79194361D02*
X147560576Y-79289600D01*
X147560576Y-79289600D02*
X147417719Y-79337219D01*
X147417719Y-79337219D02*
X147179624Y-79337219D01*
X148703433Y-79337219D02*
X148132005Y-79337219D01*
X148417719Y-79337219D02*
X148417719Y-78337219D01*
X148417719Y-78337219D02*
X148322481Y-78480076D01*
X148322481Y-78480076D02*
X148227243Y-78575314D01*
X148227243Y-78575314D02*
X148132005Y-78622933D01*
X149322481Y-78337219D02*
X149417719Y-78337219D01*
X149417719Y-78337219D02*
X149512957Y-78384838D01*
X149512957Y-78384838D02*
X149560576Y-78432457D01*
X149560576Y-78432457D02*
X149608195Y-78527695D01*
X149608195Y-78527695D02*
X149655814Y-78718171D01*
X149655814Y-78718171D02*
X149655814Y-78956266D01*
X149655814Y-78956266D02*
X149608195Y-79146742D01*
X149608195Y-79146742D02*
X149560576Y-79241980D01*
X149560576Y-79241980D02*
X149512957Y-79289600D01*
X149512957Y-79289600D02*
X149417719Y-79337219D01*
X149417719Y-79337219D02*
X149322481Y-79337219D01*
X149322481Y-79337219D02*
X149227243Y-79289600D01*
X149227243Y-79289600D02*
X149179624Y-79241980D01*
X149179624Y-79241980D02*
X149132005Y-79146742D01*
X149132005Y-79146742D02*
X149084386Y-78956266D01*
X149084386Y-78956266D02*
X149084386Y-78718171D01*
X149084386Y-78718171D02*
X149132005Y-78527695D01*
X149132005Y-78527695D02*
X149179624Y-78432457D01*
X149179624Y-78432457D02*
X149227243Y-78384838D01*
X149227243Y-78384838D02*
X149322481Y-78337219D01*
X149989148Y-78337219D02*
X150608195Y-78337219D01*
X150608195Y-78337219D02*
X150274862Y-78718171D01*
X150274862Y-78718171D02*
X150417719Y-78718171D01*
X150417719Y-78718171D02*
X150512957Y-78765790D01*
X150512957Y-78765790D02*
X150560576Y-78813409D01*
X150560576Y-78813409D02*
X150608195Y-78908647D01*
X150608195Y-78908647D02*
X150608195Y-79146742D01*
X150608195Y-79146742D02*
X150560576Y-79241980D01*
X150560576Y-79241980D02*
X150512957Y-79289600D01*
X150512957Y-79289600D02*
X150417719Y-79337219D01*
X150417719Y-79337219D02*
X150132005Y-79337219D01*
X150132005Y-79337219D02*
X150036767Y-79289600D01*
X150036767Y-79289600D02*
X149989148Y-79241980D01*
X147179624Y-81087219D02*
X147179624Y-80087219D01*
X147179624Y-80087219D02*
X147417719Y-80087219D01*
X147417719Y-80087219D02*
X147560576Y-80134838D01*
X147560576Y-80134838D02*
X147655814Y-80230076D01*
X147655814Y-80230076D02*
X147703433Y-80325314D01*
X147703433Y-80325314D02*
X147751052Y-80515790D01*
X147751052Y-80515790D02*
X147751052Y-80658647D01*
X147751052Y-80658647D02*
X147703433Y-80849123D01*
X147703433Y-80849123D02*
X147655814Y-80944361D01*
X147655814Y-80944361D02*
X147560576Y-81039600D01*
X147560576Y-81039600D02*
X147417719Y-81087219D01*
X147417719Y-81087219D02*
X147179624Y-81087219D01*
X148703433Y-81087219D02*
X148132005Y-81087219D01*
X148417719Y-81087219D02*
X148417719Y-80087219D01*
X148417719Y-80087219D02*
X148322481Y-80230076D01*
X148322481Y-80230076D02*
X148227243Y-80325314D01*
X148227243Y-80325314D02*
X148132005Y-80372933D01*
X149322481Y-80087219D02*
X149417719Y-80087219D01*
X149417719Y-80087219D02*
X149512957Y-80134838D01*
X149512957Y-80134838D02*
X149560576Y-80182457D01*
X149560576Y-80182457D02*
X149608195Y-80277695D01*
X149608195Y-80277695D02*
X149655814Y-80468171D01*
X149655814Y-80468171D02*
X149655814Y-80706266D01*
X149655814Y-80706266D02*
X149608195Y-80896742D01*
X149608195Y-80896742D02*
X149560576Y-80991980D01*
X149560576Y-80991980D02*
X149512957Y-81039600D01*
X149512957Y-81039600D02*
X149417719Y-81087219D01*
X149417719Y-81087219D02*
X149322481Y-81087219D01*
X149322481Y-81087219D02*
X149227243Y-81039600D01*
X149227243Y-81039600D02*
X149179624Y-80991980D01*
X149179624Y-80991980D02*
X149132005Y-80896742D01*
X149132005Y-80896742D02*
X149084386Y-80706266D01*
X149084386Y-80706266D02*
X149084386Y-80468171D01*
X149084386Y-80468171D02*
X149132005Y-80277695D01*
X149132005Y-80277695D02*
X149179624Y-80182457D01*
X149179624Y-80182457D02*
X149227243Y-80134838D01*
X149227243Y-80134838D02*
X149322481Y-80087219D01*
X150512957Y-80420552D02*
X150512957Y-81087219D01*
X150274862Y-80039600D02*
X150036767Y-80753885D01*
X150036767Y-80753885D02*
X150655814Y-80753885D01*
X147179624Y-82837219D02*
X147179624Y-81837219D01*
X147179624Y-81837219D02*
X147417719Y-81837219D01*
X147417719Y-81837219D02*
X147560576Y-81884838D01*
X147560576Y-81884838D02*
X147655814Y-81980076D01*
X147655814Y-81980076D02*
X147703433Y-82075314D01*
X147703433Y-82075314D02*
X147751052Y-82265790D01*
X147751052Y-82265790D02*
X147751052Y-82408647D01*
X147751052Y-82408647D02*
X147703433Y-82599123D01*
X147703433Y-82599123D02*
X147655814Y-82694361D01*
X147655814Y-82694361D02*
X147560576Y-82789600D01*
X147560576Y-82789600D02*
X147417719Y-82837219D01*
X147417719Y-82837219D02*
X147179624Y-82837219D01*
X148703433Y-82837219D02*
X148132005Y-82837219D01*
X148417719Y-82837219D02*
X148417719Y-81837219D01*
X148417719Y-81837219D02*
X148322481Y-81980076D01*
X148322481Y-81980076D02*
X148227243Y-82075314D01*
X148227243Y-82075314D02*
X148132005Y-82122933D01*
X149322481Y-81837219D02*
X149417719Y-81837219D01*
X149417719Y-81837219D02*
X149512957Y-81884838D01*
X149512957Y-81884838D02*
X149560576Y-81932457D01*
X149560576Y-81932457D02*
X149608195Y-82027695D01*
X149608195Y-82027695D02*
X149655814Y-82218171D01*
X149655814Y-82218171D02*
X149655814Y-82456266D01*
X149655814Y-82456266D02*
X149608195Y-82646742D01*
X149608195Y-82646742D02*
X149560576Y-82741980D01*
X149560576Y-82741980D02*
X149512957Y-82789600D01*
X149512957Y-82789600D02*
X149417719Y-82837219D01*
X149417719Y-82837219D02*
X149322481Y-82837219D01*
X149322481Y-82837219D02*
X149227243Y-82789600D01*
X149227243Y-82789600D02*
X149179624Y-82741980D01*
X149179624Y-82741980D02*
X149132005Y-82646742D01*
X149132005Y-82646742D02*
X149084386Y-82456266D01*
X149084386Y-82456266D02*
X149084386Y-82218171D01*
X149084386Y-82218171D02*
X149132005Y-82027695D01*
X149132005Y-82027695D02*
X149179624Y-81932457D01*
X149179624Y-81932457D02*
X149227243Y-81884838D01*
X149227243Y-81884838D02*
X149322481Y-81837219D01*
X150560576Y-81837219D02*
X150084386Y-81837219D01*
X150084386Y-81837219D02*
X150036767Y-82313409D01*
X150036767Y-82313409D02*
X150084386Y-82265790D01*
X150084386Y-82265790D02*
X150179624Y-82218171D01*
X150179624Y-82218171D02*
X150417719Y-82218171D01*
X150417719Y-82218171D02*
X150512957Y-82265790D01*
X150512957Y-82265790D02*
X150560576Y-82313409D01*
X150560576Y-82313409D02*
X150608195Y-82408647D01*
X150608195Y-82408647D02*
X150608195Y-82646742D01*
X150608195Y-82646742D02*
X150560576Y-82741980D01*
X150560576Y-82741980D02*
X150512957Y-82789600D01*
X150512957Y-82789600D02*
X150417719Y-82837219D01*
X150417719Y-82837219D02*
X150179624Y-82837219D01*
X150179624Y-82837219D02*
X150084386Y-82789600D01*
X150084386Y-82789600D02*
X150036767Y-82741980D01*
X147179624Y-84587219D02*
X147179624Y-83587219D01*
X147179624Y-83587219D02*
X147417719Y-83587219D01*
X147417719Y-83587219D02*
X147560576Y-83634838D01*
X147560576Y-83634838D02*
X147655814Y-83730076D01*
X147655814Y-83730076D02*
X147703433Y-83825314D01*
X147703433Y-83825314D02*
X147751052Y-84015790D01*
X147751052Y-84015790D02*
X147751052Y-84158647D01*
X147751052Y-84158647D02*
X147703433Y-84349123D01*
X147703433Y-84349123D02*
X147655814Y-84444361D01*
X147655814Y-84444361D02*
X147560576Y-84539600D01*
X147560576Y-84539600D02*
X147417719Y-84587219D01*
X147417719Y-84587219D02*
X147179624Y-84587219D01*
X148703433Y-84587219D02*
X148132005Y-84587219D01*
X148417719Y-84587219D02*
X148417719Y-83587219D01*
X148417719Y-83587219D02*
X148322481Y-83730076D01*
X148322481Y-83730076D02*
X148227243Y-83825314D01*
X148227243Y-83825314D02*
X148132005Y-83872933D01*
X149322481Y-83587219D02*
X149417719Y-83587219D01*
X149417719Y-83587219D02*
X149512957Y-83634838D01*
X149512957Y-83634838D02*
X149560576Y-83682457D01*
X149560576Y-83682457D02*
X149608195Y-83777695D01*
X149608195Y-83777695D02*
X149655814Y-83968171D01*
X149655814Y-83968171D02*
X149655814Y-84206266D01*
X149655814Y-84206266D02*
X149608195Y-84396742D01*
X149608195Y-84396742D02*
X149560576Y-84491980D01*
X149560576Y-84491980D02*
X149512957Y-84539600D01*
X149512957Y-84539600D02*
X149417719Y-84587219D01*
X149417719Y-84587219D02*
X149322481Y-84587219D01*
X149322481Y-84587219D02*
X149227243Y-84539600D01*
X149227243Y-84539600D02*
X149179624Y-84491980D01*
X149179624Y-84491980D02*
X149132005Y-84396742D01*
X149132005Y-84396742D02*
X149084386Y-84206266D01*
X149084386Y-84206266D02*
X149084386Y-83968171D01*
X149084386Y-83968171D02*
X149132005Y-83777695D01*
X149132005Y-83777695D02*
X149179624Y-83682457D01*
X149179624Y-83682457D02*
X149227243Y-83634838D01*
X149227243Y-83634838D02*
X149322481Y-83587219D01*
X150512957Y-83587219D02*
X150322481Y-83587219D01*
X150322481Y-83587219D02*
X150227243Y-83634838D01*
X150227243Y-83634838D02*
X150179624Y-83682457D01*
X150179624Y-83682457D02*
X150084386Y-83825314D01*
X150084386Y-83825314D02*
X150036767Y-84015790D01*
X150036767Y-84015790D02*
X150036767Y-84396742D01*
X150036767Y-84396742D02*
X150084386Y-84491980D01*
X150084386Y-84491980D02*
X150132005Y-84539600D01*
X150132005Y-84539600D02*
X150227243Y-84587219D01*
X150227243Y-84587219D02*
X150417719Y-84587219D01*
X150417719Y-84587219D02*
X150512957Y-84539600D01*
X150512957Y-84539600D02*
X150560576Y-84491980D01*
X150560576Y-84491980D02*
X150608195Y-84396742D01*
X150608195Y-84396742D02*
X150608195Y-84158647D01*
X150608195Y-84158647D02*
X150560576Y-84063409D01*
X150560576Y-84063409D02*
X150512957Y-84015790D01*
X150512957Y-84015790D02*
X150417719Y-83968171D01*
X150417719Y-83968171D02*
X150227243Y-83968171D01*
X150227243Y-83968171D02*
X150132005Y-84015790D01*
X150132005Y-84015790D02*
X150084386Y-84063409D01*
X150084386Y-84063409D02*
X150036767Y-84158647D01*
X147179624Y-86337219D02*
X147179624Y-85337219D01*
X147179624Y-85337219D02*
X147417719Y-85337219D01*
X147417719Y-85337219D02*
X147560576Y-85384838D01*
X147560576Y-85384838D02*
X147655814Y-85480076D01*
X147655814Y-85480076D02*
X147703433Y-85575314D01*
X147703433Y-85575314D02*
X147751052Y-85765790D01*
X147751052Y-85765790D02*
X147751052Y-85908647D01*
X147751052Y-85908647D02*
X147703433Y-86099123D01*
X147703433Y-86099123D02*
X147655814Y-86194361D01*
X147655814Y-86194361D02*
X147560576Y-86289600D01*
X147560576Y-86289600D02*
X147417719Y-86337219D01*
X147417719Y-86337219D02*
X147179624Y-86337219D01*
X148703433Y-86337219D02*
X148132005Y-86337219D01*
X148417719Y-86337219D02*
X148417719Y-85337219D01*
X148417719Y-85337219D02*
X148322481Y-85480076D01*
X148322481Y-85480076D02*
X148227243Y-85575314D01*
X148227243Y-85575314D02*
X148132005Y-85622933D01*
X149322481Y-85337219D02*
X149417719Y-85337219D01*
X149417719Y-85337219D02*
X149512957Y-85384838D01*
X149512957Y-85384838D02*
X149560576Y-85432457D01*
X149560576Y-85432457D02*
X149608195Y-85527695D01*
X149608195Y-85527695D02*
X149655814Y-85718171D01*
X149655814Y-85718171D02*
X149655814Y-85956266D01*
X149655814Y-85956266D02*
X149608195Y-86146742D01*
X149608195Y-86146742D02*
X149560576Y-86241980D01*
X149560576Y-86241980D02*
X149512957Y-86289600D01*
X149512957Y-86289600D02*
X149417719Y-86337219D01*
X149417719Y-86337219D02*
X149322481Y-86337219D01*
X149322481Y-86337219D02*
X149227243Y-86289600D01*
X149227243Y-86289600D02*
X149179624Y-86241980D01*
X149179624Y-86241980D02*
X149132005Y-86146742D01*
X149132005Y-86146742D02*
X149084386Y-85956266D01*
X149084386Y-85956266D02*
X149084386Y-85718171D01*
X149084386Y-85718171D02*
X149132005Y-85527695D01*
X149132005Y-85527695D02*
X149179624Y-85432457D01*
X149179624Y-85432457D02*
X149227243Y-85384838D01*
X149227243Y-85384838D02*
X149322481Y-85337219D01*
X149989148Y-85337219D02*
X150655814Y-85337219D01*
X150655814Y-85337219D02*
X150227243Y-86337219D01*
X147179624Y-88087219D02*
X147179624Y-87087219D01*
X147179624Y-87087219D02*
X147417719Y-87087219D01*
X147417719Y-87087219D02*
X147560576Y-87134838D01*
X147560576Y-87134838D02*
X147655814Y-87230076D01*
X147655814Y-87230076D02*
X147703433Y-87325314D01*
X147703433Y-87325314D02*
X147751052Y-87515790D01*
X147751052Y-87515790D02*
X147751052Y-87658647D01*
X147751052Y-87658647D02*
X147703433Y-87849123D01*
X147703433Y-87849123D02*
X147655814Y-87944361D01*
X147655814Y-87944361D02*
X147560576Y-88039600D01*
X147560576Y-88039600D02*
X147417719Y-88087219D01*
X147417719Y-88087219D02*
X147179624Y-88087219D01*
X148703433Y-88087219D02*
X148132005Y-88087219D01*
X148417719Y-88087219D02*
X148417719Y-87087219D01*
X148417719Y-87087219D02*
X148322481Y-87230076D01*
X148322481Y-87230076D02*
X148227243Y-87325314D01*
X148227243Y-87325314D02*
X148132005Y-87372933D01*
X149322481Y-87087219D02*
X149417719Y-87087219D01*
X149417719Y-87087219D02*
X149512957Y-87134838D01*
X149512957Y-87134838D02*
X149560576Y-87182457D01*
X149560576Y-87182457D02*
X149608195Y-87277695D01*
X149608195Y-87277695D02*
X149655814Y-87468171D01*
X149655814Y-87468171D02*
X149655814Y-87706266D01*
X149655814Y-87706266D02*
X149608195Y-87896742D01*
X149608195Y-87896742D02*
X149560576Y-87991980D01*
X149560576Y-87991980D02*
X149512957Y-88039600D01*
X149512957Y-88039600D02*
X149417719Y-88087219D01*
X149417719Y-88087219D02*
X149322481Y-88087219D01*
X149322481Y-88087219D02*
X149227243Y-88039600D01*
X149227243Y-88039600D02*
X149179624Y-87991980D01*
X149179624Y-87991980D02*
X149132005Y-87896742D01*
X149132005Y-87896742D02*
X149084386Y-87706266D01*
X149084386Y-87706266D02*
X149084386Y-87468171D01*
X149084386Y-87468171D02*
X149132005Y-87277695D01*
X149132005Y-87277695D02*
X149179624Y-87182457D01*
X149179624Y-87182457D02*
X149227243Y-87134838D01*
X149227243Y-87134838D02*
X149322481Y-87087219D01*
X150227243Y-87515790D02*
X150132005Y-87468171D01*
X150132005Y-87468171D02*
X150084386Y-87420552D01*
X150084386Y-87420552D02*
X150036767Y-87325314D01*
X150036767Y-87325314D02*
X150036767Y-87277695D01*
X150036767Y-87277695D02*
X150084386Y-87182457D01*
X150084386Y-87182457D02*
X150132005Y-87134838D01*
X150132005Y-87134838D02*
X150227243Y-87087219D01*
X150227243Y-87087219D02*
X150417719Y-87087219D01*
X150417719Y-87087219D02*
X150512957Y-87134838D01*
X150512957Y-87134838D02*
X150560576Y-87182457D01*
X150560576Y-87182457D02*
X150608195Y-87277695D01*
X150608195Y-87277695D02*
X150608195Y-87325314D01*
X150608195Y-87325314D02*
X150560576Y-87420552D01*
X150560576Y-87420552D02*
X150512957Y-87468171D01*
X150512957Y-87468171D02*
X150417719Y-87515790D01*
X150417719Y-87515790D02*
X150227243Y-87515790D01*
X150227243Y-87515790D02*
X150132005Y-87563409D01*
X150132005Y-87563409D02*
X150084386Y-87611028D01*
X150084386Y-87611028D02*
X150036767Y-87706266D01*
X150036767Y-87706266D02*
X150036767Y-87896742D01*
X150036767Y-87896742D02*
X150084386Y-87991980D01*
X150084386Y-87991980D02*
X150132005Y-88039600D01*
X150132005Y-88039600D02*
X150227243Y-88087219D01*
X150227243Y-88087219D02*
X150417719Y-88087219D01*
X150417719Y-88087219D02*
X150512957Y-88039600D01*
X150512957Y-88039600D02*
X150560576Y-87991980D01*
X150560576Y-87991980D02*
X150608195Y-87896742D01*
X150608195Y-87896742D02*
X150608195Y-87706266D01*
X150608195Y-87706266D02*
X150560576Y-87611028D01*
X150560576Y-87611028D02*
X150512957Y-87563409D01*
X150512957Y-87563409D02*
X150417719Y-87515790D01*
X147179624Y-89837219D02*
X147179624Y-88837219D01*
X147179624Y-88837219D02*
X147417719Y-88837219D01*
X147417719Y-88837219D02*
X147560576Y-88884838D01*
X147560576Y-88884838D02*
X147655814Y-88980076D01*
X147655814Y-88980076D02*
X147703433Y-89075314D01*
X147703433Y-89075314D02*
X147751052Y-89265790D01*
X147751052Y-89265790D02*
X147751052Y-89408647D01*
X147751052Y-89408647D02*
X147703433Y-89599123D01*
X147703433Y-89599123D02*
X147655814Y-89694361D01*
X147655814Y-89694361D02*
X147560576Y-89789600D01*
X147560576Y-89789600D02*
X147417719Y-89837219D01*
X147417719Y-89837219D02*
X147179624Y-89837219D01*
X148703433Y-89837219D02*
X148132005Y-89837219D01*
X148417719Y-89837219D02*
X148417719Y-88837219D01*
X148417719Y-88837219D02*
X148322481Y-88980076D01*
X148322481Y-88980076D02*
X148227243Y-89075314D01*
X148227243Y-89075314D02*
X148132005Y-89122933D01*
X149322481Y-88837219D02*
X149417719Y-88837219D01*
X149417719Y-88837219D02*
X149512957Y-88884838D01*
X149512957Y-88884838D02*
X149560576Y-88932457D01*
X149560576Y-88932457D02*
X149608195Y-89027695D01*
X149608195Y-89027695D02*
X149655814Y-89218171D01*
X149655814Y-89218171D02*
X149655814Y-89456266D01*
X149655814Y-89456266D02*
X149608195Y-89646742D01*
X149608195Y-89646742D02*
X149560576Y-89741980D01*
X149560576Y-89741980D02*
X149512957Y-89789600D01*
X149512957Y-89789600D02*
X149417719Y-89837219D01*
X149417719Y-89837219D02*
X149322481Y-89837219D01*
X149322481Y-89837219D02*
X149227243Y-89789600D01*
X149227243Y-89789600D02*
X149179624Y-89741980D01*
X149179624Y-89741980D02*
X149132005Y-89646742D01*
X149132005Y-89646742D02*
X149084386Y-89456266D01*
X149084386Y-89456266D02*
X149084386Y-89218171D01*
X149084386Y-89218171D02*
X149132005Y-89027695D01*
X149132005Y-89027695D02*
X149179624Y-88932457D01*
X149179624Y-88932457D02*
X149227243Y-88884838D01*
X149227243Y-88884838D02*
X149322481Y-88837219D01*
X150132005Y-89837219D02*
X150322481Y-89837219D01*
X150322481Y-89837219D02*
X150417719Y-89789600D01*
X150417719Y-89789600D02*
X150465338Y-89741980D01*
X150465338Y-89741980D02*
X150560576Y-89599123D01*
X150560576Y-89599123D02*
X150608195Y-89408647D01*
X150608195Y-89408647D02*
X150608195Y-89027695D01*
X150608195Y-89027695D02*
X150560576Y-88932457D01*
X150560576Y-88932457D02*
X150512957Y-88884838D01*
X150512957Y-88884838D02*
X150417719Y-88837219D01*
X150417719Y-88837219D02*
X150227243Y-88837219D01*
X150227243Y-88837219D02*
X150132005Y-88884838D01*
X150132005Y-88884838D02*
X150084386Y-88932457D01*
X150084386Y-88932457D02*
X150036767Y-89027695D01*
X150036767Y-89027695D02*
X150036767Y-89265790D01*
X150036767Y-89265790D02*
X150084386Y-89361028D01*
X150084386Y-89361028D02*
X150132005Y-89408647D01*
X150132005Y-89408647D02*
X150227243Y-89456266D01*
X150227243Y-89456266D02*
X150417719Y-89456266D01*
X150417719Y-89456266D02*
X150512957Y-89408647D01*
X150512957Y-89408647D02*
X150560576Y-89361028D01*
X150560576Y-89361028D02*
X150608195Y-89265790D01*
X147179624Y-91587219D02*
X147179624Y-90587219D01*
X147179624Y-90587219D02*
X147417719Y-90587219D01*
X147417719Y-90587219D02*
X147560576Y-90634838D01*
X147560576Y-90634838D02*
X147655814Y-90730076D01*
X147655814Y-90730076D02*
X147703433Y-90825314D01*
X147703433Y-90825314D02*
X147751052Y-91015790D01*
X147751052Y-91015790D02*
X147751052Y-91158647D01*
X147751052Y-91158647D02*
X147703433Y-91349123D01*
X147703433Y-91349123D02*
X147655814Y-91444361D01*
X147655814Y-91444361D02*
X147560576Y-91539600D01*
X147560576Y-91539600D02*
X147417719Y-91587219D01*
X147417719Y-91587219D02*
X147179624Y-91587219D01*
X148703433Y-91587219D02*
X148132005Y-91587219D01*
X148417719Y-91587219D02*
X148417719Y-90587219D01*
X148417719Y-90587219D02*
X148322481Y-90730076D01*
X148322481Y-90730076D02*
X148227243Y-90825314D01*
X148227243Y-90825314D02*
X148132005Y-90872933D01*
X149655814Y-91587219D02*
X149084386Y-91587219D01*
X149370100Y-91587219D02*
X149370100Y-90587219D01*
X149370100Y-90587219D02*
X149274862Y-90730076D01*
X149274862Y-90730076D02*
X149179624Y-90825314D01*
X149179624Y-90825314D02*
X149084386Y-90872933D01*
X150274862Y-90587219D02*
X150370100Y-90587219D01*
X150370100Y-90587219D02*
X150465338Y-90634838D01*
X150465338Y-90634838D02*
X150512957Y-90682457D01*
X150512957Y-90682457D02*
X150560576Y-90777695D01*
X150560576Y-90777695D02*
X150608195Y-90968171D01*
X150608195Y-90968171D02*
X150608195Y-91206266D01*
X150608195Y-91206266D02*
X150560576Y-91396742D01*
X150560576Y-91396742D02*
X150512957Y-91491980D01*
X150512957Y-91491980D02*
X150465338Y-91539600D01*
X150465338Y-91539600D02*
X150370100Y-91587219D01*
X150370100Y-91587219D02*
X150274862Y-91587219D01*
X150274862Y-91587219D02*
X150179624Y-91539600D01*
X150179624Y-91539600D02*
X150132005Y-91491980D01*
X150132005Y-91491980D02*
X150084386Y-91396742D01*
X150084386Y-91396742D02*
X150036767Y-91206266D01*
X150036767Y-91206266D02*
X150036767Y-90968171D01*
X150036767Y-90968171D02*
X150084386Y-90777695D01*
X150084386Y-90777695D02*
X150132005Y-90682457D01*
X150132005Y-90682457D02*
X150179624Y-90634838D01*
X150179624Y-90634838D02*
X150274862Y-90587219D01*
X147179624Y-93337219D02*
X147179624Y-92337219D01*
X147179624Y-92337219D02*
X147417719Y-92337219D01*
X147417719Y-92337219D02*
X147560576Y-92384838D01*
X147560576Y-92384838D02*
X147655814Y-92480076D01*
X147655814Y-92480076D02*
X147703433Y-92575314D01*
X147703433Y-92575314D02*
X147751052Y-92765790D01*
X147751052Y-92765790D02*
X147751052Y-92908647D01*
X147751052Y-92908647D02*
X147703433Y-93099123D01*
X147703433Y-93099123D02*
X147655814Y-93194361D01*
X147655814Y-93194361D02*
X147560576Y-93289600D01*
X147560576Y-93289600D02*
X147417719Y-93337219D01*
X147417719Y-93337219D02*
X147179624Y-93337219D01*
X148703433Y-93337219D02*
X148132005Y-93337219D01*
X148417719Y-93337219D02*
X148417719Y-92337219D01*
X148417719Y-92337219D02*
X148322481Y-92480076D01*
X148322481Y-92480076D02*
X148227243Y-92575314D01*
X148227243Y-92575314D02*
X148132005Y-92622933D01*
X149655814Y-93337219D02*
X149084386Y-93337219D01*
X149370100Y-93337219D02*
X149370100Y-92337219D01*
X149370100Y-92337219D02*
X149274862Y-92480076D01*
X149274862Y-92480076D02*
X149179624Y-92575314D01*
X149179624Y-92575314D02*
X149084386Y-92622933D01*
X150608195Y-93337219D02*
X150036767Y-93337219D01*
X150322481Y-93337219D02*
X150322481Y-92337219D01*
X150322481Y-92337219D02*
X150227243Y-92480076D01*
X150227243Y-92480076D02*
X150132005Y-92575314D01*
X150132005Y-92575314D02*
X150036767Y-92622933D01*
X147179624Y-95087219D02*
X147179624Y-94087219D01*
X147179624Y-94087219D02*
X147417719Y-94087219D01*
X147417719Y-94087219D02*
X147560576Y-94134838D01*
X147560576Y-94134838D02*
X147655814Y-94230076D01*
X147655814Y-94230076D02*
X147703433Y-94325314D01*
X147703433Y-94325314D02*
X147751052Y-94515790D01*
X147751052Y-94515790D02*
X147751052Y-94658647D01*
X147751052Y-94658647D02*
X147703433Y-94849123D01*
X147703433Y-94849123D02*
X147655814Y-94944361D01*
X147655814Y-94944361D02*
X147560576Y-95039600D01*
X147560576Y-95039600D02*
X147417719Y-95087219D01*
X147417719Y-95087219D02*
X147179624Y-95087219D01*
X148703433Y-95087219D02*
X148132005Y-95087219D01*
X148417719Y-95087219D02*
X148417719Y-94087219D01*
X148417719Y-94087219D02*
X148322481Y-94230076D01*
X148322481Y-94230076D02*
X148227243Y-94325314D01*
X148227243Y-94325314D02*
X148132005Y-94372933D01*
X149655814Y-95087219D02*
X149084386Y-95087219D01*
X149370100Y-95087219D02*
X149370100Y-94087219D01*
X149370100Y-94087219D02*
X149274862Y-94230076D01*
X149274862Y-94230076D02*
X149179624Y-94325314D01*
X149179624Y-94325314D02*
X149084386Y-94372933D01*
X150036767Y-94182457D02*
X150084386Y-94134838D01*
X150084386Y-94134838D02*
X150179624Y-94087219D01*
X150179624Y-94087219D02*
X150417719Y-94087219D01*
X150417719Y-94087219D02*
X150512957Y-94134838D01*
X150512957Y-94134838D02*
X150560576Y-94182457D01*
X150560576Y-94182457D02*
X150608195Y-94277695D01*
X150608195Y-94277695D02*
X150608195Y-94372933D01*
X150608195Y-94372933D02*
X150560576Y-94515790D01*
X150560576Y-94515790D02*
X149989148Y-95087219D01*
X149989148Y-95087219D02*
X150608195Y-95087219D01*
X147179624Y-96837219D02*
X147179624Y-95837219D01*
X147179624Y-95837219D02*
X147417719Y-95837219D01*
X147417719Y-95837219D02*
X147560576Y-95884838D01*
X147560576Y-95884838D02*
X147655814Y-95980076D01*
X147655814Y-95980076D02*
X147703433Y-96075314D01*
X147703433Y-96075314D02*
X147751052Y-96265790D01*
X147751052Y-96265790D02*
X147751052Y-96408647D01*
X147751052Y-96408647D02*
X147703433Y-96599123D01*
X147703433Y-96599123D02*
X147655814Y-96694361D01*
X147655814Y-96694361D02*
X147560576Y-96789600D01*
X147560576Y-96789600D02*
X147417719Y-96837219D01*
X147417719Y-96837219D02*
X147179624Y-96837219D01*
X148703433Y-96837219D02*
X148132005Y-96837219D01*
X148417719Y-96837219D02*
X148417719Y-95837219D01*
X148417719Y-95837219D02*
X148322481Y-95980076D01*
X148322481Y-95980076D02*
X148227243Y-96075314D01*
X148227243Y-96075314D02*
X148132005Y-96122933D01*
X149655814Y-96837219D02*
X149084386Y-96837219D01*
X149370100Y-96837219D02*
X149370100Y-95837219D01*
X149370100Y-95837219D02*
X149274862Y-95980076D01*
X149274862Y-95980076D02*
X149179624Y-96075314D01*
X149179624Y-96075314D02*
X149084386Y-96122933D01*
X149989148Y-95837219D02*
X150608195Y-95837219D01*
X150608195Y-95837219D02*
X150274862Y-96218171D01*
X150274862Y-96218171D02*
X150417719Y-96218171D01*
X150417719Y-96218171D02*
X150512957Y-96265790D01*
X150512957Y-96265790D02*
X150560576Y-96313409D01*
X150560576Y-96313409D02*
X150608195Y-96408647D01*
X150608195Y-96408647D02*
X150608195Y-96646742D01*
X150608195Y-96646742D02*
X150560576Y-96741980D01*
X150560576Y-96741980D02*
X150512957Y-96789600D01*
X150512957Y-96789600D02*
X150417719Y-96837219D01*
X150417719Y-96837219D02*
X150132005Y-96837219D01*
X150132005Y-96837219D02*
X150036767Y-96789600D01*
X150036767Y-96789600D02*
X149989148Y-96741980D01*
X157251052Y-75837219D02*
X156917719Y-75361028D01*
X156679624Y-75837219D02*
X156679624Y-74837219D01*
X156679624Y-74837219D02*
X157060576Y-74837219D01*
X157060576Y-74837219D02*
X157155814Y-74884838D01*
X157155814Y-74884838D02*
X157203433Y-74932457D01*
X157203433Y-74932457D02*
X157251052Y-75027695D01*
X157251052Y-75027695D02*
X157251052Y-75170552D01*
X157251052Y-75170552D02*
X157203433Y-75265790D01*
X157203433Y-75265790D02*
X157155814Y-75313409D01*
X157155814Y-75313409D02*
X157060576Y-75361028D01*
X157060576Y-75361028D02*
X156679624Y-75361028D01*
X158203433Y-75837219D02*
X157632005Y-75837219D01*
X157917719Y-75837219D02*
X157917719Y-74837219D01*
X157917719Y-74837219D02*
X157822481Y-74980076D01*
X157822481Y-74980076D02*
X157727243Y-75075314D01*
X157727243Y-75075314D02*
X157632005Y-75122933D01*
X158822481Y-74837219D02*
X158917719Y-74837219D01*
X158917719Y-74837219D02*
X159012957Y-74884838D01*
X159012957Y-74884838D02*
X159060576Y-74932457D01*
X159060576Y-74932457D02*
X159108195Y-75027695D01*
X159108195Y-75027695D02*
X159155814Y-75218171D01*
X159155814Y-75218171D02*
X159155814Y-75456266D01*
X159155814Y-75456266D02*
X159108195Y-75646742D01*
X159108195Y-75646742D02*
X159060576Y-75741980D01*
X159060576Y-75741980D02*
X159012957Y-75789600D01*
X159012957Y-75789600D02*
X158917719Y-75837219D01*
X158917719Y-75837219D02*
X158822481Y-75837219D01*
X158822481Y-75837219D02*
X158727243Y-75789600D01*
X158727243Y-75789600D02*
X158679624Y-75741980D01*
X158679624Y-75741980D02*
X158632005Y-75646742D01*
X158632005Y-75646742D02*
X158584386Y-75456266D01*
X158584386Y-75456266D02*
X158584386Y-75218171D01*
X158584386Y-75218171D02*
X158632005Y-75027695D01*
X158632005Y-75027695D02*
X158679624Y-74932457D01*
X158679624Y-74932457D02*
X158727243Y-74884838D01*
X158727243Y-74884838D02*
X158822481Y-74837219D01*
X160060576Y-74837219D02*
X159584386Y-74837219D01*
X159584386Y-74837219D02*
X159536767Y-75313409D01*
X159536767Y-75313409D02*
X159584386Y-75265790D01*
X159584386Y-75265790D02*
X159679624Y-75218171D01*
X159679624Y-75218171D02*
X159917719Y-75218171D01*
X159917719Y-75218171D02*
X160012957Y-75265790D01*
X160012957Y-75265790D02*
X160060576Y-75313409D01*
X160060576Y-75313409D02*
X160108195Y-75408647D01*
X160108195Y-75408647D02*
X160108195Y-75646742D01*
X160108195Y-75646742D02*
X160060576Y-75741980D01*
X160060576Y-75741980D02*
X160012957Y-75789600D01*
X160012957Y-75789600D02*
X159917719Y-75837219D01*
X159917719Y-75837219D02*
X159679624Y-75837219D01*
X159679624Y-75837219D02*
X159584386Y-75789600D01*
X159584386Y-75789600D02*
X159536767Y-75741980D01*
X157251052Y-77587219D02*
X156917719Y-77111028D01*
X156679624Y-77587219D02*
X156679624Y-76587219D01*
X156679624Y-76587219D02*
X157060576Y-76587219D01*
X157060576Y-76587219D02*
X157155814Y-76634838D01*
X157155814Y-76634838D02*
X157203433Y-76682457D01*
X157203433Y-76682457D02*
X157251052Y-76777695D01*
X157251052Y-76777695D02*
X157251052Y-76920552D01*
X157251052Y-76920552D02*
X157203433Y-77015790D01*
X157203433Y-77015790D02*
X157155814Y-77063409D01*
X157155814Y-77063409D02*
X157060576Y-77111028D01*
X157060576Y-77111028D02*
X156679624Y-77111028D01*
X158203433Y-77587219D02*
X157632005Y-77587219D01*
X157917719Y-77587219D02*
X157917719Y-76587219D01*
X157917719Y-76587219D02*
X157822481Y-76730076D01*
X157822481Y-76730076D02*
X157727243Y-76825314D01*
X157727243Y-76825314D02*
X157632005Y-76872933D01*
X158822481Y-76587219D02*
X158917719Y-76587219D01*
X158917719Y-76587219D02*
X159012957Y-76634838D01*
X159012957Y-76634838D02*
X159060576Y-76682457D01*
X159060576Y-76682457D02*
X159108195Y-76777695D01*
X159108195Y-76777695D02*
X159155814Y-76968171D01*
X159155814Y-76968171D02*
X159155814Y-77206266D01*
X159155814Y-77206266D02*
X159108195Y-77396742D01*
X159108195Y-77396742D02*
X159060576Y-77491980D01*
X159060576Y-77491980D02*
X159012957Y-77539600D01*
X159012957Y-77539600D02*
X158917719Y-77587219D01*
X158917719Y-77587219D02*
X158822481Y-77587219D01*
X158822481Y-77587219D02*
X158727243Y-77539600D01*
X158727243Y-77539600D02*
X158679624Y-77491980D01*
X158679624Y-77491980D02*
X158632005Y-77396742D01*
X158632005Y-77396742D02*
X158584386Y-77206266D01*
X158584386Y-77206266D02*
X158584386Y-76968171D01*
X158584386Y-76968171D02*
X158632005Y-76777695D01*
X158632005Y-76777695D02*
X158679624Y-76682457D01*
X158679624Y-76682457D02*
X158727243Y-76634838D01*
X158727243Y-76634838D02*
X158822481Y-76587219D01*
X160012957Y-76587219D02*
X159822481Y-76587219D01*
X159822481Y-76587219D02*
X159727243Y-76634838D01*
X159727243Y-76634838D02*
X159679624Y-76682457D01*
X159679624Y-76682457D02*
X159584386Y-76825314D01*
X159584386Y-76825314D02*
X159536767Y-77015790D01*
X159536767Y-77015790D02*
X159536767Y-77396742D01*
X159536767Y-77396742D02*
X159584386Y-77491980D01*
X159584386Y-77491980D02*
X159632005Y-77539600D01*
X159632005Y-77539600D02*
X159727243Y-77587219D01*
X159727243Y-77587219D02*
X159917719Y-77587219D01*
X159917719Y-77587219D02*
X160012957Y-77539600D01*
X160012957Y-77539600D02*
X160060576Y-77491980D01*
X160060576Y-77491980D02*
X160108195Y-77396742D01*
X160108195Y-77396742D02*
X160108195Y-77158647D01*
X160108195Y-77158647D02*
X160060576Y-77063409D01*
X160060576Y-77063409D02*
X160012957Y-77015790D01*
X160012957Y-77015790D02*
X159917719Y-76968171D01*
X159917719Y-76968171D02*
X159727243Y-76968171D01*
X159727243Y-76968171D02*
X159632005Y-77015790D01*
X159632005Y-77015790D02*
X159584386Y-77063409D01*
X159584386Y-77063409D02*
X159536767Y-77158647D01*
X157251052Y-79337219D02*
X156917719Y-78861028D01*
X156679624Y-79337219D02*
X156679624Y-78337219D01*
X156679624Y-78337219D02*
X157060576Y-78337219D01*
X157060576Y-78337219D02*
X157155814Y-78384838D01*
X157155814Y-78384838D02*
X157203433Y-78432457D01*
X157203433Y-78432457D02*
X157251052Y-78527695D01*
X157251052Y-78527695D02*
X157251052Y-78670552D01*
X157251052Y-78670552D02*
X157203433Y-78765790D01*
X157203433Y-78765790D02*
X157155814Y-78813409D01*
X157155814Y-78813409D02*
X157060576Y-78861028D01*
X157060576Y-78861028D02*
X156679624Y-78861028D01*
X158203433Y-79337219D02*
X157632005Y-79337219D01*
X157917719Y-79337219D02*
X157917719Y-78337219D01*
X157917719Y-78337219D02*
X157822481Y-78480076D01*
X157822481Y-78480076D02*
X157727243Y-78575314D01*
X157727243Y-78575314D02*
X157632005Y-78622933D01*
X158822481Y-78337219D02*
X158917719Y-78337219D01*
X158917719Y-78337219D02*
X159012957Y-78384838D01*
X159012957Y-78384838D02*
X159060576Y-78432457D01*
X159060576Y-78432457D02*
X159108195Y-78527695D01*
X159108195Y-78527695D02*
X159155814Y-78718171D01*
X159155814Y-78718171D02*
X159155814Y-78956266D01*
X159155814Y-78956266D02*
X159108195Y-79146742D01*
X159108195Y-79146742D02*
X159060576Y-79241980D01*
X159060576Y-79241980D02*
X159012957Y-79289600D01*
X159012957Y-79289600D02*
X158917719Y-79337219D01*
X158917719Y-79337219D02*
X158822481Y-79337219D01*
X158822481Y-79337219D02*
X158727243Y-79289600D01*
X158727243Y-79289600D02*
X158679624Y-79241980D01*
X158679624Y-79241980D02*
X158632005Y-79146742D01*
X158632005Y-79146742D02*
X158584386Y-78956266D01*
X158584386Y-78956266D02*
X158584386Y-78718171D01*
X158584386Y-78718171D02*
X158632005Y-78527695D01*
X158632005Y-78527695D02*
X158679624Y-78432457D01*
X158679624Y-78432457D02*
X158727243Y-78384838D01*
X158727243Y-78384838D02*
X158822481Y-78337219D01*
X159489148Y-78337219D02*
X160155814Y-78337219D01*
X160155814Y-78337219D02*
X159727243Y-79337219D01*
X157251052Y-81087219D02*
X156917719Y-80611028D01*
X156679624Y-81087219D02*
X156679624Y-80087219D01*
X156679624Y-80087219D02*
X157060576Y-80087219D01*
X157060576Y-80087219D02*
X157155814Y-80134838D01*
X157155814Y-80134838D02*
X157203433Y-80182457D01*
X157203433Y-80182457D02*
X157251052Y-80277695D01*
X157251052Y-80277695D02*
X157251052Y-80420552D01*
X157251052Y-80420552D02*
X157203433Y-80515790D01*
X157203433Y-80515790D02*
X157155814Y-80563409D01*
X157155814Y-80563409D02*
X157060576Y-80611028D01*
X157060576Y-80611028D02*
X156679624Y-80611028D01*
X158203433Y-81087219D02*
X157632005Y-81087219D01*
X157917719Y-81087219D02*
X157917719Y-80087219D01*
X157917719Y-80087219D02*
X157822481Y-80230076D01*
X157822481Y-80230076D02*
X157727243Y-80325314D01*
X157727243Y-80325314D02*
X157632005Y-80372933D01*
X158822481Y-80087219D02*
X158917719Y-80087219D01*
X158917719Y-80087219D02*
X159012957Y-80134838D01*
X159012957Y-80134838D02*
X159060576Y-80182457D01*
X159060576Y-80182457D02*
X159108195Y-80277695D01*
X159108195Y-80277695D02*
X159155814Y-80468171D01*
X159155814Y-80468171D02*
X159155814Y-80706266D01*
X159155814Y-80706266D02*
X159108195Y-80896742D01*
X159108195Y-80896742D02*
X159060576Y-80991980D01*
X159060576Y-80991980D02*
X159012957Y-81039600D01*
X159012957Y-81039600D02*
X158917719Y-81087219D01*
X158917719Y-81087219D02*
X158822481Y-81087219D01*
X158822481Y-81087219D02*
X158727243Y-81039600D01*
X158727243Y-81039600D02*
X158679624Y-80991980D01*
X158679624Y-80991980D02*
X158632005Y-80896742D01*
X158632005Y-80896742D02*
X158584386Y-80706266D01*
X158584386Y-80706266D02*
X158584386Y-80468171D01*
X158584386Y-80468171D02*
X158632005Y-80277695D01*
X158632005Y-80277695D02*
X158679624Y-80182457D01*
X158679624Y-80182457D02*
X158727243Y-80134838D01*
X158727243Y-80134838D02*
X158822481Y-80087219D01*
X159727243Y-80515790D02*
X159632005Y-80468171D01*
X159632005Y-80468171D02*
X159584386Y-80420552D01*
X159584386Y-80420552D02*
X159536767Y-80325314D01*
X159536767Y-80325314D02*
X159536767Y-80277695D01*
X159536767Y-80277695D02*
X159584386Y-80182457D01*
X159584386Y-80182457D02*
X159632005Y-80134838D01*
X159632005Y-80134838D02*
X159727243Y-80087219D01*
X159727243Y-80087219D02*
X159917719Y-80087219D01*
X159917719Y-80087219D02*
X160012957Y-80134838D01*
X160012957Y-80134838D02*
X160060576Y-80182457D01*
X160060576Y-80182457D02*
X160108195Y-80277695D01*
X160108195Y-80277695D02*
X160108195Y-80325314D01*
X160108195Y-80325314D02*
X160060576Y-80420552D01*
X160060576Y-80420552D02*
X160012957Y-80468171D01*
X160012957Y-80468171D02*
X159917719Y-80515790D01*
X159917719Y-80515790D02*
X159727243Y-80515790D01*
X159727243Y-80515790D02*
X159632005Y-80563409D01*
X159632005Y-80563409D02*
X159584386Y-80611028D01*
X159584386Y-80611028D02*
X159536767Y-80706266D01*
X159536767Y-80706266D02*
X159536767Y-80896742D01*
X159536767Y-80896742D02*
X159584386Y-80991980D01*
X159584386Y-80991980D02*
X159632005Y-81039600D01*
X159632005Y-81039600D02*
X159727243Y-81087219D01*
X159727243Y-81087219D02*
X159917719Y-81087219D01*
X159917719Y-81087219D02*
X160012957Y-81039600D01*
X160012957Y-81039600D02*
X160060576Y-80991980D01*
X160060576Y-80991980D02*
X160108195Y-80896742D01*
X160108195Y-80896742D02*
X160108195Y-80706266D01*
X160108195Y-80706266D02*
X160060576Y-80611028D01*
X160060576Y-80611028D02*
X160012957Y-80563409D01*
X160012957Y-80563409D02*
X159917719Y-80515790D01*
X157251052Y-82837219D02*
X156917719Y-82361028D01*
X156679624Y-82837219D02*
X156679624Y-81837219D01*
X156679624Y-81837219D02*
X157060576Y-81837219D01*
X157060576Y-81837219D02*
X157155814Y-81884838D01*
X157155814Y-81884838D02*
X157203433Y-81932457D01*
X157203433Y-81932457D02*
X157251052Y-82027695D01*
X157251052Y-82027695D02*
X157251052Y-82170552D01*
X157251052Y-82170552D02*
X157203433Y-82265790D01*
X157203433Y-82265790D02*
X157155814Y-82313409D01*
X157155814Y-82313409D02*
X157060576Y-82361028D01*
X157060576Y-82361028D02*
X156679624Y-82361028D01*
X158203433Y-82837219D02*
X157632005Y-82837219D01*
X157917719Y-82837219D02*
X157917719Y-81837219D01*
X157917719Y-81837219D02*
X157822481Y-81980076D01*
X157822481Y-81980076D02*
X157727243Y-82075314D01*
X157727243Y-82075314D02*
X157632005Y-82122933D01*
X158822481Y-81837219D02*
X158917719Y-81837219D01*
X158917719Y-81837219D02*
X159012957Y-81884838D01*
X159012957Y-81884838D02*
X159060576Y-81932457D01*
X159060576Y-81932457D02*
X159108195Y-82027695D01*
X159108195Y-82027695D02*
X159155814Y-82218171D01*
X159155814Y-82218171D02*
X159155814Y-82456266D01*
X159155814Y-82456266D02*
X159108195Y-82646742D01*
X159108195Y-82646742D02*
X159060576Y-82741980D01*
X159060576Y-82741980D02*
X159012957Y-82789600D01*
X159012957Y-82789600D02*
X158917719Y-82837219D01*
X158917719Y-82837219D02*
X158822481Y-82837219D01*
X158822481Y-82837219D02*
X158727243Y-82789600D01*
X158727243Y-82789600D02*
X158679624Y-82741980D01*
X158679624Y-82741980D02*
X158632005Y-82646742D01*
X158632005Y-82646742D02*
X158584386Y-82456266D01*
X158584386Y-82456266D02*
X158584386Y-82218171D01*
X158584386Y-82218171D02*
X158632005Y-82027695D01*
X158632005Y-82027695D02*
X158679624Y-81932457D01*
X158679624Y-81932457D02*
X158727243Y-81884838D01*
X158727243Y-81884838D02*
X158822481Y-81837219D01*
X159632005Y-82837219D02*
X159822481Y-82837219D01*
X159822481Y-82837219D02*
X159917719Y-82789600D01*
X159917719Y-82789600D02*
X159965338Y-82741980D01*
X159965338Y-82741980D02*
X160060576Y-82599123D01*
X160060576Y-82599123D02*
X160108195Y-82408647D01*
X160108195Y-82408647D02*
X160108195Y-82027695D01*
X160108195Y-82027695D02*
X160060576Y-81932457D01*
X160060576Y-81932457D02*
X160012957Y-81884838D01*
X160012957Y-81884838D02*
X159917719Y-81837219D01*
X159917719Y-81837219D02*
X159727243Y-81837219D01*
X159727243Y-81837219D02*
X159632005Y-81884838D01*
X159632005Y-81884838D02*
X159584386Y-81932457D01*
X159584386Y-81932457D02*
X159536767Y-82027695D01*
X159536767Y-82027695D02*
X159536767Y-82265790D01*
X159536767Y-82265790D02*
X159584386Y-82361028D01*
X159584386Y-82361028D02*
X159632005Y-82408647D01*
X159632005Y-82408647D02*
X159727243Y-82456266D01*
X159727243Y-82456266D02*
X159917719Y-82456266D01*
X159917719Y-82456266D02*
X160012957Y-82408647D01*
X160012957Y-82408647D02*
X160060576Y-82361028D01*
X160060576Y-82361028D02*
X160108195Y-82265790D01*
X157251052Y-84587219D02*
X156917719Y-84111028D01*
X156679624Y-84587219D02*
X156679624Y-83587219D01*
X156679624Y-83587219D02*
X157060576Y-83587219D01*
X157060576Y-83587219D02*
X157155814Y-83634838D01*
X157155814Y-83634838D02*
X157203433Y-83682457D01*
X157203433Y-83682457D02*
X157251052Y-83777695D01*
X157251052Y-83777695D02*
X157251052Y-83920552D01*
X157251052Y-83920552D02*
X157203433Y-84015790D01*
X157203433Y-84015790D02*
X157155814Y-84063409D01*
X157155814Y-84063409D02*
X157060576Y-84111028D01*
X157060576Y-84111028D02*
X156679624Y-84111028D01*
X158203433Y-84587219D02*
X157632005Y-84587219D01*
X157917719Y-84587219D02*
X157917719Y-83587219D01*
X157917719Y-83587219D02*
X157822481Y-83730076D01*
X157822481Y-83730076D02*
X157727243Y-83825314D01*
X157727243Y-83825314D02*
X157632005Y-83872933D01*
X159155814Y-84587219D02*
X158584386Y-84587219D01*
X158870100Y-84587219D02*
X158870100Y-83587219D01*
X158870100Y-83587219D02*
X158774862Y-83730076D01*
X158774862Y-83730076D02*
X158679624Y-83825314D01*
X158679624Y-83825314D02*
X158584386Y-83872933D01*
X159774862Y-83587219D02*
X159870100Y-83587219D01*
X159870100Y-83587219D02*
X159965338Y-83634838D01*
X159965338Y-83634838D02*
X160012957Y-83682457D01*
X160012957Y-83682457D02*
X160060576Y-83777695D01*
X160060576Y-83777695D02*
X160108195Y-83968171D01*
X160108195Y-83968171D02*
X160108195Y-84206266D01*
X160108195Y-84206266D02*
X160060576Y-84396742D01*
X160060576Y-84396742D02*
X160012957Y-84491980D01*
X160012957Y-84491980D02*
X159965338Y-84539600D01*
X159965338Y-84539600D02*
X159870100Y-84587219D01*
X159870100Y-84587219D02*
X159774862Y-84587219D01*
X159774862Y-84587219D02*
X159679624Y-84539600D01*
X159679624Y-84539600D02*
X159632005Y-84491980D01*
X159632005Y-84491980D02*
X159584386Y-84396742D01*
X159584386Y-84396742D02*
X159536767Y-84206266D01*
X159536767Y-84206266D02*
X159536767Y-83968171D01*
X159536767Y-83968171D02*
X159584386Y-83777695D01*
X159584386Y-83777695D02*
X159632005Y-83682457D01*
X159632005Y-83682457D02*
X159679624Y-83634838D01*
X159679624Y-83634838D02*
X159774862Y-83587219D01*
X157251052Y-86337219D02*
X156917719Y-85861028D01*
X156679624Y-86337219D02*
X156679624Y-85337219D01*
X156679624Y-85337219D02*
X157060576Y-85337219D01*
X157060576Y-85337219D02*
X157155814Y-85384838D01*
X157155814Y-85384838D02*
X157203433Y-85432457D01*
X157203433Y-85432457D02*
X157251052Y-85527695D01*
X157251052Y-85527695D02*
X157251052Y-85670552D01*
X157251052Y-85670552D02*
X157203433Y-85765790D01*
X157203433Y-85765790D02*
X157155814Y-85813409D01*
X157155814Y-85813409D02*
X157060576Y-85861028D01*
X157060576Y-85861028D02*
X156679624Y-85861028D01*
X158203433Y-86337219D02*
X157632005Y-86337219D01*
X157917719Y-86337219D02*
X157917719Y-85337219D01*
X157917719Y-85337219D02*
X157822481Y-85480076D01*
X157822481Y-85480076D02*
X157727243Y-85575314D01*
X157727243Y-85575314D02*
X157632005Y-85622933D01*
X159155814Y-86337219D02*
X158584386Y-86337219D01*
X158870100Y-86337219D02*
X158870100Y-85337219D01*
X158870100Y-85337219D02*
X158774862Y-85480076D01*
X158774862Y-85480076D02*
X158679624Y-85575314D01*
X158679624Y-85575314D02*
X158584386Y-85622933D01*
X160108195Y-86337219D02*
X159536767Y-86337219D01*
X159822481Y-86337219D02*
X159822481Y-85337219D01*
X159822481Y-85337219D02*
X159727243Y-85480076D01*
X159727243Y-85480076D02*
X159632005Y-85575314D01*
X159632005Y-85575314D02*
X159536767Y-85622933D01*
X157251052Y-88087219D02*
X156917719Y-87611028D01*
X156679624Y-88087219D02*
X156679624Y-87087219D01*
X156679624Y-87087219D02*
X157060576Y-87087219D01*
X157060576Y-87087219D02*
X157155814Y-87134838D01*
X157155814Y-87134838D02*
X157203433Y-87182457D01*
X157203433Y-87182457D02*
X157251052Y-87277695D01*
X157251052Y-87277695D02*
X157251052Y-87420552D01*
X157251052Y-87420552D02*
X157203433Y-87515790D01*
X157203433Y-87515790D02*
X157155814Y-87563409D01*
X157155814Y-87563409D02*
X157060576Y-87611028D01*
X157060576Y-87611028D02*
X156679624Y-87611028D01*
X158203433Y-88087219D02*
X157632005Y-88087219D01*
X157917719Y-88087219D02*
X157917719Y-87087219D01*
X157917719Y-87087219D02*
X157822481Y-87230076D01*
X157822481Y-87230076D02*
X157727243Y-87325314D01*
X157727243Y-87325314D02*
X157632005Y-87372933D01*
X159155814Y-88087219D02*
X158584386Y-88087219D01*
X158870100Y-88087219D02*
X158870100Y-87087219D01*
X158870100Y-87087219D02*
X158774862Y-87230076D01*
X158774862Y-87230076D02*
X158679624Y-87325314D01*
X158679624Y-87325314D02*
X158584386Y-87372933D01*
X159536767Y-87182457D02*
X159584386Y-87134838D01*
X159584386Y-87134838D02*
X159679624Y-87087219D01*
X159679624Y-87087219D02*
X159917719Y-87087219D01*
X159917719Y-87087219D02*
X160012957Y-87134838D01*
X160012957Y-87134838D02*
X160060576Y-87182457D01*
X160060576Y-87182457D02*
X160108195Y-87277695D01*
X160108195Y-87277695D02*
X160108195Y-87372933D01*
X160108195Y-87372933D02*
X160060576Y-87515790D01*
X160060576Y-87515790D02*
X159489148Y-88087219D01*
X159489148Y-88087219D02*
X160108195Y-88087219D01*
X157251052Y-89837219D02*
X156917719Y-89361028D01*
X156679624Y-89837219D02*
X156679624Y-88837219D01*
X156679624Y-88837219D02*
X157060576Y-88837219D01*
X157060576Y-88837219D02*
X157155814Y-88884838D01*
X157155814Y-88884838D02*
X157203433Y-88932457D01*
X157203433Y-88932457D02*
X157251052Y-89027695D01*
X157251052Y-89027695D02*
X157251052Y-89170552D01*
X157251052Y-89170552D02*
X157203433Y-89265790D01*
X157203433Y-89265790D02*
X157155814Y-89313409D01*
X157155814Y-89313409D02*
X157060576Y-89361028D01*
X157060576Y-89361028D02*
X156679624Y-89361028D01*
X158203433Y-89837219D02*
X157632005Y-89837219D01*
X157917719Y-89837219D02*
X157917719Y-88837219D01*
X157917719Y-88837219D02*
X157822481Y-88980076D01*
X157822481Y-88980076D02*
X157727243Y-89075314D01*
X157727243Y-89075314D02*
X157632005Y-89122933D01*
X159155814Y-89837219D02*
X158584386Y-89837219D01*
X158870100Y-89837219D02*
X158870100Y-88837219D01*
X158870100Y-88837219D02*
X158774862Y-88980076D01*
X158774862Y-88980076D02*
X158679624Y-89075314D01*
X158679624Y-89075314D02*
X158584386Y-89122933D01*
X159489148Y-88837219D02*
X160108195Y-88837219D01*
X160108195Y-88837219D02*
X159774862Y-89218171D01*
X159774862Y-89218171D02*
X159917719Y-89218171D01*
X159917719Y-89218171D02*
X160012957Y-89265790D01*
X160012957Y-89265790D02*
X160060576Y-89313409D01*
X160060576Y-89313409D02*
X160108195Y-89408647D01*
X160108195Y-89408647D02*
X160108195Y-89646742D01*
X160108195Y-89646742D02*
X160060576Y-89741980D01*
X160060576Y-89741980D02*
X160012957Y-89789600D01*
X160012957Y-89789600D02*
X159917719Y-89837219D01*
X159917719Y-89837219D02*
X159632005Y-89837219D01*
X159632005Y-89837219D02*
X159536767Y-89789600D01*
X159536767Y-89789600D02*
X159489148Y-89741980D01*
X157251052Y-91587219D02*
X156917719Y-91111028D01*
X156679624Y-91587219D02*
X156679624Y-90587219D01*
X156679624Y-90587219D02*
X157060576Y-90587219D01*
X157060576Y-90587219D02*
X157155814Y-90634838D01*
X157155814Y-90634838D02*
X157203433Y-90682457D01*
X157203433Y-90682457D02*
X157251052Y-90777695D01*
X157251052Y-90777695D02*
X157251052Y-90920552D01*
X157251052Y-90920552D02*
X157203433Y-91015790D01*
X157203433Y-91015790D02*
X157155814Y-91063409D01*
X157155814Y-91063409D02*
X157060576Y-91111028D01*
X157060576Y-91111028D02*
X156679624Y-91111028D01*
X158203433Y-91587219D02*
X157632005Y-91587219D01*
X157917719Y-91587219D02*
X157917719Y-90587219D01*
X157917719Y-90587219D02*
X157822481Y-90730076D01*
X157822481Y-90730076D02*
X157727243Y-90825314D01*
X157727243Y-90825314D02*
X157632005Y-90872933D01*
X159155814Y-91587219D02*
X158584386Y-91587219D01*
X158870100Y-91587219D02*
X158870100Y-90587219D01*
X158870100Y-90587219D02*
X158774862Y-90730076D01*
X158774862Y-90730076D02*
X158679624Y-90825314D01*
X158679624Y-90825314D02*
X158584386Y-90872933D01*
X160012957Y-90920552D02*
X160012957Y-91587219D01*
X159774862Y-90539600D02*
X159536767Y-91253885D01*
X159536767Y-91253885D02*
X160155814Y-91253885D01*
X157251052Y-93337219D02*
X156917719Y-92861028D01*
X156679624Y-93337219D02*
X156679624Y-92337219D01*
X156679624Y-92337219D02*
X157060576Y-92337219D01*
X157060576Y-92337219D02*
X157155814Y-92384838D01*
X157155814Y-92384838D02*
X157203433Y-92432457D01*
X157203433Y-92432457D02*
X157251052Y-92527695D01*
X157251052Y-92527695D02*
X157251052Y-92670552D01*
X157251052Y-92670552D02*
X157203433Y-92765790D01*
X157203433Y-92765790D02*
X157155814Y-92813409D01*
X157155814Y-92813409D02*
X157060576Y-92861028D01*
X157060576Y-92861028D02*
X156679624Y-92861028D01*
X158203433Y-93337219D02*
X157632005Y-93337219D01*
X157917719Y-93337219D02*
X157917719Y-92337219D01*
X157917719Y-92337219D02*
X157822481Y-92480076D01*
X157822481Y-92480076D02*
X157727243Y-92575314D01*
X157727243Y-92575314D02*
X157632005Y-92622933D01*
X159155814Y-93337219D02*
X158584386Y-93337219D01*
X158870100Y-93337219D02*
X158870100Y-92337219D01*
X158870100Y-92337219D02*
X158774862Y-92480076D01*
X158774862Y-92480076D02*
X158679624Y-92575314D01*
X158679624Y-92575314D02*
X158584386Y-92622933D01*
X160060576Y-92337219D02*
X159584386Y-92337219D01*
X159584386Y-92337219D02*
X159536767Y-92813409D01*
X159536767Y-92813409D02*
X159584386Y-92765790D01*
X159584386Y-92765790D02*
X159679624Y-92718171D01*
X159679624Y-92718171D02*
X159917719Y-92718171D01*
X159917719Y-92718171D02*
X160012957Y-92765790D01*
X160012957Y-92765790D02*
X160060576Y-92813409D01*
X160060576Y-92813409D02*
X160108195Y-92908647D01*
X160108195Y-92908647D02*
X160108195Y-93146742D01*
X160108195Y-93146742D02*
X160060576Y-93241980D01*
X160060576Y-93241980D02*
X160012957Y-93289600D01*
X160012957Y-93289600D02*
X159917719Y-93337219D01*
X159917719Y-93337219D02*
X159679624Y-93337219D01*
X159679624Y-93337219D02*
X159584386Y-93289600D01*
X159584386Y-93289600D02*
X159536767Y-93241980D01*
X157251052Y-95087219D02*
X156917719Y-94611028D01*
X156679624Y-95087219D02*
X156679624Y-94087219D01*
X156679624Y-94087219D02*
X157060576Y-94087219D01*
X157060576Y-94087219D02*
X157155814Y-94134838D01*
X157155814Y-94134838D02*
X157203433Y-94182457D01*
X157203433Y-94182457D02*
X157251052Y-94277695D01*
X157251052Y-94277695D02*
X157251052Y-94420552D01*
X157251052Y-94420552D02*
X157203433Y-94515790D01*
X157203433Y-94515790D02*
X157155814Y-94563409D01*
X157155814Y-94563409D02*
X157060576Y-94611028D01*
X157060576Y-94611028D02*
X156679624Y-94611028D01*
X158203433Y-95087219D02*
X157632005Y-95087219D01*
X157917719Y-95087219D02*
X157917719Y-94087219D01*
X157917719Y-94087219D02*
X157822481Y-94230076D01*
X157822481Y-94230076D02*
X157727243Y-94325314D01*
X157727243Y-94325314D02*
X157632005Y-94372933D01*
X159155814Y-95087219D02*
X158584386Y-95087219D01*
X158870100Y-95087219D02*
X158870100Y-94087219D01*
X158870100Y-94087219D02*
X158774862Y-94230076D01*
X158774862Y-94230076D02*
X158679624Y-94325314D01*
X158679624Y-94325314D02*
X158584386Y-94372933D01*
X160012957Y-94087219D02*
X159822481Y-94087219D01*
X159822481Y-94087219D02*
X159727243Y-94134838D01*
X159727243Y-94134838D02*
X159679624Y-94182457D01*
X159679624Y-94182457D02*
X159584386Y-94325314D01*
X159584386Y-94325314D02*
X159536767Y-94515790D01*
X159536767Y-94515790D02*
X159536767Y-94896742D01*
X159536767Y-94896742D02*
X159584386Y-94991980D01*
X159584386Y-94991980D02*
X159632005Y-95039600D01*
X159632005Y-95039600D02*
X159727243Y-95087219D01*
X159727243Y-95087219D02*
X159917719Y-95087219D01*
X159917719Y-95087219D02*
X160012957Y-95039600D01*
X160012957Y-95039600D02*
X160060576Y-94991980D01*
X160060576Y-94991980D02*
X160108195Y-94896742D01*
X160108195Y-94896742D02*
X160108195Y-94658647D01*
X160108195Y-94658647D02*
X160060576Y-94563409D01*
X160060576Y-94563409D02*
X160012957Y-94515790D01*
X160012957Y-94515790D02*
X159917719Y-94468171D01*
X159917719Y-94468171D02*
X159727243Y-94468171D01*
X159727243Y-94468171D02*
X159632005Y-94515790D01*
X159632005Y-94515790D02*
X159584386Y-94563409D01*
X159584386Y-94563409D02*
X159536767Y-94658647D01*
X157251052Y-96837219D02*
X156917719Y-96361028D01*
X156679624Y-96837219D02*
X156679624Y-95837219D01*
X156679624Y-95837219D02*
X157060576Y-95837219D01*
X157060576Y-95837219D02*
X157155814Y-95884838D01*
X157155814Y-95884838D02*
X157203433Y-95932457D01*
X157203433Y-95932457D02*
X157251052Y-96027695D01*
X157251052Y-96027695D02*
X157251052Y-96170552D01*
X157251052Y-96170552D02*
X157203433Y-96265790D01*
X157203433Y-96265790D02*
X157155814Y-96313409D01*
X157155814Y-96313409D02*
X157060576Y-96361028D01*
X157060576Y-96361028D02*
X156679624Y-96361028D01*
X158203433Y-96837219D02*
X157632005Y-96837219D01*
X157917719Y-96837219D02*
X157917719Y-95837219D01*
X157917719Y-95837219D02*
X157822481Y-95980076D01*
X157822481Y-95980076D02*
X157727243Y-96075314D01*
X157727243Y-96075314D02*
X157632005Y-96122933D01*
X159155814Y-96837219D02*
X158584386Y-96837219D01*
X158870100Y-96837219D02*
X158870100Y-95837219D01*
X158870100Y-95837219D02*
X158774862Y-95980076D01*
X158774862Y-95980076D02*
X158679624Y-96075314D01*
X158679624Y-96075314D02*
X158584386Y-96122933D01*
X159489148Y-95837219D02*
X160155814Y-95837219D01*
X160155814Y-95837219D02*
X159727243Y-96837219D01*
X135251052Y-89637219D02*
X134917719Y-89161028D01*
X134679624Y-89637219D02*
X134679624Y-88637219D01*
X134679624Y-88637219D02*
X135060576Y-88637219D01*
X135060576Y-88637219D02*
X135155814Y-88684838D01*
X135155814Y-88684838D02*
X135203433Y-88732457D01*
X135203433Y-88732457D02*
X135251052Y-88827695D01*
X135251052Y-88827695D02*
X135251052Y-88970552D01*
X135251052Y-88970552D02*
X135203433Y-89065790D01*
X135203433Y-89065790D02*
X135155814Y-89113409D01*
X135155814Y-89113409D02*
X135060576Y-89161028D01*
X135060576Y-89161028D02*
X134679624Y-89161028D01*
X136203433Y-89637219D02*
X135632005Y-89637219D01*
X135917719Y-89637219D02*
X135917719Y-88637219D01*
X135917719Y-88637219D02*
X135822481Y-88780076D01*
X135822481Y-88780076D02*
X135727243Y-88875314D01*
X135727243Y-88875314D02*
X135632005Y-88922933D01*
X136822481Y-88637219D02*
X136917719Y-88637219D01*
X136917719Y-88637219D02*
X137012957Y-88684838D01*
X137012957Y-88684838D02*
X137060576Y-88732457D01*
X137060576Y-88732457D02*
X137108195Y-88827695D01*
X137108195Y-88827695D02*
X137155814Y-89018171D01*
X137155814Y-89018171D02*
X137155814Y-89256266D01*
X137155814Y-89256266D02*
X137108195Y-89446742D01*
X137108195Y-89446742D02*
X137060576Y-89541980D01*
X137060576Y-89541980D02*
X137012957Y-89589600D01*
X137012957Y-89589600D02*
X136917719Y-89637219D01*
X136917719Y-89637219D02*
X136822481Y-89637219D01*
X136822481Y-89637219D02*
X136727243Y-89589600D01*
X136727243Y-89589600D02*
X136679624Y-89541980D01*
X136679624Y-89541980D02*
X136632005Y-89446742D01*
X136632005Y-89446742D02*
X136584386Y-89256266D01*
X136584386Y-89256266D02*
X136584386Y-89018171D01*
X136584386Y-89018171D02*
X136632005Y-88827695D01*
X136632005Y-88827695D02*
X136679624Y-88732457D01*
X136679624Y-88732457D02*
X136727243Y-88684838D01*
X136727243Y-88684838D02*
X136822481Y-88637219D01*
X137489148Y-88637219D02*
X138108195Y-88637219D01*
X138108195Y-88637219D02*
X137774862Y-89018171D01*
X137774862Y-89018171D02*
X137917719Y-89018171D01*
X137917719Y-89018171D02*
X138012957Y-89065790D01*
X138012957Y-89065790D02*
X138060576Y-89113409D01*
X138060576Y-89113409D02*
X138108195Y-89208647D01*
X138108195Y-89208647D02*
X138108195Y-89446742D01*
X138108195Y-89446742D02*
X138060576Y-89541980D01*
X138060576Y-89541980D02*
X138012957Y-89589600D01*
X138012957Y-89589600D02*
X137917719Y-89637219D01*
X137917719Y-89637219D02*
X137632005Y-89637219D01*
X137632005Y-89637219D02*
X137536767Y-89589600D01*
X137536767Y-89589600D02*
X137489148Y-89541980D01*
X130824919Y-99668114D02*
X131539204Y-99668114D01*
X131539204Y-99668114D02*
X131682061Y-99715733D01*
X131682061Y-99715733D02*
X131777300Y-99810971D01*
X131777300Y-99810971D02*
X131824919Y-99953828D01*
X131824919Y-99953828D02*
X131824919Y-100049066D01*
X131824919Y-99191923D02*
X130824919Y-99191923D01*
X130824919Y-99191923D02*
X130824919Y-98810971D01*
X130824919Y-98810971D02*
X130872538Y-98715733D01*
X130872538Y-98715733D02*
X130920157Y-98668114D01*
X130920157Y-98668114D02*
X131015395Y-98620495D01*
X131015395Y-98620495D02*
X131158252Y-98620495D01*
X131158252Y-98620495D02*
X131253490Y-98668114D01*
X131253490Y-98668114D02*
X131301109Y-98715733D01*
X131301109Y-98715733D02*
X131348728Y-98810971D01*
X131348728Y-98810971D02*
X131348728Y-99191923D01*
X131824919Y-97668114D02*
X131824919Y-98239542D01*
X131824919Y-97953828D02*
X130824919Y-97953828D01*
X130824919Y-97953828D02*
X130967776Y-98049066D01*
X130967776Y-98049066D02*
X131063014Y-98144304D01*
X131063014Y-98144304D02*
X131110633Y-98239542D01*
X130824919Y-97049066D02*
X130824919Y-96953828D01*
X130824919Y-96953828D02*
X130872538Y-96858590D01*
X130872538Y-96858590D02*
X130920157Y-96810971D01*
X130920157Y-96810971D02*
X131015395Y-96763352D01*
X131015395Y-96763352D02*
X131205871Y-96715733D01*
X131205871Y-96715733D02*
X131443966Y-96715733D01*
X131443966Y-96715733D02*
X131634442Y-96763352D01*
X131634442Y-96763352D02*
X131729680Y-96810971D01*
X131729680Y-96810971D02*
X131777300Y-96858590D01*
X131777300Y-96858590D02*
X131824919Y-96953828D01*
X131824919Y-96953828D02*
X131824919Y-97049066D01*
X131824919Y-97049066D02*
X131777300Y-97144304D01*
X131777300Y-97144304D02*
X131729680Y-97191923D01*
X131729680Y-97191923D02*
X131634442Y-97239542D01*
X131634442Y-97239542D02*
X131443966Y-97287161D01*
X131443966Y-97287161D02*
X131205871Y-97287161D01*
X131205871Y-97287161D02*
X131015395Y-97239542D01*
X131015395Y-97239542D02*
X130920157Y-97191923D01*
X130920157Y-97191923D02*
X130872538Y-97144304D01*
X130872538Y-97144304D02*
X130824919Y-97049066D01*
X130824919Y-95858590D02*
X130824919Y-96049066D01*
X130824919Y-96049066D02*
X130872538Y-96144304D01*
X130872538Y-96144304D02*
X130920157Y-96191923D01*
X130920157Y-96191923D02*
X131063014Y-96287161D01*
X131063014Y-96287161D02*
X131253490Y-96334780D01*
X131253490Y-96334780D02*
X131634442Y-96334780D01*
X131634442Y-96334780D02*
X131729680Y-96287161D01*
X131729680Y-96287161D02*
X131777300Y-96239542D01*
X131777300Y-96239542D02*
X131824919Y-96144304D01*
X131824919Y-96144304D02*
X131824919Y-95953828D01*
X131824919Y-95953828D02*
X131777300Y-95858590D01*
X131777300Y-95858590D02*
X131729680Y-95810971D01*
X131729680Y-95810971D02*
X131634442Y-95763352D01*
X131634442Y-95763352D02*
X131396347Y-95763352D01*
X131396347Y-95763352D02*
X131301109Y-95810971D01*
X131301109Y-95810971D02*
X131253490Y-95858590D01*
X131253490Y-95858590D02*
X131205871Y-95953828D01*
X131205871Y-95953828D02*
X131205871Y-96144304D01*
X131205871Y-96144304D02*
X131253490Y-96239542D01*
X131253490Y-96239542D02*
X131301109Y-96287161D01*
X131301109Y-96287161D02*
X131396347Y-96334780D01*
X130655814Y-95051504D02*
X131132004Y-95051504D01*
X130560576Y-95337219D02*
X130893909Y-94337219D01*
X130893909Y-94337219D02*
X131227242Y-95337219D01*
X132084385Y-95337219D02*
X131512957Y-95337219D01*
X131798671Y-95337219D02*
X131798671Y-94337219D01*
X131798671Y-94337219D02*
X131703433Y-94480076D01*
X131703433Y-94480076D02*
X131608195Y-94575314D01*
X131608195Y-94575314D02*
X131512957Y-94622933D01*
X156724919Y-107346685D02*
X157534442Y-107346685D01*
X157534442Y-107346685D02*
X157629680Y-107299066D01*
X157629680Y-107299066D02*
X157677300Y-107251447D01*
X157677300Y-107251447D02*
X157724919Y-107156209D01*
X157724919Y-107156209D02*
X157724919Y-106965733D01*
X157724919Y-106965733D02*
X157677300Y-106870495D01*
X157677300Y-106870495D02*
X157629680Y-106822876D01*
X157629680Y-106822876D02*
X157534442Y-106775257D01*
X157534442Y-106775257D02*
X156724919Y-106775257D01*
X157724919Y-105775257D02*
X157724919Y-106346685D01*
X157724919Y-106060971D02*
X156724919Y-106060971D01*
X156724919Y-106060971D02*
X156867776Y-106156209D01*
X156867776Y-106156209D02*
X156963014Y-106251447D01*
X156963014Y-106251447D02*
X157010633Y-106346685D01*
X156724919Y-105156209D02*
X156724919Y-105060971D01*
X156724919Y-105060971D02*
X156772538Y-104965733D01*
X156772538Y-104965733D02*
X156820157Y-104918114D01*
X156820157Y-104918114D02*
X156915395Y-104870495D01*
X156915395Y-104870495D02*
X157105871Y-104822876D01*
X157105871Y-104822876D02*
X157343966Y-104822876D01*
X157343966Y-104822876D02*
X157534442Y-104870495D01*
X157534442Y-104870495D02*
X157629680Y-104918114D01*
X157629680Y-104918114D02*
X157677300Y-104965733D01*
X157677300Y-104965733D02*
X157724919Y-105060971D01*
X157724919Y-105060971D02*
X157724919Y-105156209D01*
X157724919Y-105156209D02*
X157677300Y-105251447D01*
X157677300Y-105251447D02*
X157629680Y-105299066D01*
X157629680Y-105299066D02*
X157534442Y-105346685D01*
X157534442Y-105346685D02*
X157343966Y-105394304D01*
X157343966Y-105394304D02*
X157105871Y-105394304D01*
X157105871Y-105394304D02*
X156915395Y-105346685D01*
X156915395Y-105346685D02*
X156820157Y-105299066D01*
X156820157Y-105299066D02*
X156772538Y-105251447D01*
X156772538Y-105251447D02*
X156724919Y-105156209D01*
X156724919Y-104489542D02*
X156724919Y-103870495D01*
X156724919Y-103870495D02*
X157105871Y-104203828D01*
X157105871Y-104203828D02*
X157105871Y-104060971D01*
X157105871Y-104060971D02*
X157153490Y-103965733D01*
X157153490Y-103965733D02*
X157201109Y-103918114D01*
X157201109Y-103918114D02*
X157296347Y-103870495D01*
X157296347Y-103870495D02*
X157534442Y-103870495D01*
X157534442Y-103870495D02*
X157629680Y-103918114D01*
X157629680Y-103918114D02*
X157677300Y-103965733D01*
X157677300Y-103965733D02*
X157724919Y-104060971D01*
X157724919Y-104060971D02*
X157724919Y-104346685D01*
X157724919Y-104346685D02*
X157677300Y-104441923D01*
X157677300Y-104441923D02*
X157629680Y-104489542D01*
X119771785Y-58587219D02*
X119771785Y-59301504D01*
X119771785Y-59301504D02*
X119724166Y-59444361D01*
X119724166Y-59444361D02*
X119628928Y-59539600D01*
X119628928Y-59539600D02*
X119486071Y-59587219D01*
X119486071Y-59587219D02*
X119390833Y-59587219D01*
X120771785Y-59587219D02*
X120200357Y-59587219D01*
X120486071Y-59587219D02*
X120486071Y-58587219D01*
X120486071Y-58587219D02*
X120390833Y-58730076D01*
X120390833Y-58730076D02*
X120295595Y-58825314D01*
X120295595Y-58825314D02*
X120200357Y-58872933D01*
X121390833Y-58587219D02*
X121486071Y-58587219D01*
X121486071Y-58587219D02*
X121581309Y-58634838D01*
X121581309Y-58634838D02*
X121628928Y-58682457D01*
X121628928Y-58682457D02*
X121676547Y-58777695D01*
X121676547Y-58777695D02*
X121724166Y-58968171D01*
X121724166Y-58968171D02*
X121724166Y-59206266D01*
X121724166Y-59206266D02*
X121676547Y-59396742D01*
X121676547Y-59396742D02*
X121628928Y-59491980D01*
X121628928Y-59491980D02*
X121581309Y-59539600D01*
X121581309Y-59539600D02*
X121486071Y-59587219D01*
X121486071Y-59587219D02*
X121390833Y-59587219D01*
X121390833Y-59587219D02*
X121295595Y-59539600D01*
X121295595Y-59539600D02*
X121247976Y-59491980D01*
X121247976Y-59491980D02*
X121200357Y-59396742D01*
X121200357Y-59396742D02*
X121152738Y-59206266D01*
X121152738Y-59206266D02*
X121152738Y-58968171D01*
X121152738Y-58968171D02*
X121200357Y-58777695D01*
X121200357Y-58777695D02*
X121247976Y-58682457D01*
X121247976Y-58682457D02*
X121295595Y-58634838D01*
X121295595Y-58634838D02*
X121390833Y-58587219D01*
X122676547Y-59587219D02*
X122105119Y-59587219D01*
X122390833Y-59587219D02*
X122390833Y-58587219D01*
X122390833Y-58587219D02*
X122295595Y-58730076D01*
X122295595Y-58730076D02*
X122200357Y-58825314D01*
X122200357Y-58825314D02*
X122105119Y-58872933D01*
X117224167Y-51087219D02*
X117224167Y-50087219D01*
X117224167Y-50087219D02*
X117605119Y-50087219D01*
X117605119Y-50087219D02*
X117700357Y-50134838D01*
X117700357Y-50134838D02*
X117747976Y-50182457D01*
X117747976Y-50182457D02*
X117795595Y-50277695D01*
X117795595Y-50277695D02*
X117795595Y-50420552D01*
X117795595Y-50420552D02*
X117747976Y-50515790D01*
X117747976Y-50515790D02*
X117700357Y-50563409D01*
X117700357Y-50563409D02*
X117605119Y-50611028D01*
X117605119Y-50611028D02*
X117224167Y-50611028D01*
X118128929Y-50087219D02*
X118367024Y-51087219D01*
X118367024Y-51087219D02*
X118557500Y-50372933D01*
X118557500Y-50372933D02*
X118747976Y-51087219D01*
X118747976Y-51087219D02*
X118986072Y-50087219D01*
X119938452Y-51087219D02*
X119605119Y-50611028D01*
X119367024Y-51087219D02*
X119367024Y-50087219D01*
X119367024Y-50087219D02*
X119747976Y-50087219D01*
X119747976Y-50087219D02*
X119843214Y-50134838D01*
X119843214Y-50134838D02*
X119890833Y-50182457D01*
X119890833Y-50182457D02*
X119938452Y-50277695D01*
X119938452Y-50277695D02*
X119938452Y-50420552D01*
X119938452Y-50420552D02*
X119890833Y-50515790D01*
X119890833Y-50515790D02*
X119843214Y-50563409D01*
X119843214Y-50563409D02*
X119747976Y-50611028D01*
X119747976Y-50611028D02*
X119367024Y-50611028D01*
X127325714Y-59587219D02*
X127325714Y-60396742D01*
X127325714Y-60396742D02*
X127373333Y-60491980D01*
X127373333Y-60491980D02*
X127420952Y-60539600D01*
X127420952Y-60539600D02*
X127516190Y-60587219D01*
X127516190Y-60587219D02*
X127706666Y-60587219D01*
X127706666Y-60587219D02*
X127801904Y-60539600D01*
X127801904Y-60539600D02*
X127849523Y-60491980D01*
X127849523Y-60491980D02*
X127897142Y-60396742D01*
X127897142Y-60396742D02*
X127897142Y-59587219D01*
X128897142Y-60587219D02*
X128325714Y-60587219D01*
X128611428Y-60587219D02*
X128611428Y-59587219D01*
X128611428Y-59587219D02*
X128516190Y-59730076D01*
X128516190Y-59730076D02*
X128420952Y-59825314D01*
X128420952Y-59825314D02*
X128325714Y-59872933D01*
X129516190Y-59587219D02*
X129611428Y-59587219D01*
X129611428Y-59587219D02*
X129706666Y-59634838D01*
X129706666Y-59634838D02*
X129754285Y-59682457D01*
X129754285Y-59682457D02*
X129801904Y-59777695D01*
X129801904Y-59777695D02*
X129849523Y-59968171D01*
X129849523Y-59968171D02*
X129849523Y-60206266D01*
X129849523Y-60206266D02*
X129801904Y-60396742D01*
X129801904Y-60396742D02*
X129754285Y-60491980D01*
X129754285Y-60491980D02*
X129706666Y-60539600D01*
X129706666Y-60539600D02*
X129611428Y-60587219D01*
X129611428Y-60587219D02*
X129516190Y-60587219D01*
X129516190Y-60587219D02*
X129420952Y-60539600D01*
X129420952Y-60539600D02*
X129373333Y-60491980D01*
X129373333Y-60491980D02*
X129325714Y-60396742D01*
X129325714Y-60396742D02*
X129278095Y-60206266D01*
X129278095Y-60206266D02*
X129278095Y-59968171D01*
X129278095Y-59968171D02*
X129325714Y-59777695D01*
X129325714Y-59777695D02*
X129373333Y-59682457D01*
X129373333Y-59682457D02*
X129420952Y-59634838D01*
X129420952Y-59634838D02*
X129516190Y-59587219D01*
X130801904Y-60587219D02*
X130230476Y-60587219D01*
X130516190Y-60587219D02*
X130516190Y-59587219D01*
X130516190Y-59587219D02*
X130420952Y-59730076D01*
X130420952Y-59730076D02*
X130325714Y-59825314D01*
X130325714Y-59825314D02*
X130230476Y-59872933D01*
X124849624Y-45087219D02*
X124849624Y-44087219D01*
X124849624Y-44087219D02*
X125087719Y-44087219D01*
X125087719Y-44087219D02*
X125230576Y-44134838D01*
X125230576Y-44134838D02*
X125325814Y-44230076D01*
X125325814Y-44230076D02*
X125373433Y-44325314D01*
X125373433Y-44325314D02*
X125421052Y-44515790D01*
X125421052Y-44515790D02*
X125421052Y-44658647D01*
X125421052Y-44658647D02*
X125373433Y-44849123D01*
X125373433Y-44849123D02*
X125325814Y-44944361D01*
X125325814Y-44944361D02*
X125230576Y-45039600D01*
X125230576Y-45039600D02*
X125087719Y-45087219D01*
X125087719Y-45087219D02*
X124849624Y-45087219D01*
X126373433Y-45087219D02*
X125802005Y-45087219D01*
X126087719Y-45087219D02*
X126087719Y-44087219D01*
X126087719Y-44087219D02*
X125992481Y-44230076D01*
X125992481Y-44230076D02*
X125897243Y-44325314D01*
X125897243Y-44325314D02*
X125802005Y-44372933D01*
X127325814Y-45087219D02*
X126754386Y-45087219D01*
X127040100Y-45087219D02*
X127040100Y-44087219D01*
X127040100Y-44087219D02*
X126944862Y-44230076D01*
X126944862Y-44230076D02*
X126849624Y-44325314D01*
X126849624Y-44325314D02*
X126754386Y-44372933D01*
X128182957Y-44420552D02*
X128182957Y-45087219D01*
X127944862Y-44039600D02*
X127706767Y-44753885D01*
X127706767Y-44753885D02*
X128325814Y-44753885D01*
X131358195Y-49687219D02*
X131358195Y-48687219D01*
X131929623Y-49687219D02*
X131501052Y-49115790D01*
X131929623Y-48687219D02*
X131358195Y-49258647D01*
D11*
X163250100Y-61002400D02*
X164630100Y-61002400D01*
X163250100Y-62382400D02*
X163250100Y-61002400D01*
X163250100Y-63652400D02*
X163250100Y-119642400D01*
X163250100Y-63652400D02*
X165900100Y-63652400D01*
X163250100Y-119642400D02*
X168550100Y-119642400D01*
X165900100Y-61002400D02*
X168550100Y-61002400D01*
X165900100Y-63652400D02*
X165900100Y-61002400D01*
X168550100Y-61002400D02*
X168550100Y-119642400D01*
X114990100Y-61002400D02*
X116370100Y-61002400D01*
X114990100Y-62382400D02*
X114990100Y-61002400D01*
X114990100Y-63652400D02*
X114990100Y-119642400D01*
X114990100Y-63652400D02*
X117640100Y-63652400D01*
X114990100Y-119642400D02*
X120290100Y-119642400D01*
X117640100Y-61002400D02*
X120290100Y-61002400D01*
X117640100Y-63652400D02*
X117640100Y-61002400D01*
X120290100Y-61002400D02*
X120290100Y-119642400D01*
X124760100Y-91274564D02*
X124760100Y-91490236D01*
X125480100Y-91274564D02*
X125480100Y-91490236D01*
X147750100Y-113262400D02*
X160290100Y-113262400D01*
X147750100Y-117882400D02*
X150140100Y-117882400D01*
X147750100Y-120682400D02*
X160290100Y-120682400D01*
X147750100Y-126382400D02*
X160290100Y-126382400D01*
X147750100Y-127502400D02*
X147750100Y-113262400D01*
X149370100Y-113382400D02*
X154370100Y-113382400D01*
X149370100Y-127382400D02*
X149370100Y-113382400D01*
X149870100Y-121082400D02*
X153870100Y-121082400D01*
X149870100Y-122082400D02*
X149870100Y-121082400D01*
X149870100Y-122782400D02*
X153870100Y-122782400D01*
X149870100Y-126082400D02*
X149870100Y-122782400D01*
X151070100Y-127502400D02*
X147750100Y-127502400D01*
X151370100Y-113732400D02*
X152370100Y-113732400D01*
X151370100Y-116232400D02*
X151370100Y-113732400D01*
X152370100Y-113732400D02*
X152370100Y-116232400D01*
X152370100Y-116232400D02*
X151370100Y-116232400D01*
X152600100Y-117882400D02*
X155140100Y-117882400D01*
X153870100Y-121082400D02*
X153870100Y-122082400D01*
X153870100Y-122082400D02*
X149870100Y-122082400D01*
X153870100Y-122782400D02*
X153870100Y-126082400D01*
X153870100Y-126082400D02*
X149870100Y-126082400D01*
X154370100Y-113382400D02*
X154370100Y-127382400D01*
X154370100Y-113382400D02*
X159370100Y-113382400D01*
X154370100Y-127382400D02*
X149370100Y-127382400D01*
X154370100Y-127382400D02*
X154370100Y-113382400D01*
X154870100Y-121082400D02*
X158870100Y-121082400D01*
X154870100Y-122082400D02*
X154870100Y-121082400D01*
X154870100Y-122782400D02*
X158870100Y-122782400D01*
X154870100Y-126082400D02*
X154870100Y-122782400D01*
X156370100Y-113732400D02*
X157370100Y-113732400D01*
X156370100Y-116232400D02*
X156370100Y-113732400D01*
X157370100Y-113732400D02*
X157370100Y-116232400D01*
X157370100Y-116232400D02*
X156370100Y-116232400D01*
X157600100Y-117882400D02*
X160290100Y-117882400D01*
X158870100Y-121082400D02*
X158870100Y-122082400D01*
X158870100Y-122082400D02*
X154870100Y-122082400D01*
X158870100Y-122782400D02*
X158870100Y-126082400D01*
X158870100Y-126082400D02*
X154870100Y-126082400D01*
X159370100Y-113382400D02*
X159370100Y-127382400D01*
X159370100Y-127382400D02*
X154370100Y-127382400D01*
X160290100Y-113262400D02*
X160290100Y-127502400D01*
X160290100Y-127502400D02*
X151670100Y-127502400D01*
X151810100Y-128112400D02*
X150930100Y-128112400D01*
X151370100Y-127502400D01*
X151810100Y-128112400D01*
G36*
X151810100Y-128112400D02*
G01*
X150930100Y-128112400D01*
X151370100Y-127502400D01*
X151810100Y-128112400D01*
G37*
X123870100Y-78782400D02*
X123870100Y-75982400D01*
X124570100Y-75332400D02*
X125170100Y-75332400D01*
X125170100Y-79432400D02*
X124570100Y-79432400D01*
X125870100Y-75982400D02*
X125870100Y-78782400D01*
X126070100Y-78582400D02*
X126370100Y-78282400D01*
X126070100Y-78582400D02*
X126370100Y-78882400D01*
X126370100Y-78882400D02*
X126370100Y-78282400D01*
X123870100Y-76032400D02*
G75*
G02*
X124570100Y-75332400I700000J0D01*
G01*
X124570100Y-79432400D02*
G75*
G02*
X123870100Y-78732400I-1J699999D01*
G01*
X125170100Y-75332400D02*
G75*
G02*
X125870100Y-76032400I0J-700000D01*
G01*
X125870100Y-78732400D02*
G75*
G02*
X125170100Y-79432400I-699999J-1D01*
G01*
X126870100Y-75882400D02*
X126870100Y-76482400D01*
X127170100Y-76182400D02*
X126870100Y-75882400D01*
X127170100Y-76182400D02*
X126870100Y-76482400D01*
X127370100Y-78782400D02*
X127370100Y-75982400D01*
X128070100Y-75332400D02*
X128670100Y-75332400D01*
X128670100Y-79432400D02*
X128070100Y-79432400D01*
X129370100Y-75982400D02*
X129370100Y-78782400D01*
X127370100Y-76032400D02*
G75*
G02*
X128070100Y-75332400I699999J1D01*
G01*
X128070100Y-79432400D02*
G75*
G02*
X127370100Y-78732400I0J700000D01*
G01*
X128670100Y-75332400D02*
G75*
G02*
X129370100Y-76032400I1J-699999D01*
G01*
X129370100Y-78732400D02*
G75*
G02*
X128670100Y-79432400I-700000J0D01*
G01*
X123370100Y-113032400D02*
X123370100Y-110232400D01*
X124070100Y-109582400D02*
X124670100Y-109582400D01*
X124670100Y-113682400D02*
X124070100Y-113682400D01*
X125370100Y-110232400D02*
X125370100Y-113032400D01*
X125570100Y-112832400D02*
X125870100Y-112532400D01*
X125570100Y-112832400D02*
X125870100Y-113132400D01*
X125870100Y-113132400D02*
X125870100Y-112532400D01*
X123370100Y-110282400D02*
G75*
G02*
X124070100Y-109582400I700000J0D01*
G01*
X124070100Y-113682400D02*
G75*
G02*
X123370100Y-112982400I-1J699999D01*
G01*
X124670100Y-109582400D02*
G75*
G02*
X125370100Y-110282400I0J-700000D01*
G01*
X125370100Y-112982400D02*
G75*
G02*
X124670100Y-113682400I-699999J-1D01*
G01*
X123370100Y-120782400D02*
X123370100Y-117982400D01*
X124070100Y-117332400D02*
X124670100Y-117332400D01*
X124670100Y-121432400D02*
X124070100Y-121432400D01*
X125370100Y-117982400D02*
X125370100Y-120782400D01*
X125570100Y-120582400D02*
X125870100Y-120282400D01*
X125570100Y-120582400D02*
X125870100Y-120882400D01*
X125870100Y-120882400D02*
X125870100Y-120282400D01*
X123370100Y-118032400D02*
G75*
G02*
X124070100Y-117332400I700000J0D01*
G01*
X124070100Y-121432400D02*
G75*
G02*
X123370100Y-120732400I-1J699999D01*
G01*
X124670100Y-117332400D02*
G75*
G02*
X125370100Y-118032400I0J-700000D01*
G01*
X125370100Y-120732400D02*
G75*
G02*
X124670100Y-121432400I-699999J-1D01*
G01*
X127370100Y-93082400D02*
X127370100Y-91682400D01*
X128070100Y-90982400D02*
X128670100Y-90982400D01*
X128670100Y-93782400D02*
X128070100Y-93782400D01*
X129370100Y-91682400D02*
X129370100Y-93082400D01*
X127370100Y-91682400D02*
G75*
G02*
X128070100Y-90982400I699999J1D01*
G01*
X128070100Y-93782400D02*
G75*
G02*
X127370100Y-93082400I0J700000D01*
G01*
X128670100Y-90982400D02*
G75*
G02*
X129370100Y-91682400I1J-699999D01*
G01*
X129370100Y-93082400D02*
G75*
G02*
X128670100Y-93782400I-700000J0D01*
G01*
X133370100Y-93082400D02*
X133370100Y-91682400D01*
X134070100Y-90982400D02*
X134670100Y-90982400D01*
X134670100Y-93782400D02*
X134070100Y-93782400D01*
X135370100Y-91682400D02*
X135370100Y-93082400D01*
X133370100Y-91682400D02*
G75*
G02*
X134070100Y-90982400I699999J1D01*
G01*
X134070100Y-93782400D02*
G75*
G02*
X133370100Y-93082400I0J700000D01*
G01*
X134670100Y-90982400D02*
G75*
G02*
X135370100Y-91682400I1J-699999D01*
G01*
X135370100Y-93082400D02*
G75*
G02*
X134670100Y-93782400I-700000J0D01*
G01*
X121370100Y-88082400D02*
X121370100Y-86682400D01*
X122070100Y-85982400D02*
X122670100Y-85982400D01*
X122670100Y-88782400D02*
X122070100Y-88782400D01*
X123370100Y-86682400D02*
X123370100Y-88082400D01*
X121370100Y-86682400D02*
G75*
G02*
X122070100Y-85982400I700000J0D01*
G01*
X122070100Y-88782400D02*
G75*
G02*
X121370100Y-88082400I-1J699999D01*
G01*
X122670100Y-85982400D02*
G75*
G02*
X123370100Y-86682400I0J-700000D01*
G01*
X123370100Y-88082400D02*
G75*
G02*
X122670100Y-88782400I-699999J-1D01*
G01*
X133523741Y-86252400D02*
X133216459Y-86252400D01*
X133523741Y-87012400D02*
X133216459Y-87012400D01*
X133523741Y-87502400D02*
X133216459Y-87502400D01*
X133523741Y-88262400D02*
X133216459Y-88262400D01*
X121990100Y-90536041D02*
X121990100Y-90228759D01*
X122750100Y-90536041D02*
X122750100Y-90228759D01*
X154370100Y-66882400D02*
X154370100Y-71382400D01*
X156870100Y-72632400D02*
X158370100Y-72632400D01*
X158370100Y-65632400D02*
X156870100Y-65632400D01*
X160870100Y-71382400D02*
X160870100Y-66882400D01*
X124370100Y-66882400D02*
X124370100Y-71382400D01*
X126870100Y-72632400D02*
X128370100Y-72632400D01*
X128370100Y-65632400D02*
X126870100Y-65632400D01*
X130870100Y-71382400D02*
X130870100Y-66882400D01*
X127250100Y-102662400D02*
X128250100Y-102662400D01*
X127250100Y-103282400D02*
X127250100Y-102662400D01*
X127250100Y-122102400D02*
X127250100Y-121682400D01*
X145490100Y-102662400D02*
X144490100Y-102662400D01*
X145490100Y-103282400D02*
X145490100Y-102662400D01*
X145490100Y-122102400D02*
X127250100Y-122102400D01*
X145495100Y-121857400D02*
X145495100Y-121357400D01*
X145995100Y-121357400D01*
X145495100Y-121857400D01*
G36*
X145495100Y-121857400D02*
G01*
X145495100Y-121357400D01*
X145995100Y-121357400D01*
X145495100Y-121857400D01*
G37*
X126310100Y-84822400D02*
X130430100Y-84822400D01*
X126310100Y-84917400D02*
X126310100Y-84822400D01*
X126310100Y-89942400D02*
X126310100Y-89847400D01*
X130430100Y-84822400D02*
X130430100Y-84917400D01*
X130430100Y-89847400D02*
X130430100Y-89942400D01*
X130430100Y-89942400D02*
X126310100Y-89942400D01*
X131210100Y-90182400D02*
X130730100Y-90182400D01*
X130970100Y-89852400D01*
X131210100Y-90182400D01*
G36*
X131210100Y-90182400D02*
G01*
X130730100Y-90182400D01*
X130970100Y-89852400D01*
X131210100Y-90182400D01*
G37*
X151570100Y-76117400D02*
X153855100Y-76117400D01*
X153855100Y-74647400D02*
X151570100Y-74647400D01*
X153855100Y-76117400D02*
X153855100Y-74647400D01*
X151570100Y-77867400D02*
X153855100Y-77867400D01*
X153855100Y-76397400D02*
X151570100Y-76397400D01*
X153855100Y-77867400D02*
X153855100Y-76397400D01*
X151570100Y-79617400D02*
X153855100Y-79617400D01*
X153855100Y-78147400D02*
X151570100Y-78147400D01*
X153855100Y-79617400D02*
X153855100Y-78147400D01*
X151570100Y-81367400D02*
X153855100Y-81367400D01*
X153855100Y-79897400D02*
X151570100Y-79897400D01*
X153855100Y-81367400D02*
X153855100Y-79897400D01*
X151570100Y-83117400D02*
X153855100Y-83117400D01*
X153855100Y-81647400D02*
X151570100Y-81647400D01*
X153855100Y-83117400D02*
X153855100Y-81647400D01*
X151570100Y-84867400D02*
X153855100Y-84867400D01*
X153855100Y-83397400D02*
X151570100Y-83397400D01*
X153855100Y-84867400D02*
X153855100Y-83397400D01*
X151570100Y-86617400D02*
X153855100Y-86617400D01*
X153855100Y-85147400D02*
X151570100Y-85147400D01*
X153855100Y-86617400D02*
X153855100Y-85147400D01*
X151570100Y-88367400D02*
X153855100Y-88367400D01*
X153855100Y-86897400D02*
X151570100Y-86897400D01*
X153855100Y-88367400D02*
X153855100Y-86897400D01*
X151570100Y-90117400D02*
X153855100Y-90117400D01*
X153855100Y-88647400D02*
X151570100Y-88647400D01*
X153855100Y-90117400D02*
X153855100Y-88647400D01*
X151570100Y-91867400D02*
X153855100Y-91867400D01*
X153855100Y-90397400D02*
X151570100Y-90397400D01*
X153855100Y-91867400D02*
X153855100Y-90397400D01*
X151570100Y-93617400D02*
X153855100Y-93617400D01*
X153855100Y-92147400D02*
X151570100Y-92147400D01*
X153855100Y-93617400D02*
X153855100Y-92147400D01*
X151570100Y-95367400D02*
X153855100Y-95367400D01*
X153855100Y-93897400D02*
X151570100Y-93897400D01*
X153855100Y-95367400D02*
X153855100Y-93897400D01*
X151570100Y-97117400D02*
X153855100Y-97117400D01*
X153855100Y-95647400D02*
X151570100Y-95647400D01*
X153855100Y-97117400D02*
X153855100Y-95647400D01*
X155216459Y-75002400D02*
X155523741Y-75002400D01*
X155216459Y-75762400D02*
X155523741Y-75762400D01*
X155216459Y-76752400D02*
X155523741Y-76752400D01*
X155216459Y-77512400D02*
X155523741Y-77512400D01*
X155216459Y-78502400D02*
X155523741Y-78502400D01*
X155216459Y-79262400D02*
X155523741Y-79262400D01*
X155216459Y-80252400D02*
X155523741Y-80252400D01*
X155216459Y-81012400D02*
X155523741Y-81012400D01*
X155216459Y-82002400D02*
X155523741Y-82002400D01*
X155216459Y-82762400D02*
X155523741Y-82762400D01*
X155216459Y-83752400D02*
X155523741Y-83752400D01*
X155216459Y-84512400D02*
X155523741Y-84512400D01*
X155216459Y-85502400D02*
X155523741Y-85502400D01*
X155216459Y-86262400D02*
X155523741Y-86262400D01*
X155216459Y-87252400D02*
X155523741Y-87252400D01*
X155216459Y-88012400D02*
X155523741Y-88012400D01*
X155216459Y-89002400D02*
X155523741Y-89002400D01*
X155216459Y-89762400D02*
X155523741Y-89762400D01*
X155216459Y-90752400D02*
X155523741Y-90752400D01*
X155216459Y-91512400D02*
X155523741Y-91512400D01*
X155216459Y-92502400D02*
X155523741Y-92502400D01*
X155216459Y-93262400D02*
X155523741Y-93262400D01*
X155216459Y-94252400D02*
X155523741Y-94252400D01*
X155216459Y-95012400D02*
X155523741Y-95012400D01*
X155216459Y-96002400D02*
X155523741Y-96002400D01*
X155216459Y-96762400D02*
X155523741Y-96762400D01*
X133523741Y-88752400D02*
X133216459Y-88752400D01*
X133523741Y-89512400D02*
X133216459Y-89512400D01*
X130370100Y-93082400D02*
X130370100Y-91682400D01*
X131070100Y-90982400D02*
X131670100Y-90982400D01*
X131670100Y-93782400D02*
X131070100Y-93782400D01*
X132370100Y-91682400D02*
X132370100Y-93082400D01*
X130370100Y-91682400D02*
G75*
G02*
X131070100Y-90982400I699999J1D01*
G01*
X131070100Y-93782400D02*
G75*
G02*
X130370100Y-93082400I0J700000D01*
G01*
X131670100Y-90982400D02*
G75*
G02*
X132370100Y-91682400I1J-699999D01*
G01*
X132370100Y-93082400D02*
G75*
G02*
X131670100Y-93782400I-700000J0D01*
G01*
X151310100Y-103572400D02*
X151405100Y-103572400D01*
X151310100Y-107692400D02*
X151310100Y-103572400D01*
X151405100Y-107692400D02*
X151310100Y-107692400D01*
X156335100Y-103572400D02*
X156430100Y-103572400D01*
X156430100Y-103572400D02*
X156430100Y-107692400D01*
X156430100Y-107692400D02*
X156335100Y-107692400D01*
X156670100Y-103272400D02*
X156340100Y-103032400D01*
X156670100Y-102792400D01*
X156670100Y-103272400D01*
G36*
X156670100Y-103272400D02*
G01*
X156340100Y-103032400D01*
X156670100Y-102792400D01*
X156670100Y-103272400D01*
G37*
X115587500Y-52012400D02*
X122027500Y-52012400D01*
X115587500Y-52602400D02*
X115587500Y-52012400D01*
X115587500Y-55142400D02*
X115587500Y-54662400D01*
X115587500Y-57792400D02*
X115587500Y-57202400D01*
X116207500Y-52012400D02*
X116207500Y-52602400D01*
X116207500Y-54662400D02*
X116207500Y-55142400D01*
X116207500Y-57202400D02*
X116207500Y-57792400D01*
X121507500Y-52012400D02*
X121507500Y-57792400D01*
X122027500Y-52012400D02*
X122027500Y-57792400D01*
X122027500Y-57792400D02*
X115587500Y-57792400D01*
X115237500Y-53632400D02*
X114627500Y-54072400D01*
X114627500Y-53192400D01*
X115237500Y-53632400D01*
G36*
X115237500Y-53632400D02*
G01*
X114627500Y-54072400D01*
X114627500Y-53192400D01*
X115237500Y-53632400D01*
G37*
D10*
X123040000Y-50632400D02*
X123040000Y-59132400D01*
X123040000Y-59132400D02*
X135040000Y-59132400D01*
X135040000Y-50632400D02*
X123040000Y-50632400D01*
X135040000Y-59132400D02*
X135040000Y-50632400D01*
D11*
X122800100Y-47132400D02*
X123820100Y-47132400D01*
X128240100Y-48602400D02*
X128240100Y-45662400D01*
X128360100Y-48602400D02*
X128360100Y-45662400D01*
X128480100Y-48602400D02*
X128480100Y-45662400D01*
X130280100Y-47132400D02*
X129260100Y-47132400D01*
X129260100Y-48602400D02*
X123820100Y-48602400D01*
X123820100Y-45662400D01*
X129260100Y-45662400D01*
X129260100Y-48602400D01*
M02*
