M48
; DRILL file {KiCad 9.0.1+1} date 2025-11-21T01:17:28+0000
; FORMAT={-:-/ absolute / metric / decimal}
; #@! TF.CreationDate,2025-11-21T01:17:28+00:00
; #@! TF.GenerationSoftware,Kicad,Pcbnew,9.0.1+1
; #@! TF.FileFunction,MixedPlating,1,4
FMAT,2
METRIC
; #@! TA.AperFunction,Plated,PTH,ViaDrill
T1C0.400
; #@! TA.AperFunction,Plated,PTH,ComponentDrill
T2C0.650
; #@! TA.AperFunction,Plated,PTH,ComponentDrill
T3C0.700
; #@! TA.AperFunction,Plated,PTH,ComponentDrill
T4C1.000
; #@! TA.AperFunction,Plated,PTH,ComponentDrill
T5C1.100
; #@! TA.AperFunction,Plated,PTH,ComponentDrill
T6C1.150
; #@! TA.AperFunction,NonPlated,NPTH,ComponentDrill
T7C0.991
; #@! TA.AperFunction,NonPlated,NPTH,ComponentDrill
T8C2.375
%
G90
G05
T1
X120.87Y-82.632
X120.87Y-87.382
X120.87Y-95.582
X121.12Y-72.382
X121.12Y-74.632
X121.17Y-84.182
X121.37Y-69.632
X121.62Y-80.132
X122.07Y-99.382
X122.37Y-83.282
X122.385Y-88.017
X122.62Y-74.882
X123.12Y-70.132
X123.12Y-72.632
X123.17Y-110.772
X123.57Y-77.382
X123.87Y-86.882
X124.37Y-91.882
X124.37Y-114.132
X125.537Y-110.162
X125.544Y-97.203
X125.544Y-111.882
X125.544Y-114.133
X126.62Y-77.382
X126.77Y-120.682
X126.77Y-121.882
X127.245Y-98.682
X127.245Y-99.582
X127.245Y-100.582
X127.37Y-82.382
X127.37Y-89.132
X127.37Y-97.828
X127.696Y-105.982
X128.57Y-85.382
X128.87Y-80.082
X129.47Y-115.482
X129.47Y-116.782
X129.47Y-118.082
X129.47Y-119.382
X129.87Y-92.882
X130.27Y-123.482
X131.27Y-101.482
X133.27Y-115.982
X133.77Y-125.882
X134.37Y-120.882
X136.07Y-109.482
X137.37Y-109.482
X138.37Y-97.882
X138.57Y-109.482
X139.87Y-106.582
X140.67Y-96.682
X141.47Y-125.582
X142.97Y-117.582
X143.97Y-112.982
X143.97Y-114.282
X144.07Y-123.182
X146.87Y-109.182
X146.87Y-110.482
X150.37Y-75.382
X155.62Y-101.382
X156.07Y-54.657
X156.07Y-55.507
X157.27Y-55.082
X163.17Y-53.382
T4
X116.37Y-62.382
X116.37Y-64.922
X116.37Y-67.462
X116.37Y-70.002
X116.37Y-72.542
X116.37Y-75.082
X116.37Y-77.622
X116.37Y-80.162
X116.37Y-82.702
X116.37Y-85.242
X116.37Y-87.782
X116.37Y-90.322
X116.37Y-92.862
X116.37Y-95.402
X116.37Y-97.942
X116.37Y-100.482
X116.37Y-103.022
X116.37Y-105.562
X116.37Y-108.102
X116.37Y-110.642
X116.37Y-113.182
X116.37Y-115.722
X116.37Y-118.262
X118.91Y-62.382
X118.91Y-64.922
X118.91Y-67.462
X118.91Y-70.002
X118.91Y-72.542
X118.91Y-75.082
X118.91Y-77.622
X118.91Y-80.162
X118.91Y-82.702
X118.91Y-85.242
X118.91Y-87.782
X118.91Y-90.322
X118.91Y-92.862
X118.91Y-95.402
X118.91Y-97.942
X118.91Y-100.482
X118.91Y-103.022
X118.91Y-105.562
X118.91Y-108.102
X118.91Y-110.642
X118.91Y-113.182
X118.91Y-115.722
X118.91Y-118.262
X125.08Y-66.632
X127.62Y-66.632
X130.16Y-66.632
X138.59Y-100.282
X141.13Y-100.282
X143.67Y-100.282
X164.63Y-62.382
X164.63Y-64.922
X164.63Y-67.462
X164.63Y-70.002
X164.63Y-72.542
X164.63Y-75.082
X164.63Y-77.622
X164.63Y-80.162
X164.63Y-82.702
X164.63Y-85.242
X164.63Y-87.782
X164.63Y-90.322
X164.63Y-92.862
X164.63Y-95.402
X164.63Y-97.942
X164.63Y-100.482
X164.63Y-103.022
X164.63Y-105.562
X164.63Y-108.102
X164.63Y-110.642
X164.63Y-113.182
X164.63Y-115.722
X164.63Y-118.262
X167.17Y-62.382
X167.17Y-64.922
X167.17Y-67.462
X167.17Y-70.002
X167.17Y-72.542
X167.17Y-75.082
X167.17Y-77.622
X167.17Y-80.162
X167.17Y-82.702
X167.17Y-85.242
X167.17Y-87.782
X167.17Y-90.322
X167.17Y-92.862
X167.17Y-95.402
X167.17Y-97.942
X167.17Y-100.482
X167.17Y-103.022
X167.17Y-105.562
X167.17Y-108.102
X167.17Y-110.642
X167.17Y-113.182
X167.17Y-115.722
X167.17Y-118.262
T5
X136.87Y-65.882
X136.87Y-72.382
X141.37Y-65.882
X141.37Y-72.382
X155.37Y-65.882
X155.37Y-72.382
X159.87Y-65.882
X159.87Y-72.382
T6
X124.87Y-47.882
X124.87Y-52.882
X129.87Y-47.882
X129.87Y-52.882
X151.37Y-118.382
X151.37Y-123.382
X156.37Y-118.382
X156.37Y-123.382
T7
X122.12Y-101.132
X122.12Y-103.164
X129.74Y-102.148
T8
X124.025Y-99.608
X124.025Y-104.688
X129.74Y-99.608
X129.74Y-104.688
T2
G00X164.45Y-52.262
M15
G01X164.05Y-52.262
M16
G05
G00X164.45Y-57.102
M15
G01X164.05Y-57.102
M16
G05
T3
G00X167.5Y-51.952
M15
G01X167.0Y-51.952
M16
G05
G00X167.5Y-57.412
M15
G01X167.0Y-57.412
M16
G05
M30
