M48
; DRILL file {KiCad 5.1.9+dfsg1-1~bpo10+1} date Sun Jun 27 17:04:20 2021
; FORMAT={-:-/ absolute / metric / decimal}
; #@! TF.CreationDate,2021-06-27T17:04:20+00:00
; #@! TF.GenerationSoftware,Kicad,Pcbnew,5.1.9+dfsg1-1~bpo10+1
FMAT,2
METRIC
T1C0.400
T2C1.000
T3C1.016
T4C1.100
T5C1.150
T6C1.100
%
G90
G05
T1
X120.87Y-82.632
X120.87Y-87.382
X120.87Y-101.382
X121.12Y-72.382
X121.12Y-74.632
X121.12Y-94.632
X121.37Y-69.632
X121.37Y-104.632
X121.37Y-110.882
X121.62Y-80.132
X121.62Y-114.632
X121.87Y-95.882
X121.87Y-99.382
X122.62Y-74.882
X122.87Y-92.882
X122.87Y-106.132
X123.12Y-70.132
X123.12Y-72.632
X123.17Y-110.772
X123.27Y-100.982
X123.37Y-103.882
X123.62Y-84.132
X123.87Y-86.882
X124.37Y-91.882
X124.37Y-114.132
X124.62Y-108.882
X125.37Y-114.132
X126.12Y-77.882
X126.12Y-116.882
X126.12Y-120.632
X127.37Y-82.382
X127.37Y-89.132
X129.37Y-97.632
X129.62Y-115.632
X129.87Y-92.882
X130.12Y-77.382
X132.62Y-106.882
X135.62Y-98.132
X136.87Y-108.132
X137.87Y-90.382
X139.37Y-95.132
X141.87Y-106.882
X141.87Y-115.382
X144.87Y-97.632
X150.215Y-100.881
X150.37Y-75.382
X155.62Y-101.382
T2
X126.08Y-57.132
X128.62Y-57.132
X131.16Y-57.132
T3
X116.37Y-62.382
X116.37Y-64.922
X116.37Y-67.462
X116.37Y-70.002
X116.37Y-72.542
X116.37Y-75.082
X116.37Y-77.622
X116.37Y-80.162
X116.37Y-82.702
X116.37Y-85.242
X116.37Y-87.782
X116.37Y-90.322
X116.37Y-92.862
X116.37Y-95.402
X116.37Y-97.942
X116.37Y-100.482
X116.37Y-103.022
X116.37Y-105.562
X116.37Y-108.102
X116.37Y-110.642
X116.37Y-113.182
X116.37Y-115.722
X116.37Y-118.262
X118.91Y-62.382
X118.91Y-64.922
X118.91Y-67.462
X118.91Y-70.002
X118.91Y-72.542
X118.91Y-75.082
X118.91Y-77.622
X118.91Y-80.162
X118.91Y-82.702
X118.91Y-85.242
X118.91Y-87.782
X118.91Y-90.322
X118.91Y-92.862
X118.91Y-95.402
X118.91Y-97.942
X118.91Y-100.482
X118.91Y-103.022
X118.91Y-105.562
X118.91Y-108.102
X118.91Y-110.642
X118.91Y-113.182
X118.91Y-115.722
X118.91Y-118.262
X164.63Y-62.382
X164.63Y-64.922
X164.63Y-67.462
X164.63Y-70.002
X164.63Y-72.542
X164.63Y-75.082
X164.63Y-77.622
X164.63Y-80.162
X164.63Y-82.702
X164.63Y-85.242
X164.63Y-87.782
X164.63Y-90.322
X164.63Y-92.862
X164.63Y-95.402
X164.63Y-97.942
X164.63Y-100.482
X164.63Y-103.022
X164.63Y-105.562
X164.63Y-108.102
X164.63Y-110.642
X164.63Y-113.182
X164.63Y-115.722
X164.63Y-118.262
X167.17Y-62.382
X167.17Y-64.922
X167.17Y-67.462
X167.17Y-70.002
X167.17Y-72.542
X167.17Y-75.082
X167.17Y-77.622
X167.17Y-80.162
X167.17Y-82.702
X167.17Y-85.242
X167.17Y-87.782
X167.17Y-90.322
X167.17Y-92.862
X167.17Y-95.402
X167.17Y-97.942
X167.17Y-100.482
X167.17Y-103.022
X167.17Y-105.562
X167.17Y-108.102
X167.17Y-110.642
X167.17Y-113.182
X167.17Y-115.722
X167.17Y-118.262
T4
X118.37Y-53.632
X118.37Y-56.172
X121.46Y-47.132
X125.37Y-65.882
X125.37Y-72.382
X129.87Y-65.882
X129.87Y-72.382
X131.62Y-47.132
X155.37Y-65.882
X155.37Y-72.382
X159.87Y-65.882
X159.87Y-72.382
T5
X151.37Y-118.382
X156.37Y-118.382
T6
X115.83Y-53.632
X115.83Y-56.172
T0
M30
