G04 #@! TF.GenerationSoftware,KiCad,Pcbnew,(5.1.9)-1*
G04 #@! TF.CreationDate,2021-06-13T14:24:16+02:00*
G04 #@! TF.ProjectId,com4bbb,636f6d34-6262-4622-9e6b-696361645f70,rev?*
G04 #@! TF.SameCoordinates,Original*
G04 #@! TF.FileFunction,Soldermask,Top*
G04 #@! TF.FilePolarity,Negative*
%FSLAX46Y46*%
G04 Gerber Fmt 4.6, Leading zero omitted, Abs format (unit mm)*
G04 Created by KiCad (PCBNEW (5.1.9)-1) date 2021-06-13 14:24:16*
%MOMM*%
%LPD*%
G01*
G04 APERTURE LIST*
%ADD10R,1.727200X1.727200*%
%ADD11O,1.727200X1.727200*%
%ADD12R,1.500000X3.000000*%
%ADD13O,1.500000X3.000000*%
%ADD14C,0.100000*%
%ADD15R,1.500000X1.000000*%
%ADD16C,2.000000*%
%ADD17R,5.000000X5.000000*%
%ADD18R,2.000000X0.900000*%
%ADD19R,0.900000X2.000000*%
%ADD20R,2.200000X2.200000*%
%ADD21O,2.200000X2.200000*%
%ADD22C,1.100000*%
%ADD23C,2.200000*%
G04 APERTURE END LIST*
G36*
G01*
X155625100Y-102182400D02*
X155925100Y-102182400D01*
G75*
G02*
X156075100Y-102332400I0J-150000D01*
G01*
X156075100Y-103982400D01*
G75*
G02*
X155925100Y-104132400I-150000J0D01*
G01*
X155625100Y-104132400D01*
G75*
G02*
X155475100Y-103982400I0J150000D01*
G01*
X155475100Y-102332400D01*
G75*
G02*
X155625100Y-102182400I150000J0D01*
G01*
G37*
G36*
G01*
X154355100Y-102182400D02*
X154655100Y-102182400D01*
G75*
G02*
X154805100Y-102332400I0J-150000D01*
G01*
X154805100Y-103982400D01*
G75*
G02*
X154655100Y-104132400I-150000J0D01*
G01*
X154355100Y-104132400D01*
G75*
G02*
X154205100Y-103982400I0J150000D01*
G01*
X154205100Y-102332400D01*
G75*
G02*
X154355100Y-102182400I150000J0D01*
G01*
G37*
G36*
G01*
X153085100Y-102182400D02*
X153385100Y-102182400D01*
G75*
G02*
X153535100Y-102332400I0J-150000D01*
G01*
X153535100Y-103982400D01*
G75*
G02*
X153385100Y-104132400I-150000J0D01*
G01*
X153085100Y-104132400D01*
G75*
G02*
X152935100Y-103982400I0J150000D01*
G01*
X152935100Y-102332400D01*
G75*
G02*
X153085100Y-102182400I150000J0D01*
G01*
G37*
G36*
G01*
X151815100Y-102182400D02*
X152115100Y-102182400D01*
G75*
G02*
X152265100Y-102332400I0J-150000D01*
G01*
X152265100Y-103982400D01*
G75*
G02*
X152115100Y-104132400I-150000J0D01*
G01*
X151815100Y-104132400D01*
G75*
G02*
X151665100Y-103982400I0J150000D01*
G01*
X151665100Y-102332400D01*
G75*
G02*
X151815100Y-102182400I150000J0D01*
G01*
G37*
G36*
G01*
X151815100Y-107132400D02*
X152115100Y-107132400D01*
G75*
G02*
X152265100Y-107282400I0J-150000D01*
G01*
X152265100Y-108932400D01*
G75*
G02*
X152115100Y-109082400I-150000J0D01*
G01*
X151815100Y-109082400D01*
G75*
G02*
X151665100Y-108932400I0J150000D01*
G01*
X151665100Y-107282400D01*
G75*
G02*
X151815100Y-107132400I150000J0D01*
G01*
G37*
G36*
G01*
X153085100Y-107132400D02*
X153385100Y-107132400D01*
G75*
G02*
X153535100Y-107282400I0J-150000D01*
G01*
X153535100Y-108932400D01*
G75*
G02*
X153385100Y-109082400I-150000J0D01*
G01*
X153085100Y-109082400D01*
G75*
G02*
X152935100Y-108932400I0J150000D01*
G01*
X152935100Y-107282400D01*
G75*
G02*
X153085100Y-107132400I150000J0D01*
G01*
G37*
G36*
G01*
X154355100Y-107132400D02*
X154655100Y-107132400D01*
G75*
G02*
X154805100Y-107282400I0J-150000D01*
G01*
X154805100Y-108932400D01*
G75*
G02*
X154655100Y-109082400I-150000J0D01*
G01*
X154355100Y-109082400D01*
G75*
G02*
X154205100Y-108932400I0J150000D01*
G01*
X154205100Y-107282400D01*
G75*
G02*
X154355100Y-107132400I150000J0D01*
G01*
G37*
G36*
G01*
X155625100Y-107132400D02*
X155925100Y-107132400D01*
G75*
G02*
X156075100Y-107282400I0J-150000D01*
G01*
X156075100Y-108932400D01*
G75*
G02*
X155925100Y-109082400I-150000J0D01*
G01*
X155625100Y-109082400D01*
G75*
G02*
X155475100Y-108932400I0J150000D01*
G01*
X155475100Y-107282400D01*
G75*
G02*
X155625100Y-107132400I150000J0D01*
G01*
G37*
D10*
X164630100Y-62382400D03*
D11*
X167170100Y-62382400D03*
X164630100Y-64922400D03*
X167170100Y-64922400D03*
X164630100Y-67462400D03*
X167170100Y-67462400D03*
X164630100Y-70002400D03*
X167170100Y-70002400D03*
X164630100Y-72542400D03*
X167170100Y-72542400D03*
X164630100Y-75082400D03*
X167170100Y-75082400D03*
X164630100Y-77622400D03*
X167170100Y-77622400D03*
X164630100Y-80162400D03*
X167170100Y-80162400D03*
X164630100Y-82702400D03*
X167170100Y-82702400D03*
X164630100Y-85242400D03*
X167170100Y-85242400D03*
X164630100Y-87782400D03*
X167170100Y-87782400D03*
X164630100Y-90322400D03*
X167170100Y-90322400D03*
X164630100Y-92862400D03*
X167170100Y-92862400D03*
X164630100Y-95402400D03*
X167170100Y-95402400D03*
X164630100Y-97942400D03*
X167170100Y-97942400D03*
X164630100Y-100482400D03*
X167170100Y-100482400D03*
X164630100Y-103022400D03*
X167170100Y-103022400D03*
X164630100Y-105562400D03*
X167170100Y-105562400D03*
X164630100Y-108102400D03*
X167170100Y-108102400D03*
X164630100Y-110642400D03*
X167170100Y-110642400D03*
X164630100Y-113182400D03*
X167170100Y-113182400D03*
X164630100Y-115722400D03*
X167170100Y-115722400D03*
X164630100Y-118262400D03*
X167170100Y-118262400D03*
D10*
X116370100Y-62382400D03*
D11*
X118910100Y-62382400D03*
X116370100Y-64922400D03*
X118910100Y-64922400D03*
X116370100Y-67462400D03*
X118910100Y-67462400D03*
X116370100Y-70002400D03*
X118910100Y-70002400D03*
X116370100Y-72542400D03*
X118910100Y-72542400D03*
X116370100Y-75082400D03*
X118910100Y-75082400D03*
X116370100Y-77622400D03*
X118910100Y-77622400D03*
X116370100Y-80162400D03*
X118910100Y-80162400D03*
X116370100Y-82702400D03*
X118910100Y-82702400D03*
X116370100Y-85242400D03*
X118910100Y-85242400D03*
X116370100Y-87782400D03*
X118910100Y-87782400D03*
X116370100Y-90322400D03*
X118910100Y-90322400D03*
X116370100Y-92862400D03*
X118910100Y-92862400D03*
X116370100Y-95402400D03*
X118910100Y-95402400D03*
X116370100Y-97942400D03*
X118910100Y-97942400D03*
X116370100Y-100482400D03*
X118910100Y-100482400D03*
X116370100Y-103022400D03*
X118910100Y-103022400D03*
X116370100Y-105562400D03*
X118910100Y-105562400D03*
X116370100Y-108102400D03*
X118910100Y-108102400D03*
X116370100Y-110642400D03*
X118910100Y-110642400D03*
X116370100Y-113182400D03*
X118910100Y-113182400D03*
X116370100Y-115722400D03*
X118910100Y-115722400D03*
X116370100Y-118262400D03*
X118910100Y-118262400D03*
G36*
G01*
X124950100Y-90622400D02*
X125290100Y-90622400D01*
G75*
G02*
X125430100Y-90762400I0J-140000D01*
G01*
X125430100Y-91042400D01*
G75*
G02*
X125290100Y-91182400I-140000J0D01*
G01*
X124950100Y-91182400D01*
G75*
G02*
X124810100Y-91042400I0J140000D01*
G01*
X124810100Y-90762400D01*
G75*
G02*
X124950100Y-90622400I140000J0D01*
G01*
G37*
G36*
G01*
X124950100Y-91582400D02*
X125290100Y-91582400D01*
G75*
G02*
X125430100Y-91722400I0J-140000D01*
G01*
X125430100Y-92002400D01*
G75*
G02*
X125290100Y-92142400I-140000J0D01*
G01*
X124950100Y-92142400D01*
G75*
G02*
X124810100Y-92002400I0J140000D01*
G01*
X124810100Y-91722400D01*
G75*
G02*
X124950100Y-91582400I140000J0D01*
G01*
G37*
D12*
X151370100Y-118382400D03*
D13*
X156370100Y-118382400D03*
D14*
G36*
X125620100Y-78132400D02*
G01*
X125620100Y-78682400D01*
X125619498Y-78682400D01*
X125619498Y-78706934D01*
X125614688Y-78755765D01*
X125605116Y-78803890D01*
X125590872Y-78850845D01*
X125572095Y-78896178D01*
X125548964Y-78939451D01*
X125521704Y-78980250D01*
X125490576Y-79018179D01*
X125455879Y-79052876D01*
X125417950Y-79084004D01*
X125377151Y-79111264D01*
X125333878Y-79134395D01*
X125288545Y-79153172D01*
X125241590Y-79167416D01*
X125193465Y-79176988D01*
X125144634Y-79181798D01*
X125120100Y-79181798D01*
X125120100Y-79182400D01*
X124620100Y-79182400D01*
X124620100Y-79181798D01*
X124595566Y-79181798D01*
X124546735Y-79176988D01*
X124498610Y-79167416D01*
X124451655Y-79153172D01*
X124406322Y-79134395D01*
X124363049Y-79111264D01*
X124322250Y-79084004D01*
X124284321Y-79052876D01*
X124249624Y-79018179D01*
X124218496Y-78980250D01*
X124191236Y-78939451D01*
X124168105Y-78896178D01*
X124149328Y-78850845D01*
X124135084Y-78803890D01*
X124125512Y-78755765D01*
X124120702Y-78706934D01*
X124120702Y-78682400D01*
X124120100Y-78682400D01*
X124120100Y-78132400D01*
X125620100Y-78132400D01*
G37*
G36*
X124120702Y-76082400D02*
G01*
X124120702Y-76057866D01*
X124125512Y-76009035D01*
X124135084Y-75960910D01*
X124149328Y-75913955D01*
X124168105Y-75868622D01*
X124191236Y-75825349D01*
X124218496Y-75784550D01*
X124249624Y-75746621D01*
X124284321Y-75711924D01*
X124322250Y-75680796D01*
X124363049Y-75653536D01*
X124406322Y-75630405D01*
X124451655Y-75611628D01*
X124498610Y-75597384D01*
X124546735Y-75587812D01*
X124595566Y-75583002D01*
X124620100Y-75583002D01*
X124620100Y-75582400D01*
X125120100Y-75582400D01*
X125120100Y-75583002D01*
X125144634Y-75583002D01*
X125193465Y-75587812D01*
X125241590Y-75597384D01*
X125288545Y-75611628D01*
X125333878Y-75630405D01*
X125377151Y-75653536D01*
X125417950Y-75680796D01*
X125455879Y-75711924D01*
X125490576Y-75746621D01*
X125521704Y-75784550D01*
X125548964Y-75825349D01*
X125572095Y-75868622D01*
X125590872Y-75913955D01*
X125605116Y-75960910D01*
X125614688Y-76009035D01*
X125619498Y-76057866D01*
X125619498Y-76082400D01*
X125620100Y-76082400D01*
X125620100Y-76632400D01*
X124120100Y-76632400D01*
X124120100Y-76082400D01*
X124120702Y-76082400D01*
G37*
D15*
X124870100Y-77382400D03*
X128370100Y-77382400D03*
D14*
G36*
X129119498Y-78682400D02*
G01*
X129119498Y-78706934D01*
X129114688Y-78755765D01*
X129105116Y-78803890D01*
X129090872Y-78850845D01*
X129072095Y-78896178D01*
X129048964Y-78939451D01*
X129021704Y-78980250D01*
X128990576Y-79018179D01*
X128955879Y-79052876D01*
X128917950Y-79084004D01*
X128877151Y-79111264D01*
X128833878Y-79134395D01*
X128788545Y-79153172D01*
X128741590Y-79167416D01*
X128693465Y-79176988D01*
X128644634Y-79181798D01*
X128620100Y-79181798D01*
X128620100Y-79182400D01*
X128120100Y-79182400D01*
X128120100Y-79181798D01*
X128095566Y-79181798D01*
X128046735Y-79176988D01*
X127998610Y-79167416D01*
X127951655Y-79153172D01*
X127906322Y-79134395D01*
X127863049Y-79111264D01*
X127822250Y-79084004D01*
X127784321Y-79052876D01*
X127749624Y-79018179D01*
X127718496Y-78980250D01*
X127691236Y-78939451D01*
X127668105Y-78896178D01*
X127649328Y-78850845D01*
X127635084Y-78803890D01*
X127625512Y-78755765D01*
X127620702Y-78706934D01*
X127620702Y-78682400D01*
X127620100Y-78682400D01*
X127620100Y-78132400D01*
X129120100Y-78132400D01*
X129120100Y-78682400D01*
X129119498Y-78682400D01*
G37*
G36*
X127620100Y-76632400D02*
G01*
X127620100Y-76082400D01*
X127620702Y-76082400D01*
X127620702Y-76057866D01*
X127625512Y-76009035D01*
X127635084Y-75960910D01*
X127649328Y-75913955D01*
X127668105Y-75868622D01*
X127691236Y-75825349D01*
X127718496Y-75784550D01*
X127749624Y-75746621D01*
X127784321Y-75711924D01*
X127822250Y-75680796D01*
X127863049Y-75653536D01*
X127906322Y-75630405D01*
X127951655Y-75611628D01*
X127998610Y-75597384D01*
X128046735Y-75587812D01*
X128095566Y-75583002D01*
X128120100Y-75583002D01*
X128120100Y-75582400D01*
X128620100Y-75582400D01*
X128620100Y-75583002D01*
X128644634Y-75583002D01*
X128693465Y-75587812D01*
X128741590Y-75597384D01*
X128788545Y-75611628D01*
X128833878Y-75630405D01*
X128877151Y-75653536D01*
X128917950Y-75680796D01*
X128955879Y-75711924D01*
X128990576Y-75746621D01*
X129021704Y-75784550D01*
X129048964Y-75825349D01*
X129072095Y-75868622D01*
X129090872Y-75913955D01*
X129105116Y-75960910D01*
X129114688Y-76009035D01*
X129119498Y-76057866D01*
X129119498Y-76082400D01*
X129120100Y-76082400D01*
X129120100Y-76632400D01*
X127620100Y-76632400D01*
G37*
G36*
X125120100Y-112382400D02*
G01*
X125120100Y-112932400D01*
X125119498Y-112932400D01*
X125119498Y-112956934D01*
X125114688Y-113005765D01*
X125105116Y-113053890D01*
X125090872Y-113100845D01*
X125072095Y-113146178D01*
X125048964Y-113189451D01*
X125021704Y-113230250D01*
X124990576Y-113268179D01*
X124955879Y-113302876D01*
X124917950Y-113334004D01*
X124877151Y-113361264D01*
X124833878Y-113384395D01*
X124788545Y-113403172D01*
X124741590Y-113417416D01*
X124693465Y-113426988D01*
X124644634Y-113431798D01*
X124620100Y-113431798D01*
X124620100Y-113432400D01*
X124120100Y-113432400D01*
X124120100Y-113431798D01*
X124095566Y-113431798D01*
X124046735Y-113426988D01*
X123998610Y-113417416D01*
X123951655Y-113403172D01*
X123906322Y-113384395D01*
X123863049Y-113361264D01*
X123822250Y-113334004D01*
X123784321Y-113302876D01*
X123749624Y-113268179D01*
X123718496Y-113230250D01*
X123691236Y-113189451D01*
X123668105Y-113146178D01*
X123649328Y-113100845D01*
X123635084Y-113053890D01*
X123625512Y-113005765D01*
X123620702Y-112956934D01*
X123620702Y-112932400D01*
X123620100Y-112932400D01*
X123620100Y-112382400D01*
X125120100Y-112382400D01*
G37*
G36*
X123620702Y-110332400D02*
G01*
X123620702Y-110307866D01*
X123625512Y-110259035D01*
X123635084Y-110210910D01*
X123649328Y-110163955D01*
X123668105Y-110118622D01*
X123691236Y-110075349D01*
X123718496Y-110034550D01*
X123749624Y-109996621D01*
X123784321Y-109961924D01*
X123822250Y-109930796D01*
X123863049Y-109903536D01*
X123906322Y-109880405D01*
X123951655Y-109861628D01*
X123998610Y-109847384D01*
X124046735Y-109837812D01*
X124095566Y-109833002D01*
X124120100Y-109833002D01*
X124120100Y-109832400D01*
X124620100Y-109832400D01*
X124620100Y-109833002D01*
X124644634Y-109833002D01*
X124693465Y-109837812D01*
X124741590Y-109847384D01*
X124788545Y-109861628D01*
X124833878Y-109880405D01*
X124877151Y-109903536D01*
X124917950Y-109930796D01*
X124955879Y-109961924D01*
X124990576Y-109996621D01*
X125021704Y-110034550D01*
X125048964Y-110075349D01*
X125072095Y-110118622D01*
X125090872Y-110163955D01*
X125105116Y-110210910D01*
X125114688Y-110259035D01*
X125119498Y-110307866D01*
X125119498Y-110332400D01*
X125120100Y-110332400D01*
X125120100Y-110882400D01*
X123620100Y-110882400D01*
X123620100Y-110332400D01*
X123620702Y-110332400D01*
G37*
D15*
X124370100Y-111632400D03*
X124370100Y-119382400D03*
D14*
G36*
X123620702Y-118082400D02*
G01*
X123620702Y-118057866D01*
X123625512Y-118009035D01*
X123635084Y-117960910D01*
X123649328Y-117913955D01*
X123668105Y-117868622D01*
X123691236Y-117825349D01*
X123718496Y-117784550D01*
X123749624Y-117746621D01*
X123784321Y-117711924D01*
X123822250Y-117680796D01*
X123863049Y-117653536D01*
X123906322Y-117630405D01*
X123951655Y-117611628D01*
X123998610Y-117597384D01*
X124046735Y-117587812D01*
X124095566Y-117583002D01*
X124120100Y-117583002D01*
X124120100Y-117582400D01*
X124620100Y-117582400D01*
X124620100Y-117583002D01*
X124644634Y-117583002D01*
X124693465Y-117587812D01*
X124741590Y-117597384D01*
X124788545Y-117611628D01*
X124833878Y-117630405D01*
X124877151Y-117653536D01*
X124917950Y-117680796D01*
X124955879Y-117711924D01*
X124990576Y-117746621D01*
X125021704Y-117784550D01*
X125048964Y-117825349D01*
X125072095Y-117868622D01*
X125090872Y-117913955D01*
X125105116Y-117960910D01*
X125114688Y-118009035D01*
X125119498Y-118057866D01*
X125119498Y-118082400D01*
X125120100Y-118082400D01*
X125120100Y-118632400D01*
X123620100Y-118632400D01*
X123620100Y-118082400D01*
X123620702Y-118082400D01*
G37*
G36*
X125120100Y-120132400D02*
G01*
X125120100Y-120682400D01*
X125119498Y-120682400D01*
X125119498Y-120706934D01*
X125114688Y-120755765D01*
X125105116Y-120803890D01*
X125090872Y-120850845D01*
X125072095Y-120896178D01*
X125048964Y-120939451D01*
X125021704Y-120980250D01*
X124990576Y-121018179D01*
X124955879Y-121052876D01*
X124917950Y-121084004D01*
X124877151Y-121111264D01*
X124833878Y-121134395D01*
X124788545Y-121153172D01*
X124741590Y-121167416D01*
X124693465Y-121176988D01*
X124644634Y-121181798D01*
X124620100Y-121181798D01*
X124620100Y-121182400D01*
X124120100Y-121182400D01*
X124120100Y-121181798D01*
X124095566Y-121181798D01*
X124046735Y-121176988D01*
X123998610Y-121167416D01*
X123951655Y-121153172D01*
X123906322Y-121134395D01*
X123863049Y-121111264D01*
X123822250Y-121084004D01*
X123784321Y-121052876D01*
X123749624Y-121018179D01*
X123718496Y-120980250D01*
X123691236Y-120939451D01*
X123668105Y-120896178D01*
X123649328Y-120850845D01*
X123635084Y-120803890D01*
X123625512Y-120755765D01*
X123620702Y-120706934D01*
X123620702Y-120682400D01*
X123620100Y-120682400D01*
X123620100Y-120132400D01*
X125120100Y-120132400D01*
G37*
G36*
X127620100Y-92232400D02*
G01*
X127620100Y-91732400D01*
X127620702Y-91732400D01*
X127620702Y-91707866D01*
X127625512Y-91659035D01*
X127635084Y-91610910D01*
X127649328Y-91563955D01*
X127668105Y-91518622D01*
X127691236Y-91475349D01*
X127718496Y-91434550D01*
X127749624Y-91396621D01*
X127784321Y-91361924D01*
X127822250Y-91330796D01*
X127863049Y-91303536D01*
X127906322Y-91280405D01*
X127951655Y-91261628D01*
X127998610Y-91247384D01*
X128046735Y-91237812D01*
X128095566Y-91233002D01*
X128120100Y-91233002D01*
X128120100Y-91232400D01*
X128620100Y-91232400D01*
X128620100Y-91233002D01*
X128644634Y-91233002D01*
X128693465Y-91237812D01*
X128741590Y-91247384D01*
X128788545Y-91261628D01*
X128833878Y-91280405D01*
X128877151Y-91303536D01*
X128917950Y-91330796D01*
X128955879Y-91361924D01*
X128990576Y-91396621D01*
X129021704Y-91434550D01*
X129048964Y-91475349D01*
X129072095Y-91518622D01*
X129090872Y-91563955D01*
X129105116Y-91610910D01*
X129114688Y-91659035D01*
X129119498Y-91707866D01*
X129119498Y-91732400D01*
X129120100Y-91732400D01*
X129120100Y-92232400D01*
X127620100Y-92232400D01*
G37*
G36*
X129119498Y-93032400D02*
G01*
X129119498Y-93056934D01*
X129114688Y-93105765D01*
X129105116Y-93153890D01*
X129090872Y-93200845D01*
X129072095Y-93246178D01*
X129048964Y-93289451D01*
X129021704Y-93330250D01*
X128990576Y-93368179D01*
X128955879Y-93402876D01*
X128917950Y-93434004D01*
X128877151Y-93461264D01*
X128833878Y-93484395D01*
X128788545Y-93503172D01*
X128741590Y-93517416D01*
X128693465Y-93526988D01*
X128644634Y-93531798D01*
X128620100Y-93531798D01*
X128620100Y-93532400D01*
X128120100Y-93532400D01*
X128120100Y-93531798D01*
X128095566Y-93531798D01*
X128046735Y-93526988D01*
X127998610Y-93517416D01*
X127951655Y-93503172D01*
X127906322Y-93484395D01*
X127863049Y-93461264D01*
X127822250Y-93434004D01*
X127784321Y-93402876D01*
X127749624Y-93368179D01*
X127718496Y-93330250D01*
X127691236Y-93289451D01*
X127668105Y-93246178D01*
X127649328Y-93200845D01*
X127635084Y-93153890D01*
X127625512Y-93105765D01*
X127620702Y-93056934D01*
X127620702Y-93032400D01*
X127620100Y-93032400D01*
X127620100Y-92532400D01*
X129120100Y-92532400D01*
X129120100Y-93032400D01*
X129119498Y-93032400D01*
G37*
G36*
X132119498Y-93032400D02*
G01*
X132119498Y-93056934D01*
X132114688Y-93105765D01*
X132105116Y-93153890D01*
X132090872Y-93200845D01*
X132072095Y-93246178D01*
X132048964Y-93289451D01*
X132021704Y-93330250D01*
X131990576Y-93368179D01*
X131955879Y-93402876D01*
X131917950Y-93434004D01*
X131877151Y-93461264D01*
X131833878Y-93484395D01*
X131788545Y-93503172D01*
X131741590Y-93517416D01*
X131693465Y-93526988D01*
X131644634Y-93531798D01*
X131620100Y-93531798D01*
X131620100Y-93532400D01*
X131120100Y-93532400D01*
X131120100Y-93531798D01*
X131095566Y-93531798D01*
X131046735Y-93526988D01*
X130998610Y-93517416D01*
X130951655Y-93503172D01*
X130906322Y-93484395D01*
X130863049Y-93461264D01*
X130822250Y-93434004D01*
X130784321Y-93402876D01*
X130749624Y-93368179D01*
X130718496Y-93330250D01*
X130691236Y-93289451D01*
X130668105Y-93246178D01*
X130649328Y-93200845D01*
X130635084Y-93153890D01*
X130625512Y-93105765D01*
X130620702Y-93056934D01*
X130620702Y-93032400D01*
X130620100Y-93032400D01*
X130620100Y-92532400D01*
X132120100Y-92532400D01*
X132120100Y-93032400D01*
X132119498Y-93032400D01*
G37*
G36*
X130620100Y-92232400D02*
G01*
X130620100Y-91732400D01*
X130620702Y-91732400D01*
X130620702Y-91707866D01*
X130625512Y-91659035D01*
X130635084Y-91610910D01*
X130649328Y-91563955D01*
X130668105Y-91518622D01*
X130691236Y-91475349D01*
X130718496Y-91434550D01*
X130749624Y-91396621D01*
X130784321Y-91361924D01*
X130822250Y-91330796D01*
X130863049Y-91303536D01*
X130906322Y-91280405D01*
X130951655Y-91261628D01*
X130998610Y-91247384D01*
X131046735Y-91237812D01*
X131095566Y-91233002D01*
X131120100Y-91233002D01*
X131120100Y-91232400D01*
X131620100Y-91232400D01*
X131620100Y-91233002D01*
X131644634Y-91233002D01*
X131693465Y-91237812D01*
X131741590Y-91247384D01*
X131788545Y-91261628D01*
X131833878Y-91280405D01*
X131877151Y-91303536D01*
X131917950Y-91330796D01*
X131955879Y-91361924D01*
X131990576Y-91396621D01*
X132021704Y-91434550D01*
X132048964Y-91475349D01*
X132072095Y-91518622D01*
X132090872Y-91563955D01*
X132105116Y-91610910D01*
X132114688Y-91659035D01*
X132119498Y-91707866D01*
X132119498Y-91732400D01*
X132120100Y-91732400D01*
X132120100Y-92232400D01*
X130620100Y-92232400D01*
G37*
G36*
X133620100Y-92232400D02*
G01*
X133620100Y-91732400D01*
X133620702Y-91732400D01*
X133620702Y-91707866D01*
X133625512Y-91659035D01*
X133635084Y-91610910D01*
X133649328Y-91563955D01*
X133668105Y-91518622D01*
X133691236Y-91475349D01*
X133718496Y-91434550D01*
X133749624Y-91396621D01*
X133784321Y-91361924D01*
X133822250Y-91330796D01*
X133863049Y-91303536D01*
X133906322Y-91280405D01*
X133951655Y-91261628D01*
X133998610Y-91247384D01*
X134046735Y-91237812D01*
X134095566Y-91233002D01*
X134120100Y-91233002D01*
X134120100Y-91232400D01*
X134620100Y-91232400D01*
X134620100Y-91233002D01*
X134644634Y-91233002D01*
X134693465Y-91237812D01*
X134741590Y-91247384D01*
X134788545Y-91261628D01*
X134833878Y-91280405D01*
X134877151Y-91303536D01*
X134917950Y-91330796D01*
X134955879Y-91361924D01*
X134990576Y-91396621D01*
X135021704Y-91434550D01*
X135048964Y-91475349D01*
X135072095Y-91518622D01*
X135090872Y-91563955D01*
X135105116Y-91610910D01*
X135114688Y-91659035D01*
X135119498Y-91707866D01*
X135119498Y-91732400D01*
X135120100Y-91732400D01*
X135120100Y-92232400D01*
X133620100Y-92232400D01*
G37*
G36*
X135119498Y-93032400D02*
G01*
X135119498Y-93056934D01*
X135114688Y-93105765D01*
X135105116Y-93153890D01*
X135090872Y-93200845D01*
X135072095Y-93246178D01*
X135048964Y-93289451D01*
X135021704Y-93330250D01*
X134990576Y-93368179D01*
X134955879Y-93402876D01*
X134917950Y-93434004D01*
X134877151Y-93461264D01*
X134833878Y-93484395D01*
X134788545Y-93503172D01*
X134741590Y-93517416D01*
X134693465Y-93526988D01*
X134644634Y-93531798D01*
X134620100Y-93531798D01*
X134620100Y-93532400D01*
X134120100Y-93532400D01*
X134120100Y-93531798D01*
X134095566Y-93531798D01*
X134046735Y-93526988D01*
X133998610Y-93517416D01*
X133951655Y-93503172D01*
X133906322Y-93484395D01*
X133863049Y-93461264D01*
X133822250Y-93434004D01*
X133784321Y-93402876D01*
X133749624Y-93368179D01*
X133718496Y-93330250D01*
X133691236Y-93289451D01*
X133668105Y-93246178D01*
X133649328Y-93200845D01*
X133635084Y-93153890D01*
X133625512Y-93105765D01*
X133620702Y-93056934D01*
X133620702Y-93032400D01*
X133620100Y-93032400D01*
X133620100Y-92532400D01*
X135120100Y-92532400D01*
X135120100Y-93032400D01*
X135119498Y-93032400D01*
G37*
G36*
X121620702Y-86732400D02*
G01*
X121620702Y-86707866D01*
X121625512Y-86659035D01*
X121635084Y-86610910D01*
X121649328Y-86563955D01*
X121668105Y-86518622D01*
X121691236Y-86475349D01*
X121718496Y-86434550D01*
X121749624Y-86396621D01*
X121784321Y-86361924D01*
X121822250Y-86330796D01*
X121863049Y-86303536D01*
X121906322Y-86280405D01*
X121951655Y-86261628D01*
X121998610Y-86247384D01*
X122046735Y-86237812D01*
X122095566Y-86233002D01*
X122120100Y-86233002D01*
X122120100Y-86232400D01*
X122620100Y-86232400D01*
X122620100Y-86233002D01*
X122644634Y-86233002D01*
X122693465Y-86237812D01*
X122741590Y-86247384D01*
X122788545Y-86261628D01*
X122833878Y-86280405D01*
X122877151Y-86303536D01*
X122917950Y-86330796D01*
X122955879Y-86361924D01*
X122990576Y-86396621D01*
X123021704Y-86434550D01*
X123048964Y-86475349D01*
X123072095Y-86518622D01*
X123090872Y-86563955D01*
X123105116Y-86610910D01*
X123114688Y-86659035D01*
X123119498Y-86707866D01*
X123119498Y-86732400D01*
X123120100Y-86732400D01*
X123120100Y-87232400D01*
X121620100Y-87232400D01*
X121620100Y-86732400D01*
X121620702Y-86732400D01*
G37*
G36*
X123120100Y-87532400D02*
G01*
X123120100Y-88032400D01*
X123119498Y-88032400D01*
X123119498Y-88056934D01*
X123114688Y-88105765D01*
X123105116Y-88153890D01*
X123090872Y-88200845D01*
X123072095Y-88246178D01*
X123048964Y-88289451D01*
X123021704Y-88330250D01*
X122990576Y-88368179D01*
X122955879Y-88402876D01*
X122917950Y-88434004D01*
X122877151Y-88461264D01*
X122833878Y-88484395D01*
X122788545Y-88503172D01*
X122741590Y-88517416D01*
X122693465Y-88526988D01*
X122644634Y-88531798D01*
X122620100Y-88531798D01*
X122620100Y-88532400D01*
X122120100Y-88532400D01*
X122120100Y-88531798D01*
X122095566Y-88531798D01*
X122046735Y-88526988D01*
X121998610Y-88517416D01*
X121951655Y-88503172D01*
X121906322Y-88484395D01*
X121863049Y-88461264D01*
X121822250Y-88434004D01*
X121784321Y-88402876D01*
X121749624Y-88368179D01*
X121718496Y-88330250D01*
X121691236Y-88289451D01*
X121668105Y-88246178D01*
X121649328Y-88200845D01*
X121635084Y-88153890D01*
X121625512Y-88105765D01*
X121620702Y-88056934D01*
X121620702Y-88032400D01*
X121620100Y-88032400D01*
X121620100Y-87532400D01*
X123120100Y-87532400D01*
G37*
G36*
G01*
X133130100Y-86447400D02*
X133130100Y-86817400D01*
G75*
G02*
X132995100Y-86952400I-135000J0D01*
G01*
X132725100Y-86952400D01*
G75*
G02*
X132590100Y-86817400I0J135000D01*
G01*
X132590100Y-86447400D01*
G75*
G02*
X132725100Y-86312400I135000J0D01*
G01*
X132995100Y-86312400D01*
G75*
G02*
X133130100Y-86447400I0J-135000D01*
G01*
G37*
G36*
G01*
X134150100Y-86447400D02*
X134150100Y-86817400D01*
G75*
G02*
X134015100Y-86952400I-135000J0D01*
G01*
X133745100Y-86952400D01*
G75*
G02*
X133610100Y-86817400I0J135000D01*
G01*
X133610100Y-86447400D01*
G75*
G02*
X133745100Y-86312400I135000J0D01*
G01*
X134015100Y-86312400D01*
G75*
G02*
X134150100Y-86447400I0J-135000D01*
G01*
G37*
G36*
G01*
X134150100Y-87697400D02*
X134150100Y-88067400D01*
G75*
G02*
X134015100Y-88202400I-135000J0D01*
G01*
X133745100Y-88202400D01*
G75*
G02*
X133610100Y-88067400I0J135000D01*
G01*
X133610100Y-87697400D01*
G75*
G02*
X133745100Y-87562400I135000J0D01*
G01*
X134015100Y-87562400D01*
G75*
G02*
X134150100Y-87697400I0J-135000D01*
G01*
G37*
G36*
G01*
X133130100Y-87697400D02*
X133130100Y-88067400D01*
G75*
G02*
X132995100Y-88202400I-135000J0D01*
G01*
X132725100Y-88202400D01*
G75*
G02*
X132590100Y-88067400I0J135000D01*
G01*
X132590100Y-87697400D01*
G75*
G02*
X132725100Y-87562400I135000J0D01*
G01*
X132995100Y-87562400D01*
G75*
G02*
X133130100Y-87697400I0J-135000D01*
G01*
G37*
G36*
G01*
X133130100Y-88947400D02*
X133130100Y-89317400D01*
G75*
G02*
X132995100Y-89452400I-135000J0D01*
G01*
X132725100Y-89452400D01*
G75*
G02*
X132590100Y-89317400I0J135000D01*
G01*
X132590100Y-88947400D01*
G75*
G02*
X132725100Y-88812400I135000J0D01*
G01*
X132995100Y-88812400D01*
G75*
G02*
X133130100Y-88947400I0J-135000D01*
G01*
G37*
G36*
G01*
X134150100Y-88947400D02*
X134150100Y-89317400D01*
G75*
G02*
X134015100Y-89452400I-135000J0D01*
G01*
X133745100Y-89452400D01*
G75*
G02*
X133610100Y-89317400I0J135000D01*
G01*
X133610100Y-88947400D01*
G75*
G02*
X133745100Y-88812400I135000J0D01*
G01*
X134015100Y-88812400D01*
G75*
G02*
X134150100Y-88947400I0J-135000D01*
G01*
G37*
G36*
G01*
X122555100Y-91162400D02*
X122185100Y-91162400D01*
G75*
G02*
X122050100Y-91027400I0J135000D01*
G01*
X122050100Y-90757400D01*
G75*
G02*
X122185100Y-90622400I135000J0D01*
G01*
X122555100Y-90622400D01*
G75*
G02*
X122690100Y-90757400I0J-135000D01*
G01*
X122690100Y-91027400D01*
G75*
G02*
X122555100Y-91162400I-135000J0D01*
G01*
G37*
G36*
G01*
X122555100Y-90142400D02*
X122185100Y-90142400D01*
G75*
G02*
X122050100Y-90007400I0J135000D01*
G01*
X122050100Y-89737400D01*
G75*
G02*
X122185100Y-89602400I135000J0D01*
G01*
X122555100Y-89602400D01*
G75*
G02*
X122690100Y-89737400I0J-135000D01*
G01*
X122690100Y-90007400D01*
G75*
G02*
X122555100Y-90142400I-135000J0D01*
G01*
G37*
D16*
X159870100Y-72382400D03*
X155370100Y-72382400D03*
X159870100Y-65882400D03*
X155370100Y-65882400D03*
X125370100Y-65882400D03*
X129870100Y-65882400D03*
X125370100Y-72382400D03*
X129870100Y-72382400D03*
D17*
X137370100Y-113137400D03*
D18*
X144870100Y-120637400D03*
X144870100Y-119367400D03*
X144870100Y-118097400D03*
X144870100Y-116827400D03*
X144870100Y-115557400D03*
X144870100Y-114287400D03*
X144870100Y-113017400D03*
X144870100Y-111747400D03*
X144870100Y-110477400D03*
X144870100Y-109207400D03*
X144870100Y-107937400D03*
X144870100Y-106667400D03*
X144870100Y-105397400D03*
X144870100Y-104127400D03*
D19*
X142085100Y-103127400D03*
X140815100Y-103127400D03*
X139545100Y-103127400D03*
X138275100Y-103127400D03*
X137005100Y-103127400D03*
X135735100Y-103127400D03*
X134465100Y-103127400D03*
X133195100Y-103127400D03*
X131925100Y-103127400D03*
X130655100Y-103127400D03*
D18*
X127870100Y-104127400D03*
X127870100Y-105397400D03*
X127870100Y-106667400D03*
X127870100Y-107937400D03*
X127870100Y-109207400D03*
X127870100Y-110477400D03*
X127870100Y-111747400D03*
X127870100Y-113017400D03*
X127870100Y-114287400D03*
X127870100Y-115557400D03*
X127870100Y-116827400D03*
X127870100Y-118097400D03*
X127870100Y-119367400D03*
X127870100Y-120637400D03*
G36*
G01*
X131820100Y-89137400D02*
X131820100Y-89437400D01*
G75*
G02*
X131670100Y-89587400I-150000J0D01*
G01*
X130020100Y-89587400D01*
G75*
G02*
X129870100Y-89437400I0J150000D01*
G01*
X129870100Y-89137400D01*
G75*
G02*
X130020100Y-88987400I150000J0D01*
G01*
X131670100Y-88987400D01*
G75*
G02*
X131820100Y-89137400I0J-150000D01*
G01*
G37*
G36*
G01*
X131820100Y-87867400D02*
X131820100Y-88167400D01*
G75*
G02*
X131670100Y-88317400I-150000J0D01*
G01*
X130020100Y-88317400D01*
G75*
G02*
X129870100Y-88167400I0J150000D01*
G01*
X129870100Y-87867400D01*
G75*
G02*
X130020100Y-87717400I150000J0D01*
G01*
X131670100Y-87717400D01*
G75*
G02*
X131820100Y-87867400I0J-150000D01*
G01*
G37*
G36*
G01*
X131820100Y-86597400D02*
X131820100Y-86897400D01*
G75*
G02*
X131670100Y-87047400I-150000J0D01*
G01*
X130020100Y-87047400D01*
G75*
G02*
X129870100Y-86897400I0J150000D01*
G01*
X129870100Y-86597400D01*
G75*
G02*
X130020100Y-86447400I150000J0D01*
G01*
X131670100Y-86447400D01*
G75*
G02*
X131820100Y-86597400I0J-150000D01*
G01*
G37*
G36*
G01*
X131820100Y-85327400D02*
X131820100Y-85627400D01*
G75*
G02*
X131670100Y-85777400I-150000J0D01*
G01*
X130020100Y-85777400D01*
G75*
G02*
X129870100Y-85627400I0J150000D01*
G01*
X129870100Y-85327400D01*
G75*
G02*
X130020100Y-85177400I150000J0D01*
G01*
X131670100Y-85177400D01*
G75*
G02*
X131820100Y-85327400I0J-150000D01*
G01*
G37*
G36*
G01*
X126870100Y-85327400D02*
X126870100Y-85627400D01*
G75*
G02*
X126720100Y-85777400I-150000J0D01*
G01*
X125070100Y-85777400D01*
G75*
G02*
X124920100Y-85627400I0J150000D01*
G01*
X124920100Y-85327400D01*
G75*
G02*
X125070100Y-85177400I150000J0D01*
G01*
X126720100Y-85177400D01*
G75*
G02*
X126870100Y-85327400I0J-150000D01*
G01*
G37*
G36*
G01*
X126870100Y-86597400D02*
X126870100Y-86897400D01*
G75*
G02*
X126720100Y-87047400I-150000J0D01*
G01*
X125070100Y-87047400D01*
G75*
G02*
X124920100Y-86897400I0J150000D01*
G01*
X124920100Y-86597400D01*
G75*
G02*
X125070100Y-86447400I150000J0D01*
G01*
X126720100Y-86447400D01*
G75*
G02*
X126870100Y-86597400I0J-150000D01*
G01*
G37*
G36*
G01*
X126870100Y-87867400D02*
X126870100Y-88167400D01*
G75*
G02*
X126720100Y-88317400I-150000J0D01*
G01*
X125070100Y-88317400D01*
G75*
G02*
X124920100Y-88167400I0J150000D01*
G01*
X124920100Y-87867400D01*
G75*
G02*
X125070100Y-87717400I150000J0D01*
G01*
X126720100Y-87717400D01*
G75*
G02*
X126870100Y-87867400I0J-150000D01*
G01*
G37*
G36*
G01*
X126870100Y-89137400D02*
X126870100Y-89437400D01*
G75*
G02*
X126720100Y-89587400I-150000J0D01*
G01*
X125070100Y-89587400D01*
G75*
G02*
X124920100Y-89437400I0J150000D01*
G01*
X124920100Y-89137400D01*
G75*
G02*
X125070100Y-88987400I150000J0D01*
G01*
X126720100Y-88987400D01*
G75*
G02*
X126870100Y-89137400I0J-150000D01*
G01*
G37*
G36*
G01*
X153595100Y-75126150D02*
X153595100Y-75638650D01*
G75*
G02*
X153376350Y-75857400I-218750J0D01*
G01*
X152938850Y-75857400D01*
G75*
G02*
X152720100Y-75638650I0J218750D01*
G01*
X152720100Y-75126150D01*
G75*
G02*
X152938850Y-74907400I218750J0D01*
G01*
X153376350Y-74907400D01*
G75*
G02*
X153595100Y-75126150I0J-218750D01*
G01*
G37*
G36*
G01*
X152020100Y-75126150D02*
X152020100Y-75638650D01*
G75*
G02*
X151801350Y-75857400I-218750J0D01*
G01*
X151363850Y-75857400D01*
G75*
G02*
X151145100Y-75638650I0J218750D01*
G01*
X151145100Y-75126150D01*
G75*
G02*
X151363850Y-74907400I218750J0D01*
G01*
X151801350Y-74907400D01*
G75*
G02*
X152020100Y-75126150I0J-218750D01*
G01*
G37*
G36*
G01*
X151982600Y-78626150D02*
X151982600Y-79138650D01*
G75*
G02*
X151763850Y-79357400I-218750J0D01*
G01*
X151326350Y-79357400D01*
G75*
G02*
X151107600Y-79138650I0J218750D01*
G01*
X151107600Y-78626150D01*
G75*
G02*
X151326350Y-78407400I218750J0D01*
G01*
X151763850Y-78407400D01*
G75*
G02*
X151982600Y-78626150I0J-218750D01*
G01*
G37*
G36*
G01*
X153557600Y-78626150D02*
X153557600Y-79138650D01*
G75*
G02*
X153338850Y-79357400I-218750J0D01*
G01*
X152901350Y-79357400D01*
G75*
G02*
X152682600Y-79138650I0J218750D01*
G01*
X152682600Y-78626150D01*
G75*
G02*
X152901350Y-78407400I218750J0D01*
G01*
X153338850Y-78407400D01*
G75*
G02*
X153557600Y-78626150I0J-218750D01*
G01*
G37*
G36*
G01*
X153595100Y-81876150D02*
X153595100Y-82388650D01*
G75*
G02*
X153376350Y-82607400I-218750J0D01*
G01*
X152938850Y-82607400D01*
G75*
G02*
X152720100Y-82388650I0J218750D01*
G01*
X152720100Y-81876150D01*
G75*
G02*
X152938850Y-81657400I218750J0D01*
G01*
X153376350Y-81657400D01*
G75*
G02*
X153595100Y-81876150I0J-218750D01*
G01*
G37*
G36*
G01*
X152020100Y-81876150D02*
X152020100Y-82388650D01*
G75*
G02*
X151801350Y-82607400I-218750J0D01*
G01*
X151363850Y-82607400D01*
G75*
G02*
X151145100Y-82388650I0J218750D01*
G01*
X151145100Y-81876150D01*
G75*
G02*
X151363850Y-81657400I218750J0D01*
G01*
X151801350Y-81657400D01*
G75*
G02*
X152020100Y-81876150I0J-218750D01*
G01*
G37*
G36*
G01*
X152020100Y-85376150D02*
X152020100Y-85888650D01*
G75*
G02*
X151801350Y-86107400I-218750J0D01*
G01*
X151363850Y-86107400D01*
G75*
G02*
X151145100Y-85888650I0J218750D01*
G01*
X151145100Y-85376150D01*
G75*
G02*
X151363850Y-85157400I218750J0D01*
G01*
X151801350Y-85157400D01*
G75*
G02*
X152020100Y-85376150I0J-218750D01*
G01*
G37*
G36*
G01*
X153595100Y-85376150D02*
X153595100Y-85888650D01*
G75*
G02*
X153376350Y-86107400I-218750J0D01*
G01*
X152938850Y-86107400D01*
G75*
G02*
X152720100Y-85888650I0J218750D01*
G01*
X152720100Y-85376150D01*
G75*
G02*
X152938850Y-85157400I218750J0D01*
G01*
X153376350Y-85157400D01*
G75*
G02*
X153595100Y-85376150I0J-218750D01*
G01*
G37*
G36*
G01*
X153595100Y-88876150D02*
X153595100Y-89388650D01*
G75*
G02*
X153376350Y-89607400I-218750J0D01*
G01*
X152938850Y-89607400D01*
G75*
G02*
X152720100Y-89388650I0J218750D01*
G01*
X152720100Y-88876150D01*
G75*
G02*
X152938850Y-88657400I218750J0D01*
G01*
X153376350Y-88657400D01*
G75*
G02*
X153595100Y-88876150I0J-218750D01*
G01*
G37*
G36*
G01*
X152020100Y-88876150D02*
X152020100Y-89388650D01*
G75*
G02*
X151801350Y-89607400I-218750J0D01*
G01*
X151363850Y-89607400D01*
G75*
G02*
X151145100Y-89388650I0J218750D01*
G01*
X151145100Y-88876150D01*
G75*
G02*
X151363850Y-88657400I218750J0D01*
G01*
X151801350Y-88657400D01*
G75*
G02*
X152020100Y-88876150I0J-218750D01*
G01*
G37*
G36*
G01*
X152020100Y-92376150D02*
X152020100Y-92888650D01*
G75*
G02*
X151801350Y-93107400I-218750J0D01*
G01*
X151363850Y-93107400D01*
G75*
G02*
X151145100Y-92888650I0J218750D01*
G01*
X151145100Y-92376150D01*
G75*
G02*
X151363850Y-92157400I218750J0D01*
G01*
X151801350Y-92157400D01*
G75*
G02*
X152020100Y-92376150I0J-218750D01*
G01*
G37*
G36*
G01*
X153595100Y-92376150D02*
X153595100Y-92888650D01*
G75*
G02*
X153376350Y-93107400I-218750J0D01*
G01*
X152938850Y-93107400D01*
G75*
G02*
X152720100Y-92888650I0J218750D01*
G01*
X152720100Y-92376150D01*
G75*
G02*
X152938850Y-92157400I218750J0D01*
G01*
X153376350Y-92157400D01*
G75*
G02*
X153595100Y-92376150I0J-218750D01*
G01*
G37*
G36*
G01*
X153595100Y-95876150D02*
X153595100Y-96388650D01*
G75*
G02*
X153376350Y-96607400I-218750J0D01*
G01*
X152938850Y-96607400D01*
G75*
G02*
X152720100Y-96388650I0J218750D01*
G01*
X152720100Y-95876150D01*
G75*
G02*
X152938850Y-95657400I218750J0D01*
G01*
X153376350Y-95657400D01*
G75*
G02*
X153595100Y-95876150I0J-218750D01*
G01*
G37*
G36*
G01*
X152020100Y-95876150D02*
X152020100Y-96388650D01*
G75*
G02*
X151801350Y-96607400I-218750J0D01*
G01*
X151363850Y-96607400D01*
G75*
G02*
X151145100Y-96388650I0J218750D01*
G01*
X151145100Y-95876150D01*
G75*
G02*
X151363850Y-95657400I218750J0D01*
G01*
X151801350Y-95657400D01*
G75*
G02*
X152020100Y-95876150I0J-218750D01*
G01*
G37*
G36*
G01*
X152020100Y-76876150D02*
X152020100Y-77388650D01*
G75*
G02*
X151801350Y-77607400I-218750J0D01*
G01*
X151363850Y-77607400D01*
G75*
G02*
X151145100Y-77388650I0J218750D01*
G01*
X151145100Y-76876150D01*
G75*
G02*
X151363850Y-76657400I218750J0D01*
G01*
X151801350Y-76657400D01*
G75*
G02*
X152020100Y-76876150I0J-218750D01*
G01*
G37*
G36*
G01*
X153595100Y-76876150D02*
X153595100Y-77388650D01*
G75*
G02*
X153376350Y-77607400I-218750J0D01*
G01*
X152938850Y-77607400D01*
G75*
G02*
X152720100Y-77388650I0J218750D01*
G01*
X152720100Y-76876150D01*
G75*
G02*
X152938850Y-76657400I218750J0D01*
G01*
X153376350Y-76657400D01*
G75*
G02*
X153595100Y-76876150I0J-218750D01*
G01*
G37*
G36*
G01*
X153595100Y-80376150D02*
X153595100Y-80888650D01*
G75*
G02*
X153376350Y-81107400I-218750J0D01*
G01*
X152938850Y-81107400D01*
G75*
G02*
X152720100Y-80888650I0J218750D01*
G01*
X152720100Y-80376150D01*
G75*
G02*
X152938850Y-80157400I218750J0D01*
G01*
X153376350Y-80157400D01*
G75*
G02*
X153595100Y-80376150I0J-218750D01*
G01*
G37*
G36*
G01*
X152020100Y-80376150D02*
X152020100Y-80888650D01*
G75*
G02*
X151801350Y-81107400I-218750J0D01*
G01*
X151363850Y-81107400D01*
G75*
G02*
X151145100Y-80888650I0J218750D01*
G01*
X151145100Y-80376150D01*
G75*
G02*
X151363850Y-80157400I218750J0D01*
G01*
X151801350Y-80157400D01*
G75*
G02*
X152020100Y-80376150I0J-218750D01*
G01*
G37*
G36*
G01*
X152020100Y-83626150D02*
X152020100Y-84138650D01*
G75*
G02*
X151801350Y-84357400I-218750J0D01*
G01*
X151363850Y-84357400D01*
G75*
G02*
X151145100Y-84138650I0J218750D01*
G01*
X151145100Y-83626150D01*
G75*
G02*
X151363850Y-83407400I218750J0D01*
G01*
X151801350Y-83407400D01*
G75*
G02*
X152020100Y-83626150I0J-218750D01*
G01*
G37*
G36*
G01*
X153595100Y-83626150D02*
X153595100Y-84138650D01*
G75*
G02*
X153376350Y-84357400I-218750J0D01*
G01*
X152938850Y-84357400D01*
G75*
G02*
X152720100Y-84138650I0J218750D01*
G01*
X152720100Y-83626150D01*
G75*
G02*
X152938850Y-83407400I218750J0D01*
G01*
X153376350Y-83407400D01*
G75*
G02*
X153595100Y-83626150I0J-218750D01*
G01*
G37*
G36*
G01*
X153595100Y-87126150D02*
X153595100Y-87638650D01*
G75*
G02*
X153376350Y-87857400I-218750J0D01*
G01*
X152938850Y-87857400D01*
G75*
G02*
X152720100Y-87638650I0J218750D01*
G01*
X152720100Y-87126150D01*
G75*
G02*
X152938850Y-86907400I218750J0D01*
G01*
X153376350Y-86907400D01*
G75*
G02*
X153595100Y-87126150I0J-218750D01*
G01*
G37*
G36*
G01*
X152020100Y-87126150D02*
X152020100Y-87638650D01*
G75*
G02*
X151801350Y-87857400I-218750J0D01*
G01*
X151363850Y-87857400D01*
G75*
G02*
X151145100Y-87638650I0J218750D01*
G01*
X151145100Y-87126150D01*
G75*
G02*
X151363850Y-86907400I218750J0D01*
G01*
X151801350Y-86907400D01*
G75*
G02*
X152020100Y-87126150I0J-218750D01*
G01*
G37*
G36*
G01*
X152020100Y-90626150D02*
X152020100Y-91138650D01*
G75*
G02*
X151801350Y-91357400I-218750J0D01*
G01*
X151363850Y-91357400D01*
G75*
G02*
X151145100Y-91138650I0J218750D01*
G01*
X151145100Y-90626150D01*
G75*
G02*
X151363850Y-90407400I218750J0D01*
G01*
X151801350Y-90407400D01*
G75*
G02*
X152020100Y-90626150I0J-218750D01*
G01*
G37*
G36*
G01*
X153595100Y-90626150D02*
X153595100Y-91138650D01*
G75*
G02*
X153376350Y-91357400I-218750J0D01*
G01*
X152938850Y-91357400D01*
G75*
G02*
X152720100Y-91138650I0J218750D01*
G01*
X152720100Y-90626150D01*
G75*
G02*
X152938850Y-90407400I218750J0D01*
G01*
X153376350Y-90407400D01*
G75*
G02*
X153595100Y-90626150I0J-218750D01*
G01*
G37*
G36*
G01*
X153595100Y-94126150D02*
X153595100Y-94638650D01*
G75*
G02*
X153376350Y-94857400I-218750J0D01*
G01*
X152938850Y-94857400D01*
G75*
G02*
X152720100Y-94638650I0J218750D01*
G01*
X152720100Y-94126150D01*
G75*
G02*
X152938850Y-93907400I218750J0D01*
G01*
X153376350Y-93907400D01*
G75*
G02*
X153595100Y-94126150I0J-218750D01*
G01*
G37*
G36*
G01*
X152020100Y-94126150D02*
X152020100Y-94638650D01*
G75*
G02*
X151801350Y-94857400I-218750J0D01*
G01*
X151363850Y-94857400D01*
G75*
G02*
X151145100Y-94638650I0J218750D01*
G01*
X151145100Y-94126150D01*
G75*
G02*
X151363850Y-93907400I218750J0D01*
G01*
X151801350Y-93907400D01*
G75*
G02*
X152020100Y-94126150I0J-218750D01*
G01*
G37*
G36*
G01*
X154590100Y-75567400D02*
X154590100Y-75197400D01*
G75*
G02*
X154725100Y-75062400I135000J0D01*
G01*
X154995100Y-75062400D01*
G75*
G02*
X155130100Y-75197400I0J-135000D01*
G01*
X155130100Y-75567400D01*
G75*
G02*
X154995100Y-75702400I-135000J0D01*
G01*
X154725100Y-75702400D01*
G75*
G02*
X154590100Y-75567400I0J135000D01*
G01*
G37*
G36*
G01*
X155610100Y-75567400D02*
X155610100Y-75197400D01*
G75*
G02*
X155745100Y-75062400I135000J0D01*
G01*
X156015100Y-75062400D01*
G75*
G02*
X156150100Y-75197400I0J-135000D01*
G01*
X156150100Y-75567400D01*
G75*
G02*
X156015100Y-75702400I-135000J0D01*
G01*
X155745100Y-75702400D01*
G75*
G02*
X155610100Y-75567400I0J135000D01*
G01*
G37*
G36*
G01*
X154590100Y-79067400D02*
X154590100Y-78697400D01*
G75*
G02*
X154725100Y-78562400I135000J0D01*
G01*
X154995100Y-78562400D01*
G75*
G02*
X155130100Y-78697400I0J-135000D01*
G01*
X155130100Y-79067400D01*
G75*
G02*
X154995100Y-79202400I-135000J0D01*
G01*
X154725100Y-79202400D01*
G75*
G02*
X154590100Y-79067400I0J135000D01*
G01*
G37*
G36*
G01*
X155610100Y-79067400D02*
X155610100Y-78697400D01*
G75*
G02*
X155745100Y-78562400I135000J0D01*
G01*
X156015100Y-78562400D01*
G75*
G02*
X156150100Y-78697400I0J-135000D01*
G01*
X156150100Y-79067400D01*
G75*
G02*
X156015100Y-79202400I-135000J0D01*
G01*
X155745100Y-79202400D01*
G75*
G02*
X155610100Y-79067400I0J135000D01*
G01*
G37*
G36*
G01*
X155610100Y-82317400D02*
X155610100Y-81947400D01*
G75*
G02*
X155745100Y-81812400I135000J0D01*
G01*
X156015100Y-81812400D01*
G75*
G02*
X156150100Y-81947400I0J-135000D01*
G01*
X156150100Y-82317400D01*
G75*
G02*
X156015100Y-82452400I-135000J0D01*
G01*
X155745100Y-82452400D01*
G75*
G02*
X155610100Y-82317400I0J135000D01*
G01*
G37*
G36*
G01*
X154590100Y-82317400D02*
X154590100Y-81947400D01*
G75*
G02*
X154725100Y-81812400I135000J0D01*
G01*
X154995100Y-81812400D01*
G75*
G02*
X155130100Y-81947400I0J-135000D01*
G01*
X155130100Y-82317400D01*
G75*
G02*
X154995100Y-82452400I-135000J0D01*
G01*
X154725100Y-82452400D01*
G75*
G02*
X154590100Y-82317400I0J135000D01*
G01*
G37*
G36*
G01*
X154590100Y-85817400D02*
X154590100Y-85447400D01*
G75*
G02*
X154725100Y-85312400I135000J0D01*
G01*
X154995100Y-85312400D01*
G75*
G02*
X155130100Y-85447400I0J-135000D01*
G01*
X155130100Y-85817400D01*
G75*
G02*
X154995100Y-85952400I-135000J0D01*
G01*
X154725100Y-85952400D01*
G75*
G02*
X154590100Y-85817400I0J135000D01*
G01*
G37*
G36*
G01*
X155610100Y-85817400D02*
X155610100Y-85447400D01*
G75*
G02*
X155745100Y-85312400I135000J0D01*
G01*
X156015100Y-85312400D01*
G75*
G02*
X156150100Y-85447400I0J-135000D01*
G01*
X156150100Y-85817400D01*
G75*
G02*
X156015100Y-85952400I-135000J0D01*
G01*
X155745100Y-85952400D01*
G75*
G02*
X155610100Y-85817400I0J135000D01*
G01*
G37*
G36*
G01*
X155610100Y-89317400D02*
X155610100Y-88947400D01*
G75*
G02*
X155745100Y-88812400I135000J0D01*
G01*
X156015100Y-88812400D01*
G75*
G02*
X156150100Y-88947400I0J-135000D01*
G01*
X156150100Y-89317400D01*
G75*
G02*
X156015100Y-89452400I-135000J0D01*
G01*
X155745100Y-89452400D01*
G75*
G02*
X155610100Y-89317400I0J135000D01*
G01*
G37*
G36*
G01*
X154590100Y-89317400D02*
X154590100Y-88947400D01*
G75*
G02*
X154725100Y-88812400I135000J0D01*
G01*
X154995100Y-88812400D01*
G75*
G02*
X155130100Y-88947400I0J-135000D01*
G01*
X155130100Y-89317400D01*
G75*
G02*
X154995100Y-89452400I-135000J0D01*
G01*
X154725100Y-89452400D01*
G75*
G02*
X154590100Y-89317400I0J135000D01*
G01*
G37*
G36*
G01*
X154590100Y-92817400D02*
X154590100Y-92447400D01*
G75*
G02*
X154725100Y-92312400I135000J0D01*
G01*
X154995100Y-92312400D01*
G75*
G02*
X155130100Y-92447400I0J-135000D01*
G01*
X155130100Y-92817400D01*
G75*
G02*
X154995100Y-92952400I-135000J0D01*
G01*
X154725100Y-92952400D01*
G75*
G02*
X154590100Y-92817400I0J135000D01*
G01*
G37*
G36*
G01*
X155610100Y-92817400D02*
X155610100Y-92447400D01*
G75*
G02*
X155745100Y-92312400I135000J0D01*
G01*
X156015100Y-92312400D01*
G75*
G02*
X156150100Y-92447400I0J-135000D01*
G01*
X156150100Y-92817400D01*
G75*
G02*
X156015100Y-92952400I-135000J0D01*
G01*
X155745100Y-92952400D01*
G75*
G02*
X155610100Y-92817400I0J135000D01*
G01*
G37*
G36*
G01*
X155610100Y-96317400D02*
X155610100Y-95947400D01*
G75*
G02*
X155745100Y-95812400I135000J0D01*
G01*
X156015100Y-95812400D01*
G75*
G02*
X156150100Y-95947400I0J-135000D01*
G01*
X156150100Y-96317400D01*
G75*
G02*
X156015100Y-96452400I-135000J0D01*
G01*
X155745100Y-96452400D01*
G75*
G02*
X155610100Y-96317400I0J135000D01*
G01*
G37*
G36*
G01*
X154590100Y-96317400D02*
X154590100Y-95947400D01*
G75*
G02*
X154725100Y-95812400I135000J0D01*
G01*
X154995100Y-95812400D01*
G75*
G02*
X155130100Y-95947400I0J-135000D01*
G01*
X155130100Y-96317400D01*
G75*
G02*
X154995100Y-96452400I-135000J0D01*
G01*
X154725100Y-96452400D01*
G75*
G02*
X154590100Y-96317400I0J135000D01*
G01*
G37*
G36*
G01*
X154590100Y-77317400D02*
X154590100Y-76947400D01*
G75*
G02*
X154725100Y-76812400I135000J0D01*
G01*
X154995100Y-76812400D01*
G75*
G02*
X155130100Y-76947400I0J-135000D01*
G01*
X155130100Y-77317400D01*
G75*
G02*
X154995100Y-77452400I-135000J0D01*
G01*
X154725100Y-77452400D01*
G75*
G02*
X154590100Y-77317400I0J135000D01*
G01*
G37*
G36*
G01*
X155610100Y-77317400D02*
X155610100Y-76947400D01*
G75*
G02*
X155745100Y-76812400I135000J0D01*
G01*
X156015100Y-76812400D01*
G75*
G02*
X156150100Y-76947400I0J-135000D01*
G01*
X156150100Y-77317400D01*
G75*
G02*
X156015100Y-77452400I-135000J0D01*
G01*
X155745100Y-77452400D01*
G75*
G02*
X155610100Y-77317400I0J135000D01*
G01*
G37*
G36*
G01*
X155610100Y-80817400D02*
X155610100Y-80447400D01*
G75*
G02*
X155745100Y-80312400I135000J0D01*
G01*
X156015100Y-80312400D01*
G75*
G02*
X156150100Y-80447400I0J-135000D01*
G01*
X156150100Y-80817400D01*
G75*
G02*
X156015100Y-80952400I-135000J0D01*
G01*
X155745100Y-80952400D01*
G75*
G02*
X155610100Y-80817400I0J135000D01*
G01*
G37*
G36*
G01*
X154590100Y-80817400D02*
X154590100Y-80447400D01*
G75*
G02*
X154725100Y-80312400I135000J0D01*
G01*
X154995100Y-80312400D01*
G75*
G02*
X155130100Y-80447400I0J-135000D01*
G01*
X155130100Y-80817400D01*
G75*
G02*
X154995100Y-80952400I-135000J0D01*
G01*
X154725100Y-80952400D01*
G75*
G02*
X154590100Y-80817400I0J135000D01*
G01*
G37*
G36*
G01*
X154590100Y-84067400D02*
X154590100Y-83697400D01*
G75*
G02*
X154725100Y-83562400I135000J0D01*
G01*
X154995100Y-83562400D01*
G75*
G02*
X155130100Y-83697400I0J-135000D01*
G01*
X155130100Y-84067400D01*
G75*
G02*
X154995100Y-84202400I-135000J0D01*
G01*
X154725100Y-84202400D01*
G75*
G02*
X154590100Y-84067400I0J135000D01*
G01*
G37*
G36*
G01*
X155610100Y-84067400D02*
X155610100Y-83697400D01*
G75*
G02*
X155745100Y-83562400I135000J0D01*
G01*
X156015100Y-83562400D01*
G75*
G02*
X156150100Y-83697400I0J-135000D01*
G01*
X156150100Y-84067400D01*
G75*
G02*
X156015100Y-84202400I-135000J0D01*
G01*
X155745100Y-84202400D01*
G75*
G02*
X155610100Y-84067400I0J135000D01*
G01*
G37*
G36*
G01*
X155610100Y-87567400D02*
X155610100Y-87197400D01*
G75*
G02*
X155745100Y-87062400I135000J0D01*
G01*
X156015100Y-87062400D01*
G75*
G02*
X156150100Y-87197400I0J-135000D01*
G01*
X156150100Y-87567400D01*
G75*
G02*
X156015100Y-87702400I-135000J0D01*
G01*
X155745100Y-87702400D01*
G75*
G02*
X155610100Y-87567400I0J135000D01*
G01*
G37*
G36*
G01*
X154590100Y-87567400D02*
X154590100Y-87197400D01*
G75*
G02*
X154725100Y-87062400I135000J0D01*
G01*
X154995100Y-87062400D01*
G75*
G02*
X155130100Y-87197400I0J-135000D01*
G01*
X155130100Y-87567400D01*
G75*
G02*
X154995100Y-87702400I-135000J0D01*
G01*
X154725100Y-87702400D01*
G75*
G02*
X154590100Y-87567400I0J135000D01*
G01*
G37*
G36*
G01*
X154590100Y-91067400D02*
X154590100Y-90697400D01*
G75*
G02*
X154725100Y-90562400I135000J0D01*
G01*
X154995100Y-90562400D01*
G75*
G02*
X155130100Y-90697400I0J-135000D01*
G01*
X155130100Y-91067400D01*
G75*
G02*
X154995100Y-91202400I-135000J0D01*
G01*
X154725100Y-91202400D01*
G75*
G02*
X154590100Y-91067400I0J135000D01*
G01*
G37*
G36*
G01*
X155610100Y-91067400D02*
X155610100Y-90697400D01*
G75*
G02*
X155745100Y-90562400I135000J0D01*
G01*
X156015100Y-90562400D01*
G75*
G02*
X156150100Y-90697400I0J-135000D01*
G01*
X156150100Y-91067400D01*
G75*
G02*
X156015100Y-91202400I-135000J0D01*
G01*
X155745100Y-91202400D01*
G75*
G02*
X155610100Y-91067400I0J135000D01*
G01*
G37*
G36*
G01*
X155610100Y-94567400D02*
X155610100Y-94197400D01*
G75*
G02*
X155745100Y-94062400I135000J0D01*
G01*
X156015100Y-94062400D01*
G75*
G02*
X156150100Y-94197400I0J-135000D01*
G01*
X156150100Y-94567400D01*
G75*
G02*
X156015100Y-94702400I-135000J0D01*
G01*
X155745100Y-94702400D01*
G75*
G02*
X155610100Y-94567400I0J135000D01*
G01*
G37*
G36*
G01*
X154590100Y-94567400D02*
X154590100Y-94197400D01*
G75*
G02*
X154725100Y-94062400I135000J0D01*
G01*
X154995100Y-94062400D01*
G75*
G02*
X155130100Y-94197400I0J-135000D01*
G01*
X155130100Y-94567400D01*
G75*
G02*
X154995100Y-94702400I-135000J0D01*
G01*
X154725100Y-94702400D01*
G75*
G02*
X154590100Y-94567400I0J135000D01*
G01*
G37*
D20*
X131620100Y-47132400D03*
D21*
X121460100Y-47132400D03*
D20*
X118370100Y-53632400D03*
D22*
X115830100Y-53632400D03*
D23*
X118370100Y-56172400D03*
D22*
X115830100Y-56172400D03*
D16*
X126080100Y-57132400D03*
X128620100Y-57132400D03*
X131160100Y-57132400D03*
M02*
