%FSLAX45Y45*%
G04 Gerber Fmt 4.5, Leading zero omitted, Abs format (unit mm)*
G04 Created by KiCad (PCBNEW (5.1.9)-1) date 2021-06-13 14:24:20*
%MOMM*%
%LPD*%
G01*
G04 APERTURE LIST*
%TA.AperFunction,Profile*%
%ADD10C,0.002540*%
%TD*%
%ADD11C,0.200000*%
%ADD12C,0.300000*%
G04 APERTURE END LIST*
D10*
X11446510Y-11635740D02*
G75*
G03*
X12716510Y-12905740I1270000J0D01*
G01*
X15637510Y-12905740D02*
G75*
G03*
X16907510Y-11635740I0J1270000D01*
G01*
X12081510Y-4269740D02*
G75*
G03*
X11446510Y-4904740I0J-635000D01*
G01*
X13542010Y-4269740D02*
X12081510Y-4269740D01*
X13542010Y-6428740D02*
X13542010Y-4269740D01*
X15320010Y-6428740D02*
X13542010Y-6428740D01*
X15320010Y-4968240D02*
X15320010Y-6428740D01*
X16907510Y-4968240D02*
X15320010Y-4968240D01*
X16907510Y-11635740D02*
X16907510Y-4968240D01*
X12716510Y-12905740D02*
X15637510Y-12905740D01*
X11446510Y-4904740D02*
X11446510Y-11635740D01*
D11*
X11528010Y-5308240D02*
X11638010Y-5418240D01*
X11638010Y-5308240D02*
X11528010Y-5418240D01*
X11528010Y-5562240D02*
X11638010Y-5672240D01*
X11638010Y-5562240D02*
X11528010Y-5672240D01*
D12*
X11732811Y-13371581D02*
X11732811Y-13071581D01*
X11804240Y-13071581D01*
X11847097Y-13085867D01*
X11875669Y-13114438D01*
X11889954Y-13143010D01*
X11904240Y-13200153D01*
X11904240Y-13243010D01*
X11889954Y-13300153D01*
X11875669Y-13328724D01*
X11847097Y-13357296D01*
X11804240Y-13371581D01*
X11732811Y-13371581D01*
X12032811Y-13371581D02*
X12032811Y-13171581D01*
X12032811Y-13228724D02*
X12047097Y-13200153D01*
X12061383Y-13185867D01*
X12089954Y-13171581D01*
X12118526Y-13171581D01*
X12218526Y-13371581D02*
X12218526Y-13171581D01*
X12218526Y-13071581D02*
X12204240Y-13085867D01*
X12218526Y-13100153D01*
X12232811Y-13085867D01*
X12218526Y-13071581D01*
X12218526Y-13100153D01*
X12404240Y-13371581D02*
X12375669Y-13357296D01*
X12361383Y-13328724D01*
X12361383Y-13071581D01*
X12561383Y-13371581D02*
X12532811Y-13357296D01*
X12518526Y-13328724D01*
X12518526Y-13071581D01*
X12904240Y-13371581D02*
X12904240Y-13071581D01*
X13004240Y-13285867D01*
X13104240Y-13071581D01*
X13104240Y-13371581D01*
X13375669Y-13371581D02*
X13375669Y-13214438D01*
X13361383Y-13185867D01*
X13332811Y-13171581D01*
X13275669Y-13171581D01*
X13247097Y-13185867D01*
X13375669Y-13357296D02*
X13347097Y-13371581D01*
X13275669Y-13371581D01*
X13247097Y-13357296D01*
X13232811Y-13328724D01*
X13232811Y-13300153D01*
X13247097Y-13271581D01*
X13275669Y-13257296D01*
X13347097Y-13257296D01*
X13375669Y-13243010D01*
X13518526Y-13171581D02*
X13518526Y-13471581D01*
X13518526Y-13185867D02*
X13547097Y-13171581D01*
X13604240Y-13171581D01*
X13632811Y-13185867D01*
X13647097Y-13200153D01*
X13661383Y-13228724D01*
X13661383Y-13314438D01*
X13647097Y-13343010D01*
X13632811Y-13357296D01*
X13604240Y-13371581D01*
X13547097Y-13371581D01*
X13518526Y-13357296D01*
X13789954Y-13343010D02*
X13804240Y-13357296D01*
X13789954Y-13371581D01*
X13775669Y-13357296D01*
X13789954Y-13343010D01*
X13789954Y-13371581D01*
X13789954Y-13185867D02*
X13804240Y-13200153D01*
X13789954Y-13214438D01*
X13775669Y-13200153D01*
X13789954Y-13185867D01*
X13789954Y-13214438D01*
X11336383Y-13810867D02*
X11446383Y-13920867D01*
X11446383Y-13810867D02*
X11336383Y-13920867D01*
X11889954Y-14001581D02*
X11718526Y-14001581D01*
X11804240Y-14001581D02*
X11804240Y-13701581D01*
X11775669Y-13744438D01*
X11747097Y-13773010D01*
X11718526Y-13787296D01*
X12018526Y-13973010D02*
X12032811Y-13987296D01*
X12018526Y-14001581D01*
X12004240Y-13987296D01*
X12018526Y-13973010D01*
X12018526Y-14001581D01*
X12318526Y-14001581D02*
X12147097Y-14001581D01*
X12232811Y-14001581D02*
X12232811Y-13701581D01*
X12204240Y-13744438D01*
X12175669Y-13773010D01*
X12147097Y-13787296D01*
X12504240Y-13701581D02*
X12532811Y-13701581D01*
X12561383Y-13715867D01*
X12575669Y-13730153D01*
X12589954Y-13758724D01*
X12604240Y-13815867D01*
X12604240Y-13887296D01*
X12589954Y-13944438D01*
X12575669Y-13973010D01*
X12561383Y-13987296D01*
X12532811Y-14001581D01*
X12504240Y-14001581D01*
X12475669Y-13987296D01*
X12461383Y-13973010D01*
X12447097Y-13944438D01*
X12432811Y-13887296D01*
X12432811Y-13815867D01*
X12447097Y-13758724D01*
X12461383Y-13730153D01*
X12475669Y-13715867D01*
X12504240Y-13701581D01*
X12732811Y-14001581D02*
X12732811Y-13801581D01*
X12732811Y-13830153D02*
X12747097Y-13815867D01*
X12775669Y-13801581D01*
X12818526Y-13801581D01*
X12847097Y-13815867D01*
X12861383Y-13844438D01*
X12861383Y-14001581D01*
X12861383Y-13844438D02*
X12875669Y-13815867D01*
X12904240Y-13801581D01*
X12947097Y-13801581D01*
X12975669Y-13815867D01*
X12989954Y-13844438D01*
X12989954Y-14001581D01*
X13132811Y-14001581D02*
X13132811Y-13801581D01*
X13132811Y-13830153D02*
X13147097Y-13815867D01*
X13175669Y-13801581D01*
X13218526Y-13801581D01*
X13247097Y-13815867D01*
X13261383Y-13844438D01*
X13261383Y-14001581D01*
X13261383Y-13844438D02*
X13275669Y-13815867D01*
X13304240Y-13801581D01*
X13347097Y-13801581D01*
X13375669Y-13815867D01*
X13389954Y-13844438D01*
X13389954Y-14001581D01*
X13975669Y-13687296D02*
X13718526Y-14073010D01*
X14361383Y-13701581D02*
X14389954Y-13701581D01*
X14418526Y-13715867D01*
X14432811Y-13730153D01*
X14447097Y-13758724D01*
X14461383Y-13815867D01*
X14461383Y-13887296D01*
X14447097Y-13944438D01*
X14432811Y-13973010D01*
X14418526Y-13987296D01*
X14389954Y-14001581D01*
X14361383Y-14001581D01*
X14332811Y-13987296D01*
X14318526Y-13973010D01*
X14304240Y-13944438D01*
X14289954Y-13887296D01*
X14289954Y-13815867D01*
X14304240Y-13758724D01*
X14318526Y-13730153D01*
X14332811Y-13715867D01*
X14361383Y-13701581D01*
X14589954Y-13973010D02*
X14604240Y-13987296D01*
X14589954Y-14001581D01*
X14575669Y-13987296D01*
X14589954Y-13973010D01*
X14589954Y-14001581D01*
X14789954Y-13701581D02*
X14818526Y-13701581D01*
X14847097Y-13715867D01*
X14861383Y-13730153D01*
X14875669Y-13758724D01*
X14889954Y-13815867D01*
X14889954Y-13887296D01*
X14875669Y-13944438D01*
X14861383Y-13973010D01*
X14847097Y-13987296D01*
X14818526Y-14001581D01*
X14789954Y-14001581D01*
X14761383Y-13987296D01*
X14747097Y-13973010D01*
X14732811Y-13944438D01*
X14718526Y-13887296D01*
X14718526Y-13815867D01*
X14732811Y-13758724D01*
X14747097Y-13730153D01*
X14761383Y-13715867D01*
X14789954Y-13701581D01*
X15147097Y-13801581D02*
X15147097Y-14001581D01*
X15075669Y-13687296D02*
X15004240Y-13901581D01*
X15189954Y-13901581D01*
X15275669Y-13701581D02*
X15461383Y-13701581D01*
X15361383Y-13815867D01*
X15404240Y-13815867D01*
X15432811Y-13830153D01*
X15447097Y-13844438D01*
X15461383Y-13873010D01*
X15461383Y-13944438D01*
X15447097Y-13973010D01*
X15432811Y-13987296D01*
X15404240Y-14001581D01*
X15318526Y-14001581D01*
X15289954Y-13987296D01*
X15275669Y-13973010D01*
X15575669Y-13701581D02*
X15575669Y-13758724D01*
X15689954Y-13701581D02*
X15689954Y-13758724D01*
X16132811Y-14115867D02*
X16118526Y-14101581D01*
X16089954Y-14058724D01*
X16075669Y-14030153D01*
X16061383Y-13987296D01*
X16047097Y-13915867D01*
X16047097Y-13858724D01*
X16061383Y-13787296D01*
X16075669Y-13744438D01*
X16089954Y-13715867D01*
X16118526Y-13673010D01*
X16132811Y-13658724D01*
X16232811Y-13730153D02*
X16247097Y-13715867D01*
X16275669Y-13701581D01*
X16347097Y-13701581D01*
X16375669Y-13715867D01*
X16389954Y-13730153D01*
X16404240Y-13758724D01*
X16404240Y-13787296D01*
X16389954Y-13830153D01*
X16218526Y-14001581D01*
X16404240Y-14001581D01*
X16761383Y-14001581D02*
X16761383Y-13701581D01*
X16889954Y-14001581D02*
X16889954Y-13844438D01*
X16875669Y-13815867D01*
X16847097Y-13801581D01*
X16804240Y-13801581D01*
X16775669Y-13815867D01*
X16761383Y-13830153D01*
X17075669Y-14001581D02*
X17047097Y-13987296D01*
X17032811Y-13973010D01*
X17018526Y-13944438D01*
X17018526Y-13858724D01*
X17032811Y-13830153D01*
X17047097Y-13815867D01*
X17075669Y-13801581D01*
X17118526Y-13801581D01*
X17147097Y-13815867D01*
X17161383Y-13830153D01*
X17175669Y-13858724D01*
X17175669Y-13944438D01*
X17161383Y-13973010D01*
X17147097Y-13987296D01*
X17118526Y-14001581D01*
X17075669Y-14001581D01*
X17347097Y-14001581D02*
X17318526Y-13987296D01*
X17304240Y-13958724D01*
X17304240Y-13701581D01*
X17575669Y-13987296D02*
X17547097Y-14001581D01*
X17489954Y-14001581D01*
X17461383Y-13987296D01*
X17447097Y-13958724D01*
X17447097Y-13844438D01*
X17461383Y-13815867D01*
X17489954Y-13801581D01*
X17547097Y-13801581D01*
X17575669Y-13815867D01*
X17589954Y-13844438D01*
X17589954Y-13873010D01*
X17447097Y-13901581D01*
X17704240Y-13987296D02*
X17732811Y-14001581D01*
X17789954Y-14001581D01*
X17818526Y-13987296D01*
X17832811Y-13958724D01*
X17832811Y-13944438D01*
X17818526Y-13915867D01*
X17789954Y-13901581D01*
X17747097Y-13901581D01*
X17718526Y-13887296D01*
X17704240Y-13858724D01*
X17704240Y-13844438D01*
X17718526Y-13815867D01*
X17747097Y-13801581D01*
X17789954Y-13801581D01*
X17818526Y-13815867D01*
X17932811Y-14115867D02*
X17947097Y-14101581D01*
X17975669Y-14058724D01*
X17989954Y-14030153D01*
X18004240Y-13987296D01*
X18018526Y-13915867D01*
X18018526Y-13858724D01*
X18004240Y-13787296D01*
X17989954Y-13744438D01*
X17975669Y-13715867D01*
X17947097Y-13673010D01*
X17932811Y-13658724D01*
X18475669Y-14115867D02*
X18461383Y-14101581D01*
X18432811Y-14058724D01*
X18418526Y-14030153D01*
X18404240Y-13987296D01*
X18389954Y-13915867D01*
X18389954Y-13858724D01*
X18404240Y-13787296D01*
X18418526Y-13744438D01*
X18432811Y-13715867D01*
X18461383Y-13673010D01*
X18475669Y-13658724D01*
X18589954Y-13801581D02*
X18589954Y-14001581D01*
X18589954Y-13830153D02*
X18604240Y-13815867D01*
X18632811Y-13801581D01*
X18675669Y-13801581D01*
X18704240Y-13815867D01*
X18718526Y-13844438D01*
X18718526Y-14001581D01*
X18904240Y-14001581D02*
X18875669Y-13987296D01*
X18861383Y-13973010D01*
X18847097Y-13944438D01*
X18847097Y-13858724D01*
X18861383Y-13830153D01*
X18875669Y-13815867D01*
X18904240Y-13801581D01*
X18947097Y-13801581D01*
X18975669Y-13815867D01*
X18989954Y-13830153D01*
X19004240Y-13858724D01*
X19004240Y-13944438D01*
X18989954Y-13973010D01*
X18975669Y-13987296D01*
X18947097Y-14001581D01*
X18904240Y-14001581D01*
X19089954Y-13801581D02*
X19204240Y-13801581D01*
X19132811Y-13701581D02*
X19132811Y-13958724D01*
X19147097Y-13987296D01*
X19175669Y-14001581D01*
X19204240Y-14001581D01*
X19532811Y-13801581D02*
X19532811Y-14101581D01*
X19532811Y-13815867D02*
X19561383Y-13801581D01*
X19618526Y-13801581D01*
X19647097Y-13815867D01*
X19661383Y-13830153D01*
X19675669Y-13858724D01*
X19675669Y-13944438D01*
X19661383Y-13973010D01*
X19647097Y-13987296D01*
X19618526Y-14001581D01*
X19561383Y-14001581D01*
X19532811Y-13987296D01*
X19847097Y-14001581D02*
X19818526Y-13987296D01*
X19804240Y-13958724D01*
X19804240Y-13701581D01*
X20089954Y-14001581D02*
X20089954Y-13844438D01*
X20075669Y-13815867D01*
X20047097Y-13801581D01*
X19989954Y-13801581D01*
X19961383Y-13815867D01*
X20089954Y-13987296D02*
X20061383Y-14001581D01*
X19989954Y-14001581D01*
X19961383Y-13987296D01*
X19947097Y-13958724D01*
X19947097Y-13930153D01*
X19961383Y-13901581D01*
X19989954Y-13887296D01*
X20061383Y-13887296D01*
X20089954Y-13873010D01*
X20189954Y-13801581D02*
X20304240Y-13801581D01*
X20232811Y-13701581D02*
X20232811Y-13958724D01*
X20247097Y-13987296D01*
X20275669Y-14001581D01*
X20304240Y-14001581D01*
X20518526Y-13987296D02*
X20489954Y-14001581D01*
X20432811Y-14001581D01*
X20404240Y-13987296D01*
X20389954Y-13958724D01*
X20389954Y-13844438D01*
X20404240Y-13815867D01*
X20432811Y-13801581D01*
X20489954Y-13801581D01*
X20518526Y-13815867D01*
X20532811Y-13844438D01*
X20532811Y-13873010D01*
X20389954Y-13901581D01*
X20789954Y-14001581D02*
X20789954Y-13701581D01*
X20789954Y-13987296D02*
X20761383Y-14001581D01*
X20704240Y-14001581D01*
X20675669Y-13987296D01*
X20661383Y-13973010D01*
X20647097Y-13944438D01*
X20647097Y-13858724D01*
X20661383Y-13830153D01*
X20675669Y-13815867D01*
X20704240Y-13801581D01*
X20761383Y-13801581D01*
X20789954Y-13815867D01*
X20904240Y-14115867D02*
X20918526Y-14101581D01*
X20947097Y-14058724D01*
X20961383Y-14030153D01*
X20975669Y-13987296D01*
X20989954Y-13915867D01*
X20989954Y-13858724D01*
X20975669Y-13787296D01*
X20961383Y-13744438D01*
X20947097Y-13715867D01*
X20918526Y-13673010D01*
X20904240Y-13658724D01*
M02*
