%FSLAX45Y45*%
G04 Gerber Fmt 4.5, Leading zero omitted, Abs format (unit mm)*
G04 Created by KiCad (PCBNEW (5.1.9)-1) date 2021-06-13 14:24:20*
%MOMM*%
%LPD*%
G01*
G04 APERTURE LIST*
%TA.AperFunction,Profile*%
%ADD10C,0.002540*%
%TD*%
%ADD11C,0.200000*%
%ADD12C,0.300000*%
G04 APERTURE END LIST*
D10*
X11446510Y-11635740D02*
G75*
G03*
X12716510Y-12905740I1270000J0D01*
G01*
X15637510Y-12905740D02*
G75*
G03*
X16907510Y-11635740I0J1270000D01*
G01*
X12081510Y-4269740D02*
G75*
G03*
X11446510Y-4904740I0J-635000D01*
G01*
X13542010Y-4269740D02*
X12081510Y-4269740D01*
X13542010Y-6428740D02*
X13542010Y-4269740D01*
X15320010Y-6428740D02*
X13542010Y-6428740D01*
X15320010Y-4968240D02*
X15320010Y-6428740D01*
X16907510Y-4968240D02*
X15320010Y-4968240D01*
X16907510Y-11635740D02*
X16907510Y-4968240D01*
X12716510Y-12905740D02*
X15637510Y-12905740D01*
X11446510Y-4904740D02*
X11446510Y-11635740D01*
D11*
X12067010Y-8243240D02*
X12107010Y-8283240D01*
X12107010Y-8243240D02*
X12067010Y-8283240D01*
X12067010Y-8718240D02*
X12107010Y-8758240D01*
X12107010Y-8718240D02*
X12067010Y-8758240D01*
X12067010Y-10268240D02*
X12107010Y-10308240D01*
X12107010Y-10268240D02*
X12067010Y-10308240D01*
X12092010Y-7218240D02*
X12132010Y-7258240D01*
X12132010Y-7218240D02*
X12092010Y-7258240D01*
X12092010Y-7443240D02*
X12132010Y-7483240D01*
X12132010Y-7443240D02*
X12092010Y-7483240D01*
X12092010Y-9443240D02*
X12132010Y-9483240D01*
X12132010Y-9443240D02*
X12092010Y-9483240D01*
X12117010Y-6943240D02*
X12157010Y-6983240D01*
X12157010Y-6943240D02*
X12117010Y-6983240D01*
X12117010Y-11068240D02*
X12157010Y-11108240D01*
X12157010Y-11068240D02*
X12117010Y-11108240D01*
X12142010Y-7993240D02*
X12182010Y-8033240D01*
X12182010Y-7993240D02*
X12142010Y-8033240D01*
X12142010Y-11443240D02*
X12182010Y-11483240D01*
X12182010Y-11443240D02*
X12142010Y-11483240D01*
X12167010Y-9568240D02*
X12207010Y-9608240D01*
X12207010Y-9568240D02*
X12167010Y-9608240D01*
X12167010Y-9918240D02*
X12207010Y-9958240D01*
X12207010Y-9918240D02*
X12167010Y-9958240D01*
X12242010Y-7468240D02*
X12282010Y-7508240D01*
X12282010Y-7468240D02*
X12242010Y-7508240D01*
X12267010Y-9268240D02*
X12307010Y-9308240D01*
X12307010Y-9268240D02*
X12267010Y-9308240D01*
X12292010Y-6993240D02*
X12332010Y-7033240D01*
X12332010Y-6993240D02*
X12292010Y-7033240D01*
X12292010Y-7243240D02*
X12332010Y-7283240D01*
X12332010Y-7243240D02*
X12292010Y-7283240D01*
X12292010Y-10118240D02*
X12332010Y-10158240D01*
X12332010Y-10118240D02*
X12292010Y-10158240D01*
X12292010Y-10493240D02*
X12332010Y-10533240D01*
X12332010Y-10493240D02*
X12292010Y-10533240D01*
X12297010Y-11057240D02*
X12337010Y-11097240D01*
X12337010Y-11057240D02*
X12297010Y-11097240D01*
X12342010Y-8393240D02*
X12382010Y-8433240D01*
X12382010Y-8393240D02*
X12342010Y-8433240D01*
X12367010Y-8668240D02*
X12407010Y-8708240D01*
X12407010Y-8668240D02*
X12367010Y-8708240D01*
X12417010Y-9168240D02*
X12457010Y-9208240D01*
X12457010Y-9168240D02*
X12417010Y-9208240D01*
X12417010Y-11393240D02*
X12457010Y-11433240D01*
X12457010Y-11393240D02*
X12417010Y-11433240D01*
X12442010Y-10868240D02*
X12482010Y-10908240D01*
X12482010Y-10868240D02*
X12442010Y-10908240D01*
X12517010Y-11393240D02*
X12557010Y-11433240D01*
X12557010Y-11393240D02*
X12517010Y-11433240D01*
X12592010Y-7768240D02*
X12632010Y-7808240D01*
X12632010Y-7768240D02*
X12592010Y-7808240D01*
X12592010Y-11668240D02*
X12632010Y-11708240D01*
X12632010Y-11668240D02*
X12592010Y-11708240D01*
X12592010Y-12043240D02*
X12632010Y-12083240D01*
X12632010Y-12043240D02*
X12592010Y-12083240D01*
X12717010Y-8218240D02*
X12757010Y-8258240D01*
X12757010Y-8218240D02*
X12717010Y-8258240D01*
X12717010Y-8893240D02*
X12757010Y-8933240D01*
X12757010Y-8893240D02*
X12717010Y-8933240D01*
X12917010Y-9743240D02*
X12957010Y-9783240D01*
X12957010Y-9743240D02*
X12917010Y-9783240D01*
X12942010Y-11543240D02*
X12982010Y-11583240D01*
X12982010Y-11543240D02*
X12942010Y-11583240D01*
X12967010Y-9268240D02*
X13007010Y-9308240D01*
X13007010Y-9268240D02*
X12967010Y-9308240D01*
X12992010Y-7718240D02*
X13032010Y-7758240D01*
X13032010Y-7718240D02*
X12992010Y-7758240D01*
X13242010Y-10668240D02*
X13282010Y-10708240D01*
X13282010Y-10668240D02*
X13242010Y-10708240D01*
X13542010Y-9793240D02*
X13582010Y-9833240D01*
X13582010Y-9793240D02*
X13542010Y-9833240D01*
X13667010Y-10793240D02*
X13707010Y-10833240D01*
X13707010Y-10793240D02*
X13667010Y-10833240D01*
X13767010Y-9018240D02*
X13807010Y-9058240D01*
X13807010Y-9018240D02*
X13767010Y-9058240D01*
X13917010Y-9493240D02*
X13957010Y-9533240D01*
X13957010Y-9493240D02*
X13917010Y-9533240D01*
X14167010Y-10668240D02*
X14207010Y-10708240D01*
X14207010Y-10668240D02*
X14167010Y-10708240D01*
X14167010Y-11518240D02*
X14207010Y-11558240D01*
X14207010Y-11518240D02*
X14167010Y-11558240D01*
X14467010Y-9743240D02*
X14507010Y-9783240D01*
X14507010Y-9743240D02*
X14467010Y-9783240D01*
X15001515Y-10068080D02*
X15041515Y-10108080D01*
X15041515Y-10068080D02*
X15001515Y-10108080D01*
X15017010Y-7518240D02*
X15057010Y-7558240D01*
X15057010Y-7518240D02*
X15017010Y-7558240D01*
X15542010Y-10118240D02*
X15582010Y-10158240D01*
X15582010Y-10118240D02*
X15542010Y-10158240D01*
X12658010Y-5713240D02*
G75*
G03*
X12658010Y-5713240I-50000J0D01*
G01*
X12912010Y-5713240D02*
G75*
G03*
X12912010Y-5713240I-50000J0D01*
G01*
X13166010Y-5713240D02*
G75*
G03*
X13166010Y-5713240I-50000J0D01*
G01*
X11637010Y-6187440D02*
X11637010Y-6289040D01*
X11586210Y-6238240D02*
X11687810Y-6238240D01*
X11637010Y-6441440D02*
X11637010Y-6543040D01*
X11586210Y-6492240D02*
X11687810Y-6492240D01*
X11637010Y-6695440D02*
X11637010Y-6797040D01*
X11586210Y-6746240D02*
X11687810Y-6746240D01*
X11637010Y-6949440D02*
X11637010Y-7051040D01*
X11586210Y-7000240D02*
X11687810Y-7000240D01*
X11637010Y-7203440D02*
X11637010Y-7305040D01*
X11586210Y-7254240D02*
X11687810Y-7254240D01*
X11637010Y-7457440D02*
X11637010Y-7559040D01*
X11586210Y-7508240D02*
X11687810Y-7508240D01*
X11637010Y-7711440D02*
X11637010Y-7813040D01*
X11586210Y-7762240D02*
X11687810Y-7762240D01*
X11637010Y-7965440D02*
X11637010Y-8067040D01*
X11586210Y-8016240D02*
X11687810Y-8016240D01*
X11637010Y-8219440D02*
X11637010Y-8321040D01*
X11586210Y-8270240D02*
X11687810Y-8270240D01*
X11637010Y-8473440D02*
X11637010Y-8575040D01*
X11586210Y-8524240D02*
X11687810Y-8524240D01*
X11637010Y-8727440D02*
X11637010Y-8829040D01*
X11586210Y-8778240D02*
X11687810Y-8778240D01*
X11637010Y-8981440D02*
X11637010Y-9083040D01*
X11586210Y-9032240D02*
X11687810Y-9032240D01*
X11637010Y-9235440D02*
X11637010Y-9337040D01*
X11586210Y-9286240D02*
X11687810Y-9286240D01*
X11637010Y-9489440D02*
X11637010Y-9591040D01*
X11586210Y-9540240D02*
X11687810Y-9540240D01*
X11637010Y-9743440D02*
X11637010Y-9845040D01*
X11586210Y-9794240D02*
X11687810Y-9794240D01*
X11637010Y-9997440D02*
X11637010Y-10099040D01*
X11586210Y-10048240D02*
X11687810Y-10048240D01*
X11637010Y-10251440D02*
X11637010Y-10353040D01*
X11586210Y-10302240D02*
X11687810Y-10302240D01*
X11637010Y-10505440D02*
X11637010Y-10607040D01*
X11586210Y-10556240D02*
X11687810Y-10556240D01*
X11637010Y-10759440D02*
X11637010Y-10861040D01*
X11586210Y-10810240D02*
X11687810Y-10810240D01*
X11637010Y-11013440D02*
X11637010Y-11115040D01*
X11586210Y-11064240D02*
X11687810Y-11064240D01*
X11637010Y-11267440D02*
X11637010Y-11369040D01*
X11586210Y-11318240D02*
X11687810Y-11318240D01*
X11637010Y-11521440D02*
X11637010Y-11623040D01*
X11586210Y-11572240D02*
X11687810Y-11572240D01*
X11637010Y-11775440D02*
X11637010Y-11877040D01*
X11586210Y-11826240D02*
X11687810Y-11826240D01*
X11891010Y-6187440D02*
X11891010Y-6289040D01*
X11840210Y-6238240D02*
X11941810Y-6238240D01*
X11891010Y-6441440D02*
X11891010Y-6543040D01*
X11840210Y-6492240D02*
X11941810Y-6492240D01*
X11891010Y-6695440D02*
X11891010Y-6797040D01*
X11840210Y-6746240D02*
X11941810Y-6746240D01*
X11891010Y-6949440D02*
X11891010Y-7051040D01*
X11840210Y-7000240D02*
X11941810Y-7000240D01*
X11891010Y-7203440D02*
X11891010Y-7305040D01*
X11840210Y-7254240D02*
X11941810Y-7254240D01*
X11891010Y-7457440D02*
X11891010Y-7559040D01*
X11840210Y-7508240D02*
X11941810Y-7508240D01*
X11891010Y-7711440D02*
X11891010Y-7813040D01*
X11840210Y-7762240D02*
X11941810Y-7762240D01*
X11891010Y-7965440D02*
X11891010Y-8067040D01*
X11840210Y-8016240D02*
X11941810Y-8016240D01*
X11891010Y-8219440D02*
X11891010Y-8321040D01*
X11840210Y-8270240D02*
X11941810Y-8270240D01*
X11891010Y-8473440D02*
X11891010Y-8575040D01*
X11840210Y-8524240D02*
X11941810Y-8524240D01*
X11891010Y-8727440D02*
X11891010Y-8829040D01*
X11840210Y-8778240D02*
X11941810Y-8778240D01*
X11891010Y-8981440D02*
X11891010Y-9083040D01*
X11840210Y-9032240D02*
X11941810Y-9032240D01*
X11891010Y-9235440D02*
X11891010Y-9337040D01*
X11840210Y-9286240D02*
X11941810Y-9286240D01*
X11891010Y-9489440D02*
X11891010Y-9591040D01*
X11840210Y-9540240D02*
X11941810Y-9540240D01*
X11891010Y-9743440D02*
X11891010Y-9845040D01*
X11840210Y-9794240D02*
X11941810Y-9794240D01*
X11891010Y-9997440D02*
X11891010Y-10099040D01*
X11840210Y-10048240D02*
X11941810Y-10048240D01*
X11891010Y-10251440D02*
X11891010Y-10353040D01*
X11840210Y-10302240D02*
X11941810Y-10302240D01*
X11891010Y-10505440D02*
X11891010Y-10607040D01*
X11840210Y-10556240D02*
X11941810Y-10556240D01*
X11891010Y-10759440D02*
X11891010Y-10861040D01*
X11840210Y-10810240D02*
X11941810Y-10810240D01*
X11891010Y-11013440D02*
X11891010Y-11115040D01*
X11840210Y-11064240D02*
X11941810Y-11064240D01*
X11891010Y-11267440D02*
X11891010Y-11369040D01*
X11840210Y-11318240D02*
X11941810Y-11318240D01*
X11891010Y-11521440D02*
X11891010Y-11623040D01*
X11840210Y-11572240D02*
X11941810Y-11572240D01*
X11891010Y-11775440D02*
X11891010Y-11877040D01*
X11840210Y-11826240D02*
X11941810Y-11826240D01*
X16463010Y-6187440D02*
X16463010Y-6289040D01*
X16412210Y-6238240D02*
X16513810Y-6238240D01*
X16463010Y-6441440D02*
X16463010Y-6543040D01*
X16412210Y-6492240D02*
X16513810Y-6492240D01*
X16463010Y-6695440D02*
X16463010Y-6797040D01*
X16412210Y-6746240D02*
X16513810Y-6746240D01*
X16463010Y-6949440D02*
X16463010Y-7051040D01*
X16412210Y-7000240D02*
X16513810Y-7000240D01*
X16463010Y-7203440D02*
X16463010Y-7305040D01*
X16412210Y-7254240D02*
X16513810Y-7254240D01*
X16463010Y-7457440D02*
X16463010Y-7559040D01*
X16412210Y-7508240D02*
X16513810Y-7508240D01*
X16463010Y-7711440D02*
X16463010Y-7813040D01*
X16412210Y-7762240D02*
X16513810Y-7762240D01*
X16463010Y-7965440D02*
X16463010Y-8067040D01*
X16412210Y-8016240D02*
X16513810Y-8016240D01*
X16463010Y-8219440D02*
X16463010Y-8321040D01*
X16412210Y-8270240D02*
X16513810Y-8270240D01*
X16463010Y-8473440D02*
X16463010Y-8575040D01*
X16412210Y-8524240D02*
X16513810Y-8524240D01*
X16463010Y-8727440D02*
X16463010Y-8829040D01*
X16412210Y-8778240D02*
X16513810Y-8778240D01*
X16463010Y-8981440D02*
X16463010Y-9083040D01*
X16412210Y-9032240D02*
X16513810Y-9032240D01*
X16463010Y-9235440D02*
X16463010Y-9337040D01*
X16412210Y-9286240D02*
X16513810Y-9286240D01*
X16463010Y-9489440D02*
X16463010Y-9591040D01*
X16412210Y-9540240D02*
X16513810Y-9540240D01*
X16463010Y-9743440D02*
X16463010Y-9845040D01*
X16412210Y-9794240D02*
X16513810Y-9794240D01*
X16463010Y-9997440D02*
X16463010Y-10099040D01*
X16412210Y-10048240D02*
X16513810Y-10048240D01*
X16463010Y-10251440D02*
X16463010Y-10353040D01*
X16412210Y-10302240D02*
X16513810Y-10302240D01*
X16463010Y-10505440D02*
X16463010Y-10607040D01*
X16412210Y-10556240D02*
X16513810Y-10556240D01*
X16463010Y-10759440D02*
X16463010Y-10861040D01*
X16412210Y-10810240D02*
X16513810Y-10810240D01*
X16463010Y-11013440D02*
X16463010Y-11115040D01*
X16412210Y-11064240D02*
X16513810Y-11064240D01*
X16463010Y-11267440D02*
X16463010Y-11369040D01*
X16412210Y-11318240D02*
X16513810Y-11318240D01*
X16463010Y-11521440D02*
X16463010Y-11623040D01*
X16412210Y-11572240D02*
X16513810Y-11572240D01*
X16463010Y-11775440D02*
X16463010Y-11877040D01*
X16412210Y-11826240D02*
X16513810Y-11826240D01*
X16717010Y-6187440D02*
X16717010Y-6289040D01*
X16666210Y-6238240D02*
X16767810Y-6238240D01*
X16717010Y-6441440D02*
X16717010Y-6543040D01*
X16666210Y-6492240D02*
X16767810Y-6492240D01*
X16717010Y-6695440D02*
X16717010Y-6797040D01*
X16666210Y-6746240D02*
X16767810Y-6746240D01*
X16717010Y-6949440D02*
X16717010Y-7051040D01*
X16666210Y-7000240D02*
X16767810Y-7000240D01*
X16717010Y-7203440D02*
X16717010Y-7305040D01*
X16666210Y-7254240D02*
X16767810Y-7254240D01*
X16717010Y-7457440D02*
X16717010Y-7559040D01*
X16666210Y-7508240D02*
X16767810Y-7508240D01*
X16717010Y-7711440D02*
X16717010Y-7813040D01*
X16666210Y-7762240D02*
X16767810Y-7762240D01*
X16717010Y-7965440D02*
X16717010Y-8067040D01*
X16666210Y-8016240D02*
X16767810Y-8016240D01*
X16717010Y-8219440D02*
X16717010Y-8321040D01*
X16666210Y-8270240D02*
X16767810Y-8270240D01*
X16717010Y-8473440D02*
X16717010Y-8575040D01*
X16666210Y-8524240D02*
X16767810Y-8524240D01*
X16717010Y-8727440D02*
X16717010Y-8829040D01*
X16666210Y-8778240D02*
X16767810Y-8778240D01*
X16717010Y-8981440D02*
X16717010Y-9083040D01*
X16666210Y-9032240D02*
X16767810Y-9032240D01*
X16717010Y-9235440D02*
X16717010Y-9337040D01*
X16666210Y-9286240D02*
X16767810Y-9286240D01*
X16717010Y-9489440D02*
X16717010Y-9591040D01*
X16666210Y-9540240D02*
X16767810Y-9540240D01*
X16717010Y-9743440D02*
X16717010Y-9845040D01*
X16666210Y-9794240D02*
X16767810Y-9794240D01*
X16717010Y-9997440D02*
X16717010Y-10099040D01*
X16666210Y-10048240D02*
X16767810Y-10048240D01*
X16717010Y-10251440D02*
X16717010Y-10353040D01*
X16666210Y-10302240D02*
X16767810Y-10302240D01*
X16717010Y-10505440D02*
X16717010Y-10607040D01*
X16666210Y-10556240D02*
X16767810Y-10556240D01*
X16717010Y-10759440D02*
X16717010Y-10861040D01*
X16666210Y-10810240D02*
X16767810Y-10810240D01*
X16717010Y-11013440D02*
X16717010Y-11115040D01*
X16666210Y-11064240D02*
X16767810Y-11064240D01*
X16717010Y-11267440D02*
X16717010Y-11369040D01*
X16666210Y-11318240D02*
X16767810Y-11318240D01*
X16717010Y-11521440D02*
X16717010Y-11623040D01*
X16666210Y-11572240D02*
X16767810Y-11572240D01*
X16717010Y-11775440D02*
X16717010Y-11877040D01*
X16666210Y-11826240D02*
X16767810Y-11826240D01*
X11875901Y-5402131D02*
X11875901Y-5324349D01*
X11798119Y-5324349D01*
X11798119Y-5402131D01*
X11875901Y-5402131D01*
X11875901Y-5656131D02*
X11875901Y-5578349D01*
X11798119Y-5578349D01*
X11798119Y-5656131D01*
X11875901Y-5656131D01*
X12184901Y-4752131D02*
X12184901Y-4674349D01*
X12107119Y-4674349D01*
X12107119Y-4752131D01*
X12184901Y-4752131D01*
X12575901Y-6627131D02*
X12575901Y-6549349D01*
X12498119Y-6549349D01*
X12498119Y-6627131D01*
X12575901Y-6627131D01*
X12575901Y-7277131D02*
X12575901Y-7199349D01*
X12498119Y-7199349D01*
X12498119Y-7277131D01*
X12575901Y-7277131D01*
X13025901Y-6627131D02*
X13025901Y-6549349D01*
X12948119Y-6549349D01*
X12948119Y-6627131D01*
X13025901Y-6627131D01*
X13025901Y-7277131D02*
X13025901Y-7199349D01*
X12948119Y-7199349D01*
X12948119Y-7277131D01*
X13025901Y-7277131D01*
X13200901Y-4752131D02*
X13200901Y-4674349D01*
X13123119Y-4674349D01*
X13123119Y-4752131D01*
X13200901Y-4752131D01*
X15575901Y-6627131D02*
X15575901Y-6549349D01*
X15498119Y-6549349D01*
X15498119Y-6627131D01*
X15575901Y-6627131D01*
X15575901Y-7277131D02*
X15575901Y-7199349D01*
X15498119Y-7199349D01*
X15498119Y-7277131D01*
X15575901Y-7277131D01*
X16025901Y-6627131D02*
X16025901Y-6549349D01*
X15948119Y-6549349D01*
X15948119Y-6627131D01*
X16025901Y-6627131D01*
X16025901Y-7277131D02*
X16025901Y-7199349D01*
X15948119Y-7199349D01*
X15948119Y-7277131D01*
X16025901Y-7277131D01*
X15137010Y-11895740D02*
X15194510Y-11838240D01*
X15137010Y-11780740D01*
X15079510Y-11838240D01*
X15137010Y-11895740D01*
X15637010Y-11895740D02*
X15694510Y-11838240D01*
X15637010Y-11780740D01*
X15579510Y-11838240D01*
X15637010Y-11895740D01*
D12*
X11732811Y-13371581D02*
X11732811Y-13071581D01*
X11804240Y-13071581D01*
X11847097Y-13085867D01*
X11875669Y-13114438D01*
X11889954Y-13143010D01*
X11904240Y-13200153D01*
X11904240Y-13243010D01*
X11889954Y-13300153D01*
X11875669Y-13328724D01*
X11847097Y-13357296D01*
X11804240Y-13371581D01*
X11732811Y-13371581D01*
X12032811Y-13371581D02*
X12032811Y-13171581D01*
X12032811Y-13228724D02*
X12047097Y-13200153D01*
X12061383Y-13185867D01*
X12089954Y-13171581D01*
X12118526Y-13171581D01*
X12218526Y-13371581D02*
X12218526Y-13171581D01*
X12218526Y-13071581D02*
X12204240Y-13085867D01*
X12218526Y-13100153D01*
X12232811Y-13085867D01*
X12218526Y-13071581D01*
X12218526Y-13100153D01*
X12404240Y-13371581D02*
X12375669Y-13357296D01*
X12361383Y-13328724D01*
X12361383Y-13071581D01*
X12561383Y-13371581D02*
X12532811Y-13357296D01*
X12518526Y-13328724D01*
X12518526Y-13071581D01*
X12904240Y-13371581D02*
X12904240Y-13071581D01*
X13004240Y-13285867D01*
X13104240Y-13071581D01*
X13104240Y-13371581D01*
X13375669Y-13371581D02*
X13375669Y-13214438D01*
X13361383Y-13185867D01*
X13332811Y-13171581D01*
X13275669Y-13171581D01*
X13247097Y-13185867D01*
X13375669Y-13357296D02*
X13347097Y-13371581D01*
X13275669Y-13371581D01*
X13247097Y-13357296D01*
X13232811Y-13328724D01*
X13232811Y-13300153D01*
X13247097Y-13271581D01*
X13275669Y-13257296D01*
X13347097Y-13257296D01*
X13375669Y-13243010D01*
X13518526Y-13171581D02*
X13518526Y-13471581D01*
X13518526Y-13185867D02*
X13547097Y-13171581D01*
X13604240Y-13171581D01*
X13632811Y-13185867D01*
X13647097Y-13200153D01*
X13661383Y-13228724D01*
X13661383Y-13314438D01*
X13647097Y-13343010D01*
X13632811Y-13357296D01*
X13604240Y-13371581D01*
X13547097Y-13371581D01*
X13518526Y-13357296D01*
X13789954Y-13343010D02*
X13804240Y-13357296D01*
X13789954Y-13371581D01*
X13775669Y-13357296D01*
X13789954Y-13343010D01*
X13789954Y-13371581D01*
X13789954Y-13185867D02*
X13804240Y-13200153D01*
X13789954Y-13214438D01*
X13775669Y-13200153D01*
X13789954Y-13185867D01*
X13789954Y-13214438D01*
X11406383Y-13845867D02*
X11446383Y-13885867D01*
X11446383Y-13845867D02*
X11406383Y-13885867D01*
X11789954Y-13701581D02*
X11818526Y-13701581D01*
X11847097Y-13715867D01*
X11861383Y-13730153D01*
X11875669Y-13758724D01*
X11889954Y-13815867D01*
X11889954Y-13887296D01*
X11875669Y-13944438D01*
X11861383Y-13973010D01*
X11847097Y-13987296D01*
X11818526Y-14001581D01*
X11789954Y-14001581D01*
X11761383Y-13987296D01*
X11747097Y-13973010D01*
X11732811Y-13944438D01*
X11718526Y-13887296D01*
X11718526Y-13815867D01*
X11732811Y-13758724D01*
X11747097Y-13730153D01*
X11761383Y-13715867D01*
X11789954Y-13701581D01*
X12018526Y-13973010D02*
X12032811Y-13987296D01*
X12018526Y-14001581D01*
X12004240Y-13987296D01*
X12018526Y-13973010D01*
X12018526Y-14001581D01*
X12289954Y-13801581D02*
X12289954Y-14001581D01*
X12218526Y-13687296D02*
X12147097Y-13901581D01*
X12332811Y-13901581D01*
X12504240Y-13701581D02*
X12532811Y-13701581D01*
X12561383Y-13715867D01*
X12575669Y-13730153D01*
X12589954Y-13758724D01*
X12604240Y-13815867D01*
X12604240Y-13887296D01*
X12589954Y-13944438D01*
X12575669Y-13973010D01*
X12561383Y-13987296D01*
X12532811Y-14001581D01*
X12504240Y-14001581D01*
X12475669Y-13987296D01*
X12461383Y-13973010D01*
X12447097Y-13944438D01*
X12432811Y-13887296D01*
X12432811Y-13815867D01*
X12447097Y-13758724D01*
X12461383Y-13730153D01*
X12475669Y-13715867D01*
X12504240Y-13701581D01*
X12732811Y-14001581D02*
X12732811Y-13801581D01*
X12732811Y-13830153D02*
X12747097Y-13815867D01*
X12775669Y-13801581D01*
X12818526Y-13801581D01*
X12847097Y-13815867D01*
X12861383Y-13844438D01*
X12861383Y-14001581D01*
X12861383Y-13844438D02*
X12875669Y-13815867D01*
X12904240Y-13801581D01*
X12947097Y-13801581D01*
X12975669Y-13815867D01*
X12989954Y-13844438D01*
X12989954Y-14001581D01*
X13132811Y-14001581D02*
X13132811Y-13801581D01*
X13132811Y-13830153D02*
X13147097Y-13815867D01*
X13175669Y-13801581D01*
X13218526Y-13801581D01*
X13247097Y-13815867D01*
X13261383Y-13844438D01*
X13261383Y-14001581D01*
X13261383Y-13844438D02*
X13275669Y-13815867D01*
X13304240Y-13801581D01*
X13347097Y-13801581D01*
X13375669Y-13815867D01*
X13389954Y-13844438D01*
X13389954Y-14001581D01*
X13975669Y-13687296D02*
X13718526Y-14073010D01*
X14361383Y-13701581D02*
X14389954Y-13701581D01*
X14418526Y-13715867D01*
X14432811Y-13730153D01*
X14447097Y-13758724D01*
X14461383Y-13815867D01*
X14461383Y-13887296D01*
X14447097Y-13944438D01*
X14432811Y-13973010D01*
X14418526Y-13987296D01*
X14389954Y-14001581D01*
X14361383Y-14001581D01*
X14332811Y-13987296D01*
X14318526Y-13973010D01*
X14304240Y-13944438D01*
X14289954Y-13887296D01*
X14289954Y-13815867D01*
X14304240Y-13758724D01*
X14318526Y-13730153D01*
X14332811Y-13715867D01*
X14361383Y-13701581D01*
X14589954Y-13973010D02*
X14604240Y-13987296D01*
X14589954Y-14001581D01*
X14575669Y-13987296D01*
X14589954Y-13973010D01*
X14589954Y-14001581D01*
X14789954Y-13701581D02*
X14818526Y-13701581D01*
X14847097Y-13715867D01*
X14861383Y-13730153D01*
X14875669Y-13758724D01*
X14889954Y-13815867D01*
X14889954Y-13887296D01*
X14875669Y-13944438D01*
X14861383Y-13973010D01*
X14847097Y-13987296D01*
X14818526Y-14001581D01*
X14789954Y-14001581D01*
X14761383Y-13987296D01*
X14747097Y-13973010D01*
X14732811Y-13944438D01*
X14718526Y-13887296D01*
X14718526Y-13815867D01*
X14732811Y-13758724D01*
X14747097Y-13730153D01*
X14761383Y-13715867D01*
X14789954Y-13701581D01*
X15175669Y-14001581D02*
X15004240Y-14001581D01*
X15089954Y-14001581D02*
X15089954Y-13701581D01*
X15061383Y-13744438D01*
X15032811Y-13773010D01*
X15004240Y-13787296D01*
X15432811Y-13701581D02*
X15375669Y-13701581D01*
X15347097Y-13715867D01*
X15332811Y-13730153D01*
X15304240Y-13773010D01*
X15289954Y-13830153D01*
X15289954Y-13944438D01*
X15304240Y-13973010D01*
X15318526Y-13987296D01*
X15347097Y-14001581D01*
X15404240Y-14001581D01*
X15432811Y-13987296D01*
X15447097Y-13973010D01*
X15461383Y-13944438D01*
X15461383Y-13873010D01*
X15447097Y-13844438D01*
X15432811Y-13830153D01*
X15404240Y-13815867D01*
X15347097Y-13815867D01*
X15318526Y-13830153D01*
X15304240Y-13844438D01*
X15289954Y-13873010D01*
X15575669Y-13701581D02*
X15575669Y-13758724D01*
X15689954Y-13701581D02*
X15689954Y-13758724D01*
X16132811Y-14115867D02*
X16118526Y-14101581D01*
X16089954Y-14058724D01*
X16075669Y-14030153D01*
X16061383Y-13987296D01*
X16047097Y-13915867D01*
X16047097Y-13858724D01*
X16061383Y-13787296D01*
X16075669Y-13744438D01*
X16089954Y-13715867D01*
X16118526Y-13673010D01*
X16132811Y-13658724D01*
X16375669Y-13801581D02*
X16375669Y-14001581D01*
X16304240Y-13687296D02*
X16232811Y-13901581D01*
X16418526Y-13901581D01*
X16675669Y-13701581D02*
X16532811Y-13701581D01*
X16518526Y-13844438D01*
X16532811Y-13830153D01*
X16561383Y-13815867D01*
X16632811Y-13815867D01*
X16661383Y-13830153D01*
X16675669Y-13844438D01*
X16689954Y-13873010D01*
X16689954Y-13944438D01*
X16675669Y-13973010D01*
X16661383Y-13987296D01*
X16632811Y-14001581D01*
X16561383Y-14001581D01*
X16532811Y-13987296D01*
X16518526Y-13973010D01*
X17047097Y-14001581D02*
X17047097Y-13701581D01*
X17175669Y-14001581D02*
X17175669Y-13844438D01*
X17161383Y-13815867D01*
X17132811Y-13801581D01*
X17089954Y-13801581D01*
X17061383Y-13815867D01*
X17047097Y-13830153D01*
X17361383Y-14001581D02*
X17332811Y-13987296D01*
X17318526Y-13973010D01*
X17304240Y-13944438D01*
X17304240Y-13858724D01*
X17318526Y-13830153D01*
X17332811Y-13815867D01*
X17361383Y-13801581D01*
X17404240Y-13801581D01*
X17432811Y-13815867D01*
X17447097Y-13830153D01*
X17461383Y-13858724D01*
X17461383Y-13944438D01*
X17447097Y-13973010D01*
X17432811Y-13987296D01*
X17404240Y-14001581D01*
X17361383Y-14001581D01*
X17632811Y-14001581D02*
X17604240Y-13987296D01*
X17589954Y-13958724D01*
X17589954Y-13701581D01*
X17861383Y-13987296D02*
X17832811Y-14001581D01*
X17775669Y-14001581D01*
X17747097Y-13987296D01*
X17732811Y-13958724D01*
X17732811Y-13844438D01*
X17747097Y-13815867D01*
X17775669Y-13801581D01*
X17832811Y-13801581D01*
X17861383Y-13815867D01*
X17875669Y-13844438D01*
X17875669Y-13873010D01*
X17732811Y-13901581D01*
X17989954Y-13987296D02*
X18018526Y-14001581D01*
X18075669Y-14001581D01*
X18104240Y-13987296D01*
X18118526Y-13958724D01*
X18118526Y-13944438D01*
X18104240Y-13915867D01*
X18075669Y-13901581D01*
X18032811Y-13901581D01*
X18004240Y-13887296D01*
X17989954Y-13858724D01*
X17989954Y-13844438D01*
X18004240Y-13815867D01*
X18032811Y-13801581D01*
X18075669Y-13801581D01*
X18104240Y-13815867D01*
X18218526Y-14115867D02*
X18232811Y-14101581D01*
X18261383Y-14058724D01*
X18275669Y-14030153D01*
X18289954Y-13987296D01*
X18304240Y-13915867D01*
X18304240Y-13858724D01*
X18289954Y-13787296D01*
X18275669Y-13744438D01*
X18261383Y-13715867D01*
X18232811Y-13673010D01*
X18218526Y-13658724D01*
X11446383Y-14261867D02*
G75*
G03*
X11446383Y-14261867I-50000J0D01*
G01*
X11889954Y-14397581D02*
X11718526Y-14397581D01*
X11804240Y-14397581D02*
X11804240Y-14097581D01*
X11775669Y-14140438D01*
X11747097Y-14169010D01*
X11718526Y-14183296D01*
X12018526Y-14369010D02*
X12032811Y-14383296D01*
X12018526Y-14397581D01*
X12004240Y-14383296D01*
X12018526Y-14369010D01*
X12018526Y-14397581D01*
X12218526Y-14097581D02*
X12247097Y-14097581D01*
X12275669Y-14111867D01*
X12289954Y-14126153D01*
X12304240Y-14154724D01*
X12318526Y-14211867D01*
X12318526Y-14283296D01*
X12304240Y-14340438D01*
X12289954Y-14369010D01*
X12275669Y-14383296D01*
X12247097Y-14397581D01*
X12218526Y-14397581D01*
X12189954Y-14383296D01*
X12175669Y-14369010D01*
X12161383Y-14340438D01*
X12147097Y-14283296D01*
X12147097Y-14211867D01*
X12161383Y-14154724D01*
X12175669Y-14126153D01*
X12189954Y-14111867D01*
X12218526Y-14097581D01*
X12504240Y-14097581D02*
X12532811Y-14097581D01*
X12561383Y-14111867D01*
X12575669Y-14126153D01*
X12589954Y-14154724D01*
X12604240Y-14211867D01*
X12604240Y-14283296D01*
X12589954Y-14340438D01*
X12575669Y-14369010D01*
X12561383Y-14383296D01*
X12532811Y-14397581D01*
X12504240Y-14397581D01*
X12475669Y-14383296D01*
X12461383Y-14369010D01*
X12447097Y-14340438D01*
X12432811Y-14283296D01*
X12432811Y-14211867D01*
X12447097Y-14154724D01*
X12461383Y-14126153D01*
X12475669Y-14111867D01*
X12504240Y-14097581D01*
X12732811Y-14397581D02*
X12732811Y-14197581D01*
X12732811Y-14226153D02*
X12747097Y-14211867D01*
X12775669Y-14197581D01*
X12818526Y-14197581D01*
X12847097Y-14211867D01*
X12861383Y-14240438D01*
X12861383Y-14397581D01*
X12861383Y-14240438D02*
X12875669Y-14211867D01*
X12904240Y-14197581D01*
X12947097Y-14197581D01*
X12975669Y-14211867D01*
X12989954Y-14240438D01*
X12989954Y-14397581D01*
X13132811Y-14397581D02*
X13132811Y-14197581D01*
X13132811Y-14226153D02*
X13147097Y-14211867D01*
X13175669Y-14197581D01*
X13218526Y-14197581D01*
X13247097Y-14211867D01*
X13261383Y-14240438D01*
X13261383Y-14397581D01*
X13261383Y-14240438D02*
X13275669Y-14211867D01*
X13304240Y-14197581D01*
X13347097Y-14197581D01*
X13375669Y-14211867D01*
X13389954Y-14240438D01*
X13389954Y-14397581D01*
X13975669Y-14083296D02*
X13718526Y-14469010D01*
X14361383Y-14097581D02*
X14389954Y-14097581D01*
X14418526Y-14111867D01*
X14432811Y-14126153D01*
X14447097Y-14154724D01*
X14461383Y-14211867D01*
X14461383Y-14283296D01*
X14447097Y-14340438D01*
X14432811Y-14369010D01*
X14418526Y-14383296D01*
X14389954Y-14397581D01*
X14361383Y-14397581D01*
X14332811Y-14383296D01*
X14318526Y-14369010D01*
X14304240Y-14340438D01*
X14289954Y-14283296D01*
X14289954Y-14211867D01*
X14304240Y-14154724D01*
X14318526Y-14126153D01*
X14332811Y-14111867D01*
X14361383Y-14097581D01*
X14589954Y-14369010D02*
X14604240Y-14383296D01*
X14589954Y-14397581D01*
X14575669Y-14383296D01*
X14589954Y-14369010D01*
X14589954Y-14397581D01*
X14789954Y-14097581D02*
X14818526Y-14097581D01*
X14847097Y-14111867D01*
X14861383Y-14126153D01*
X14875669Y-14154724D01*
X14889954Y-14211867D01*
X14889954Y-14283296D01*
X14875669Y-14340438D01*
X14861383Y-14369010D01*
X14847097Y-14383296D01*
X14818526Y-14397581D01*
X14789954Y-14397581D01*
X14761383Y-14383296D01*
X14747097Y-14369010D01*
X14732811Y-14340438D01*
X14718526Y-14283296D01*
X14718526Y-14211867D01*
X14732811Y-14154724D01*
X14747097Y-14126153D01*
X14761383Y-14111867D01*
X14789954Y-14097581D01*
X14989954Y-14097581D02*
X15175669Y-14097581D01*
X15075669Y-14211867D01*
X15118526Y-14211867D01*
X15147097Y-14226153D01*
X15161383Y-14240438D01*
X15175669Y-14269010D01*
X15175669Y-14340438D01*
X15161383Y-14369010D01*
X15147097Y-14383296D01*
X15118526Y-14397581D01*
X15032811Y-14397581D01*
X15004240Y-14383296D01*
X14989954Y-14369010D01*
X15318526Y-14397581D02*
X15375669Y-14397581D01*
X15404240Y-14383296D01*
X15418526Y-14369010D01*
X15447097Y-14326153D01*
X15461383Y-14269010D01*
X15461383Y-14154724D01*
X15447097Y-14126153D01*
X15432811Y-14111867D01*
X15404240Y-14097581D01*
X15347097Y-14097581D01*
X15318526Y-14111867D01*
X15304240Y-14126153D01*
X15289954Y-14154724D01*
X15289954Y-14226153D01*
X15304240Y-14254724D01*
X15318526Y-14269010D01*
X15347097Y-14283296D01*
X15404240Y-14283296D01*
X15432811Y-14269010D01*
X15447097Y-14254724D01*
X15461383Y-14226153D01*
X15575669Y-14097581D02*
X15575669Y-14154724D01*
X15689954Y-14097581D02*
X15689954Y-14154724D01*
X16132811Y-14511867D02*
X16118526Y-14497581D01*
X16089954Y-14454724D01*
X16075669Y-14426153D01*
X16061383Y-14383296D01*
X16047097Y-14311867D01*
X16047097Y-14254724D01*
X16061383Y-14183296D01*
X16075669Y-14140438D01*
X16089954Y-14111867D01*
X16118526Y-14069010D01*
X16132811Y-14054724D01*
X16218526Y-14097581D02*
X16404240Y-14097581D01*
X16304240Y-14211867D01*
X16347097Y-14211867D01*
X16375669Y-14226153D01*
X16389954Y-14240438D01*
X16404240Y-14269010D01*
X16404240Y-14340438D01*
X16389954Y-14369010D01*
X16375669Y-14383296D01*
X16347097Y-14397581D01*
X16261383Y-14397581D01*
X16232811Y-14383296D01*
X16218526Y-14369010D01*
X16761383Y-14397581D02*
X16761383Y-14097581D01*
X16889954Y-14397581D02*
X16889954Y-14240438D01*
X16875669Y-14211867D01*
X16847097Y-14197581D01*
X16804240Y-14197581D01*
X16775669Y-14211867D01*
X16761383Y-14226153D01*
X17075669Y-14397581D02*
X17047097Y-14383296D01*
X17032811Y-14369010D01*
X17018526Y-14340438D01*
X17018526Y-14254724D01*
X17032811Y-14226153D01*
X17047097Y-14211867D01*
X17075669Y-14197581D01*
X17118526Y-14197581D01*
X17147097Y-14211867D01*
X17161383Y-14226153D01*
X17175669Y-14254724D01*
X17175669Y-14340438D01*
X17161383Y-14369010D01*
X17147097Y-14383296D01*
X17118526Y-14397581D01*
X17075669Y-14397581D01*
X17347097Y-14397581D02*
X17318526Y-14383296D01*
X17304240Y-14354724D01*
X17304240Y-14097581D01*
X17575669Y-14383296D02*
X17547097Y-14397581D01*
X17489954Y-14397581D01*
X17461383Y-14383296D01*
X17447097Y-14354724D01*
X17447097Y-14240438D01*
X17461383Y-14211867D01*
X17489954Y-14197581D01*
X17547097Y-14197581D01*
X17575669Y-14211867D01*
X17589954Y-14240438D01*
X17589954Y-14269010D01*
X17447097Y-14297581D01*
X17704240Y-14383296D02*
X17732811Y-14397581D01*
X17789954Y-14397581D01*
X17818526Y-14383296D01*
X17832811Y-14354724D01*
X17832811Y-14340438D01*
X17818526Y-14311867D01*
X17789954Y-14297581D01*
X17747097Y-14297581D01*
X17718526Y-14283296D01*
X17704240Y-14254724D01*
X17704240Y-14240438D01*
X17718526Y-14211867D01*
X17747097Y-14197581D01*
X17789954Y-14197581D01*
X17818526Y-14211867D01*
X17932811Y-14511867D02*
X17947097Y-14497581D01*
X17975669Y-14454724D01*
X17989954Y-14426153D01*
X18004240Y-14383296D01*
X18018526Y-14311867D01*
X18018526Y-14254724D01*
X18004240Y-14183296D01*
X17989954Y-14140438D01*
X17975669Y-14111867D01*
X17947097Y-14069010D01*
X17932811Y-14054724D01*
X11395583Y-14607067D02*
X11395583Y-14708667D01*
X11344783Y-14657867D02*
X11446383Y-14657867D01*
X11889954Y-14793581D02*
X11718526Y-14793581D01*
X11804240Y-14793581D02*
X11804240Y-14493581D01*
X11775669Y-14536438D01*
X11747097Y-14565010D01*
X11718526Y-14579296D01*
X12018526Y-14765010D02*
X12032811Y-14779296D01*
X12018526Y-14793581D01*
X12004240Y-14779296D01*
X12018526Y-14765010D01*
X12018526Y-14793581D01*
X12218526Y-14493581D02*
X12247097Y-14493581D01*
X12275669Y-14507867D01*
X12289954Y-14522153D01*
X12304240Y-14550724D01*
X12318526Y-14607867D01*
X12318526Y-14679296D01*
X12304240Y-14736438D01*
X12289954Y-14765010D01*
X12275669Y-14779296D01*
X12247097Y-14793581D01*
X12218526Y-14793581D01*
X12189954Y-14779296D01*
X12175669Y-14765010D01*
X12161383Y-14736438D01*
X12147097Y-14679296D01*
X12147097Y-14607867D01*
X12161383Y-14550724D01*
X12175669Y-14522153D01*
X12189954Y-14507867D01*
X12218526Y-14493581D01*
X12432811Y-14522153D02*
X12447097Y-14507867D01*
X12475669Y-14493581D01*
X12547097Y-14493581D01*
X12575669Y-14507867D01*
X12589954Y-14522153D01*
X12604240Y-14550724D01*
X12604240Y-14579296D01*
X12589954Y-14622153D01*
X12418526Y-14793581D01*
X12604240Y-14793581D01*
X12732811Y-14793581D02*
X12732811Y-14593581D01*
X12732811Y-14622153D02*
X12747097Y-14607867D01*
X12775669Y-14593581D01*
X12818526Y-14593581D01*
X12847097Y-14607867D01*
X12861383Y-14636438D01*
X12861383Y-14793581D01*
X12861383Y-14636438D02*
X12875669Y-14607867D01*
X12904240Y-14593581D01*
X12947097Y-14593581D01*
X12975669Y-14607867D01*
X12989954Y-14636438D01*
X12989954Y-14793581D01*
X13132811Y-14793581D02*
X13132811Y-14593581D01*
X13132811Y-14622153D02*
X13147097Y-14607867D01*
X13175669Y-14593581D01*
X13218526Y-14593581D01*
X13247097Y-14607867D01*
X13261383Y-14636438D01*
X13261383Y-14793581D01*
X13261383Y-14636438D02*
X13275669Y-14607867D01*
X13304240Y-14593581D01*
X13347097Y-14593581D01*
X13375669Y-14607867D01*
X13389954Y-14636438D01*
X13389954Y-14793581D01*
X13975669Y-14479296D02*
X13718526Y-14865010D01*
X14361383Y-14493581D02*
X14389954Y-14493581D01*
X14418526Y-14507867D01*
X14432811Y-14522153D01*
X14447097Y-14550724D01*
X14461383Y-14607867D01*
X14461383Y-14679296D01*
X14447097Y-14736438D01*
X14432811Y-14765010D01*
X14418526Y-14779296D01*
X14389954Y-14793581D01*
X14361383Y-14793581D01*
X14332811Y-14779296D01*
X14318526Y-14765010D01*
X14304240Y-14736438D01*
X14289954Y-14679296D01*
X14289954Y-14607867D01*
X14304240Y-14550724D01*
X14318526Y-14522153D01*
X14332811Y-14507867D01*
X14361383Y-14493581D01*
X14589954Y-14765010D02*
X14604240Y-14779296D01*
X14589954Y-14793581D01*
X14575669Y-14779296D01*
X14589954Y-14765010D01*
X14589954Y-14793581D01*
X14789954Y-14493581D02*
X14818526Y-14493581D01*
X14847097Y-14507867D01*
X14861383Y-14522153D01*
X14875669Y-14550724D01*
X14889954Y-14607867D01*
X14889954Y-14679296D01*
X14875669Y-14736438D01*
X14861383Y-14765010D01*
X14847097Y-14779296D01*
X14818526Y-14793581D01*
X14789954Y-14793581D01*
X14761383Y-14779296D01*
X14747097Y-14765010D01*
X14732811Y-14736438D01*
X14718526Y-14679296D01*
X14718526Y-14607867D01*
X14732811Y-14550724D01*
X14747097Y-14522153D01*
X14761383Y-14507867D01*
X14789954Y-14493581D01*
X15147097Y-14593581D02*
X15147097Y-14793581D01*
X15075669Y-14479296D02*
X15004240Y-14693581D01*
X15189954Y-14693581D01*
X15361383Y-14493581D02*
X15389954Y-14493581D01*
X15418526Y-14507867D01*
X15432811Y-14522153D01*
X15447097Y-14550724D01*
X15461383Y-14607867D01*
X15461383Y-14679296D01*
X15447097Y-14736438D01*
X15432811Y-14765010D01*
X15418526Y-14779296D01*
X15389954Y-14793581D01*
X15361383Y-14793581D01*
X15332811Y-14779296D01*
X15318526Y-14765010D01*
X15304240Y-14736438D01*
X15289954Y-14679296D01*
X15289954Y-14607867D01*
X15304240Y-14550724D01*
X15318526Y-14522153D01*
X15332811Y-14507867D01*
X15361383Y-14493581D01*
X15575669Y-14493581D02*
X15575669Y-14550724D01*
X15689954Y-14493581D02*
X15689954Y-14550724D01*
X16132811Y-14907867D02*
X16118526Y-14893581D01*
X16089954Y-14850724D01*
X16075669Y-14822153D01*
X16061383Y-14779296D01*
X16047097Y-14707867D01*
X16047097Y-14650724D01*
X16061383Y-14579296D01*
X16075669Y-14536438D01*
X16089954Y-14507867D01*
X16118526Y-14465010D01*
X16132811Y-14450724D01*
X16261383Y-14793581D02*
X16318526Y-14793581D01*
X16347097Y-14779296D01*
X16361383Y-14765010D01*
X16389954Y-14722153D01*
X16404240Y-14665010D01*
X16404240Y-14550724D01*
X16389954Y-14522153D01*
X16375669Y-14507867D01*
X16347097Y-14493581D01*
X16289954Y-14493581D01*
X16261383Y-14507867D01*
X16247097Y-14522153D01*
X16232811Y-14550724D01*
X16232811Y-14622153D01*
X16247097Y-14650724D01*
X16261383Y-14665010D01*
X16289954Y-14679296D01*
X16347097Y-14679296D01*
X16375669Y-14665010D01*
X16389954Y-14650724D01*
X16404240Y-14622153D01*
X16518526Y-14522153D02*
X16532811Y-14507867D01*
X16561383Y-14493581D01*
X16632811Y-14493581D01*
X16661383Y-14507867D01*
X16675669Y-14522153D01*
X16689954Y-14550724D01*
X16689954Y-14579296D01*
X16675669Y-14622153D01*
X16504240Y-14793581D01*
X16689954Y-14793581D01*
X17047097Y-14793581D02*
X17047097Y-14493581D01*
X17175669Y-14793581D02*
X17175669Y-14636438D01*
X17161383Y-14607867D01*
X17132811Y-14593581D01*
X17089954Y-14593581D01*
X17061383Y-14607867D01*
X17047097Y-14622153D01*
X17361383Y-14793581D02*
X17332811Y-14779296D01*
X17318526Y-14765010D01*
X17304240Y-14736438D01*
X17304240Y-14650724D01*
X17318526Y-14622153D01*
X17332811Y-14607867D01*
X17361383Y-14593581D01*
X17404240Y-14593581D01*
X17432811Y-14607867D01*
X17447097Y-14622153D01*
X17461383Y-14650724D01*
X17461383Y-14736438D01*
X17447097Y-14765010D01*
X17432811Y-14779296D01*
X17404240Y-14793581D01*
X17361383Y-14793581D01*
X17632811Y-14793581D02*
X17604240Y-14779296D01*
X17589954Y-14750724D01*
X17589954Y-14493581D01*
X17861383Y-14779296D02*
X17832811Y-14793581D01*
X17775669Y-14793581D01*
X17747097Y-14779296D01*
X17732811Y-14750724D01*
X17732811Y-14636438D01*
X17747097Y-14607867D01*
X17775669Y-14593581D01*
X17832811Y-14593581D01*
X17861383Y-14607867D01*
X17875669Y-14636438D01*
X17875669Y-14665010D01*
X17732811Y-14693581D01*
X17989954Y-14779296D02*
X18018526Y-14793581D01*
X18075669Y-14793581D01*
X18104240Y-14779296D01*
X18118526Y-14750724D01*
X18118526Y-14736438D01*
X18104240Y-14707867D01*
X18075669Y-14693581D01*
X18032811Y-14693581D01*
X18004240Y-14679296D01*
X17989954Y-14650724D01*
X17989954Y-14636438D01*
X18004240Y-14607867D01*
X18032811Y-14593581D01*
X18075669Y-14593581D01*
X18104240Y-14607867D01*
X18218526Y-14907867D02*
X18232811Y-14893581D01*
X18261383Y-14850724D01*
X18275669Y-14822153D01*
X18289954Y-14779296D01*
X18304240Y-14707867D01*
X18304240Y-14650724D01*
X18289954Y-14579296D01*
X18275669Y-14536438D01*
X18261383Y-14507867D01*
X18232811Y-14465010D01*
X18218526Y-14450724D01*
X11430274Y-15092758D02*
X11430274Y-15014976D01*
X11352492Y-15014976D01*
X11352492Y-15092758D01*
X11430274Y-15092758D01*
X11889954Y-15189581D02*
X11718526Y-15189581D01*
X11804240Y-15189581D02*
X11804240Y-14889581D01*
X11775669Y-14932438D01*
X11747097Y-14961010D01*
X11718526Y-14975296D01*
X12018526Y-15161010D02*
X12032811Y-15175296D01*
X12018526Y-15189581D01*
X12004240Y-15175296D01*
X12018526Y-15161010D01*
X12018526Y-15189581D01*
X12318526Y-15189581D02*
X12147097Y-15189581D01*
X12232811Y-15189581D02*
X12232811Y-14889581D01*
X12204240Y-14932438D01*
X12175669Y-14961010D01*
X12147097Y-14975296D01*
X12504240Y-14889581D02*
X12532811Y-14889581D01*
X12561383Y-14903867D01*
X12575669Y-14918153D01*
X12589954Y-14946724D01*
X12604240Y-15003867D01*
X12604240Y-15075296D01*
X12589954Y-15132438D01*
X12575669Y-15161010D01*
X12561383Y-15175296D01*
X12532811Y-15189581D01*
X12504240Y-15189581D01*
X12475669Y-15175296D01*
X12461383Y-15161010D01*
X12447097Y-15132438D01*
X12432811Y-15075296D01*
X12432811Y-15003867D01*
X12447097Y-14946724D01*
X12461383Y-14918153D01*
X12475669Y-14903867D01*
X12504240Y-14889581D01*
X12732811Y-15189581D02*
X12732811Y-14989581D01*
X12732811Y-15018153D02*
X12747097Y-15003867D01*
X12775669Y-14989581D01*
X12818526Y-14989581D01*
X12847097Y-15003867D01*
X12861383Y-15032438D01*
X12861383Y-15189581D01*
X12861383Y-15032438D02*
X12875669Y-15003867D01*
X12904240Y-14989581D01*
X12947097Y-14989581D01*
X12975669Y-15003867D01*
X12989954Y-15032438D01*
X12989954Y-15189581D01*
X13132811Y-15189581D02*
X13132811Y-14989581D01*
X13132811Y-15018153D02*
X13147097Y-15003867D01*
X13175669Y-14989581D01*
X13218526Y-14989581D01*
X13247097Y-15003867D01*
X13261383Y-15032438D01*
X13261383Y-15189581D01*
X13261383Y-15032438D02*
X13275669Y-15003867D01*
X13304240Y-14989581D01*
X13347097Y-14989581D01*
X13375669Y-15003867D01*
X13389954Y-15032438D01*
X13389954Y-15189581D01*
X13975669Y-14875296D02*
X13718526Y-15261010D01*
X14361383Y-14889581D02*
X14389954Y-14889581D01*
X14418526Y-14903867D01*
X14432811Y-14918153D01*
X14447097Y-14946724D01*
X14461383Y-15003867D01*
X14461383Y-15075296D01*
X14447097Y-15132438D01*
X14432811Y-15161010D01*
X14418526Y-15175296D01*
X14389954Y-15189581D01*
X14361383Y-15189581D01*
X14332811Y-15175296D01*
X14318526Y-15161010D01*
X14304240Y-15132438D01*
X14289954Y-15075296D01*
X14289954Y-15003867D01*
X14304240Y-14946724D01*
X14318526Y-14918153D01*
X14332811Y-14903867D01*
X14361383Y-14889581D01*
X14589954Y-15161010D02*
X14604240Y-15175296D01*
X14589954Y-15189581D01*
X14575669Y-15175296D01*
X14589954Y-15161010D01*
X14589954Y-15189581D01*
X14789954Y-14889581D02*
X14818526Y-14889581D01*
X14847097Y-14903867D01*
X14861383Y-14918153D01*
X14875669Y-14946724D01*
X14889954Y-15003867D01*
X14889954Y-15075296D01*
X14875669Y-15132438D01*
X14861383Y-15161010D01*
X14847097Y-15175296D01*
X14818526Y-15189581D01*
X14789954Y-15189581D01*
X14761383Y-15175296D01*
X14747097Y-15161010D01*
X14732811Y-15132438D01*
X14718526Y-15075296D01*
X14718526Y-15003867D01*
X14732811Y-14946724D01*
X14747097Y-14918153D01*
X14761383Y-14903867D01*
X14789954Y-14889581D01*
X15147097Y-14989581D02*
X15147097Y-15189581D01*
X15075669Y-14875296D02*
X15004240Y-15089581D01*
X15189954Y-15089581D01*
X15275669Y-14889581D02*
X15461383Y-14889581D01*
X15361383Y-15003867D01*
X15404240Y-15003867D01*
X15432811Y-15018153D01*
X15447097Y-15032438D01*
X15461383Y-15061010D01*
X15461383Y-15132438D01*
X15447097Y-15161010D01*
X15432811Y-15175296D01*
X15404240Y-15189581D01*
X15318526Y-15189581D01*
X15289954Y-15175296D01*
X15275669Y-15161010D01*
X15575669Y-14889581D02*
X15575669Y-14946724D01*
X15689954Y-14889581D02*
X15689954Y-14946724D01*
X16132811Y-15303867D02*
X16118526Y-15289581D01*
X16089954Y-15246724D01*
X16075669Y-15218153D01*
X16061383Y-15175296D01*
X16047097Y-15103867D01*
X16047097Y-15046724D01*
X16061383Y-14975296D01*
X16075669Y-14932438D01*
X16089954Y-14903867D01*
X16118526Y-14861010D01*
X16132811Y-14846724D01*
X16404240Y-15189581D02*
X16232811Y-15189581D01*
X16318526Y-15189581D02*
X16318526Y-14889581D01*
X16289954Y-14932438D01*
X16261383Y-14961010D01*
X16232811Y-14975296D01*
X16518526Y-14918153D02*
X16532811Y-14903867D01*
X16561383Y-14889581D01*
X16632811Y-14889581D01*
X16661383Y-14903867D01*
X16675669Y-14918153D01*
X16689954Y-14946724D01*
X16689954Y-14975296D01*
X16675669Y-15018153D01*
X16504240Y-15189581D01*
X16689954Y-15189581D01*
X17047097Y-15189581D02*
X17047097Y-14889581D01*
X17175669Y-15189581D02*
X17175669Y-15032438D01*
X17161383Y-15003867D01*
X17132811Y-14989581D01*
X17089954Y-14989581D01*
X17061383Y-15003867D01*
X17047097Y-15018153D01*
X17361383Y-15189581D02*
X17332811Y-15175296D01*
X17318526Y-15161010D01*
X17304240Y-15132438D01*
X17304240Y-15046724D01*
X17318526Y-15018153D01*
X17332811Y-15003867D01*
X17361383Y-14989581D01*
X17404240Y-14989581D01*
X17432811Y-15003867D01*
X17447097Y-15018153D01*
X17461383Y-15046724D01*
X17461383Y-15132438D01*
X17447097Y-15161010D01*
X17432811Y-15175296D01*
X17404240Y-15189581D01*
X17361383Y-15189581D01*
X17632811Y-15189581D02*
X17604240Y-15175296D01*
X17589954Y-15146724D01*
X17589954Y-14889581D01*
X17861383Y-15175296D02*
X17832811Y-15189581D01*
X17775669Y-15189581D01*
X17747097Y-15175296D01*
X17732811Y-15146724D01*
X17732811Y-15032438D01*
X17747097Y-15003867D01*
X17775669Y-14989581D01*
X17832811Y-14989581D01*
X17861383Y-15003867D01*
X17875669Y-15032438D01*
X17875669Y-15061010D01*
X17732811Y-15089581D01*
X17989954Y-15175296D02*
X18018526Y-15189581D01*
X18075669Y-15189581D01*
X18104240Y-15175296D01*
X18118526Y-15146724D01*
X18118526Y-15132438D01*
X18104240Y-15103867D01*
X18075669Y-15089581D01*
X18032811Y-15089581D01*
X18004240Y-15075296D01*
X17989954Y-15046724D01*
X17989954Y-15032438D01*
X18004240Y-15003867D01*
X18032811Y-14989581D01*
X18075669Y-14989581D01*
X18104240Y-15003867D01*
X18218526Y-15303867D02*
X18232811Y-15289581D01*
X18261383Y-15246724D01*
X18275669Y-15218153D01*
X18289954Y-15175296D01*
X18304240Y-15103867D01*
X18304240Y-15046724D01*
X18289954Y-14975296D01*
X18275669Y-14932438D01*
X18261383Y-14903867D01*
X18232811Y-14861010D01*
X18218526Y-14846724D01*
X11388883Y-15507367D02*
X11446383Y-15449867D01*
X11388883Y-15392367D01*
X11331383Y-15449867D01*
X11388883Y-15507367D01*
X11889954Y-15585581D02*
X11718526Y-15585581D01*
X11804240Y-15585581D02*
X11804240Y-15285581D01*
X11775669Y-15328438D01*
X11747097Y-15357010D01*
X11718526Y-15371296D01*
X12018526Y-15557010D02*
X12032811Y-15571296D01*
X12018526Y-15585581D01*
X12004240Y-15571296D01*
X12018526Y-15557010D01*
X12018526Y-15585581D01*
X12318526Y-15585581D02*
X12147097Y-15585581D01*
X12232811Y-15585581D02*
X12232811Y-15285581D01*
X12204240Y-15328438D01*
X12175669Y-15357010D01*
X12147097Y-15371296D01*
X12589954Y-15285581D02*
X12447097Y-15285581D01*
X12432811Y-15428438D01*
X12447097Y-15414153D01*
X12475669Y-15399867D01*
X12547097Y-15399867D01*
X12575669Y-15414153D01*
X12589954Y-15428438D01*
X12604240Y-15457010D01*
X12604240Y-15528438D01*
X12589954Y-15557010D01*
X12575669Y-15571296D01*
X12547097Y-15585581D01*
X12475669Y-15585581D01*
X12447097Y-15571296D01*
X12432811Y-15557010D01*
X12732811Y-15585581D02*
X12732811Y-15385581D01*
X12732811Y-15414153D02*
X12747097Y-15399867D01*
X12775669Y-15385581D01*
X12818526Y-15385581D01*
X12847097Y-15399867D01*
X12861383Y-15428438D01*
X12861383Y-15585581D01*
X12861383Y-15428438D02*
X12875669Y-15399867D01*
X12904240Y-15385581D01*
X12947097Y-15385581D01*
X12975669Y-15399867D01*
X12989954Y-15428438D01*
X12989954Y-15585581D01*
X13132811Y-15585581D02*
X13132811Y-15385581D01*
X13132811Y-15414153D02*
X13147097Y-15399867D01*
X13175669Y-15385581D01*
X13218526Y-15385581D01*
X13247097Y-15399867D01*
X13261383Y-15428438D01*
X13261383Y-15585581D01*
X13261383Y-15428438D02*
X13275669Y-15399867D01*
X13304240Y-15385581D01*
X13347097Y-15385581D01*
X13375669Y-15399867D01*
X13389954Y-15428438D01*
X13389954Y-15585581D01*
X13975669Y-15271296D02*
X13718526Y-15657010D01*
X14361383Y-15285581D02*
X14389954Y-15285581D01*
X14418526Y-15299867D01*
X14432811Y-15314153D01*
X14447097Y-15342724D01*
X14461383Y-15399867D01*
X14461383Y-15471296D01*
X14447097Y-15528438D01*
X14432811Y-15557010D01*
X14418526Y-15571296D01*
X14389954Y-15585581D01*
X14361383Y-15585581D01*
X14332811Y-15571296D01*
X14318526Y-15557010D01*
X14304240Y-15528438D01*
X14289954Y-15471296D01*
X14289954Y-15399867D01*
X14304240Y-15342724D01*
X14318526Y-15314153D01*
X14332811Y-15299867D01*
X14361383Y-15285581D01*
X14589954Y-15557010D02*
X14604240Y-15571296D01*
X14589954Y-15585581D01*
X14575669Y-15571296D01*
X14589954Y-15557010D01*
X14589954Y-15585581D01*
X14789954Y-15285581D02*
X14818526Y-15285581D01*
X14847097Y-15299867D01*
X14861383Y-15314153D01*
X14875669Y-15342724D01*
X14889954Y-15399867D01*
X14889954Y-15471296D01*
X14875669Y-15528438D01*
X14861383Y-15557010D01*
X14847097Y-15571296D01*
X14818526Y-15585581D01*
X14789954Y-15585581D01*
X14761383Y-15571296D01*
X14747097Y-15557010D01*
X14732811Y-15528438D01*
X14718526Y-15471296D01*
X14718526Y-15399867D01*
X14732811Y-15342724D01*
X14747097Y-15314153D01*
X14761383Y-15299867D01*
X14789954Y-15285581D01*
X15147097Y-15385581D02*
X15147097Y-15585581D01*
X15075669Y-15271296D02*
X15004240Y-15485581D01*
X15189954Y-15485581D01*
X15447097Y-15285581D02*
X15304240Y-15285581D01*
X15289954Y-15428438D01*
X15304240Y-15414153D01*
X15332811Y-15399867D01*
X15404240Y-15399867D01*
X15432811Y-15414153D01*
X15447097Y-15428438D01*
X15461383Y-15457010D01*
X15461383Y-15528438D01*
X15447097Y-15557010D01*
X15432811Y-15571296D01*
X15404240Y-15585581D01*
X15332811Y-15585581D01*
X15304240Y-15571296D01*
X15289954Y-15557010D01*
X15575669Y-15285581D02*
X15575669Y-15342724D01*
X15689954Y-15285581D02*
X15689954Y-15342724D01*
X16132811Y-15699867D02*
X16118526Y-15685581D01*
X16089954Y-15642724D01*
X16075669Y-15614153D01*
X16061383Y-15571296D01*
X16047097Y-15499867D01*
X16047097Y-15442724D01*
X16061383Y-15371296D01*
X16075669Y-15328438D01*
X16089954Y-15299867D01*
X16118526Y-15257010D01*
X16132811Y-15242724D01*
X16232811Y-15314153D02*
X16247097Y-15299867D01*
X16275669Y-15285581D01*
X16347097Y-15285581D01*
X16375669Y-15299867D01*
X16389954Y-15314153D01*
X16404240Y-15342724D01*
X16404240Y-15371296D01*
X16389954Y-15414153D01*
X16218526Y-15585581D01*
X16404240Y-15585581D01*
X16761383Y-15585581D02*
X16761383Y-15285581D01*
X16889954Y-15585581D02*
X16889954Y-15428438D01*
X16875669Y-15399867D01*
X16847097Y-15385581D01*
X16804240Y-15385581D01*
X16775669Y-15399867D01*
X16761383Y-15414153D01*
X17075669Y-15585581D02*
X17047097Y-15571296D01*
X17032811Y-15557010D01*
X17018526Y-15528438D01*
X17018526Y-15442724D01*
X17032811Y-15414153D01*
X17047097Y-15399867D01*
X17075669Y-15385581D01*
X17118526Y-15385581D01*
X17147097Y-15399867D01*
X17161383Y-15414153D01*
X17175669Y-15442724D01*
X17175669Y-15528438D01*
X17161383Y-15557010D01*
X17147097Y-15571296D01*
X17118526Y-15585581D01*
X17075669Y-15585581D01*
X17347097Y-15585581D02*
X17318526Y-15571296D01*
X17304240Y-15542724D01*
X17304240Y-15285581D01*
X17575669Y-15571296D02*
X17547097Y-15585581D01*
X17489954Y-15585581D01*
X17461383Y-15571296D01*
X17447097Y-15542724D01*
X17447097Y-15428438D01*
X17461383Y-15399867D01*
X17489954Y-15385581D01*
X17547097Y-15385581D01*
X17575669Y-15399867D01*
X17589954Y-15428438D01*
X17589954Y-15457010D01*
X17447097Y-15485581D01*
X17704240Y-15571296D02*
X17732811Y-15585581D01*
X17789954Y-15585581D01*
X17818526Y-15571296D01*
X17832811Y-15542724D01*
X17832811Y-15528438D01*
X17818526Y-15499867D01*
X17789954Y-15485581D01*
X17747097Y-15485581D01*
X17718526Y-15471296D01*
X17704240Y-15442724D01*
X17704240Y-15428438D01*
X17718526Y-15399867D01*
X17747097Y-15385581D01*
X17789954Y-15385581D01*
X17818526Y-15399867D01*
X17932811Y-15699867D02*
X17947097Y-15685581D01*
X17975669Y-15642724D01*
X17989954Y-15614153D01*
X18004240Y-15571296D01*
X18018526Y-15499867D01*
X18018526Y-15442724D01*
X18004240Y-15371296D01*
X17989954Y-15328438D01*
X17975669Y-15299867D01*
X17947097Y-15257010D01*
X17932811Y-15242724D01*
M02*
