%TF.GenerationSoftware,KiCad,Pcbnew,5.1.9+dfsg1-1~bpo10+1*%
%TF.CreationDate,2021-06-16T08:25:46+00:00*%
%TF.ProjectId,com4bbb,636f6d34-6262-4622-9e6b-696361645f70,rev?*%
%TF.SameCoordinates,Original*%
%TF.FileFunction,Plated,1,2,PTH,Drill*%
%TF.FilePolarity,Positive*%
%FSLAX46Y46*%
G04 Gerber Fmt 4.6, Leading zero omitted, Abs format (unit mm)*
G04 Created by KiCad (PCBNEW 5.1.9+dfsg1-1~bpo10+1) date 2021-06-16 08:25:46*
%MOMM*%
%LPD*%
G01*
G04 APERTURE LIST*
%TA.AperFunction,ViaDrill*%
%ADD10C,0.400000*%
%TD*%
%TA.AperFunction,ComponentDrill*%
%ADD11C,1.000000*%
%TD*%
%TA.AperFunction,ComponentDrill*%
%ADD12C,1.016000*%
%TD*%
%TA.AperFunction,ComponentDrill*%
%ADD13C,1.100000*%
%TD*%
%TA.AperFunction,ComponentDrill*%
%ADD14C,1.150000*%
%TD*%
G04 APERTURE END LIST*
D10*
X120870100Y-82632400D03*
X120870100Y-87382400D03*
X120870100Y-102882400D03*
X121120100Y-72382400D03*
X121120100Y-74632400D03*
X121120100Y-94632400D03*
X121370100Y-69632400D03*
X121370100Y-110882400D03*
X121620100Y-80132400D03*
X121620100Y-114632400D03*
X121870100Y-95882400D03*
X121870100Y-99382400D03*
X122620100Y-74882400D03*
X122870100Y-92882400D03*
X123120100Y-70132400D03*
X123120100Y-72632400D03*
X123120100Y-101382400D03*
X123120100Y-105132400D03*
X123170099Y-110772399D03*
X123620100Y-84132400D03*
X123870100Y-86882400D03*
X124370100Y-91882400D03*
X124370100Y-114132400D03*
X124620100Y-108882400D03*
X125370100Y-114132400D03*
X126120100Y-77882400D03*
X126120100Y-116882400D03*
X126120100Y-120632400D03*
X127370100Y-82382400D03*
X127370100Y-89132400D03*
X129370100Y-97632400D03*
X129620100Y-115632400D03*
X129870100Y-92882400D03*
X130120100Y-77382400D03*
X132620100Y-106882400D03*
X135620100Y-98132400D03*
X136870100Y-108132400D03*
X137870100Y-90382400D03*
X139370100Y-95132400D03*
X141870100Y-106882400D03*
X141870100Y-115382400D03*
X144870100Y-97632400D03*
X150215149Y-100880796D03*
X150370100Y-75382400D03*
X155620100Y-101382400D03*
D11*
%TO.C,U104*%
X126080100Y-57132400D03*
X128620100Y-57132400D03*
X131160100Y-57132400D03*
D12*
%TO.C,P9*%
X116370100Y-62382400D03*
X116370100Y-64922400D03*
X116370100Y-67462400D03*
X116370100Y-70002400D03*
X116370100Y-72542400D03*
X116370100Y-75082400D03*
X116370100Y-77622400D03*
X116370100Y-80162400D03*
X116370100Y-82702400D03*
X116370100Y-85242400D03*
X116370100Y-87782400D03*
X116370100Y-90322400D03*
X116370100Y-92862400D03*
X116370100Y-95402400D03*
X116370100Y-97942400D03*
X116370100Y-100482400D03*
X116370100Y-103022400D03*
X116370100Y-105562400D03*
X116370100Y-108102400D03*
X116370100Y-110642400D03*
X116370100Y-113182400D03*
X116370100Y-115722400D03*
X116370100Y-118262400D03*
X118910100Y-62382400D03*
X118910100Y-64922400D03*
X118910100Y-67462400D03*
X118910100Y-70002400D03*
X118910100Y-72542400D03*
X118910100Y-75082400D03*
X118910100Y-77622400D03*
X118910100Y-80162400D03*
X118910100Y-82702400D03*
X118910100Y-85242400D03*
X118910100Y-87782400D03*
X118910100Y-90322400D03*
X118910100Y-92862400D03*
X118910100Y-95402400D03*
X118910100Y-97942400D03*
X118910100Y-100482400D03*
X118910100Y-103022400D03*
X118910100Y-105562400D03*
X118910100Y-108102400D03*
X118910100Y-110642400D03*
X118910100Y-113182400D03*
X118910100Y-115722400D03*
X118910100Y-118262400D03*
%TO.C,P8*%
X164630100Y-62382400D03*
X164630100Y-64922400D03*
X164630100Y-67462400D03*
X164630100Y-70002400D03*
X164630100Y-72542400D03*
X164630100Y-75082400D03*
X164630100Y-77622400D03*
X164630100Y-80162400D03*
X164630100Y-82702400D03*
X164630100Y-85242400D03*
X164630100Y-87782400D03*
X164630100Y-90322400D03*
X164630100Y-92862400D03*
X164630100Y-95402400D03*
X164630100Y-97942400D03*
X164630100Y-100482400D03*
X164630100Y-103022400D03*
X164630100Y-105562400D03*
X164630100Y-108102400D03*
X164630100Y-110642400D03*
X164630100Y-113182400D03*
X164630100Y-115722400D03*
X164630100Y-118262400D03*
X167170100Y-62382400D03*
X167170100Y-64922400D03*
X167170100Y-67462400D03*
X167170100Y-70002400D03*
X167170100Y-72542400D03*
X167170100Y-75082400D03*
X167170100Y-77622400D03*
X167170100Y-80162400D03*
X167170100Y-82702400D03*
X167170100Y-85242400D03*
X167170100Y-87782400D03*
X167170100Y-90322400D03*
X167170100Y-92862400D03*
X167170100Y-95402400D03*
X167170100Y-97942400D03*
X167170100Y-100482400D03*
X167170100Y-103022400D03*
X167170100Y-105562400D03*
X167170100Y-108102400D03*
X167170100Y-110642400D03*
X167170100Y-113182400D03*
X167170100Y-115722400D03*
X167170100Y-118262400D03*
D13*
%TO.C,J102*%
X118370100Y-53632400D03*
X118370100Y-56172400D03*
%TO.C,D114*%
X121460100Y-47132400D03*
%TO.C,SW102*%
X125370100Y-65882400D03*
X125370100Y-72382400D03*
X129870100Y-65882400D03*
X129870100Y-72382400D03*
%TO.C,D114*%
X131620100Y-47132400D03*
%TO.C,SW101*%
X155370100Y-65882400D03*
X155370100Y-72382400D03*
X159870100Y-65882400D03*
X159870100Y-72382400D03*
D14*
%TO.C,J101*%
X151370100Y-118382400D03*
X156370100Y-118382400D03*
M02*
