%TF.GenerationSoftware,KiCad,Pcbnew,9.0.1+1*%
%TF.CreationDate,2025-11-20T15:33:45+00:00*%
%TF.ProjectId,com4bbb,636f6d34-6262-4622-9e6b-696361645f70,rev?*%
%TF.SameCoordinates,Original*%
%TF.FileFunction,Plated,1,4,PTH,Mixed*%
%TF.FilePolarity,Positive*%
%FSLAX46Y46*%
G04 Gerber Fmt 4.6, Leading zero omitted, Abs format (unit mm)*
G04 Created by KiCad (PCBNEW 9.0.1+1) date 2025-11-20 15:33:45*
%MOMM*%
%LPD*%
G01*
G04 APERTURE LIST*
%TA.AperFunction,ViaDrill*%
%ADD10C,0.400000*%
%TD*%
G04 aperture for slot hole*
%TA.AperFunction,ComponentDrill*%
%ADD11C,0.650000*%
%TD*%
G04 aperture for slot hole*
%TA.AperFunction,ComponentDrill*%
%ADD12C,0.700000*%
%TD*%
%TA.AperFunction,ComponentDrill*%
%ADD13C,1.000000*%
%TD*%
%TA.AperFunction,ComponentDrill*%
%ADD14C,1.100000*%
%TD*%
%TA.AperFunction,ComponentDrill*%
%ADD15C,1.150000*%
%TD*%
G04 APERTURE END LIST*
D10*
X120870100Y-82632400D03*
X120870100Y-87382400D03*
X120870100Y-95582400D03*
X121120100Y-72382400D03*
X121120100Y-74632400D03*
X121170100Y-84182400D03*
X121370100Y-69632400D03*
X121620100Y-80132400D03*
X122070100Y-99382400D03*
X122370100Y-83282400D03*
X122385100Y-88017400D03*
X122620100Y-74882400D03*
X123120100Y-70132400D03*
X123120100Y-72632400D03*
X123170099Y-110772399D03*
X123570100Y-77382400D03*
X123870100Y-86882400D03*
X124370100Y-91882400D03*
X124370100Y-114132400D03*
X125537012Y-110162188D03*
X125544100Y-97203400D03*
X125544100Y-111882400D03*
X125544100Y-114133400D03*
X126620100Y-77382400D03*
X126770100Y-120682400D03*
X126770100Y-121882400D03*
X127245100Y-98682400D03*
X127245100Y-99582400D03*
X127245100Y-100582400D03*
X127370100Y-82382400D03*
X127370100Y-89132400D03*
X127370100Y-97828400D03*
X127696100Y-105982400D03*
X128570100Y-85382400D03*
X128870100Y-80082400D03*
X129470100Y-115482400D03*
X129470100Y-116782400D03*
X129470100Y-118082400D03*
X129470100Y-119382400D03*
X129870100Y-92882400D03*
X130270100Y-123482400D03*
X131270100Y-101482400D03*
X133270100Y-115982400D03*
X133770100Y-125882400D03*
X134370100Y-120882400D03*
X136070100Y-109482400D03*
X137370100Y-109482400D03*
X138370100Y-97882400D03*
X138570100Y-109482400D03*
X139870100Y-106582400D03*
X140670100Y-96682400D03*
X141470100Y-125582400D03*
X142970100Y-117582400D03*
X143970100Y-112982400D03*
X143970100Y-114282400D03*
X144070100Y-123182400D03*
X146870100Y-109182400D03*
X146870100Y-110482400D03*
X150370100Y-75382400D03*
X155620100Y-101382400D03*
X156070100Y-54657400D03*
X156070100Y-55507400D03*
X157270100Y-55082400D03*
X163170100Y-53382400D03*
D11*
%TO.C,J201*%
X164050100Y-52262400D02*
X164450100Y-52262400D01*
X164050100Y-57102400D02*
X164450100Y-57102400D01*
D12*
X167000100Y-51952400D02*
X167500100Y-51952400D01*
X167000100Y-57412400D02*
X167500100Y-57412400D01*
D13*
%TO.C,P9*%
X116370100Y-62382400D03*
X116370100Y-64922400D03*
X116370100Y-67462400D03*
X116370100Y-70002400D03*
X116370100Y-72542400D03*
X116370100Y-75082400D03*
X116370100Y-77622400D03*
X116370100Y-80162400D03*
X116370100Y-82702400D03*
X116370100Y-85242400D03*
X116370100Y-87782400D03*
X116370100Y-90322400D03*
X116370100Y-92862400D03*
X116370100Y-95402400D03*
X116370100Y-97942400D03*
X116370100Y-100482400D03*
X116370100Y-103022400D03*
X116370100Y-105562400D03*
X116370100Y-108102400D03*
X116370100Y-110642400D03*
X116370100Y-113182400D03*
X116370100Y-115722400D03*
X116370100Y-118262400D03*
X118910100Y-62382400D03*
X118910100Y-64922400D03*
X118910100Y-67462400D03*
X118910100Y-70002400D03*
X118910100Y-72542400D03*
X118910100Y-75082400D03*
X118910100Y-77622400D03*
X118910100Y-80162400D03*
X118910100Y-82702400D03*
X118910100Y-85242400D03*
X118910100Y-87782400D03*
X118910100Y-90322400D03*
X118910100Y-92862400D03*
X118910100Y-95402400D03*
X118910100Y-97942400D03*
X118910100Y-100482400D03*
X118910100Y-103022400D03*
X118910100Y-105562400D03*
X118910100Y-108102400D03*
X118910100Y-110642400D03*
X118910100Y-113182400D03*
X118910100Y-115722400D03*
X118910100Y-118262400D03*
%TO.C,U102*%
X125080100Y-66632400D03*
X127620100Y-66632400D03*
X130160100Y-66632400D03*
%TO.C,JP203*%
X138590100Y-100282400D03*
X141130100Y-100282400D03*
X143670100Y-100282400D03*
%TO.C,P8*%
X164630100Y-62382400D03*
X164630100Y-64922400D03*
X164630100Y-67462400D03*
X164630100Y-70002400D03*
X164630100Y-72542400D03*
X164630100Y-75082400D03*
X164630100Y-77622400D03*
X164630100Y-80162400D03*
X164630100Y-82702400D03*
X164630100Y-85242400D03*
X164630100Y-87782400D03*
X164630100Y-90322400D03*
X164630100Y-92862400D03*
X164630100Y-95402400D03*
X164630100Y-97942400D03*
X164630100Y-100482400D03*
X164630100Y-103022400D03*
X164630100Y-105562400D03*
X164630100Y-108102400D03*
X164630100Y-110642400D03*
X164630100Y-113182400D03*
X164630100Y-115722400D03*
X164630100Y-118262400D03*
X167170100Y-62382400D03*
X167170100Y-64922400D03*
X167170100Y-67462400D03*
X167170100Y-70002400D03*
X167170100Y-72542400D03*
X167170100Y-75082400D03*
X167170100Y-77622400D03*
X167170100Y-80162400D03*
X167170100Y-82702400D03*
X167170100Y-85242400D03*
X167170100Y-87782400D03*
X167170100Y-90322400D03*
X167170100Y-92862400D03*
X167170100Y-95402400D03*
X167170100Y-97942400D03*
X167170100Y-100482400D03*
X167170100Y-103022400D03*
X167170100Y-105562400D03*
X167170100Y-108102400D03*
X167170100Y-110642400D03*
X167170100Y-113182400D03*
X167170100Y-115722400D03*
X167170100Y-118262400D03*
D14*
%TO.C,SW102*%
X136870100Y-65882400D03*
X136870100Y-72382400D03*
X141370100Y-65882400D03*
X141370100Y-72382400D03*
%TO.C,SW101*%
X155370100Y-65882400D03*
X155370100Y-72382400D03*
X159870100Y-65882400D03*
X159870100Y-72382400D03*
D15*
%TO.C,J102*%
X124870100Y-47882400D03*
X124870100Y-52882400D03*
X129870100Y-47882400D03*
X129870100Y-52882400D03*
%TO.C,J101*%
X151370100Y-118382400D03*
X151370100Y-123382400D03*
X156370100Y-118382400D03*
X156370100Y-123382400D03*
M02*
