%TF.GenerationSoftware,KiCad,Pcbnew,5.1.9+dfsg1-1~bpo10+1*%
%TF.CreationDate,2021-06-27T15:36:03+00:00*%
%TF.ProjectId,com4bbb,636f6d34-6262-4622-9e6b-696361645f70,rev?*%
%TF.SameCoordinates,Original*%
%TF.FileFunction,Copper,L2,Bot*%
%TF.FilePolarity,Positive*%
%FSLAX46Y46*%
G04 Gerber Fmt 4.6, Leading zero omitted, Abs format (unit mm)*
G04 Created by KiCad (PCBNEW 5.1.9+dfsg1-1~bpo10+1) date 2021-06-27 15:36:03*
%MOMM*%
%LPD*%
G01*
G04 APERTURE LIST*
%TA.AperFunction,ComponentPad*%
%ADD10R,1.727200X1.727200*%
%TD*%
%TA.AperFunction,ComponentPad*%
%ADD11O,1.727200X1.727200*%
%TD*%
%TA.AperFunction,ComponentPad*%
%ADD12R,1.500000X3.000000*%
%TD*%
%TA.AperFunction,ComponentPad*%
%ADD13O,1.500000X3.000000*%
%TD*%
%TA.AperFunction,ComponentPad*%
%ADD14C,2.000000*%
%TD*%
%TA.AperFunction,ComponentPad*%
%ADD15R,2.200000X2.200000*%
%TD*%
%TA.AperFunction,ComponentPad*%
%ADD16O,2.200000X2.200000*%
%TD*%
%TA.AperFunction,ComponentPad*%
%ADD17C,2.200000*%
%TD*%
%TA.AperFunction,ViaPad*%
%ADD18C,0.600000*%
%TD*%
%TA.AperFunction,Conductor*%
%ADD19C,0.500000*%
%TD*%
%TA.AperFunction,Conductor*%
%ADD20C,0.250000*%
%TD*%
%TA.AperFunction,Conductor*%
%ADD21C,0.254000*%
%TD*%
%TA.AperFunction,Conductor*%
%ADD22C,0.100000*%
%TD*%
G04 APERTURE END LIST*
D10*
%TO.P,P8,1*%
%TO.N,GNDD*%
X164630100Y-62382400D03*
D11*
%TO.P,P8,2*%
X167170100Y-62382400D03*
%TO.P,P8,3*%
%TO.N,N/C*%
X164630100Y-64922400D03*
%TO.P,P8,4*%
X167170100Y-64922400D03*
%TO.P,P8,5*%
X164630100Y-67462400D03*
%TO.P,P8,6*%
X167170100Y-67462400D03*
%TO.P,P8,7*%
%TO.N,/LED0*%
X164630100Y-70002400D03*
%TO.P,P8,8*%
%TO.N,/LED7*%
X167170100Y-70002400D03*
%TO.P,P8,9*%
%TO.N,/LED1*%
X164630100Y-72542400D03*
%TO.P,P8,10*%
%TO.N,/LED8*%
X167170100Y-72542400D03*
%TO.P,P8,11*%
%TO.N,/LED2*%
X164630100Y-75082400D03*
%TO.P,P8,12*%
%TO.N,/LED9*%
X167170100Y-75082400D03*
%TO.P,P8,13*%
%TO.N,/LED3*%
X164630100Y-77622400D03*
%TO.P,P8,14*%
%TO.N,/LED10*%
X167170100Y-77622400D03*
%TO.P,P8,15*%
%TO.N,/LED4*%
X164630100Y-80162400D03*
%TO.P,P8,16*%
%TO.N,/LED11*%
X167170100Y-80162400D03*
%TO.P,P8,17*%
%TO.N,/LED5*%
X164630100Y-82702400D03*
%TO.P,P8,18*%
%TO.N,/LED12*%
X167170100Y-82702400D03*
%TO.P,P8,19*%
%TO.N,/LED6*%
X164630100Y-85242400D03*
%TO.P,P8,20*%
%TO.N,N/C*%
X167170100Y-85242400D03*
%TO.P,P8,21*%
X164630100Y-87782400D03*
%TO.P,P8,22*%
X167170100Y-87782400D03*
%TO.P,P8,23*%
X164630100Y-90322400D03*
%TO.P,P8,24*%
X167170100Y-90322400D03*
%TO.P,P8,25*%
X164630100Y-92862400D03*
%TO.P,P8,26*%
X167170100Y-92862400D03*
%TO.P,P8,27*%
X164630100Y-95402400D03*
%TO.P,P8,28*%
X167170100Y-95402400D03*
%TO.P,P8,29*%
X164630100Y-97942400D03*
%TO.P,P8,30*%
X167170100Y-97942400D03*
%TO.P,P8,31*%
X164630100Y-100482400D03*
%TO.P,P8,32*%
X167170100Y-100482400D03*
%TO.P,P8,33*%
X164630100Y-103022400D03*
%TO.P,P8,34*%
X167170100Y-103022400D03*
%TO.P,P8,35*%
X164630100Y-105562400D03*
%TO.P,P8,36*%
X167170100Y-105562400D03*
%TO.P,P8,37*%
X164630100Y-108102400D03*
%TO.P,P8,38*%
X167170100Y-108102400D03*
%TO.P,P8,39*%
X164630100Y-110642400D03*
%TO.P,P8,40*%
X167170100Y-110642400D03*
%TO.P,P8,41*%
X164630100Y-113182400D03*
%TO.P,P8,42*%
X167170100Y-113182400D03*
%TO.P,P8,43*%
X164630100Y-115722400D03*
%TO.P,P8,44*%
X167170100Y-115722400D03*
%TO.P,P8,45*%
X164630100Y-118262400D03*
%TO.P,P8,46*%
X167170100Y-118262400D03*
%TD*%
D10*
%TO.P,P9,1*%
%TO.N,GNDD*%
X116370100Y-62382400D03*
D11*
%TO.P,P9,2*%
X118910100Y-62382400D03*
%TO.P,P9,3*%
%TO.N,+3V3*%
X116370100Y-64922400D03*
%TO.P,P9,4*%
X118910100Y-64922400D03*
%TO.P,P9,5*%
%TO.N,+5V*%
X116370100Y-67462400D03*
%TO.P,P9,6*%
X118910100Y-67462400D03*
%TO.P,P9,7*%
%TO.N,SYS_5V*%
X116370100Y-70002400D03*
%TO.P,P9,8*%
X118910100Y-70002400D03*
%TO.P,P9,9*%
%TO.N,PWR_BUT*%
X116370100Y-72542400D03*
%TO.P,P9,10*%
%TO.N,SYS_RESETN*%
X118910100Y-72542400D03*
%TO.P,P9,11*%
%TO.N,/UART4_RXD*%
X116370100Y-75082400D03*
%TO.P,P9,12*%
%TO.N,/GPIO_60*%
X118910100Y-75082400D03*
%TO.P,P9,13*%
%TO.N,/UART4_TXD*%
X116370100Y-77622400D03*
%TO.P,P9,14*%
%TO.N,N/C*%
X118910100Y-77622400D03*
%TO.P,P9,15*%
%TO.N,/GPIO_48*%
X116370100Y-80162400D03*
%TO.P,P9,16*%
%TO.N,N/C*%
X118910100Y-80162400D03*
%TO.P,P9,17*%
%TO.N,/SPI0_CS0*%
X116370100Y-82702400D03*
%TO.P,P9,18*%
%TO.N,/SPI0_D1*%
X118910100Y-82702400D03*
%TO.P,P9,19*%
%TO.N,/SCL*%
X116370100Y-85242400D03*
%TO.P,P9,20*%
%TO.N,/SDA*%
X118910100Y-85242400D03*
%TO.P,P9,21*%
%TO.N,/SPI0_D0*%
X116370100Y-87782400D03*
%TO.P,P9,22*%
%TO.N,/SPI0_SCLK*%
X118910100Y-87782400D03*
%TO.P,P9,23*%
%TO.N,N/C*%
X116370100Y-90322400D03*
%TO.P,P9,24*%
%TO.N,/UART1_TXD*%
X118910100Y-90322400D03*
%TO.P,P9,25*%
%TO.N,N/C*%
X116370100Y-92862400D03*
%TO.P,P9,26*%
%TO.N,/UART1_RXD*%
X118910100Y-92862400D03*
%TO.P,P9,27*%
%TO.N,/GPIO_125*%
X116370100Y-95402400D03*
%TO.P,P9,28*%
%TO.N,N/C*%
X118910100Y-95402400D03*
%TO.P,P9,29*%
X116370100Y-97942400D03*
%TO.P,P9,30*%
%TO.N,/GPIO_122*%
X118910100Y-97942400D03*
%TO.P,P9,31*%
%TO.N,N/C*%
X116370100Y-100482400D03*
%TO.P,P9,32*%
X118910100Y-100482400D03*
%TO.P,P9,33*%
X116370100Y-103022400D03*
%TO.P,P9,34*%
X118910100Y-103022400D03*
%TO.P,P9,35*%
X116370100Y-105562400D03*
%TO.P,P9,36*%
X118910100Y-105562400D03*
%TO.P,P9,37*%
X116370100Y-108102400D03*
%TO.P,P9,38*%
X118910100Y-108102400D03*
%TO.P,P9,39*%
X116370100Y-110642400D03*
%TO.P,P9,40*%
X118910100Y-110642400D03*
%TO.P,P9,41*%
%TO.N,/GPIO_20*%
X116370100Y-113182400D03*
%TO.P,P9,42*%
%TO.N,N/C*%
X118910100Y-113182400D03*
%TO.P,P9,43*%
%TO.N,GNDD*%
X116370100Y-115722400D03*
%TO.P,P9,44*%
X118910100Y-115722400D03*
%TO.P,P9,45*%
X116370100Y-118262400D03*
%TO.P,P9,46*%
X118910100Y-118262400D03*
%TD*%
D12*
%TO.P,J101,1*%
%TO.N,Net-(J101-Pad1)*%
X151370100Y-118382400D03*
D13*
%TO.P,J101,2*%
%TO.N,Net-(J101-Pad2)*%
X156370100Y-118382400D03*
%TD*%
D14*
%TO.P,SW101,2*%
%TO.N,GNDD*%
X159870100Y-72382400D03*
%TO.P,SW101,1*%
%TO.N,SYS_RESETN*%
X155370100Y-72382400D03*
%TO.P,SW101,2*%
%TO.N,GNDD*%
X159870100Y-65882400D03*
%TO.P,SW101,1*%
%TO.N,SYS_RESETN*%
X155370100Y-65882400D03*
%TD*%
%TO.P,SW102,1*%
%TO.N,PWR_BUT*%
X125370100Y-65882400D03*
%TO.P,SW102,2*%
%TO.N,GNDD*%
X129870100Y-65882400D03*
%TO.P,SW102,1*%
%TO.N,PWR_BUT*%
X125370100Y-72382400D03*
%TO.P,SW102,2*%
%TO.N,GNDD*%
X129870100Y-72382400D03*
%TD*%
D15*
%TO.P,D114,1*%
%TO.N,Net-(D114-Pad1)*%
X131620100Y-47132400D03*
D16*
%TO.P,D114,2*%
%TO.N,Net-(D114-Pad2)*%
X121460100Y-47132400D03*
%TD*%
D15*
%TO.P,J102,1*%
%TO.N,GNDD*%
X118370100Y-53632400D03*
D17*
%TO.P,J102,2*%
%TO.N,Net-(D114-Pad2)*%
X118370100Y-56172400D03*
%TD*%
D14*
%TO.P,U104,1*%
%TO.N,Net-(D114-Pad1)*%
X126080100Y-57132400D03*
%TO.P,U104,2*%
%TO.N,GNDD*%
X128620100Y-57132400D03*
%TO.P,U104,3*%
%TO.N,+5V*%
X131160100Y-57132400D03*
%TD*%
D18*
%TO.N,GNDD*%
X123870100Y-86882400D03*
X126120100Y-120632400D03*
X120870100Y-87382400D03*
X129870100Y-92882400D03*
X129370100Y-97632400D03*
X124370100Y-91882400D03*
X120870100Y-82632400D03*
X123620100Y-84132400D03*
X137870100Y-90382400D03*
X144870100Y-97632400D03*
X135620100Y-98132400D03*
X139370100Y-95132400D03*
X121370100Y-110882400D03*
X121620100Y-114632400D03*
X121370100Y-104632400D03*
X122870100Y-106132400D03*
X121120100Y-94632400D03*
X121870100Y-95882400D03*
X121870100Y-99382400D03*
X123270100Y-100982400D03*
X121370100Y-69632400D03*
X123120100Y-70132400D03*
X121120100Y-72382400D03*
X123120100Y-72632400D03*
X121120100Y-74632400D03*
X122620100Y-74882400D03*
X121620100Y-80132400D03*
X132620100Y-106882400D03*
X141870100Y-106882400D03*
X136870100Y-108132400D03*
X141870100Y-115382400D03*
X120870100Y-101382400D03*
X123370100Y-103882400D03*
%TO.N,+3V3*%
X127370100Y-89132400D03*
X150370100Y-75382400D03*
X127370100Y-82382400D03*
%TO.N,Net-(JP101-Pad2)*%
X126120100Y-116882400D03*
X126120100Y-77882400D03*
%TO.N,Net-(JP102-Pad2)*%
X130120100Y-77382400D03*
X129620100Y-115632400D03*
%TO.N,/SPI0_D1*%
X124370100Y-114132400D03*
%TO.N,/SPI0_D0*%
X123170099Y-110772399D03*
%TO.N,/GPIO_60*%
X125370100Y-114132400D03*
%TO.N,/SPI0_SCLK*%
X124620100Y-108882400D03*
%TO.N,/UART1_RXD*%
X122870100Y-92882400D03*
X150215149Y-100880796D03*
X155620100Y-101382400D03*
%TD*%
D19*
%TO.N,+3V3*%
X120131414Y-64922400D02*
X127370100Y-72161086D01*
X118910100Y-64922400D02*
X120131414Y-64922400D01*
X120131414Y-64922400D02*
X130591414Y-75382400D01*
X130591414Y-75382400D02*
X150370100Y-75382400D01*
X127370100Y-82382400D02*
X127370100Y-89132400D01*
X127370100Y-72161086D02*
X127370100Y-82382400D01*
%TO.N,Net-(JP101-Pad2)*%
X126120100Y-77882400D02*
X126120100Y-81132400D01*
X126120100Y-81132400D02*
X126120100Y-80382400D01*
X126120100Y-116882400D02*
X126120100Y-81132400D01*
%TO.N,Net-(JP102-Pad2)*%
X129620100Y-115132398D02*
X129620100Y-115632400D01*
X128120101Y-113632399D02*
X129620100Y-115132398D01*
X130120100Y-78632402D02*
X128120101Y-80632401D01*
X130120100Y-77382400D02*
X130120100Y-78632402D01*
X128120101Y-80632401D02*
X128120101Y-113632399D01*
D20*
%TO.N,/SPI0_D1*%
X119480629Y-104373799D02*
X123995099Y-108888269D01*
X123995099Y-108888269D02*
X123995099Y-113757399D01*
X118502369Y-104373799D02*
X119480629Y-104373799D01*
X117558701Y-103430131D02*
X118502369Y-104373799D01*
X117558701Y-84053799D02*
X117558701Y-103430131D01*
X123995099Y-113757399D02*
X124370100Y-114132400D01*
X118910100Y-82702400D02*
X117558701Y-84053799D01*
%TO.N,/SPI0_D0*%
X123170099Y-110603269D02*
X123170099Y-110772399D01*
X119480629Y-106913799D02*
X123170099Y-110603269D01*
X118502369Y-106913799D02*
X119480629Y-106913799D01*
X117721499Y-105154669D02*
X117721499Y-106132929D01*
X117721499Y-106132929D02*
X118502369Y-106913799D01*
X116940629Y-104373799D02*
X117721499Y-105154669D01*
X115962369Y-104373799D02*
X116940629Y-104373799D01*
X115181499Y-103592929D02*
X115962369Y-104373799D01*
X115181499Y-88971001D02*
X115181499Y-103592929D01*
X116370100Y-87782400D02*
X115181499Y-88971001D01*
D19*
%TO.N,/GPIO_60*%
X125370100Y-81542400D02*
X125370100Y-114132400D01*
X118910100Y-75082400D02*
X125370100Y-81542400D01*
%TO.N,/SPI0_SCLK*%
X124620100Y-93492400D02*
X124620100Y-108882400D01*
X118910100Y-87782400D02*
X124620100Y-93492400D01*
%TO.N,/UART1_RXD*%
X122850100Y-92862400D02*
X122870100Y-92882400D01*
X118910100Y-92862400D02*
X122850100Y-92862400D01*
X155118496Y-100880796D02*
X155620100Y-101382400D01*
X150215149Y-100880796D02*
X155118496Y-100880796D01*
%TD*%
D21*
%TO.N,GNDD*%
X134783830Y-64256149D02*
X134780752Y-64287400D01*
X134793037Y-64412131D01*
X134829419Y-64532068D01*
X134888502Y-64642603D01*
X134968013Y-64739487D01*
X135064897Y-64818998D01*
X135175432Y-64878081D01*
X135295369Y-64914463D01*
X135420100Y-64926748D01*
X135451351Y-64923670D01*
X153168849Y-64923670D01*
X153200100Y-64926748D01*
X153231351Y-64923670D01*
X153244246Y-64922400D01*
X153324831Y-64914463D01*
X153444768Y-64878081D01*
X153555303Y-64818998D01*
X153652187Y-64739487D01*
X153731698Y-64642603D01*
X153790781Y-64532068D01*
X153827163Y-64412131D01*
X153836370Y-64318651D01*
X153836370Y-64318650D01*
X153839448Y-64287400D01*
X153836370Y-64256149D01*
X153836370Y-61518800D01*
X163128428Y-61518800D01*
X163131500Y-62096650D01*
X163290250Y-62255400D01*
X164503100Y-62255400D01*
X164503100Y-61042550D01*
X164757100Y-61042550D01*
X164757100Y-62255400D01*
X167043100Y-62255400D01*
X167043100Y-61047936D01*
X166811073Y-60927437D01*
X166534122Y-61025436D01*
X166281612Y-61175583D01*
X166102153Y-61337092D01*
X166083202Y-61274620D01*
X166024237Y-61164306D01*
X165944885Y-61067615D01*
X165848194Y-60988263D01*
X165737880Y-60929298D01*
X165618182Y-60892988D01*
X165493700Y-60880728D01*
X164915850Y-60883800D01*
X164757100Y-61042550D01*
X164503100Y-61042550D01*
X164344350Y-60883800D01*
X163766500Y-60880728D01*
X163642018Y-60892988D01*
X163522320Y-60929298D01*
X163412006Y-60988263D01*
X163315315Y-61067615D01*
X163235963Y-61164306D01*
X163176998Y-61274620D01*
X163140688Y-61394318D01*
X163128428Y-61518800D01*
X153836370Y-61518800D01*
X153836370Y-50318670D01*
X168438831Y-50318670D01*
X168438831Y-61588780D01*
X168276954Y-61372107D01*
X168058588Y-61175583D01*
X167806078Y-61025436D01*
X167529127Y-60927437D01*
X167297100Y-61047936D01*
X167297100Y-62255400D01*
X167317100Y-62255400D01*
X167317100Y-62509400D01*
X167297100Y-62509400D01*
X167297100Y-62529400D01*
X167043100Y-62529400D01*
X167043100Y-62509400D01*
X164757100Y-62509400D01*
X164757100Y-62529400D01*
X164503100Y-62529400D01*
X164503100Y-62509400D01*
X163290250Y-62509400D01*
X163131500Y-62668150D01*
X163128428Y-63246000D01*
X163140688Y-63370482D01*
X163176998Y-63490180D01*
X163235963Y-63600494D01*
X163315315Y-63697185D01*
X163412006Y-63776537D01*
X163522320Y-63835502D01*
X163580123Y-63853036D01*
X163466061Y-63967098D01*
X163302058Y-64212547D01*
X163189090Y-64485275D01*
X163131500Y-64774801D01*
X163131500Y-65069999D01*
X163189090Y-65359525D01*
X163302058Y-65632253D01*
X163466061Y-65877702D01*
X163674798Y-66086439D01*
X163833381Y-66192400D01*
X163674798Y-66298361D01*
X163466061Y-66507098D01*
X163302058Y-66752547D01*
X163189090Y-67025275D01*
X163131500Y-67314801D01*
X163131500Y-67609999D01*
X163189090Y-67899525D01*
X163302058Y-68172253D01*
X163466061Y-68417702D01*
X163674798Y-68626439D01*
X163833381Y-68732400D01*
X163674798Y-68838361D01*
X163466061Y-69047098D01*
X163302058Y-69292547D01*
X163189090Y-69565275D01*
X163131500Y-69854801D01*
X163131500Y-70149999D01*
X163189090Y-70439525D01*
X163302058Y-70712253D01*
X163466061Y-70957702D01*
X163674798Y-71166439D01*
X163833381Y-71272400D01*
X163674798Y-71378361D01*
X163466061Y-71587098D01*
X163302058Y-71832547D01*
X163189090Y-72105275D01*
X163131500Y-72394801D01*
X163131500Y-72689999D01*
X163189090Y-72979525D01*
X163302058Y-73252253D01*
X163466061Y-73497702D01*
X163674798Y-73706439D01*
X163833381Y-73812400D01*
X163674798Y-73918361D01*
X163466061Y-74127098D01*
X163302058Y-74372547D01*
X163189090Y-74645275D01*
X163131500Y-74934801D01*
X163131500Y-75229999D01*
X163189090Y-75519525D01*
X163302058Y-75792253D01*
X163466061Y-76037702D01*
X163674798Y-76246439D01*
X163833381Y-76352400D01*
X163674798Y-76458361D01*
X163466061Y-76667098D01*
X163302058Y-76912547D01*
X163189090Y-77185275D01*
X163131500Y-77474801D01*
X163131500Y-77769999D01*
X163189090Y-78059525D01*
X163302058Y-78332253D01*
X163466061Y-78577702D01*
X163674798Y-78786439D01*
X163833381Y-78892400D01*
X163674798Y-78998361D01*
X163466061Y-79207098D01*
X163302058Y-79452547D01*
X163189090Y-79725275D01*
X163131500Y-80014801D01*
X163131500Y-80309999D01*
X163189090Y-80599525D01*
X163302058Y-80872253D01*
X163466061Y-81117702D01*
X163674798Y-81326439D01*
X163833381Y-81432400D01*
X163674798Y-81538361D01*
X163466061Y-81747098D01*
X163302058Y-81992547D01*
X163189090Y-82265275D01*
X163131500Y-82554801D01*
X163131500Y-82849999D01*
X163189090Y-83139525D01*
X163302058Y-83412253D01*
X163466061Y-83657702D01*
X163674798Y-83866439D01*
X163833381Y-83972400D01*
X163674798Y-84078361D01*
X163466061Y-84287098D01*
X163302058Y-84532547D01*
X163189090Y-84805275D01*
X163131500Y-85094801D01*
X163131500Y-85389999D01*
X163189090Y-85679525D01*
X163302058Y-85952253D01*
X163466061Y-86197702D01*
X163674798Y-86406439D01*
X163833381Y-86512400D01*
X163674798Y-86618361D01*
X163466061Y-86827098D01*
X163302058Y-87072547D01*
X163189090Y-87345275D01*
X163131500Y-87634801D01*
X163131500Y-87929999D01*
X163189090Y-88219525D01*
X163302058Y-88492253D01*
X163466061Y-88737702D01*
X163674798Y-88946439D01*
X163833381Y-89052400D01*
X163674798Y-89158361D01*
X163466061Y-89367098D01*
X163302058Y-89612547D01*
X163189090Y-89885275D01*
X163131500Y-90174801D01*
X163131500Y-90469999D01*
X163189090Y-90759525D01*
X163302058Y-91032253D01*
X163466061Y-91277702D01*
X163674798Y-91486439D01*
X163833381Y-91592400D01*
X163674798Y-91698361D01*
X163466061Y-91907098D01*
X163302058Y-92152547D01*
X163189090Y-92425275D01*
X163131500Y-92714801D01*
X163131500Y-93009999D01*
X163189090Y-93299525D01*
X163302058Y-93572253D01*
X163466061Y-93817702D01*
X163674798Y-94026439D01*
X163833381Y-94132400D01*
X163674798Y-94238361D01*
X163466061Y-94447098D01*
X163302058Y-94692547D01*
X163189090Y-94965275D01*
X163131500Y-95254801D01*
X163131500Y-95549999D01*
X163189090Y-95839525D01*
X163302058Y-96112253D01*
X163466061Y-96357702D01*
X163674798Y-96566439D01*
X163833381Y-96672400D01*
X163674798Y-96778361D01*
X163466061Y-96987098D01*
X163302058Y-97232547D01*
X163189090Y-97505275D01*
X163131500Y-97794801D01*
X163131500Y-98089999D01*
X163189090Y-98379525D01*
X163302058Y-98652253D01*
X163466061Y-98897702D01*
X163674798Y-99106439D01*
X163833381Y-99212400D01*
X163674798Y-99318361D01*
X163466061Y-99527098D01*
X163302058Y-99772547D01*
X163189090Y-100045275D01*
X163131500Y-100334801D01*
X163131500Y-100629999D01*
X163189090Y-100919525D01*
X163302058Y-101192253D01*
X163466061Y-101437702D01*
X163674798Y-101646439D01*
X163833381Y-101752400D01*
X163674798Y-101858361D01*
X163466061Y-102067098D01*
X163302058Y-102312547D01*
X163189090Y-102585275D01*
X163131500Y-102874801D01*
X163131500Y-103169999D01*
X163189090Y-103459525D01*
X163302058Y-103732253D01*
X163466061Y-103977702D01*
X163674798Y-104186439D01*
X163833381Y-104292400D01*
X163674798Y-104398361D01*
X163466061Y-104607098D01*
X163302058Y-104852547D01*
X163189090Y-105125275D01*
X163131500Y-105414801D01*
X163131500Y-105709999D01*
X163189090Y-105999525D01*
X163302058Y-106272253D01*
X163466061Y-106517702D01*
X163674798Y-106726439D01*
X163833381Y-106832400D01*
X163674798Y-106938361D01*
X163466061Y-107147098D01*
X163302058Y-107392547D01*
X163189090Y-107665275D01*
X163131500Y-107954801D01*
X163131500Y-108249999D01*
X163189090Y-108539525D01*
X163302058Y-108812253D01*
X163466061Y-109057702D01*
X163674798Y-109266439D01*
X163833381Y-109372400D01*
X163674798Y-109478361D01*
X163466061Y-109687098D01*
X163302058Y-109932547D01*
X163189090Y-110205275D01*
X163131500Y-110494801D01*
X163131500Y-110789999D01*
X163189090Y-111079525D01*
X163302058Y-111352253D01*
X163466061Y-111597702D01*
X163674798Y-111806439D01*
X163833381Y-111912400D01*
X163674798Y-112018361D01*
X163466061Y-112227098D01*
X163302058Y-112472547D01*
X163189090Y-112745275D01*
X163131500Y-113034801D01*
X163131500Y-113329999D01*
X163189090Y-113619525D01*
X163302058Y-113892253D01*
X163466061Y-114137702D01*
X163674798Y-114346439D01*
X163833381Y-114452400D01*
X163674798Y-114558361D01*
X163466061Y-114767098D01*
X163302058Y-115012547D01*
X163189090Y-115285275D01*
X163131500Y-115574801D01*
X163131500Y-115869999D01*
X163189090Y-116159525D01*
X163302058Y-116432253D01*
X163466061Y-116677702D01*
X163674798Y-116886439D01*
X163833381Y-116992400D01*
X163674798Y-117098361D01*
X163466061Y-117307098D01*
X163302058Y-117552547D01*
X163189090Y-117825275D01*
X163131500Y-118114801D01*
X163131500Y-118409999D01*
X163189090Y-118699525D01*
X163302058Y-118972253D01*
X163466061Y-119217702D01*
X163674798Y-119426439D01*
X163920247Y-119590442D01*
X164192975Y-119703410D01*
X164482501Y-119761000D01*
X164777699Y-119761000D01*
X165067225Y-119703410D01*
X165339953Y-119590442D01*
X165585402Y-119426439D01*
X165794139Y-119217702D01*
X165900100Y-119059119D01*
X166006061Y-119217702D01*
X166214798Y-119426439D01*
X166460247Y-119590442D01*
X166732975Y-119703410D01*
X167022501Y-119761000D01*
X167317699Y-119761000D01*
X167607225Y-119703410D01*
X167879953Y-119590442D01*
X168000411Y-119509955D01*
X167766864Y-120324430D01*
X167253667Y-121569537D01*
X166604882Y-122749674D01*
X165828586Y-123850144D01*
X164934462Y-124857219D01*
X163933653Y-125758351D01*
X162838639Y-126542304D01*
X161663061Y-127199313D01*
X160421563Y-127721191D01*
X159129638Y-128101425D01*
X157803368Y-128335282D01*
X156442664Y-128420891D01*
X156374031Y-128421130D01*
X127182875Y-128421130D01*
X125820482Y-128344961D01*
X124492617Y-128120369D01*
X123198070Y-127749164D01*
X121952963Y-127235967D01*
X120772826Y-126587182D01*
X119672356Y-125810886D01*
X118665281Y-124916762D01*
X117764149Y-123915953D01*
X116980196Y-122820939D01*
X116323187Y-121645361D01*
X115801309Y-120403863D01*
X115535692Y-119501374D01*
X115734122Y-119619364D01*
X116011073Y-119717363D01*
X116243100Y-119596864D01*
X116243100Y-118389400D01*
X116497100Y-118389400D01*
X116497100Y-119596864D01*
X116729127Y-119717363D01*
X117006078Y-119619364D01*
X117258588Y-119469217D01*
X117476954Y-119272693D01*
X117640100Y-119054322D01*
X117803246Y-119272693D01*
X118021612Y-119469217D01*
X118274122Y-119619364D01*
X118551073Y-119717363D01*
X118783100Y-119596864D01*
X118783100Y-118389400D01*
X119037100Y-118389400D01*
X119037100Y-119596864D01*
X119269127Y-119717363D01*
X119546078Y-119619364D01*
X119798588Y-119469217D01*
X120016954Y-119272693D01*
X120192784Y-119037344D01*
X120319322Y-118772214D01*
X120365058Y-118621426D01*
X120243917Y-118389400D01*
X119037100Y-118389400D01*
X118783100Y-118389400D01*
X116497100Y-118389400D01*
X116243100Y-118389400D01*
X116223100Y-118389400D01*
X116223100Y-118135400D01*
X116243100Y-118135400D01*
X116243100Y-115849400D01*
X116497100Y-115849400D01*
X116497100Y-118135400D01*
X118783100Y-118135400D01*
X118783100Y-115849400D01*
X119037100Y-115849400D01*
X119037100Y-118135400D01*
X120243917Y-118135400D01*
X120365058Y-117903374D01*
X120319322Y-117752586D01*
X120192784Y-117487456D01*
X120016954Y-117252107D01*
X119798588Y-117055583D01*
X119692330Y-116992400D01*
X119798588Y-116929217D01*
X120016954Y-116732693D01*
X120192784Y-116497344D01*
X120319322Y-116232214D01*
X120365058Y-116081426D01*
X120243917Y-115849400D01*
X119037100Y-115849400D01*
X118783100Y-115849400D01*
X116497100Y-115849400D01*
X116243100Y-115849400D01*
X116223100Y-115849400D01*
X116223100Y-115595400D01*
X116243100Y-115595400D01*
X116243100Y-115575400D01*
X116497100Y-115575400D01*
X116497100Y-115595400D01*
X118783100Y-115595400D01*
X118783100Y-115575400D01*
X119037100Y-115575400D01*
X119037100Y-115595400D01*
X120243917Y-115595400D01*
X120365058Y-115363374D01*
X120319322Y-115212586D01*
X120192784Y-114947456D01*
X120016954Y-114712107D01*
X119798588Y-114515583D01*
X119699997Y-114456959D01*
X119865402Y-114346439D01*
X120074139Y-114137702D01*
X120238142Y-113892253D01*
X120351110Y-113619525D01*
X120408700Y-113329999D01*
X120408700Y-113034801D01*
X120351110Y-112745275D01*
X120238142Y-112472547D01*
X120074139Y-112227098D01*
X119865402Y-112018361D01*
X119706819Y-111912400D01*
X119865402Y-111806439D01*
X120074139Y-111597702D01*
X120238142Y-111352253D01*
X120351110Y-111079525D01*
X120408700Y-110789999D01*
X120408700Y-110494801D01*
X120351110Y-110205275D01*
X120238142Y-109932547D01*
X120074139Y-109687098D01*
X119865402Y-109478361D01*
X119706819Y-109372400D01*
X119865402Y-109266439D01*
X120074139Y-109057702D01*
X120238142Y-108812253D01*
X120257514Y-108765485D01*
X122235099Y-110743071D01*
X122235099Y-110864488D01*
X122271031Y-111045128D01*
X122341513Y-111215288D01*
X122443837Y-111368427D01*
X122574071Y-111498661D01*
X122727210Y-111600985D01*
X122897370Y-111671467D01*
X123078010Y-111707399D01*
X123235100Y-111707399D01*
X123235100Y-113720067D01*
X123231423Y-113757399D01*
X123246097Y-113906384D01*
X123289553Y-114049645D01*
X123360125Y-114181675D01*
X123430509Y-114267437D01*
X123447845Y-114288561D01*
X123471032Y-114405129D01*
X123541514Y-114575289D01*
X123643838Y-114728428D01*
X123774072Y-114858662D01*
X123927211Y-114960986D01*
X124097371Y-115031468D01*
X124278011Y-115067400D01*
X124462189Y-115067400D01*
X124642829Y-115031468D01*
X124812989Y-114960986D01*
X124870100Y-114922826D01*
X124927211Y-114960986D01*
X125097371Y-115031468D01*
X125235100Y-115058864D01*
X125235100Y-116575708D01*
X125221032Y-116609671D01*
X125185100Y-116790311D01*
X125185100Y-116974489D01*
X125221032Y-117155129D01*
X125291514Y-117325289D01*
X125393838Y-117478428D01*
X125524072Y-117608662D01*
X125677211Y-117710986D01*
X125847371Y-117781468D01*
X126028011Y-117817400D01*
X126212189Y-117817400D01*
X126392829Y-117781468D01*
X126562989Y-117710986D01*
X126716128Y-117608662D01*
X126846362Y-117478428D01*
X126948686Y-117325289D01*
X127019168Y-117155129D01*
X127055100Y-116974489D01*
X127055100Y-116882400D01*
X149982028Y-116882400D01*
X149982028Y-119882400D01*
X149994288Y-120006882D01*
X150030598Y-120126580D01*
X150089563Y-120236894D01*
X150168915Y-120333585D01*
X150265606Y-120412937D01*
X150375920Y-120471902D01*
X150495618Y-120508212D01*
X150620100Y-120520472D01*
X152120100Y-120520472D01*
X152244582Y-120508212D01*
X152364280Y-120471902D01*
X152474594Y-120412937D01*
X152571285Y-120333585D01*
X152650637Y-120236894D01*
X152709602Y-120126580D01*
X152745912Y-120006882D01*
X152758172Y-119882400D01*
X152758172Y-117564364D01*
X154985100Y-117564364D01*
X154985100Y-119200437D01*
X155005140Y-119403907D01*
X155084337Y-119664981D01*
X155212944Y-119905588D01*
X155386020Y-120116481D01*
X155596913Y-120289557D01*
X155837520Y-120418164D01*
X156098594Y-120497360D01*
X156370100Y-120524101D01*
X156641607Y-120497360D01*
X156902681Y-120418164D01*
X157143288Y-120289557D01*
X157354181Y-120116481D01*
X157527257Y-119905588D01*
X157655864Y-119664981D01*
X157735060Y-119403907D01*
X157755100Y-119200437D01*
X157755100Y-117564363D01*
X157735060Y-117360893D01*
X157655864Y-117099819D01*
X157527257Y-116859212D01*
X157354180Y-116648319D01*
X157143287Y-116475243D01*
X156902680Y-116346636D01*
X156641606Y-116267440D01*
X156370100Y-116240699D01*
X156098593Y-116267440D01*
X155837519Y-116346636D01*
X155596912Y-116475243D01*
X155386019Y-116648320D01*
X155212943Y-116859213D01*
X155084336Y-117099820D01*
X155005140Y-117360894D01*
X154985100Y-117564364D01*
X152758172Y-117564364D01*
X152758172Y-116882400D01*
X152745912Y-116757918D01*
X152709602Y-116638220D01*
X152650637Y-116527906D01*
X152571285Y-116431215D01*
X152474594Y-116351863D01*
X152364280Y-116292898D01*
X152244582Y-116256588D01*
X152120100Y-116244328D01*
X150620100Y-116244328D01*
X150495618Y-116256588D01*
X150375920Y-116292898D01*
X150265606Y-116351863D01*
X150168915Y-116431215D01*
X150089563Y-116527906D01*
X150030598Y-116638220D01*
X149994288Y-116757918D01*
X149982028Y-116882400D01*
X127055100Y-116882400D01*
X127055100Y-116790311D01*
X127019168Y-116609671D01*
X127005100Y-116575708D01*
X127005100Y-89993248D01*
X127097371Y-90031468D01*
X127235101Y-90058865D01*
X127235102Y-113588920D01*
X127230820Y-113632399D01*
X127247906Y-113805889D01*
X127298513Y-113972712D01*
X127380691Y-114126458D01*
X127463569Y-114227445D01*
X127463572Y-114227448D01*
X127491285Y-114261216D01*
X127525052Y-114288928D01*
X128700253Y-115464130D01*
X128685100Y-115540311D01*
X128685100Y-115724489D01*
X128721032Y-115905129D01*
X128791514Y-116075289D01*
X128893838Y-116228428D01*
X129024072Y-116358662D01*
X129177211Y-116460986D01*
X129347371Y-116531468D01*
X129528011Y-116567400D01*
X129712189Y-116567400D01*
X129892829Y-116531468D01*
X130062989Y-116460986D01*
X130216128Y-116358662D01*
X130346362Y-116228428D01*
X130448686Y-116075289D01*
X130519168Y-115905129D01*
X130555100Y-115724489D01*
X130555100Y-115540311D01*
X130519168Y-115359671D01*
X130505100Y-115325708D01*
X130505100Y-115175867D01*
X130509381Y-115132398D01*
X130505100Y-115088929D01*
X130505100Y-115088921D01*
X130492295Y-114958908D01*
X130441689Y-114792085D01*
X130359511Y-114638339D01*
X130307767Y-114575289D01*
X130276632Y-114537351D01*
X130276630Y-114537349D01*
X130248917Y-114503581D01*
X130215150Y-114475869D01*
X129005101Y-113265821D01*
X129005101Y-100788707D01*
X149280149Y-100788707D01*
X149280149Y-100972885D01*
X149316081Y-101153525D01*
X149386563Y-101323685D01*
X149488887Y-101476824D01*
X149619121Y-101607058D01*
X149772260Y-101709382D01*
X149942420Y-101779864D01*
X150123060Y-101815796D01*
X150307238Y-101815796D01*
X150487878Y-101779864D01*
X150521841Y-101765796D01*
X154751918Y-101765796D01*
X154777445Y-101791323D01*
X154791514Y-101825289D01*
X154893838Y-101978428D01*
X155024072Y-102108662D01*
X155177211Y-102210986D01*
X155347371Y-102281468D01*
X155528011Y-102317400D01*
X155712189Y-102317400D01*
X155892829Y-102281468D01*
X156062989Y-102210986D01*
X156216128Y-102108662D01*
X156346362Y-101978428D01*
X156448686Y-101825289D01*
X156519168Y-101655129D01*
X156555100Y-101474489D01*
X156555100Y-101290311D01*
X156519168Y-101109671D01*
X156448686Y-100939511D01*
X156346362Y-100786372D01*
X156216128Y-100656138D01*
X156062989Y-100553814D01*
X156029023Y-100539745D01*
X155775030Y-100285752D01*
X155747313Y-100251979D01*
X155612555Y-100141385D01*
X155458809Y-100059207D01*
X155291986Y-100008601D01*
X155161973Y-99995796D01*
X155161965Y-99995796D01*
X155118496Y-99991515D01*
X155075027Y-99995796D01*
X150521841Y-99995796D01*
X150487878Y-99981728D01*
X150307238Y-99945796D01*
X150123060Y-99945796D01*
X149942420Y-99981728D01*
X149772260Y-100052210D01*
X149619121Y-100154534D01*
X149488887Y-100284768D01*
X149386563Y-100437907D01*
X149316081Y-100608067D01*
X149280149Y-100788707D01*
X129005101Y-100788707D01*
X129005101Y-80998979D01*
X130715149Y-79288932D01*
X130748917Y-79261219D01*
X130793334Y-79207098D01*
X130859511Y-79126461D01*
X130941688Y-78972716D01*
X130941689Y-78972715D01*
X130992295Y-78805892D01*
X131005100Y-78675879D01*
X131005100Y-78675871D01*
X131009381Y-78632402D01*
X131005100Y-78588933D01*
X131005100Y-77689092D01*
X131019168Y-77655129D01*
X131055100Y-77474489D01*
X131055100Y-77290311D01*
X131019168Y-77109671D01*
X130948686Y-76939511D01*
X130846362Y-76786372D01*
X130716128Y-76656138D01*
X130562989Y-76553814D01*
X130392829Y-76483332D01*
X130212189Y-76447400D01*
X130028011Y-76447400D01*
X129847371Y-76483332D01*
X129677211Y-76553814D01*
X129524072Y-76656138D01*
X129393838Y-76786372D01*
X129291514Y-76939511D01*
X129221032Y-77109671D01*
X129185100Y-77290311D01*
X129185100Y-77474489D01*
X129221032Y-77655129D01*
X129235100Y-77689093D01*
X129235101Y-78265822D01*
X128255100Y-79245824D01*
X128255100Y-74297665D01*
X129934884Y-75977449D01*
X129962597Y-76011217D01*
X129996365Y-76038930D01*
X129996367Y-76038932D01*
X130081333Y-76108662D01*
X130097355Y-76121811D01*
X130251101Y-76203989D01*
X130417924Y-76254595D01*
X130547937Y-76267400D01*
X130547945Y-76267400D01*
X130591414Y-76271681D01*
X130634883Y-76267400D01*
X150063408Y-76267400D01*
X150097371Y-76281468D01*
X150278011Y-76317400D01*
X150462189Y-76317400D01*
X150642829Y-76281468D01*
X150812989Y-76210986D01*
X150966128Y-76108662D01*
X151096362Y-75978428D01*
X151198686Y-75825289D01*
X151269168Y-75655129D01*
X151305100Y-75474489D01*
X151305100Y-75290311D01*
X151269168Y-75109671D01*
X151198686Y-74939511D01*
X151096362Y-74786372D01*
X150966128Y-74656138D01*
X150812989Y-74553814D01*
X150642829Y-74483332D01*
X150462189Y-74447400D01*
X150278011Y-74447400D01*
X150097371Y-74483332D01*
X150063408Y-74497400D01*
X130957993Y-74497400D01*
X130392379Y-73931786D01*
X130556188Y-73875195D01*
X130730144Y-73782214D01*
X130825908Y-73517813D01*
X129870100Y-72562005D01*
X129855958Y-72576148D01*
X129676353Y-72396543D01*
X129690495Y-72382400D01*
X130049705Y-72382400D01*
X131005513Y-73338208D01*
X131269914Y-73242444D01*
X131410804Y-72952829D01*
X131492484Y-72641292D01*
X131511818Y-72319805D01*
X131498319Y-72221367D01*
X153735100Y-72221367D01*
X153735100Y-72543433D01*
X153797932Y-72859312D01*
X153921182Y-73156863D01*
X154100113Y-73424652D01*
X154327848Y-73652387D01*
X154595637Y-73831318D01*
X154893188Y-73954568D01*
X155209067Y-74017400D01*
X155531133Y-74017400D01*
X155847012Y-73954568D01*
X156144563Y-73831318D01*
X156412352Y-73652387D01*
X156546926Y-73517813D01*
X158914292Y-73517813D01*
X159010056Y-73782214D01*
X159299671Y-73923104D01*
X159611208Y-74004784D01*
X159932695Y-74024118D01*
X160251775Y-73980361D01*
X160556188Y-73875195D01*
X160730144Y-73782214D01*
X160825908Y-73517813D01*
X159870100Y-72562005D01*
X158914292Y-73517813D01*
X156546926Y-73517813D01*
X156640087Y-73424652D01*
X156819018Y-73156863D01*
X156942268Y-72859312D01*
X157005100Y-72543433D01*
X157005100Y-72444995D01*
X158228382Y-72444995D01*
X158272139Y-72764075D01*
X158377305Y-73068488D01*
X158470286Y-73242444D01*
X158734687Y-73338208D01*
X159690495Y-72382400D01*
X160049705Y-72382400D01*
X161005513Y-73338208D01*
X161269914Y-73242444D01*
X161410804Y-72952829D01*
X161492484Y-72641292D01*
X161511818Y-72319805D01*
X161468061Y-72000725D01*
X161362895Y-71696312D01*
X161269914Y-71522356D01*
X161005513Y-71426592D01*
X160049705Y-72382400D01*
X159690495Y-72382400D01*
X158734687Y-71426592D01*
X158470286Y-71522356D01*
X158329396Y-71811971D01*
X158247716Y-72123508D01*
X158228382Y-72444995D01*
X157005100Y-72444995D01*
X157005100Y-72221367D01*
X156942268Y-71905488D01*
X156819018Y-71607937D01*
X156640087Y-71340148D01*
X156546926Y-71246987D01*
X158914292Y-71246987D01*
X159870100Y-72202795D01*
X160825908Y-71246987D01*
X160730144Y-70982586D01*
X160440529Y-70841696D01*
X160128992Y-70760016D01*
X159807505Y-70740682D01*
X159488425Y-70784439D01*
X159184012Y-70889605D01*
X159010056Y-70982586D01*
X158914292Y-71246987D01*
X156546926Y-71246987D01*
X156412352Y-71112413D01*
X156144563Y-70933482D01*
X155847012Y-70810232D01*
X155531133Y-70747400D01*
X155209067Y-70747400D01*
X154893188Y-70810232D01*
X154595637Y-70933482D01*
X154327848Y-71112413D01*
X154100113Y-71340148D01*
X153921182Y-71607937D01*
X153797932Y-71905488D01*
X153735100Y-72221367D01*
X131498319Y-72221367D01*
X131468061Y-72000725D01*
X131362895Y-71696312D01*
X131269914Y-71522356D01*
X131005513Y-71426592D01*
X130049705Y-72382400D01*
X129690495Y-72382400D01*
X128734687Y-71426592D01*
X128470286Y-71522356D01*
X128329396Y-71811971D01*
X128317591Y-71856998D01*
X128026631Y-71566038D01*
X127998917Y-71532269D01*
X127965149Y-71504556D01*
X127707580Y-71246987D01*
X128914292Y-71246987D01*
X129870100Y-72202795D01*
X130825908Y-71246987D01*
X130730144Y-70982586D01*
X130440529Y-70841696D01*
X130128992Y-70760016D01*
X129807505Y-70740682D01*
X129488425Y-70784439D01*
X129184012Y-70889605D01*
X129010056Y-70982586D01*
X128914292Y-71246987D01*
X127707580Y-71246987D01*
X125753140Y-69292547D01*
X122181960Y-65721367D01*
X123735100Y-65721367D01*
X123735100Y-66043433D01*
X123797932Y-66359312D01*
X123921182Y-66656863D01*
X124100113Y-66924652D01*
X124327848Y-67152387D01*
X124595637Y-67331318D01*
X124893188Y-67454568D01*
X125209067Y-67517400D01*
X125531133Y-67517400D01*
X125847012Y-67454568D01*
X126144563Y-67331318D01*
X126412352Y-67152387D01*
X126546926Y-67017813D01*
X128914292Y-67017813D01*
X129010056Y-67282214D01*
X129299671Y-67423104D01*
X129611208Y-67504784D01*
X129932695Y-67524118D01*
X130251775Y-67480361D01*
X130556188Y-67375195D01*
X130730144Y-67282214D01*
X130825908Y-67017813D01*
X129870100Y-66062005D01*
X128914292Y-67017813D01*
X126546926Y-67017813D01*
X126640087Y-66924652D01*
X126819018Y-66656863D01*
X126942268Y-66359312D01*
X127005100Y-66043433D01*
X127005100Y-65944995D01*
X128228382Y-65944995D01*
X128272139Y-66264075D01*
X128377305Y-66568488D01*
X128470286Y-66742444D01*
X128734687Y-66838208D01*
X129690495Y-65882400D01*
X130049705Y-65882400D01*
X131005513Y-66838208D01*
X131269914Y-66742444D01*
X131410804Y-66452829D01*
X131492484Y-66141292D01*
X131511818Y-65819805D01*
X131498319Y-65721367D01*
X153735100Y-65721367D01*
X153735100Y-66043433D01*
X153797932Y-66359312D01*
X153921182Y-66656863D01*
X154100113Y-66924652D01*
X154327848Y-67152387D01*
X154595637Y-67331318D01*
X154893188Y-67454568D01*
X155209067Y-67517400D01*
X155531133Y-67517400D01*
X155847012Y-67454568D01*
X156144563Y-67331318D01*
X156412352Y-67152387D01*
X156546926Y-67017813D01*
X158914292Y-67017813D01*
X159010056Y-67282214D01*
X159299671Y-67423104D01*
X159611208Y-67504784D01*
X159932695Y-67524118D01*
X160251775Y-67480361D01*
X160556188Y-67375195D01*
X160730144Y-67282214D01*
X160825908Y-67017813D01*
X159870100Y-66062005D01*
X158914292Y-67017813D01*
X156546926Y-67017813D01*
X156640087Y-66924652D01*
X156819018Y-66656863D01*
X156942268Y-66359312D01*
X157005100Y-66043433D01*
X157005100Y-65944995D01*
X158228382Y-65944995D01*
X158272139Y-66264075D01*
X158377305Y-66568488D01*
X158470286Y-66742444D01*
X158734687Y-66838208D01*
X159690495Y-65882400D01*
X160049705Y-65882400D01*
X161005513Y-66838208D01*
X161269914Y-66742444D01*
X161410804Y-66452829D01*
X161492484Y-66141292D01*
X161511818Y-65819805D01*
X161468061Y-65500725D01*
X161362895Y-65196312D01*
X161269914Y-65022356D01*
X161005513Y-64926592D01*
X160049705Y-65882400D01*
X159690495Y-65882400D01*
X158734687Y-64926592D01*
X158470286Y-65022356D01*
X158329396Y-65311971D01*
X158247716Y-65623508D01*
X158228382Y-65944995D01*
X157005100Y-65944995D01*
X157005100Y-65721367D01*
X156942268Y-65405488D01*
X156819018Y-65107937D01*
X156640087Y-64840148D01*
X156546926Y-64746987D01*
X158914292Y-64746987D01*
X159870100Y-65702795D01*
X160825908Y-64746987D01*
X160730144Y-64482586D01*
X160440529Y-64341696D01*
X160128992Y-64260016D01*
X159807505Y-64240682D01*
X159488425Y-64284439D01*
X159184012Y-64389605D01*
X159010056Y-64482586D01*
X158914292Y-64746987D01*
X156546926Y-64746987D01*
X156412352Y-64612413D01*
X156144563Y-64433482D01*
X155847012Y-64310232D01*
X155531133Y-64247400D01*
X155209067Y-64247400D01*
X154893188Y-64310232D01*
X154595637Y-64433482D01*
X154327848Y-64612413D01*
X154100113Y-64840148D01*
X153921182Y-65107937D01*
X153797932Y-65405488D01*
X153735100Y-65721367D01*
X131498319Y-65721367D01*
X131468061Y-65500725D01*
X131362895Y-65196312D01*
X131269914Y-65022356D01*
X131005513Y-64926592D01*
X130049705Y-65882400D01*
X129690495Y-65882400D01*
X128734687Y-64926592D01*
X128470286Y-65022356D01*
X128329396Y-65311971D01*
X128247716Y-65623508D01*
X128228382Y-65944995D01*
X127005100Y-65944995D01*
X127005100Y-65721367D01*
X126942268Y-65405488D01*
X126819018Y-65107937D01*
X126640087Y-64840148D01*
X126546926Y-64746987D01*
X128914292Y-64746987D01*
X129870100Y-65702795D01*
X130825908Y-64746987D01*
X130730144Y-64482586D01*
X130440529Y-64341696D01*
X130128992Y-64260016D01*
X129807505Y-64240682D01*
X129488425Y-64284439D01*
X129184012Y-64389605D01*
X129010056Y-64482586D01*
X128914292Y-64746987D01*
X126546926Y-64746987D01*
X126412352Y-64612413D01*
X126144563Y-64433482D01*
X125847012Y-64310232D01*
X125531133Y-64247400D01*
X125209067Y-64247400D01*
X124893188Y-64310232D01*
X124595637Y-64433482D01*
X124327848Y-64612413D01*
X124100113Y-64840148D01*
X123921182Y-65107937D01*
X123797932Y-65405488D01*
X123735100Y-65721367D01*
X122181960Y-65721367D01*
X120787948Y-64327356D01*
X120760231Y-64293583D01*
X120625473Y-64182989D01*
X120471727Y-64100811D01*
X120304904Y-64050205D01*
X120174891Y-64037400D01*
X120174883Y-64037400D01*
X120131414Y-64033119D01*
X120119065Y-64034335D01*
X120074139Y-63967098D01*
X119865402Y-63758361D01*
X119699997Y-63647841D01*
X119798588Y-63589217D01*
X120016954Y-63392693D01*
X120192784Y-63157344D01*
X120319322Y-62892214D01*
X120365058Y-62741426D01*
X120243917Y-62509400D01*
X119037100Y-62509400D01*
X119037100Y-62529400D01*
X118783100Y-62529400D01*
X118783100Y-62509400D01*
X116497100Y-62509400D01*
X116497100Y-62529400D01*
X116243100Y-62529400D01*
X116243100Y-62509400D01*
X116223100Y-62509400D01*
X116223100Y-62255400D01*
X116243100Y-62255400D01*
X116243100Y-61042550D01*
X116497100Y-61042550D01*
X116497100Y-62255400D01*
X118783100Y-62255400D01*
X118783100Y-61047936D01*
X119037100Y-61047936D01*
X119037100Y-62255400D01*
X120243917Y-62255400D01*
X120365058Y-62023374D01*
X120319322Y-61872586D01*
X120192784Y-61607456D01*
X120016954Y-61372107D01*
X119798588Y-61175583D01*
X119546078Y-61025436D01*
X119269127Y-60927437D01*
X119037100Y-61047936D01*
X118783100Y-61047936D01*
X118551073Y-60927437D01*
X118274122Y-61025436D01*
X118021612Y-61175583D01*
X117842153Y-61337092D01*
X117823202Y-61274620D01*
X117764237Y-61164306D01*
X117684885Y-61067615D01*
X117588194Y-60988263D01*
X117477880Y-60929298D01*
X117358182Y-60892988D01*
X117233700Y-60880728D01*
X116655850Y-60883800D01*
X116497100Y-61042550D01*
X116243100Y-61042550D01*
X116084350Y-60883800D01*
X115506500Y-60880728D01*
X115382018Y-60892988D01*
X115262320Y-60929298D01*
X115152006Y-60988263D01*
X115101370Y-61029819D01*
X115101370Y-57110666D01*
X115268792Y-57222534D01*
X115484448Y-57311861D01*
X115713388Y-57357400D01*
X115946812Y-57357400D01*
X116175752Y-57311861D01*
X116391408Y-57222534D01*
X116585494Y-57092850D01*
X116750550Y-56927794D01*
X116784190Y-56877448D01*
X116832563Y-56994231D01*
X117022437Y-57278398D01*
X117264102Y-57520063D01*
X117548269Y-57709937D01*
X117864019Y-57840725D01*
X118199217Y-57907400D01*
X118540983Y-57907400D01*
X118876181Y-57840725D01*
X119191931Y-57709937D01*
X119476098Y-57520063D01*
X119717763Y-57278398D01*
X119907637Y-56994231D01*
X119917107Y-56971367D01*
X124445100Y-56971367D01*
X124445100Y-57293433D01*
X124507932Y-57609312D01*
X124631182Y-57906863D01*
X124810113Y-58174652D01*
X125037848Y-58402387D01*
X125305637Y-58581318D01*
X125603188Y-58704568D01*
X125919067Y-58767400D01*
X126241133Y-58767400D01*
X126557012Y-58704568D01*
X126854563Y-58581318D01*
X127122352Y-58402387D01*
X127256926Y-58267813D01*
X127664292Y-58267813D01*
X127760056Y-58532214D01*
X128049671Y-58673104D01*
X128361208Y-58754784D01*
X128682695Y-58774118D01*
X129001775Y-58730361D01*
X129306188Y-58625195D01*
X129480144Y-58532214D01*
X129575908Y-58267813D01*
X128620100Y-57312005D01*
X127664292Y-58267813D01*
X127256926Y-58267813D01*
X127350087Y-58174652D01*
X127422820Y-58065800D01*
X127484687Y-58088208D01*
X128440495Y-57132400D01*
X128799705Y-57132400D01*
X129755513Y-58088208D01*
X129817380Y-58065800D01*
X129890113Y-58174652D01*
X130117848Y-58402387D01*
X130385637Y-58581318D01*
X130683188Y-58704568D01*
X130999067Y-58767400D01*
X131321133Y-58767400D01*
X131637012Y-58704568D01*
X131934563Y-58581318D01*
X132202352Y-58402387D01*
X132430087Y-58174652D01*
X132609018Y-57906863D01*
X132732268Y-57609312D01*
X132795100Y-57293433D01*
X132795100Y-56971367D01*
X132732268Y-56655488D01*
X132609018Y-56357937D01*
X132430087Y-56090148D01*
X132202352Y-55862413D01*
X131934563Y-55683482D01*
X131637012Y-55560232D01*
X131321133Y-55497400D01*
X130999067Y-55497400D01*
X130683188Y-55560232D01*
X130385637Y-55683482D01*
X130117848Y-55862413D01*
X129890113Y-56090148D01*
X129817380Y-56199000D01*
X129755513Y-56176592D01*
X128799705Y-57132400D01*
X128440495Y-57132400D01*
X127484687Y-56176592D01*
X127422820Y-56199000D01*
X127350087Y-56090148D01*
X127256926Y-55996987D01*
X127664292Y-55996987D01*
X128620100Y-56952795D01*
X129575908Y-55996987D01*
X129480144Y-55732586D01*
X129190529Y-55591696D01*
X128878992Y-55510016D01*
X128557505Y-55490682D01*
X128238425Y-55534439D01*
X127934012Y-55639605D01*
X127760056Y-55732586D01*
X127664292Y-55996987D01*
X127256926Y-55996987D01*
X127122352Y-55862413D01*
X126854563Y-55683482D01*
X126557012Y-55560232D01*
X126241133Y-55497400D01*
X125919067Y-55497400D01*
X125603188Y-55560232D01*
X125305637Y-55683482D01*
X125037848Y-55862413D01*
X124810113Y-56090148D01*
X124631182Y-56357937D01*
X124507932Y-56655488D01*
X124445100Y-56971367D01*
X119917107Y-56971367D01*
X120038425Y-56678481D01*
X120105100Y-56343283D01*
X120105100Y-56001517D01*
X120038425Y-55666319D01*
X119907637Y-55350569D01*
X119840410Y-55249957D01*
X119921285Y-55183585D01*
X120000637Y-55086894D01*
X120059602Y-54976580D01*
X120095912Y-54856882D01*
X120108172Y-54732400D01*
X120105100Y-53918150D01*
X119946350Y-53759400D01*
X118497100Y-53759400D01*
X118497100Y-53779400D01*
X118243100Y-53779400D01*
X118243100Y-53759400D01*
X118223100Y-53759400D01*
X118223100Y-53505400D01*
X118243100Y-53505400D01*
X118243100Y-52056150D01*
X118497100Y-52056150D01*
X118497100Y-53505400D01*
X119946350Y-53505400D01*
X120105100Y-53346650D01*
X120108172Y-52532400D01*
X120095912Y-52407918D01*
X120059602Y-52288220D01*
X120000637Y-52177906D01*
X119921285Y-52081215D01*
X119824594Y-52001863D01*
X119714280Y-51942898D01*
X119594582Y-51906588D01*
X119470100Y-51894328D01*
X118655850Y-51897400D01*
X118497100Y-52056150D01*
X118243100Y-52056150D01*
X118084350Y-51897400D01*
X117270100Y-51894328D01*
X117145618Y-51906588D01*
X117025920Y-51942898D01*
X116915606Y-52001863D01*
X116818915Y-52081215D01*
X116739563Y-52177906D01*
X116680598Y-52288220D01*
X116644288Y-52407918D01*
X116632028Y-52532400D01*
X116632884Y-52759340D01*
X116585494Y-52711950D01*
X116391408Y-52582266D01*
X116175752Y-52492939D01*
X115946812Y-52447400D01*
X115713388Y-52447400D01*
X115484448Y-52492939D01*
X115268792Y-52582266D01*
X115101370Y-52694134D01*
X115101370Y-49072404D01*
X115173659Y-48153882D01*
X115382891Y-47282367D01*
X115515791Y-46961517D01*
X119725100Y-46961517D01*
X119725100Y-47303283D01*
X119791775Y-47638481D01*
X119922563Y-47954231D01*
X120112437Y-48238398D01*
X120354102Y-48480063D01*
X120638269Y-48669937D01*
X120954019Y-48800725D01*
X121289217Y-48867400D01*
X121630983Y-48867400D01*
X121966181Y-48800725D01*
X122281931Y-48669937D01*
X122566098Y-48480063D01*
X122807763Y-48238398D01*
X122997637Y-47954231D01*
X123128425Y-47638481D01*
X123195100Y-47303283D01*
X123195100Y-46961517D01*
X123128425Y-46626319D01*
X122997637Y-46310569D01*
X122811771Y-46032400D01*
X129882028Y-46032400D01*
X129882028Y-48232400D01*
X129894288Y-48356882D01*
X129930598Y-48476580D01*
X129989563Y-48586894D01*
X130068915Y-48683585D01*
X130165606Y-48762937D01*
X130275920Y-48821902D01*
X130395618Y-48858212D01*
X130520100Y-48870472D01*
X132720100Y-48870472D01*
X132844582Y-48858212D01*
X132964280Y-48821902D01*
X133074594Y-48762937D01*
X133171285Y-48683585D01*
X133250637Y-48586894D01*
X133309602Y-48476580D01*
X133345912Y-48356882D01*
X133358172Y-48232400D01*
X133358172Y-46032400D01*
X133345912Y-45907918D01*
X133309602Y-45788220D01*
X133250637Y-45677906D01*
X133171285Y-45581215D01*
X133074594Y-45501863D01*
X132964280Y-45442898D01*
X132844582Y-45406588D01*
X132720100Y-45394328D01*
X130520100Y-45394328D01*
X130395618Y-45406588D01*
X130275920Y-45442898D01*
X130165606Y-45501863D01*
X130068915Y-45581215D01*
X129989563Y-45677906D01*
X129930598Y-45788220D01*
X129894288Y-45907918D01*
X129882028Y-46032400D01*
X122811771Y-46032400D01*
X122807763Y-46026402D01*
X122566098Y-45784737D01*
X122281931Y-45594863D01*
X121966181Y-45464075D01*
X121630983Y-45397400D01*
X121289217Y-45397400D01*
X120954019Y-45464075D01*
X120638269Y-45594863D01*
X120354102Y-45784737D01*
X120112437Y-46026402D01*
X119922563Y-46310569D01*
X119791775Y-46626319D01*
X119725100Y-46961517D01*
X115515791Y-46961517D01*
X115725884Y-46454311D01*
X116194188Y-45690109D01*
X116776274Y-45008574D01*
X117457809Y-44426487D01*
X118222011Y-43958184D01*
X119050069Y-43615191D01*
X119921582Y-43405959D01*
X120840104Y-43333670D01*
X134783831Y-43333670D01*
X134783830Y-64256149D01*
%TA.AperFunction,Conductor*%
D22*
G36*
X134783830Y-64256149D02*
G01*
X134780752Y-64287400D01*
X134793037Y-64412131D01*
X134829419Y-64532068D01*
X134888502Y-64642603D01*
X134968013Y-64739487D01*
X135064897Y-64818998D01*
X135175432Y-64878081D01*
X135295369Y-64914463D01*
X135420100Y-64926748D01*
X135451351Y-64923670D01*
X153168849Y-64923670D01*
X153200100Y-64926748D01*
X153231351Y-64923670D01*
X153244246Y-64922400D01*
X153324831Y-64914463D01*
X153444768Y-64878081D01*
X153555303Y-64818998D01*
X153652187Y-64739487D01*
X153731698Y-64642603D01*
X153790781Y-64532068D01*
X153827163Y-64412131D01*
X153836370Y-64318651D01*
X153836370Y-64318650D01*
X153839448Y-64287400D01*
X153836370Y-64256149D01*
X153836370Y-61518800D01*
X163128428Y-61518800D01*
X163131500Y-62096650D01*
X163290250Y-62255400D01*
X164503100Y-62255400D01*
X164503100Y-61042550D01*
X164757100Y-61042550D01*
X164757100Y-62255400D01*
X167043100Y-62255400D01*
X167043100Y-61047936D01*
X166811073Y-60927437D01*
X166534122Y-61025436D01*
X166281612Y-61175583D01*
X166102153Y-61337092D01*
X166083202Y-61274620D01*
X166024237Y-61164306D01*
X165944885Y-61067615D01*
X165848194Y-60988263D01*
X165737880Y-60929298D01*
X165618182Y-60892988D01*
X165493700Y-60880728D01*
X164915850Y-60883800D01*
X164757100Y-61042550D01*
X164503100Y-61042550D01*
X164344350Y-60883800D01*
X163766500Y-60880728D01*
X163642018Y-60892988D01*
X163522320Y-60929298D01*
X163412006Y-60988263D01*
X163315315Y-61067615D01*
X163235963Y-61164306D01*
X163176998Y-61274620D01*
X163140688Y-61394318D01*
X163128428Y-61518800D01*
X153836370Y-61518800D01*
X153836370Y-50318670D01*
X168438831Y-50318670D01*
X168438831Y-61588780D01*
X168276954Y-61372107D01*
X168058588Y-61175583D01*
X167806078Y-61025436D01*
X167529127Y-60927437D01*
X167297100Y-61047936D01*
X167297100Y-62255400D01*
X167317100Y-62255400D01*
X167317100Y-62509400D01*
X167297100Y-62509400D01*
X167297100Y-62529400D01*
X167043100Y-62529400D01*
X167043100Y-62509400D01*
X164757100Y-62509400D01*
X164757100Y-62529400D01*
X164503100Y-62529400D01*
X164503100Y-62509400D01*
X163290250Y-62509400D01*
X163131500Y-62668150D01*
X163128428Y-63246000D01*
X163140688Y-63370482D01*
X163176998Y-63490180D01*
X163235963Y-63600494D01*
X163315315Y-63697185D01*
X163412006Y-63776537D01*
X163522320Y-63835502D01*
X163580123Y-63853036D01*
X163466061Y-63967098D01*
X163302058Y-64212547D01*
X163189090Y-64485275D01*
X163131500Y-64774801D01*
X163131500Y-65069999D01*
X163189090Y-65359525D01*
X163302058Y-65632253D01*
X163466061Y-65877702D01*
X163674798Y-66086439D01*
X163833381Y-66192400D01*
X163674798Y-66298361D01*
X163466061Y-66507098D01*
X163302058Y-66752547D01*
X163189090Y-67025275D01*
X163131500Y-67314801D01*
X163131500Y-67609999D01*
X163189090Y-67899525D01*
X163302058Y-68172253D01*
X163466061Y-68417702D01*
X163674798Y-68626439D01*
X163833381Y-68732400D01*
X163674798Y-68838361D01*
X163466061Y-69047098D01*
X163302058Y-69292547D01*
X163189090Y-69565275D01*
X163131500Y-69854801D01*
X163131500Y-70149999D01*
X163189090Y-70439525D01*
X163302058Y-70712253D01*
X163466061Y-70957702D01*
X163674798Y-71166439D01*
X163833381Y-71272400D01*
X163674798Y-71378361D01*
X163466061Y-71587098D01*
X163302058Y-71832547D01*
X163189090Y-72105275D01*
X163131500Y-72394801D01*
X163131500Y-72689999D01*
X163189090Y-72979525D01*
X163302058Y-73252253D01*
X163466061Y-73497702D01*
X163674798Y-73706439D01*
X163833381Y-73812400D01*
X163674798Y-73918361D01*
X163466061Y-74127098D01*
X163302058Y-74372547D01*
X163189090Y-74645275D01*
X163131500Y-74934801D01*
X163131500Y-75229999D01*
X163189090Y-75519525D01*
X163302058Y-75792253D01*
X163466061Y-76037702D01*
X163674798Y-76246439D01*
X163833381Y-76352400D01*
X163674798Y-76458361D01*
X163466061Y-76667098D01*
X163302058Y-76912547D01*
X163189090Y-77185275D01*
X163131500Y-77474801D01*
X163131500Y-77769999D01*
X163189090Y-78059525D01*
X163302058Y-78332253D01*
X163466061Y-78577702D01*
X163674798Y-78786439D01*
X163833381Y-78892400D01*
X163674798Y-78998361D01*
X163466061Y-79207098D01*
X163302058Y-79452547D01*
X163189090Y-79725275D01*
X163131500Y-80014801D01*
X163131500Y-80309999D01*
X163189090Y-80599525D01*
X163302058Y-80872253D01*
X163466061Y-81117702D01*
X163674798Y-81326439D01*
X163833381Y-81432400D01*
X163674798Y-81538361D01*
X163466061Y-81747098D01*
X163302058Y-81992547D01*
X163189090Y-82265275D01*
X163131500Y-82554801D01*
X163131500Y-82849999D01*
X163189090Y-83139525D01*
X163302058Y-83412253D01*
X163466061Y-83657702D01*
X163674798Y-83866439D01*
X163833381Y-83972400D01*
X163674798Y-84078361D01*
X163466061Y-84287098D01*
X163302058Y-84532547D01*
X163189090Y-84805275D01*
X163131500Y-85094801D01*
X163131500Y-85389999D01*
X163189090Y-85679525D01*
X163302058Y-85952253D01*
X163466061Y-86197702D01*
X163674798Y-86406439D01*
X163833381Y-86512400D01*
X163674798Y-86618361D01*
X163466061Y-86827098D01*
X163302058Y-87072547D01*
X163189090Y-87345275D01*
X163131500Y-87634801D01*
X163131500Y-87929999D01*
X163189090Y-88219525D01*
X163302058Y-88492253D01*
X163466061Y-88737702D01*
X163674798Y-88946439D01*
X163833381Y-89052400D01*
X163674798Y-89158361D01*
X163466061Y-89367098D01*
X163302058Y-89612547D01*
X163189090Y-89885275D01*
X163131500Y-90174801D01*
X163131500Y-90469999D01*
X163189090Y-90759525D01*
X163302058Y-91032253D01*
X163466061Y-91277702D01*
X163674798Y-91486439D01*
X163833381Y-91592400D01*
X163674798Y-91698361D01*
X163466061Y-91907098D01*
X163302058Y-92152547D01*
X163189090Y-92425275D01*
X163131500Y-92714801D01*
X163131500Y-93009999D01*
X163189090Y-93299525D01*
X163302058Y-93572253D01*
X163466061Y-93817702D01*
X163674798Y-94026439D01*
X163833381Y-94132400D01*
X163674798Y-94238361D01*
X163466061Y-94447098D01*
X163302058Y-94692547D01*
X163189090Y-94965275D01*
X163131500Y-95254801D01*
X163131500Y-95549999D01*
X163189090Y-95839525D01*
X163302058Y-96112253D01*
X163466061Y-96357702D01*
X163674798Y-96566439D01*
X163833381Y-96672400D01*
X163674798Y-96778361D01*
X163466061Y-96987098D01*
X163302058Y-97232547D01*
X163189090Y-97505275D01*
X163131500Y-97794801D01*
X163131500Y-98089999D01*
X163189090Y-98379525D01*
X163302058Y-98652253D01*
X163466061Y-98897702D01*
X163674798Y-99106439D01*
X163833381Y-99212400D01*
X163674798Y-99318361D01*
X163466061Y-99527098D01*
X163302058Y-99772547D01*
X163189090Y-100045275D01*
X163131500Y-100334801D01*
X163131500Y-100629999D01*
X163189090Y-100919525D01*
X163302058Y-101192253D01*
X163466061Y-101437702D01*
X163674798Y-101646439D01*
X163833381Y-101752400D01*
X163674798Y-101858361D01*
X163466061Y-102067098D01*
X163302058Y-102312547D01*
X163189090Y-102585275D01*
X163131500Y-102874801D01*
X163131500Y-103169999D01*
X163189090Y-103459525D01*
X163302058Y-103732253D01*
X163466061Y-103977702D01*
X163674798Y-104186439D01*
X163833381Y-104292400D01*
X163674798Y-104398361D01*
X163466061Y-104607098D01*
X163302058Y-104852547D01*
X163189090Y-105125275D01*
X163131500Y-105414801D01*
X163131500Y-105709999D01*
X163189090Y-105999525D01*
X163302058Y-106272253D01*
X163466061Y-106517702D01*
X163674798Y-106726439D01*
X163833381Y-106832400D01*
X163674798Y-106938361D01*
X163466061Y-107147098D01*
X163302058Y-107392547D01*
X163189090Y-107665275D01*
X163131500Y-107954801D01*
X163131500Y-108249999D01*
X163189090Y-108539525D01*
X163302058Y-108812253D01*
X163466061Y-109057702D01*
X163674798Y-109266439D01*
X163833381Y-109372400D01*
X163674798Y-109478361D01*
X163466061Y-109687098D01*
X163302058Y-109932547D01*
X163189090Y-110205275D01*
X163131500Y-110494801D01*
X163131500Y-110789999D01*
X163189090Y-111079525D01*
X163302058Y-111352253D01*
X163466061Y-111597702D01*
X163674798Y-111806439D01*
X163833381Y-111912400D01*
X163674798Y-112018361D01*
X163466061Y-112227098D01*
X163302058Y-112472547D01*
X163189090Y-112745275D01*
X163131500Y-113034801D01*
X163131500Y-113329999D01*
X163189090Y-113619525D01*
X163302058Y-113892253D01*
X163466061Y-114137702D01*
X163674798Y-114346439D01*
X163833381Y-114452400D01*
X163674798Y-114558361D01*
X163466061Y-114767098D01*
X163302058Y-115012547D01*
X163189090Y-115285275D01*
X163131500Y-115574801D01*
X163131500Y-115869999D01*
X163189090Y-116159525D01*
X163302058Y-116432253D01*
X163466061Y-116677702D01*
X163674798Y-116886439D01*
X163833381Y-116992400D01*
X163674798Y-117098361D01*
X163466061Y-117307098D01*
X163302058Y-117552547D01*
X163189090Y-117825275D01*
X163131500Y-118114801D01*
X163131500Y-118409999D01*
X163189090Y-118699525D01*
X163302058Y-118972253D01*
X163466061Y-119217702D01*
X163674798Y-119426439D01*
X163920247Y-119590442D01*
X164192975Y-119703410D01*
X164482501Y-119761000D01*
X164777699Y-119761000D01*
X165067225Y-119703410D01*
X165339953Y-119590442D01*
X165585402Y-119426439D01*
X165794139Y-119217702D01*
X165900100Y-119059119D01*
X166006061Y-119217702D01*
X166214798Y-119426439D01*
X166460247Y-119590442D01*
X166732975Y-119703410D01*
X167022501Y-119761000D01*
X167317699Y-119761000D01*
X167607225Y-119703410D01*
X167879953Y-119590442D01*
X168000411Y-119509955D01*
X167766864Y-120324430D01*
X167253667Y-121569537D01*
X166604882Y-122749674D01*
X165828586Y-123850144D01*
X164934462Y-124857219D01*
X163933653Y-125758351D01*
X162838639Y-126542304D01*
X161663061Y-127199313D01*
X160421563Y-127721191D01*
X159129638Y-128101425D01*
X157803368Y-128335282D01*
X156442664Y-128420891D01*
X156374031Y-128421130D01*
X127182875Y-128421130D01*
X125820482Y-128344961D01*
X124492617Y-128120369D01*
X123198070Y-127749164D01*
X121952963Y-127235967D01*
X120772826Y-126587182D01*
X119672356Y-125810886D01*
X118665281Y-124916762D01*
X117764149Y-123915953D01*
X116980196Y-122820939D01*
X116323187Y-121645361D01*
X115801309Y-120403863D01*
X115535692Y-119501374D01*
X115734122Y-119619364D01*
X116011073Y-119717363D01*
X116243100Y-119596864D01*
X116243100Y-118389400D01*
X116497100Y-118389400D01*
X116497100Y-119596864D01*
X116729127Y-119717363D01*
X117006078Y-119619364D01*
X117258588Y-119469217D01*
X117476954Y-119272693D01*
X117640100Y-119054322D01*
X117803246Y-119272693D01*
X118021612Y-119469217D01*
X118274122Y-119619364D01*
X118551073Y-119717363D01*
X118783100Y-119596864D01*
X118783100Y-118389400D01*
X119037100Y-118389400D01*
X119037100Y-119596864D01*
X119269127Y-119717363D01*
X119546078Y-119619364D01*
X119798588Y-119469217D01*
X120016954Y-119272693D01*
X120192784Y-119037344D01*
X120319322Y-118772214D01*
X120365058Y-118621426D01*
X120243917Y-118389400D01*
X119037100Y-118389400D01*
X118783100Y-118389400D01*
X116497100Y-118389400D01*
X116243100Y-118389400D01*
X116223100Y-118389400D01*
X116223100Y-118135400D01*
X116243100Y-118135400D01*
X116243100Y-115849400D01*
X116497100Y-115849400D01*
X116497100Y-118135400D01*
X118783100Y-118135400D01*
X118783100Y-115849400D01*
X119037100Y-115849400D01*
X119037100Y-118135400D01*
X120243917Y-118135400D01*
X120365058Y-117903374D01*
X120319322Y-117752586D01*
X120192784Y-117487456D01*
X120016954Y-117252107D01*
X119798588Y-117055583D01*
X119692330Y-116992400D01*
X119798588Y-116929217D01*
X120016954Y-116732693D01*
X120192784Y-116497344D01*
X120319322Y-116232214D01*
X120365058Y-116081426D01*
X120243917Y-115849400D01*
X119037100Y-115849400D01*
X118783100Y-115849400D01*
X116497100Y-115849400D01*
X116243100Y-115849400D01*
X116223100Y-115849400D01*
X116223100Y-115595400D01*
X116243100Y-115595400D01*
X116243100Y-115575400D01*
X116497100Y-115575400D01*
X116497100Y-115595400D01*
X118783100Y-115595400D01*
X118783100Y-115575400D01*
X119037100Y-115575400D01*
X119037100Y-115595400D01*
X120243917Y-115595400D01*
X120365058Y-115363374D01*
X120319322Y-115212586D01*
X120192784Y-114947456D01*
X120016954Y-114712107D01*
X119798588Y-114515583D01*
X119699997Y-114456959D01*
X119865402Y-114346439D01*
X120074139Y-114137702D01*
X120238142Y-113892253D01*
X120351110Y-113619525D01*
X120408700Y-113329999D01*
X120408700Y-113034801D01*
X120351110Y-112745275D01*
X120238142Y-112472547D01*
X120074139Y-112227098D01*
X119865402Y-112018361D01*
X119706819Y-111912400D01*
X119865402Y-111806439D01*
X120074139Y-111597702D01*
X120238142Y-111352253D01*
X120351110Y-111079525D01*
X120408700Y-110789999D01*
X120408700Y-110494801D01*
X120351110Y-110205275D01*
X120238142Y-109932547D01*
X120074139Y-109687098D01*
X119865402Y-109478361D01*
X119706819Y-109372400D01*
X119865402Y-109266439D01*
X120074139Y-109057702D01*
X120238142Y-108812253D01*
X120257514Y-108765485D01*
X122235099Y-110743071D01*
X122235099Y-110864488D01*
X122271031Y-111045128D01*
X122341513Y-111215288D01*
X122443837Y-111368427D01*
X122574071Y-111498661D01*
X122727210Y-111600985D01*
X122897370Y-111671467D01*
X123078010Y-111707399D01*
X123235100Y-111707399D01*
X123235100Y-113720067D01*
X123231423Y-113757399D01*
X123246097Y-113906384D01*
X123289553Y-114049645D01*
X123360125Y-114181675D01*
X123430509Y-114267437D01*
X123447845Y-114288561D01*
X123471032Y-114405129D01*
X123541514Y-114575289D01*
X123643838Y-114728428D01*
X123774072Y-114858662D01*
X123927211Y-114960986D01*
X124097371Y-115031468D01*
X124278011Y-115067400D01*
X124462189Y-115067400D01*
X124642829Y-115031468D01*
X124812989Y-114960986D01*
X124870100Y-114922826D01*
X124927211Y-114960986D01*
X125097371Y-115031468D01*
X125235100Y-115058864D01*
X125235100Y-116575708D01*
X125221032Y-116609671D01*
X125185100Y-116790311D01*
X125185100Y-116974489D01*
X125221032Y-117155129D01*
X125291514Y-117325289D01*
X125393838Y-117478428D01*
X125524072Y-117608662D01*
X125677211Y-117710986D01*
X125847371Y-117781468D01*
X126028011Y-117817400D01*
X126212189Y-117817400D01*
X126392829Y-117781468D01*
X126562989Y-117710986D01*
X126716128Y-117608662D01*
X126846362Y-117478428D01*
X126948686Y-117325289D01*
X127019168Y-117155129D01*
X127055100Y-116974489D01*
X127055100Y-116882400D01*
X149982028Y-116882400D01*
X149982028Y-119882400D01*
X149994288Y-120006882D01*
X150030598Y-120126580D01*
X150089563Y-120236894D01*
X150168915Y-120333585D01*
X150265606Y-120412937D01*
X150375920Y-120471902D01*
X150495618Y-120508212D01*
X150620100Y-120520472D01*
X152120100Y-120520472D01*
X152244582Y-120508212D01*
X152364280Y-120471902D01*
X152474594Y-120412937D01*
X152571285Y-120333585D01*
X152650637Y-120236894D01*
X152709602Y-120126580D01*
X152745912Y-120006882D01*
X152758172Y-119882400D01*
X152758172Y-117564364D01*
X154985100Y-117564364D01*
X154985100Y-119200437D01*
X155005140Y-119403907D01*
X155084337Y-119664981D01*
X155212944Y-119905588D01*
X155386020Y-120116481D01*
X155596913Y-120289557D01*
X155837520Y-120418164D01*
X156098594Y-120497360D01*
X156370100Y-120524101D01*
X156641607Y-120497360D01*
X156902681Y-120418164D01*
X157143288Y-120289557D01*
X157354181Y-120116481D01*
X157527257Y-119905588D01*
X157655864Y-119664981D01*
X157735060Y-119403907D01*
X157755100Y-119200437D01*
X157755100Y-117564363D01*
X157735060Y-117360893D01*
X157655864Y-117099819D01*
X157527257Y-116859212D01*
X157354180Y-116648319D01*
X157143287Y-116475243D01*
X156902680Y-116346636D01*
X156641606Y-116267440D01*
X156370100Y-116240699D01*
X156098593Y-116267440D01*
X155837519Y-116346636D01*
X155596912Y-116475243D01*
X155386019Y-116648320D01*
X155212943Y-116859213D01*
X155084336Y-117099820D01*
X155005140Y-117360894D01*
X154985100Y-117564364D01*
X152758172Y-117564364D01*
X152758172Y-116882400D01*
X152745912Y-116757918D01*
X152709602Y-116638220D01*
X152650637Y-116527906D01*
X152571285Y-116431215D01*
X152474594Y-116351863D01*
X152364280Y-116292898D01*
X152244582Y-116256588D01*
X152120100Y-116244328D01*
X150620100Y-116244328D01*
X150495618Y-116256588D01*
X150375920Y-116292898D01*
X150265606Y-116351863D01*
X150168915Y-116431215D01*
X150089563Y-116527906D01*
X150030598Y-116638220D01*
X149994288Y-116757918D01*
X149982028Y-116882400D01*
X127055100Y-116882400D01*
X127055100Y-116790311D01*
X127019168Y-116609671D01*
X127005100Y-116575708D01*
X127005100Y-89993248D01*
X127097371Y-90031468D01*
X127235101Y-90058865D01*
X127235102Y-113588920D01*
X127230820Y-113632399D01*
X127247906Y-113805889D01*
X127298513Y-113972712D01*
X127380691Y-114126458D01*
X127463569Y-114227445D01*
X127463572Y-114227448D01*
X127491285Y-114261216D01*
X127525052Y-114288928D01*
X128700253Y-115464130D01*
X128685100Y-115540311D01*
X128685100Y-115724489D01*
X128721032Y-115905129D01*
X128791514Y-116075289D01*
X128893838Y-116228428D01*
X129024072Y-116358662D01*
X129177211Y-116460986D01*
X129347371Y-116531468D01*
X129528011Y-116567400D01*
X129712189Y-116567400D01*
X129892829Y-116531468D01*
X130062989Y-116460986D01*
X130216128Y-116358662D01*
X130346362Y-116228428D01*
X130448686Y-116075289D01*
X130519168Y-115905129D01*
X130555100Y-115724489D01*
X130555100Y-115540311D01*
X130519168Y-115359671D01*
X130505100Y-115325708D01*
X130505100Y-115175867D01*
X130509381Y-115132398D01*
X130505100Y-115088929D01*
X130505100Y-115088921D01*
X130492295Y-114958908D01*
X130441689Y-114792085D01*
X130359511Y-114638339D01*
X130307767Y-114575289D01*
X130276632Y-114537351D01*
X130276630Y-114537349D01*
X130248917Y-114503581D01*
X130215150Y-114475869D01*
X129005101Y-113265821D01*
X129005101Y-100788707D01*
X149280149Y-100788707D01*
X149280149Y-100972885D01*
X149316081Y-101153525D01*
X149386563Y-101323685D01*
X149488887Y-101476824D01*
X149619121Y-101607058D01*
X149772260Y-101709382D01*
X149942420Y-101779864D01*
X150123060Y-101815796D01*
X150307238Y-101815796D01*
X150487878Y-101779864D01*
X150521841Y-101765796D01*
X154751918Y-101765796D01*
X154777445Y-101791323D01*
X154791514Y-101825289D01*
X154893838Y-101978428D01*
X155024072Y-102108662D01*
X155177211Y-102210986D01*
X155347371Y-102281468D01*
X155528011Y-102317400D01*
X155712189Y-102317400D01*
X155892829Y-102281468D01*
X156062989Y-102210986D01*
X156216128Y-102108662D01*
X156346362Y-101978428D01*
X156448686Y-101825289D01*
X156519168Y-101655129D01*
X156555100Y-101474489D01*
X156555100Y-101290311D01*
X156519168Y-101109671D01*
X156448686Y-100939511D01*
X156346362Y-100786372D01*
X156216128Y-100656138D01*
X156062989Y-100553814D01*
X156029023Y-100539745D01*
X155775030Y-100285752D01*
X155747313Y-100251979D01*
X155612555Y-100141385D01*
X155458809Y-100059207D01*
X155291986Y-100008601D01*
X155161973Y-99995796D01*
X155161965Y-99995796D01*
X155118496Y-99991515D01*
X155075027Y-99995796D01*
X150521841Y-99995796D01*
X150487878Y-99981728D01*
X150307238Y-99945796D01*
X150123060Y-99945796D01*
X149942420Y-99981728D01*
X149772260Y-100052210D01*
X149619121Y-100154534D01*
X149488887Y-100284768D01*
X149386563Y-100437907D01*
X149316081Y-100608067D01*
X149280149Y-100788707D01*
X129005101Y-100788707D01*
X129005101Y-80998979D01*
X130715149Y-79288932D01*
X130748917Y-79261219D01*
X130793334Y-79207098D01*
X130859511Y-79126461D01*
X130941688Y-78972716D01*
X130941689Y-78972715D01*
X130992295Y-78805892D01*
X131005100Y-78675879D01*
X131005100Y-78675871D01*
X131009381Y-78632402D01*
X131005100Y-78588933D01*
X131005100Y-77689092D01*
X131019168Y-77655129D01*
X131055100Y-77474489D01*
X131055100Y-77290311D01*
X131019168Y-77109671D01*
X130948686Y-76939511D01*
X130846362Y-76786372D01*
X130716128Y-76656138D01*
X130562989Y-76553814D01*
X130392829Y-76483332D01*
X130212189Y-76447400D01*
X130028011Y-76447400D01*
X129847371Y-76483332D01*
X129677211Y-76553814D01*
X129524072Y-76656138D01*
X129393838Y-76786372D01*
X129291514Y-76939511D01*
X129221032Y-77109671D01*
X129185100Y-77290311D01*
X129185100Y-77474489D01*
X129221032Y-77655129D01*
X129235100Y-77689093D01*
X129235101Y-78265822D01*
X128255100Y-79245824D01*
X128255100Y-74297665D01*
X129934884Y-75977449D01*
X129962597Y-76011217D01*
X129996365Y-76038930D01*
X129996367Y-76038932D01*
X130081333Y-76108662D01*
X130097355Y-76121811D01*
X130251101Y-76203989D01*
X130417924Y-76254595D01*
X130547937Y-76267400D01*
X130547945Y-76267400D01*
X130591414Y-76271681D01*
X130634883Y-76267400D01*
X150063408Y-76267400D01*
X150097371Y-76281468D01*
X150278011Y-76317400D01*
X150462189Y-76317400D01*
X150642829Y-76281468D01*
X150812989Y-76210986D01*
X150966128Y-76108662D01*
X151096362Y-75978428D01*
X151198686Y-75825289D01*
X151269168Y-75655129D01*
X151305100Y-75474489D01*
X151305100Y-75290311D01*
X151269168Y-75109671D01*
X151198686Y-74939511D01*
X151096362Y-74786372D01*
X150966128Y-74656138D01*
X150812989Y-74553814D01*
X150642829Y-74483332D01*
X150462189Y-74447400D01*
X150278011Y-74447400D01*
X150097371Y-74483332D01*
X150063408Y-74497400D01*
X130957993Y-74497400D01*
X130392379Y-73931786D01*
X130556188Y-73875195D01*
X130730144Y-73782214D01*
X130825908Y-73517813D01*
X129870100Y-72562005D01*
X129855958Y-72576148D01*
X129676353Y-72396543D01*
X129690495Y-72382400D01*
X130049705Y-72382400D01*
X131005513Y-73338208D01*
X131269914Y-73242444D01*
X131410804Y-72952829D01*
X131492484Y-72641292D01*
X131511818Y-72319805D01*
X131498319Y-72221367D01*
X153735100Y-72221367D01*
X153735100Y-72543433D01*
X153797932Y-72859312D01*
X153921182Y-73156863D01*
X154100113Y-73424652D01*
X154327848Y-73652387D01*
X154595637Y-73831318D01*
X154893188Y-73954568D01*
X155209067Y-74017400D01*
X155531133Y-74017400D01*
X155847012Y-73954568D01*
X156144563Y-73831318D01*
X156412352Y-73652387D01*
X156546926Y-73517813D01*
X158914292Y-73517813D01*
X159010056Y-73782214D01*
X159299671Y-73923104D01*
X159611208Y-74004784D01*
X159932695Y-74024118D01*
X160251775Y-73980361D01*
X160556188Y-73875195D01*
X160730144Y-73782214D01*
X160825908Y-73517813D01*
X159870100Y-72562005D01*
X158914292Y-73517813D01*
X156546926Y-73517813D01*
X156640087Y-73424652D01*
X156819018Y-73156863D01*
X156942268Y-72859312D01*
X157005100Y-72543433D01*
X157005100Y-72444995D01*
X158228382Y-72444995D01*
X158272139Y-72764075D01*
X158377305Y-73068488D01*
X158470286Y-73242444D01*
X158734687Y-73338208D01*
X159690495Y-72382400D01*
X160049705Y-72382400D01*
X161005513Y-73338208D01*
X161269914Y-73242444D01*
X161410804Y-72952829D01*
X161492484Y-72641292D01*
X161511818Y-72319805D01*
X161468061Y-72000725D01*
X161362895Y-71696312D01*
X161269914Y-71522356D01*
X161005513Y-71426592D01*
X160049705Y-72382400D01*
X159690495Y-72382400D01*
X158734687Y-71426592D01*
X158470286Y-71522356D01*
X158329396Y-71811971D01*
X158247716Y-72123508D01*
X158228382Y-72444995D01*
X157005100Y-72444995D01*
X157005100Y-72221367D01*
X156942268Y-71905488D01*
X156819018Y-71607937D01*
X156640087Y-71340148D01*
X156546926Y-71246987D01*
X158914292Y-71246987D01*
X159870100Y-72202795D01*
X160825908Y-71246987D01*
X160730144Y-70982586D01*
X160440529Y-70841696D01*
X160128992Y-70760016D01*
X159807505Y-70740682D01*
X159488425Y-70784439D01*
X159184012Y-70889605D01*
X159010056Y-70982586D01*
X158914292Y-71246987D01*
X156546926Y-71246987D01*
X156412352Y-71112413D01*
X156144563Y-70933482D01*
X155847012Y-70810232D01*
X155531133Y-70747400D01*
X155209067Y-70747400D01*
X154893188Y-70810232D01*
X154595637Y-70933482D01*
X154327848Y-71112413D01*
X154100113Y-71340148D01*
X153921182Y-71607937D01*
X153797932Y-71905488D01*
X153735100Y-72221367D01*
X131498319Y-72221367D01*
X131468061Y-72000725D01*
X131362895Y-71696312D01*
X131269914Y-71522356D01*
X131005513Y-71426592D01*
X130049705Y-72382400D01*
X129690495Y-72382400D01*
X128734687Y-71426592D01*
X128470286Y-71522356D01*
X128329396Y-71811971D01*
X128317591Y-71856998D01*
X128026631Y-71566038D01*
X127998917Y-71532269D01*
X127965149Y-71504556D01*
X127707580Y-71246987D01*
X128914292Y-71246987D01*
X129870100Y-72202795D01*
X130825908Y-71246987D01*
X130730144Y-70982586D01*
X130440529Y-70841696D01*
X130128992Y-70760016D01*
X129807505Y-70740682D01*
X129488425Y-70784439D01*
X129184012Y-70889605D01*
X129010056Y-70982586D01*
X128914292Y-71246987D01*
X127707580Y-71246987D01*
X125753140Y-69292547D01*
X122181960Y-65721367D01*
X123735100Y-65721367D01*
X123735100Y-66043433D01*
X123797932Y-66359312D01*
X123921182Y-66656863D01*
X124100113Y-66924652D01*
X124327848Y-67152387D01*
X124595637Y-67331318D01*
X124893188Y-67454568D01*
X125209067Y-67517400D01*
X125531133Y-67517400D01*
X125847012Y-67454568D01*
X126144563Y-67331318D01*
X126412352Y-67152387D01*
X126546926Y-67017813D01*
X128914292Y-67017813D01*
X129010056Y-67282214D01*
X129299671Y-67423104D01*
X129611208Y-67504784D01*
X129932695Y-67524118D01*
X130251775Y-67480361D01*
X130556188Y-67375195D01*
X130730144Y-67282214D01*
X130825908Y-67017813D01*
X129870100Y-66062005D01*
X128914292Y-67017813D01*
X126546926Y-67017813D01*
X126640087Y-66924652D01*
X126819018Y-66656863D01*
X126942268Y-66359312D01*
X127005100Y-66043433D01*
X127005100Y-65944995D01*
X128228382Y-65944995D01*
X128272139Y-66264075D01*
X128377305Y-66568488D01*
X128470286Y-66742444D01*
X128734687Y-66838208D01*
X129690495Y-65882400D01*
X130049705Y-65882400D01*
X131005513Y-66838208D01*
X131269914Y-66742444D01*
X131410804Y-66452829D01*
X131492484Y-66141292D01*
X131511818Y-65819805D01*
X131498319Y-65721367D01*
X153735100Y-65721367D01*
X153735100Y-66043433D01*
X153797932Y-66359312D01*
X153921182Y-66656863D01*
X154100113Y-66924652D01*
X154327848Y-67152387D01*
X154595637Y-67331318D01*
X154893188Y-67454568D01*
X155209067Y-67517400D01*
X155531133Y-67517400D01*
X155847012Y-67454568D01*
X156144563Y-67331318D01*
X156412352Y-67152387D01*
X156546926Y-67017813D01*
X158914292Y-67017813D01*
X159010056Y-67282214D01*
X159299671Y-67423104D01*
X159611208Y-67504784D01*
X159932695Y-67524118D01*
X160251775Y-67480361D01*
X160556188Y-67375195D01*
X160730144Y-67282214D01*
X160825908Y-67017813D01*
X159870100Y-66062005D01*
X158914292Y-67017813D01*
X156546926Y-67017813D01*
X156640087Y-66924652D01*
X156819018Y-66656863D01*
X156942268Y-66359312D01*
X157005100Y-66043433D01*
X157005100Y-65944995D01*
X158228382Y-65944995D01*
X158272139Y-66264075D01*
X158377305Y-66568488D01*
X158470286Y-66742444D01*
X158734687Y-66838208D01*
X159690495Y-65882400D01*
X160049705Y-65882400D01*
X161005513Y-66838208D01*
X161269914Y-66742444D01*
X161410804Y-66452829D01*
X161492484Y-66141292D01*
X161511818Y-65819805D01*
X161468061Y-65500725D01*
X161362895Y-65196312D01*
X161269914Y-65022356D01*
X161005513Y-64926592D01*
X160049705Y-65882400D01*
X159690495Y-65882400D01*
X158734687Y-64926592D01*
X158470286Y-65022356D01*
X158329396Y-65311971D01*
X158247716Y-65623508D01*
X158228382Y-65944995D01*
X157005100Y-65944995D01*
X157005100Y-65721367D01*
X156942268Y-65405488D01*
X156819018Y-65107937D01*
X156640087Y-64840148D01*
X156546926Y-64746987D01*
X158914292Y-64746987D01*
X159870100Y-65702795D01*
X160825908Y-64746987D01*
X160730144Y-64482586D01*
X160440529Y-64341696D01*
X160128992Y-64260016D01*
X159807505Y-64240682D01*
X159488425Y-64284439D01*
X159184012Y-64389605D01*
X159010056Y-64482586D01*
X158914292Y-64746987D01*
X156546926Y-64746987D01*
X156412352Y-64612413D01*
X156144563Y-64433482D01*
X155847012Y-64310232D01*
X155531133Y-64247400D01*
X155209067Y-64247400D01*
X154893188Y-64310232D01*
X154595637Y-64433482D01*
X154327848Y-64612413D01*
X154100113Y-64840148D01*
X153921182Y-65107937D01*
X153797932Y-65405488D01*
X153735100Y-65721367D01*
X131498319Y-65721367D01*
X131468061Y-65500725D01*
X131362895Y-65196312D01*
X131269914Y-65022356D01*
X131005513Y-64926592D01*
X130049705Y-65882400D01*
X129690495Y-65882400D01*
X128734687Y-64926592D01*
X128470286Y-65022356D01*
X128329396Y-65311971D01*
X128247716Y-65623508D01*
X128228382Y-65944995D01*
X127005100Y-65944995D01*
X127005100Y-65721367D01*
X126942268Y-65405488D01*
X126819018Y-65107937D01*
X126640087Y-64840148D01*
X126546926Y-64746987D01*
X128914292Y-64746987D01*
X129870100Y-65702795D01*
X130825908Y-64746987D01*
X130730144Y-64482586D01*
X130440529Y-64341696D01*
X130128992Y-64260016D01*
X129807505Y-64240682D01*
X129488425Y-64284439D01*
X129184012Y-64389605D01*
X129010056Y-64482586D01*
X128914292Y-64746987D01*
X126546926Y-64746987D01*
X126412352Y-64612413D01*
X126144563Y-64433482D01*
X125847012Y-64310232D01*
X125531133Y-64247400D01*
X125209067Y-64247400D01*
X124893188Y-64310232D01*
X124595637Y-64433482D01*
X124327848Y-64612413D01*
X124100113Y-64840148D01*
X123921182Y-65107937D01*
X123797932Y-65405488D01*
X123735100Y-65721367D01*
X122181960Y-65721367D01*
X120787948Y-64327356D01*
X120760231Y-64293583D01*
X120625473Y-64182989D01*
X120471727Y-64100811D01*
X120304904Y-64050205D01*
X120174891Y-64037400D01*
X120174883Y-64037400D01*
X120131414Y-64033119D01*
X120119065Y-64034335D01*
X120074139Y-63967098D01*
X119865402Y-63758361D01*
X119699997Y-63647841D01*
X119798588Y-63589217D01*
X120016954Y-63392693D01*
X120192784Y-63157344D01*
X120319322Y-62892214D01*
X120365058Y-62741426D01*
X120243917Y-62509400D01*
X119037100Y-62509400D01*
X119037100Y-62529400D01*
X118783100Y-62529400D01*
X118783100Y-62509400D01*
X116497100Y-62509400D01*
X116497100Y-62529400D01*
X116243100Y-62529400D01*
X116243100Y-62509400D01*
X116223100Y-62509400D01*
X116223100Y-62255400D01*
X116243100Y-62255400D01*
X116243100Y-61042550D01*
X116497100Y-61042550D01*
X116497100Y-62255400D01*
X118783100Y-62255400D01*
X118783100Y-61047936D01*
X119037100Y-61047936D01*
X119037100Y-62255400D01*
X120243917Y-62255400D01*
X120365058Y-62023374D01*
X120319322Y-61872586D01*
X120192784Y-61607456D01*
X120016954Y-61372107D01*
X119798588Y-61175583D01*
X119546078Y-61025436D01*
X119269127Y-60927437D01*
X119037100Y-61047936D01*
X118783100Y-61047936D01*
X118551073Y-60927437D01*
X118274122Y-61025436D01*
X118021612Y-61175583D01*
X117842153Y-61337092D01*
X117823202Y-61274620D01*
X117764237Y-61164306D01*
X117684885Y-61067615D01*
X117588194Y-60988263D01*
X117477880Y-60929298D01*
X117358182Y-60892988D01*
X117233700Y-60880728D01*
X116655850Y-60883800D01*
X116497100Y-61042550D01*
X116243100Y-61042550D01*
X116084350Y-60883800D01*
X115506500Y-60880728D01*
X115382018Y-60892988D01*
X115262320Y-60929298D01*
X115152006Y-60988263D01*
X115101370Y-61029819D01*
X115101370Y-57110666D01*
X115268792Y-57222534D01*
X115484448Y-57311861D01*
X115713388Y-57357400D01*
X115946812Y-57357400D01*
X116175752Y-57311861D01*
X116391408Y-57222534D01*
X116585494Y-57092850D01*
X116750550Y-56927794D01*
X116784190Y-56877448D01*
X116832563Y-56994231D01*
X117022437Y-57278398D01*
X117264102Y-57520063D01*
X117548269Y-57709937D01*
X117864019Y-57840725D01*
X118199217Y-57907400D01*
X118540983Y-57907400D01*
X118876181Y-57840725D01*
X119191931Y-57709937D01*
X119476098Y-57520063D01*
X119717763Y-57278398D01*
X119907637Y-56994231D01*
X119917107Y-56971367D01*
X124445100Y-56971367D01*
X124445100Y-57293433D01*
X124507932Y-57609312D01*
X124631182Y-57906863D01*
X124810113Y-58174652D01*
X125037848Y-58402387D01*
X125305637Y-58581318D01*
X125603188Y-58704568D01*
X125919067Y-58767400D01*
X126241133Y-58767400D01*
X126557012Y-58704568D01*
X126854563Y-58581318D01*
X127122352Y-58402387D01*
X127256926Y-58267813D01*
X127664292Y-58267813D01*
X127760056Y-58532214D01*
X128049671Y-58673104D01*
X128361208Y-58754784D01*
X128682695Y-58774118D01*
X129001775Y-58730361D01*
X129306188Y-58625195D01*
X129480144Y-58532214D01*
X129575908Y-58267813D01*
X128620100Y-57312005D01*
X127664292Y-58267813D01*
X127256926Y-58267813D01*
X127350087Y-58174652D01*
X127422820Y-58065800D01*
X127484687Y-58088208D01*
X128440495Y-57132400D01*
X128799705Y-57132400D01*
X129755513Y-58088208D01*
X129817380Y-58065800D01*
X129890113Y-58174652D01*
X130117848Y-58402387D01*
X130385637Y-58581318D01*
X130683188Y-58704568D01*
X130999067Y-58767400D01*
X131321133Y-58767400D01*
X131637012Y-58704568D01*
X131934563Y-58581318D01*
X132202352Y-58402387D01*
X132430087Y-58174652D01*
X132609018Y-57906863D01*
X132732268Y-57609312D01*
X132795100Y-57293433D01*
X132795100Y-56971367D01*
X132732268Y-56655488D01*
X132609018Y-56357937D01*
X132430087Y-56090148D01*
X132202352Y-55862413D01*
X131934563Y-55683482D01*
X131637012Y-55560232D01*
X131321133Y-55497400D01*
X130999067Y-55497400D01*
X130683188Y-55560232D01*
X130385637Y-55683482D01*
X130117848Y-55862413D01*
X129890113Y-56090148D01*
X129817380Y-56199000D01*
X129755513Y-56176592D01*
X128799705Y-57132400D01*
X128440495Y-57132400D01*
X127484687Y-56176592D01*
X127422820Y-56199000D01*
X127350087Y-56090148D01*
X127256926Y-55996987D01*
X127664292Y-55996987D01*
X128620100Y-56952795D01*
X129575908Y-55996987D01*
X129480144Y-55732586D01*
X129190529Y-55591696D01*
X128878992Y-55510016D01*
X128557505Y-55490682D01*
X128238425Y-55534439D01*
X127934012Y-55639605D01*
X127760056Y-55732586D01*
X127664292Y-55996987D01*
X127256926Y-55996987D01*
X127122352Y-55862413D01*
X126854563Y-55683482D01*
X126557012Y-55560232D01*
X126241133Y-55497400D01*
X125919067Y-55497400D01*
X125603188Y-55560232D01*
X125305637Y-55683482D01*
X125037848Y-55862413D01*
X124810113Y-56090148D01*
X124631182Y-56357937D01*
X124507932Y-56655488D01*
X124445100Y-56971367D01*
X119917107Y-56971367D01*
X120038425Y-56678481D01*
X120105100Y-56343283D01*
X120105100Y-56001517D01*
X120038425Y-55666319D01*
X119907637Y-55350569D01*
X119840410Y-55249957D01*
X119921285Y-55183585D01*
X120000637Y-55086894D01*
X120059602Y-54976580D01*
X120095912Y-54856882D01*
X120108172Y-54732400D01*
X120105100Y-53918150D01*
X119946350Y-53759400D01*
X118497100Y-53759400D01*
X118497100Y-53779400D01*
X118243100Y-53779400D01*
X118243100Y-53759400D01*
X118223100Y-53759400D01*
X118223100Y-53505400D01*
X118243100Y-53505400D01*
X118243100Y-52056150D01*
X118497100Y-52056150D01*
X118497100Y-53505400D01*
X119946350Y-53505400D01*
X120105100Y-53346650D01*
X120108172Y-52532400D01*
X120095912Y-52407918D01*
X120059602Y-52288220D01*
X120000637Y-52177906D01*
X119921285Y-52081215D01*
X119824594Y-52001863D01*
X119714280Y-51942898D01*
X119594582Y-51906588D01*
X119470100Y-51894328D01*
X118655850Y-51897400D01*
X118497100Y-52056150D01*
X118243100Y-52056150D01*
X118084350Y-51897400D01*
X117270100Y-51894328D01*
X117145618Y-51906588D01*
X117025920Y-51942898D01*
X116915606Y-52001863D01*
X116818915Y-52081215D01*
X116739563Y-52177906D01*
X116680598Y-52288220D01*
X116644288Y-52407918D01*
X116632028Y-52532400D01*
X116632884Y-52759340D01*
X116585494Y-52711950D01*
X116391408Y-52582266D01*
X116175752Y-52492939D01*
X115946812Y-52447400D01*
X115713388Y-52447400D01*
X115484448Y-52492939D01*
X115268792Y-52582266D01*
X115101370Y-52694134D01*
X115101370Y-49072404D01*
X115173659Y-48153882D01*
X115382891Y-47282367D01*
X115515791Y-46961517D01*
X119725100Y-46961517D01*
X119725100Y-47303283D01*
X119791775Y-47638481D01*
X119922563Y-47954231D01*
X120112437Y-48238398D01*
X120354102Y-48480063D01*
X120638269Y-48669937D01*
X120954019Y-48800725D01*
X121289217Y-48867400D01*
X121630983Y-48867400D01*
X121966181Y-48800725D01*
X122281931Y-48669937D01*
X122566098Y-48480063D01*
X122807763Y-48238398D01*
X122997637Y-47954231D01*
X123128425Y-47638481D01*
X123195100Y-47303283D01*
X123195100Y-46961517D01*
X123128425Y-46626319D01*
X122997637Y-46310569D01*
X122811771Y-46032400D01*
X129882028Y-46032400D01*
X129882028Y-48232400D01*
X129894288Y-48356882D01*
X129930598Y-48476580D01*
X129989563Y-48586894D01*
X130068915Y-48683585D01*
X130165606Y-48762937D01*
X130275920Y-48821902D01*
X130395618Y-48858212D01*
X130520100Y-48870472D01*
X132720100Y-48870472D01*
X132844582Y-48858212D01*
X132964280Y-48821902D01*
X133074594Y-48762937D01*
X133171285Y-48683585D01*
X133250637Y-48586894D01*
X133309602Y-48476580D01*
X133345912Y-48356882D01*
X133358172Y-48232400D01*
X133358172Y-46032400D01*
X133345912Y-45907918D01*
X133309602Y-45788220D01*
X133250637Y-45677906D01*
X133171285Y-45581215D01*
X133074594Y-45501863D01*
X132964280Y-45442898D01*
X132844582Y-45406588D01*
X132720100Y-45394328D01*
X130520100Y-45394328D01*
X130395618Y-45406588D01*
X130275920Y-45442898D01*
X130165606Y-45501863D01*
X130068915Y-45581215D01*
X129989563Y-45677906D01*
X129930598Y-45788220D01*
X129894288Y-45907918D01*
X129882028Y-46032400D01*
X122811771Y-46032400D01*
X122807763Y-46026402D01*
X122566098Y-45784737D01*
X122281931Y-45594863D01*
X121966181Y-45464075D01*
X121630983Y-45397400D01*
X121289217Y-45397400D01*
X120954019Y-45464075D01*
X120638269Y-45594863D01*
X120354102Y-45784737D01*
X120112437Y-46026402D01*
X119922563Y-46310569D01*
X119791775Y-46626319D01*
X119725100Y-46961517D01*
X115515791Y-46961517D01*
X115725884Y-46454311D01*
X116194188Y-45690109D01*
X116776274Y-45008574D01*
X117457809Y-44426487D01*
X118222011Y-43958184D01*
X119050069Y-43615191D01*
X119921582Y-43405959D01*
X120840104Y-43333670D01*
X134783831Y-43333670D01*
X134783830Y-64256149D01*
G37*
%TD.AperFunction*%
D21*
X123735100Y-93858979D02*
X123735101Y-107553469D01*
X120108263Y-103926632D01*
X120238142Y-103732253D01*
X120351110Y-103459525D01*
X120408700Y-103169999D01*
X120408700Y-102874801D01*
X120351110Y-102585275D01*
X120238142Y-102312547D01*
X120074139Y-102067098D01*
X119865402Y-101858361D01*
X119706819Y-101752400D01*
X119865402Y-101646439D01*
X120074139Y-101437702D01*
X120238142Y-101192253D01*
X120351110Y-100919525D01*
X120408700Y-100629999D01*
X120408700Y-100334801D01*
X120351110Y-100045275D01*
X120238142Y-99772547D01*
X120074139Y-99527098D01*
X119865402Y-99318361D01*
X119706819Y-99212400D01*
X119865402Y-99106439D01*
X120074139Y-98897702D01*
X120238142Y-98652253D01*
X120351110Y-98379525D01*
X120408700Y-98089999D01*
X120408700Y-97794801D01*
X120351110Y-97505275D01*
X120238142Y-97232547D01*
X120074139Y-96987098D01*
X119865402Y-96778361D01*
X119706819Y-96672400D01*
X119865402Y-96566439D01*
X120074139Y-96357702D01*
X120238142Y-96112253D01*
X120351110Y-95839525D01*
X120408700Y-95549999D01*
X120408700Y-95254801D01*
X120351110Y-94965275D01*
X120238142Y-94692547D01*
X120074139Y-94447098D01*
X119865402Y-94238361D01*
X119706819Y-94132400D01*
X119865402Y-94026439D01*
X120074139Y-93817702D01*
X120121113Y-93747400D01*
X122515123Y-93747400D01*
X122597371Y-93781468D01*
X122778011Y-93817400D01*
X122962189Y-93817400D01*
X123142829Y-93781468D01*
X123312989Y-93710986D01*
X123466128Y-93608662D01*
X123475456Y-93599334D01*
X123735100Y-93858979D01*
%TA.AperFunction,Conductor*%
D22*
G36*
X123735100Y-93858979D02*
G01*
X123735101Y-107553469D01*
X120108263Y-103926632D01*
X120238142Y-103732253D01*
X120351110Y-103459525D01*
X120408700Y-103169999D01*
X120408700Y-102874801D01*
X120351110Y-102585275D01*
X120238142Y-102312547D01*
X120074139Y-102067098D01*
X119865402Y-101858361D01*
X119706819Y-101752400D01*
X119865402Y-101646439D01*
X120074139Y-101437702D01*
X120238142Y-101192253D01*
X120351110Y-100919525D01*
X120408700Y-100629999D01*
X120408700Y-100334801D01*
X120351110Y-100045275D01*
X120238142Y-99772547D01*
X120074139Y-99527098D01*
X119865402Y-99318361D01*
X119706819Y-99212400D01*
X119865402Y-99106439D01*
X120074139Y-98897702D01*
X120238142Y-98652253D01*
X120351110Y-98379525D01*
X120408700Y-98089999D01*
X120408700Y-97794801D01*
X120351110Y-97505275D01*
X120238142Y-97232547D01*
X120074139Y-96987098D01*
X119865402Y-96778361D01*
X119706819Y-96672400D01*
X119865402Y-96566439D01*
X120074139Y-96357702D01*
X120238142Y-96112253D01*
X120351110Y-95839525D01*
X120408700Y-95549999D01*
X120408700Y-95254801D01*
X120351110Y-94965275D01*
X120238142Y-94692547D01*
X120074139Y-94447098D01*
X119865402Y-94238361D01*
X119706819Y-94132400D01*
X119865402Y-94026439D01*
X120074139Y-93817702D01*
X120121113Y-93747400D01*
X122515123Y-93747400D01*
X122597371Y-93781468D01*
X122778011Y-93817400D01*
X122962189Y-93817400D01*
X123142829Y-93781468D01*
X123312989Y-93710986D01*
X123466128Y-93608662D01*
X123475456Y-93599334D01*
X123735100Y-93858979D01*
G37*
%TD.AperFunction*%
D21*
X124485100Y-81908979D02*
X124485100Y-92105821D01*
X120392205Y-88012927D01*
X120408700Y-87929999D01*
X120408700Y-87634801D01*
X120351110Y-87345275D01*
X120238142Y-87072547D01*
X120074139Y-86827098D01*
X119865402Y-86618361D01*
X119706819Y-86512400D01*
X119865402Y-86406439D01*
X120074139Y-86197702D01*
X120238142Y-85952253D01*
X120351110Y-85679525D01*
X120408700Y-85389999D01*
X120408700Y-85094801D01*
X120351110Y-84805275D01*
X120238142Y-84532547D01*
X120074139Y-84287098D01*
X119865402Y-84078361D01*
X119706819Y-83972400D01*
X119865402Y-83866439D01*
X120074139Y-83657702D01*
X120238142Y-83412253D01*
X120351110Y-83139525D01*
X120408700Y-82849999D01*
X120408700Y-82554801D01*
X120351110Y-82265275D01*
X120238142Y-81992547D01*
X120074139Y-81747098D01*
X119865402Y-81538361D01*
X119706819Y-81432400D01*
X119865402Y-81326439D01*
X120074139Y-81117702D01*
X120238142Y-80872253D01*
X120351110Y-80599525D01*
X120408700Y-80309999D01*
X120408700Y-80014801D01*
X120351110Y-79725275D01*
X120238142Y-79452547D01*
X120074139Y-79207098D01*
X119865402Y-78998361D01*
X119706819Y-78892400D01*
X119865402Y-78786439D01*
X120074139Y-78577702D01*
X120238142Y-78332253D01*
X120351110Y-78059525D01*
X120398317Y-77822196D01*
X124485100Y-81908979D01*
%TA.AperFunction,Conductor*%
D22*
G36*
X124485100Y-81908979D02*
G01*
X124485100Y-92105821D01*
X120392205Y-88012927D01*
X120408700Y-87929999D01*
X120408700Y-87634801D01*
X120351110Y-87345275D01*
X120238142Y-87072547D01*
X120074139Y-86827098D01*
X119865402Y-86618361D01*
X119706819Y-86512400D01*
X119865402Y-86406439D01*
X120074139Y-86197702D01*
X120238142Y-85952253D01*
X120351110Y-85679525D01*
X120408700Y-85389999D01*
X120408700Y-85094801D01*
X120351110Y-84805275D01*
X120238142Y-84532547D01*
X120074139Y-84287098D01*
X119865402Y-84078361D01*
X119706819Y-83972400D01*
X119865402Y-83866439D01*
X120074139Y-83657702D01*
X120238142Y-83412253D01*
X120351110Y-83139525D01*
X120408700Y-82849999D01*
X120408700Y-82554801D01*
X120351110Y-82265275D01*
X120238142Y-81992547D01*
X120074139Y-81747098D01*
X119865402Y-81538361D01*
X119706819Y-81432400D01*
X119865402Y-81326439D01*
X120074139Y-81117702D01*
X120238142Y-80872253D01*
X120351110Y-80599525D01*
X120408700Y-80309999D01*
X120408700Y-80014801D01*
X120351110Y-79725275D01*
X120238142Y-79452547D01*
X120074139Y-79207098D01*
X119865402Y-78998361D01*
X119706819Y-78892400D01*
X119865402Y-78786439D01*
X120074139Y-78577702D01*
X120238142Y-78332253D01*
X120351110Y-78059525D01*
X120398317Y-77822196D01*
X124485100Y-81908979D01*
G37*
%TD.AperFunction*%
D21*
X124717452Y-70760016D02*
X124804432Y-70846996D01*
X124595637Y-70933482D01*
X124327848Y-71112413D01*
X124100113Y-71340148D01*
X123921182Y-71607937D01*
X123797932Y-71905488D01*
X123735100Y-72221367D01*
X123735100Y-72543433D01*
X123797932Y-72859312D01*
X123921182Y-73156863D01*
X124100113Y-73424652D01*
X124327848Y-73652387D01*
X124595637Y-73831318D01*
X124893188Y-73954568D01*
X125209067Y-74017400D01*
X125531133Y-74017400D01*
X125847012Y-73954568D01*
X126144563Y-73831318D01*
X126412352Y-73652387D01*
X126485100Y-73579639D01*
X126485100Y-77021552D01*
X126392829Y-76983332D01*
X126212189Y-76947400D01*
X126028011Y-76947400D01*
X125847371Y-76983332D01*
X125677211Y-77053814D01*
X125524072Y-77156138D01*
X125393838Y-77286372D01*
X125291514Y-77439511D01*
X125221032Y-77609671D01*
X125185100Y-77790311D01*
X125185100Y-77974489D01*
X125221032Y-78155129D01*
X125235100Y-78189093D01*
X125235101Y-80155822D01*
X120392205Y-75312927D01*
X120408700Y-75229999D01*
X120408700Y-74934801D01*
X120351110Y-74645275D01*
X120238142Y-74372547D01*
X120074139Y-74127098D01*
X119865402Y-73918361D01*
X119706819Y-73812400D01*
X119865402Y-73706439D01*
X120074139Y-73497702D01*
X120238142Y-73252253D01*
X120351110Y-72979525D01*
X120408700Y-72689999D01*
X120408700Y-72394801D01*
X120351110Y-72105275D01*
X120238142Y-71832547D01*
X120074139Y-71587098D01*
X119865402Y-71378361D01*
X119706819Y-71272400D01*
X119865402Y-71166439D01*
X120074139Y-70957702D01*
X120238142Y-70712253D01*
X120351110Y-70439525D01*
X120408700Y-70149999D01*
X120408700Y-69854801D01*
X120351110Y-69565275D01*
X120238142Y-69292547D01*
X120074139Y-69047098D01*
X119865402Y-68838361D01*
X119706819Y-68732400D01*
X119865402Y-68626439D01*
X120074139Y-68417702D01*
X120238142Y-68172253D01*
X120351110Y-67899525D01*
X120408700Y-67609999D01*
X120408700Y-67314801D01*
X120351110Y-67025275D01*
X120238142Y-66752547D01*
X120074139Y-66507098D01*
X119865402Y-66298361D01*
X119706819Y-66192400D01*
X119865402Y-66086439D01*
X119954638Y-65997203D01*
X124717452Y-70760016D01*
%TA.AperFunction,Conductor*%
D22*
G36*
X124717452Y-70760016D02*
G01*
X124804432Y-70846996D01*
X124595637Y-70933482D01*
X124327848Y-71112413D01*
X124100113Y-71340148D01*
X123921182Y-71607937D01*
X123797932Y-71905488D01*
X123735100Y-72221367D01*
X123735100Y-72543433D01*
X123797932Y-72859312D01*
X123921182Y-73156863D01*
X124100113Y-73424652D01*
X124327848Y-73652387D01*
X124595637Y-73831318D01*
X124893188Y-73954568D01*
X125209067Y-74017400D01*
X125531133Y-74017400D01*
X125847012Y-73954568D01*
X126144563Y-73831318D01*
X126412352Y-73652387D01*
X126485100Y-73579639D01*
X126485100Y-77021552D01*
X126392829Y-76983332D01*
X126212189Y-76947400D01*
X126028011Y-76947400D01*
X125847371Y-76983332D01*
X125677211Y-77053814D01*
X125524072Y-77156138D01*
X125393838Y-77286372D01*
X125291514Y-77439511D01*
X125221032Y-77609671D01*
X125185100Y-77790311D01*
X125185100Y-77974489D01*
X125221032Y-78155129D01*
X125235100Y-78189093D01*
X125235101Y-80155822D01*
X120392205Y-75312927D01*
X120408700Y-75229999D01*
X120408700Y-74934801D01*
X120351110Y-74645275D01*
X120238142Y-74372547D01*
X120074139Y-74127098D01*
X119865402Y-73918361D01*
X119706819Y-73812400D01*
X119865402Y-73706439D01*
X120074139Y-73497702D01*
X120238142Y-73252253D01*
X120351110Y-72979525D01*
X120408700Y-72689999D01*
X120408700Y-72394801D01*
X120351110Y-72105275D01*
X120238142Y-71832547D01*
X120074139Y-71587098D01*
X119865402Y-71378361D01*
X119706819Y-71272400D01*
X119865402Y-71166439D01*
X120074139Y-70957702D01*
X120238142Y-70712253D01*
X120351110Y-70439525D01*
X120408700Y-70149999D01*
X120408700Y-69854801D01*
X120351110Y-69565275D01*
X120238142Y-69292547D01*
X120074139Y-69047098D01*
X119865402Y-68838361D01*
X119706819Y-68732400D01*
X119865402Y-68626439D01*
X120074139Y-68417702D01*
X120238142Y-68172253D01*
X120351110Y-67899525D01*
X120408700Y-67609999D01*
X120408700Y-67314801D01*
X120351110Y-67025275D01*
X120238142Y-66752547D01*
X120074139Y-66507098D01*
X119865402Y-66298361D01*
X119706819Y-66192400D01*
X119865402Y-66086439D01*
X119954638Y-65997203D01*
X124717452Y-70760016D01*
G37*
%TD.AperFunction*%
%TD*%
M02*
