%TF.GenerationSoftware,KiCad,Pcbnew,9.0.6+1*%
%TF.CreationDate,2025-12-05T21:38:12+00:00*%
%TF.ProjectId,com4bbb,636f6d34-6262-4622-9e6b-696361645f70,0.2*%
%TF.SameCoordinates,Original*%
%TF.FileFunction,Copper,L3,Inr*%
%TF.FilePolarity,Positive*%
%FSLAX46Y46*%
G04 Gerber Fmt 4.6, Leading zero omitted, Abs format (unit mm)*
G04 Created by KiCad (PCBNEW 9.0.6+1) date 2025-12-05 21:38:12*
%MOMM*%
%LPD*%
G01*
G04 APERTURE LIST*
G04 Aperture macros list*
%AMRoundRect*
0 Rectangle with rounded corners*
0 $1 Rounding radius*
0 $2 $3 $4 $5 $6 $7 $8 $9 X,Y pos of 4 corners*
0 Add a 4 corners polygon primitive as box body*
4,1,4,$2,$3,$4,$5,$6,$7,$8,$9,$2,$3,0*
0 Add four circle primitives for the rounded corners*
1,1,$1+$1,$2,$3*
1,1,$1+$1,$4,$5*
1,1,$1+$1,$6,$7*
1,1,$1+$1,$8,$9*
0 Add four rect primitives between the rounded corners*
20,1,$1+$1,$2,$3,$4,$5,0*
20,1,$1+$1,$4,$5,$6,$7,0*
20,1,$1+$1,$6,$7,$8,$9,0*
20,1,$1+$1,$8,$9,$2,$3,0*%
G04 Aperture macros list end*
%TA.AperFunction,ComponentPad*%
%ADD10R,1.700000X1.700000*%
%TD*%
%TA.AperFunction,ComponentPad*%
%ADD11C,1.700000*%
%TD*%
%TA.AperFunction,ComponentPad*%
%ADD12RoundRect,0.250001X-0.499999X-1.249999X0.499999X-1.249999X0.499999X1.249999X-0.499999X1.249999X0*%
%TD*%
%TA.AperFunction,ComponentPad*%
%ADD13R,1.500000X3.000000*%
%TD*%
%TA.AperFunction,ComponentPad*%
%ADD14O,1.500000X3.000000*%
%TD*%
%TA.AperFunction,ComponentPad*%
%ADD15C,2.000000*%
%TD*%
%TA.AperFunction,ComponentPad*%
%ADD16RoundRect,0.250001X0.499999X1.249999X-0.499999X1.249999X-0.499999X-1.249999X0.499999X-1.249999X0*%
%TD*%
%TA.AperFunction,ComponentPad*%
%ADD17RoundRect,0.250000X0.550000X-0.550000X0.550000X0.550000X-0.550000X0.550000X-0.550000X-0.550000X0*%
%TD*%
%TA.AperFunction,ComponentPad*%
%ADD18C,1.600000*%
%TD*%
%TA.AperFunction,HeatsinkPad*%
%ADD19O,1.700000X1.350000*%
%TD*%
%TA.AperFunction,HeatsinkPad*%
%ADD20O,1.500000X1.100000*%
%TD*%
%TA.AperFunction,ViaPad*%
%ADD21C,0.600000*%
%TD*%
%TA.AperFunction,Conductor*%
%ADD22C,0.250000*%
%TD*%
%TA.AperFunction,Conductor*%
%ADD23C,0.200000*%
%TD*%
G04 APERTURE END LIST*
D10*
%TO.N,GNDD*%
%TO.C,P8*%
X164630100Y-62382400D03*
D11*
X167170100Y-62382400D03*
%TO.N,unconnected-(P8-Pin_3-Pad3)*%
X164630100Y-64922400D03*
%TO.N,unconnected-(P8-Pin_4-Pad4)*%
X167170100Y-64922400D03*
%TO.N,unconnected-(P8-Pin_5-Pad5)*%
X164630100Y-67462400D03*
%TO.N,unconnected-(P8-Pin_6-Pad6)*%
X167170100Y-67462400D03*
%TO.N,/LED0*%
X164630100Y-70002400D03*
%TO.N,/LED1*%
X167170100Y-70002400D03*
%TO.N,/LED2*%
X164630100Y-72542400D03*
%TO.N,/LED3*%
X167170100Y-72542400D03*
%TO.N,/LED4*%
X164630100Y-75082400D03*
%TO.N,/LED5*%
X167170100Y-75082400D03*
%TO.N,/LED6*%
X164630100Y-77622400D03*
%TO.N,/LED7*%
X167170100Y-77622400D03*
%TO.N,/LED8*%
X164630100Y-80162400D03*
%TO.N,/LED9*%
X167170100Y-80162400D03*
%TO.N,/LED10*%
X164630100Y-82702400D03*
%TO.N,/LED11*%
X167170100Y-82702400D03*
%TO.N,/LED12*%
X164630100Y-85242400D03*
%TO.N,unconnected-(P8-Pin_20-Pad20)*%
X167170100Y-85242400D03*
%TO.N,unconnected-(P8-Pin_21-Pad21)*%
X164630100Y-87782400D03*
%TO.N,unconnected-(P8-Pin_22-Pad22)*%
X167170100Y-87782400D03*
%TO.N,unconnected-(P8-Pin_23-Pad23)*%
X164630100Y-90322400D03*
%TO.N,unconnected-(P8-Pin_24-Pad24)*%
X167170100Y-90322400D03*
%TO.N,unconnected-(P8-Pin_25-Pad25)*%
X164630100Y-92862400D03*
%TO.N,/DE{slash}~{RE}*%
X167170100Y-92862400D03*
%TO.N,unconnected-(P8-Pin_27-Pad27)*%
X164630100Y-95402400D03*
%TO.N,unconnected-(P8-Pin_28-Pad28)*%
X167170100Y-95402400D03*
%TO.N,unconnected-(P8-Pin_29-Pad29)*%
X164630100Y-97942400D03*
%TO.N,unconnected-(P8-Pin_30-Pad30)*%
X167170100Y-97942400D03*
%TO.N,unconnected-(P8-Pin_31-Pad31)*%
X164630100Y-100482400D03*
%TO.N,unconnected-(P8-Pin_32-Pad32)*%
X167170100Y-100482400D03*
%TO.N,unconnected-(P8-Pin_33-Pad33)*%
X164630100Y-103022400D03*
%TO.N,unconnected-(P8-Pin_34-Pad34)*%
X167170100Y-103022400D03*
%TO.N,unconnected-(P8-Pin_35-Pad35)*%
X164630100Y-105562400D03*
%TO.N,unconnected-(P8-Pin_36-Pad36)*%
X167170100Y-105562400D03*
%TO.N,unconnected-(P8-Pin_37-Pad37)*%
X164630100Y-108102400D03*
%TO.N,unconnected-(P8-Pin_38-Pad38)*%
X167170100Y-108102400D03*
%TO.N,unconnected-(P8-Pin_39-Pad39)*%
X164630100Y-110642400D03*
%TO.N,unconnected-(P8-Pin_40-Pad40)*%
X167170100Y-110642400D03*
%TO.N,unconnected-(P8-Pin_41-Pad41)*%
X164630100Y-113182400D03*
%TO.N,unconnected-(P8-Pin_42-Pad42)*%
X167170100Y-113182400D03*
%TO.N,unconnected-(P8-Pin_43-Pad43)*%
X164630100Y-115722400D03*
%TO.N,unconnected-(P8-Pin_44-Pad44)*%
X167170100Y-115722400D03*
%TO.N,unconnected-(P8-Pin_45-Pad45)*%
X164630100Y-118262400D03*
%TO.N,unconnected-(P8-Pin_46-Pad46)*%
X167170100Y-118262400D03*
%TD*%
D10*
%TO.N,GNDD*%
%TO.C,P9*%
X116370100Y-62382400D03*
D11*
X118910100Y-62382400D03*
%TO.N,+3V3*%
X116370100Y-64922400D03*
X118910100Y-64922400D03*
%TO.N,+5V*%
X116370100Y-67462400D03*
X118910100Y-67462400D03*
%TO.N,SYS_5V*%
X116370100Y-70002400D03*
X118910100Y-70002400D03*
%TO.N,PWR_BUT*%
X116370100Y-72542400D03*
%TO.N,SYS_RESETN*%
X118910100Y-72542400D03*
%TO.N,/UART4_RXD*%
X116370100Y-75082400D03*
%TO.N,/GPIO_60*%
X118910100Y-75082400D03*
%TO.N,/UART4_TXD*%
X116370100Y-77622400D03*
%TO.N,/RTC_INT*%
X118910100Y-77622400D03*
%TO.N,/PPS*%
X116370100Y-80162400D03*
%TO.N,/DCF77*%
X118910100Y-80162400D03*
%TO.N,/SPI0_CS0*%
X116370100Y-82702400D03*
%TO.N,/SPI0_D1*%
X118910100Y-82702400D03*
%TO.N,/SCL*%
X116370100Y-85242400D03*
%TO.N,/SDA*%
X118910100Y-85242400D03*
%TO.N,/SPI0_D0*%
X116370100Y-87782400D03*
%TO.N,/SPI0_SCLK*%
X118910100Y-87782400D03*
%TO.N,unconnected-(P9-Pin_23-Pad23)*%
X116370100Y-90322400D03*
%TO.N,/UART1_TXD*%
X118910100Y-90322400D03*
%TO.N,unconnected-(P9-Pin_25-Pad25)*%
X116370100Y-92862400D03*
%TO.N,/UART1_RXD*%
X118910100Y-92862400D03*
%TO.N,/GPIO_125*%
X116370100Y-95402400D03*
%TO.N,unconnected-(P9-Pin_28-Pad28)*%
X118910100Y-95402400D03*
%TO.N,unconnected-(P9-Pin_29-Pad29)*%
X116370100Y-97942400D03*
%TO.N,/GPIO_122*%
X118910100Y-97942400D03*
%TO.N,unconnected-(P9-Pin_31-Pad31)*%
X116370100Y-100482400D03*
%TO.N,VDD_ADC*%
X118910100Y-100482400D03*
%TO.N,unconnected-(P9-Pin_33-Pad33)*%
X116370100Y-103022400D03*
%TO.N,GNDA_ADC*%
X118910100Y-103022400D03*
%TO.N,unconnected-(P9-Pin_35-Pad35)*%
X116370100Y-105562400D03*
%TO.N,unconnected-(P9-Pin_36-Pad36)*%
X118910100Y-105562400D03*
%TO.N,unconnected-(P9-Pin_37-Pad37)*%
X116370100Y-108102400D03*
%TO.N,unconnected-(P9-Pin_38-Pad38)*%
X118910100Y-108102400D03*
%TO.N,unconnected-(P9-Pin_39-Pad39)*%
X116370100Y-110642400D03*
%TO.N,unconnected-(P9-Pin_40-Pad40)*%
X118910100Y-110642400D03*
%TO.N,/GPIO_20*%
X116370100Y-113182400D03*
%TO.N,/PPS_OUT*%
X118910100Y-113182400D03*
%TO.N,GNDD*%
X116370100Y-115722400D03*
X118910100Y-115722400D03*
X116370100Y-118262400D03*
X118910100Y-118262400D03*
%TD*%
D12*
%TO.N,Net-(J101-Pin_1)*%
%TO.C,J101*%
X151370100Y-118382400D03*
D13*
X151370100Y-123382400D03*
D14*
%TO.N,Net-(J101-Pin_2)*%
X156370100Y-118382400D03*
X156370100Y-123382400D03*
%TD*%
D15*
%TO.N,SYS_RESETN*%
%TO.C,SW101*%
X155370100Y-72382400D03*
X155370100Y-65882400D03*
%TO.N,GNDD*%
X159870100Y-72382400D03*
X159870100Y-65882400D03*
%TD*%
%TO.N,PWR_BUT*%
%TO.C,SW102*%
X136870100Y-72382400D03*
X136870100Y-65882400D03*
%TO.N,GNDD*%
X141370100Y-72382400D03*
X141370100Y-65882400D03*
%TD*%
D16*
%TO.N,GNDD*%
%TO.C,J102*%
X129870100Y-52882400D03*
D13*
X129870100Y-47882400D03*
D14*
%TO.N,Net-(D114-A)*%
X124870100Y-52882400D03*
X124870100Y-47882400D03*
%TD*%
D15*
%TO.N,Net-(D114-K)*%
%TO.C,U102*%
X130160100Y-66632400D03*
%TO.N,GNDD*%
X127620100Y-66632400D03*
%TO.N,+5V*%
X125080100Y-66632400D03*
%TD*%
D17*
%TO.N,/Vbat*%
%TO.C,C103*%
X135370100Y-81035051D03*
D18*
%TO.N,GNDD*%
X135370100Y-77535051D03*
%TD*%
D10*
%TO.N,/DCF77*%
%TO.C,J103*%
X117620100Y-54607400D03*
D11*
%TO.N,GNDD*%
X117620100Y-57147400D03*
%TD*%
D10*
%TO.N,/PPS*%
%TO.C,J104*%
X117620100Y-47857400D03*
D11*
%TO.N,GNDD*%
X117620100Y-50397400D03*
%TD*%
D17*
%TO.N,/Vbat*%
%TO.C,C104*%
X144370100Y-81035051D03*
D18*
%TO.N,GNDD*%
X144370100Y-77535051D03*
%TD*%
D19*
%TO.N,Net-(J201-Shield)*%
%TO.C,J201*%
X167250100Y-57412400D03*
D20*
X164250100Y-57102400D03*
X164250100Y-52262400D03*
D19*
X167250100Y-51952400D03*
%TD*%
D10*
%TO.N,Net-(J105-Pin_1)*%
%TO.C,J105*%
X160870100Y-108107400D03*
D11*
%TO.N,GNDD*%
X160870100Y-110647400D03*
%TD*%
D10*
%TO.N,/ESP32/~{RST}*%
%TO.C,JP203*%
X135830100Y-99882400D03*
D11*
%TO.N,Net-(JP203-C)*%
X138370100Y-99882400D03*
%TO.N,/GPIO_125*%
X140910100Y-99882400D03*
%TD*%
D21*
%TO.N,GNDD*%
X133770100Y-125882400D03*
X122620100Y-74882400D03*
X130270100Y-123482400D03*
X129870100Y-91582400D03*
X121370100Y-69632400D03*
X128870100Y-80082400D03*
X128570100Y-85382400D03*
X123120100Y-70132400D03*
X127245100Y-99582400D03*
X163170100Y-53382400D03*
X148120100Y-107882400D03*
X120870100Y-95582400D03*
X144120100Y-101132400D03*
X120870100Y-82632400D03*
X120870100Y-87382400D03*
X135870100Y-104882400D03*
X121120100Y-72382400D03*
X141470100Y-125582400D03*
X120870100Y-89682400D03*
X124370100Y-91882400D03*
X123120100Y-72632400D03*
X134370100Y-120882400D03*
X121170100Y-84182400D03*
X121120100Y-74632400D03*
X132370100Y-97632400D03*
X157270100Y-55082400D03*
X137120100Y-113132400D03*
X122070100Y-99382400D03*
X121620100Y-80132400D03*
X137370100Y-97382400D03*
X142970100Y-117582400D03*
%TO.N,+3V3*%
X152620100Y-75382400D03*
X127370100Y-97828400D03*
X127370100Y-82382400D03*
X127370100Y-89132400D03*
%TO.N,+5V*%
X162370100Y-93601400D03*
%TO.N,SYS_RESETN*%
X149370100Y-85882400D03*
%TO.N,/SPI0_D1*%
X124370100Y-114132400D03*
%TO.N,/SPI0_D0*%
X123170099Y-110772399D03*
%TO.N,/GPIO_60*%
X143970100Y-114282400D03*
%TO.N,/SPI0_CS0*%
X139870100Y-106582400D03*
X125544100Y-97203400D03*
%TO.N,/SCL*%
X124370100Y-86682400D03*
X136797652Y-92381928D03*
X139687042Y-90449342D03*
%TO.N,/SDA*%
X136770100Y-91582400D03*
X124370100Y-85242400D03*
%TO.N,/SPI0_SCLK*%
X125537012Y-110162188D03*
X137370100Y-109482400D03*
%TO.N,/UART1_RXD*%
X155620100Y-101382400D03*
%TO.N,/GPIO_20*%
X143970100Y-112982400D03*
%TO.N,/DE{slash}~{RE}*%
X154520336Y-100130796D03*
%TO.N,/ESP32/TCK*%
X129470100Y-115482400D03*
X127245100Y-98682400D03*
%TO.N,/ESP32/TDI*%
X129470100Y-118082400D03*
X127696100Y-105982400D03*
%TO.N,/ESP32/TDO*%
X131270100Y-101482400D03*
X129470100Y-116782400D03*
%TO.N,/ESP32/TMS*%
X127245100Y-100582400D03*
X129470100Y-119382400D03*
%TO.N,Net-(JP104-A)*%
X122385100Y-88017400D03*
X122370100Y-83282400D03*
%TO.N,Net-(JP201-C)*%
X123570100Y-77382400D03*
X126770100Y-121882400D03*
%TO.N,Net-(JP202-C)*%
X126620100Y-77382400D03*
X126770100Y-120682400D03*
%TO.N,Net-(JP203-C)*%
X144070100Y-123182400D03*
%TO.N,Net-(JP204-C)*%
X138570100Y-109482400D03*
X125544100Y-114133400D03*
%TO.N,Net-(JP205-C)*%
X125544100Y-111882400D03*
X136070100Y-109482400D03*
%TO.N,/ESP32/D+*%
X146870100Y-109182400D03*
X156070100Y-54657400D03*
%TO.N,/ESP32/D-*%
X156070100Y-55507400D03*
X146870100Y-110482400D03*
%TO.N,/RTC_INT*%
X145870100Y-87132400D03*
%TO.N,/PPS_OUT*%
X121120100Y-115382400D03*
X158620100Y-100517698D03*
%TD*%
D22*
%TO.N,/GPIO_60*%
X142306100Y-112618400D02*
X142306100Y-92183102D01*
X142306100Y-92183102D02*
X125631398Y-75508400D01*
X125631398Y-75508400D02*
X119336100Y-75508400D01*
X143970100Y-114282400D02*
X142306100Y-112618400D01*
%TO.N,/PPS*%
X116444100Y-49033400D02*
X117620100Y-47857400D01*
X117546100Y-78986400D02*
X117546100Y-58736516D01*
X116444100Y-57634516D02*
X116444100Y-49033400D01*
X117546100Y-58736516D02*
X116444100Y-57634516D01*
X116370100Y-80162400D02*
X117546100Y-78986400D01*
%TO.N,/SPI0_CS0*%
X123744100Y-95403400D02*
X125544100Y-97203400D01*
X118422984Y-86606400D02*
X119397216Y-86606400D01*
X123744100Y-91623102D02*
X123744100Y-95403400D01*
X117734100Y-84066400D02*
X117734100Y-85917516D01*
X117734100Y-85917516D02*
X118422984Y-86606400D01*
X116370100Y-82702400D02*
X117734100Y-84066400D01*
X120086100Y-87965102D02*
X123744100Y-91623102D01*
X120086100Y-87295284D02*
X120086100Y-87965102D01*
X119397216Y-86606400D02*
X120086100Y-87295284D01*
%TO.N,/SPI0_SCLK*%
X120086100Y-88958400D02*
X120086100Y-104711276D01*
X118910100Y-87782400D02*
X120086100Y-88958400D01*
X120086100Y-104711276D02*
X125537012Y-110162188D01*
%TO.N,/ESP32/TCK*%
X128370100Y-114382400D02*
X128370100Y-105771102D01*
X129470100Y-115482400D02*
X128370100Y-114382400D01*
X128176650Y-105577652D02*
X128176650Y-99613950D01*
X128176650Y-99613950D02*
X127245100Y-98682400D01*
X128370100Y-105771102D02*
X128176650Y-105577652D01*
%TO.N,/ESP32/TDI*%
X127696100Y-105982400D02*
X127696100Y-116308400D01*
X127696100Y-116308400D02*
X129470100Y-118082400D01*
%TO.N,/ESP32/TDO*%
X131303550Y-101515850D02*
X131303550Y-114948950D01*
X131303550Y-114948950D02*
X129470100Y-116782400D01*
X131270100Y-101482400D02*
X131303550Y-101515850D01*
%TO.N,/ESP32/TMS*%
X127470100Y-119382400D02*
X127071100Y-118983400D01*
X127071100Y-100756400D02*
X127245100Y-100582400D01*
X129470100Y-119382400D02*
X127470100Y-119382400D01*
X127071100Y-118983400D02*
X127071100Y-100756400D01*
%TO.N,Net-(JP201-C)*%
X126169100Y-79981400D02*
X126169100Y-120398102D01*
X126144100Y-120423102D02*
X126144100Y-121256400D01*
X126169100Y-120398102D02*
X126144100Y-120423102D01*
X123570100Y-77382400D02*
X126169100Y-79981400D01*
X126144100Y-121256400D02*
X126770100Y-121882400D01*
%TO.N,Net-(JP202-C)*%
X126481977Y-78981227D02*
X127364031Y-78981227D01*
X127604031Y-78621227D02*
X127604031Y-78741227D01*
X126620100Y-79719350D02*
X126620100Y-120532400D01*
X126620100Y-120532400D02*
X126770100Y-120682400D01*
X126860100Y-78381227D02*
X127364031Y-78381227D01*
X126620100Y-77382400D02*
X126620100Y-78141227D01*
X126343854Y-79119350D02*
X126343854Y-79443104D01*
X126343854Y-79443104D02*
G75*
G03*
X126481977Y-79581246I138146J4D01*
G01*
X126620100Y-78141227D02*
G75*
G03*
X126860100Y-78381200I240000J27D01*
G01*
X126481977Y-79581227D02*
G75*
G02*
X126620073Y-79719350I23J-138073D01*
G01*
X127604031Y-78741227D02*
G75*
G02*
X127364031Y-78981231I-240031J27D01*
G01*
X126481977Y-78981227D02*
G75*
G03*
X126343927Y-79119350I23J-138073D01*
G01*
X127364031Y-78381227D02*
G75*
G02*
X127603973Y-78621227I-31J-239973D01*
G01*
%TO.N,Net-(JP203-C)*%
X144070100Y-123182400D02*
X139220100Y-118332400D01*
X139220100Y-100732400D02*
X138370100Y-99882400D01*
X139220100Y-118332400D02*
X139220100Y-100732400D01*
D23*
%TO.N,/ESP32/D+*%
X155870101Y-54857399D02*
X155576903Y-54857399D01*
D22*
X148416546Y-109582400D02*
X149693323Y-108305623D01*
X147270100Y-109582400D02*
X148416546Y-109582400D01*
X146870100Y-109182400D02*
X147270100Y-109582400D01*
D23*
X153345100Y-104653846D02*
X149693323Y-108305623D01*
X156070100Y-54657400D02*
X155870101Y-54857399D01*
X153345100Y-57089202D02*
X153345100Y-104653846D01*
X155576903Y-54857399D02*
X153345100Y-57089202D01*
%TO.N,/ESP32/D-*%
X156070100Y-55507400D02*
X155870101Y-55307401D01*
D22*
X146870100Y-110482400D02*
X147270100Y-110082400D01*
D23*
X155763297Y-55307401D02*
X153795100Y-57275598D01*
D22*
X147270100Y-110082400D02*
X148623654Y-110082400D01*
D23*
X153795100Y-104910954D02*
X150046877Y-108659177D01*
X155870101Y-55307401D02*
X155763297Y-55307401D01*
X153795100Y-57275598D02*
X153795100Y-104910954D01*
D22*
X148623654Y-110082400D02*
X150046877Y-108659177D01*
%TD*%
M02*
