%TF.GenerationSoftware,KiCad,Pcbnew,9.0.1+1*%
%TF.CreationDate,2025-11-20T17:42:23+00:00*%
%TF.ProjectId,com4bbb,636f6d34-6262-4622-9e6b-696361645f70,rev?*%
%TF.SameCoordinates,Original*%
%TF.FileFunction,OtherDrawing,Comment*%
%FSLAX46Y46*%
G04 Gerber Fmt 4.6, Leading zero omitted, Abs format (unit mm)*
G04 Created by KiCad (PCBNEW 9.0.1+1) date 2025-11-20 17:42:23*
%MOMM*%
%LPD*%
G01*
G04 APERTURE LIST*
%ADD10C,0.075000*%
%ADD11C,0.100000*%
G04 APERTURE END LIST*
D10*
X168597509Y-56384780D02*
X168097509Y-56384780D01*
X168097509Y-56384780D02*
X168097509Y-56194304D01*
X168097509Y-56194304D02*
X168121319Y-56146685D01*
X168121319Y-56146685D02*
X168145128Y-56122875D01*
X168145128Y-56122875D02*
X168192747Y-56099066D01*
X168192747Y-56099066D02*
X168264176Y-56099066D01*
X168264176Y-56099066D02*
X168311795Y-56122875D01*
X168311795Y-56122875D02*
X168335604Y-56146685D01*
X168335604Y-56146685D02*
X168359414Y-56194304D01*
X168359414Y-56194304D02*
X168359414Y-56384780D01*
X168549890Y-55599066D02*
X168573700Y-55622875D01*
X168573700Y-55622875D02*
X168597509Y-55694304D01*
X168597509Y-55694304D02*
X168597509Y-55741923D01*
X168597509Y-55741923D02*
X168573700Y-55813351D01*
X168573700Y-55813351D02*
X168526080Y-55860970D01*
X168526080Y-55860970D02*
X168478461Y-55884780D01*
X168478461Y-55884780D02*
X168383223Y-55908589D01*
X168383223Y-55908589D02*
X168311795Y-55908589D01*
X168311795Y-55908589D02*
X168216557Y-55884780D01*
X168216557Y-55884780D02*
X168168938Y-55860970D01*
X168168938Y-55860970D02*
X168121319Y-55813351D01*
X168121319Y-55813351D02*
X168097509Y-55741923D01*
X168097509Y-55741923D02*
X168097509Y-55694304D01*
X168097509Y-55694304D02*
X168121319Y-55622875D01*
X168121319Y-55622875D02*
X168145128Y-55599066D01*
X168335604Y-55218113D02*
X168359414Y-55146685D01*
X168359414Y-55146685D02*
X168383223Y-55122875D01*
X168383223Y-55122875D02*
X168430842Y-55099066D01*
X168430842Y-55099066D02*
X168502271Y-55099066D01*
X168502271Y-55099066D02*
X168549890Y-55122875D01*
X168549890Y-55122875D02*
X168573700Y-55146685D01*
X168573700Y-55146685D02*
X168597509Y-55194304D01*
X168597509Y-55194304D02*
X168597509Y-55384780D01*
X168597509Y-55384780D02*
X168097509Y-55384780D01*
X168097509Y-55384780D02*
X168097509Y-55218113D01*
X168097509Y-55218113D02*
X168121319Y-55170494D01*
X168121319Y-55170494D02*
X168145128Y-55146685D01*
X168145128Y-55146685D02*
X168192747Y-55122875D01*
X168192747Y-55122875D02*
X168240366Y-55122875D01*
X168240366Y-55122875D02*
X168287985Y-55146685D01*
X168287985Y-55146685D02*
X168311795Y-55170494D01*
X168311795Y-55170494D02*
X168335604Y-55218113D01*
X168335604Y-55218113D02*
X168335604Y-55384780D01*
X168573700Y-54313352D02*
X168597509Y-54360971D01*
X168597509Y-54360971D02*
X168597509Y-54456209D01*
X168597509Y-54456209D02*
X168573700Y-54503828D01*
X168573700Y-54503828D02*
X168526080Y-54527637D01*
X168526080Y-54527637D02*
X168335604Y-54527637D01*
X168335604Y-54527637D02*
X168287985Y-54503828D01*
X168287985Y-54503828D02*
X168264176Y-54456209D01*
X168264176Y-54456209D02*
X168264176Y-54360971D01*
X168264176Y-54360971D02*
X168287985Y-54313352D01*
X168287985Y-54313352D02*
X168335604Y-54289542D01*
X168335604Y-54289542D02*
X168383223Y-54289542D01*
X168383223Y-54289542D02*
X168430842Y-54527637D01*
X168597509Y-53860971D02*
X168097509Y-53860971D01*
X168573700Y-53860971D02*
X168597509Y-53908590D01*
X168597509Y-53908590D02*
X168597509Y-54003828D01*
X168597509Y-54003828D02*
X168573700Y-54051447D01*
X168573700Y-54051447D02*
X168549890Y-54075257D01*
X168549890Y-54075257D02*
X168502271Y-54099066D01*
X168502271Y-54099066D02*
X168359414Y-54099066D01*
X168359414Y-54099066D02*
X168311795Y-54075257D01*
X168311795Y-54075257D02*
X168287985Y-54051447D01*
X168287985Y-54051447D02*
X168264176Y-54003828D01*
X168264176Y-54003828D02*
X168264176Y-53908590D01*
X168264176Y-53908590D02*
X168287985Y-53860971D01*
X168264176Y-53408590D02*
X168668938Y-53408590D01*
X168668938Y-53408590D02*
X168716557Y-53432400D01*
X168716557Y-53432400D02*
X168740366Y-53456209D01*
X168740366Y-53456209D02*
X168764176Y-53503828D01*
X168764176Y-53503828D02*
X168764176Y-53575257D01*
X168764176Y-53575257D02*
X168740366Y-53622876D01*
X168573700Y-53408590D02*
X168597509Y-53456209D01*
X168597509Y-53456209D02*
X168597509Y-53551447D01*
X168597509Y-53551447D02*
X168573700Y-53599066D01*
X168573700Y-53599066D02*
X168549890Y-53622876D01*
X168549890Y-53622876D02*
X168502271Y-53646685D01*
X168502271Y-53646685D02*
X168359414Y-53646685D01*
X168359414Y-53646685D02*
X168311795Y-53622876D01*
X168311795Y-53622876D02*
X168287985Y-53599066D01*
X168287985Y-53599066D02*
X168264176Y-53551447D01*
X168264176Y-53551447D02*
X168264176Y-53456209D01*
X168264176Y-53456209D02*
X168287985Y-53408590D01*
X168573700Y-52980019D02*
X168597509Y-53027638D01*
X168597509Y-53027638D02*
X168597509Y-53122876D01*
X168597509Y-53122876D02*
X168573700Y-53170495D01*
X168573700Y-53170495D02*
X168526080Y-53194304D01*
X168526080Y-53194304D02*
X168335604Y-53194304D01*
X168335604Y-53194304D02*
X168287985Y-53170495D01*
X168287985Y-53170495D02*
X168264176Y-53122876D01*
X168264176Y-53122876D02*
X168264176Y-53027638D01*
X168264176Y-53027638D02*
X168287985Y-52980019D01*
X168287985Y-52980019D02*
X168335604Y-52956209D01*
X168335604Y-52956209D02*
X168383223Y-52956209D01*
X168383223Y-52956209D02*
X168430842Y-53194304D01*
D11*
%TO.C,J201*%
X168970100Y-58682400D02*
X168970100Y-50682400D01*
%TD*%
M02*
