%TF.GenerationSoftware,KiCad,Pcbnew,9.0.1+1*%
%TF.CreationDate,2025-11-20T05:47:18+00:00*%
%TF.ProjectId,com4bbb,636f6d34-6262-4622-9e6b-696361645f70,rev?*%
%TF.SameCoordinates,Original*%
%TF.FileFunction,Soldermask,Top*%
%TF.FilePolarity,Negative*%
%FSLAX46Y46*%
G04 Gerber Fmt 4.6, Leading zero omitted, Abs format (unit mm)*
G04 Created by KiCad (PCBNEW 9.0.1+1) date 2025-11-20 05:47:18*
%MOMM*%
%LPD*%
G01*
G04 APERTURE LIST*
G04 Aperture macros list*
%AMRoundRect*
0 Rectangle with rounded corners*
0 $1 Rounding radius*
0 $2 $3 $4 $5 $6 $7 $8 $9 X,Y pos of 4 corners*
0 Add a 4 corners polygon primitive as box body*
4,1,4,$2,$3,$4,$5,$6,$7,$8,$9,$2,$3,0*
0 Add four circle primitives for the rounded corners*
1,1,$1+$1,$2,$3*
1,1,$1+$1,$4,$5*
1,1,$1+$1,$6,$7*
1,1,$1+$1,$8,$9*
0 Add four rect primitives between the rounded corners*
20,1,$1+$1,$2,$3,$4,$5,0*
20,1,$1+$1,$4,$5,$6,$7,0*
20,1,$1+$1,$6,$7,$8,$9,0*
20,1,$1+$1,$8,$9,$2,$3,0*%
%AMFreePoly0*
4,1,23,0.550000,-0.750000,0.000000,-0.750000,0.000000,-0.745722,-0.065263,-0.745722,-0.191342,-0.711940,-0.304381,-0.646677,-0.396677,-0.554381,-0.461940,-0.441342,-0.495722,-0.315263,-0.495722,-0.250000,-0.500000,-0.250000,-0.500000,0.250000,-0.495722,0.250000,-0.495722,0.315263,-0.461940,0.441342,-0.396677,0.554381,-0.304381,0.646677,-0.191342,0.711940,-0.065263,0.745722,0.000000,0.745722,
0.000000,0.750000,0.550000,0.750000,0.550000,-0.750000,0.550000,-0.750000,$1*%
%AMFreePoly1*
4,1,23,0.000000,0.745722,0.065263,0.745722,0.191342,0.711940,0.304381,0.646677,0.396677,0.554381,0.461940,0.441342,0.495722,0.315263,0.495722,0.250000,0.500000,0.250000,0.500000,-0.250000,0.495722,-0.250000,0.495722,-0.315263,0.461940,-0.441342,0.396677,-0.554381,0.304381,-0.646677,0.191342,-0.711940,0.065263,-0.745722,0.000000,-0.745722,0.000000,-0.750000,-0.550000,-0.750000,
-0.550000,0.750000,0.000000,0.750000,0.000000,0.745722,0.000000,0.745722,$1*%
%AMFreePoly2*
4,1,23,0.500000,-0.750000,0.000000,-0.750000,0.000000,-0.745722,-0.065263,-0.745722,-0.191342,-0.711940,-0.304381,-0.646677,-0.396677,-0.554381,-0.461940,-0.441342,-0.495722,-0.315263,-0.495722,-0.250000,-0.500000,-0.250000,-0.500000,0.250000,-0.495722,0.250000,-0.495722,0.315263,-0.461940,0.441342,-0.396677,0.554381,-0.304381,0.646677,-0.191342,0.711940,-0.065263,0.745722,0.000000,0.745722,
0.000000,0.750000,0.500000,0.750000,0.500000,-0.750000,0.500000,-0.750000,$1*%
%AMFreePoly3*
4,1,23,0.000000,0.745722,0.065263,0.745722,0.191342,0.711940,0.304381,0.646677,0.396677,0.554381,0.461940,0.441342,0.495722,0.315263,0.495722,0.250000,0.500000,0.250000,0.500000,-0.250000,0.495722,-0.250000,0.495722,-0.315263,0.461940,-0.441342,0.396677,-0.554381,0.304381,-0.646677,0.191342,-0.711940,0.065263,-0.745722,0.000000,-0.745722,0.000000,-0.750000,-0.500000,-0.750000,
-0.500000,0.750000,0.000000,0.750000,0.000000,0.745722,0.000000,0.745722,$1*%
G04 Aperture macros list end*
%ADD10R,1.700000X1.700000*%
%ADD11C,1.700000*%
%ADD12RoundRect,0.140000X-0.170000X0.140000X-0.170000X-0.140000X0.170000X-0.140000X0.170000X0.140000X0*%
%ADD13RoundRect,0.250001X-0.499999X-1.249999X0.499999X-1.249999X0.499999X1.249999X-0.499999X1.249999X0*%
%ADD14O,1.500000X3.000000*%
%ADD15FreePoly0,90.000000*%
%ADD16R,1.500000X1.000000*%
%ADD17FreePoly1,90.000000*%
%ADD18FreePoly0,270.000000*%
%ADD19FreePoly1,270.000000*%
%ADD20FreePoly2,270.000000*%
%ADD21FreePoly3,270.000000*%
%ADD22FreePoly2,90.000000*%
%ADD23FreePoly3,90.000000*%
%ADD24RoundRect,0.135000X0.135000X0.185000X-0.135000X0.185000X-0.135000X-0.185000X0.135000X-0.185000X0*%
%ADD25RoundRect,0.135000X0.185000X-0.135000X0.185000X0.135000X-0.185000X0.135000X-0.185000X-0.135000X0*%
%ADD26C,2.000000*%
%ADD27R,1.500000X0.900000*%
%ADD28R,0.900000X1.500000*%
%ADD29C,0.600000*%
%ADD30R,3.800000X3.800000*%
%ADD31RoundRect,0.150000X0.825000X0.150000X-0.825000X0.150000X-0.825000X-0.150000X0.825000X-0.150000X0*%
%ADD32RoundRect,0.218750X0.218750X0.256250X-0.218750X0.256250X-0.218750X-0.256250X0.218750X-0.256250X0*%
%ADD33RoundRect,0.135000X-0.135000X-0.185000X0.135000X-0.185000X0.135000X0.185000X-0.135000X0.185000X0*%
%ADD34RoundRect,0.150000X-0.150000X0.825000X-0.150000X-0.825000X0.150000X-0.825000X0.150000X0.825000X0*%
%ADD35C,1.100000*%
%ADD36RoundRect,0.249999X-0.850001X0.850001X-0.850001X-0.850001X0.850001X-0.850001X0.850001X0.850001X0*%
%ADD37C,2.200000*%
%ADD38RoundRect,0.249999X0.850001X0.850001X-0.850001X0.850001X-0.850001X-0.850001X0.850001X-0.850001X0*%
G04 APERTURE END LIST*
%TO.C,JP101*%
G36*
X124120100Y-78132400D02*
G01*
X125620100Y-78132400D01*
X125620100Y-76632400D01*
X124120100Y-76632400D01*
X124120100Y-78132400D01*
G37*
%TO.C,JP102*%
G36*
X129120100Y-76632400D02*
G01*
X127620100Y-76632400D01*
X127620100Y-78132400D01*
X129120100Y-78132400D01*
X129120100Y-76632400D01*
G37*
%TO.C,JP103*%
G36*
X123620100Y-112382400D02*
G01*
X125120100Y-112382400D01*
X125120100Y-110882400D01*
X123620100Y-110882400D01*
X123620100Y-112382400D01*
G37*
%TO.C,JP104*%
G36*
X123620100Y-120132400D02*
G01*
X125120100Y-120132400D01*
X125120100Y-118632400D01*
X123620100Y-118632400D01*
X123620100Y-120132400D01*
G37*
%TO.C,JP105*%
G36*
X129120100Y-92232400D02*
G01*
X127620100Y-92232400D01*
X127620100Y-92532400D01*
X129120100Y-92532400D01*
X129120100Y-92232400D01*
G37*
%TO.C,JP107*%
G36*
X135120100Y-92232400D02*
G01*
X133620100Y-92232400D01*
X133620100Y-92532400D01*
X135120100Y-92532400D01*
X135120100Y-92232400D01*
G37*
%TO.C,JP108*%
G36*
X121620100Y-87532400D02*
G01*
X123120100Y-87532400D01*
X123120100Y-87232400D01*
X121620100Y-87232400D01*
X121620100Y-87532400D01*
G37*
%TO.C,JP106*%
G36*
X132120100Y-92232400D02*
G01*
X130620100Y-92232400D01*
X130620100Y-92532400D01*
X132120100Y-92532400D01*
X132120100Y-92232400D01*
G37*
%TD*%
D10*
%TO.C,P8*%
X164630100Y-62382400D03*
D11*
X167170100Y-62382400D03*
X164630100Y-64922400D03*
X167170100Y-64922400D03*
X164630100Y-67462400D03*
X167170100Y-67462400D03*
X164630100Y-70002400D03*
X167170100Y-70002400D03*
X164630100Y-72542400D03*
X167170100Y-72542400D03*
X164630100Y-75082400D03*
X167170100Y-75082400D03*
X164630100Y-77622400D03*
X167170100Y-77622400D03*
X164630100Y-80162400D03*
X167170100Y-80162400D03*
X164630100Y-82702400D03*
X167170100Y-82702400D03*
X164630100Y-85242400D03*
X167170100Y-85242400D03*
X164630100Y-87782400D03*
X167170100Y-87782400D03*
X164630100Y-90322400D03*
X167170100Y-90322400D03*
X164630100Y-92862400D03*
X167170100Y-92862400D03*
X164630100Y-95402400D03*
X167170100Y-95402400D03*
X164630100Y-97942400D03*
X167170100Y-97942400D03*
X164630100Y-100482400D03*
X167170100Y-100482400D03*
X164630100Y-103022400D03*
X167170100Y-103022400D03*
X164630100Y-105562400D03*
X167170100Y-105562400D03*
X164630100Y-108102400D03*
X167170100Y-108102400D03*
X164630100Y-110642400D03*
X167170100Y-110642400D03*
X164630100Y-113182400D03*
X167170100Y-113182400D03*
X164630100Y-115722400D03*
X167170100Y-115722400D03*
X164630100Y-118262400D03*
X167170100Y-118262400D03*
%TD*%
D10*
%TO.C,P9*%
X116370100Y-62382400D03*
D11*
X118910100Y-62382400D03*
X116370100Y-64922400D03*
X118910100Y-64922400D03*
X116370100Y-67462400D03*
X118910100Y-67462400D03*
X116370100Y-70002400D03*
X118910100Y-70002400D03*
X116370100Y-72542400D03*
X118910100Y-72542400D03*
X116370100Y-75082400D03*
X118910100Y-75082400D03*
X116370100Y-77622400D03*
X118910100Y-77622400D03*
X116370100Y-80162400D03*
X118910100Y-80162400D03*
X116370100Y-82702400D03*
X118910100Y-82702400D03*
X116370100Y-85242400D03*
X118910100Y-85242400D03*
X116370100Y-87782400D03*
X118910100Y-87782400D03*
X116370100Y-90322400D03*
X118910100Y-90322400D03*
X116370100Y-92862400D03*
X118910100Y-92862400D03*
X116370100Y-95402400D03*
X118910100Y-95402400D03*
X116370100Y-97942400D03*
X118910100Y-97942400D03*
X116370100Y-100482400D03*
X118910100Y-100482400D03*
X116370100Y-103022400D03*
X118910100Y-103022400D03*
X116370100Y-105562400D03*
X118910100Y-105562400D03*
X116370100Y-108102400D03*
X118910100Y-108102400D03*
X116370100Y-110642400D03*
X118910100Y-110642400D03*
X116370100Y-113182400D03*
X118910100Y-113182400D03*
X116370100Y-115722400D03*
X118910100Y-115722400D03*
X116370100Y-118262400D03*
X118910100Y-118262400D03*
%TD*%
D12*
%TO.C,C101*%
X125120100Y-90902400D03*
X125120100Y-91862400D03*
%TD*%
D13*
%TO.C,J102*%
X151370100Y-118382400D03*
D14*
X156370100Y-118382400D03*
%TD*%
D15*
%TO.C,JP101*%
X124870100Y-78682400D03*
D16*
X124870100Y-77382400D03*
D17*
X124870100Y-76082400D03*
%TD*%
D18*
%TO.C,JP102*%
X128370100Y-76082400D03*
D16*
X128370100Y-77382400D03*
D19*
X128370100Y-78682400D03*
%TD*%
D15*
%TO.C,JP103*%
X124370100Y-112932400D03*
D16*
X124370100Y-111632400D03*
D17*
X124370100Y-110332400D03*
%TD*%
D15*
%TO.C,JP104*%
X124370100Y-120682400D03*
D16*
X124370100Y-119382400D03*
D17*
X124370100Y-118082400D03*
%TD*%
D20*
%TO.C,JP105*%
X128370100Y-91732400D03*
D21*
X128370100Y-93032400D03*
%TD*%
D20*
%TO.C,JP107*%
X134370100Y-91732400D03*
D21*
X134370100Y-93032400D03*
%TD*%
D22*
%TO.C,JP108*%
X122370100Y-88032400D03*
D23*
X122370100Y-86732400D03*
%TD*%
D24*
%TO.C,R101*%
X133880100Y-86632400D03*
X132860100Y-86632400D03*
%TD*%
%TO.C,R102*%
X133880100Y-87882400D03*
X132860100Y-87882400D03*
%TD*%
D25*
%TO.C,R104*%
X122370100Y-90892400D03*
X122370100Y-89872400D03*
%TD*%
D26*
%TO.C,SW101*%
X155370100Y-72382400D03*
X155370100Y-65882400D03*
X159870100Y-72382400D03*
X159870100Y-65882400D03*
%TD*%
%TO.C,SW102*%
X125370100Y-72382400D03*
X125370100Y-65882400D03*
X129870100Y-72382400D03*
X129870100Y-65882400D03*
%TD*%
D27*
%TO.C,U104*%
X145120100Y-120637400D03*
X145120100Y-119367400D03*
X145120100Y-118097400D03*
X145120100Y-116827400D03*
X145120100Y-115557400D03*
X145120100Y-114287400D03*
X145120100Y-113017400D03*
X145120100Y-111747400D03*
X145120100Y-110477400D03*
X145120100Y-109207400D03*
X145120100Y-107937400D03*
X145120100Y-106667400D03*
X145120100Y-105397400D03*
X145120100Y-104127400D03*
D28*
X142085100Y-103032400D03*
X140815100Y-103032400D03*
X139545100Y-103032400D03*
X138275100Y-103032400D03*
X137005100Y-103032400D03*
X135735100Y-103032400D03*
X134465100Y-103032400D03*
X133195100Y-103032400D03*
X131925100Y-103032400D03*
X130655100Y-103032400D03*
D27*
X127620100Y-104127400D03*
X127620100Y-105397400D03*
X127620100Y-106667400D03*
X127620100Y-107937400D03*
X127620100Y-109207400D03*
X127620100Y-110477400D03*
X127620100Y-111747400D03*
X127620100Y-113017400D03*
X127620100Y-114287400D03*
X127620100Y-115557400D03*
X127620100Y-116827400D03*
X127620100Y-118097400D03*
X127620100Y-119367400D03*
X127620100Y-120637400D03*
D29*
X139270100Y-113772400D03*
X139270100Y-112372400D03*
X138570100Y-114472400D03*
X138570100Y-113072400D03*
X138570100Y-111672400D03*
X137870100Y-113772400D03*
D30*
X137870100Y-113072400D03*
D29*
X137870100Y-112372400D03*
X137170100Y-114472400D03*
X137170100Y-113072400D03*
X137170100Y-111672400D03*
X136470100Y-113772400D03*
X136470100Y-112372400D03*
%TD*%
D31*
%TO.C,U102*%
X130845100Y-89287400D03*
X130845100Y-88017400D03*
X130845100Y-86747400D03*
X130845100Y-85477400D03*
X125895100Y-85477400D03*
X125895100Y-86747400D03*
X125895100Y-88017400D03*
X125895100Y-89287400D03*
%TD*%
D32*
%TO.C,D101*%
X153157600Y-75382400D03*
X151582600Y-75382400D03*
%TD*%
%TO.C,D102*%
X153157600Y-77132400D03*
X151582600Y-77132400D03*
%TD*%
%TO.C,D103*%
X153157600Y-78882400D03*
X151582600Y-78882400D03*
%TD*%
%TO.C,D104*%
X153157600Y-80632400D03*
X151582600Y-80632400D03*
%TD*%
%TO.C,D105*%
X153157600Y-82382400D03*
X151582600Y-82382400D03*
%TD*%
%TO.C,D106*%
X153157600Y-84132400D03*
X151582600Y-84132400D03*
%TD*%
%TO.C,D107*%
X153157600Y-85882400D03*
X151582600Y-85882400D03*
%TD*%
%TO.C,D108*%
X153157600Y-87632400D03*
X151582600Y-87632400D03*
%TD*%
%TO.C,D109*%
X153157600Y-89382400D03*
X151582600Y-89382400D03*
%TD*%
%TO.C,D110*%
X153157600Y-91132400D03*
X151582600Y-91132400D03*
%TD*%
%TO.C,D111*%
X153157600Y-92882400D03*
X151582600Y-92882400D03*
%TD*%
%TO.C,D112*%
X153157600Y-94632400D03*
X151582600Y-94632400D03*
%TD*%
%TO.C,D113*%
X153157600Y-96382400D03*
X151582600Y-96382400D03*
%TD*%
D33*
%TO.C,R105*%
X154860100Y-75382400D03*
X155880100Y-75382400D03*
%TD*%
%TO.C,R106*%
X154860100Y-77132400D03*
X155880100Y-77132400D03*
%TD*%
%TO.C,R107*%
X154860100Y-78882400D03*
X155880100Y-78882400D03*
%TD*%
%TO.C,R108*%
X154860100Y-80632400D03*
X155880100Y-80632400D03*
%TD*%
%TO.C,R109*%
X154860100Y-82382400D03*
X155880100Y-82382400D03*
%TD*%
%TO.C,R110*%
X154860100Y-84132400D03*
X155880100Y-84132400D03*
%TD*%
%TO.C,R111*%
X154860100Y-85882400D03*
X155880100Y-85882400D03*
%TD*%
%TO.C,R112*%
X154860100Y-87632400D03*
X155880100Y-87632400D03*
%TD*%
%TO.C,R113*%
X154860100Y-89382400D03*
X155880100Y-89382400D03*
%TD*%
%TO.C,R114*%
X154860100Y-91132400D03*
X155880100Y-91132400D03*
%TD*%
%TO.C,R115*%
X154860100Y-92882400D03*
X155880100Y-92882400D03*
%TD*%
%TO.C,R116*%
X154860100Y-94632400D03*
X155880100Y-94632400D03*
%TD*%
%TO.C,R117*%
X154860100Y-96382400D03*
X155880100Y-96382400D03*
%TD*%
D24*
%TO.C,R103*%
X133880100Y-89132400D03*
X132860100Y-89132400D03*
%TD*%
D20*
%TO.C,JP106*%
X131370100Y-91732400D03*
D21*
X131370100Y-93032400D03*
%TD*%
D34*
%TO.C,U103*%
X155775100Y-103157400D03*
X154505100Y-103157400D03*
X153235100Y-103157400D03*
X151965100Y-103157400D03*
X151965100Y-108107400D03*
X153235100Y-108107400D03*
X154505100Y-108107400D03*
X155775100Y-108107400D03*
%TD*%
D35*
%TO.C,J101*%
X116267500Y-53632400D03*
X116267500Y-56172400D03*
D36*
X118807500Y-53632400D03*
D37*
X118807500Y-56172400D03*
%TD*%
D26*
%TO.C,U101*%
X126500000Y-57132400D03*
X129040000Y-57132400D03*
X131580000Y-57132400D03*
%TD*%
D38*
%TO.C,D114*%
X131620100Y-47132400D03*
D37*
X121460100Y-47132400D03*
%TD*%
M02*
