%TF.GenerationSoftware,KiCad,Pcbnew,5.1.9+dfsg1-1~bpo10+1*%
%TF.CreationDate,2021-06-27T17:04:37+00:00*%
%TF.ProjectId,com4bbb,636f6d34-6262-4622-9e6b-696361645f70,rev?*%
%TF.SameCoordinates,Original*%
%TF.FileFunction,Paste,Top*%
%TF.FilePolarity,Positive*%
%FSLAX46Y46*%
G04 Gerber Fmt 4.6, Leading zero omitted, Abs format (unit mm)*
G04 Created by KiCad (PCBNEW 5.1.9+dfsg1-1~bpo10+1) date 2021-06-27 17:04:37*
%MOMM*%
%LPD*%
G01*
G04 APERTURE LIST*
%ADD10R,5.000000X5.000000*%
%ADD11R,2.000000X0.900000*%
%ADD12R,0.900000X2.000000*%
G04 APERTURE END LIST*
%TO.C,U102*%
G36*
G01*
X155625100Y-102182400D02*
X155925100Y-102182400D01*
G75*
G02*
X156075100Y-102332400I0J-150000D01*
G01*
X156075100Y-103982400D01*
G75*
G02*
X155925100Y-104132400I-150000J0D01*
G01*
X155625100Y-104132400D01*
G75*
G02*
X155475100Y-103982400I0J150000D01*
G01*
X155475100Y-102332400D01*
G75*
G02*
X155625100Y-102182400I150000J0D01*
G01*
G37*
G36*
G01*
X154355100Y-102182400D02*
X154655100Y-102182400D01*
G75*
G02*
X154805100Y-102332400I0J-150000D01*
G01*
X154805100Y-103982400D01*
G75*
G02*
X154655100Y-104132400I-150000J0D01*
G01*
X154355100Y-104132400D01*
G75*
G02*
X154205100Y-103982400I0J150000D01*
G01*
X154205100Y-102332400D01*
G75*
G02*
X154355100Y-102182400I150000J0D01*
G01*
G37*
G36*
G01*
X153085100Y-102182400D02*
X153385100Y-102182400D01*
G75*
G02*
X153535100Y-102332400I0J-150000D01*
G01*
X153535100Y-103982400D01*
G75*
G02*
X153385100Y-104132400I-150000J0D01*
G01*
X153085100Y-104132400D01*
G75*
G02*
X152935100Y-103982400I0J150000D01*
G01*
X152935100Y-102332400D01*
G75*
G02*
X153085100Y-102182400I150000J0D01*
G01*
G37*
G36*
G01*
X151815100Y-102182400D02*
X152115100Y-102182400D01*
G75*
G02*
X152265100Y-102332400I0J-150000D01*
G01*
X152265100Y-103982400D01*
G75*
G02*
X152115100Y-104132400I-150000J0D01*
G01*
X151815100Y-104132400D01*
G75*
G02*
X151665100Y-103982400I0J150000D01*
G01*
X151665100Y-102332400D01*
G75*
G02*
X151815100Y-102182400I150000J0D01*
G01*
G37*
G36*
G01*
X151815100Y-107132400D02*
X152115100Y-107132400D01*
G75*
G02*
X152265100Y-107282400I0J-150000D01*
G01*
X152265100Y-108932400D01*
G75*
G02*
X152115100Y-109082400I-150000J0D01*
G01*
X151815100Y-109082400D01*
G75*
G02*
X151665100Y-108932400I0J150000D01*
G01*
X151665100Y-107282400D01*
G75*
G02*
X151815100Y-107132400I150000J0D01*
G01*
G37*
G36*
G01*
X153085100Y-107132400D02*
X153385100Y-107132400D01*
G75*
G02*
X153535100Y-107282400I0J-150000D01*
G01*
X153535100Y-108932400D01*
G75*
G02*
X153385100Y-109082400I-150000J0D01*
G01*
X153085100Y-109082400D01*
G75*
G02*
X152935100Y-108932400I0J150000D01*
G01*
X152935100Y-107282400D01*
G75*
G02*
X153085100Y-107132400I150000J0D01*
G01*
G37*
G36*
G01*
X154355100Y-107132400D02*
X154655100Y-107132400D01*
G75*
G02*
X154805100Y-107282400I0J-150000D01*
G01*
X154805100Y-108932400D01*
G75*
G02*
X154655100Y-109082400I-150000J0D01*
G01*
X154355100Y-109082400D01*
G75*
G02*
X154205100Y-108932400I0J150000D01*
G01*
X154205100Y-107282400D01*
G75*
G02*
X154355100Y-107132400I150000J0D01*
G01*
G37*
G36*
G01*
X155625100Y-107132400D02*
X155925100Y-107132400D01*
G75*
G02*
X156075100Y-107282400I0J-150000D01*
G01*
X156075100Y-108932400D01*
G75*
G02*
X155925100Y-109082400I-150000J0D01*
G01*
X155625100Y-109082400D01*
G75*
G02*
X155475100Y-108932400I0J150000D01*
G01*
X155475100Y-107282400D01*
G75*
G02*
X155625100Y-107132400I150000J0D01*
G01*
G37*
%TD*%
%TO.C,C101*%
G36*
G01*
X124950100Y-90622400D02*
X125290100Y-90622400D01*
G75*
G02*
X125430100Y-90762400I0J-140000D01*
G01*
X125430100Y-91042400D01*
G75*
G02*
X125290100Y-91182400I-140000J0D01*
G01*
X124950100Y-91182400D01*
G75*
G02*
X124810100Y-91042400I0J140000D01*
G01*
X124810100Y-90762400D01*
G75*
G02*
X124950100Y-90622400I140000J0D01*
G01*
G37*
G36*
G01*
X124950100Y-91582400D02*
X125290100Y-91582400D01*
G75*
G02*
X125430100Y-91722400I0J-140000D01*
G01*
X125430100Y-92002400D01*
G75*
G02*
X125290100Y-92142400I-140000J0D01*
G01*
X124950100Y-92142400D01*
G75*
G02*
X124810100Y-92002400I0J140000D01*
G01*
X124810100Y-91722400D01*
G75*
G02*
X124950100Y-91582400I140000J0D01*
G01*
G37*
%TD*%
%TO.C,R101*%
G36*
G01*
X133130100Y-86447400D02*
X133130100Y-86817400D01*
G75*
G02*
X132995100Y-86952400I-135000J0D01*
G01*
X132725100Y-86952400D01*
G75*
G02*
X132590100Y-86817400I0J135000D01*
G01*
X132590100Y-86447400D01*
G75*
G02*
X132725100Y-86312400I135000J0D01*
G01*
X132995100Y-86312400D01*
G75*
G02*
X133130100Y-86447400I0J-135000D01*
G01*
G37*
G36*
G01*
X134150100Y-86447400D02*
X134150100Y-86817400D01*
G75*
G02*
X134015100Y-86952400I-135000J0D01*
G01*
X133745100Y-86952400D01*
G75*
G02*
X133610100Y-86817400I0J135000D01*
G01*
X133610100Y-86447400D01*
G75*
G02*
X133745100Y-86312400I135000J0D01*
G01*
X134015100Y-86312400D01*
G75*
G02*
X134150100Y-86447400I0J-135000D01*
G01*
G37*
%TD*%
%TO.C,R102*%
G36*
G01*
X134150100Y-87697400D02*
X134150100Y-88067400D01*
G75*
G02*
X134015100Y-88202400I-135000J0D01*
G01*
X133745100Y-88202400D01*
G75*
G02*
X133610100Y-88067400I0J135000D01*
G01*
X133610100Y-87697400D01*
G75*
G02*
X133745100Y-87562400I135000J0D01*
G01*
X134015100Y-87562400D01*
G75*
G02*
X134150100Y-87697400I0J-135000D01*
G01*
G37*
G36*
G01*
X133130100Y-87697400D02*
X133130100Y-88067400D01*
G75*
G02*
X132995100Y-88202400I-135000J0D01*
G01*
X132725100Y-88202400D01*
G75*
G02*
X132590100Y-88067400I0J135000D01*
G01*
X132590100Y-87697400D01*
G75*
G02*
X132725100Y-87562400I135000J0D01*
G01*
X132995100Y-87562400D01*
G75*
G02*
X133130100Y-87697400I0J-135000D01*
G01*
G37*
%TD*%
%TO.C,R103*%
G36*
G01*
X133130100Y-88947400D02*
X133130100Y-89317400D01*
G75*
G02*
X132995100Y-89452400I-135000J0D01*
G01*
X132725100Y-89452400D01*
G75*
G02*
X132590100Y-89317400I0J135000D01*
G01*
X132590100Y-88947400D01*
G75*
G02*
X132725100Y-88812400I135000J0D01*
G01*
X132995100Y-88812400D01*
G75*
G02*
X133130100Y-88947400I0J-135000D01*
G01*
G37*
G36*
G01*
X134150100Y-88947400D02*
X134150100Y-89317400D01*
G75*
G02*
X134015100Y-89452400I-135000J0D01*
G01*
X133745100Y-89452400D01*
G75*
G02*
X133610100Y-89317400I0J135000D01*
G01*
X133610100Y-88947400D01*
G75*
G02*
X133745100Y-88812400I135000J0D01*
G01*
X134015100Y-88812400D01*
G75*
G02*
X134150100Y-88947400I0J-135000D01*
G01*
G37*
%TD*%
%TO.C,R104*%
G36*
G01*
X122555100Y-91162400D02*
X122185100Y-91162400D01*
G75*
G02*
X122050100Y-91027400I0J135000D01*
G01*
X122050100Y-90757400D01*
G75*
G02*
X122185100Y-90622400I135000J0D01*
G01*
X122555100Y-90622400D01*
G75*
G02*
X122690100Y-90757400I0J-135000D01*
G01*
X122690100Y-91027400D01*
G75*
G02*
X122555100Y-91162400I-135000J0D01*
G01*
G37*
G36*
G01*
X122555100Y-90142400D02*
X122185100Y-90142400D01*
G75*
G02*
X122050100Y-90007400I0J135000D01*
G01*
X122050100Y-89737400D01*
G75*
G02*
X122185100Y-89602400I135000J0D01*
G01*
X122555100Y-89602400D01*
G75*
G02*
X122690100Y-89737400I0J-135000D01*
G01*
X122690100Y-90007400D01*
G75*
G02*
X122555100Y-90142400I-135000J0D01*
G01*
G37*
%TD*%
D10*
%TO.C,U101*%
X137370100Y-113137400D03*
D11*
X144870100Y-120637400D03*
X144870100Y-119367400D03*
X144870100Y-118097400D03*
X144870100Y-116827400D03*
X144870100Y-115557400D03*
X144870100Y-114287400D03*
X144870100Y-113017400D03*
X144870100Y-111747400D03*
X144870100Y-110477400D03*
X144870100Y-109207400D03*
X144870100Y-107937400D03*
X144870100Y-106667400D03*
X144870100Y-105397400D03*
X144870100Y-104127400D03*
D12*
X142085100Y-103127400D03*
X140815100Y-103127400D03*
X139545100Y-103127400D03*
X138275100Y-103127400D03*
X137005100Y-103127400D03*
X135735100Y-103127400D03*
X134465100Y-103127400D03*
X133195100Y-103127400D03*
X131925100Y-103127400D03*
X130655100Y-103127400D03*
D11*
X127870100Y-104127400D03*
X127870100Y-105397400D03*
X127870100Y-106667400D03*
X127870100Y-107937400D03*
X127870100Y-109207400D03*
X127870100Y-110477400D03*
X127870100Y-111747400D03*
X127870100Y-113017400D03*
X127870100Y-114287400D03*
X127870100Y-115557400D03*
X127870100Y-116827400D03*
X127870100Y-118097400D03*
X127870100Y-119367400D03*
X127870100Y-120637400D03*
%TD*%
%TO.C,U103*%
G36*
G01*
X131820100Y-89137400D02*
X131820100Y-89437400D01*
G75*
G02*
X131670100Y-89587400I-150000J0D01*
G01*
X130020100Y-89587400D01*
G75*
G02*
X129870100Y-89437400I0J150000D01*
G01*
X129870100Y-89137400D01*
G75*
G02*
X130020100Y-88987400I150000J0D01*
G01*
X131670100Y-88987400D01*
G75*
G02*
X131820100Y-89137400I0J-150000D01*
G01*
G37*
G36*
G01*
X131820100Y-87867400D02*
X131820100Y-88167400D01*
G75*
G02*
X131670100Y-88317400I-150000J0D01*
G01*
X130020100Y-88317400D01*
G75*
G02*
X129870100Y-88167400I0J150000D01*
G01*
X129870100Y-87867400D01*
G75*
G02*
X130020100Y-87717400I150000J0D01*
G01*
X131670100Y-87717400D01*
G75*
G02*
X131820100Y-87867400I0J-150000D01*
G01*
G37*
G36*
G01*
X131820100Y-86597400D02*
X131820100Y-86897400D01*
G75*
G02*
X131670100Y-87047400I-150000J0D01*
G01*
X130020100Y-87047400D01*
G75*
G02*
X129870100Y-86897400I0J150000D01*
G01*
X129870100Y-86597400D01*
G75*
G02*
X130020100Y-86447400I150000J0D01*
G01*
X131670100Y-86447400D01*
G75*
G02*
X131820100Y-86597400I0J-150000D01*
G01*
G37*
G36*
G01*
X131820100Y-85327400D02*
X131820100Y-85627400D01*
G75*
G02*
X131670100Y-85777400I-150000J0D01*
G01*
X130020100Y-85777400D01*
G75*
G02*
X129870100Y-85627400I0J150000D01*
G01*
X129870100Y-85327400D01*
G75*
G02*
X130020100Y-85177400I150000J0D01*
G01*
X131670100Y-85177400D01*
G75*
G02*
X131820100Y-85327400I0J-150000D01*
G01*
G37*
G36*
G01*
X126870100Y-85327400D02*
X126870100Y-85627400D01*
G75*
G02*
X126720100Y-85777400I-150000J0D01*
G01*
X125070100Y-85777400D01*
G75*
G02*
X124920100Y-85627400I0J150000D01*
G01*
X124920100Y-85327400D01*
G75*
G02*
X125070100Y-85177400I150000J0D01*
G01*
X126720100Y-85177400D01*
G75*
G02*
X126870100Y-85327400I0J-150000D01*
G01*
G37*
G36*
G01*
X126870100Y-86597400D02*
X126870100Y-86897400D01*
G75*
G02*
X126720100Y-87047400I-150000J0D01*
G01*
X125070100Y-87047400D01*
G75*
G02*
X124920100Y-86897400I0J150000D01*
G01*
X124920100Y-86597400D01*
G75*
G02*
X125070100Y-86447400I150000J0D01*
G01*
X126720100Y-86447400D01*
G75*
G02*
X126870100Y-86597400I0J-150000D01*
G01*
G37*
G36*
G01*
X126870100Y-87867400D02*
X126870100Y-88167400D01*
G75*
G02*
X126720100Y-88317400I-150000J0D01*
G01*
X125070100Y-88317400D01*
G75*
G02*
X124920100Y-88167400I0J150000D01*
G01*
X124920100Y-87867400D01*
G75*
G02*
X125070100Y-87717400I150000J0D01*
G01*
X126720100Y-87717400D01*
G75*
G02*
X126870100Y-87867400I0J-150000D01*
G01*
G37*
G36*
G01*
X126870100Y-89137400D02*
X126870100Y-89437400D01*
G75*
G02*
X126720100Y-89587400I-150000J0D01*
G01*
X125070100Y-89587400D01*
G75*
G02*
X124920100Y-89437400I0J150000D01*
G01*
X124920100Y-89137400D01*
G75*
G02*
X125070100Y-88987400I150000J0D01*
G01*
X126720100Y-88987400D01*
G75*
G02*
X126870100Y-89137400I0J-150000D01*
G01*
G37*
%TD*%
%TO.C,D101*%
G36*
G01*
X153595100Y-75126150D02*
X153595100Y-75638650D01*
G75*
G02*
X153376350Y-75857400I-218750J0D01*
G01*
X152938850Y-75857400D01*
G75*
G02*
X152720100Y-75638650I0J218750D01*
G01*
X152720100Y-75126150D01*
G75*
G02*
X152938850Y-74907400I218750J0D01*
G01*
X153376350Y-74907400D01*
G75*
G02*
X153595100Y-75126150I0J-218750D01*
G01*
G37*
G36*
G01*
X152020100Y-75126150D02*
X152020100Y-75638650D01*
G75*
G02*
X151801350Y-75857400I-218750J0D01*
G01*
X151363850Y-75857400D01*
G75*
G02*
X151145100Y-75638650I0J218750D01*
G01*
X151145100Y-75126150D01*
G75*
G02*
X151363850Y-74907400I218750J0D01*
G01*
X151801350Y-74907400D01*
G75*
G02*
X152020100Y-75126150I0J-218750D01*
G01*
G37*
%TD*%
%TO.C,D102*%
G36*
G01*
X151982600Y-78626150D02*
X151982600Y-79138650D01*
G75*
G02*
X151763850Y-79357400I-218750J0D01*
G01*
X151326350Y-79357400D01*
G75*
G02*
X151107600Y-79138650I0J218750D01*
G01*
X151107600Y-78626150D01*
G75*
G02*
X151326350Y-78407400I218750J0D01*
G01*
X151763850Y-78407400D01*
G75*
G02*
X151982600Y-78626150I0J-218750D01*
G01*
G37*
G36*
G01*
X153557600Y-78626150D02*
X153557600Y-79138650D01*
G75*
G02*
X153338850Y-79357400I-218750J0D01*
G01*
X152901350Y-79357400D01*
G75*
G02*
X152682600Y-79138650I0J218750D01*
G01*
X152682600Y-78626150D01*
G75*
G02*
X152901350Y-78407400I218750J0D01*
G01*
X153338850Y-78407400D01*
G75*
G02*
X153557600Y-78626150I0J-218750D01*
G01*
G37*
%TD*%
%TO.C,D103*%
G36*
G01*
X153595100Y-81876150D02*
X153595100Y-82388650D01*
G75*
G02*
X153376350Y-82607400I-218750J0D01*
G01*
X152938850Y-82607400D01*
G75*
G02*
X152720100Y-82388650I0J218750D01*
G01*
X152720100Y-81876150D01*
G75*
G02*
X152938850Y-81657400I218750J0D01*
G01*
X153376350Y-81657400D01*
G75*
G02*
X153595100Y-81876150I0J-218750D01*
G01*
G37*
G36*
G01*
X152020100Y-81876150D02*
X152020100Y-82388650D01*
G75*
G02*
X151801350Y-82607400I-218750J0D01*
G01*
X151363850Y-82607400D01*
G75*
G02*
X151145100Y-82388650I0J218750D01*
G01*
X151145100Y-81876150D01*
G75*
G02*
X151363850Y-81657400I218750J0D01*
G01*
X151801350Y-81657400D01*
G75*
G02*
X152020100Y-81876150I0J-218750D01*
G01*
G37*
%TD*%
%TO.C,D104*%
G36*
G01*
X152020100Y-85376150D02*
X152020100Y-85888650D01*
G75*
G02*
X151801350Y-86107400I-218750J0D01*
G01*
X151363850Y-86107400D01*
G75*
G02*
X151145100Y-85888650I0J218750D01*
G01*
X151145100Y-85376150D01*
G75*
G02*
X151363850Y-85157400I218750J0D01*
G01*
X151801350Y-85157400D01*
G75*
G02*
X152020100Y-85376150I0J-218750D01*
G01*
G37*
G36*
G01*
X153595100Y-85376150D02*
X153595100Y-85888650D01*
G75*
G02*
X153376350Y-86107400I-218750J0D01*
G01*
X152938850Y-86107400D01*
G75*
G02*
X152720100Y-85888650I0J218750D01*
G01*
X152720100Y-85376150D01*
G75*
G02*
X152938850Y-85157400I218750J0D01*
G01*
X153376350Y-85157400D01*
G75*
G02*
X153595100Y-85376150I0J-218750D01*
G01*
G37*
%TD*%
%TO.C,D105*%
G36*
G01*
X153595100Y-88876150D02*
X153595100Y-89388650D01*
G75*
G02*
X153376350Y-89607400I-218750J0D01*
G01*
X152938850Y-89607400D01*
G75*
G02*
X152720100Y-89388650I0J218750D01*
G01*
X152720100Y-88876150D01*
G75*
G02*
X152938850Y-88657400I218750J0D01*
G01*
X153376350Y-88657400D01*
G75*
G02*
X153595100Y-88876150I0J-218750D01*
G01*
G37*
G36*
G01*
X152020100Y-88876150D02*
X152020100Y-89388650D01*
G75*
G02*
X151801350Y-89607400I-218750J0D01*
G01*
X151363850Y-89607400D01*
G75*
G02*
X151145100Y-89388650I0J218750D01*
G01*
X151145100Y-88876150D01*
G75*
G02*
X151363850Y-88657400I218750J0D01*
G01*
X151801350Y-88657400D01*
G75*
G02*
X152020100Y-88876150I0J-218750D01*
G01*
G37*
%TD*%
%TO.C,D106*%
G36*
G01*
X152020100Y-92376150D02*
X152020100Y-92888650D01*
G75*
G02*
X151801350Y-93107400I-218750J0D01*
G01*
X151363850Y-93107400D01*
G75*
G02*
X151145100Y-92888650I0J218750D01*
G01*
X151145100Y-92376150D01*
G75*
G02*
X151363850Y-92157400I218750J0D01*
G01*
X151801350Y-92157400D01*
G75*
G02*
X152020100Y-92376150I0J-218750D01*
G01*
G37*
G36*
G01*
X153595100Y-92376150D02*
X153595100Y-92888650D01*
G75*
G02*
X153376350Y-93107400I-218750J0D01*
G01*
X152938850Y-93107400D01*
G75*
G02*
X152720100Y-92888650I0J218750D01*
G01*
X152720100Y-92376150D01*
G75*
G02*
X152938850Y-92157400I218750J0D01*
G01*
X153376350Y-92157400D01*
G75*
G02*
X153595100Y-92376150I0J-218750D01*
G01*
G37*
%TD*%
%TO.C,D107*%
G36*
G01*
X153595100Y-95876150D02*
X153595100Y-96388650D01*
G75*
G02*
X153376350Y-96607400I-218750J0D01*
G01*
X152938850Y-96607400D01*
G75*
G02*
X152720100Y-96388650I0J218750D01*
G01*
X152720100Y-95876150D01*
G75*
G02*
X152938850Y-95657400I218750J0D01*
G01*
X153376350Y-95657400D01*
G75*
G02*
X153595100Y-95876150I0J-218750D01*
G01*
G37*
G36*
G01*
X152020100Y-95876150D02*
X152020100Y-96388650D01*
G75*
G02*
X151801350Y-96607400I-218750J0D01*
G01*
X151363850Y-96607400D01*
G75*
G02*
X151145100Y-96388650I0J218750D01*
G01*
X151145100Y-95876150D01*
G75*
G02*
X151363850Y-95657400I218750J0D01*
G01*
X151801350Y-95657400D01*
G75*
G02*
X152020100Y-95876150I0J-218750D01*
G01*
G37*
%TD*%
%TO.C,D108*%
G36*
G01*
X152020100Y-76876150D02*
X152020100Y-77388650D01*
G75*
G02*
X151801350Y-77607400I-218750J0D01*
G01*
X151363850Y-77607400D01*
G75*
G02*
X151145100Y-77388650I0J218750D01*
G01*
X151145100Y-76876150D01*
G75*
G02*
X151363850Y-76657400I218750J0D01*
G01*
X151801350Y-76657400D01*
G75*
G02*
X152020100Y-76876150I0J-218750D01*
G01*
G37*
G36*
G01*
X153595100Y-76876150D02*
X153595100Y-77388650D01*
G75*
G02*
X153376350Y-77607400I-218750J0D01*
G01*
X152938850Y-77607400D01*
G75*
G02*
X152720100Y-77388650I0J218750D01*
G01*
X152720100Y-76876150D01*
G75*
G02*
X152938850Y-76657400I218750J0D01*
G01*
X153376350Y-76657400D01*
G75*
G02*
X153595100Y-76876150I0J-218750D01*
G01*
G37*
%TD*%
%TO.C,D109*%
G36*
G01*
X153595100Y-80376150D02*
X153595100Y-80888650D01*
G75*
G02*
X153376350Y-81107400I-218750J0D01*
G01*
X152938850Y-81107400D01*
G75*
G02*
X152720100Y-80888650I0J218750D01*
G01*
X152720100Y-80376150D01*
G75*
G02*
X152938850Y-80157400I218750J0D01*
G01*
X153376350Y-80157400D01*
G75*
G02*
X153595100Y-80376150I0J-218750D01*
G01*
G37*
G36*
G01*
X152020100Y-80376150D02*
X152020100Y-80888650D01*
G75*
G02*
X151801350Y-81107400I-218750J0D01*
G01*
X151363850Y-81107400D01*
G75*
G02*
X151145100Y-80888650I0J218750D01*
G01*
X151145100Y-80376150D01*
G75*
G02*
X151363850Y-80157400I218750J0D01*
G01*
X151801350Y-80157400D01*
G75*
G02*
X152020100Y-80376150I0J-218750D01*
G01*
G37*
%TD*%
%TO.C,D110*%
G36*
G01*
X152020100Y-83626150D02*
X152020100Y-84138650D01*
G75*
G02*
X151801350Y-84357400I-218750J0D01*
G01*
X151363850Y-84357400D01*
G75*
G02*
X151145100Y-84138650I0J218750D01*
G01*
X151145100Y-83626150D01*
G75*
G02*
X151363850Y-83407400I218750J0D01*
G01*
X151801350Y-83407400D01*
G75*
G02*
X152020100Y-83626150I0J-218750D01*
G01*
G37*
G36*
G01*
X153595100Y-83626150D02*
X153595100Y-84138650D01*
G75*
G02*
X153376350Y-84357400I-218750J0D01*
G01*
X152938850Y-84357400D01*
G75*
G02*
X152720100Y-84138650I0J218750D01*
G01*
X152720100Y-83626150D01*
G75*
G02*
X152938850Y-83407400I218750J0D01*
G01*
X153376350Y-83407400D01*
G75*
G02*
X153595100Y-83626150I0J-218750D01*
G01*
G37*
%TD*%
%TO.C,D111*%
G36*
G01*
X153595100Y-87126150D02*
X153595100Y-87638650D01*
G75*
G02*
X153376350Y-87857400I-218750J0D01*
G01*
X152938850Y-87857400D01*
G75*
G02*
X152720100Y-87638650I0J218750D01*
G01*
X152720100Y-87126150D01*
G75*
G02*
X152938850Y-86907400I218750J0D01*
G01*
X153376350Y-86907400D01*
G75*
G02*
X153595100Y-87126150I0J-218750D01*
G01*
G37*
G36*
G01*
X152020100Y-87126150D02*
X152020100Y-87638650D01*
G75*
G02*
X151801350Y-87857400I-218750J0D01*
G01*
X151363850Y-87857400D01*
G75*
G02*
X151145100Y-87638650I0J218750D01*
G01*
X151145100Y-87126150D01*
G75*
G02*
X151363850Y-86907400I218750J0D01*
G01*
X151801350Y-86907400D01*
G75*
G02*
X152020100Y-87126150I0J-218750D01*
G01*
G37*
%TD*%
%TO.C,D112*%
G36*
G01*
X152020100Y-90626150D02*
X152020100Y-91138650D01*
G75*
G02*
X151801350Y-91357400I-218750J0D01*
G01*
X151363850Y-91357400D01*
G75*
G02*
X151145100Y-91138650I0J218750D01*
G01*
X151145100Y-90626150D01*
G75*
G02*
X151363850Y-90407400I218750J0D01*
G01*
X151801350Y-90407400D01*
G75*
G02*
X152020100Y-90626150I0J-218750D01*
G01*
G37*
G36*
G01*
X153595100Y-90626150D02*
X153595100Y-91138650D01*
G75*
G02*
X153376350Y-91357400I-218750J0D01*
G01*
X152938850Y-91357400D01*
G75*
G02*
X152720100Y-91138650I0J218750D01*
G01*
X152720100Y-90626150D01*
G75*
G02*
X152938850Y-90407400I218750J0D01*
G01*
X153376350Y-90407400D01*
G75*
G02*
X153595100Y-90626150I0J-218750D01*
G01*
G37*
%TD*%
%TO.C,D113*%
G36*
G01*
X153595100Y-94126150D02*
X153595100Y-94638650D01*
G75*
G02*
X153376350Y-94857400I-218750J0D01*
G01*
X152938850Y-94857400D01*
G75*
G02*
X152720100Y-94638650I0J218750D01*
G01*
X152720100Y-94126150D01*
G75*
G02*
X152938850Y-93907400I218750J0D01*
G01*
X153376350Y-93907400D01*
G75*
G02*
X153595100Y-94126150I0J-218750D01*
G01*
G37*
G36*
G01*
X152020100Y-94126150D02*
X152020100Y-94638650D01*
G75*
G02*
X151801350Y-94857400I-218750J0D01*
G01*
X151363850Y-94857400D01*
G75*
G02*
X151145100Y-94638650I0J218750D01*
G01*
X151145100Y-94126150D01*
G75*
G02*
X151363850Y-93907400I218750J0D01*
G01*
X151801350Y-93907400D01*
G75*
G02*
X152020100Y-94126150I0J-218750D01*
G01*
G37*
%TD*%
%TO.C,R105*%
G36*
G01*
X154590100Y-75567400D02*
X154590100Y-75197400D01*
G75*
G02*
X154725100Y-75062400I135000J0D01*
G01*
X154995100Y-75062400D01*
G75*
G02*
X155130100Y-75197400I0J-135000D01*
G01*
X155130100Y-75567400D01*
G75*
G02*
X154995100Y-75702400I-135000J0D01*
G01*
X154725100Y-75702400D01*
G75*
G02*
X154590100Y-75567400I0J135000D01*
G01*
G37*
G36*
G01*
X155610100Y-75567400D02*
X155610100Y-75197400D01*
G75*
G02*
X155745100Y-75062400I135000J0D01*
G01*
X156015100Y-75062400D01*
G75*
G02*
X156150100Y-75197400I0J-135000D01*
G01*
X156150100Y-75567400D01*
G75*
G02*
X156015100Y-75702400I-135000J0D01*
G01*
X155745100Y-75702400D01*
G75*
G02*
X155610100Y-75567400I0J135000D01*
G01*
G37*
%TD*%
%TO.C,R106*%
G36*
G01*
X154590100Y-79067400D02*
X154590100Y-78697400D01*
G75*
G02*
X154725100Y-78562400I135000J0D01*
G01*
X154995100Y-78562400D01*
G75*
G02*
X155130100Y-78697400I0J-135000D01*
G01*
X155130100Y-79067400D01*
G75*
G02*
X154995100Y-79202400I-135000J0D01*
G01*
X154725100Y-79202400D01*
G75*
G02*
X154590100Y-79067400I0J135000D01*
G01*
G37*
G36*
G01*
X155610100Y-79067400D02*
X155610100Y-78697400D01*
G75*
G02*
X155745100Y-78562400I135000J0D01*
G01*
X156015100Y-78562400D01*
G75*
G02*
X156150100Y-78697400I0J-135000D01*
G01*
X156150100Y-79067400D01*
G75*
G02*
X156015100Y-79202400I-135000J0D01*
G01*
X155745100Y-79202400D01*
G75*
G02*
X155610100Y-79067400I0J135000D01*
G01*
G37*
%TD*%
%TO.C,R107*%
G36*
G01*
X155610100Y-82317400D02*
X155610100Y-81947400D01*
G75*
G02*
X155745100Y-81812400I135000J0D01*
G01*
X156015100Y-81812400D01*
G75*
G02*
X156150100Y-81947400I0J-135000D01*
G01*
X156150100Y-82317400D01*
G75*
G02*
X156015100Y-82452400I-135000J0D01*
G01*
X155745100Y-82452400D01*
G75*
G02*
X155610100Y-82317400I0J135000D01*
G01*
G37*
G36*
G01*
X154590100Y-82317400D02*
X154590100Y-81947400D01*
G75*
G02*
X154725100Y-81812400I135000J0D01*
G01*
X154995100Y-81812400D01*
G75*
G02*
X155130100Y-81947400I0J-135000D01*
G01*
X155130100Y-82317400D01*
G75*
G02*
X154995100Y-82452400I-135000J0D01*
G01*
X154725100Y-82452400D01*
G75*
G02*
X154590100Y-82317400I0J135000D01*
G01*
G37*
%TD*%
%TO.C,R108*%
G36*
G01*
X154590100Y-85817400D02*
X154590100Y-85447400D01*
G75*
G02*
X154725100Y-85312400I135000J0D01*
G01*
X154995100Y-85312400D01*
G75*
G02*
X155130100Y-85447400I0J-135000D01*
G01*
X155130100Y-85817400D01*
G75*
G02*
X154995100Y-85952400I-135000J0D01*
G01*
X154725100Y-85952400D01*
G75*
G02*
X154590100Y-85817400I0J135000D01*
G01*
G37*
G36*
G01*
X155610100Y-85817400D02*
X155610100Y-85447400D01*
G75*
G02*
X155745100Y-85312400I135000J0D01*
G01*
X156015100Y-85312400D01*
G75*
G02*
X156150100Y-85447400I0J-135000D01*
G01*
X156150100Y-85817400D01*
G75*
G02*
X156015100Y-85952400I-135000J0D01*
G01*
X155745100Y-85952400D01*
G75*
G02*
X155610100Y-85817400I0J135000D01*
G01*
G37*
%TD*%
%TO.C,R109*%
G36*
G01*
X155610100Y-89317400D02*
X155610100Y-88947400D01*
G75*
G02*
X155745100Y-88812400I135000J0D01*
G01*
X156015100Y-88812400D01*
G75*
G02*
X156150100Y-88947400I0J-135000D01*
G01*
X156150100Y-89317400D01*
G75*
G02*
X156015100Y-89452400I-135000J0D01*
G01*
X155745100Y-89452400D01*
G75*
G02*
X155610100Y-89317400I0J135000D01*
G01*
G37*
G36*
G01*
X154590100Y-89317400D02*
X154590100Y-88947400D01*
G75*
G02*
X154725100Y-88812400I135000J0D01*
G01*
X154995100Y-88812400D01*
G75*
G02*
X155130100Y-88947400I0J-135000D01*
G01*
X155130100Y-89317400D01*
G75*
G02*
X154995100Y-89452400I-135000J0D01*
G01*
X154725100Y-89452400D01*
G75*
G02*
X154590100Y-89317400I0J135000D01*
G01*
G37*
%TD*%
%TO.C,R110*%
G36*
G01*
X154590100Y-92817400D02*
X154590100Y-92447400D01*
G75*
G02*
X154725100Y-92312400I135000J0D01*
G01*
X154995100Y-92312400D01*
G75*
G02*
X155130100Y-92447400I0J-135000D01*
G01*
X155130100Y-92817400D01*
G75*
G02*
X154995100Y-92952400I-135000J0D01*
G01*
X154725100Y-92952400D01*
G75*
G02*
X154590100Y-92817400I0J135000D01*
G01*
G37*
G36*
G01*
X155610100Y-92817400D02*
X155610100Y-92447400D01*
G75*
G02*
X155745100Y-92312400I135000J0D01*
G01*
X156015100Y-92312400D01*
G75*
G02*
X156150100Y-92447400I0J-135000D01*
G01*
X156150100Y-92817400D01*
G75*
G02*
X156015100Y-92952400I-135000J0D01*
G01*
X155745100Y-92952400D01*
G75*
G02*
X155610100Y-92817400I0J135000D01*
G01*
G37*
%TD*%
%TO.C,R111*%
G36*
G01*
X155610100Y-96317400D02*
X155610100Y-95947400D01*
G75*
G02*
X155745100Y-95812400I135000J0D01*
G01*
X156015100Y-95812400D01*
G75*
G02*
X156150100Y-95947400I0J-135000D01*
G01*
X156150100Y-96317400D01*
G75*
G02*
X156015100Y-96452400I-135000J0D01*
G01*
X155745100Y-96452400D01*
G75*
G02*
X155610100Y-96317400I0J135000D01*
G01*
G37*
G36*
G01*
X154590100Y-96317400D02*
X154590100Y-95947400D01*
G75*
G02*
X154725100Y-95812400I135000J0D01*
G01*
X154995100Y-95812400D01*
G75*
G02*
X155130100Y-95947400I0J-135000D01*
G01*
X155130100Y-96317400D01*
G75*
G02*
X154995100Y-96452400I-135000J0D01*
G01*
X154725100Y-96452400D01*
G75*
G02*
X154590100Y-96317400I0J135000D01*
G01*
G37*
%TD*%
%TO.C,R112*%
G36*
G01*
X154590100Y-77317400D02*
X154590100Y-76947400D01*
G75*
G02*
X154725100Y-76812400I135000J0D01*
G01*
X154995100Y-76812400D01*
G75*
G02*
X155130100Y-76947400I0J-135000D01*
G01*
X155130100Y-77317400D01*
G75*
G02*
X154995100Y-77452400I-135000J0D01*
G01*
X154725100Y-77452400D01*
G75*
G02*
X154590100Y-77317400I0J135000D01*
G01*
G37*
G36*
G01*
X155610100Y-77317400D02*
X155610100Y-76947400D01*
G75*
G02*
X155745100Y-76812400I135000J0D01*
G01*
X156015100Y-76812400D01*
G75*
G02*
X156150100Y-76947400I0J-135000D01*
G01*
X156150100Y-77317400D01*
G75*
G02*
X156015100Y-77452400I-135000J0D01*
G01*
X155745100Y-77452400D01*
G75*
G02*
X155610100Y-77317400I0J135000D01*
G01*
G37*
%TD*%
%TO.C,R113*%
G36*
G01*
X155610100Y-80817400D02*
X155610100Y-80447400D01*
G75*
G02*
X155745100Y-80312400I135000J0D01*
G01*
X156015100Y-80312400D01*
G75*
G02*
X156150100Y-80447400I0J-135000D01*
G01*
X156150100Y-80817400D01*
G75*
G02*
X156015100Y-80952400I-135000J0D01*
G01*
X155745100Y-80952400D01*
G75*
G02*
X155610100Y-80817400I0J135000D01*
G01*
G37*
G36*
G01*
X154590100Y-80817400D02*
X154590100Y-80447400D01*
G75*
G02*
X154725100Y-80312400I135000J0D01*
G01*
X154995100Y-80312400D01*
G75*
G02*
X155130100Y-80447400I0J-135000D01*
G01*
X155130100Y-80817400D01*
G75*
G02*
X154995100Y-80952400I-135000J0D01*
G01*
X154725100Y-80952400D01*
G75*
G02*
X154590100Y-80817400I0J135000D01*
G01*
G37*
%TD*%
%TO.C,R114*%
G36*
G01*
X154590100Y-84067400D02*
X154590100Y-83697400D01*
G75*
G02*
X154725100Y-83562400I135000J0D01*
G01*
X154995100Y-83562400D01*
G75*
G02*
X155130100Y-83697400I0J-135000D01*
G01*
X155130100Y-84067400D01*
G75*
G02*
X154995100Y-84202400I-135000J0D01*
G01*
X154725100Y-84202400D01*
G75*
G02*
X154590100Y-84067400I0J135000D01*
G01*
G37*
G36*
G01*
X155610100Y-84067400D02*
X155610100Y-83697400D01*
G75*
G02*
X155745100Y-83562400I135000J0D01*
G01*
X156015100Y-83562400D01*
G75*
G02*
X156150100Y-83697400I0J-135000D01*
G01*
X156150100Y-84067400D01*
G75*
G02*
X156015100Y-84202400I-135000J0D01*
G01*
X155745100Y-84202400D01*
G75*
G02*
X155610100Y-84067400I0J135000D01*
G01*
G37*
%TD*%
%TO.C,R115*%
G36*
G01*
X155610100Y-87567400D02*
X155610100Y-87197400D01*
G75*
G02*
X155745100Y-87062400I135000J0D01*
G01*
X156015100Y-87062400D01*
G75*
G02*
X156150100Y-87197400I0J-135000D01*
G01*
X156150100Y-87567400D01*
G75*
G02*
X156015100Y-87702400I-135000J0D01*
G01*
X155745100Y-87702400D01*
G75*
G02*
X155610100Y-87567400I0J135000D01*
G01*
G37*
G36*
G01*
X154590100Y-87567400D02*
X154590100Y-87197400D01*
G75*
G02*
X154725100Y-87062400I135000J0D01*
G01*
X154995100Y-87062400D01*
G75*
G02*
X155130100Y-87197400I0J-135000D01*
G01*
X155130100Y-87567400D01*
G75*
G02*
X154995100Y-87702400I-135000J0D01*
G01*
X154725100Y-87702400D01*
G75*
G02*
X154590100Y-87567400I0J135000D01*
G01*
G37*
%TD*%
%TO.C,R116*%
G36*
G01*
X154590100Y-91067400D02*
X154590100Y-90697400D01*
G75*
G02*
X154725100Y-90562400I135000J0D01*
G01*
X154995100Y-90562400D01*
G75*
G02*
X155130100Y-90697400I0J-135000D01*
G01*
X155130100Y-91067400D01*
G75*
G02*
X154995100Y-91202400I-135000J0D01*
G01*
X154725100Y-91202400D01*
G75*
G02*
X154590100Y-91067400I0J135000D01*
G01*
G37*
G36*
G01*
X155610100Y-91067400D02*
X155610100Y-90697400D01*
G75*
G02*
X155745100Y-90562400I135000J0D01*
G01*
X156015100Y-90562400D01*
G75*
G02*
X156150100Y-90697400I0J-135000D01*
G01*
X156150100Y-91067400D01*
G75*
G02*
X156015100Y-91202400I-135000J0D01*
G01*
X155745100Y-91202400D01*
G75*
G02*
X155610100Y-91067400I0J135000D01*
G01*
G37*
%TD*%
%TO.C,R117*%
G36*
G01*
X155610100Y-94567400D02*
X155610100Y-94197400D01*
G75*
G02*
X155745100Y-94062400I135000J0D01*
G01*
X156015100Y-94062400D01*
G75*
G02*
X156150100Y-94197400I0J-135000D01*
G01*
X156150100Y-94567400D01*
G75*
G02*
X156015100Y-94702400I-135000J0D01*
G01*
X155745100Y-94702400D01*
G75*
G02*
X155610100Y-94567400I0J135000D01*
G01*
G37*
G36*
G01*
X154590100Y-94567400D02*
X154590100Y-94197400D01*
G75*
G02*
X154725100Y-94062400I135000J0D01*
G01*
X154995100Y-94062400D01*
G75*
G02*
X155130100Y-94197400I0J-135000D01*
G01*
X155130100Y-94567400D01*
G75*
G02*
X154995100Y-94702400I-135000J0D01*
G01*
X154725100Y-94702400D01*
G75*
G02*
X154590100Y-94567400I0J135000D01*
G01*
G37*
%TD*%
M02*
