%TF.GenerationSoftware,KiCad,Pcbnew,9.0.1+1*%
%TF.CreationDate,2025-11-20T15:33:45+00:00*%
%TF.ProjectId,com4bbb,636f6d34-6262-4622-9e6b-696361645f70,rev?*%
%TF.SameCoordinates,Original*%
%TF.FileFunction,Paste,Top*%
%TF.FilePolarity,Positive*%
%FSLAX46Y46*%
G04 Gerber Fmt 4.6, Leading zero omitted, Abs format (unit mm)*
G04 Created by KiCad (PCBNEW 9.0.1+1) date 2025-11-20 15:33:45*
%MOMM*%
%LPD*%
G01*
G04 APERTURE LIST*
G04 Aperture macros list*
%AMRoundRect*
0 Rectangle with rounded corners*
0 $1 Rounding radius*
0 $2 $3 $4 $5 $6 $7 $8 $9 X,Y pos of 4 corners*
0 Add a 4 corners polygon primitive as box body*
4,1,4,$2,$3,$4,$5,$6,$7,$8,$9,$2,$3,0*
0 Add four circle primitives for the rounded corners*
1,1,$1+$1,$2,$3*
1,1,$1+$1,$4,$5*
1,1,$1+$1,$6,$7*
1,1,$1+$1,$8,$9*
0 Add four rect primitives between the rounded corners*
20,1,$1+$1,$2,$3,$4,$5,0*
20,1,$1+$1,$4,$5,$6,$7,0*
20,1,$1+$1,$6,$7,$8,$9,0*
20,1,$1+$1,$8,$9,$2,$3,0*%
G04 Aperture macros list end*
%ADD10RoundRect,0.140000X-0.170000X0.140000X-0.170000X-0.140000X0.170000X-0.140000X0.170000X0.140000X0*%
%ADD11RoundRect,0.135000X-0.135000X-0.185000X0.135000X-0.185000X0.135000X0.185000X-0.135000X0.185000X0*%
%ADD12RoundRect,0.150000X0.825000X0.150000X-0.825000X0.150000X-0.825000X-0.150000X0.825000X-0.150000X0*%
%ADD13RoundRect,0.218750X0.218750X0.256250X-0.218750X0.256250X-0.218750X-0.256250X0.218750X-0.256250X0*%
%ADD14RoundRect,0.135000X0.135000X0.185000X-0.135000X0.185000X-0.135000X-0.185000X0.135000X-0.185000X0*%
%ADD15RoundRect,0.135000X0.185000X-0.135000X0.185000X0.135000X-0.185000X0.135000X-0.185000X-0.135000X0*%
%ADD16RoundRect,0.150000X-0.150000X0.825000X-0.150000X-0.825000X0.150000X-0.825000X0.150000X0.825000X0*%
%ADD17RoundRect,0.250000X1.000000X0.650000X-1.000000X0.650000X-1.000000X-0.650000X1.000000X-0.650000X0*%
%ADD18RoundRect,0.150000X-0.512500X-0.150000X0.512500X-0.150000X0.512500X0.150000X-0.512500X0.150000X0*%
%ADD19R,0.850000X1.600000*%
%ADD20R,1.500000X0.900000*%
%ADD21R,0.900000X1.500000*%
%ADD22R,0.900000X0.900000*%
%ADD23RoundRect,0.147500X0.147500X0.172500X-0.147500X0.172500X-0.147500X-0.172500X0.147500X-0.172500X0*%
%ADD24R,1.650000X0.400000*%
%ADD25R,0.700000X1.825000*%
%ADD26R,1.500000X2.000000*%
%ADD27R,2.000000X1.350000*%
%ADD28R,2.500000X1.430000*%
G04 APERTURE END LIST*
D10*
%TO.C,C101*%
X125120100Y-90902400D03*
X125120100Y-91862400D03*
%TD*%
D11*
%TO.C,R101*%
X154860100Y-75382400D03*
X155880100Y-75382400D03*
%TD*%
%TO.C,R102*%
X154860100Y-77132400D03*
X155880100Y-77132400D03*
%TD*%
%TO.C,R104*%
X154860100Y-80632400D03*
X155880100Y-80632400D03*
%TD*%
D12*
%TO.C,U103*%
X130845100Y-89287400D03*
X130845100Y-88017400D03*
X130845100Y-86747400D03*
X130845100Y-85477400D03*
X125895100Y-85477400D03*
X125895100Y-86747400D03*
X125895100Y-88017400D03*
X125895100Y-89287400D03*
%TD*%
D13*
%TO.C,D101*%
X153157600Y-75382400D03*
X151582600Y-75382400D03*
%TD*%
%TO.C,D102*%
X153157600Y-77132400D03*
X151582600Y-77132400D03*
%TD*%
%TO.C,D103*%
X153157600Y-78882400D03*
X151582600Y-78882400D03*
%TD*%
%TO.C,D104*%
X153157600Y-80632400D03*
X151582600Y-80632400D03*
%TD*%
%TO.C,D105*%
X153157600Y-82382400D03*
X151582600Y-82382400D03*
%TD*%
%TO.C,D106*%
X153157600Y-84132400D03*
X151582600Y-84132400D03*
%TD*%
%TO.C,D107*%
X153157600Y-85882400D03*
X151582600Y-85882400D03*
%TD*%
%TO.C,D108*%
X153157600Y-87632400D03*
X151582600Y-87632400D03*
%TD*%
%TO.C,D109*%
X153157600Y-89382400D03*
X151582600Y-89382400D03*
%TD*%
%TO.C,D110*%
X153157600Y-91132400D03*
X151582600Y-91132400D03*
%TD*%
%TO.C,D111*%
X153157600Y-92882400D03*
X151582600Y-92882400D03*
%TD*%
%TO.C,D112*%
X153157600Y-94632400D03*
X151582600Y-94632400D03*
%TD*%
%TO.C,D113*%
X153157600Y-96382400D03*
X151582600Y-96382400D03*
%TD*%
D11*
%TO.C,R105*%
X154850100Y-82382400D03*
X155870100Y-82382400D03*
%TD*%
%TO.C,R106*%
X154860100Y-84132400D03*
X155880100Y-84132400D03*
%TD*%
%TO.C,R107*%
X154860100Y-85882400D03*
X155880100Y-85882400D03*
%TD*%
%TO.C,R108*%
X154860100Y-87632400D03*
X155880100Y-87632400D03*
%TD*%
%TO.C,R109*%
X154860100Y-89382400D03*
X155880100Y-89382400D03*
%TD*%
%TO.C,R110*%
X154860100Y-91132400D03*
X155880100Y-91132400D03*
%TD*%
%TO.C,R111*%
X154860100Y-92882400D03*
X155880100Y-92882400D03*
%TD*%
%TO.C,R112*%
X154860100Y-94632400D03*
X155880100Y-94632400D03*
%TD*%
%TO.C,R113*%
X154860100Y-96382400D03*
X155880100Y-96382400D03*
%TD*%
D14*
%TO.C,R114*%
X133870100Y-86782400D03*
X132850100Y-86782400D03*
%TD*%
%TO.C,R115*%
X133870100Y-88032400D03*
X132850100Y-88032400D03*
%TD*%
%TO.C,R116*%
X133880100Y-89282400D03*
X132860100Y-89282400D03*
%TD*%
D15*
%TO.C,R117*%
X122370100Y-90892400D03*
X122370100Y-89872400D03*
%TD*%
D11*
%TO.C,R103*%
X154860100Y-78882400D03*
X155880100Y-78882400D03*
%TD*%
D16*
%TO.C,U101*%
X155775100Y-103157400D03*
X154505100Y-103157400D03*
X153235100Y-103157400D03*
X151965100Y-103157400D03*
X151965100Y-108107400D03*
X153235100Y-108107400D03*
X154505100Y-108107400D03*
X155775100Y-108107400D03*
%TD*%
D17*
%TO.C,D114*%
X129620100Y-61382400D03*
X125620100Y-61382400D03*
%TD*%
D18*
%TO.C,U201*%
X158532600Y-54132400D03*
X158532600Y-55082400D03*
X158532600Y-56032400D03*
X160807600Y-56032400D03*
X160807600Y-55082400D03*
X160807600Y-54132400D03*
%TD*%
D19*
%TO.C,D201*%
X123495100Y-126382400D03*
X125245100Y-126382400D03*
X125245100Y-122882400D03*
X123495100Y-122882400D03*
%TD*%
D20*
%TO.C,U202*%
X145450000Y-125720000D03*
X145450000Y-124450000D03*
X145450000Y-123180000D03*
X145450000Y-121910000D03*
X145450000Y-120640000D03*
X145450000Y-119370000D03*
X145450000Y-118100000D03*
X145450000Y-116830000D03*
X145450000Y-115560000D03*
X145450000Y-114290000D03*
X145450000Y-113020000D03*
X145450000Y-111750000D03*
X145450000Y-110480000D03*
X145450000Y-109210000D03*
D21*
X143685000Y-107960000D03*
X142415000Y-107960000D03*
X141145000Y-107960000D03*
X139875000Y-107960000D03*
X138605000Y-107960000D03*
X137335000Y-107960000D03*
X136065000Y-107960000D03*
X134795000Y-107960000D03*
X133525000Y-107960000D03*
X132255000Y-107960000D03*
X130985000Y-107960000D03*
X129715000Y-107960000D03*
D20*
X127950000Y-109210000D03*
X127950000Y-110480000D03*
X127950000Y-111750000D03*
X127950000Y-113020000D03*
X127950000Y-114290000D03*
X127950000Y-115560000D03*
X127950000Y-116830000D03*
X127950000Y-118100000D03*
X127950000Y-119370000D03*
X127950000Y-120640000D03*
X127950000Y-121910000D03*
X127950000Y-123180000D03*
X127950000Y-124450000D03*
X127950000Y-125720000D03*
D22*
X139600000Y-119400000D03*
X139600000Y-118000000D03*
X139600000Y-116600000D03*
X138200000Y-119400000D03*
X138200000Y-118000000D03*
X138200000Y-116600000D03*
X136800000Y-119400000D03*
X136800000Y-118000000D03*
X136800000Y-116600000D03*
%TD*%
D23*
%TO.C,FB201*%
X164105100Y-59632400D03*
X163135100Y-59632400D03*
%TD*%
D24*
%TO.C,J201*%
X164370100Y-55982400D03*
X164370100Y-55332400D03*
X164370100Y-54682400D03*
X164370100Y-54032400D03*
X164370100Y-53382400D03*
D25*
X165570100Y-57632400D03*
D26*
X164270100Y-57532400D03*
D27*
X166320100Y-57412400D03*
D28*
X167520100Y-55642400D03*
X167520100Y-53722400D03*
D27*
X166320100Y-51932400D03*
D26*
X164250100Y-51782400D03*
D25*
X165570100Y-51682400D03*
%TD*%
M02*
