G04 #@! TF.GenerationSoftware,KiCad,Pcbnew,9.0.1+1*
G04 #@! TF.CreationDate,2025-11-20T17:42:09+00:00*
G04 #@! TF.ProjectId,com4bbb,636f6d34-6262-4622-9e6b-696361645f70,rev?*
G04 #@! TF.SameCoordinates,Original*
G04 #@! TF.FileFunction,Legend,Top*
G04 #@! TF.FilePolarity,Positive*
%FSLAX46Y46*%
G04 Gerber Fmt 4.6, Leading zero omitted, Abs format (unit mm)*
G04 Created by KiCad (PCBNEW 9.0.1+1) date 2025-11-20 17:42:09*
%MOMM*%
%LPD*%
G01*
G04 APERTURE LIST*
%ADD10C,0.150000*%
%ADD11C,0.120000*%
%ADD12R,1.700000X1.700000*%
%ADD13C,1.700000*%
%ADD14R,1.500000X3.000000*%
%ADD15O,1.500000X3.000000*%
%ADD16R,1.500000X1.000000*%
%ADD17C,2.000000*%
%ADD18R,0.850000X1.600000*%
%ADD19R,1.500000X0.900000*%
%ADD20R,0.900000X1.500000*%
%ADD21R,0.900000X0.900000*%
%ADD22C,2.374900*%
%ADD23C,0.990600*%
%ADD24C,0.787400*%
%ADD25R,1.650000X0.400000*%
%ADD26R,0.700000X1.825000*%
%ADD27R,1.500000X2.000000*%
%ADD28R,2.000000X1.350000*%
%ADD29O,1.700000X1.350000*%
%ADD30O,1.500000X1.100000*%
%ADD31R,2.500000X1.430000*%
G04 APERTURE END LIST*
D10*
X165162005Y-60457219D02*
X165162005Y-59457219D01*
X165162005Y-59457219D02*
X165542957Y-59457219D01*
X165542957Y-59457219D02*
X165638195Y-59504838D01*
X165638195Y-59504838D02*
X165685814Y-59552457D01*
X165685814Y-59552457D02*
X165733433Y-59647695D01*
X165733433Y-59647695D02*
X165733433Y-59790552D01*
X165733433Y-59790552D02*
X165685814Y-59885790D01*
X165685814Y-59885790D02*
X165638195Y-59933409D01*
X165638195Y-59933409D02*
X165542957Y-59981028D01*
X165542957Y-59981028D02*
X165162005Y-59981028D01*
X166304862Y-59885790D02*
X166209624Y-59838171D01*
X166209624Y-59838171D02*
X166162005Y-59790552D01*
X166162005Y-59790552D02*
X166114386Y-59695314D01*
X166114386Y-59695314D02*
X166114386Y-59647695D01*
X166114386Y-59647695D02*
X166162005Y-59552457D01*
X166162005Y-59552457D02*
X166209624Y-59504838D01*
X166209624Y-59504838D02*
X166304862Y-59457219D01*
X166304862Y-59457219D02*
X166495338Y-59457219D01*
X166495338Y-59457219D02*
X166590576Y-59504838D01*
X166590576Y-59504838D02*
X166638195Y-59552457D01*
X166638195Y-59552457D02*
X166685814Y-59647695D01*
X166685814Y-59647695D02*
X166685814Y-59695314D01*
X166685814Y-59695314D02*
X166638195Y-59790552D01*
X166638195Y-59790552D02*
X166590576Y-59838171D01*
X166590576Y-59838171D02*
X166495338Y-59885790D01*
X166495338Y-59885790D02*
X166304862Y-59885790D01*
X166304862Y-59885790D02*
X166209624Y-59933409D01*
X166209624Y-59933409D02*
X166162005Y-59981028D01*
X166162005Y-59981028D02*
X166114386Y-60076266D01*
X166114386Y-60076266D02*
X166114386Y-60266742D01*
X166114386Y-60266742D02*
X166162005Y-60361980D01*
X166162005Y-60361980D02*
X166209624Y-60409600D01*
X166209624Y-60409600D02*
X166304862Y-60457219D01*
X166304862Y-60457219D02*
X166495338Y-60457219D01*
X166495338Y-60457219D02*
X166590576Y-60409600D01*
X166590576Y-60409600D02*
X166638195Y-60361980D01*
X166638195Y-60361980D02*
X166685814Y-60266742D01*
X166685814Y-60266742D02*
X166685814Y-60076266D01*
X166685814Y-60076266D02*
X166638195Y-59981028D01*
X166638195Y-59981028D02*
X166590576Y-59933409D01*
X166590576Y-59933409D02*
X166495338Y-59885790D01*
X116902005Y-60457219D02*
X116902005Y-59457219D01*
X116902005Y-59457219D02*
X117282957Y-59457219D01*
X117282957Y-59457219D02*
X117378195Y-59504838D01*
X117378195Y-59504838D02*
X117425814Y-59552457D01*
X117425814Y-59552457D02*
X117473433Y-59647695D01*
X117473433Y-59647695D02*
X117473433Y-59790552D01*
X117473433Y-59790552D02*
X117425814Y-59885790D01*
X117425814Y-59885790D02*
X117378195Y-59933409D01*
X117378195Y-59933409D02*
X117282957Y-59981028D01*
X117282957Y-59981028D02*
X116902005Y-59981028D01*
X117949624Y-60457219D02*
X118140100Y-60457219D01*
X118140100Y-60457219D02*
X118235338Y-60409600D01*
X118235338Y-60409600D02*
X118282957Y-60361980D01*
X118282957Y-60361980D02*
X118378195Y-60219123D01*
X118378195Y-60219123D02*
X118425814Y-60028647D01*
X118425814Y-60028647D02*
X118425814Y-59647695D01*
X118425814Y-59647695D02*
X118378195Y-59552457D01*
X118378195Y-59552457D02*
X118330576Y-59504838D01*
X118330576Y-59504838D02*
X118235338Y-59457219D01*
X118235338Y-59457219D02*
X118044862Y-59457219D01*
X118044862Y-59457219D02*
X117949624Y-59504838D01*
X117949624Y-59504838D02*
X117902005Y-59552457D01*
X117902005Y-59552457D02*
X117854386Y-59647695D01*
X117854386Y-59647695D02*
X117854386Y-59885790D01*
X117854386Y-59885790D02*
X117902005Y-59981028D01*
X117902005Y-59981028D02*
X117949624Y-60028647D01*
X117949624Y-60028647D02*
X118044862Y-60076266D01*
X118044862Y-60076266D02*
X118235338Y-60076266D01*
X118235338Y-60076266D02*
X118330576Y-60028647D01*
X118330576Y-60028647D02*
X118378195Y-59981028D01*
X118378195Y-59981028D02*
X118425814Y-59885790D01*
X124001052Y-93491980D02*
X123953433Y-93539600D01*
X123953433Y-93539600D02*
X123810576Y-93587219D01*
X123810576Y-93587219D02*
X123715338Y-93587219D01*
X123715338Y-93587219D02*
X123572481Y-93539600D01*
X123572481Y-93539600D02*
X123477243Y-93444361D01*
X123477243Y-93444361D02*
X123429624Y-93349123D01*
X123429624Y-93349123D02*
X123382005Y-93158647D01*
X123382005Y-93158647D02*
X123382005Y-93015790D01*
X123382005Y-93015790D02*
X123429624Y-92825314D01*
X123429624Y-92825314D02*
X123477243Y-92730076D01*
X123477243Y-92730076D02*
X123572481Y-92634838D01*
X123572481Y-92634838D02*
X123715338Y-92587219D01*
X123715338Y-92587219D02*
X123810576Y-92587219D01*
X123810576Y-92587219D02*
X123953433Y-92634838D01*
X123953433Y-92634838D02*
X124001052Y-92682457D01*
X124953433Y-93587219D02*
X124382005Y-93587219D01*
X124667719Y-93587219D02*
X124667719Y-92587219D01*
X124667719Y-92587219D02*
X124572481Y-92730076D01*
X124572481Y-92730076D02*
X124477243Y-92825314D01*
X124477243Y-92825314D02*
X124382005Y-92872933D01*
X125572481Y-92587219D02*
X125667719Y-92587219D01*
X125667719Y-92587219D02*
X125762957Y-92634838D01*
X125762957Y-92634838D02*
X125810576Y-92682457D01*
X125810576Y-92682457D02*
X125858195Y-92777695D01*
X125858195Y-92777695D02*
X125905814Y-92968171D01*
X125905814Y-92968171D02*
X125905814Y-93206266D01*
X125905814Y-93206266D02*
X125858195Y-93396742D01*
X125858195Y-93396742D02*
X125810576Y-93491980D01*
X125810576Y-93491980D02*
X125762957Y-93539600D01*
X125762957Y-93539600D02*
X125667719Y-93587219D01*
X125667719Y-93587219D02*
X125572481Y-93587219D01*
X125572481Y-93587219D02*
X125477243Y-93539600D01*
X125477243Y-93539600D02*
X125429624Y-93491980D01*
X125429624Y-93491980D02*
X125382005Y-93396742D01*
X125382005Y-93396742D02*
X125334386Y-93206266D01*
X125334386Y-93206266D02*
X125334386Y-92968171D01*
X125334386Y-92968171D02*
X125382005Y-92777695D01*
X125382005Y-92777695D02*
X125429624Y-92682457D01*
X125429624Y-92682457D02*
X125477243Y-92634838D01*
X125477243Y-92634838D02*
X125572481Y-92587219D01*
X126858195Y-93587219D02*
X126286767Y-93587219D01*
X126572481Y-93587219D02*
X126572481Y-92587219D01*
X126572481Y-92587219D02*
X126477243Y-92730076D01*
X126477243Y-92730076D02*
X126382005Y-92825314D01*
X126382005Y-92825314D02*
X126286767Y-92872933D01*
X152734385Y-111717219D02*
X152734385Y-112431504D01*
X152734385Y-112431504D02*
X152686766Y-112574361D01*
X152686766Y-112574361D02*
X152591528Y-112669600D01*
X152591528Y-112669600D02*
X152448671Y-112717219D01*
X152448671Y-112717219D02*
X152353433Y-112717219D01*
X153734385Y-112717219D02*
X153162957Y-112717219D01*
X153448671Y-112717219D02*
X153448671Y-111717219D01*
X153448671Y-111717219D02*
X153353433Y-111860076D01*
X153353433Y-111860076D02*
X153258195Y-111955314D01*
X153258195Y-111955314D02*
X153162957Y-112002933D01*
X154353433Y-111717219D02*
X154448671Y-111717219D01*
X154448671Y-111717219D02*
X154543909Y-111764838D01*
X154543909Y-111764838D02*
X154591528Y-111812457D01*
X154591528Y-111812457D02*
X154639147Y-111907695D01*
X154639147Y-111907695D02*
X154686766Y-112098171D01*
X154686766Y-112098171D02*
X154686766Y-112336266D01*
X154686766Y-112336266D02*
X154639147Y-112526742D01*
X154639147Y-112526742D02*
X154591528Y-112621980D01*
X154591528Y-112621980D02*
X154543909Y-112669600D01*
X154543909Y-112669600D02*
X154448671Y-112717219D01*
X154448671Y-112717219D02*
X154353433Y-112717219D01*
X154353433Y-112717219D02*
X154258195Y-112669600D01*
X154258195Y-112669600D02*
X154210576Y-112621980D01*
X154210576Y-112621980D02*
X154162957Y-112526742D01*
X154162957Y-112526742D02*
X154115338Y-112336266D01*
X154115338Y-112336266D02*
X154115338Y-112098171D01*
X154115338Y-112098171D02*
X154162957Y-111907695D01*
X154162957Y-111907695D02*
X154210576Y-111812457D01*
X154210576Y-111812457D02*
X154258195Y-111764838D01*
X154258195Y-111764838D02*
X154353433Y-111717219D01*
X155639147Y-112717219D02*
X155067719Y-112717219D01*
X155353433Y-112717219D02*
X155353433Y-111717219D01*
X155353433Y-111717219D02*
X155258195Y-111860076D01*
X155258195Y-111860076D02*
X155162957Y-111955314D01*
X155162957Y-111955314D02*
X155067719Y-112002933D01*
X122224919Y-79168114D02*
X122939204Y-79168114D01*
X122939204Y-79168114D02*
X123082061Y-79215733D01*
X123082061Y-79215733D02*
X123177300Y-79310971D01*
X123177300Y-79310971D02*
X123224919Y-79453828D01*
X123224919Y-79453828D02*
X123224919Y-79549066D01*
X123224919Y-78691923D02*
X122224919Y-78691923D01*
X122224919Y-78691923D02*
X122224919Y-78310971D01*
X122224919Y-78310971D02*
X122272538Y-78215733D01*
X122272538Y-78215733D02*
X122320157Y-78168114D01*
X122320157Y-78168114D02*
X122415395Y-78120495D01*
X122415395Y-78120495D02*
X122558252Y-78120495D01*
X122558252Y-78120495D02*
X122653490Y-78168114D01*
X122653490Y-78168114D02*
X122701109Y-78215733D01*
X122701109Y-78215733D02*
X122748728Y-78310971D01*
X122748728Y-78310971D02*
X122748728Y-78691923D01*
X122320157Y-77739542D02*
X122272538Y-77691923D01*
X122272538Y-77691923D02*
X122224919Y-77596685D01*
X122224919Y-77596685D02*
X122224919Y-77358590D01*
X122224919Y-77358590D02*
X122272538Y-77263352D01*
X122272538Y-77263352D02*
X122320157Y-77215733D01*
X122320157Y-77215733D02*
X122415395Y-77168114D01*
X122415395Y-77168114D02*
X122510633Y-77168114D01*
X122510633Y-77168114D02*
X122653490Y-77215733D01*
X122653490Y-77215733D02*
X123224919Y-77787161D01*
X123224919Y-77787161D02*
X123224919Y-77168114D01*
X122224919Y-76549066D02*
X122224919Y-76453828D01*
X122224919Y-76453828D02*
X122272538Y-76358590D01*
X122272538Y-76358590D02*
X122320157Y-76310971D01*
X122320157Y-76310971D02*
X122415395Y-76263352D01*
X122415395Y-76263352D02*
X122605871Y-76215733D01*
X122605871Y-76215733D02*
X122843966Y-76215733D01*
X122843966Y-76215733D02*
X123034442Y-76263352D01*
X123034442Y-76263352D02*
X123129680Y-76310971D01*
X123129680Y-76310971D02*
X123177300Y-76358590D01*
X123177300Y-76358590D02*
X123224919Y-76453828D01*
X123224919Y-76453828D02*
X123224919Y-76549066D01*
X123224919Y-76549066D02*
X123177300Y-76644304D01*
X123177300Y-76644304D02*
X123129680Y-76691923D01*
X123129680Y-76691923D02*
X123034442Y-76739542D01*
X123034442Y-76739542D02*
X122843966Y-76787161D01*
X122843966Y-76787161D02*
X122605871Y-76787161D01*
X122605871Y-76787161D02*
X122415395Y-76739542D01*
X122415395Y-76739542D02*
X122320157Y-76691923D01*
X122320157Y-76691923D02*
X122272538Y-76644304D01*
X122272538Y-76644304D02*
X122224919Y-76549066D01*
X123224919Y-75263352D02*
X123224919Y-75834780D01*
X123224919Y-75549066D02*
X122224919Y-75549066D01*
X122224919Y-75549066D02*
X122367776Y-75644304D01*
X122367776Y-75644304D02*
X122463014Y-75739542D01*
X122463014Y-75739542D02*
X122510633Y-75834780D01*
X130024919Y-79168114D02*
X130739204Y-79168114D01*
X130739204Y-79168114D02*
X130882061Y-79215733D01*
X130882061Y-79215733D02*
X130977300Y-79310971D01*
X130977300Y-79310971D02*
X131024919Y-79453828D01*
X131024919Y-79453828D02*
X131024919Y-79549066D01*
X131024919Y-78691923D02*
X130024919Y-78691923D01*
X130024919Y-78691923D02*
X130024919Y-78310971D01*
X130024919Y-78310971D02*
X130072538Y-78215733D01*
X130072538Y-78215733D02*
X130120157Y-78168114D01*
X130120157Y-78168114D02*
X130215395Y-78120495D01*
X130215395Y-78120495D02*
X130358252Y-78120495D01*
X130358252Y-78120495D02*
X130453490Y-78168114D01*
X130453490Y-78168114D02*
X130501109Y-78215733D01*
X130501109Y-78215733D02*
X130548728Y-78310971D01*
X130548728Y-78310971D02*
X130548728Y-78691923D01*
X130120157Y-77739542D02*
X130072538Y-77691923D01*
X130072538Y-77691923D02*
X130024919Y-77596685D01*
X130024919Y-77596685D02*
X130024919Y-77358590D01*
X130024919Y-77358590D02*
X130072538Y-77263352D01*
X130072538Y-77263352D02*
X130120157Y-77215733D01*
X130120157Y-77215733D02*
X130215395Y-77168114D01*
X130215395Y-77168114D02*
X130310633Y-77168114D01*
X130310633Y-77168114D02*
X130453490Y-77215733D01*
X130453490Y-77215733D02*
X131024919Y-77787161D01*
X131024919Y-77787161D02*
X131024919Y-77168114D01*
X130024919Y-76549066D02*
X130024919Y-76453828D01*
X130024919Y-76453828D02*
X130072538Y-76358590D01*
X130072538Y-76358590D02*
X130120157Y-76310971D01*
X130120157Y-76310971D02*
X130215395Y-76263352D01*
X130215395Y-76263352D02*
X130405871Y-76215733D01*
X130405871Y-76215733D02*
X130643966Y-76215733D01*
X130643966Y-76215733D02*
X130834442Y-76263352D01*
X130834442Y-76263352D02*
X130929680Y-76310971D01*
X130929680Y-76310971D02*
X130977300Y-76358590D01*
X130977300Y-76358590D02*
X131024919Y-76453828D01*
X131024919Y-76453828D02*
X131024919Y-76549066D01*
X131024919Y-76549066D02*
X130977300Y-76644304D01*
X130977300Y-76644304D02*
X130929680Y-76691923D01*
X130929680Y-76691923D02*
X130834442Y-76739542D01*
X130834442Y-76739542D02*
X130643966Y-76787161D01*
X130643966Y-76787161D02*
X130405871Y-76787161D01*
X130405871Y-76787161D02*
X130215395Y-76739542D01*
X130215395Y-76739542D02*
X130120157Y-76691923D01*
X130120157Y-76691923D02*
X130072538Y-76644304D01*
X130072538Y-76644304D02*
X130024919Y-76549066D01*
X130120157Y-75834780D02*
X130072538Y-75787161D01*
X130072538Y-75787161D02*
X130024919Y-75691923D01*
X130024919Y-75691923D02*
X130024919Y-75453828D01*
X130024919Y-75453828D02*
X130072538Y-75358590D01*
X130072538Y-75358590D02*
X130120157Y-75310971D01*
X130120157Y-75310971D02*
X130215395Y-75263352D01*
X130215395Y-75263352D02*
X130310633Y-75263352D01*
X130310633Y-75263352D02*
X130453490Y-75310971D01*
X130453490Y-75310971D02*
X131024919Y-75882399D01*
X131024919Y-75882399D02*
X131024919Y-75263352D01*
X121824919Y-121118114D02*
X122539204Y-121118114D01*
X122539204Y-121118114D02*
X122682061Y-121165733D01*
X122682061Y-121165733D02*
X122777300Y-121260971D01*
X122777300Y-121260971D02*
X122824919Y-121403828D01*
X122824919Y-121403828D02*
X122824919Y-121499066D01*
X122824919Y-120641923D02*
X121824919Y-120641923D01*
X121824919Y-120641923D02*
X121824919Y-120260971D01*
X121824919Y-120260971D02*
X121872538Y-120165733D01*
X121872538Y-120165733D02*
X121920157Y-120118114D01*
X121920157Y-120118114D02*
X122015395Y-120070495D01*
X122015395Y-120070495D02*
X122158252Y-120070495D01*
X122158252Y-120070495D02*
X122253490Y-120118114D01*
X122253490Y-120118114D02*
X122301109Y-120165733D01*
X122301109Y-120165733D02*
X122348728Y-120260971D01*
X122348728Y-120260971D02*
X122348728Y-120641923D01*
X121920157Y-119689542D02*
X121872538Y-119641923D01*
X121872538Y-119641923D02*
X121824919Y-119546685D01*
X121824919Y-119546685D02*
X121824919Y-119308590D01*
X121824919Y-119308590D02*
X121872538Y-119213352D01*
X121872538Y-119213352D02*
X121920157Y-119165733D01*
X121920157Y-119165733D02*
X122015395Y-119118114D01*
X122015395Y-119118114D02*
X122110633Y-119118114D01*
X122110633Y-119118114D02*
X122253490Y-119165733D01*
X122253490Y-119165733D02*
X122824919Y-119737161D01*
X122824919Y-119737161D02*
X122824919Y-119118114D01*
X121824919Y-118499066D02*
X121824919Y-118403828D01*
X121824919Y-118403828D02*
X121872538Y-118308590D01*
X121872538Y-118308590D02*
X121920157Y-118260971D01*
X121920157Y-118260971D02*
X122015395Y-118213352D01*
X122015395Y-118213352D02*
X122205871Y-118165733D01*
X122205871Y-118165733D02*
X122443966Y-118165733D01*
X122443966Y-118165733D02*
X122634442Y-118213352D01*
X122634442Y-118213352D02*
X122729680Y-118260971D01*
X122729680Y-118260971D02*
X122777300Y-118308590D01*
X122777300Y-118308590D02*
X122824919Y-118403828D01*
X122824919Y-118403828D02*
X122824919Y-118499066D01*
X122824919Y-118499066D02*
X122777300Y-118594304D01*
X122777300Y-118594304D02*
X122729680Y-118641923D01*
X122729680Y-118641923D02*
X122634442Y-118689542D01*
X122634442Y-118689542D02*
X122443966Y-118737161D01*
X122443966Y-118737161D02*
X122205871Y-118737161D01*
X122205871Y-118737161D02*
X122015395Y-118689542D01*
X122015395Y-118689542D02*
X121920157Y-118641923D01*
X121920157Y-118641923D02*
X121872538Y-118594304D01*
X121872538Y-118594304D02*
X121824919Y-118499066D01*
X122158252Y-117308590D02*
X122824919Y-117308590D01*
X121777300Y-117546685D02*
X122491585Y-117784780D01*
X122491585Y-117784780D02*
X122491585Y-117165733D01*
X121824919Y-113668114D02*
X122539204Y-113668114D01*
X122539204Y-113668114D02*
X122682061Y-113715733D01*
X122682061Y-113715733D02*
X122777300Y-113810971D01*
X122777300Y-113810971D02*
X122824919Y-113953828D01*
X122824919Y-113953828D02*
X122824919Y-114049066D01*
X122824919Y-113191923D02*
X121824919Y-113191923D01*
X121824919Y-113191923D02*
X121824919Y-112810971D01*
X121824919Y-112810971D02*
X121872538Y-112715733D01*
X121872538Y-112715733D02*
X121920157Y-112668114D01*
X121920157Y-112668114D02*
X122015395Y-112620495D01*
X122015395Y-112620495D02*
X122158252Y-112620495D01*
X122158252Y-112620495D02*
X122253490Y-112668114D01*
X122253490Y-112668114D02*
X122301109Y-112715733D01*
X122301109Y-112715733D02*
X122348728Y-112810971D01*
X122348728Y-112810971D02*
X122348728Y-113191923D01*
X121920157Y-112239542D02*
X121872538Y-112191923D01*
X121872538Y-112191923D02*
X121824919Y-112096685D01*
X121824919Y-112096685D02*
X121824919Y-111858590D01*
X121824919Y-111858590D02*
X121872538Y-111763352D01*
X121872538Y-111763352D02*
X121920157Y-111715733D01*
X121920157Y-111715733D02*
X122015395Y-111668114D01*
X122015395Y-111668114D02*
X122110633Y-111668114D01*
X122110633Y-111668114D02*
X122253490Y-111715733D01*
X122253490Y-111715733D02*
X122824919Y-112287161D01*
X122824919Y-112287161D02*
X122824919Y-111668114D01*
X121824919Y-111049066D02*
X121824919Y-110953828D01*
X121824919Y-110953828D02*
X121872538Y-110858590D01*
X121872538Y-110858590D02*
X121920157Y-110810971D01*
X121920157Y-110810971D02*
X122015395Y-110763352D01*
X122015395Y-110763352D02*
X122205871Y-110715733D01*
X122205871Y-110715733D02*
X122443966Y-110715733D01*
X122443966Y-110715733D02*
X122634442Y-110763352D01*
X122634442Y-110763352D02*
X122729680Y-110810971D01*
X122729680Y-110810971D02*
X122777300Y-110858590D01*
X122777300Y-110858590D02*
X122824919Y-110953828D01*
X122824919Y-110953828D02*
X122824919Y-111049066D01*
X122824919Y-111049066D02*
X122777300Y-111144304D01*
X122777300Y-111144304D02*
X122729680Y-111191923D01*
X122729680Y-111191923D02*
X122634442Y-111239542D01*
X122634442Y-111239542D02*
X122443966Y-111287161D01*
X122443966Y-111287161D02*
X122205871Y-111287161D01*
X122205871Y-111287161D02*
X122015395Y-111239542D01*
X122015395Y-111239542D02*
X121920157Y-111191923D01*
X121920157Y-111191923D02*
X121872538Y-111144304D01*
X121872538Y-111144304D02*
X121824919Y-111049066D01*
X121824919Y-109810971D02*
X121824919Y-110287161D01*
X121824919Y-110287161D02*
X122301109Y-110334780D01*
X122301109Y-110334780D02*
X122253490Y-110287161D01*
X122253490Y-110287161D02*
X122205871Y-110191923D01*
X122205871Y-110191923D02*
X122205871Y-109953828D01*
X122205871Y-109953828D02*
X122253490Y-109858590D01*
X122253490Y-109858590D02*
X122301109Y-109810971D01*
X122301109Y-109810971D02*
X122396347Y-109763352D01*
X122396347Y-109763352D02*
X122634442Y-109763352D01*
X122634442Y-109763352D02*
X122729680Y-109810971D01*
X122729680Y-109810971D02*
X122777300Y-109858590D01*
X122777300Y-109858590D02*
X122824919Y-109953828D01*
X122824919Y-109953828D02*
X122824919Y-110191923D01*
X122824919Y-110191923D02*
X122777300Y-110287161D01*
X122777300Y-110287161D02*
X122729680Y-110334780D01*
X124334385Y-95837219D02*
X124334385Y-96551504D01*
X124334385Y-96551504D02*
X124286766Y-96694361D01*
X124286766Y-96694361D02*
X124191528Y-96789600D01*
X124191528Y-96789600D02*
X124048671Y-96837219D01*
X124048671Y-96837219D02*
X123953433Y-96837219D01*
X124810576Y-96837219D02*
X124810576Y-95837219D01*
X124810576Y-95837219D02*
X125191528Y-95837219D01*
X125191528Y-95837219D02*
X125286766Y-95884838D01*
X125286766Y-95884838D02*
X125334385Y-95932457D01*
X125334385Y-95932457D02*
X125382004Y-96027695D01*
X125382004Y-96027695D02*
X125382004Y-96170552D01*
X125382004Y-96170552D02*
X125334385Y-96265790D01*
X125334385Y-96265790D02*
X125286766Y-96313409D01*
X125286766Y-96313409D02*
X125191528Y-96361028D01*
X125191528Y-96361028D02*
X124810576Y-96361028D01*
X126334385Y-96837219D02*
X125762957Y-96837219D01*
X126048671Y-96837219D02*
X126048671Y-95837219D01*
X126048671Y-95837219D02*
X125953433Y-95980076D01*
X125953433Y-95980076D02*
X125858195Y-96075314D01*
X125858195Y-96075314D02*
X125762957Y-96122933D01*
X126953433Y-95837219D02*
X127048671Y-95837219D01*
X127048671Y-95837219D02*
X127143909Y-95884838D01*
X127143909Y-95884838D02*
X127191528Y-95932457D01*
X127191528Y-95932457D02*
X127239147Y-96027695D01*
X127239147Y-96027695D02*
X127286766Y-96218171D01*
X127286766Y-96218171D02*
X127286766Y-96456266D01*
X127286766Y-96456266D02*
X127239147Y-96646742D01*
X127239147Y-96646742D02*
X127191528Y-96741980D01*
X127191528Y-96741980D02*
X127143909Y-96789600D01*
X127143909Y-96789600D02*
X127048671Y-96837219D01*
X127048671Y-96837219D02*
X126953433Y-96837219D01*
X126953433Y-96837219D02*
X126858195Y-96789600D01*
X126858195Y-96789600D02*
X126810576Y-96741980D01*
X126810576Y-96741980D02*
X126762957Y-96646742D01*
X126762957Y-96646742D02*
X126715338Y-96456266D01*
X126715338Y-96456266D02*
X126715338Y-96218171D01*
X126715338Y-96218171D02*
X126762957Y-96027695D01*
X126762957Y-96027695D02*
X126810576Y-95932457D01*
X126810576Y-95932457D02*
X126858195Y-95884838D01*
X126858195Y-95884838D02*
X126953433Y-95837219D01*
X128239147Y-96837219D02*
X127667719Y-96837219D01*
X127953433Y-96837219D02*
X127953433Y-95837219D01*
X127953433Y-95837219D02*
X127858195Y-95980076D01*
X127858195Y-95980076D02*
X127762957Y-96075314D01*
X127762957Y-96075314D02*
X127667719Y-96122933D01*
X134584385Y-95837219D02*
X134584385Y-96551504D01*
X134584385Y-96551504D02*
X134536766Y-96694361D01*
X134536766Y-96694361D02*
X134441528Y-96789600D01*
X134441528Y-96789600D02*
X134298671Y-96837219D01*
X134298671Y-96837219D02*
X134203433Y-96837219D01*
X135060576Y-96837219D02*
X135060576Y-95837219D01*
X135060576Y-95837219D02*
X135441528Y-95837219D01*
X135441528Y-95837219D02*
X135536766Y-95884838D01*
X135536766Y-95884838D02*
X135584385Y-95932457D01*
X135584385Y-95932457D02*
X135632004Y-96027695D01*
X135632004Y-96027695D02*
X135632004Y-96170552D01*
X135632004Y-96170552D02*
X135584385Y-96265790D01*
X135584385Y-96265790D02*
X135536766Y-96313409D01*
X135536766Y-96313409D02*
X135441528Y-96361028D01*
X135441528Y-96361028D02*
X135060576Y-96361028D01*
X136584385Y-96837219D02*
X136012957Y-96837219D01*
X136298671Y-96837219D02*
X136298671Y-95837219D01*
X136298671Y-95837219D02*
X136203433Y-95980076D01*
X136203433Y-95980076D02*
X136108195Y-96075314D01*
X136108195Y-96075314D02*
X136012957Y-96122933D01*
X137203433Y-95837219D02*
X137298671Y-95837219D01*
X137298671Y-95837219D02*
X137393909Y-95884838D01*
X137393909Y-95884838D02*
X137441528Y-95932457D01*
X137441528Y-95932457D02*
X137489147Y-96027695D01*
X137489147Y-96027695D02*
X137536766Y-96218171D01*
X137536766Y-96218171D02*
X137536766Y-96456266D01*
X137536766Y-96456266D02*
X137489147Y-96646742D01*
X137489147Y-96646742D02*
X137441528Y-96741980D01*
X137441528Y-96741980D02*
X137393909Y-96789600D01*
X137393909Y-96789600D02*
X137298671Y-96837219D01*
X137298671Y-96837219D02*
X137203433Y-96837219D01*
X137203433Y-96837219D02*
X137108195Y-96789600D01*
X137108195Y-96789600D02*
X137060576Y-96741980D01*
X137060576Y-96741980D02*
X137012957Y-96646742D01*
X137012957Y-96646742D02*
X136965338Y-96456266D01*
X136965338Y-96456266D02*
X136965338Y-96218171D01*
X136965338Y-96218171D02*
X137012957Y-96027695D01*
X137012957Y-96027695D02*
X137060576Y-95932457D01*
X137060576Y-95932457D02*
X137108195Y-95884838D01*
X137108195Y-95884838D02*
X137203433Y-95837219D01*
X137870100Y-95837219D02*
X138489147Y-95837219D01*
X138489147Y-95837219D02*
X138155814Y-96218171D01*
X138155814Y-96218171D02*
X138298671Y-96218171D01*
X138298671Y-96218171D02*
X138393909Y-96265790D01*
X138393909Y-96265790D02*
X138441528Y-96313409D01*
X138441528Y-96313409D02*
X138489147Y-96408647D01*
X138489147Y-96408647D02*
X138489147Y-96646742D01*
X138489147Y-96646742D02*
X138441528Y-96741980D01*
X138441528Y-96741980D02*
X138393909Y-96789600D01*
X138393909Y-96789600D02*
X138298671Y-96837219D01*
X138298671Y-96837219D02*
X138012957Y-96837219D01*
X138012957Y-96837219D02*
X137917719Y-96789600D01*
X137917719Y-96789600D02*
X137870100Y-96741980D01*
X157251052Y-75887219D02*
X156917719Y-75411028D01*
X156679624Y-75887219D02*
X156679624Y-74887219D01*
X156679624Y-74887219D02*
X157060576Y-74887219D01*
X157060576Y-74887219D02*
X157155814Y-74934838D01*
X157155814Y-74934838D02*
X157203433Y-74982457D01*
X157203433Y-74982457D02*
X157251052Y-75077695D01*
X157251052Y-75077695D02*
X157251052Y-75220552D01*
X157251052Y-75220552D02*
X157203433Y-75315790D01*
X157203433Y-75315790D02*
X157155814Y-75363409D01*
X157155814Y-75363409D02*
X157060576Y-75411028D01*
X157060576Y-75411028D02*
X156679624Y-75411028D01*
X158203433Y-75887219D02*
X157632005Y-75887219D01*
X157917719Y-75887219D02*
X157917719Y-74887219D01*
X157917719Y-74887219D02*
X157822481Y-75030076D01*
X157822481Y-75030076D02*
X157727243Y-75125314D01*
X157727243Y-75125314D02*
X157632005Y-75172933D01*
X158822481Y-74887219D02*
X158917719Y-74887219D01*
X158917719Y-74887219D02*
X159012957Y-74934838D01*
X159012957Y-74934838D02*
X159060576Y-74982457D01*
X159060576Y-74982457D02*
X159108195Y-75077695D01*
X159108195Y-75077695D02*
X159155814Y-75268171D01*
X159155814Y-75268171D02*
X159155814Y-75506266D01*
X159155814Y-75506266D02*
X159108195Y-75696742D01*
X159108195Y-75696742D02*
X159060576Y-75791980D01*
X159060576Y-75791980D02*
X159012957Y-75839600D01*
X159012957Y-75839600D02*
X158917719Y-75887219D01*
X158917719Y-75887219D02*
X158822481Y-75887219D01*
X158822481Y-75887219D02*
X158727243Y-75839600D01*
X158727243Y-75839600D02*
X158679624Y-75791980D01*
X158679624Y-75791980D02*
X158632005Y-75696742D01*
X158632005Y-75696742D02*
X158584386Y-75506266D01*
X158584386Y-75506266D02*
X158584386Y-75268171D01*
X158584386Y-75268171D02*
X158632005Y-75077695D01*
X158632005Y-75077695D02*
X158679624Y-74982457D01*
X158679624Y-74982457D02*
X158727243Y-74934838D01*
X158727243Y-74934838D02*
X158822481Y-74887219D01*
X160108195Y-75887219D02*
X159536767Y-75887219D01*
X159822481Y-75887219D02*
X159822481Y-74887219D01*
X159822481Y-74887219D02*
X159727243Y-75030076D01*
X159727243Y-75030076D02*
X159632005Y-75125314D01*
X159632005Y-75125314D02*
X159536767Y-75172933D01*
X157251052Y-77587219D02*
X156917719Y-77111028D01*
X156679624Y-77587219D02*
X156679624Y-76587219D01*
X156679624Y-76587219D02*
X157060576Y-76587219D01*
X157060576Y-76587219D02*
X157155814Y-76634838D01*
X157155814Y-76634838D02*
X157203433Y-76682457D01*
X157203433Y-76682457D02*
X157251052Y-76777695D01*
X157251052Y-76777695D02*
X157251052Y-76920552D01*
X157251052Y-76920552D02*
X157203433Y-77015790D01*
X157203433Y-77015790D02*
X157155814Y-77063409D01*
X157155814Y-77063409D02*
X157060576Y-77111028D01*
X157060576Y-77111028D02*
X156679624Y-77111028D01*
X158203433Y-77587219D02*
X157632005Y-77587219D01*
X157917719Y-77587219D02*
X157917719Y-76587219D01*
X157917719Y-76587219D02*
X157822481Y-76730076D01*
X157822481Y-76730076D02*
X157727243Y-76825314D01*
X157727243Y-76825314D02*
X157632005Y-76872933D01*
X158822481Y-76587219D02*
X158917719Y-76587219D01*
X158917719Y-76587219D02*
X159012957Y-76634838D01*
X159012957Y-76634838D02*
X159060576Y-76682457D01*
X159060576Y-76682457D02*
X159108195Y-76777695D01*
X159108195Y-76777695D02*
X159155814Y-76968171D01*
X159155814Y-76968171D02*
X159155814Y-77206266D01*
X159155814Y-77206266D02*
X159108195Y-77396742D01*
X159108195Y-77396742D02*
X159060576Y-77491980D01*
X159060576Y-77491980D02*
X159012957Y-77539600D01*
X159012957Y-77539600D02*
X158917719Y-77587219D01*
X158917719Y-77587219D02*
X158822481Y-77587219D01*
X158822481Y-77587219D02*
X158727243Y-77539600D01*
X158727243Y-77539600D02*
X158679624Y-77491980D01*
X158679624Y-77491980D02*
X158632005Y-77396742D01*
X158632005Y-77396742D02*
X158584386Y-77206266D01*
X158584386Y-77206266D02*
X158584386Y-76968171D01*
X158584386Y-76968171D02*
X158632005Y-76777695D01*
X158632005Y-76777695D02*
X158679624Y-76682457D01*
X158679624Y-76682457D02*
X158727243Y-76634838D01*
X158727243Y-76634838D02*
X158822481Y-76587219D01*
X159536767Y-76682457D02*
X159584386Y-76634838D01*
X159584386Y-76634838D02*
X159679624Y-76587219D01*
X159679624Y-76587219D02*
X159917719Y-76587219D01*
X159917719Y-76587219D02*
X160012957Y-76634838D01*
X160012957Y-76634838D02*
X160060576Y-76682457D01*
X160060576Y-76682457D02*
X160108195Y-76777695D01*
X160108195Y-76777695D02*
X160108195Y-76872933D01*
X160108195Y-76872933D02*
X160060576Y-77015790D01*
X160060576Y-77015790D02*
X159489148Y-77587219D01*
X159489148Y-77587219D02*
X160108195Y-77587219D01*
X157251052Y-81087219D02*
X156917719Y-80611028D01*
X156679624Y-81087219D02*
X156679624Y-80087219D01*
X156679624Y-80087219D02*
X157060576Y-80087219D01*
X157060576Y-80087219D02*
X157155814Y-80134838D01*
X157155814Y-80134838D02*
X157203433Y-80182457D01*
X157203433Y-80182457D02*
X157251052Y-80277695D01*
X157251052Y-80277695D02*
X157251052Y-80420552D01*
X157251052Y-80420552D02*
X157203433Y-80515790D01*
X157203433Y-80515790D02*
X157155814Y-80563409D01*
X157155814Y-80563409D02*
X157060576Y-80611028D01*
X157060576Y-80611028D02*
X156679624Y-80611028D01*
X158203433Y-81087219D02*
X157632005Y-81087219D01*
X157917719Y-81087219D02*
X157917719Y-80087219D01*
X157917719Y-80087219D02*
X157822481Y-80230076D01*
X157822481Y-80230076D02*
X157727243Y-80325314D01*
X157727243Y-80325314D02*
X157632005Y-80372933D01*
X158822481Y-80087219D02*
X158917719Y-80087219D01*
X158917719Y-80087219D02*
X159012957Y-80134838D01*
X159012957Y-80134838D02*
X159060576Y-80182457D01*
X159060576Y-80182457D02*
X159108195Y-80277695D01*
X159108195Y-80277695D02*
X159155814Y-80468171D01*
X159155814Y-80468171D02*
X159155814Y-80706266D01*
X159155814Y-80706266D02*
X159108195Y-80896742D01*
X159108195Y-80896742D02*
X159060576Y-80991980D01*
X159060576Y-80991980D02*
X159012957Y-81039600D01*
X159012957Y-81039600D02*
X158917719Y-81087219D01*
X158917719Y-81087219D02*
X158822481Y-81087219D01*
X158822481Y-81087219D02*
X158727243Y-81039600D01*
X158727243Y-81039600D02*
X158679624Y-80991980D01*
X158679624Y-80991980D02*
X158632005Y-80896742D01*
X158632005Y-80896742D02*
X158584386Y-80706266D01*
X158584386Y-80706266D02*
X158584386Y-80468171D01*
X158584386Y-80468171D02*
X158632005Y-80277695D01*
X158632005Y-80277695D02*
X158679624Y-80182457D01*
X158679624Y-80182457D02*
X158727243Y-80134838D01*
X158727243Y-80134838D02*
X158822481Y-80087219D01*
X160012957Y-80420552D02*
X160012957Y-81087219D01*
X159774862Y-80039600D02*
X159536767Y-80753885D01*
X159536767Y-80753885D02*
X160155814Y-80753885D01*
X153377300Y-71468113D02*
X153424919Y-71325256D01*
X153424919Y-71325256D02*
X153424919Y-71087161D01*
X153424919Y-71087161D02*
X153377300Y-70991923D01*
X153377300Y-70991923D02*
X153329680Y-70944304D01*
X153329680Y-70944304D02*
X153234442Y-70896685D01*
X153234442Y-70896685D02*
X153139204Y-70896685D01*
X153139204Y-70896685D02*
X153043966Y-70944304D01*
X153043966Y-70944304D02*
X152996347Y-70991923D01*
X152996347Y-70991923D02*
X152948728Y-71087161D01*
X152948728Y-71087161D02*
X152901109Y-71277637D01*
X152901109Y-71277637D02*
X152853490Y-71372875D01*
X152853490Y-71372875D02*
X152805871Y-71420494D01*
X152805871Y-71420494D02*
X152710633Y-71468113D01*
X152710633Y-71468113D02*
X152615395Y-71468113D01*
X152615395Y-71468113D02*
X152520157Y-71420494D01*
X152520157Y-71420494D02*
X152472538Y-71372875D01*
X152472538Y-71372875D02*
X152424919Y-71277637D01*
X152424919Y-71277637D02*
X152424919Y-71039542D01*
X152424919Y-71039542D02*
X152472538Y-70896685D01*
X152424919Y-70563351D02*
X153424919Y-70325256D01*
X153424919Y-70325256D02*
X152710633Y-70134780D01*
X152710633Y-70134780D02*
X153424919Y-69944304D01*
X153424919Y-69944304D02*
X152424919Y-69706209D01*
X153424919Y-68801447D02*
X153424919Y-69372875D01*
X153424919Y-69087161D02*
X152424919Y-69087161D01*
X152424919Y-69087161D02*
X152567776Y-69182399D01*
X152567776Y-69182399D02*
X152663014Y-69277637D01*
X152663014Y-69277637D02*
X152710633Y-69372875D01*
X152424919Y-68182399D02*
X152424919Y-68087161D01*
X152424919Y-68087161D02*
X152472538Y-67991923D01*
X152472538Y-67991923D02*
X152520157Y-67944304D01*
X152520157Y-67944304D02*
X152615395Y-67896685D01*
X152615395Y-67896685D02*
X152805871Y-67849066D01*
X152805871Y-67849066D02*
X153043966Y-67849066D01*
X153043966Y-67849066D02*
X153234442Y-67896685D01*
X153234442Y-67896685D02*
X153329680Y-67944304D01*
X153329680Y-67944304D02*
X153377300Y-67991923D01*
X153377300Y-67991923D02*
X153424919Y-68087161D01*
X153424919Y-68087161D02*
X153424919Y-68182399D01*
X153424919Y-68182399D02*
X153377300Y-68277637D01*
X153377300Y-68277637D02*
X153329680Y-68325256D01*
X153329680Y-68325256D02*
X153234442Y-68372875D01*
X153234442Y-68372875D02*
X153043966Y-68420494D01*
X153043966Y-68420494D02*
X152805871Y-68420494D01*
X152805871Y-68420494D02*
X152615395Y-68372875D01*
X152615395Y-68372875D02*
X152520157Y-68325256D01*
X152520157Y-68325256D02*
X152472538Y-68277637D01*
X152472538Y-68277637D02*
X152424919Y-68182399D01*
X153424919Y-66896685D02*
X153424919Y-67468113D01*
X153424919Y-67182399D02*
X152424919Y-67182399D01*
X152424919Y-67182399D02*
X152567776Y-67277637D01*
X152567776Y-67277637D02*
X152663014Y-67372875D01*
X152663014Y-67372875D02*
X152710633Y-67468113D01*
X134877300Y-71418113D02*
X134924919Y-71275256D01*
X134924919Y-71275256D02*
X134924919Y-71037161D01*
X134924919Y-71037161D02*
X134877300Y-70941923D01*
X134877300Y-70941923D02*
X134829680Y-70894304D01*
X134829680Y-70894304D02*
X134734442Y-70846685D01*
X134734442Y-70846685D02*
X134639204Y-70846685D01*
X134639204Y-70846685D02*
X134543966Y-70894304D01*
X134543966Y-70894304D02*
X134496347Y-70941923D01*
X134496347Y-70941923D02*
X134448728Y-71037161D01*
X134448728Y-71037161D02*
X134401109Y-71227637D01*
X134401109Y-71227637D02*
X134353490Y-71322875D01*
X134353490Y-71322875D02*
X134305871Y-71370494D01*
X134305871Y-71370494D02*
X134210633Y-71418113D01*
X134210633Y-71418113D02*
X134115395Y-71418113D01*
X134115395Y-71418113D02*
X134020157Y-71370494D01*
X134020157Y-71370494D02*
X133972538Y-71322875D01*
X133972538Y-71322875D02*
X133924919Y-71227637D01*
X133924919Y-71227637D02*
X133924919Y-70989542D01*
X133924919Y-70989542D02*
X133972538Y-70846685D01*
X133924919Y-70513351D02*
X134924919Y-70275256D01*
X134924919Y-70275256D02*
X134210633Y-70084780D01*
X134210633Y-70084780D02*
X134924919Y-69894304D01*
X134924919Y-69894304D02*
X133924919Y-69656209D01*
X134924919Y-68751447D02*
X134924919Y-69322875D01*
X134924919Y-69037161D02*
X133924919Y-69037161D01*
X133924919Y-69037161D02*
X134067776Y-69132399D01*
X134067776Y-69132399D02*
X134163014Y-69227637D01*
X134163014Y-69227637D02*
X134210633Y-69322875D01*
X133924919Y-68132399D02*
X133924919Y-68037161D01*
X133924919Y-68037161D02*
X133972538Y-67941923D01*
X133972538Y-67941923D02*
X134020157Y-67894304D01*
X134020157Y-67894304D02*
X134115395Y-67846685D01*
X134115395Y-67846685D02*
X134305871Y-67799066D01*
X134305871Y-67799066D02*
X134543966Y-67799066D01*
X134543966Y-67799066D02*
X134734442Y-67846685D01*
X134734442Y-67846685D02*
X134829680Y-67894304D01*
X134829680Y-67894304D02*
X134877300Y-67941923D01*
X134877300Y-67941923D02*
X134924919Y-68037161D01*
X134924919Y-68037161D02*
X134924919Y-68132399D01*
X134924919Y-68132399D02*
X134877300Y-68227637D01*
X134877300Y-68227637D02*
X134829680Y-68275256D01*
X134829680Y-68275256D02*
X134734442Y-68322875D01*
X134734442Y-68322875D02*
X134543966Y-68370494D01*
X134543966Y-68370494D02*
X134305871Y-68370494D01*
X134305871Y-68370494D02*
X134115395Y-68322875D01*
X134115395Y-68322875D02*
X134020157Y-68275256D01*
X134020157Y-68275256D02*
X133972538Y-68227637D01*
X133972538Y-68227637D02*
X133924919Y-68132399D01*
X134020157Y-67418113D02*
X133972538Y-67370494D01*
X133972538Y-67370494D02*
X133924919Y-67275256D01*
X133924919Y-67275256D02*
X133924919Y-67037161D01*
X133924919Y-67037161D02*
X133972538Y-66941923D01*
X133972538Y-66941923D02*
X134020157Y-66894304D01*
X134020157Y-66894304D02*
X134115395Y-66846685D01*
X134115395Y-66846685D02*
X134210633Y-66846685D01*
X134210633Y-66846685D02*
X134353490Y-66894304D01*
X134353490Y-66894304D02*
X134924919Y-67465732D01*
X134924919Y-67465732D02*
X134924919Y-66846685D01*
X126655814Y-83337219D02*
X126655814Y-84146742D01*
X126655814Y-84146742D02*
X126703433Y-84241980D01*
X126703433Y-84241980D02*
X126751052Y-84289600D01*
X126751052Y-84289600D02*
X126846290Y-84337219D01*
X126846290Y-84337219D02*
X127036766Y-84337219D01*
X127036766Y-84337219D02*
X127132004Y-84289600D01*
X127132004Y-84289600D02*
X127179623Y-84241980D01*
X127179623Y-84241980D02*
X127227242Y-84146742D01*
X127227242Y-84146742D02*
X127227242Y-83337219D01*
X128227242Y-84337219D02*
X127655814Y-84337219D01*
X127941528Y-84337219D02*
X127941528Y-83337219D01*
X127941528Y-83337219D02*
X127846290Y-83480076D01*
X127846290Y-83480076D02*
X127751052Y-83575314D01*
X127751052Y-83575314D02*
X127655814Y-83622933D01*
X128846290Y-83337219D02*
X128941528Y-83337219D01*
X128941528Y-83337219D02*
X129036766Y-83384838D01*
X129036766Y-83384838D02*
X129084385Y-83432457D01*
X129084385Y-83432457D02*
X129132004Y-83527695D01*
X129132004Y-83527695D02*
X129179623Y-83718171D01*
X129179623Y-83718171D02*
X129179623Y-83956266D01*
X129179623Y-83956266D02*
X129132004Y-84146742D01*
X129132004Y-84146742D02*
X129084385Y-84241980D01*
X129084385Y-84241980D02*
X129036766Y-84289600D01*
X129036766Y-84289600D02*
X128941528Y-84337219D01*
X128941528Y-84337219D02*
X128846290Y-84337219D01*
X128846290Y-84337219D02*
X128751052Y-84289600D01*
X128751052Y-84289600D02*
X128703433Y-84241980D01*
X128703433Y-84241980D02*
X128655814Y-84146742D01*
X128655814Y-84146742D02*
X128608195Y-83956266D01*
X128608195Y-83956266D02*
X128608195Y-83718171D01*
X128608195Y-83718171D02*
X128655814Y-83527695D01*
X128655814Y-83527695D02*
X128703433Y-83432457D01*
X128703433Y-83432457D02*
X128751052Y-83384838D01*
X128751052Y-83384838D02*
X128846290Y-83337219D01*
X129512957Y-83337219D02*
X130132004Y-83337219D01*
X130132004Y-83337219D02*
X129798671Y-83718171D01*
X129798671Y-83718171D02*
X129941528Y-83718171D01*
X129941528Y-83718171D02*
X130036766Y-83765790D01*
X130036766Y-83765790D02*
X130084385Y-83813409D01*
X130084385Y-83813409D02*
X130132004Y-83908647D01*
X130132004Y-83908647D02*
X130132004Y-84146742D01*
X130132004Y-84146742D02*
X130084385Y-84241980D01*
X130084385Y-84241980D02*
X130036766Y-84289600D01*
X130036766Y-84289600D02*
X129941528Y-84337219D01*
X129941528Y-84337219D02*
X129655814Y-84337219D01*
X129655814Y-84337219D02*
X129560576Y-84289600D01*
X129560576Y-84289600D02*
X129512957Y-84241980D01*
X147179624Y-75837219D02*
X147179624Y-74837219D01*
X147179624Y-74837219D02*
X147417719Y-74837219D01*
X147417719Y-74837219D02*
X147560576Y-74884838D01*
X147560576Y-74884838D02*
X147655814Y-74980076D01*
X147655814Y-74980076D02*
X147703433Y-75075314D01*
X147703433Y-75075314D02*
X147751052Y-75265790D01*
X147751052Y-75265790D02*
X147751052Y-75408647D01*
X147751052Y-75408647D02*
X147703433Y-75599123D01*
X147703433Y-75599123D02*
X147655814Y-75694361D01*
X147655814Y-75694361D02*
X147560576Y-75789600D01*
X147560576Y-75789600D02*
X147417719Y-75837219D01*
X147417719Y-75837219D02*
X147179624Y-75837219D01*
X148703433Y-75837219D02*
X148132005Y-75837219D01*
X148417719Y-75837219D02*
X148417719Y-74837219D01*
X148417719Y-74837219D02*
X148322481Y-74980076D01*
X148322481Y-74980076D02*
X148227243Y-75075314D01*
X148227243Y-75075314D02*
X148132005Y-75122933D01*
X149322481Y-74837219D02*
X149417719Y-74837219D01*
X149417719Y-74837219D02*
X149512957Y-74884838D01*
X149512957Y-74884838D02*
X149560576Y-74932457D01*
X149560576Y-74932457D02*
X149608195Y-75027695D01*
X149608195Y-75027695D02*
X149655814Y-75218171D01*
X149655814Y-75218171D02*
X149655814Y-75456266D01*
X149655814Y-75456266D02*
X149608195Y-75646742D01*
X149608195Y-75646742D02*
X149560576Y-75741980D01*
X149560576Y-75741980D02*
X149512957Y-75789600D01*
X149512957Y-75789600D02*
X149417719Y-75837219D01*
X149417719Y-75837219D02*
X149322481Y-75837219D01*
X149322481Y-75837219D02*
X149227243Y-75789600D01*
X149227243Y-75789600D02*
X149179624Y-75741980D01*
X149179624Y-75741980D02*
X149132005Y-75646742D01*
X149132005Y-75646742D02*
X149084386Y-75456266D01*
X149084386Y-75456266D02*
X149084386Y-75218171D01*
X149084386Y-75218171D02*
X149132005Y-75027695D01*
X149132005Y-75027695D02*
X149179624Y-74932457D01*
X149179624Y-74932457D02*
X149227243Y-74884838D01*
X149227243Y-74884838D02*
X149322481Y-74837219D01*
X150608195Y-75837219D02*
X150036767Y-75837219D01*
X150322481Y-75837219D02*
X150322481Y-74837219D01*
X150322481Y-74837219D02*
X150227243Y-74980076D01*
X150227243Y-74980076D02*
X150132005Y-75075314D01*
X150132005Y-75075314D02*
X150036767Y-75122933D01*
X147179624Y-77587219D02*
X147179624Y-76587219D01*
X147179624Y-76587219D02*
X147417719Y-76587219D01*
X147417719Y-76587219D02*
X147560576Y-76634838D01*
X147560576Y-76634838D02*
X147655814Y-76730076D01*
X147655814Y-76730076D02*
X147703433Y-76825314D01*
X147703433Y-76825314D02*
X147751052Y-77015790D01*
X147751052Y-77015790D02*
X147751052Y-77158647D01*
X147751052Y-77158647D02*
X147703433Y-77349123D01*
X147703433Y-77349123D02*
X147655814Y-77444361D01*
X147655814Y-77444361D02*
X147560576Y-77539600D01*
X147560576Y-77539600D02*
X147417719Y-77587219D01*
X147417719Y-77587219D02*
X147179624Y-77587219D01*
X148703433Y-77587219D02*
X148132005Y-77587219D01*
X148417719Y-77587219D02*
X148417719Y-76587219D01*
X148417719Y-76587219D02*
X148322481Y-76730076D01*
X148322481Y-76730076D02*
X148227243Y-76825314D01*
X148227243Y-76825314D02*
X148132005Y-76872933D01*
X149322481Y-76587219D02*
X149417719Y-76587219D01*
X149417719Y-76587219D02*
X149512957Y-76634838D01*
X149512957Y-76634838D02*
X149560576Y-76682457D01*
X149560576Y-76682457D02*
X149608195Y-76777695D01*
X149608195Y-76777695D02*
X149655814Y-76968171D01*
X149655814Y-76968171D02*
X149655814Y-77206266D01*
X149655814Y-77206266D02*
X149608195Y-77396742D01*
X149608195Y-77396742D02*
X149560576Y-77491980D01*
X149560576Y-77491980D02*
X149512957Y-77539600D01*
X149512957Y-77539600D02*
X149417719Y-77587219D01*
X149417719Y-77587219D02*
X149322481Y-77587219D01*
X149322481Y-77587219D02*
X149227243Y-77539600D01*
X149227243Y-77539600D02*
X149179624Y-77491980D01*
X149179624Y-77491980D02*
X149132005Y-77396742D01*
X149132005Y-77396742D02*
X149084386Y-77206266D01*
X149084386Y-77206266D02*
X149084386Y-76968171D01*
X149084386Y-76968171D02*
X149132005Y-76777695D01*
X149132005Y-76777695D02*
X149179624Y-76682457D01*
X149179624Y-76682457D02*
X149227243Y-76634838D01*
X149227243Y-76634838D02*
X149322481Y-76587219D01*
X150036767Y-76682457D02*
X150084386Y-76634838D01*
X150084386Y-76634838D02*
X150179624Y-76587219D01*
X150179624Y-76587219D02*
X150417719Y-76587219D01*
X150417719Y-76587219D02*
X150512957Y-76634838D01*
X150512957Y-76634838D02*
X150560576Y-76682457D01*
X150560576Y-76682457D02*
X150608195Y-76777695D01*
X150608195Y-76777695D02*
X150608195Y-76872933D01*
X150608195Y-76872933D02*
X150560576Y-77015790D01*
X150560576Y-77015790D02*
X149989148Y-77587219D01*
X149989148Y-77587219D02*
X150608195Y-77587219D01*
X147179624Y-79337219D02*
X147179624Y-78337219D01*
X147179624Y-78337219D02*
X147417719Y-78337219D01*
X147417719Y-78337219D02*
X147560576Y-78384838D01*
X147560576Y-78384838D02*
X147655814Y-78480076D01*
X147655814Y-78480076D02*
X147703433Y-78575314D01*
X147703433Y-78575314D02*
X147751052Y-78765790D01*
X147751052Y-78765790D02*
X147751052Y-78908647D01*
X147751052Y-78908647D02*
X147703433Y-79099123D01*
X147703433Y-79099123D02*
X147655814Y-79194361D01*
X147655814Y-79194361D02*
X147560576Y-79289600D01*
X147560576Y-79289600D02*
X147417719Y-79337219D01*
X147417719Y-79337219D02*
X147179624Y-79337219D01*
X148703433Y-79337219D02*
X148132005Y-79337219D01*
X148417719Y-79337219D02*
X148417719Y-78337219D01*
X148417719Y-78337219D02*
X148322481Y-78480076D01*
X148322481Y-78480076D02*
X148227243Y-78575314D01*
X148227243Y-78575314D02*
X148132005Y-78622933D01*
X149322481Y-78337219D02*
X149417719Y-78337219D01*
X149417719Y-78337219D02*
X149512957Y-78384838D01*
X149512957Y-78384838D02*
X149560576Y-78432457D01*
X149560576Y-78432457D02*
X149608195Y-78527695D01*
X149608195Y-78527695D02*
X149655814Y-78718171D01*
X149655814Y-78718171D02*
X149655814Y-78956266D01*
X149655814Y-78956266D02*
X149608195Y-79146742D01*
X149608195Y-79146742D02*
X149560576Y-79241980D01*
X149560576Y-79241980D02*
X149512957Y-79289600D01*
X149512957Y-79289600D02*
X149417719Y-79337219D01*
X149417719Y-79337219D02*
X149322481Y-79337219D01*
X149322481Y-79337219D02*
X149227243Y-79289600D01*
X149227243Y-79289600D02*
X149179624Y-79241980D01*
X149179624Y-79241980D02*
X149132005Y-79146742D01*
X149132005Y-79146742D02*
X149084386Y-78956266D01*
X149084386Y-78956266D02*
X149084386Y-78718171D01*
X149084386Y-78718171D02*
X149132005Y-78527695D01*
X149132005Y-78527695D02*
X149179624Y-78432457D01*
X149179624Y-78432457D02*
X149227243Y-78384838D01*
X149227243Y-78384838D02*
X149322481Y-78337219D01*
X149989148Y-78337219D02*
X150608195Y-78337219D01*
X150608195Y-78337219D02*
X150274862Y-78718171D01*
X150274862Y-78718171D02*
X150417719Y-78718171D01*
X150417719Y-78718171D02*
X150512957Y-78765790D01*
X150512957Y-78765790D02*
X150560576Y-78813409D01*
X150560576Y-78813409D02*
X150608195Y-78908647D01*
X150608195Y-78908647D02*
X150608195Y-79146742D01*
X150608195Y-79146742D02*
X150560576Y-79241980D01*
X150560576Y-79241980D02*
X150512957Y-79289600D01*
X150512957Y-79289600D02*
X150417719Y-79337219D01*
X150417719Y-79337219D02*
X150132005Y-79337219D01*
X150132005Y-79337219D02*
X150036767Y-79289600D01*
X150036767Y-79289600D02*
X149989148Y-79241980D01*
X147179624Y-81087219D02*
X147179624Y-80087219D01*
X147179624Y-80087219D02*
X147417719Y-80087219D01*
X147417719Y-80087219D02*
X147560576Y-80134838D01*
X147560576Y-80134838D02*
X147655814Y-80230076D01*
X147655814Y-80230076D02*
X147703433Y-80325314D01*
X147703433Y-80325314D02*
X147751052Y-80515790D01*
X147751052Y-80515790D02*
X147751052Y-80658647D01*
X147751052Y-80658647D02*
X147703433Y-80849123D01*
X147703433Y-80849123D02*
X147655814Y-80944361D01*
X147655814Y-80944361D02*
X147560576Y-81039600D01*
X147560576Y-81039600D02*
X147417719Y-81087219D01*
X147417719Y-81087219D02*
X147179624Y-81087219D01*
X148703433Y-81087219D02*
X148132005Y-81087219D01*
X148417719Y-81087219D02*
X148417719Y-80087219D01*
X148417719Y-80087219D02*
X148322481Y-80230076D01*
X148322481Y-80230076D02*
X148227243Y-80325314D01*
X148227243Y-80325314D02*
X148132005Y-80372933D01*
X149322481Y-80087219D02*
X149417719Y-80087219D01*
X149417719Y-80087219D02*
X149512957Y-80134838D01*
X149512957Y-80134838D02*
X149560576Y-80182457D01*
X149560576Y-80182457D02*
X149608195Y-80277695D01*
X149608195Y-80277695D02*
X149655814Y-80468171D01*
X149655814Y-80468171D02*
X149655814Y-80706266D01*
X149655814Y-80706266D02*
X149608195Y-80896742D01*
X149608195Y-80896742D02*
X149560576Y-80991980D01*
X149560576Y-80991980D02*
X149512957Y-81039600D01*
X149512957Y-81039600D02*
X149417719Y-81087219D01*
X149417719Y-81087219D02*
X149322481Y-81087219D01*
X149322481Y-81087219D02*
X149227243Y-81039600D01*
X149227243Y-81039600D02*
X149179624Y-80991980D01*
X149179624Y-80991980D02*
X149132005Y-80896742D01*
X149132005Y-80896742D02*
X149084386Y-80706266D01*
X149084386Y-80706266D02*
X149084386Y-80468171D01*
X149084386Y-80468171D02*
X149132005Y-80277695D01*
X149132005Y-80277695D02*
X149179624Y-80182457D01*
X149179624Y-80182457D02*
X149227243Y-80134838D01*
X149227243Y-80134838D02*
X149322481Y-80087219D01*
X150512957Y-80420552D02*
X150512957Y-81087219D01*
X150274862Y-80039600D02*
X150036767Y-80753885D01*
X150036767Y-80753885D02*
X150655814Y-80753885D01*
X147179624Y-82837219D02*
X147179624Y-81837219D01*
X147179624Y-81837219D02*
X147417719Y-81837219D01*
X147417719Y-81837219D02*
X147560576Y-81884838D01*
X147560576Y-81884838D02*
X147655814Y-81980076D01*
X147655814Y-81980076D02*
X147703433Y-82075314D01*
X147703433Y-82075314D02*
X147751052Y-82265790D01*
X147751052Y-82265790D02*
X147751052Y-82408647D01*
X147751052Y-82408647D02*
X147703433Y-82599123D01*
X147703433Y-82599123D02*
X147655814Y-82694361D01*
X147655814Y-82694361D02*
X147560576Y-82789600D01*
X147560576Y-82789600D02*
X147417719Y-82837219D01*
X147417719Y-82837219D02*
X147179624Y-82837219D01*
X148703433Y-82837219D02*
X148132005Y-82837219D01*
X148417719Y-82837219D02*
X148417719Y-81837219D01*
X148417719Y-81837219D02*
X148322481Y-81980076D01*
X148322481Y-81980076D02*
X148227243Y-82075314D01*
X148227243Y-82075314D02*
X148132005Y-82122933D01*
X149322481Y-81837219D02*
X149417719Y-81837219D01*
X149417719Y-81837219D02*
X149512957Y-81884838D01*
X149512957Y-81884838D02*
X149560576Y-81932457D01*
X149560576Y-81932457D02*
X149608195Y-82027695D01*
X149608195Y-82027695D02*
X149655814Y-82218171D01*
X149655814Y-82218171D02*
X149655814Y-82456266D01*
X149655814Y-82456266D02*
X149608195Y-82646742D01*
X149608195Y-82646742D02*
X149560576Y-82741980D01*
X149560576Y-82741980D02*
X149512957Y-82789600D01*
X149512957Y-82789600D02*
X149417719Y-82837219D01*
X149417719Y-82837219D02*
X149322481Y-82837219D01*
X149322481Y-82837219D02*
X149227243Y-82789600D01*
X149227243Y-82789600D02*
X149179624Y-82741980D01*
X149179624Y-82741980D02*
X149132005Y-82646742D01*
X149132005Y-82646742D02*
X149084386Y-82456266D01*
X149084386Y-82456266D02*
X149084386Y-82218171D01*
X149084386Y-82218171D02*
X149132005Y-82027695D01*
X149132005Y-82027695D02*
X149179624Y-81932457D01*
X149179624Y-81932457D02*
X149227243Y-81884838D01*
X149227243Y-81884838D02*
X149322481Y-81837219D01*
X150560576Y-81837219D02*
X150084386Y-81837219D01*
X150084386Y-81837219D02*
X150036767Y-82313409D01*
X150036767Y-82313409D02*
X150084386Y-82265790D01*
X150084386Y-82265790D02*
X150179624Y-82218171D01*
X150179624Y-82218171D02*
X150417719Y-82218171D01*
X150417719Y-82218171D02*
X150512957Y-82265790D01*
X150512957Y-82265790D02*
X150560576Y-82313409D01*
X150560576Y-82313409D02*
X150608195Y-82408647D01*
X150608195Y-82408647D02*
X150608195Y-82646742D01*
X150608195Y-82646742D02*
X150560576Y-82741980D01*
X150560576Y-82741980D02*
X150512957Y-82789600D01*
X150512957Y-82789600D02*
X150417719Y-82837219D01*
X150417719Y-82837219D02*
X150179624Y-82837219D01*
X150179624Y-82837219D02*
X150084386Y-82789600D01*
X150084386Y-82789600D02*
X150036767Y-82741980D01*
X147179624Y-84587219D02*
X147179624Y-83587219D01*
X147179624Y-83587219D02*
X147417719Y-83587219D01*
X147417719Y-83587219D02*
X147560576Y-83634838D01*
X147560576Y-83634838D02*
X147655814Y-83730076D01*
X147655814Y-83730076D02*
X147703433Y-83825314D01*
X147703433Y-83825314D02*
X147751052Y-84015790D01*
X147751052Y-84015790D02*
X147751052Y-84158647D01*
X147751052Y-84158647D02*
X147703433Y-84349123D01*
X147703433Y-84349123D02*
X147655814Y-84444361D01*
X147655814Y-84444361D02*
X147560576Y-84539600D01*
X147560576Y-84539600D02*
X147417719Y-84587219D01*
X147417719Y-84587219D02*
X147179624Y-84587219D01*
X148703433Y-84587219D02*
X148132005Y-84587219D01*
X148417719Y-84587219D02*
X148417719Y-83587219D01*
X148417719Y-83587219D02*
X148322481Y-83730076D01*
X148322481Y-83730076D02*
X148227243Y-83825314D01*
X148227243Y-83825314D02*
X148132005Y-83872933D01*
X149322481Y-83587219D02*
X149417719Y-83587219D01*
X149417719Y-83587219D02*
X149512957Y-83634838D01*
X149512957Y-83634838D02*
X149560576Y-83682457D01*
X149560576Y-83682457D02*
X149608195Y-83777695D01*
X149608195Y-83777695D02*
X149655814Y-83968171D01*
X149655814Y-83968171D02*
X149655814Y-84206266D01*
X149655814Y-84206266D02*
X149608195Y-84396742D01*
X149608195Y-84396742D02*
X149560576Y-84491980D01*
X149560576Y-84491980D02*
X149512957Y-84539600D01*
X149512957Y-84539600D02*
X149417719Y-84587219D01*
X149417719Y-84587219D02*
X149322481Y-84587219D01*
X149322481Y-84587219D02*
X149227243Y-84539600D01*
X149227243Y-84539600D02*
X149179624Y-84491980D01*
X149179624Y-84491980D02*
X149132005Y-84396742D01*
X149132005Y-84396742D02*
X149084386Y-84206266D01*
X149084386Y-84206266D02*
X149084386Y-83968171D01*
X149084386Y-83968171D02*
X149132005Y-83777695D01*
X149132005Y-83777695D02*
X149179624Y-83682457D01*
X149179624Y-83682457D02*
X149227243Y-83634838D01*
X149227243Y-83634838D02*
X149322481Y-83587219D01*
X150512957Y-83587219D02*
X150322481Y-83587219D01*
X150322481Y-83587219D02*
X150227243Y-83634838D01*
X150227243Y-83634838D02*
X150179624Y-83682457D01*
X150179624Y-83682457D02*
X150084386Y-83825314D01*
X150084386Y-83825314D02*
X150036767Y-84015790D01*
X150036767Y-84015790D02*
X150036767Y-84396742D01*
X150036767Y-84396742D02*
X150084386Y-84491980D01*
X150084386Y-84491980D02*
X150132005Y-84539600D01*
X150132005Y-84539600D02*
X150227243Y-84587219D01*
X150227243Y-84587219D02*
X150417719Y-84587219D01*
X150417719Y-84587219D02*
X150512957Y-84539600D01*
X150512957Y-84539600D02*
X150560576Y-84491980D01*
X150560576Y-84491980D02*
X150608195Y-84396742D01*
X150608195Y-84396742D02*
X150608195Y-84158647D01*
X150608195Y-84158647D02*
X150560576Y-84063409D01*
X150560576Y-84063409D02*
X150512957Y-84015790D01*
X150512957Y-84015790D02*
X150417719Y-83968171D01*
X150417719Y-83968171D02*
X150227243Y-83968171D01*
X150227243Y-83968171D02*
X150132005Y-84015790D01*
X150132005Y-84015790D02*
X150084386Y-84063409D01*
X150084386Y-84063409D02*
X150036767Y-84158647D01*
X147179624Y-86337219D02*
X147179624Y-85337219D01*
X147179624Y-85337219D02*
X147417719Y-85337219D01*
X147417719Y-85337219D02*
X147560576Y-85384838D01*
X147560576Y-85384838D02*
X147655814Y-85480076D01*
X147655814Y-85480076D02*
X147703433Y-85575314D01*
X147703433Y-85575314D02*
X147751052Y-85765790D01*
X147751052Y-85765790D02*
X147751052Y-85908647D01*
X147751052Y-85908647D02*
X147703433Y-86099123D01*
X147703433Y-86099123D02*
X147655814Y-86194361D01*
X147655814Y-86194361D02*
X147560576Y-86289600D01*
X147560576Y-86289600D02*
X147417719Y-86337219D01*
X147417719Y-86337219D02*
X147179624Y-86337219D01*
X148703433Y-86337219D02*
X148132005Y-86337219D01*
X148417719Y-86337219D02*
X148417719Y-85337219D01*
X148417719Y-85337219D02*
X148322481Y-85480076D01*
X148322481Y-85480076D02*
X148227243Y-85575314D01*
X148227243Y-85575314D02*
X148132005Y-85622933D01*
X149322481Y-85337219D02*
X149417719Y-85337219D01*
X149417719Y-85337219D02*
X149512957Y-85384838D01*
X149512957Y-85384838D02*
X149560576Y-85432457D01*
X149560576Y-85432457D02*
X149608195Y-85527695D01*
X149608195Y-85527695D02*
X149655814Y-85718171D01*
X149655814Y-85718171D02*
X149655814Y-85956266D01*
X149655814Y-85956266D02*
X149608195Y-86146742D01*
X149608195Y-86146742D02*
X149560576Y-86241980D01*
X149560576Y-86241980D02*
X149512957Y-86289600D01*
X149512957Y-86289600D02*
X149417719Y-86337219D01*
X149417719Y-86337219D02*
X149322481Y-86337219D01*
X149322481Y-86337219D02*
X149227243Y-86289600D01*
X149227243Y-86289600D02*
X149179624Y-86241980D01*
X149179624Y-86241980D02*
X149132005Y-86146742D01*
X149132005Y-86146742D02*
X149084386Y-85956266D01*
X149084386Y-85956266D02*
X149084386Y-85718171D01*
X149084386Y-85718171D02*
X149132005Y-85527695D01*
X149132005Y-85527695D02*
X149179624Y-85432457D01*
X149179624Y-85432457D02*
X149227243Y-85384838D01*
X149227243Y-85384838D02*
X149322481Y-85337219D01*
X149989148Y-85337219D02*
X150655814Y-85337219D01*
X150655814Y-85337219D02*
X150227243Y-86337219D01*
X147179624Y-88087219D02*
X147179624Y-87087219D01*
X147179624Y-87087219D02*
X147417719Y-87087219D01*
X147417719Y-87087219D02*
X147560576Y-87134838D01*
X147560576Y-87134838D02*
X147655814Y-87230076D01*
X147655814Y-87230076D02*
X147703433Y-87325314D01*
X147703433Y-87325314D02*
X147751052Y-87515790D01*
X147751052Y-87515790D02*
X147751052Y-87658647D01*
X147751052Y-87658647D02*
X147703433Y-87849123D01*
X147703433Y-87849123D02*
X147655814Y-87944361D01*
X147655814Y-87944361D02*
X147560576Y-88039600D01*
X147560576Y-88039600D02*
X147417719Y-88087219D01*
X147417719Y-88087219D02*
X147179624Y-88087219D01*
X148703433Y-88087219D02*
X148132005Y-88087219D01*
X148417719Y-88087219D02*
X148417719Y-87087219D01*
X148417719Y-87087219D02*
X148322481Y-87230076D01*
X148322481Y-87230076D02*
X148227243Y-87325314D01*
X148227243Y-87325314D02*
X148132005Y-87372933D01*
X149322481Y-87087219D02*
X149417719Y-87087219D01*
X149417719Y-87087219D02*
X149512957Y-87134838D01*
X149512957Y-87134838D02*
X149560576Y-87182457D01*
X149560576Y-87182457D02*
X149608195Y-87277695D01*
X149608195Y-87277695D02*
X149655814Y-87468171D01*
X149655814Y-87468171D02*
X149655814Y-87706266D01*
X149655814Y-87706266D02*
X149608195Y-87896742D01*
X149608195Y-87896742D02*
X149560576Y-87991980D01*
X149560576Y-87991980D02*
X149512957Y-88039600D01*
X149512957Y-88039600D02*
X149417719Y-88087219D01*
X149417719Y-88087219D02*
X149322481Y-88087219D01*
X149322481Y-88087219D02*
X149227243Y-88039600D01*
X149227243Y-88039600D02*
X149179624Y-87991980D01*
X149179624Y-87991980D02*
X149132005Y-87896742D01*
X149132005Y-87896742D02*
X149084386Y-87706266D01*
X149084386Y-87706266D02*
X149084386Y-87468171D01*
X149084386Y-87468171D02*
X149132005Y-87277695D01*
X149132005Y-87277695D02*
X149179624Y-87182457D01*
X149179624Y-87182457D02*
X149227243Y-87134838D01*
X149227243Y-87134838D02*
X149322481Y-87087219D01*
X150227243Y-87515790D02*
X150132005Y-87468171D01*
X150132005Y-87468171D02*
X150084386Y-87420552D01*
X150084386Y-87420552D02*
X150036767Y-87325314D01*
X150036767Y-87325314D02*
X150036767Y-87277695D01*
X150036767Y-87277695D02*
X150084386Y-87182457D01*
X150084386Y-87182457D02*
X150132005Y-87134838D01*
X150132005Y-87134838D02*
X150227243Y-87087219D01*
X150227243Y-87087219D02*
X150417719Y-87087219D01*
X150417719Y-87087219D02*
X150512957Y-87134838D01*
X150512957Y-87134838D02*
X150560576Y-87182457D01*
X150560576Y-87182457D02*
X150608195Y-87277695D01*
X150608195Y-87277695D02*
X150608195Y-87325314D01*
X150608195Y-87325314D02*
X150560576Y-87420552D01*
X150560576Y-87420552D02*
X150512957Y-87468171D01*
X150512957Y-87468171D02*
X150417719Y-87515790D01*
X150417719Y-87515790D02*
X150227243Y-87515790D01*
X150227243Y-87515790D02*
X150132005Y-87563409D01*
X150132005Y-87563409D02*
X150084386Y-87611028D01*
X150084386Y-87611028D02*
X150036767Y-87706266D01*
X150036767Y-87706266D02*
X150036767Y-87896742D01*
X150036767Y-87896742D02*
X150084386Y-87991980D01*
X150084386Y-87991980D02*
X150132005Y-88039600D01*
X150132005Y-88039600D02*
X150227243Y-88087219D01*
X150227243Y-88087219D02*
X150417719Y-88087219D01*
X150417719Y-88087219D02*
X150512957Y-88039600D01*
X150512957Y-88039600D02*
X150560576Y-87991980D01*
X150560576Y-87991980D02*
X150608195Y-87896742D01*
X150608195Y-87896742D02*
X150608195Y-87706266D01*
X150608195Y-87706266D02*
X150560576Y-87611028D01*
X150560576Y-87611028D02*
X150512957Y-87563409D01*
X150512957Y-87563409D02*
X150417719Y-87515790D01*
X147179624Y-89837219D02*
X147179624Y-88837219D01*
X147179624Y-88837219D02*
X147417719Y-88837219D01*
X147417719Y-88837219D02*
X147560576Y-88884838D01*
X147560576Y-88884838D02*
X147655814Y-88980076D01*
X147655814Y-88980076D02*
X147703433Y-89075314D01*
X147703433Y-89075314D02*
X147751052Y-89265790D01*
X147751052Y-89265790D02*
X147751052Y-89408647D01*
X147751052Y-89408647D02*
X147703433Y-89599123D01*
X147703433Y-89599123D02*
X147655814Y-89694361D01*
X147655814Y-89694361D02*
X147560576Y-89789600D01*
X147560576Y-89789600D02*
X147417719Y-89837219D01*
X147417719Y-89837219D02*
X147179624Y-89837219D01*
X148703433Y-89837219D02*
X148132005Y-89837219D01*
X148417719Y-89837219D02*
X148417719Y-88837219D01*
X148417719Y-88837219D02*
X148322481Y-88980076D01*
X148322481Y-88980076D02*
X148227243Y-89075314D01*
X148227243Y-89075314D02*
X148132005Y-89122933D01*
X149322481Y-88837219D02*
X149417719Y-88837219D01*
X149417719Y-88837219D02*
X149512957Y-88884838D01*
X149512957Y-88884838D02*
X149560576Y-88932457D01*
X149560576Y-88932457D02*
X149608195Y-89027695D01*
X149608195Y-89027695D02*
X149655814Y-89218171D01*
X149655814Y-89218171D02*
X149655814Y-89456266D01*
X149655814Y-89456266D02*
X149608195Y-89646742D01*
X149608195Y-89646742D02*
X149560576Y-89741980D01*
X149560576Y-89741980D02*
X149512957Y-89789600D01*
X149512957Y-89789600D02*
X149417719Y-89837219D01*
X149417719Y-89837219D02*
X149322481Y-89837219D01*
X149322481Y-89837219D02*
X149227243Y-89789600D01*
X149227243Y-89789600D02*
X149179624Y-89741980D01*
X149179624Y-89741980D02*
X149132005Y-89646742D01*
X149132005Y-89646742D02*
X149084386Y-89456266D01*
X149084386Y-89456266D02*
X149084386Y-89218171D01*
X149084386Y-89218171D02*
X149132005Y-89027695D01*
X149132005Y-89027695D02*
X149179624Y-88932457D01*
X149179624Y-88932457D02*
X149227243Y-88884838D01*
X149227243Y-88884838D02*
X149322481Y-88837219D01*
X150132005Y-89837219D02*
X150322481Y-89837219D01*
X150322481Y-89837219D02*
X150417719Y-89789600D01*
X150417719Y-89789600D02*
X150465338Y-89741980D01*
X150465338Y-89741980D02*
X150560576Y-89599123D01*
X150560576Y-89599123D02*
X150608195Y-89408647D01*
X150608195Y-89408647D02*
X150608195Y-89027695D01*
X150608195Y-89027695D02*
X150560576Y-88932457D01*
X150560576Y-88932457D02*
X150512957Y-88884838D01*
X150512957Y-88884838D02*
X150417719Y-88837219D01*
X150417719Y-88837219D02*
X150227243Y-88837219D01*
X150227243Y-88837219D02*
X150132005Y-88884838D01*
X150132005Y-88884838D02*
X150084386Y-88932457D01*
X150084386Y-88932457D02*
X150036767Y-89027695D01*
X150036767Y-89027695D02*
X150036767Y-89265790D01*
X150036767Y-89265790D02*
X150084386Y-89361028D01*
X150084386Y-89361028D02*
X150132005Y-89408647D01*
X150132005Y-89408647D02*
X150227243Y-89456266D01*
X150227243Y-89456266D02*
X150417719Y-89456266D01*
X150417719Y-89456266D02*
X150512957Y-89408647D01*
X150512957Y-89408647D02*
X150560576Y-89361028D01*
X150560576Y-89361028D02*
X150608195Y-89265790D01*
X147179624Y-91587219D02*
X147179624Y-90587219D01*
X147179624Y-90587219D02*
X147417719Y-90587219D01*
X147417719Y-90587219D02*
X147560576Y-90634838D01*
X147560576Y-90634838D02*
X147655814Y-90730076D01*
X147655814Y-90730076D02*
X147703433Y-90825314D01*
X147703433Y-90825314D02*
X147751052Y-91015790D01*
X147751052Y-91015790D02*
X147751052Y-91158647D01*
X147751052Y-91158647D02*
X147703433Y-91349123D01*
X147703433Y-91349123D02*
X147655814Y-91444361D01*
X147655814Y-91444361D02*
X147560576Y-91539600D01*
X147560576Y-91539600D02*
X147417719Y-91587219D01*
X147417719Y-91587219D02*
X147179624Y-91587219D01*
X148703433Y-91587219D02*
X148132005Y-91587219D01*
X148417719Y-91587219D02*
X148417719Y-90587219D01*
X148417719Y-90587219D02*
X148322481Y-90730076D01*
X148322481Y-90730076D02*
X148227243Y-90825314D01*
X148227243Y-90825314D02*
X148132005Y-90872933D01*
X149655814Y-91587219D02*
X149084386Y-91587219D01*
X149370100Y-91587219D02*
X149370100Y-90587219D01*
X149370100Y-90587219D02*
X149274862Y-90730076D01*
X149274862Y-90730076D02*
X149179624Y-90825314D01*
X149179624Y-90825314D02*
X149084386Y-90872933D01*
X150274862Y-90587219D02*
X150370100Y-90587219D01*
X150370100Y-90587219D02*
X150465338Y-90634838D01*
X150465338Y-90634838D02*
X150512957Y-90682457D01*
X150512957Y-90682457D02*
X150560576Y-90777695D01*
X150560576Y-90777695D02*
X150608195Y-90968171D01*
X150608195Y-90968171D02*
X150608195Y-91206266D01*
X150608195Y-91206266D02*
X150560576Y-91396742D01*
X150560576Y-91396742D02*
X150512957Y-91491980D01*
X150512957Y-91491980D02*
X150465338Y-91539600D01*
X150465338Y-91539600D02*
X150370100Y-91587219D01*
X150370100Y-91587219D02*
X150274862Y-91587219D01*
X150274862Y-91587219D02*
X150179624Y-91539600D01*
X150179624Y-91539600D02*
X150132005Y-91491980D01*
X150132005Y-91491980D02*
X150084386Y-91396742D01*
X150084386Y-91396742D02*
X150036767Y-91206266D01*
X150036767Y-91206266D02*
X150036767Y-90968171D01*
X150036767Y-90968171D02*
X150084386Y-90777695D01*
X150084386Y-90777695D02*
X150132005Y-90682457D01*
X150132005Y-90682457D02*
X150179624Y-90634838D01*
X150179624Y-90634838D02*
X150274862Y-90587219D01*
X147179624Y-93337219D02*
X147179624Y-92337219D01*
X147179624Y-92337219D02*
X147417719Y-92337219D01*
X147417719Y-92337219D02*
X147560576Y-92384838D01*
X147560576Y-92384838D02*
X147655814Y-92480076D01*
X147655814Y-92480076D02*
X147703433Y-92575314D01*
X147703433Y-92575314D02*
X147751052Y-92765790D01*
X147751052Y-92765790D02*
X147751052Y-92908647D01*
X147751052Y-92908647D02*
X147703433Y-93099123D01*
X147703433Y-93099123D02*
X147655814Y-93194361D01*
X147655814Y-93194361D02*
X147560576Y-93289600D01*
X147560576Y-93289600D02*
X147417719Y-93337219D01*
X147417719Y-93337219D02*
X147179624Y-93337219D01*
X148703433Y-93337219D02*
X148132005Y-93337219D01*
X148417719Y-93337219D02*
X148417719Y-92337219D01*
X148417719Y-92337219D02*
X148322481Y-92480076D01*
X148322481Y-92480076D02*
X148227243Y-92575314D01*
X148227243Y-92575314D02*
X148132005Y-92622933D01*
X149655814Y-93337219D02*
X149084386Y-93337219D01*
X149370100Y-93337219D02*
X149370100Y-92337219D01*
X149370100Y-92337219D02*
X149274862Y-92480076D01*
X149274862Y-92480076D02*
X149179624Y-92575314D01*
X149179624Y-92575314D02*
X149084386Y-92622933D01*
X150608195Y-93337219D02*
X150036767Y-93337219D01*
X150322481Y-93337219D02*
X150322481Y-92337219D01*
X150322481Y-92337219D02*
X150227243Y-92480076D01*
X150227243Y-92480076D02*
X150132005Y-92575314D01*
X150132005Y-92575314D02*
X150036767Y-92622933D01*
X147179624Y-95087219D02*
X147179624Y-94087219D01*
X147179624Y-94087219D02*
X147417719Y-94087219D01*
X147417719Y-94087219D02*
X147560576Y-94134838D01*
X147560576Y-94134838D02*
X147655814Y-94230076D01*
X147655814Y-94230076D02*
X147703433Y-94325314D01*
X147703433Y-94325314D02*
X147751052Y-94515790D01*
X147751052Y-94515790D02*
X147751052Y-94658647D01*
X147751052Y-94658647D02*
X147703433Y-94849123D01*
X147703433Y-94849123D02*
X147655814Y-94944361D01*
X147655814Y-94944361D02*
X147560576Y-95039600D01*
X147560576Y-95039600D02*
X147417719Y-95087219D01*
X147417719Y-95087219D02*
X147179624Y-95087219D01*
X148703433Y-95087219D02*
X148132005Y-95087219D01*
X148417719Y-95087219D02*
X148417719Y-94087219D01*
X148417719Y-94087219D02*
X148322481Y-94230076D01*
X148322481Y-94230076D02*
X148227243Y-94325314D01*
X148227243Y-94325314D02*
X148132005Y-94372933D01*
X149655814Y-95087219D02*
X149084386Y-95087219D01*
X149370100Y-95087219D02*
X149370100Y-94087219D01*
X149370100Y-94087219D02*
X149274862Y-94230076D01*
X149274862Y-94230076D02*
X149179624Y-94325314D01*
X149179624Y-94325314D02*
X149084386Y-94372933D01*
X150036767Y-94182457D02*
X150084386Y-94134838D01*
X150084386Y-94134838D02*
X150179624Y-94087219D01*
X150179624Y-94087219D02*
X150417719Y-94087219D01*
X150417719Y-94087219D02*
X150512957Y-94134838D01*
X150512957Y-94134838D02*
X150560576Y-94182457D01*
X150560576Y-94182457D02*
X150608195Y-94277695D01*
X150608195Y-94277695D02*
X150608195Y-94372933D01*
X150608195Y-94372933D02*
X150560576Y-94515790D01*
X150560576Y-94515790D02*
X149989148Y-95087219D01*
X149989148Y-95087219D02*
X150608195Y-95087219D01*
X147179624Y-96837219D02*
X147179624Y-95837219D01*
X147179624Y-95837219D02*
X147417719Y-95837219D01*
X147417719Y-95837219D02*
X147560576Y-95884838D01*
X147560576Y-95884838D02*
X147655814Y-95980076D01*
X147655814Y-95980076D02*
X147703433Y-96075314D01*
X147703433Y-96075314D02*
X147751052Y-96265790D01*
X147751052Y-96265790D02*
X147751052Y-96408647D01*
X147751052Y-96408647D02*
X147703433Y-96599123D01*
X147703433Y-96599123D02*
X147655814Y-96694361D01*
X147655814Y-96694361D02*
X147560576Y-96789600D01*
X147560576Y-96789600D02*
X147417719Y-96837219D01*
X147417719Y-96837219D02*
X147179624Y-96837219D01*
X148703433Y-96837219D02*
X148132005Y-96837219D01*
X148417719Y-96837219D02*
X148417719Y-95837219D01*
X148417719Y-95837219D02*
X148322481Y-95980076D01*
X148322481Y-95980076D02*
X148227243Y-96075314D01*
X148227243Y-96075314D02*
X148132005Y-96122933D01*
X149655814Y-96837219D02*
X149084386Y-96837219D01*
X149370100Y-96837219D02*
X149370100Y-95837219D01*
X149370100Y-95837219D02*
X149274862Y-95980076D01*
X149274862Y-95980076D02*
X149179624Y-96075314D01*
X149179624Y-96075314D02*
X149084386Y-96122933D01*
X149989148Y-95837219D02*
X150608195Y-95837219D01*
X150608195Y-95837219D02*
X150274862Y-96218171D01*
X150274862Y-96218171D02*
X150417719Y-96218171D01*
X150417719Y-96218171D02*
X150512957Y-96265790D01*
X150512957Y-96265790D02*
X150560576Y-96313409D01*
X150560576Y-96313409D02*
X150608195Y-96408647D01*
X150608195Y-96408647D02*
X150608195Y-96646742D01*
X150608195Y-96646742D02*
X150560576Y-96741980D01*
X150560576Y-96741980D02*
X150512957Y-96789600D01*
X150512957Y-96789600D02*
X150417719Y-96837219D01*
X150417719Y-96837219D02*
X150132005Y-96837219D01*
X150132005Y-96837219D02*
X150036767Y-96789600D01*
X150036767Y-96789600D02*
X149989148Y-96741980D01*
X157241052Y-82837219D02*
X156907719Y-82361028D01*
X156669624Y-82837219D02*
X156669624Y-81837219D01*
X156669624Y-81837219D02*
X157050576Y-81837219D01*
X157050576Y-81837219D02*
X157145814Y-81884838D01*
X157145814Y-81884838D02*
X157193433Y-81932457D01*
X157193433Y-81932457D02*
X157241052Y-82027695D01*
X157241052Y-82027695D02*
X157241052Y-82170552D01*
X157241052Y-82170552D02*
X157193433Y-82265790D01*
X157193433Y-82265790D02*
X157145814Y-82313409D01*
X157145814Y-82313409D02*
X157050576Y-82361028D01*
X157050576Y-82361028D02*
X156669624Y-82361028D01*
X158193433Y-82837219D02*
X157622005Y-82837219D01*
X157907719Y-82837219D02*
X157907719Y-81837219D01*
X157907719Y-81837219D02*
X157812481Y-81980076D01*
X157812481Y-81980076D02*
X157717243Y-82075314D01*
X157717243Y-82075314D02*
X157622005Y-82122933D01*
X158812481Y-81837219D02*
X158907719Y-81837219D01*
X158907719Y-81837219D02*
X159002957Y-81884838D01*
X159002957Y-81884838D02*
X159050576Y-81932457D01*
X159050576Y-81932457D02*
X159098195Y-82027695D01*
X159098195Y-82027695D02*
X159145814Y-82218171D01*
X159145814Y-82218171D02*
X159145814Y-82456266D01*
X159145814Y-82456266D02*
X159098195Y-82646742D01*
X159098195Y-82646742D02*
X159050576Y-82741980D01*
X159050576Y-82741980D02*
X159002957Y-82789600D01*
X159002957Y-82789600D02*
X158907719Y-82837219D01*
X158907719Y-82837219D02*
X158812481Y-82837219D01*
X158812481Y-82837219D02*
X158717243Y-82789600D01*
X158717243Y-82789600D02*
X158669624Y-82741980D01*
X158669624Y-82741980D02*
X158622005Y-82646742D01*
X158622005Y-82646742D02*
X158574386Y-82456266D01*
X158574386Y-82456266D02*
X158574386Y-82218171D01*
X158574386Y-82218171D02*
X158622005Y-82027695D01*
X158622005Y-82027695D02*
X158669624Y-81932457D01*
X158669624Y-81932457D02*
X158717243Y-81884838D01*
X158717243Y-81884838D02*
X158812481Y-81837219D01*
X160050576Y-81837219D02*
X159574386Y-81837219D01*
X159574386Y-81837219D02*
X159526767Y-82313409D01*
X159526767Y-82313409D02*
X159574386Y-82265790D01*
X159574386Y-82265790D02*
X159669624Y-82218171D01*
X159669624Y-82218171D02*
X159907719Y-82218171D01*
X159907719Y-82218171D02*
X160002957Y-82265790D01*
X160002957Y-82265790D02*
X160050576Y-82313409D01*
X160050576Y-82313409D02*
X160098195Y-82408647D01*
X160098195Y-82408647D02*
X160098195Y-82646742D01*
X160098195Y-82646742D02*
X160050576Y-82741980D01*
X160050576Y-82741980D02*
X160002957Y-82789600D01*
X160002957Y-82789600D02*
X159907719Y-82837219D01*
X159907719Y-82837219D02*
X159669624Y-82837219D01*
X159669624Y-82837219D02*
X159574386Y-82789600D01*
X159574386Y-82789600D02*
X159526767Y-82741980D01*
X157251052Y-84587219D02*
X156917719Y-84111028D01*
X156679624Y-84587219D02*
X156679624Y-83587219D01*
X156679624Y-83587219D02*
X157060576Y-83587219D01*
X157060576Y-83587219D02*
X157155814Y-83634838D01*
X157155814Y-83634838D02*
X157203433Y-83682457D01*
X157203433Y-83682457D02*
X157251052Y-83777695D01*
X157251052Y-83777695D02*
X157251052Y-83920552D01*
X157251052Y-83920552D02*
X157203433Y-84015790D01*
X157203433Y-84015790D02*
X157155814Y-84063409D01*
X157155814Y-84063409D02*
X157060576Y-84111028D01*
X157060576Y-84111028D02*
X156679624Y-84111028D01*
X158203433Y-84587219D02*
X157632005Y-84587219D01*
X157917719Y-84587219D02*
X157917719Y-83587219D01*
X157917719Y-83587219D02*
X157822481Y-83730076D01*
X157822481Y-83730076D02*
X157727243Y-83825314D01*
X157727243Y-83825314D02*
X157632005Y-83872933D01*
X158822481Y-83587219D02*
X158917719Y-83587219D01*
X158917719Y-83587219D02*
X159012957Y-83634838D01*
X159012957Y-83634838D02*
X159060576Y-83682457D01*
X159060576Y-83682457D02*
X159108195Y-83777695D01*
X159108195Y-83777695D02*
X159155814Y-83968171D01*
X159155814Y-83968171D02*
X159155814Y-84206266D01*
X159155814Y-84206266D02*
X159108195Y-84396742D01*
X159108195Y-84396742D02*
X159060576Y-84491980D01*
X159060576Y-84491980D02*
X159012957Y-84539600D01*
X159012957Y-84539600D02*
X158917719Y-84587219D01*
X158917719Y-84587219D02*
X158822481Y-84587219D01*
X158822481Y-84587219D02*
X158727243Y-84539600D01*
X158727243Y-84539600D02*
X158679624Y-84491980D01*
X158679624Y-84491980D02*
X158632005Y-84396742D01*
X158632005Y-84396742D02*
X158584386Y-84206266D01*
X158584386Y-84206266D02*
X158584386Y-83968171D01*
X158584386Y-83968171D02*
X158632005Y-83777695D01*
X158632005Y-83777695D02*
X158679624Y-83682457D01*
X158679624Y-83682457D02*
X158727243Y-83634838D01*
X158727243Y-83634838D02*
X158822481Y-83587219D01*
X160012957Y-83587219D02*
X159822481Y-83587219D01*
X159822481Y-83587219D02*
X159727243Y-83634838D01*
X159727243Y-83634838D02*
X159679624Y-83682457D01*
X159679624Y-83682457D02*
X159584386Y-83825314D01*
X159584386Y-83825314D02*
X159536767Y-84015790D01*
X159536767Y-84015790D02*
X159536767Y-84396742D01*
X159536767Y-84396742D02*
X159584386Y-84491980D01*
X159584386Y-84491980D02*
X159632005Y-84539600D01*
X159632005Y-84539600D02*
X159727243Y-84587219D01*
X159727243Y-84587219D02*
X159917719Y-84587219D01*
X159917719Y-84587219D02*
X160012957Y-84539600D01*
X160012957Y-84539600D02*
X160060576Y-84491980D01*
X160060576Y-84491980D02*
X160108195Y-84396742D01*
X160108195Y-84396742D02*
X160108195Y-84158647D01*
X160108195Y-84158647D02*
X160060576Y-84063409D01*
X160060576Y-84063409D02*
X160012957Y-84015790D01*
X160012957Y-84015790D02*
X159917719Y-83968171D01*
X159917719Y-83968171D02*
X159727243Y-83968171D01*
X159727243Y-83968171D02*
X159632005Y-84015790D01*
X159632005Y-84015790D02*
X159584386Y-84063409D01*
X159584386Y-84063409D02*
X159536767Y-84158647D01*
X157251052Y-86337219D02*
X156917719Y-85861028D01*
X156679624Y-86337219D02*
X156679624Y-85337219D01*
X156679624Y-85337219D02*
X157060576Y-85337219D01*
X157060576Y-85337219D02*
X157155814Y-85384838D01*
X157155814Y-85384838D02*
X157203433Y-85432457D01*
X157203433Y-85432457D02*
X157251052Y-85527695D01*
X157251052Y-85527695D02*
X157251052Y-85670552D01*
X157251052Y-85670552D02*
X157203433Y-85765790D01*
X157203433Y-85765790D02*
X157155814Y-85813409D01*
X157155814Y-85813409D02*
X157060576Y-85861028D01*
X157060576Y-85861028D02*
X156679624Y-85861028D01*
X158203433Y-86337219D02*
X157632005Y-86337219D01*
X157917719Y-86337219D02*
X157917719Y-85337219D01*
X157917719Y-85337219D02*
X157822481Y-85480076D01*
X157822481Y-85480076D02*
X157727243Y-85575314D01*
X157727243Y-85575314D02*
X157632005Y-85622933D01*
X158822481Y-85337219D02*
X158917719Y-85337219D01*
X158917719Y-85337219D02*
X159012957Y-85384838D01*
X159012957Y-85384838D02*
X159060576Y-85432457D01*
X159060576Y-85432457D02*
X159108195Y-85527695D01*
X159108195Y-85527695D02*
X159155814Y-85718171D01*
X159155814Y-85718171D02*
X159155814Y-85956266D01*
X159155814Y-85956266D02*
X159108195Y-86146742D01*
X159108195Y-86146742D02*
X159060576Y-86241980D01*
X159060576Y-86241980D02*
X159012957Y-86289600D01*
X159012957Y-86289600D02*
X158917719Y-86337219D01*
X158917719Y-86337219D02*
X158822481Y-86337219D01*
X158822481Y-86337219D02*
X158727243Y-86289600D01*
X158727243Y-86289600D02*
X158679624Y-86241980D01*
X158679624Y-86241980D02*
X158632005Y-86146742D01*
X158632005Y-86146742D02*
X158584386Y-85956266D01*
X158584386Y-85956266D02*
X158584386Y-85718171D01*
X158584386Y-85718171D02*
X158632005Y-85527695D01*
X158632005Y-85527695D02*
X158679624Y-85432457D01*
X158679624Y-85432457D02*
X158727243Y-85384838D01*
X158727243Y-85384838D02*
X158822481Y-85337219D01*
X159489148Y-85337219D02*
X160155814Y-85337219D01*
X160155814Y-85337219D02*
X159727243Y-86337219D01*
X157251052Y-88087219D02*
X156917719Y-87611028D01*
X156679624Y-88087219D02*
X156679624Y-87087219D01*
X156679624Y-87087219D02*
X157060576Y-87087219D01*
X157060576Y-87087219D02*
X157155814Y-87134838D01*
X157155814Y-87134838D02*
X157203433Y-87182457D01*
X157203433Y-87182457D02*
X157251052Y-87277695D01*
X157251052Y-87277695D02*
X157251052Y-87420552D01*
X157251052Y-87420552D02*
X157203433Y-87515790D01*
X157203433Y-87515790D02*
X157155814Y-87563409D01*
X157155814Y-87563409D02*
X157060576Y-87611028D01*
X157060576Y-87611028D02*
X156679624Y-87611028D01*
X158203433Y-88087219D02*
X157632005Y-88087219D01*
X157917719Y-88087219D02*
X157917719Y-87087219D01*
X157917719Y-87087219D02*
X157822481Y-87230076D01*
X157822481Y-87230076D02*
X157727243Y-87325314D01*
X157727243Y-87325314D02*
X157632005Y-87372933D01*
X158822481Y-87087219D02*
X158917719Y-87087219D01*
X158917719Y-87087219D02*
X159012957Y-87134838D01*
X159012957Y-87134838D02*
X159060576Y-87182457D01*
X159060576Y-87182457D02*
X159108195Y-87277695D01*
X159108195Y-87277695D02*
X159155814Y-87468171D01*
X159155814Y-87468171D02*
X159155814Y-87706266D01*
X159155814Y-87706266D02*
X159108195Y-87896742D01*
X159108195Y-87896742D02*
X159060576Y-87991980D01*
X159060576Y-87991980D02*
X159012957Y-88039600D01*
X159012957Y-88039600D02*
X158917719Y-88087219D01*
X158917719Y-88087219D02*
X158822481Y-88087219D01*
X158822481Y-88087219D02*
X158727243Y-88039600D01*
X158727243Y-88039600D02*
X158679624Y-87991980D01*
X158679624Y-87991980D02*
X158632005Y-87896742D01*
X158632005Y-87896742D02*
X158584386Y-87706266D01*
X158584386Y-87706266D02*
X158584386Y-87468171D01*
X158584386Y-87468171D02*
X158632005Y-87277695D01*
X158632005Y-87277695D02*
X158679624Y-87182457D01*
X158679624Y-87182457D02*
X158727243Y-87134838D01*
X158727243Y-87134838D02*
X158822481Y-87087219D01*
X159727243Y-87515790D02*
X159632005Y-87468171D01*
X159632005Y-87468171D02*
X159584386Y-87420552D01*
X159584386Y-87420552D02*
X159536767Y-87325314D01*
X159536767Y-87325314D02*
X159536767Y-87277695D01*
X159536767Y-87277695D02*
X159584386Y-87182457D01*
X159584386Y-87182457D02*
X159632005Y-87134838D01*
X159632005Y-87134838D02*
X159727243Y-87087219D01*
X159727243Y-87087219D02*
X159917719Y-87087219D01*
X159917719Y-87087219D02*
X160012957Y-87134838D01*
X160012957Y-87134838D02*
X160060576Y-87182457D01*
X160060576Y-87182457D02*
X160108195Y-87277695D01*
X160108195Y-87277695D02*
X160108195Y-87325314D01*
X160108195Y-87325314D02*
X160060576Y-87420552D01*
X160060576Y-87420552D02*
X160012957Y-87468171D01*
X160012957Y-87468171D02*
X159917719Y-87515790D01*
X159917719Y-87515790D02*
X159727243Y-87515790D01*
X159727243Y-87515790D02*
X159632005Y-87563409D01*
X159632005Y-87563409D02*
X159584386Y-87611028D01*
X159584386Y-87611028D02*
X159536767Y-87706266D01*
X159536767Y-87706266D02*
X159536767Y-87896742D01*
X159536767Y-87896742D02*
X159584386Y-87991980D01*
X159584386Y-87991980D02*
X159632005Y-88039600D01*
X159632005Y-88039600D02*
X159727243Y-88087219D01*
X159727243Y-88087219D02*
X159917719Y-88087219D01*
X159917719Y-88087219D02*
X160012957Y-88039600D01*
X160012957Y-88039600D02*
X160060576Y-87991980D01*
X160060576Y-87991980D02*
X160108195Y-87896742D01*
X160108195Y-87896742D02*
X160108195Y-87706266D01*
X160108195Y-87706266D02*
X160060576Y-87611028D01*
X160060576Y-87611028D02*
X160012957Y-87563409D01*
X160012957Y-87563409D02*
X159917719Y-87515790D01*
X157251052Y-89837219D02*
X156917719Y-89361028D01*
X156679624Y-89837219D02*
X156679624Y-88837219D01*
X156679624Y-88837219D02*
X157060576Y-88837219D01*
X157060576Y-88837219D02*
X157155814Y-88884838D01*
X157155814Y-88884838D02*
X157203433Y-88932457D01*
X157203433Y-88932457D02*
X157251052Y-89027695D01*
X157251052Y-89027695D02*
X157251052Y-89170552D01*
X157251052Y-89170552D02*
X157203433Y-89265790D01*
X157203433Y-89265790D02*
X157155814Y-89313409D01*
X157155814Y-89313409D02*
X157060576Y-89361028D01*
X157060576Y-89361028D02*
X156679624Y-89361028D01*
X158203433Y-89837219D02*
X157632005Y-89837219D01*
X157917719Y-89837219D02*
X157917719Y-88837219D01*
X157917719Y-88837219D02*
X157822481Y-88980076D01*
X157822481Y-88980076D02*
X157727243Y-89075314D01*
X157727243Y-89075314D02*
X157632005Y-89122933D01*
X158822481Y-88837219D02*
X158917719Y-88837219D01*
X158917719Y-88837219D02*
X159012957Y-88884838D01*
X159012957Y-88884838D02*
X159060576Y-88932457D01*
X159060576Y-88932457D02*
X159108195Y-89027695D01*
X159108195Y-89027695D02*
X159155814Y-89218171D01*
X159155814Y-89218171D02*
X159155814Y-89456266D01*
X159155814Y-89456266D02*
X159108195Y-89646742D01*
X159108195Y-89646742D02*
X159060576Y-89741980D01*
X159060576Y-89741980D02*
X159012957Y-89789600D01*
X159012957Y-89789600D02*
X158917719Y-89837219D01*
X158917719Y-89837219D02*
X158822481Y-89837219D01*
X158822481Y-89837219D02*
X158727243Y-89789600D01*
X158727243Y-89789600D02*
X158679624Y-89741980D01*
X158679624Y-89741980D02*
X158632005Y-89646742D01*
X158632005Y-89646742D02*
X158584386Y-89456266D01*
X158584386Y-89456266D02*
X158584386Y-89218171D01*
X158584386Y-89218171D02*
X158632005Y-89027695D01*
X158632005Y-89027695D02*
X158679624Y-88932457D01*
X158679624Y-88932457D02*
X158727243Y-88884838D01*
X158727243Y-88884838D02*
X158822481Y-88837219D01*
X159632005Y-89837219D02*
X159822481Y-89837219D01*
X159822481Y-89837219D02*
X159917719Y-89789600D01*
X159917719Y-89789600D02*
X159965338Y-89741980D01*
X159965338Y-89741980D02*
X160060576Y-89599123D01*
X160060576Y-89599123D02*
X160108195Y-89408647D01*
X160108195Y-89408647D02*
X160108195Y-89027695D01*
X160108195Y-89027695D02*
X160060576Y-88932457D01*
X160060576Y-88932457D02*
X160012957Y-88884838D01*
X160012957Y-88884838D02*
X159917719Y-88837219D01*
X159917719Y-88837219D02*
X159727243Y-88837219D01*
X159727243Y-88837219D02*
X159632005Y-88884838D01*
X159632005Y-88884838D02*
X159584386Y-88932457D01*
X159584386Y-88932457D02*
X159536767Y-89027695D01*
X159536767Y-89027695D02*
X159536767Y-89265790D01*
X159536767Y-89265790D02*
X159584386Y-89361028D01*
X159584386Y-89361028D02*
X159632005Y-89408647D01*
X159632005Y-89408647D02*
X159727243Y-89456266D01*
X159727243Y-89456266D02*
X159917719Y-89456266D01*
X159917719Y-89456266D02*
X160012957Y-89408647D01*
X160012957Y-89408647D02*
X160060576Y-89361028D01*
X160060576Y-89361028D02*
X160108195Y-89265790D01*
X157251052Y-91587219D02*
X156917719Y-91111028D01*
X156679624Y-91587219D02*
X156679624Y-90587219D01*
X156679624Y-90587219D02*
X157060576Y-90587219D01*
X157060576Y-90587219D02*
X157155814Y-90634838D01*
X157155814Y-90634838D02*
X157203433Y-90682457D01*
X157203433Y-90682457D02*
X157251052Y-90777695D01*
X157251052Y-90777695D02*
X157251052Y-90920552D01*
X157251052Y-90920552D02*
X157203433Y-91015790D01*
X157203433Y-91015790D02*
X157155814Y-91063409D01*
X157155814Y-91063409D02*
X157060576Y-91111028D01*
X157060576Y-91111028D02*
X156679624Y-91111028D01*
X158203433Y-91587219D02*
X157632005Y-91587219D01*
X157917719Y-91587219D02*
X157917719Y-90587219D01*
X157917719Y-90587219D02*
X157822481Y-90730076D01*
X157822481Y-90730076D02*
X157727243Y-90825314D01*
X157727243Y-90825314D02*
X157632005Y-90872933D01*
X159155814Y-91587219D02*
X158584386Y-91587219D01*
X158870100Y-91587219D02*
X158870100Y-90587219D01*
X158870100Y-90587219D02*
X158774862Y-90730076D01*
X158774862Y-90730076D02*
X158679624Y-90825314D01*
X158679624Y-90825314D02*
X158584386Y-90872933D01*
X159774862Y-90587219D02*
X159870100Y-90587219D01*
X159870100Y-90587219D02*
X159965338Y-90634838D01*
X159965338Y-90634838D02*
X160012957Y-90682457D01*
X160012957Y-90682457D02*
X160060576Y-90777695D01*
X160060576Y-90777695D02*
X160108195Y-90968171D01*
X160108195Y-90968171D02*
X160108195Y-91206266D01*
X160108195Y-91206266D02*
X160060576Y-91396742D01*
X160060576Y-91396742D02*
X160012957Y-91491980D01*
X160012957Y-91491980D02*
X159965338Y-91539600D01*
X159965338Y-91539600D02*
X159870100Y-91587219D01*
X159870100Y-91587219D02*
X159774862Y-91587219D01*
X159774862Y-91587219D02*
X159679624Y-91539600D01*
X159679624Y-91539600D02*
X159632005Y-91491980D01*
X159632005Y-91491980D02*
X159584386Y-91396742D01*
X159584386Y-91396742D02*
X159536767Y-91206266D01*
X159536767Y-91206266D02*
X159536767Y-90968171D01*
X159536767Y-90968171D02*
X159584386Y-90777695D01*
X159584386Y-90777695D02*
X159632005Y-90682457D01*
X159632005Y-90682457D02*
X159679624Y-90634838D01*
X159679624Y-90634838D02*
X159774862Y-90587219D01*
X157251052Y-93337219D02*
X156917719Y-92861028D01*
X156679624Y-93337219D02*
X156679624Y-92337219D01*
X156679624Y-92337219D02*
X157060576Y-92337219D01*
X157060576Y-92337219D02*
X157155814Y-92384838D01*
X157155814Y-92384838D02*
X157203433Y-92432457D01*
X157203433Y-92432457D02*
X157251052Y-92527695D01*
X157251052Y-92527695D02*
X157251052Y-92670552D01*
X157251052Y-92670552D02*
X157203433Y-92765790D01*
X157203433Y-92765790D02*
X157155814Y-92813409D01*
X157155814Y-92813409D02*
X157060576Y-92861028D01*
X157060576Y-92861028D02*
X156679624Y-92861028D01*
X158203433Y-93337219D02*
X157632005Y-93337219D01*
X157917719Y-93337219D02*
X157917719Y-92337219D01*
X157917719Y-92337219D02*
X157822481Y-92480076D01*
X157822481Y-92480076D02*
X157727243Y-92575314D01*
X157727243Y-92575314D02*
X157632005Y-92622933D01*
X159155814Y-93337219D02*
X158584386Y-93337219D01*
X158870100Y-93337219D02*
X158870100Y-92337219D01*
X158870100Y-92337219D02*
X158774862Y-92480076D01*
X158774862Y-92480076D02*
X158679624Y-92575314D01*
X158679624Y-92575314D02*
X158584386Y-92622933D01*
X160108195Y-93337219D02*
X159536767Y-93337219D01*
X159822481Y-93337219D02*
X159822481Y-92337219D01*
X159822481Y-92337219D02*
X159727243Y-92480076D01*
X159727243Y-92480076D02*
X159632005Y-92575314D01*
X159632005Y-92575314D02*
X159536767Y-92622933D01*
X157251052Y-95087219D02*
X156917719Y-94611028D01*
X156679624Y-95087219D02*
X156679624Y-94087219D01*
X156679624Y-94087219D02*
X157060576Y-94087219D01*
X157060576Y-94087219D02*
X157155814Y-94134838D01*
X157155814Y-94134838D02*
X157203433Y-94182457D01*
X157203433Y-94182457D02*
X157251052Y-94277695D01*
X157251052Y-94277695D02*
X157251052Y-94420552D01*
X157251052Y-94420552D02*
X157203433Y-94515790D01*
X157203433Y-94515790D02*
X157155814Y-94563409D01*
X157155814Y-94563409D02*
X157060576Y-94611028D01*
X157060576Y-94611028D02*
X156679624Y-94611028D01*
X158203433Y-95087219D02*
X157632005Y-95087219D01*
X157917719Y-95087219D02*
X157917719Y-94087219D01*
X157917719Y-94087219D02*
X157822481Y-94230076D01*
X157822481Y-94230076D02*
X157727243Y-94325314D01*
X157727243Y-94325314D02*
X157632005Y-94372933D01*
X159155814Y-95087219D02*
X158584386Y-95087219D01*
X158870100Y-95087219D02*
X158870100Y-94087219D01*
X158870100Y-94087219D02*
X158774862Y-94230076D01*
X158774862Y-94230076D02*
X158679624Y-94325314D01*
X158679624Y-94325314D02*
X158584386Y-94372933D01*
X159536767Y-94182457D02*
X159584386Y-94134838D01*
X159584386Y-94134838D02*
X159679624Y-94087219D01*
X159679624Y-94087219D02*
X159917719Y-94087219D01*
X159917719Y-94087219D02*
X160012957Y-94134838D01*
X160012957Y-94134838D02*
X160060576Y-94182457D01*
X160060576Y-94182457D02*
X160108195Y-94277695D01*
X160108195Y-94277695D02*
X160108195Y-94372933D01*
X160108195Y-94372933D02*
X160060576Y-94515790D01*
X160060576Y-94515790D02*
X159489148Y-95087219D01*
X159489148Y-95087219D02*
X160108195Y-95087219D01*
X157251052Y-96837219D02*
X156917719Y-96361028D01*
X156679624Y-96837219D02*
X156679624Y-95837219D01*
X156679624Y-95837219D02*
X157060576Y-95837219D01*
X157060576Y-95837219D02*
X157155814Y-95884838D01*
X157155814Y-95884838D02*
X157203433Y-95932457D01*
X157203433Y-95932457D02*
X157251052Y-96027695D01*
X157251052Y-96027695D02*
X157251052Y-96170552D01*
X157251052Y-96170552D02*
X157203433Y-96265790D01*
X157203433Y-96265790D02*
X157155814Y-96313409D01*
X157155814Y-96313409D02*
X157060576Y-96361028D01*
X157060576Y-96361028D02*
X156679624Y-96361028D01*
X158203433Y-96837219D02*
X157632005Y-96837219D01*
X157917719Y-96837219D02*
X157917719Y-95837219D01*
X157917719Y-95837219D02*
X157822481Y-95980076D01*
X157822481Y-95980076D02*
X157727243Y-96075314D01*
X157727243Y-96075314D02*
X157632005Y-96122933D01*
X159155814Y-96837219D02*
X158584386Y-96837219D01*
X158870100Y-96837219D02*
X158870100Y-95837219D01*
X158870100Y-95837219D02*
X158774862Y-95980076D01*
X158774862Y-95980076D02*
X158679624Y-96075314D01*
X158679624Y-96075314D02*
X158584386Y-96122933D01*
X159489148Y-95837219D02*
X160108195Y-95837219D01*
X160108195Y-95837219D02*
X159774862Y-96218171D01*
X159774862Y-96218171D02*
X159917719Y-96218171D01*
X159917719Y-96218171D02*
X160012957Y-96265790D01*
X160012957Y-96265790D02*
X160060576Y-96313409D01*
X160060576Y-96313409D02*
X160108195Y-96408647D01*
X160108195Y-96408647D02*
X160108195Y-96646742D01*
X160108195Y-96646742D02*
X160060576Y-96741980D01*
X160060576Y-96741980D02*
X160012957Y-96789600D01*
X160012957Y-96789600D02*
X159917719Y-96837219D01*
X159917719Y-96837219D02*
X159632005Y-96837219D01*
X159632005Y-96837219D02*
X159536767Y-96789600D01*
X159536767Y-96789600D02*
X159489148Y-96741980D01*
X135251052Y-87237219D02*
X134917719Y-86761028D01*
X134679624Y-87237219D02*
X134679624Y-86237219D01*
X134679624Y-86237219D02*
X135060576Y-86237219D01*
X135060576Y-86237219D02*
X135155814Y-86284838D01*
X135155814Y-86284838D02*
X135203433Y-86332457D01*
X135203433Y-86332457D02*
X135251052Y-86427695D01*
X135251052Y-86427695D02*
X135251052Y-86570552D01*
X135251052Y-86570552D02*
X135203433Y-86665790D01*
X135203433Y-86665790D02*
X135155814Y-86713409D01*
X135155814Y-86713409D02*
X135060576Y-86761028D01*
X135060576Y-86761028D02*
X134679624Y-86761028D01*
X136203433Y-87237219D02*
X135632005Y-87237219D01*
X135917719Y-87237219D02*
X135917719Y-86237219D01*
X135917719Y-86237219D02*
X135822481Y-86380076D01*
X135822481Y-86380076D02*
X135727243Y-86475314D01*
X135727243Y-86475314D02*
X135632005Y-86522933D01*
X137155814Y-87237219D02*
X136584386Y-87237219D01*
X136870100Y-87237219D02*
X136870100Y-86237219D01*
X136870100Y-86237219D02*
X136774862Y-86380076D01*
X136774862Y-86380076D02*
X136679624Y-86475314D01*
X136679624Y-86475314D02*
X136584386Y-86522933D01*
X138012957Y-86570552D02*
X138012957Y-87237219D01*
X137774862Y-86189600D02*
X137536767Y-86903885D01*
X137536767Y-86903885D02*
X138155814Y-86903885D01*
X135251052Y-88487219D02*
X134917719Y-88011028D01*
X134679624Y-88487219D02*
X134679624Y-87487219D01*
X134679624Y-87487219D02*
X135060576Y-87487219D01*
X135060576Y-87487219D02*
X135155814Y-87534838D01*
X135155814Y-87534838D02*
X135203433Y-87582457D01*
X135203433Y-87582457D02*
X135251052Y-87677695D01*
X135251052Y-87677695D02*
X135251052Y-87820552D01*
X135251052Y-87820552D02*
X135203433Y-87915790D01*
X135203433Y-87915790D02*
X135155814Y-87963409D01*
X135155814Y-87963409D02*
X135060576Y-88011028D01*
X135060576Y-88011028D02*
X134679624Y-88011028D01*
X136203433Y-88487219D02*
X135632005Y-88487219D01*
X135917719Y-88487219D02*
X135917719Y-87487219D01*
X135917719Y-87487219D02*
X135822481Y-87630076D01*
X135822481Y-87630076D02*
X135727243Y-87725314D01*
X135727243Y-87725314D02*
X135632005Y-87772933D01*
X137155814Y-88487219D02*
X136584386Y-88487219D01*
X136870100Y-88487219D02*
X136870100Y-87487219D01*
X136870100Y-87487219D02*
X136774862Y-87630076D01*
X136774862Y-87630076D02*
X136679624Y-87725314D01*
X136679624Y-87725314D02*
X136584386Y-87772933D01*
X138060576Y-87487219D02*
X137584386Y-87487219D01*
X137584386Y-87487219D02*
X137536767Y-87963409D01*
X137536767Y-87963409D02*
X137584386Y-87915790D01*
X137584386Y-87915790D02*
X137679624Y-87868171D01*
X137679624Y-87868171D02*
X137917719Y-87868171D01*
X137917719Y-87868171D02*
X138012957Y-87915790D01*
X138012957Y-87915790D02*
X138060576Y-87963409D01*
X138060576Y-87963409D02*
X138108195Y-88058647D01*
X138108195Y-88058647D02*
X138108195Y-88296742D01*
X138108195Y-88296742D02*
X138060576Y-88391980D01*
X138060576Y-88391980D02*
X138012957Y-88439600D01*
X138012957Y-88439600D02*
X137917719Y-88487219D01*
X137917719Y-88487219D02*
X137679624Y-88487219D01*
X137679624Y-88487219D02*
X137584386Y-88439600D01*
X137584386Y-88439600D02*
X137536767Y-88391980D01*
X135251052Y-89737219D02*
X134917719Y-89261028D01*
X134679624Y-89737219D02*
X134679624Y-88737219D01*
X134679624Y-88737219D02*
X135060576Y-88737219D01*
X135060576Y-88737219D02*
X135155814Y-88784838D01*
X135155814Y-88784838D02*
X135203433Y-88832457D01*
X135203433Y-88832457D02*
X135251052Y-88927695D01*
X135251052Y-88927695D02*
X135251052Y-89070552D01*
X135251052Y-89070552D02*
X135203433Y-89165790D01*
X135203433Y-89165790D02*
X135155814Y-89213409D01*
X135155814Y-89213409D02*
X135060576Y-89261028D01*
X135060576Y-89261028D02*
X134679624Y-89261028D01*
X136203433Y-89737219D02*
X135632005Y-89737219D01*
X135917719Y-89737219D02*
X135917719Y-88737219D01*
X135917719Y-88737219D02*
X135822481Y-88880076D01*
X135822481Y-88880076D02*
X135727243Y-88975314D01*
X135727243Y-88975314D02*
X135632005Y-89022933D01*
X137155814Y-89737219D02*
X136584386Y-89737219D01*
X136870100Y-89737219D02*
X136870100Y-88737219D01*
X136870100Y-88737219D02*
X136774862Y-88880076D01*
X136774862Y-88880076D02*
X136679624Y-88975314D01*
X136679624Y-88975314D02*
X136584386Y-89022933D01*
X138012957Y-88737219D02*
X137822481Y-88737219D01*
X137822481Y-88737219D02*
X137727243Y-88784838D01*
X137727243Y-88784838D02*
X137679624Y-88832457D01*
X137679624Y-88832457D02*
X137584386Y-88975314D01*
X137584386Y-88975314D02*
X137536767Y-89165790D01*
X137536767Y-89165790D02*
X137536767Y-89546742D01*
X137536767Y-89546742D02*
X137584386Y-89641980D01*
X137584386Y-89641980D02*
X137632005Y-89689600D01*
X137632005Y-89689600D02*
X137727243Y-89737219D01*
X137727243Y-89737219D02*
X137917719Y-89737219D01*
X137917719Y-89737219D02*
X138012957Y-89689600D01*
X138012957Y-89689600D02*
X138060576Y-89641980D01*
X138060576Y-89641980D02*
X138108195Y-89546742D01*
X138108195Y-89546742D02*
X138108195Y-89308647D01*
X138108195Y-89308647D02*
X138060576Y-89213409D01*
X138060576Y-89213409D02*
X138012957Y-89165790D01*
X138012957Y-89165790D02*
X137917719Y-89118171D01*
X137917719Y-89118171D02*
X137727243Y-89118171D01*
X137727243Y-89118171D02*
X137632005Y-89165790D01*
X137632005Y-89165790D02*
X137584386Y-89213409D01*
X137584386Y-89213409D02*
X137536767Y-89308647D01*
X122824919Y-88501447D02*
X122348728Y-88834780D01*
X122824919Y-89072875D02*
X121824919Y-89072875D01*
X121824919Y-89072875D02*
X121824919Y-88691923D01*
X121824919Y-88691923D02*
X121872538Y-88596685D01*
X121872538Y-88596685D02*
X121920157Y-88549066D01*
X121920157Y-88549066D02*
X122015395Y-88501447D01*
X122015395Y-88501447D02*
X122158252Y-88501447D01*
X122158252Y-88501447D02*
X122253490Y-88549066D01*
X122253490Y-88549066D02*
X122301109Y-88596685D01*
X122301109Y-88596685D02*
X122348728Y-88691923D01*
X122348728Y-88691923D02*
X122348728Y-89072875D01*
X122824919Y-87549066D02*
X122824919Y-88120494D01*
X122824919Y-87834780D02*
X121824919Y-87834780D01*
X121824919Y-87834780D02*
X121967776Y-87930018D01*
X121967776Y-87930018D02*
X122063014Y-88025256D01*
X122063014Y-88025256D02*
X122110633Y-88120494D01*
X122824919Y-86596685D02*
X122824919Y-87168113D01*
X122824919Y-86882399D02*
X121824919Y-86882399D01*
X121824919Y-86882399D02*
X121967776Y-86977637D01*
X121967776Y-86977637D02*
X122063014Y-87072875D01*
X122063014Y-87072875D02*
X122110633Y-87168113D01*
X121824919Y-86263351D02*
X121824919Y-85596685D01*
X121824919Y-85596685D02*
X122824919Y-86025256D01*
X157251052Y-79337219D02*
X156917719Y-78861028D01*
X156679624Y-79337219D02*
X156679624Y-78337219D01*
X156679624Y-78337219D02*
X157060576Y-78337219D01*
X157060576Y-78337219D02*
X157155814Y-78384838D01*
X157155814Y-78384838D02*
X157203433Y-78432457D01*
X157203433Y-78432457D02*
X157251052Y-78527695D01*
X157251052Y-78527695D02*
X157251052Y-78670552D01*
X157251052Y-78670552D02*
X157203433Y-78765790D01*
X157203433Y-78765790D02*
X157155814Y-78813409D01*
X157155814Y-78813409D02*
X157060576Y-78861028D01*
X157060576Y-78861028D02*
X156679624Y-78861028D01*
X158203433Y-79337219D02*
X157632005Y-79337219D01*
X157917719Y-79337219D02*
X157917719Y-78337219D01*
X157917719Y-78337219D02*
X157822481Y-78480076D01*
X157822481Y-78480076D02*
X157727243Y-78575314D01*
X157727243Y-78575314D02*
X157632005Y-78622933D01*
X158822481Y-78337219D02*
X158917719Y-78337219D01*
X158917719Y-78337219D02*
X159012957Y-78384838D01*
X159012957Y-78384838D02*
X159060576Y-78432457D01*
X159060576Y-78432457D02*
X159108195Y-78527695D01*
X159108195Y-78527695D02*
X159155814Y-78718171D01*
X159155814Y-78718171D02*
X159155814Y-78956266D01*
X159155814Y-78956266D02*
X159108195Y-79146742D01*
X159108195Y-79146742D02*
X159060576Y-79241980D01*
X159060576Y-79241980D02*
X159012957Y-79289600D01*
X159012957Y-79289600D02*
X158917719Y-79337219D01*
X158917719Y-79337219D02*
X158822481Y-79337219D01*
X158822481Y-79337219D02*
X158727243Y-79289600D01*
X158727243Y-79289600D02*
X158679624Y-79241980D01*
X158679624Y-79241980D02*
X158632005Y-79146742D01*
X158632005Y-79146742D02*
X158584386Y-78956266D01*
X158584386Y-78956266D02*
X158584386Y-78718171D01*
X158584386Y-78718171D02*
X158632005Y-78527695D01*
X158632005Y-78527695D02*
X158679624Y-78432457D01*
X158679624Y-78432457D02*
X158727243Y-78384838D01*
X158727243Y-78384838D02*
X158822481Y-78337219D01*
X159489148Y-78337219D02*
X160108195Y-78337219D01*
X160108195Y-78337219D02*
X159774862Y-78718171D01*
X159774862Y-78718171D02*
X159917719Y-78718171D01*
X159917719Y-78718171D02*
X160012957Y-78765790D01*
X160012957Y-78765790D02*
X160060576Y-78813409D01*
X160060576Y-78813409D02*
X160108195Y-78908647D01*
X160108195Y-78908647D02*
X160108195Y-79146742D01*
X160108195Y-79146742D02*
X160060576Y-79241980D01*
X160060576Y-79241980D02*
X160012957Y-79289600D01*
X160012957Y-79289600D02*
X159917719Y-79337219D01*
X159917719Y-79337219D02*
X159632005Y-79337219D01*
X159632005Y-79337219D02*
X159536767Y-79289600D01*
X159536767Y-79289600D02*
X159489148Y-79241980D01*
X129584385Y-95837219D02*
X129584385Y-96551504D01*
X129584385Y-96551504D02*
X129536766Y-96694361D01*
X129536766Y-96694361D02*
X129441528Y-96789600D01*
X129441528Y-96789600D02*
X129298671Y-96837219D01*
X129298671Y-96837219D02*
X129203433Y-96837219D01*
X130060576Y-96837219D02*
X130060576Y-95837219D01*
X130060576Y-95837219D02*
X130441528Y-95837219D01*
X130441528Y-95837219D02*
X130536766Y-95884838D01*
X130536766Y-95884838D02*
X130584385Y-95932457D01*
X130584385Y-95932457D02*
X130632004Y-96027695D01*
X130632004Y-96027695D02*
X130632004Y-96170552D01*
X130632004Y-96170552D02*
X130584385Y-96265790D01*
X130584385Y-96265790D02*
X130536766Y-96313409D01*
X130536766Y-96313409D02*
X130441528Y-96361028D01*
X130441528Y-96361028D02*
X130060576Y-96361028D01*
X131584385Y-96837219D02*
X131012957Y-96837219D01*
X131298671Y-96837219D02*
X131298671Y-95837219D01*
X131298671Y-95837219D02*
X131203433Y-95980076D01*
X131203433Y-95980076D02*
X131108195Y-96075314D01*
X131108195Y-96075314D02*
X131012957Y-96122933D01*
X132203433Y-95837219D02*
X132298671Y-95837219D01*
X132298671Y-95837219D02*
X132393909Y-95884838D01*
X132393909Y-95884838D02*
X132441528Y-95932457D01*
X132441528Y-95932457D02*
X132489147Y-96027695D01*
X132489147Y-96027695D02*
X132536766Y-96218171D01*
X132536766Y-96218171D02*
X132536766Y-96456266D01*
X132536766Y-96456266D02*
X132489147Y-96646742D01*
X132489147Y-96646742D02*
X132441528Y-96741980D01*
X132441528Y-96741980D02*
X132393909Y-96789600D01*
X132393909Y-96789600D02*
X132298671Y-96837219D01*
X132298671Y-96837219D02*
X132203433Y-96837219D01*
X132203433Y-96837219D02*
X132108195Y-96789600D01*
X132108195Y-96789600D02*
X132060576Y-96741980D01*
X132060576Y-96741980D02*
X132012957Y-96646742D01*
X132012957Y-96646742D02*
X131965338Y-96456266D01*
X131965338Y-96456266D02*
X131965338Y-96218171D01*
X131965338Y-96218171D02*
X132012957Y-96027695D01*
X132012957Y-96027695D02*
X132060576Y-95932457D01*
X132060576Y-95932457D02*
X132108195Y-95884838D01*
X132108195Y-95884838D02*
X132203433Y-95837219D01*
X132917719Y-95932457D02*
X132965338Y-95884838D01*
X132965338Y-95884838D02*
X133060576Y-95837219D01*
X133060576Y-95837219D02*
X133298671Y-95837219D01*
X133298671Y-95837219D02*
X133393909Y-95884838D01*
X133393909Y-95884838D02*
X133441528Y-95932457D01*
X133441528Y-95932457D02*
X133489147Y-96027695D01*
X133489147Y-96027695D02*
X133489147Y-96122933D01*
X133489147Y-96122933D02*
X133441528Y-96265790D01*
X133441528Y-96265790D02*
X132870100Y-96837219D01*
X132870100Y-96837219D02*
X133489147Y-96837219D01*
X156724919Y-107346685D02*
X157534442Y-107346685D01*
X157534442Y-107346685D02*
X157629680Y-107299066D01*
X157629680Y-107299066D02*
X157677300Y-107251447D01*
X157677300Y-107251447D02*
X157724919Y-107156209D01*
X157724919Y-107156209D02*
X157724919Y-106965733D01*
X157724919Y-106965733D02*
X157677300Y-106870495D01*
X157677300Y-106870495D02*
X157629680Y-106822876D01*
X157629680Y-106822876D02*
X157534442Y-106775257D01*
X157534442Y-106775257D02*
X156724919Y-106775257D01*
X157724919Y-105775257D02*
X157724919Y-106346685D01*
X157724919Y-106060971D02*
X156724919Y-106060971D01*
X156724919Y-106060971D02*
X156867776Y-106156209D01*
X156867776Y-106156209D02*
X156963014Y-106251447D01*
X156963014Y-106251447D02*
X157010633Y-106346685D01*
X156724919Y-105156209D02*
X156724919Y-105060971D01*
X156724919Y-105060971D02*
X156772538Y-104965733D01*
X156772538Y-104965733D02*
X156820157Y-104918114D01*
X156820157Y-104918114D02*
X156915395Y-104870495D01*
X156915395Y-104870495D02*
X157105871Y-104822876D01*
X157105871Y-104822876D02*
X157343966Y-104822876D01*
X157343966Y-104822876D02*
X157534442Y-104870495D01*
X157534442Y-104870495D02*
X157629680Y-104918114D01*
X157629680Y-104918114D02*
X157677300Y-104965733D01*
X157677300Y-104965733D02*
X157724919Y-105060971D01*
X157724919Y-105060971D02*
X157724919Y-105156209D01*
X157724919Y-105156209D02*
X157677300Y-105251447D01*
X157677300Y-105251447D02*
X157629680Y-105299066D01*
X157629680Y-105299066D02*
X157534442Y-105346685D01*
X157534442Y-105346685D02*
X157343966Y-105394304D01*
X157343966Y-105394304D02*
X157105871Y-105394304D01*
X157105871Y-105394304D02*
X156915395Y-105346685D01*
X156915395Y-105346685D02*
X156820157Y-105299066D01*
X156820157Y-105299066D02*
X156772538Y-105251447D01*
X156772538Y-105251447D02*
X156724919Y-105156209D01*
X157724919Y-103870495D02*
X157724919Y-104441923D01*
X157724919Y-104156209D02*
X156724919Y-104156209D01*
X156724919Y-104156209D02*
X156867776Y-104251447D01*
X156867776Y-104251447D02*
X156963014Y-104346685D01*
X156963014Y-104346685D02*
X157010633Y-104441923D01*
X125934385Y-58457219D02*
X125934385Y-59171504D01*
X125934385Y-59171504D02*
X125886766Y-59314361D01*
X125886766Y-59314361D02*
X125791528Y-59409600D01*
X125791528Y-59409600D02*
X125648671Y-59457219D01*
X125648671Y-59457219D02*
X125553433Y-59457219D01*
X126934385Y-59457219D02*
X126362957Y-59457219D01*
X126648671Y-59457219D02*
X126648671Y-58457219D01*
X126648671Y-58457219D02*
X126553433Y-58600076D01*
X126553433Y-58600076D02*
X126458195Y-58695314D01*
X126458195Y-58695314D02*
X126362957Y-58742933D01*
X127553433Y-58457219D02*
X127648671Y-58457219D01*
X127648671Y-58457219D02*
X127743909Y-58504838D01*
X127743909Y-58504838D02*
X127791528Y-58552457D01*
X127791528Y-58552457D02*
X127839147Y-58647695D01*
X127839147Y-58647695D02*
X127886766Y-58838171D01*
X127886766Y-58838171D02*
X127886766Y-59076266D01*
X127886766Y-59076266D02*
X127839147Y-59266742D01*
X127839147Y-59266742D02*
X127791528Y-59361980D01*
X127791528Y-59361980D02*
X127743909Y-59409600D01*
X127743909Y-59409600D02*
X127648671Y-59457219D01*
X127648671Y-59457219D02*
X127553433Y-59457219D01*
X127553433Y-59457219D02*
X127458195Y-59409600D01*
X127458195Y-59409600D02*
X127410576Y-59361980D01*
X127410576Y-59361980D02*
X127362957Y-59266742D01*
X127362957Y-59266742D02*
X127315338Y-59076266D01*
X127315338Y-59076266D02*
X127315338Y-58838171D01*
X127315338Y-58838171D02*
X127362957Y-58647695D01*
X127362957Y-58647695D02*
X127410576Y-58552457D01*
X127410576Y-58552457D02*
X127458195Y-58504838D01*
X127458195Y-58504838D02*
X127553433Y-58457219D01*
X128267719Y-58552457D02*
X128315338Y-58504838D01*
X128315338Y-58504838D02*
X128410576Y-58457219D01*
X128410576Y-58457219D02*
X128648671Y-58457219D01*
X128648671Y-58457219D02*
X128743909Y-58504838D01*
X128743909Y-58504838D02*
X128791528Y-58552457D01*
X128791528Y-58552457D02*
X128839147Y-58647695D01*
X128839147Y-58647695D02*
X128839147Y-58742933D01*
X128839147Y-58742933D02*
X128791528Y-58885790D01*
X128791528Y-58885790D02*
X128220100Y-59457219D01*
X128220100Y-59457219D02*
X128839147Y-59457219D01*
X130155814Y-73587219D02*
X130155814Y-74396742D01*
X130155814Y-74396742D02*
X130203433Y-74491980D01*
X130203433Y-74491980D02*
X130251052Y-74539600D01*
X130251052Y-74539600D02*
X130346290Y-74587219D01*
X130346290Y-74587219D02*
X130536766Y-74587219D01*
X130536766Y-74587219D02*
X130632004Y-74539600D01*
X130632004Y-74539600D02*
X130679623Y-74491980D01*
X130679623Y-74491980D02*
X130727242Y-74396742D01*
X130727242Y-74396742D02*
X130727242Y-73587219D01*
X131727242Y-74587219D02*
X131155814Y-74587219D01*
X131441528Y-74587219D02*
X131441528Y-73587219D01*
X131441528Y-73587219D02*
X131346290Y-73730076D01*
X131346290Y-73730076D02*
X131251052Y-73825314D01*
X131251052Y-73825314D02*
X131155814Y-73872933D01*
X132346290Y-73587219D02*
X132441528Y-73587219D01*
X132441528Y-73587219D02*
X132536766Y-73634838D01*
X132536766Y-73634838D02*
X132584385Y-73682457D01*
X132584385Y-73682457D02*
X132632004Y-73777695D01*
X132632004Y-73777695D02*
X132679623Y-73968171D01*
X132679623Y-73968171D02*
X132679623Y-74206266D01*
X132679623Y-74206266D02*
X132632004Y-74396742D01*
X132632004Y-74396742D02*
X132584385Y-74491980D01*
X132584385Y-74491980D02*
X132536766Y-74539600D01*
X132536766Y-74539600D02*
X132441528Y-74587219D01*
X132441528Y-74587219D02*
X132346290Y-74587219D01*
X132346290Y-74587219D02*
X132251052Y-74539600D01*
X132251052Y-74539600D02*
X132203433Y-74491980D01*
X132203433Y-74491980D02*
X132155814Y-74396742D01*
X132155814Y-74396742D02*
X132108195Y-74206266D01*
X132108195Y-74206266D02*
X132108195Y-73968171D01*
X132108195Y-73968171D02*
X132155814Y-73777695D01*
X132155814Y-73777695D02*
X132203433Y-73682457D01*
X132203433Y-73682457D02*
X132251052Y-73634838D01*
X132251052Y-73634838D02*
X132346290Y-73587219D01*
X133060576Y-73682457D02*
X133108195Y-73634838D01*
X133108195Y-73634838D02*
X133203433Y-73587219D01*
X133203433Y-73587219D02*
X133441528Y-73587219D01*
X133441528Y-73587219D02*
X133536766Y-73634838D01*
X133536766Y-73634838D02*
X133584385Y-73682457D01*
X133584385Y-73682457D02*
X133632004Y-73777695D01*
X133632004Y-73777695D02*
X133632004Y-73872933D01*
X133632004Y-73872933D02*
X133584385Y-74015790D01*
X133584385Y-74015790D02*
X133012957Y-74587219D01*
X133012957Y-74587219D02*
X133632004Y-74587219D01*
X125929624Y-64337219D02*
X125929624Y-63337219D01*
X125929624Y-63337219D02*
X126167719Y-63337219D01*
X126167719Y-63337219D02*
X126310576Y-63384838D01*
X126310576Y-63384838D02*
X126405814Y-63480076D01*
X126405814Y-63480076D02*
X126453433Y-63575314D01*
X126453433Y-63575314D02*
X126501052Y-63765790D01*
X126501052Y-63765790D02*
X126501052Y-63908647D01*
X126501052Y-63908647D02*
X126453433Y-64099123D01*
X126453433Y-64099123D02*
X126405814Y-64194361D01*
X126405814Y-64194361D02*
X126310576Y-64289600D01*
X126310576Y-64289600D02*
X126167719Y-64337219D01*
X126167719Y-64337219D02*
X125929624Y-64337219D01*
X127453433Y-64337219D02*
X126882005Y-64337219D01*
X127167719Y-64337219D02*
X127167719Y-63337219D01*
X127167719Y-63337219D02*
X127072481Y-63480076D01*
X127072481Y-63480076D02*
X126977243Y-63575314D01*
X126977243Y-63575314D02*
X126882005Y-63622933D01*
X128405814Y-64337219D02*
X127834386Y-64337219D01*
X128120100Y-64337219D02*
X128120100Y-63337219D01*
X128120100Y-63337219D02*
X128024862Y-63480076D01*
X128024862Y-63480076D02*
X127929624Y-63575314D01*
X127929624Y-63575314D02*
X127834386Y-63622933D01*
X129262957Y-63670552D02*
X129262957Y-64337219D01*
X129024862Y-63289600D02*
X128786767Y-64003885D01*
X128786767Y-64003885D02*
X129405814Y-64003885D01*
X157955814Y-51937219D02*
X157955814Y-52746742D01*
X157955814Y-52746742D02*
X158003433Y-52841980D01*
X158003433Y-52841980D02*
X158051052Y-52889600D01*
X158051052Y-52889600D02*
X158146290Y-52937219D01*
X158146290Y-52937219D02*
X158336766Y-52937219D01*
X158336766Y-52937219D02*
X158432004Y-52889600D01*
X158432004Y-52889600D02*
X158479623Y-52841980D01*
X158479623Y-52841980D02*
X158527242Y-52746742D01*
X158527242Y-52746742D02*
X158527242Y-51937219D01*
X158955814Y-52032457D02*
X159003433Y-51984838D01*
X159003433Y-51984838D02*
X159098671Y-51937219D01*
X159098671Y-51937219D02*
X159336766Y-51937219D01*
X159336766Y-51937219D02*
X159432004Y-51984838D01*
X159432004Y-51984838D02*
X159479623Y-52032457D01*
X159479623Y-52032457D02*
X159527242Y-52127695D01*
X159527242Y-52127695D02*
X159527242Y-52222933D01*
X159527242Y-52222933D02*
X159479623Y-52365790D01*
X159479623Y-52365790D02*
X158908195Y-52937219D01*
X158908195Y-52937219D02*
X159527242Y-52937219D01*
X160146290Y-51937219D02*
X160241528Y-51937219D01*
X160241528Y-51937219D02*
X160336766Y-51984838D01*
X160336766Y-51984838D02*
X160384385Y-52032457D01*
X160384385Y-52032457D02*
X160432004Y-52127695D01*
X160432004Y-52127695D02*
X160479623Y-52318171D01*
X160479623Y-52318171D02*
X160479623Y-52556266D01*
X160479623Y-52556266D02*
X160432004Y-52746742D01*
X160432004Y-52746742D02*
X160384385Y-52841980D01*
X160384385Y-52841980D02*
X160336766Y-52889600D01*
X160336766Y-52889600D02*
X160241528Y-52937219D01*
X160241528Y-52937219D02*
X160146290Y-52937219D01*
X160146290Y-52937219D02*
X160051052Y-52889600D01*
X160051052Y-52889600D02*
X160003433Y-52841980D01*
X160003433Y-52841980D02*
X159955814Y-52746742D01*
X159955814Y-52746742D02*
X159908195Y-52556266D01*
X159908195Y-52556266D02*
X159908195Y-52318171D01*
X159908195Y-52318171D02*
X159955814Y-52127695D01*
X159955814Y-52127695D02*
X160003433Y-52032457D01*
X160003433Y-52032457D02*
X160051052Y-51984838D01*
X160051052Y-51984838D02*
X160146290Y-51937219D01*
X161432004Y-52937219D02*
X160860576Y-52937219D01*
X161146290Y-52937219D02*
X161146290Y-51937219D01*
X161146290Y-51937219D02*
X161051052Y-52080076D01*
X161051052Y-52080076D02*
X160955814Y-52175314D01*
X160955814Y-52175314D02*
X160860576Y-52222933D01*
X122074919Y-126322875D02*
X121074919Y-126322875D01*
X121074919Y-126322875D02*
X121074919Y-126084780D01*
X121074919Y-126084780D02*
X121122538Y-125941923D01*
X121122538Y-125941923D02*
X121217776Y-125846685D01*
X121217776Y-125846685D02*
X121313014Y-125799066D01*
X121313014Y-125799066D02*
X121503490Y-125751447D01*
X121503490Y-125751447D02*
X121646347Y-125751447D01*
X121646347Y-125751447D02*
X121836823Y-125799066D01*
X121836823Y-125799066D02*
X121932061Y-125846685D01*
X121932061Y-125846685D02*
X122027300Y-125941923D01*
X122027300Y-125941923D02*
X122074919Y-126084780D01*
X122074919Y-126084780D02*
X122074919Y-126322875D01*
X121170157Y-125370494D02*
X121122538Y-125322875D01*
X121122538Y-125322875D02*
X121074919Y-125227637D01*
X121074919Y-125227637D02*
X121074919Y-124989542D01*
X121074919Y-124989542D02*
X121122538Y-124894304D01*
X121122538Y-124894304D02*
X121170157Y-124846685D01*
X121170157Y-124846685D02*
X121265395Y-124799066D01*
X121265395Y-124799066D02*
X121360633Y-124799066D01*
X121360633Y-124799066D02*
X121503490Y-124846685D01*
X121503490Y-124846685D02*
X122074919Y-125418113D01*
X122074919Y-125418113D02*
X122074919Y-124799066D01*
X121074919Y-124180018D02*
X121074919Y-124084780D01*
X121074919Y-124084780D02*
X121122538Y-123989542D01*
X121122538Y-123989542D02*
X121170157Y-123941923D01*
X121170157Y-123941923D02*
X121265395Y-123894304D01*
X121265395Y-123894304D02*
X121455871Y-123846685D01*
X121455871Y-123846685D02*
X121693966Y-123846685D01*
X121693966Y-123846685D02*
X121884442Y-123894304D01*
X121884442Y-123894304D02*
X121979680Y-123941923D01*
X121979680Y-123941923D02*
X122027300Y-123989542D01*
X122027300Y-123989542D02*
X122074919Y-124084780D01*
X122074919Y-124084780D02*
X122074919Y-124180018D01*
X122074919Y-124180018D02*
X122027300Y-124275256D01*
X122027300Y-124275256D02*
X121979680Y-124322875D01*
X121979680Y-124322875D02*
X121884442Y-124370494D01*
X121884442Y-124370494D02*
X121693966Y-124418113D01*
X121693966Y-124418113D02*
X121455871Y-124418113D01*
X121455871Y-124418113D02*
X121265395Y-124370494D01*
X121265395Y-124370494D02*
X121170157Y-124322875D01*
X121170157Y-124322875D02*
X121122538Y-124275256D01*
X121122538Y-124275256D02*
X121074919Y-124180018D01*
X122074919Y-122894304D02*
X122074919Y-123465732D01*
X122074919Y-123180018D02*
X121074919Y-123180018D01*
X121074919Y-123180018D02*
X121217776Y-123275256D01*
X121217776Y-123275256D02*
X121313014Y-123370494D01*
X121313014Y-123370494D02*
X121360633Y-123465732D01*
X123857395Y-127603828D02*
X123857395Y-128060971D01*
X123857395Y-127832399D02*
X123057395Y-127832399D01*
X123057395Y-127832399D02*
X123171680Y-127908590D01*
X123171680Y-127908590D02*
X123247871Y-127984780D01*
X123247871Y-127984780D02*
X123285966Y-128060971D01*
X134985714Y-127864819D02*
X134985714Y-128674342D01*
X134985714Y-128674342D02*
X135033333Y-128769580D01*
X135033333Y-128769580D02*
X135080952Y-128817200D01*
X135080952Y-128817200D02*
X135176190Y-128864819D01*
X135176190Y-128864819D02*
X135366666Y-128864819D01*
X135366666Y-128864819D02*
X135461904Y-128817200D01*
X135461904Y-128817200D02*
X135509523Y-128769580D01*
X135509523Y-128769580D02*
X135557142Y-128674342D01*
X135557142Y-128674342D02*
X135557142Y-127864819D01*
X135985714Y-127960057D02*
X136033333Y-127912438D01*
X136033333Y-127912438D02*
X136128571Y-127864819D01*
X136128571Y-127864819D02*
X136366666Y-127864819D01*
X136366666Y-127864819D02*
X136461904Y-127912438D01*
X136461904Y-127912438D02*
X136509523Y-127960057D01*
X136509523Y-127960057D02*
X136557142Y-128055295D01*
X136557142Y-128055295D02*
X136557142Y-128150533D01*
X136557142Y-128150533D02*
X136509523Y-128293390D01*
X136509523Y-128293390D02*
X135938095Y-128864819D01*
X135938095Y-128864819D02*
X136557142Y-128864819D01*
X137176190Y-127864819D02*
X137271428Y-127864819D01*
X137271428Y-127864819D02*
X137366666Y-127912438D01*
X137366666Y-127912438D02*
X137414285Y-127960057D01*
X137414285Y-127960057D02*
X137461904Y-128055295D01*
X137461904Y-128055295D02*
X137509523Y-128245771D01*
X137509523Y-128245771D02*
X137509523Y-128483866D01*
X137509523Y-128483866D02*
X137461904Y-128674342D01*
X137461904Y-128674342D02*
X137414285Y-128769580D01*
X137414285Y-128769580D02*
X137366666Y-128817200D01*
X137366666Y-128817200D02*
X137271428Y-128864819D01*
X137271428Y-128864819D02*
X137176190Y-128864819D01*
X137176190Y-128864819D02*
X137080952Y-128817200D01*
X137080952Y-128817200D02*
X137033333Y-128769580D01*
X137033333Y-128769580D02*
X136985714Y-128674342D01*
X136985714Y-128674342D02*
X136938095Y-128483866D01*
X136938095Y-128483866D02*
X136938095Y-128245771D01*
X136938095Y-128245771D02*
X136985714Y-128055295D01*
X136985714Y-128055295D02*
X137033333Y-127960057D01*
X137033333Y-127960057D02*
X137080952Y-127912438D01*
X137080952Y-127912438D02*
X137176190Y-127864819D01*
X137890476Y-127960057D02*
X137938095Y-127912438D01*
X137938095Y-127912438D02*
X138033333Y-127864819D01*
X138033333Y-127864819D02*
X138271428Y-127864819D01*
X138271428Y-127864819D02*
X138366666Y-127912438D01*
X138366666Y-127912438D02*
X138414285Y-127960057D01*
X138414285Y-127960057D02*
X138461904Y-128055295D01*
X138461904Y-128055295D02*
X138461904Y-128150533D01*
X138461904Y-128150533D02*
X138414285Y-128293390D01*
X138414285Y-128293390D02*
X137842857Y-128864819D01*
X137842857Y-128864819D02*
X138461904Y-128864819D01*
X161801109Y-61418114D02*
X161801109Y-61751447D01*
X162324919Y-61751447D02*
X161324919Y-61751447D01*
X161324919Y-61751447D02*
X161324919Y-61275257D01*
X161801109Y-60560971D02*
X161848728Y-60418114D01*
X161848728Y-60418114D02*
X161896347Y-60370495D01*
X161896347Y-60370495D02*
X161991585Y-60322876D01*
X161991585Y-60322876D02*
X162134442Y-60322876D01*
X162134442Y-60322876D02*
X162229680Y-60370495D01*
X162229680Y-60370495D02*
X162277300Y-60418114D01*
X162277300Y-60418114D02*
X162324919Y-60513352D01*
X162324919Y-60513352D02*
X162324919Y-60894304D01*
X162324919Y-60894304D02*
X161324919Y-60894304D01*
X161324919Y-60894304D02*
X161324919Y-60560971D01*
X161324919Y-60560971D02*
X161372538Y-60465733D01*
X161372538Y-60465733D02*
X161420157Y-60418114D01*
X161420157Y-60418114D02*
X161515395Y-60370495D01*
X161515395Y-60370495D02*
X161610633Y-60370495D01*
X161610633Y-60370495D02*
X161705871Y-60418114D01*
X161705871Y-60418114D02*
X161753490Y-60465733D01*
X161753490Y-60465733D02*
X161801109Y-60560971D01*
X161801109Y-60560971D02*
X161801109Y-60894304D01*
X161420157Y-59941923D02*
X161372538Y-59894304D01*
X161372538Y-59894304D02*
X161324919Y-59799066D01*
X161324919Y-59799066D02*
X161324919Y-59560971D01*
X161324919Y-59560971D02*
X161372538Y-59465733D01*
X161372538Y-59465733D02*
X161420157Y-59418114D01*
X161420157Y-59418114D02*
X161515395Y-59370495D01*
X161515395Y-59370495D02*
X161610633Y-59370495D01*
X161610633Y-59370495D02*
X161753490Y-59418114D01*
X161753490Y-59418114D02*
X162324919Y-59989542D01*
X162324919Y-59989542D02*
X162324919Y-59370495D01*
X161324919Y-58751447D02*
X161324919Y-58656209D01*
X161324919Y-58656209D02*
X161372538Y-58560971D01*
X161372538Y-58560971D02*
X161420157Y-58513352D01*
X161420157Y-58513352D02*
X161515395Y-58465733D01*
X161515395Y-58465733D02*
X161705871Y-58418114D01*
X161705871Y-58418114D02*
X161943966Y-58418114D01*
X161943966Y-58418114D02*
X162134442Y-58465733D01*
X162134442Y-58465733D02*
X162229680Y-58513352D01*
X162229680Y-58513352D02*
X162277300Y-58560971D01*
X162277300Y-58560971D02*
X162324919Y-58656209D01*
X162324919Y-58656209D02*
X162324919Y-58751447D01*
X162324919Y-58751447D02*
X162277300Y-58846685D01*
X162277300Y-58846685D02*
X162229680Y-58894304D01*
X162229680Y-58894304D02*
X162134442Y-58941923D01*
X162134442Y-58941923D02*
X161943966Y-58989542D01*
X161943966Y-58989542D02*
X161705871Y-58989542D01*
X161705871Y-58989542D02*
X161515395Y-58941923D01*
X161515395Y-58941923D02*
X161420157Y-58894304D01*
X161420157Y-58894304D02*
X161372538Y-58846685D01*
X161372538Y-58846685D02*
X161324919Y-58751447D01*
X162324919Y-57465733D02*
X162324919Y-58037161D01*
X162324919Y-57751447D02*
X161324919Y-57751447D01*
X161324919Y-57751447D02*
X161467776Y-57846685D01*
X161467776Y-57846685D02*
X161563014Y-57941923D01*
X161563014Y-57941923D02*
X161610633Y-58037161D01*
X121584385Y-106837219D02*
X121584385Y-107551504D01*
X121584385Y-107551504D02*
X121536766Y-107694361D01*
X121536766Y-107694361D02*
X121441528Y-107789600D01*
X121441528Y-107789600D02*
X121298671Y-107837219D01*
X121298671Y-107837219D02*
X121203433Y-107837219D01*
X122012957Y-106932457D02*
X122060576Y-106884838D01*
X122060576Y-106884838D02*
X122155814Y-106837219D01*
X122155814Y-106837219D02*
X122393909Y-106837219D01*
X122393909Y-106837219D02*
X122489147Y-106884838D01*
X122489147Y-106884838D02*
X122536766Y-106932457D01*
X122536766Y-106932457D02*
X122584385Y-107027695D01*
X122584385Y-107027695D02*
X122584385Y-107122933D01*
X122584385Y-107122933D02*
X122536766Y-107265790D01*
X122536766Y-107265790D02*
X121965338Y-107837219D01*
X121965338Y-107837219D02*
X122584385Y-107837219D01*
X123203433Y-106837219D02*
X123298671Y-106837219D01*
X123298671Y-106837219D02*
X123393909Y-106884838D01*
X123393909Y-106884838D02*
X123441528Y-106932457D01*
X123441528Y-106932457D02*
X123489147Y-107027695D01*
X123489147Y-107027695D02*
X123536766Y-107218171D01*
X123536766Y-107218171D02*
X123536766Y-107456266D01*
X123536766Y-107456266D02*
X123489147Y-107646742D01*
X123489147Y-107646742D02*
X123441528Y-107741980D01*
X123441528Y-107741980D02*
X123393909Y-107789600D01*
X123393909Y-107789600D02*
X123298671Y-107837219D01*
X123298671Y-107837219D02*
X123203433Y-107837219D01*
X123203433Y-107837219D02*
X123108195Y-107789600D01*
X123108195Y-107789600D02*
X123060576Y-107741980D01*
X123060576Y-107741980D02*
X123012957Y-107646742D01*
X123012957Y-107646742D02*
X122965338Y-107456266D01*
X122965338Y-107456266D02*
X122965338Y-107218171D01*
X122965338Y-107218171D02*
X123012957Y-107027695D01*
X123012957Y-107027695D02*
X123060576Y-106932457D01*
X123060576Y-106932457D02*
X123108195Y-106884838D01*
X123108195Y-106884838D02*
X123203433Y-106837219D01*
X123917719Y-106932457D02*
X123965338Y-106884838D01*
X123965338Y-106884838D02*
X124060576Y-106837219D01*
X124060576Y-106837219D02*
X124298671Y-106837219D01*
X124298671Y-106837219D02*
X124393909Y-106884838D01*
X124393909Y-106884838D02*
X124441528Y-106932457D01*
X124441528Y-106932457D02*
X124489147Y-107027695D01*
X124489147Y-107027695D02*
X124489147Y-107122933D01*
X124489147Y-107122933D02*
X124441528Y-107265790D01*
X124441528Y-107265790D02*
X123870100Y-107837219D01*
X123870100Y-107837219D02*
X124489147Y-107837219D01*
X162224919Y-54018114D02*
X162939204Y-54018114D01*
X162939204Y-54018114D02*
X163082061Y-54065733D01*
X163082061Y-54065733D02*
X163177300Y-54160971D01*
X163177300Y-54160971D02*
X163224919Y-54303828D01*
X163224919Y-54303828D02*
X163224919Y-54399066D01*
X162320157Y-53589542D02*
X162272538Y-53541923D01*
X162272538Y-53541923D02*
X162224919Y-53446685D01*
X162224919Y-53446685D02*
X162224919Y-53208590D01*
X162224919Y-53208590D02*
X162272538Y-53113352D01*
X162272538Y-53113352D02*
X162320157Y-53065733D01*
X162320157Y-53065733D02*
X162415395Y-53018114D01*
X162415395Y-53018114D02*
X162510633Y-53018114D01*
X162510633Y-53018114D02*
X162653490Y-53065733D01*
X162653490Y-53065733D02*
X163224919Y-53637161D01*
X163224919Y-53637161D02*
X163224919Y-53018114D01*
X162224919Y-52399066D02*
X162224919Y-52303828D01*
X162224919Y-52303828D02*
X162272538Y-52208590D01*
X162272538Y-52208590D02*
X162320157Y-52160971D01*
X162320157Y-52160971D02*
X162415395Y-52113352D01*
X162415395Y-52113352D02*
X162605871Y-52065733D01*
X162605871Y-52065733D02*
X162843966Y-52065733D01*
X162843966Y-52065733D02*
X163034442Y-52113352D01*
X163034442Y-52113352D02*
X163129680Y-52160971D01*
X163129680Y-52160971D02*
X163177300Y-52208590D01*
X163177300Y-52208590D02*
X163224919Y-52303828D01*
X163224919Y-52303828D02*
X163224919Y-52399066D01*
X163224919Y-52399066D02*
X163177300Y-52494304D01*
X163177300Y-52494304D02*
X163129680Y-52541923D01*
X163129680Y-52541923D02*
X163034442Y-52589542D01*
X163034442Y-52589542D02*
X162843966Y-52637161D01*
X162843966Y-52637161D02*
X162605871Y-52637161D01*
X162605871Y-52637161D02*
X162415395Y-52589542D01*
X162415395Y-52589542D02*
X162320157Y-52541923D01*
X162320157Y-52541923D02*
X162272538Y-52494304D01*
X162272538Y-52494304D02*
X162224919Y-52399066D01*
X163224919Y-51113352D02*
X163224919Y-51684780D01*
X163224919Y-51399066D02*
X162224919Y-51399066D01*
X162224919Y-51399066D02*
X162367776Y-51494304D01*
X162367776Y-51494304D02*
X162463014Y-51589542D01*
X162463014Y-51589542D02*
X162510633Y-51684780D01*
X145504919Y-102068114D02*
X146219204Y-102068114D01*
X146219204Y-102068114D02*
X146362061Y-102115733D01*
X146362061Y-102115733D02*
X146457300Y-102210971D01*
X146457300Y-102210971D02*
X146504919Y-102353828D01*
X146504919Y-102353828D02*
X146504919Y-102449066D01*
X146504919Y-101591923D02*
X145504919Y-101591923D01*
X145504919Y-101591923D02*
X145504919Y-101210971D01*
X145504919Y-101210971D02*
X145552538Y-101115733D01*
X145552538Y-101115733D02*
X145600157Y-101068114D01*
X145600157Y-101068114D02*
X145695395Y-101020495D01*
X145695395Y-101020495D02*
X145838252Y-101020495D01*
X145838252Y-101020495D02*
X145933490Y-101068114D01*
X145933490Y-101068114D02*
X145981109Y-101115733D01*
X145981109Y-101115733D02*
X146028728Y-101210971D01*
X146028728Y-101210971D02*
X146028728Y-101591923D01*
X145600157Y-100639542D02*
X145552538Y-100591923D01*
X145552538Y-100591923D02*
X145504919Y-100496685D01*
X145504919Y-100496685D02*
X145504919Y-100258590D01*
X145504919Y-100258590D02*
X145552538Y-100163352D01*
X145552538Y-100163352D02*
X145600157Y-100115733D01*
X145600157Y-100115733D02*
X145695395Y-100068114D01*
X145695395Y-100068114D02*
X145790633Y-100068114D01*
X145790633Y-100068114D02*
X145933490Y-100115733D01*
X145933490Y-100115733D02*
X146504919Y-100687161D01*
X146504919Y-100687161D02*
X146504919Y-100068114D01*
X145504919Y-99449066D02*
X145504919Y-99353828D01*
X145504919Y-99353828D02*
X145552538Y-99258590D01*
X145552538Y-99258590D02*
X145600157Y-99210971D01*
X145600157Y-99210971D02*
X145695395Y-99163352D01*
X145695395Y-99163352D02*
X145885871Y-99115733D01*
X145885871Y-99115733D02*
X146123966Y-99115733D01*
X146123966Y-99115733D02*
X146314442Y-99163352D01*
X146314442Y-99163352D02*
X146409680Y-99210971D01*
X146409680Y-99210971D02*
X146457300Y-99258590D01*
X146457300Y-99258590D02*
X146504919Y-99353828D01*
X146504919Y-99353828D02*
X146504919Y-99449066D01*
X146504919Y-99449066D02*
X146457300Y-99544304D01*
X146457300Y-99544304D02*
X146409680Y-99591923D01*
X146409680Y-99591923D02*
X146314442Y-99639542D01*
X146314442Y-99639542D02*
X146123966Y-99687161D01*
X146123966Y-99687161D02*
X145885871Y-99687161D01*
X145885871Y-99687161D02*
X145695395Y-99639542D01*
X145695395Y-99639542D02*
X145600157Y-99591923D01*
X145600157Y-99591923D02*
X145552538Y-99544304D01*
X145552538Y-99544304D02*
X145504919Y-99449066D01*
X145504919Y-98782399D02*
X145504919Y-98163352D01*
X145504919Y-98163352D02*
X145885871Y-98496685D01*
X145885871Y-98496685D02*
X145885871Y-98353828D01*
X145885871Y-98353828D02*
X145933490Y-98258590D01*
X145933490Y-98258590D02*
X145981109Y-98210971D01*
X145981109Y-98210971D02*
X146076347Y-98163352D01*
X146076347Y-98163352D02*
X146314442Y-98163352D01*
X146314442Y-98163352D02*
X146409680Y-98210971D01*
X146409680Y-98210971D02*
X146457300Y-98258590D01*
X146457300Y-98258590D02*
X146504919Y-98353828D01*
X146504919Y-98353828D02*
X146504919Y-98639542D01*
X146504919Y-98639542D02*
X146457300Y-98734780D01*
X146457300Y-98734780D02*
X146409680Y-98782399D01*
X122484385Y-80937219D02*
X122484385Y-81651504D01*
X122484385Y-81651504D02*
X122436766Y-81794361D01*
X122436766Y-81794361D02*
X122341528Y-81889600D01*
X122341528Y-81889600D02*
X122198671Y-81937219D01*
X122198671Y-81937219D02*
X122103433Y-81937219D01*
X122960576Y-81937219D02*
X122960576Y-80937219D01*
X122960576Y-80937219D02*
X123341528Y-80937219D01*
X123341528Y-80937219D02*
X123436766Y-80984838D01*
X123436766Y-80984838D02*
X123484385Y-81032457D01*
X123484385Y-81032457D02*
X123532004Y-81127695D01*
X123532004Y-81127695D02*
X123532004Y-81270552D01*
X123532004Y-81270552D02*
X123484385Y-81365790D01*
X123484385Y-81365790D02*
X123436766Y-81413409D01*
X123436766Y-81413409D02*
X123341528Y-81461028D01*
X123341528Y-81461028D02*
X122960576Y-81461028D01*
X124484385Y-81937219D02*
X123912957Y-81937219D01*
X124198671Y-81937219D02*
X124198671Y-80937219D01*
X124198671Y-80937219D02*
X124103433Y-81080076D01*
X124103433Y-81080076D02*
X124008195Y-81175314D01*
X124008195Y-81175314D02*
X123912957Y-81222933D01*
X125103433Y-80937219D02*
X125198671Y-80937219D01*
X125198671Y-80937219D02*
X125293909Y-80984838D01*
X125293909Y-80984838D02*
X125341528Y-81032457D01*
X125341528Y-81032457D02*
X125389147Y-81127695D01*
X125389147Y-81127695D02*
X125436766Y-81318171D01*
X125436766Y-81318171D02*
X125436766Y-81556266D01*
X125436766Y-81556266D02*
X125389147Y-81746742D01*
X125389147Y-81746742D02*
X125341528Y-81841980D01*
X125341528Y-81841980D02*
X125293909Y-81889600D01*
X125293909Y-81889600D02*
X125198671Y-81937219D01*
X125198671Y-81937219D02*
X125103433Y-81937219D01*
X125103433Y-81937219D02*
X125008195Y-81889600D01*
X125008195Y-81889600D02*
X124960576Y-81841980D01*
X124960576Y-81841980D02*
X124912957Y-81746742D01*
X124912957Y-81746742D02*
X124865338Y-81556266D01*
X124865338Y-81556266D02*
X124865338Y-81318171D01*
X124865338Y-81318171D02*
X124912957Y-81127695D01*
X124912957Y-81127695D02*
X124960576Y-81032457D01*
X124960576Y-81032457D02*
X125008195Y-80984838D01*
X125008195Y-80984838D02*
X125103433Y-80937219D01*
X126293909Y-81270552D02*
X126293909Y-81937219D01*
X126055814Y-80889600D02*
X125817719Y-81603885D01*
X125817719Y-81603885D02*
X126436766Y-81603885D01*
D11*
X163250100Y-61002400D02*
X164630100Y-61002400D01*
X163250100Y-62382400D02*
X163250100Y-61002400D01*
X163250100Y-63652400D02*
X163250100Y-119642400D01*
X163250100Y-63652400D02*
X165900100Y-63652400D01*
X163250100Y-119642400D02*
X168550100Y-119642400D01*
X165900100Y-61002400D02*
X168550100Y-61002400D01*
X165900100Y-63652400D02*
X165900100Y-61002400D01*
X168550100Y-61002400D02*
X168550100Y-119642400D01*
X114990100Y-61002400D02*
X116370100Y-61002400D01*
X114990100Y-62382400D02*
X114990100Y-61002400D01*
X114990100Y-63652400D02*
X114990100Y-119642400D01*
X114990100Y-63652400D02*
X117640100Y-63652400D01*
X114990100Y-119642400D02*
X120290100Y-119642400D01*
X117640100Y-61002400D02*
X120290100Y-61002400D01*
X117640100Y-63652400D02*
X117640100Y-61002400D01*
X120290100Y-61002400D02*
X120290100Y-119642400D01*
X124760100Y-91274564D02*
X124760100Y-91490236D01*
X125480100Y-91274564D02*
X125480100Y-91490236D01*
X147750100Y-113262400D02*
X160290100Y-113262400D01*
X147750100Y-117882400D02*
X150140100Y-117882400D01*
X147750100Y-120682400D02*
X160290100Y-120682400D01*
X147750100Y-126382400D02*
X160290100Y-126382400D01*
X147750100Y-127502400D02*
X147750100Y-113262400D01*
X149370100Y-113382400D02*
X154370100Y-113382400D01*
X149370100Y-127382400D02*
X149370100Y-113382400D01*
X149870100Y-121082400D02*
X153870100Y-121082400D01*
X149870100Y-122082400D02*
X149870100Y-121082400D01*
X149870100Y-122782400D02*
X150140100Y-122782400D01*
X149870100Y-126082400D02*
X149870100Y-122782400D01*
X150140100Y-122082400D02*
X149870100Y-122082400D01*
X151070100Y-127502400D02*
X147750100Y-127502400D01*
X151370100Y-113732400D02*
X152370100Y-113732400D01*
X151370100Y-116232400D02*
X151370100Y-113732400D01*
X152370100Y-113732400D02*
X152370100Y-116232400D01*
X152370100Y-116232400D02*
X151370100Y-116232400D01*
X152600100Y-117882400D02*
X155140100Y-117882400D01*
X152600100Y-122782400D02*
X153870100Y-122782400D01*
X153870100Y-121082400D02*
X153870100Y-122082400D01*
X153870100Y-122082400D02*
X152600100Y-122082400D01*
X153870100Y-122782400D02*
X153870100Y-126082400D01*
X153870100Y-126082400D02*
X149870100Y-126082400D01*
X154370100Y-113382400D02*
X154370100Y-127382400D01*
X154370100Y-113382400D02*
X159370100Y-113382400D01*
X154370100Y-127382400D02*
X149370100Y-127382400D01*
X154370100Y-127382400D02*
X154370100Y-113382400D01*
X154870100Y-121082400D02*
X158870100Y-121082400D01*
X154870100Y-122082400D02*
X154870100Y-121082400D01*
X154870100Y-122782400D02*
X155140100Y-122782400D01*
X154870100Y-126082400D02*
X154870100Y-122782400D01*
X155140100Y-122082400D02*
X154870100Y-122082400D01*
X156370100Y-113732400D02*
X157370100Y-113732400D01*
X156370100Y-116232400D02*
X156370100Y-113732400D01*
X157370100Y-113732400D02*
X157370100Y-116232400D01*
X157370100Y-116232400D02*
X156370100Y-116232400D01*
X157600100Y-117882400D02*
X160290100Y-117882400D01*
X157600100Y-122782400D02*
X158870100Y-122782400D01*
X158870100Y-121082400D02*
X158870100Y-122082400D01*
X158870100Y-122082400D02*
X157600100Y-122082400D01*
X158870100Y-122782400D02*
X158870100Y-126082400D01*
X158870100Y-126082400D02*
X154870100Y-126082400D01*
X159370100Y-113382400D02*
X159370100Y-127382400D01*
X159370100Y-127382400D02*
X154370100Y-127382400D01*
X160290100Y-113262400D02*
X160290100Y-127502400D01*
X160290100Y-127502400D02*
X151670100Y-127502400D01*
X151810100Y-128112400D02*
X150930100Y-128112400D01*
X151370100Y-127502400D01*
X151810100Y-128112400D01*
G36*
X151810100Y-128112400D02*
G01*
X150930100Y-128112400D01*
X151370100Y-127502400D01*
X151810100Y-128112400D01*
G37*
X123870100Y-78782400D02*
X123870100Y-75982400D01*
X124570100Y-75332400D02*
X125170100Y-75332400D01*
X125170100Y-79432400D02*
X124570100Y-79432400D01*
X125870100Y-75982400D02*
X125870100Y-78782400D01*
X126070100Y-78582400D02*
X126370100Y-78282400D01*
X126070100Y-78582400D02*
X126370100Y-78882400D01*
X126370100Y-78882400D02*
X126370100Y-78282400D01*
X123870100Y-76032400D02*
G75*
G02*
X124570100Y-75332400I700000J0D01*
G01*
X124570100Y-79432400D02*
G75*
G02*
X123870100Y-78732400I-1J699999D01*
G01*
X125170100Y-75332400D02*
G75*
G02*
X125870100Y-76032400I0J-700000D01*
G01*
X125870100Y-78732400D02*
G75*
G02*
X125170100Y-79432400I-699999J-1D01*
G01*
X126870100Y-75882400D02*
X126870100Y-76482400D01*
X127170100Y-76182400D02*
X126870100Y-75882400D01*
X127170100Y-76182400D02*
X126870100Y-76482400D01*
X127370100Y-78782400D02*
X127370100Y-75982400D01*
X128070100Y-75332400D02*
X128670100Y-75332400D01*
X128670100Y-79432400D02*
X128070100Y-79432400D01*
X129370100Y-75982400D02*
X129370100Y-78782400D01*
X127370100Y-76032400D02*
G75*
G02*
X128070100Y-75332400I699999J1D01*
G01*
X128070100Y-79432400D02*
G75*
G02*
X127370100Y-78732400I0J700000D01*
G01*
X128670100Y-75332400D02*
G75*
G02*
X129370100Y-76032400I1J-699999D01*
G01*
X129370100Y-78732400D02*
G75*
G02*
X128670100Y-79432400I-700000J0D01*
G01*
X123370100Y-120782400D02*
X123370100Y-117982400D01*
X124070100Y-117332400D02*
X124670100Y-117332400D01*
X124670100Y-121432400D02*
X124070100Y-121432400D01*
X125370100Y-117982400D02*
X125370100Y-120782400D01*
X125570100Y-120582400D02*
X125870100Y-120282400D01*
X125570100Y-120582400D02*
X125870100Y-120882400D01*
X125870100Y-120882400D02*
X125870100Y-120282400D01*
X123370100Y-118032400D02*
G75*
G02*
X124070100Y-117332400I700000J0D01*
G01*
X124070100Y-121432400D02*
G75*
G02*
X123370100Y-120732400I-1J699999D01*
G01*
X124670100Y-117332400D02*
G75*
G02*
X125370100Y-118032400I0J-700000D01*
G01*
X125370100Y-120732400D02*
G75*
G02*
X124670100Y-121432400I-699999J-1D01*
G01*
X123370100Y-113282400D02*
X123370100Y-110482400D01*
X124070100Y-109832400D02*
X124670100Y-109832400D01*
X124670100Y-113932400D02*
X124070100Y-113932400D01*
X125370100Y-110482400D02*
X125370100Y-113282400D01*
X125570100Y-113082400D02*
X125870100Y-112782400D01*
X125570100Y-113082400D02*
X125870100Y-113382400D01*
X125870100Y-113382400D02*
X125870100Y-112782400D01*
X123370100Y-110532400D02*
G75*
G02*
X124070100Y-109832400I700000J0D01*
G01*
X124070100Y-113932400D02*
G75*
G02*
X123370100Y-113232400I-1J699999D01*
G01*
X124670100Y-109832400D02*
G75*
G02*
X125370100Y-110532400I0J-700000D01*
G01*
X125370100Y-113232400D02*
G75*
G02*
X124670100Y-113932400I-699999J-1D01*
G01*
X127370100Y-93082400D02*
X127370100Y-91682400D01*
X128070100Y-90982400D02*
X128670100Y-90982400D01*
X128670100Y-93782400D02*
X128070100Y-93782400D01*
X129370100Y-91682400D02*
X129370100Y-93082400D01*
X127370100Y-91682400D02*
G75*
G02*
X128070100Y-90982400I699999J1D01*
G01*
X128070100Y-93782400D02*
G75*
G02*
X127370100Y-93082400I0J700000D01*
G01*
X128670100Y-90982400D02*
G75*
G02*
X129370100Y-91682400I1J-699999D01*
G01*
X129370100Y-93082400D02*
G75*
G02*
X128670100Y-93782400I-700000J0D01*
G01*
X133370100Y-93082400D02*
X133370100Y-91682400D01*
X134070100Y-90982400D02*
X134670100Y-90982400D01*
X134670100Y-93782400D02*
X134070100Y-93782400D01*
X135370100Y-91682400D02*
X135370100Y-93082400D01*
X133370100Y-91682400D02*
G75*
G02*
X134070100Y-90982400I699999J1D01*
G01*
X134070100Y-93782400D02*
G75*
G02*
X133370100Y-93082400I0J700000D01*
G01*
X134670100Y-90982400D02*
G75*
G02*
X135370100Y-91682400I1J-699999D01*
G01*
X135370100Y-93082400D02*
G75*
G02*
X134670100Y-93782400I-700000J0D01*
G01*
X155216459Y-75002400D02*
X155523741Y-75002400D01*
X155216459Y-75762400D02*
X155523741Y-75762400D01*
X155216459Y-76752400D02*
X155523741Y-76752400D01*
X155216459Y-77512400D02*
X155523741Y-77512400D01*
X155216459Y-80252400D02*
X155523741Y-80252400D01*
X155216459Y-81012400D02*
X155523741Y-81012400D01*
X154370100Y-66882400D02*
X154370100Y-71382400D01*
X156870100Y-72632400D02*
X158370100Y-72632400D01*
X158370100Y-65632400D02*
X156870100Y-65632400D01*
X160870100Y-71382400D02*
X160870100Y-66882400D01*
X135870100Y-66882400D02*
X135870100Y-71382400D01*
X138370100Y-72632400D02*
X139870100Y-72632400D01*
X139870100Y-65632400D02*
X138370100Y-65632400D01*
X142370100Y-71382400D02*
X142370100Y-66882400D01*
X126310100Y-84822400D02*
X130430100Y-84822400D01*
X126310100Y-84917400D02*
X126310100Y-84822400D01*
X126310100Y-89942400D02*
X126310100Y-89847400D01*
X130430100Y-84822400D02*
X130430100Y-84917400D01*
X130430100Y-89847400D02*
X130430100Y-89942400D01*
X130430100Y-89942400D02*
X126310100Y-89942400D01*
X131210100Y-90182400D02*
X130730100Y-90182400D01*
X130970100Y-89852400D01*
X131210100Y-90182400D01*
G36*
X131210100Y-90182400D02*
G01*
X130730100Y-90182400D01*
X130970100Y-89852400D01*
X131210100Y-90182400D01*
G37*
X151570100Y-76117400D02*
X153855100Y-76117400D01*
X153855100Y-74647400D02*
X151570100Y-74647400D01*
X153855100Y-76117400D02*
X153855100Y-74647400D01*
X151570100Y-77867400D02*
X153855100Y-77867400D01*
X153855100Y-76397400D02*
X151570100Y-76397400D01*
X153855100Y-77867400D02*
X153855100Y-76397400D01*
X151570100Y-79617400D02*
X153855100Y-79617400D01*
X153855100Y-78147400D02*
X151570100Y-78147400D01*
X153855100Y-79617400D02*
X153855100Y-78147400D01*
X151570100Y-81367400D02*
X153855100Y-81367400D01*
X153855100Y-79897400D02*
X151570100Y-79897400D01*
X153855100Y-81367400D02*
X153855100Y-79897400D01*
X151570100Y-83117400D02*
X153855100Y-83117400D01*
X153855100Y-81647400D02*
X151570100Y-81647400D01*
X153855100Y-83117400D02*
X153855100Y-81647400D01*
X151570100Y-84867400D02*
X153855100Y-84867400D01*
X153855100Y-83397400D02*
X151570100Y-83397400D01*
X153855100Y-84867400D02*
X153855100Y-83397400D01*
X151570100Y-86617400D02*
X153855100Y-86617400D01*
X153855100Y-85147400D02*
X151570100Y-85147400D01*
X153855100Y-86617400D02*
X153855100Y-85147400D01*
X151570100Y-88367400D02*
X153855100Y-88367400D01*
X153855100Y-86897400D02*
X151570100Y-86897400D01*
X153855100Y-88367400D02*
X153855100Y-86897400D01*
X151570100Y-90117400D02*
X153855100Y-90117400D01*
X153855100Y-88647400D02*
X151570100Y-88647400D01*
X153855100Y-90117400D02*
X153855100Y-88647400D01*
X151570100Y-91867400D02*
X153855100Y-91867400D01*
X153855100Y-90397400D02*
X151570100Y-90397400D01*
X153855100Y-91867400D02*
X153855100Y-90397400D01*
X151570100Y-93617400D02*
X153855100Y-93617400D01*
X153855100Y-92147400D02*
X151570100Y-92147400D01*
X153855100Y-93617400D02*
X153855100Y-92147400D01*
X151570100Y-95367400D02*
X153855100Y-95367400D01*
X153855100Y-93897400D02*
X151570100Y-93897400D01*
X153855100Y-95367400D02*
X153855100Y-93897400D01*
X151570100Y-97117400D02*
X153855100Y-97117400D01*
X153855100Y-95647400D02*
X151570100Y-95647400D01*
X153855100Y-97117400D02*
X153855100Y-95647400D01*
X155206459Y-82002400D02*
X155513741Y-82002400D01*
X155206459Y-82762400D02*
X155513741Y-82762400D01*
X155216459Y-83752400D02*
X155523741Y-83752400D01*
X155216459Y-84512400D02*
X155523741Y-84512400D01*
X155216459Y-85502400D02*
X155523741Y-85502400D01*
X155216459Y-86262400D02*
X155523741Y-86262400D01*
X155216459Y-87252400D02*
X155523741Y-87252400D01*
X155216459Y-88012400D02*
X155523741Y-88012400D01*
X155216459Y-89002400D02*
X155523741Y-89002400D01*
X155216459Y-89762400D02*
X155523741Y-89762400D01*
X155216459Y-90752400D02*
X155523741Y-90752400D01*
X155216459Y-91512400D02*
X155523741Y-91512400D01*
X155216459Y-92502400D02*
X155523741Y-92502400D01*
X155216459Y-93262400D02*
X155523741Y-93262400D01*
X155216459Y-94252400D02*
X155523741Y-94252400D01*
X155216459Y-95012400D02*
X155523741Y-95012400D01*
X155216459Y-96002400D02*
X155523741Y-96002400D01*
X155216459Y-96762400D02*
X155523741Y-96762400D01*
X133513741Y-86402400D02*
X133206459Y-86402400D01*
X133513741Y-87162400D02*
X133206459Y-87162400D01*
X133513741Y-87652400D02*
X133206459Y-87652400D01*
X133513741Y-88412400D02*
X133206459Y-88412400D01*
X133523741Y-88902400D02*
X133216459Y-88902400D01*
X133523741Y-89662400D02*
X133216459Y-89662400D01*
X121990100Y-90536041D02*
X121990100Y-90228759D01*
X122750100Y-90536041D02*
X122750100Y-90228759D01*
X155216459Y-78502400D02*
X155523741Y-78502400D01*
X155216459Y-79262400D02*
X155523741Y-79262400D01*
X130370100Y-93082400D02*
X130370100Y-91682400D01*
X131070100Y-90982400D02*
X131670100Y-90982400D01*
X131670100Y-93782400D02*
X131070100Y-93782400D01*
X132370100Y-91682400D02*
X132370100Y-93082400D01*
X130370100Y-91682400D02*
G75*
G02*
X131070100Y-90982400I699999J1D01*
G01*
X131070100Y-93782400D02*
G75*
G02*
X130370100Y-93082400I0J700000D01*
G01*
X131670100Y-90982400D02*
G75*
G02*
X132370100Y-91682400I1J-699999D01*
G01*
X132370100Y-93082400D02*
G75*
G02*
X131670100Y-93782400I-700000J0D01*
G01*
X151310100Y-103572400D02*
X151405100Y-103572400D01*
X151310100Y-107692400D02*
X151310100Y-103572400D01*
X151405100Y-107692400D02*
X151310100Y-107692400D01*
X156335100Y-103572400D02*
X156430100Y-103572400D01*
X156430100Y-103572400D02*
X156430100Y-107692400D01*
X156430100Y-107692400D02*
X156335100Y-107692400D01*
X156670100Y-103272400D02*
X156340100Y-103032400D01*
X156670100Y-102792400D01*
X156670100Y-103272400D01*
G36*
X156670100Y-103272400D02*
G01*
X156340100Y-103032400D01*
X156670100Y-102792400D01*
X156670100Y-103272400D01*
G37*
X120950100Y-43762400D02*
X129570100Y-43762400D01*
X120950100Y-58002400D02*
X120950100Y-43762400D01*
X121870100Y-43882400D02*
X126870100Y-43882400D01*
X121870100Y-57882400D02*
X121870100Y-43882400D01*
X122370100Y-45182400D02*
X126370100Y-45182400D01*
X122370100Y-48482400D02*
X122370100Y-45182400D01*
X122370100Y-49182400D02*
X123640100Y-49182400D01*
X122370100Y-50182400D02*
X122370100Y-49182400D01*
X123640100Y-48482400D02*
X122370100Y-48482400D01*
X123640100Y-53382400D02*
X120950100Y-53382400D01*
X123870100Y-55032400D02*
X124870100Y-55032400D01*
X123870100Y-57532400D02*
X123870100Y-55032400D01*
X124870100Y-55032400D02*
X124870100Y-57532400D01*
X124870100Y-57532400D02*
X123870100Y-57532400D01*
X126100100Y-49182400D02*
X126370100Y-49182400D01*
X126370100Y-45182400D02*
X126370100Y-48482400D01*
X126370100Y-48482400D02*
X126100100Y-48482400D01*
X126370100Y-49182400D02*
X126370100Y-50182400D01*
X126370100Y-50182400D02*
X122370100Y-50182400D01*
X126870100Y-43882400D02*
X126870100Y-57882400D01*
X126870100Y-43882400D02*
X131870100Y-43882400D01*
X126870100Y-57882400D02*
X121870100Y-57882400D01*
X126870100Y-57882400D02*
X126870100Y-43882400D01*
X127370100Y-45182400D02*
X131370100Y-45182400D01*
X127370100Y-48482400D02*
X127370100Y-45182400D01*
X127370100Y-49182400D02*
X128640100Y-49182400D01*
X127370100Y-50182400D02*
X127370100Y-49182400D01*
X128640100Y-48482400D02*
X127370100Y-48482400D01*
X128640100Y-53382400D02*
X126100100Y-53382400D01*
X128870100Y-55032400D02*
X129870100Y-55032400D01*
X128870100Y-57532400D02*
X128870100Y-55032400D01*
X129870100Y-55032400D02*
X129870100Y-57532400D01*
X129870100Y-57532400D02*
X128870100Y-57532400D01*
X130170100Y-43762400D02*
X133490100Y-43762400D01*
X131100100Y-49182400D02*
X131370100Y-49182400D01*
X131370100Y-45182400D02*
X131370100Y-48482400D01*
X131370100Y-48482400D02*
X131100100Y-48482400D01*
X131370100Y-49182400D02*
X131370100Y-50182400D01*
X131370100Y-50182400D02*
X127370100Y-50182400D01*
X131870100Y-43882400D02*
X131870100Y-57882400D01*
X131870100Y-57882400D02*
X126870100Y-57882400D01*
X133490100Y-43762400D02*
X133490100Y-58002400D01*
X133490100Y-44882400D02*
X120950100Y-44882400D01*
X133490100Y-50582400D02*
X120950100Y-50582400D01*
X133490100Y-53382400D02*
X131100100Y-53382400D01*
X133490100Y-58002400D02*
X120950100Y-58002400D01*
X129870100Y-43762400D02*
X129430100Y-43152400D01*
X130310100Y-43152400D01*
X129870100Y-43762400D01*
G36*
X129870100Y-43762400D02*
G01*
X129430100Y-43152400D01*
X130310100Y-43152400D01*
X129870100Y-43762400D01*
G37*
D10*
X121620100Y-64632400D02*
X121620100Y-73132400D01*
X121620100Y-73132400D02*
X133620100Y-73132400D01*
X133620100Y-64632400D02*
X121620100Y-64632400D01*
X133620100Y-73132400D02*
X133620100Y-64632400D01*
D11*
X131130100Y-59732400D02*
X125620100Y-59732400D01*
X131130100Y-63032400D02*
X125620100Y-63032400D01*
X131130100Y-63032400D02*
X131130100Y-59732400D01*
X158760100Y-53522400D02*
X160580100Y-53522400D01*
X158760100Y-53572400D02*
X158760100Y-53522400D01*
X158760100Y-56642400D02*
X158760100Y-56592400D01*
X160580100Y-53522400D02*
X160580100Y-53572400D01*
X160580100Y-56592400D02*
X160580100Y-56642400D01*
X160580100Y-56642400D02*
X158760100Y-56642400D01*
X158220100Y-53572400D02*
X157980100Y-53242400D01*
X158460100Y-53242400D01*
X158220100Y-53572400D01*
G36*
X158220100Y-53572400D02*
G01*
X157980100Y-53242400D01*
X158460100Y-53242400D01*
X158220100Y-53572400D01*
G37*
X122370100Y-127432400D02*
X122370100Y-121832400D01*
X122370100Y-127432400D02*
X126370100Y-127432400D01*
X125770100Y-121832400D02*
X122370100Y-121832400D01*
X125770100Y-121832400D02*
X126370100Y-122432400D01*
X126370100Y-127432400D02*
X126370100Y-122432400D01*
X127550000Y-107560000D02*
X128550000Y-107560000D01*
X127550000Y-108460000D02*
X127550000Y-107560000D01*
X127550000Y-126410000D02*
X127550000Y-127060000D01*
X127550000Y-127060000D02*
X128550000Y-127060000D01*
X127700000Y-107710000D02*
X129050000Y-107710000D01*
X127700000Y-108460000D02*
X127700000Y-107710000D01*
X127700000Y-126910000D02*
X127700000Y-126410000D01*
X127700000Y-126910000D02*
X145700000Y-126910000D01*
X145700000Y-107710000D02*
X144400000Y-107710000D01*
X145700000Y-108560000D02*
X145700000Y-107710000D01*
X145700000Y-126910000D02*
X145700000Y-126410000D01*
X145850000Y-107560000D02*
X144850000Y-107560000D01*
X145850000Y-107560000D02*
X145850000Y-108560000D01*
X145900000Y-127060000D02*
X144800000Y-127060000D01*
X128470100Y-100878400D02*
X129105100Y-100878400D01*
X129105100Y-100878400D02*
X129105100Y-101513400D01*
X162820100Y-55582400D02*
X163270100Y-55982400D01*
X162820100Y-56382400D02*
X162820100Y-55582400D01*
X163270100Y-55982400D02*
X162820100Y-56382400D01*
X166070100Y-50532400D02*
X164520100Y-50532400D01*
X166070100Y-50832400D02*
X166070100Y-50532400D01*
X166070100Y-58832400D02*
X164520100Y-58832400D01*
X166070100Y-58832400D02*
X166070100Y-58532400D01*
X168870100Y-50832400D02*
X166070100Y-50832400D01*
X168870100Y-58532400D02*
X166070100Y-58532400D01*
X137210100Y-98902400D02*
X137210100Y-101662400D01*
X142400100Y-98902400D02*
X137210100Y-98902400D01*
X142400100Y-98902400D02*
X142400100Y-101662400D01*
X142400100Y-101662400D02*
X137210100Y-101662400D01*
X143670100Y-98902400D02*
X145050100Y-98902400D01*
X145050100Y-98902400D02*
X145050100Y-100282400D01*
X122870100Y-83582400D02*
X122870100Y-82982400D01*
X123570100Y-82282400D02*
X124970100Y-82282400D01*
X124970100Y-84282400D02*
X123570100Y-84282400D01*
X125670100Y-82982400D02*
X125670100Y-83582400D01*
X122870100Y-82982400D02*
G75*
G02*
X123570100Y-82282400I699999J1D01*
G01*
X123570100Y-84282400D02*
G75*
G02*
X122870100Y-83582400I-1J699999D01*
G01*
X124970100Y-82282400D02*
G75*
G02*
X125670100Y-82982400I0J-700000D01*
G01*
X125670100Y-83582400D02*
G75*
G02*
X124970100Y-84282400I-700000J0D01*
G01*
%LPC*%
G36*
X124120100Y-78132400D02*
G01*
X125620100Y-78132400D01*
X125620100Y-76632400D01*
X124120100Y-76632400D01*
X124120100Y-78132400D01*
G37*
G36*
X129120100Y-76632400D02*
G01*
X127620100Y-76632400D01*
X127620100Y-78132400D01*
X129120100Y-78132400D01*
X129120100Y-76632400D01*
G37*
G36*
X123620100Y-120132400D02*
G01*
X125120100Y-120132400D01*
X125120100Y-118632400D01*
X123620100Y-118632400D01*
X123620100Y-120132400D01*
G37*
G36*
X123620100Y-112632400D02*
G01*
X125120100Y-112632400D01*
X125120100Y-111132400D01*
X123620100Y-111132400D01*
X123620100Y-112632400D01*
G37*
G36*
X129120100Y-92232400D02*
G01*
X127620100Y-92232400D01*
X127620100Y-92532400D01*
X129120100Y-92532400D01*
X129120100Y-92232400D01*
G37*
G36*
X135120100Y-92232400D02*
G01*
X133620100Y-92232400D01*
X133620100Y-92532400D01*
X135120100Y-92532400D01*
X135120100Y-92232400D01*
G37*
G36*
X132120100Y-92232400D02*
G01*
X130620100Y-92232400D01*
X130620100Y-92532400D01*
X132120100Y-92532400D01*
X132120100Y-92232400D01*
G37*
G36*
X124120100Y-82532400D02*
G01*
X124420100Y-82532400D01*
X124420100Y-84032400D01*
X124120100Y-84032400D01*
X124120100Y-82532400D01*
G37*
D12*
X164630100Y-62382400D03*
D13*
X167170100Y-62382400D03*
X164630100Y-64922400D03*
X167170100Y-64922400D03*
X164630100Y-67462400D03*
X167170100Y-67462400D03*
X164630100Y-70002400D03*
X167170100Y-70002400D03*
X164630100Y-72542400D03*
X167170100Y-72542400D03*
X164630100Y-75082400D03*
X167170100Y-75082400D03*
X164630100Y-77622400D03*
X167170100Y-77622400D03*
X164630100Y-80162400D03*
X167170100Y-80162400D03*
X164630100Y-82702400D03*
X167170100Y-82702400D03*
X164630100Y-85242400D03*
X167170100Y-85242400D03*
X164630100Y-87782400D03*
X167170100Y-87782400D03*
X164630100Y-90322400D03*
X167170100Y-90322400D03*
X164630100Y-92862400D03*
X167170100Y-92862400D03*
X164630100Y-95402400D03*
X167170100Y-95402400D03*
X164630100Y-97942400D03*
X167170100Y-97942400D03*
X164630100Y-100482400D03*
X167170100Y-100482400D03*
X164630100Y-103022400D03*
X167170100Y-103022400D03*
X164630100Y-105562400D03*
X167170100Y-105562400D03*
X164630100Y-108102400D03*
X167170100Y-108102400D03*
X164630100Y-110642400D03*
X167170100Y-110642400D03*
X164630100Y-113182400D03*
X167170100Y-113182400D03*
X164630100Y-115722400D03*
X167170100Y-115722400D03*
X164630100Y-118262400D03*
X167170100Y-118262400D03*
D12*
X116370100Y-62382400D03*
D13*
X118910100Y-62382400D03*
X116370100Y-64922400D03*
X118910100Y-64922400D03*
X116370100Y-67462400D03*
X118910100Y-67462400D03*
X116370100Y-70002400D03*
X118910100Y-70002400D03*
X116370100Y-72542400D03*
X118910100Y-72542400D03*
X116370100Y-75082400D03*
X118910100Y-75082400D03*
X116370100Y-77622400D03*
X118910100Y-77622400D03*
X116370100Y-80162400D03*
X118910100Y-80162400D03*
X116370100Y-82702400D03*
X118910100Y-82702400D03*
X116370100Y-85242400D03*
X118910100Y-85242400D03*
X116370100Y-87782400D03*
X118910100Y-87782400D03*
X116370100Y-90322400D03*
X118910100Y-90322400D03*
X116370100Y-92862400D03*
X118910100Y-92862400D03*
X116370100Y-95402400D03*
X118910100Y-95402400D03*
X116370100Y-97942400D03*
X118910100Y-97942400D03*
X116370100Y-100482400D03*
X118910100Y-100482400D03*
X116370100Y-103022400D03*
X118910100Y-103022400D03*
X116370100Y-105562400D03*
X118910100Y-105562400D03*
X116370100Y-108102400D03*
X118910100Y-108102400D03*
X116370100Y-110642400D03*
X118910100Y-110642400D03*
X116370100Y-113182400D03*
X118910100Y-113182400D03*
X116370100Y-115722400D03*
X118910100Y-115722400D03*
X116370100Y-118262400D03*
X118910100Y-118262400D03*
G36*
G01*
X124950100Y-90622400D02*
X125290100Y-90622400D01*
G75*
G02*
X125430100Y-90762400I0J-140000D01*
G01*
X125430100Y-91042400D01*
G75*
G02*
X125290100Y-91182400I-140000J0D01*
G01*
X124950100Y-91182400D01*
G75*
G02*
X124810100Y-91042400I0J140000D01*
G01*
X124810100Y-90762400D01*
G75*
G02*
X124950100Y-90622400I140000J0D01*
G01*
G37*
G36*
G01*
X124950100Y-91582400D02*
X125290100Y-91582400D01*
G75*
G02*
X125430100Y-91722400I0J-140000D01*
G01*
X125430100Y-92002400D01*
G75*
G02*
X125290100Y-92142400I-140000J0D01*
G01*
X124950100Y-92142400D01*
G75*
G02*
X124810100Y-92002400I0J140000D01*
G01*
X124810100Y-91722400D01*
G75*
G02*
X124950100Y-91582400I140000J0D01*
G01*
G37*
G36*
G01*
X150620100Y-119632399D02*
X150620100Y-117132401D01*
G75*
G02*
X150870101Y-116882400I250001J0D01*
G01*
X151870099Y-116882400D01*
G75*
G02*
X152120100Y-117132401I0J-250001D01*
G01*
X152120100Y-119632399D01*
G75*
G02*
X151870099Y-119882400I-250001J0D01*
G01*
X150870101Y-119882400D01*
G75*
G02*
X150620100Y-119632399I0J250001D01*
G01*
G37*
D14*
X151370100Y-123382400D03*
D15*
X156370100Y-118382400D03*
X156370100Y-123382400D03*
G36*
X125620100Y-78132400D02*
G01*
X125620100Y-78682400D01*
X125615822Y-78682400D01*
X125615822Y-78747663D01*
X125582040Y-78873742D01*
X125516777Y-78986781D01*
X125424481Y-79079077D01*
X125311442Y-79144340D01*
X125185363Y-79178122D01*
X125120100Y-79178122D01*
X125120100Y-79182400D01*
X124620100Y-79182400D01*
X124620100Y-79178122D01*
X124554837Y-79178122D01*
X124428758Y-79144340D01*
X124315719Y-79079077D01*
X124223423Y-78986781D01*
X124158160Y-78873742D01*
X124124378Y-78747663D01*
X124124378Y-78682400D01*
X124120100Y-78682400D01*
X124120100Y-78132400D01*
X125620100Y-78132400D01*
G37*
D16*
X124870100Y-77382400D03*
G36*
X124124378Y-76082400D02*
G01*
X124124378Y-76017137D01*
X124158160Y-75891058D01*
X124223423Y-75778019D01*
X124315719Y-75685723D01*
X124428758Y-75620460D01*
X124554837Y-75586678D01*
X124620100Y-75586678D01*
X124620100Y-75582400D01*
X125120100Y-75582400D01*
X125120100Y-75586678D01*
X125185363Y-75586678D01*
X125311442Y-75620460D01*
X125424481Y-75685723D01*
X125516777Y-75778019D01*
X125582040Y-75891058D01*
X125615822Y-76017137D01*
X125615822Y-76082400D01*
X125620100Y-76082400D01*
X125620100Y-76632400D01*
X124120100Y-76632400D01*
X124120100Y-76082400D01*
X124124378Y-76082400D01*
G37*
G36*
X127620100Y-76632400D02*
G01*
X127620100Y-76082400D01*
X127624378Y-76082400D01*
X127624378Y-76017137D01*
X127658160Y-75891058D01*
X127723423Y-75778019D01*
X127815719Y-75685723D01*
X127928758Y-75620460D01*
X128054837Y-75586678D01*
X128120100Y-75586678D01*
X128120100Y-75582400D01*
X128620100Y-75582400D01*
X128620100Y-75586678D01*
X128685363Y-75586678D01*
X128811442Y-75620460D01*
X128924481Y-75685723D01*
X129016777Y-75778019D01*
X129082040Y-75891058D01*
X129115822Y-76017137D01*
X129115822Y-76082400D01*
X129120100Y-76082400D01*
X129120100Y-76632400D01*
X127620100Y-76632400D01*
G37*
X128370100Y-77382400D03*
G36*
X129115822Y-78682400D02*
G01*
X129115822Y-78747663D01*
X129082040Y-78873742D01*
X129016777Y-78986781D01*
X128924481Y-79079077D01*
X128811442Y-79144340D01*
X128685363Y-79178122D01*
X128620100Y-79178122D01*
X128620100Y-79182400D01*
X128120100Y-79182400D01*
X128120100Y-79178122D01*
X128054837Y-79178122D01*
X127928758Y-79144340D01*
X127815719Y-79079077D01*
X127723423Y-78986781D01*
X127658160Y-78873742D01*
X127624378Y-78747663D01*
X127624378Y-78682400D01*
X127620100Y-78682400D01*
X127620100Y-78132400D01*
X129120100Y-78132400D01*
X129120100Y-78682400D01*
X129115822Y-78682400D01*
G37*
G36*
X125120100Y-120132400D02*
G01*
X125120100Y-120682400D01*
X125115822Y-120682400D01*
X125115822Y-120747663D01*
X125082040Y-120873742D01*
X125016777Y-120986781D01*
X124924481Y-121079077D01*
X124811442Y-121144340D01*
X124685363Y-121178122D01*
X124620100Y-121178122D01*
X124620100Y-121182400D01*
X124120100Y-121182400D01*
X124120100Y-121178122D01*
X124054837Y-121178122D01*
X123928758Y-121144340D01*
X123815719Y-121079077D01*
X123723423Y-120986781D01*
X123658160Y-120873742D01*
X123624378Y-120747663D01*
X123624378Y-120682400D01*
X123620100Y-120682400D01*
X123620100Y-120132400D01*
X125120100Y-120132400D01*
G37*
X124370100Y-119382400D03*
G36*
X123624378Y-118082400D02*
G01*
X123624378Y-118017137D01*
X123658160Y-117891058D01*
X123723423Y-117778019D01*
X123815719Y-117685723D01*
X123928758Y-117620460D01*
X124054837Y-117586678D01*
X124120100Y-117586678D01*
X124120100Y-117582400D01*
X124620100Y-117582400D01*
X124620100Y-117586678D01*
X124685363Y-117586678D01*
X124811442Y-117620460D01*
X124924481Y-117685723D01*
X125016777Y-117778019D01*
X125082040Y-117891058D01*
X125115822Y-118017137D01*
X125115822Y-118082400D01*
X125120100Y-118082400D01*
X125120100Y-118632400D01*
X123620100Y-118632400D01*
X123620100Y-118082400D01*
X123624378Y-118082400D01*
G37*
G36*
X125120100Y-112632400D02*
G01*
X125120100Y-113182400D01*
X125115822Y-113182400D01*
X125115822Y-113247663D01*
X125082040Y-113373742D01*
X125016777Y-113486781D01*
X124924481Y-113579077D01*
X124811442Y-113644340D01*
X124685363Y-113678122D01*
X124620100Y-113678122D01*
X124620100Y-113682400D01*
X124120100Y-113682400D01*
X124120100Y-113678122D01*
X124054837Y-113678122D01*
X123928758Y-113644340D01*
X123815719Y-113579077D01*
X123723423Y-113486781D01*
X123658160Y-113373742D01*
X123624378Y-113247663D01*
X123624378Y-113182400D01*
X123620100Y-113182400D01*
X123620100Y-112632400D01*
X125120100Y-112632400D01*
G37*
X124370100Y-111882400D03*
G36*
X123624378Y-110582400D02*
G01*
X123624378Y-110517137D01*
X123658160Y-110391058D01*
X123723423Y-110278019D01*
X123815719Y-110185723D01*
X123928758Y-110120460D01*
X124054837Y-110086678D01*
X124120100Y-110086678D01*
X124120100Y-110082400D01*
X124620100Y-110082400D01*
X124620100Y-110086678D01*
X124685363Y-110086678D01*
X124811442Y-110120460D01*
X124924481Y-110185723D01*
X125016777Y-110278019D01*
X125082040Y-110391058D01*
X125115822Y-110517137D01*
X125115822Y-110582400D01*
X125120100Y-110582400D01*
X125120100Y-111132400D01*
X123620100Y-111132400D01*
X123620100Y-110582400D01*
X123624378Y-110582400D01*
G37*
G36*
X127620100Y-92232400D02*
G01*
X127620100Y-91732400D01*
X127624378Y-91732400D01*
X127624378Y-91667137D01*
X127658160Y-91541058D01*
X127723423Y-91428019D01*
X127815719Y-91335723D01*
X127928758Y-91270460D01*
X128054837Y-91236678D01*
X128120100Y-91236678D01*
X128120100Y-91232400D01*
X128620100Y-91232400D01*
X128620100Y-91236678D01*
X128685363Y-91236678D01*
X128811442Y-91270460D01*
X128924481Y-91335723D01*
X129016777Y-91428019D01*
X129082040Y-91541058D01*
X129115822Y-91667137D01*
X129115822Y-91732400D01*
X129120100Y-91732400D01*
X129120100Y-92232400D01*
X127620100Y-92232400D01*
G37*
G36*
X129115822Y-93032400D02*
G01*
X129115822Y-93097663D01*
X129082040Y-93223742D01*
X129016777Y-93336781D01*
X128924481Y-93429077D01*
X128811442Y-93494340D01*
X128685363Y-93528122D01*
X128620100Y-93528122D01*
X128620100Y-93532400D01*
X128120100Y-93532400D01*
X128120100Y-93528122D01*
X128054837Y-93528122D01*
X127928758Y-93494340D01*
X127815719Y-93429077D01*
X127723423Y-93336781D01*
X127658160Y-93223742D01*
X127624378Y-93097663D01*
X127624378Y-93032400D01*
X127620100Y-93032400D01*
X127620100Y-92532400D01*
X129120100Y-92532400D01*
X129120100Y-93032400D01*
X129115822Y-93032400D01*
G37*
G36*
X133620100Y-92232400D02*
G01*
X133620100Y-91732400D01*
X133624378Y-91732400D01*
X133624378Y-91667137D01*
X133658160Y-91541058D01*
X133723423Y-91428019D01*
X133815719Y-91335723D01*
X133928758Y-91270460D01*
X134054837Y-91236678D01*
X134120100Y-91236678D01*
X134120100Y-91232400D01*
X134620100Y-91232400D01*
X134620100Y-91236678D01*
X134685363Y-91236678D01*
X134811442Y-91270460D01*
X134924481Y-91335723D01*
X135016777Y-91428019D01*
X135082040Y-91541058D01*
X135115822Y-91667137D01*
X135115822Y-91732400D01*
X135120100Y-91732400D01*
X135120100Y-92232400D01*
X133620100Y-92232400D01*
G37*
G36*
X135115822Y-93032400D02*
G01*
X135115822Y-93097663D01*
X135082040Y-93223742D01*
X135016777Y-93336781D01*
X134924481Y-93429077D01*
X134811442Y-93494340D01*
X134685363Y-93528122D01*
X134620100Y-93528122D01*
X134620100Y-93532400D01*
X134120100Y-93532400D01*
X134120100Y-93528122D01*
X134054837Y-93528122D01*
X133928758Y-93494340D01*
X133815719Y-93429077D01*
X133723423Y-93336781D01*
X133658160Y-93223742D01*
X133624378Y-93097663D01*
X133624378Y-93032400D01*
X133620100Y-93032400D01*
X133620100Y-92532400D01*
X135120100Y-92532400D01*
X135120100Y-93032400D01*
X135115822Y-93032400D01*
G37*
G36*
G01*
X154590100Y-75567400D02*
X154590100Y-75197400D01*
G75*
G02*
X154725100Y-75062400I135000J0D01*
G01*
X154995100Y-75062400D01*
G75*
G02*
X155130100Y-75197400I0J-135000D01*
G01*
X155130100Y-75567400D01*
G75*
G02*
X154995100Y-75702400I-135000J0D01*
G01*
X154725100Y-75702400D01*
G75*
G02*
X154590100Y-75567400I0J135000D01*
G01*
G37*
G36*
G01*
X155610100Y-75567400D02*
X155610100Y-75197400D01*
G75*
G02*
X155745100Y-75062400I135000J0D01*
G01*
X156015100Y-75062400D01*
G75*
G02*
X156150100Y-75197400I0J-135000D01*
G01*
X156150100Y-75567400D01*
G75*
G02*
X156015100Y-75702400I-135000J0D01*
G01*
X155745100Y-75702400D01*
G75*
G02*
X155610100Y-75567400I0J135000D01*
G01*
G37*
G36*
G01*
X154590100Y-77317400D02*
X154590100Y-76947400D01*
G75*
G02*
X154725100Y-76812400I135000J0D01*
G01*
X154995100Y-76812400D01*
G75*
G02*
X155130100Y-76947400I0J-135000D01*
G01*
X155130100Y-77317400D01*
G75*
G02*
X154995100Y-77452400I-135000J0D01*
G01*
X154725100Y-77452400D01*
G75*
G02*
X154590100Y-77317400I0J135000D01*
G01*
G37*
G36*
G01*
X155610100Y-77317400D02*
X155610100Y-76947400D01*
G75*
G02*
X155745100Y-76812400I135000J0D01*
G01*
X156015100Y-76812400D01*
G75*
G02*
X156150100Y-76947400I0J-135000D01*
G01*
X156150100Y-77317400D01*
G75*
G02*
X156015100Y-77452400I-135000J0D01*
G01*
X155745100Y-77452400D01*
G75*
G02*
X155610100Y-77317400I0J135000D01*
G01*
G37*
G36*
G01*
X154590100Y-80817400D02*
X154590100Y-80447400D01*
G75*
G02*
X154725100Y-80312400I135000J0D01*
G01*
X154995100Y-80312400D01*
G75*
G02*
X155130100Y-80447400I0J-135000D01*
G01*
X155130100Y-80817400D01*
G75*
G02*
X154995100Y-80952400I-135000J0D01*
G01*
X154725100Y-80952400D01*
G75*
G02*
X154590100Y-80817400I0J135000D01*
G01*
G37*
G36*
G01*
X155610100Y-80817400D02*
X155610100Y-80447400D01*
G75*
G02*
X155745100Y-80312400I135000J0D01*
G01*
X156015100Y-80312400D01*
G75*
G02*
X156150100Y-80447400I0J-135000D01*
G01*
X156150100Y-80817400D01*
G75*
G02*
X156015100Y-80952400I-135000J0D01*
G01*
X155745100Y-80952400D01*
G75*
G02*
X155610100Y-80817400I0J135000D01*
G01*
G37*
D17*
X155370100Y-72382400D03*
X155370100Y-65882400D03*
X159870100Y-72382400D03*
X159870100Y-65882400D03*
X136870100Y-72382400D03*
X136870100Y-65882400D03*
X141370100Y-72382400D03*
X141370100Y-65882400D03*
G36*
G01*
X131820100Y-89137400D02*
X131820100Y-89437400D01*
G75*
G02*
X131670100Y-89587400I-150000J0D01*
G01*
X130020100Y-89587400D01*
G75*
G02*
X129870100Y-89437400I0J150000D01*
G01*
X129870100Y-89137400D01*
G75*
G02*
X130020100Y-88987400I150000J0D01*
G01*
X131670100Y-88987400D01*
G75*
G02*
X131820100Y-89137400I0J-150000D01*
G01*
G37*
G36*
G01*
X131820100Y-87867400D02*
X131820100Y-88167400D01*
G75*
G02*
X131670100Y-88317400I-150000J0D01*
G01*
X130020100Y-88317400D01*
G75*
G02*
X129870100Y-88167400I0J150000D01*
G01*
X129870100Y-87867400D01*
G75*
G02*
X130020100Y-87717400I150000J0D01*
G01*
X131670100Y-87717400D01*
G75*
G02*
X131820100Y-87867400I0J-150000D01*
G01*
G37*
G36*
G01*
X131820100Y-86597400D02*
X131820100Y-86897400D01*
G75*
G02*
X131670100Y-87047400I-150000J0D01*
G01*
X130020100Y-87047400D01*
G75*
G02*
X129870100Y-86897400I0J150000D01*
G01*
X129870100Y-86597400D01*
G75*
G02*
X130020100Y-86447400I150000J0D01*
G01*
X131670100Y-86447400D01*
G75*
G02*
X131820100Y-86597400I0J-150000D01*
G01*
G37*
G36*
G01*
X131820100Y-85327400D02*
X131820100Y-85627400D01*
G75*
G02*
X131670100Y-85777400I-150000J0D01*
G01*
X130020100Y-85777400D01*
G75*
G02*
X129870100Y-85627400I0J150000D01*
G01*
X129870100Y-85327400D01*
G75*
G02*
X130020100Y-85177400I150000J0D01*
G01*
X131670100Y-85177400D01*
G75*
G02*
X131820100Y-85327400I0J-150000D01*
G01*
G37*
G36*
G01*
X126870100Y-85327400D02*
X126870100Y-85627400D01*
G75*
G02*
X126720100Y-85777400I-150000J0D01*
G01*
X125070100Y-85777400D01*
G75*
G02*
X124920100Y-85627400I0J150000D01*
G01*
X124920100Y-85327400D01*
G75*
G02*
X125070100Y-85177400I150000J0D01*
G01*
X126720100Y-85177400D01*
G75*
G02*
X126870100Y-85327400I0J-150000D01*
G01*
G37*
G36*
G01*
X126870100Y-86597400D02*
X126870100Y-86897400D01*
G75*
G02*
X126720100Y-87047400I-150000J0D01*
G01*
X125070100Y-87047400D01*
G75*
G02*
X124920100Y-86897400I0J150000D01*
G01*
X124920100Y-86597400D01*
G75*
G02*
X125070100Y-86447400I150000J0D01*
G01*
X126720100Y-86447400D01*
G75*
G02*
X126870100Y-86597400I0J-150000D01*
G01*
G37*
G36*
G01*
X126870100Y-87867400D02*
X126870100Y-88167400D01*
G75*
G02*
X126720100Y-88317400I-150000J0D01*
G01*
X125070100Y-88317400D01*
G75*
G02*
X124920100Y-88167400I0J150000D01*
G01*
X124920100Y-87867400D01*
G75*
G02*
X125070100Y-87717400I150000J0D01*
G01*
X126720100Y-87717400D01*
G75*
G02*
X126870100Y-87867400I0J-150000D01*
G01*
G37*
G36*
G01*
X126870100Y-89137400D02*
X126870100Y-89437400D01*
G75*
G02*
X126720100Y-89587400I-150000J0D01*
G01*
X125070100Y-89587400D01*
G75*
G02*
X124920100Y-89437400I0J150000D01*
G01*
X124920100Y-89137400D01*
G75*
G02*
X125070100Y-88987400I150000J0D01*
G01*
X126720100Y-88987400D01*
G75*
G02*
X126870100Y-89137400I0J-150000D01*
G01*
G37*
G36*
G01*
X153595100Y-75126150D02*
X153595100Y-75638650D01*
G75*
G02*
X153376350Y-75857400I-218750J0D01*
G01*
X152938850Y-75857400D01*
G75*
G02*
X152720100Y-75638650I0J218750D01*
G01*
X152720100Y-75126150D01*
G75*
G02*
X152938850Y-74907400I218750J0D01*
G01*
X153376350Y-74907400D01*
G75*
G02*
X153595100Y-75126150I0J-218750D01*
G01*
G37*
G36*
G01*
X152020100Y-75126150D02*
X152020100Y-75638650D01*
G75*
G02*
X151801350Y-75857400I-218750J0D01*
G01*
X151363850Y-75857400D01*
G75*
G02*
X151145100Y-75638650I0J218750D01*
G01*
X151145100Y-75126150D01*
G75*
G02*
X151363850Y-74907400I218750J0D01*
G01*
X151801350Y-74907400D01*
G75*
G02*
X152020100Y-75126150I0J-218750D01*
G01*
G37*
G36*
G01*
X153595100Y-76876150D02*
X153595100Y-77388650D01*
G75*
G02*
X153376350Y-77607400I-218750J0D01*
G01*
X152938850Y-77607400D01*
G75*
G02*
X152720100Y-77388650I0J218750D01*
G01*
X152720100Y-76876150D01*
G75*
G02*
X152938850Y-76657400I218750J0D01*
G01*
X153376350Y-76657400D01*
G75*
G02*
X153595100Y-76876150I0J-218750D01*
G01*
G37*
G36*
G01*
X152020100Y-76876150D02*
X152020100Y-77388650D01*
G75*
G02*
X151801350Y-77607400I-218750J0D01*
G01*
X151363850Y-77607400D01*
G75*
G02*
X151145100Y-77388650I0J218750D01*
G01*
X151145100Y-76876150D01*
G75*
G02*
X151363850Y-76657400I218750J0D01*
G01*
X151801350Y-76657400D01*
G75*
G02*
X152020100Y-76876150I0J-218750D01*
G01*
G37*
G36*
G01*
X153595100Y-78626150D02*
X153595100Y-79138650D01*
G75*
G02*
X153376350Y-79357400I-218750J0D01*
G01*
X152938850Y-79357400D01*
G75*
G02*
X152720100Y-79138650I0J218750D01*
G01*
X152720100Y-78626150D01*
G75*
G02*
X152938850Y-78407400I218750J0D01*
G01*
X153376350Y-78407400D01*
G75*
G02*
X153595100Y-78626150I0J-218750D01*
G01*
G37*
G36*
G01*
X152020100Y-78626150D02*
X152020100Y-79138650D01*
G75*
G02*
X151801350Y-79357400I-218750J0D01*
G01*
X151363850Y-79357400D01*
G75*
G02*
X151145100Y-79138650I0J218750D01*
G01*
X151145100Y-78626150D01*
G75*
G02*
X151363850Y-78407400I218750J0D01*
G01*
X151801350Y-78407400D01*
G75*
G02*
X152020100Y-78626150I0J-218750D01*
G01*
G37*
G36*
G01*
X153595100Y-80376150D02*
X153595100Y-80888650D01*
G75*
G02*
X153376350Y-81107400I-218750J0D01*
G01*
X152938850Y-81107400D01*
G75*
G02*
X152720100Y-80888650I0J218750D01*
G01*
X152720100Y-80376150D01*
G75*
G02*
X152938850Y-80157400I218750J0D01*
G01*
X153376350Y-80157400D01*
G75*
G02*
X153595100Y-80376150I0J-218750D01*
G01*
G37*
G36*
G01*
X152020100Y-80376150D02*
X152020100Y-80888650D01*
G75*
G02*
X151801350Y-81107400I-218750J0D01*
G01*
X151363850Y-81107400D01*
G75*
G02*
X151145100Y-80888650I0J218750D01*
G01*
X151145100Y-80376150D01*
G75*
G02*
X151363850Y-80157400I218750J0D01*
G01*
X151801350Y-80157400D01*
G75*
G02*
X152020100Y-80376150I0J-218750D01*
G01*
G37*
G36*
G01*
X153595100Y-82126150D02*
X153595100Y-82638650D01*
G75*
G02*
X153376350Y-82857400I-218750J0D01*
G01*
X152938850Y-82857400D01*
G75*
G02*
X152720100Y-82638650I0J218750D01*
G01*
X152720100Y-82126150D01*
G75*
G02*
X152938850Y-81907400I218750J0D01*
G01*
X153376350Y-81907400D01*
G75*
G02*
X153595100Y-82126150I0J-218750D01*
G01*
G37*
G36*
G01*
X152020100Y-82126150D02*
X152020100Y-82638650D01*
G75*
G02*
X151801350Y-82857400I-218750J0D01*
G01*
X151363850Y-82857400D01*
G75*
G02*
X151145100Y-82638650I0J218750D01*
G01*
X151145100Y-82126150D01*
G75*
G02*
X151363850Y-81907400I218750J0D01*
G01*
X151801350Y-81907400D01*
G75*
G02*
X152020100Y-82126150I0J-218750D01*
G01*
G37*
G36*
G01*
X153595100Y-83876150D02*
X153595100Y-84388650D01*
G75*
G02*
X153376350Y-84607400I-218750J0D01*
G01*
X152938850Y-84607400D01*
G75*
G02*
X152720100Y-84388650I0J218750D01*
G01*
X152720100Y-83876150D01*
G75*
G02*
X152938850Y-83657400I218750J0D01*
G01*
X153376350Y-83657400D01*
G75*
G02*
X153595100Y-83876150I0J-218750D01*
G01*
G37*
G36*
G01*
X152020100Y-83876150D02*
X152020100Y-84388650D01*
G75*
G02*
X151801350Y-84607400I-218750J0D01*
G01*
X151363850Y-84607400D01*
G75*
G02*
X151145100Y-84388650I0J218750D01*
G01*
X151145100Y-83876150D01*
G75*
G02*
X151363850Y-83657400I218750J0D01*
G01*
X151801350Y-83657400D01*
G75*
G02*
X152020100Y-83876150I0J-218750D01*
G01*
G37*
G36*
G01*
X153595100Y-85626150D02*
X153595100Y-86138650D01*
G75*
G02*
X153376350Y-86357400I-218750J0D01*
G01*
X152938850Y-86357400D01*
G75*
G02*
X152720100Y-86138650I0J218750D01*
G01*
X152720100Y-85626150D01*
G75*
G02*
X152938850Y-85407400I218750J0D01*
G01*
X153376350Y-85407400D01*
G75*
G02*
X153595100Y-85626150I0J-218750D01*
G01*
G37*
G36*
G01*
X152020100Y-85626150D02*
X152020100Y-86138650D01*
G75*
G02*
X151801350Y-86357400I-218750J0D01*
G01*
X151363850Y-86357400D01*
G75*
G02*
X151145100Y-86138650I0J218750D01*
G01*
X151145100Y-85626150D01*
G75*
G02*
X151363850Y-85407400I218750J0D01*
G01*
X151801350Y-85407400D01*
G75*
G02*
X152020100Y-85626150I0J-218750D01*
G01*
G37*
G36*
G01*
X153595100Y-87376150D02*
X153595100Y-87888650D01*
G75*
G02*
X153376350Y-88107400I-218750J0D01*
G01*
X152938850Y-88107400D01*
G75*
G02*
X152720100Y-87888650I0J218750D01*
G01*
X152720100Y-87376150D01*
G75*
G02*
X152938850Y-87157400I218750J0D01*
G01*
X153376350Y-87157400D01*
G75*
G02*
X153595100Y-87376150I0J-218750D01*
G01*
G37*
G36*
G01*
X152020100Y-87376150D02*
X152020100Y-87888650D01*
G75*
G02*
X151801350Y-88107400I-218750J0D01*
G01*
X151363850Y-88107400D01*
G75*
G02*
X151145100Y-87888650I0J218750D01*
G01*
X151145100Y-87376150D01*
G75*
G02*
X151363850Y-87157400I218750J0D01*
G01*
X151801350Y-87157400D01*
G75*
G02*
X152020100Y-87376150I0J-218750D01*
G01*
G37*
G36*
G01*
X153595100Y-89126150D02*
X153595100Y-89638650D01*
G75*
G02*
X153376350Y-89857400I-218750J0D01*
G01*
X152938850Y-89857400D01*
G75*
G02*
X152720100Y-89638650I0J218750D01*
G01*
X152720100Y-89126150D01*
G75*
G02*
X152938850Y-88907400I218750J0D01*
G01*
X153376350Y-88907400D01*
G75*
G02*
X153595100Y-89126150I0J-218750D01*
G01*
G37*
G36*
G01*
X152020100Y-89126150D02*
X152020100Y-89638650D01*
G75*
G02*
X151801350Y-89857400I-218750J0D01*
G01*
X151363850Y-89857400D01*
G75*
G02*
X151145100Y-89638650I0J218750D01*
G01*
X151145100Y-89126150D01*
G75*
G02*
X151363850Y-88907400I218750J0D01*
G01*
X151801350Y-88907400D01*
G75*
G02*
X152020100Y-89126150I0J-218750D01*
G01*
G37*
G36*
G01*
X153595100Y-90876150D02*
X153595100Y-91388650D01*
G75*
G02*
X153376350Y-91607400I-218750J0D01*
G01*
X152938850Y-91607400D01*
G75*
G02*
X152720100Y-91388650I0J218750D01*
G01*
X152720100Y-90876150D01*
G75*
G02*
X152938850Y-90657400I218750J0D01*
G01*
X153376350Y-90657400D01*
G75*
G02*
X153595100Y-90876150I0J-218750D01*
G01*
G37*
G36*
G01*
X152020100Y-90876150D02*
X152020100Y-91388650D01*
G75*
G02*
X151801350Y-91607400I-218750J0D01*
G01*
X151363850Y-91607400D01*
G75*
G02*
X151145100Y-91388650I0J218750D01*
G01*
X151145100Y-90876150D01*
G75*
G02*
X151363850Y-90657400I218750J0D01*
G01*
X151801350Y-90657400D01*
G75*
G02*
X152020100Y-90876150I0J-218750D01*
G01*
G37*
G36*
G01*
X153595100Y-92626150D02*
X153595100Y-93138650D01*
G75*
G02*
X153376350Y-93357400I-218750J0D01*
G01*
X152938850Y-93357400D01*
G75*
G02*
X152720100Y-93138650I0J218750D01*
G01*
X152720100Y-92626150D01*
G75*
G02*
X152938850Y-92407400I218750J0D01*
G01*
X153376350Y-92407400D01*
G75*
G02*
X153595100Y-92626150I0J-218750D01*
G01*
G37*
G36*
G01*
X152020100Y-92626150D02*
X152020100Y-93138650D01*
G75*
G02*
X151801350Y-93357400I-218750J0D01*
G01*
X151363850Y-93357400D01*
G75*
G02*
X151145100Y-93138650I0J218750D01*
G01*
X151145100Y-92626150D01*
G75*
G02*
X151363850Y-92407400I218750J0D01*
G01*
X151801350Y-92407400D01*
G75*
G02*
X152020100Y-92626150I0J-218750D01*
G01*
G37*
G36*
G01*
X153595100Y-94376150D02*
X153595100Y-94888650D01*
G75*
G02*
X153376350Y-95107400I-218750J0D01*
G01*
X152938850Y-95107400D01*
G75*
G02*
X152720100Y-94888650I0J218750D01*
G01*
X152720100Y-94376150D01*
G75*
G02*
X152938850Y-94157400I218750J0D01*
G01*
X153376350Y-94157400D01*
G75*
G02*
X153595100Y-94376150I0J-218750D01*
G01*
G37*
G36*
G01*
X152020100Y-94376150D02*
X152020100Y-94888650D01*
G75*
G02*
X151801350Y-95107400I-218750J0D01*
G01*
X151363850Y-95107400D01*
G75*
G02*
X151145100Y-94888650I0J218750D01*
G01*
X151145100Y-94376150D01*
G75*
G02*
X151363850Y-94157400I218750J0D01*
G01*
X151801350Y-94157400D01*
G75*
G02*
X152020100Y-94376150I0J-218750D01*
G01*
G37*
G36*
G01*
X153595100Y-96126150D02*
X153595100Y-96638650D01*
G75*
G02*
X153376350Y-96857400I-218750J0D01*
G01*
X152938850Y-96857400D01*
G75*
G02*
X152720100Y-96638650I0J218750D01*
G01*
X152720100Y-96126150D01*
G75*
G02*
X152938850Y-95907400I218750J0D01*
G01*
X153376350Y-95907400D01*
G75*
G02*
X153595100Y-96126150I0J-218750D01*
G01*
G37*
G36*
G01*
X152020100Y-96126150D02*
X152020100Y-96638650D01*
G75*
G02*
X151801350Y-96857400I-218750J0D01*
G01*
X151363850Y-96857400D01*
G75*
G02*
X151145100Y-96638650I0J218750D01*
G01*
X151145100Y-96126150D01*
G75*
G02*
X151363850Y-95907400I218750J0D01*
G01*
X151801350Y-95907400D01*
G75*
G02*
X152020100Y-96126150I0J-218750D01*
G01*
G37*
G36*
G01*
X154580100Y-82567400D02*
X154580100Y-82197400D01*
G75*
G02*
X154715100Y-82062400I135000J0D01*
G01*
X154985100Y-82062400D01*
G75*
G02*
X155120100Y-82197400I0J-135000D01*
G01*
X155120100Y-82567400D01*
G75*
G02*
X154985100Y-82702400I-135000J0D01*
G01*
X154715100Y-82702400D01*
G75*
G02*
X154580100Y-82567400I0J135000D01*
G01*
G37*
G36*
G01*
X155600100Y-82567400D02*
X155600100Y-82197400D01*
G75*
G02*
X155735100Y-82062400I135000J0D01*
G01*
X156005100Y-82062400D01*
G75*
G02*
X156140100Y-82197400I0J-135000D01*
G01*
X156140100Y-82567400D01*
G75*
G02*
X156005100Y-82702400I-135000J0D01*
G01*
X155735100Y-82702400D01*
G75*
G02*
X155600100Y-82567400I0J135000D01*
G01*
G37*
G36*
G01*
X154590100Y-84317400D02*
X154590100Y-83947400D01*
G75*
G02*
X154725100Y-83812400I135000J0D01*
G01*
X154995100Y-83812400D01*
G75*
G02*
X155130100Y-83947400I0J-135000D01*
G01*
X155130100Y-84317400D01*
G75*
G02*
X154995100Y-84452400I-135000J0D01*
G01*
X154725100Y-84452400D01*
G75*
G02*
X154590100Y-84317400I0J135000D01*
G01*
G37*
G36*
G01*
X155610100Y-84317400D02*
X155610100Y-83947400D01*
G75*
G02*
X155745100Y-83812400I135000J0D01*
G01*
X156015100Y-83812400D01*
G75*
G02*
X156150100Y-83947400I0J-135000D01*
G01*
X156150100Y-84317400D01*
G75*
G02*
X156015100Y-84452400I-135000J0D01*
G01*
X155745100Y-84452400D01*
G75*
G02*
X155610100Y-84317400I0J135000D01*
G01*
G37*
G36*
G01*
X154590100Y-86067400D02*
X154590100Y-85697400D01*
G75*
G02*
X154725100Y-85562400I135000J0D01*
G01*
X154995100Y-85562400D01*
G75*
G02*
X155130100Y-85697400I0J-135000D01*
G01*
X155130100Y-86067400D01*
G75*
G02*
X154995100Y-86202400I-135000J0D01*
G01*
X154725100Y-86202400D01*
G75*
G02*
X154590100Y-86067400I0J135000D01*
G01*
G37*
G36*
G01*
X155610100Y-86067400D02*
X155610100Y-85697400D01*
G75*
G02*
X155745100Y-85562400I135000J0D01*
G01*
X156015100Y-85562400D01*
G75*
G02*
X156150100Y-85697400I0J-135000D01*
G01*
X156150100Y-86067400D01*
G75*
G02*
X156015100Y-86202400I-135000J0D01*
G01*
X155745100Y-86202400D01*
G75*
G02*
X155610100Y-86067400I0J135000D01*
G01*
G37*
G36*
G01*
X154590100Y-87817400D02*
X154590100Y-87447400D01*
G75*
G02*
X154725100Y-87312400I135000J0D01*
G01*
X154995100Y-87312400D01*
G75*
G02*
X155130100Y-87447400I0J-135000D01*
G01*
X155130100Y-87817400D01*
G75*
G02*
X154995100Y-87952400I-135000J0D01*
G01*
X154725100Y-87952400D01*
G75*
G02*
X154590100Y-87817400I0J135000D01*
G01*
G37*
G36*
G01*
X155610100Y-87817400D02*
X155610100Y-87447400D01*
G75*
G02*
X155745100Y-87312400I135000J0D01*
G01*
X156015100Y-87312400D01*
G75*
G02*
X156150100Y-87447400I0J-135000D01*
G01*
X156150100Y-87817400D01*
G75*
G02*
X156015100Y-87952400I-135000J0D01*
G01*
X155745100Y-87952400D01*
G75*
G02*
X155610100Y-87817400I0J135000D01*
G01*
G37*
G36*
G01*
X154590100Y-89567400D02*
X154590100Y-89197400D01*
G75*
G02*
X154725100Y-89062400I135000J0D01*
G01*
X154995100Y-89062400D01*
G75*
G02*
X155130100Y-89197400I0J-135000D01*
G01*
X155130100Y-89567400D01*
G75*
G02*
X154995100Y-89702400I-135000J0D01*
G01*
X154725100Y-89702400D01*
G75*
G02*
X154590100Y-89567400I0J135000D01*
G01*
G37*
G36*
G01*
X155610100Y-89567400D02*
X155610100Y-89197400D01*
G75*
G02*
X155745100Y-89062400I135000J0D01*
G01*
X156015100Y-89062400D01*
G75*
G02*
X156150100Y-89197400I0J-135000D01*
G01*
X156150100Y-89567400D01*
G75*
G02*
X156015100Y-89702400I-135000J0D01*
G01*
X155745100Y-89702400D01*
G75*
G02*
X155610100Y-89567400I0J135000D01*
G01*
G37*
G36*
G01*
X154590100Y-91317400D02*
X154590100Y-90947400D01*
G75*
G02*
X154725100Y-90812400I135000J0D01*
G01*
X154995100Y-90812400D01*
G75*
G02*
X155130100Y-90947400I0J-135000D01*
G01*
X155130100Y-91317400D01*
G75*
G02*
X154995100Y-91452400I-135000J0D01*
G01*
X154725100Y-91452400D01*
G75*
G02*
X154590100Y-91317400I0J135000D01*
G01*
G37*
G36*
G01*
X155610100Y-91317400D02*
X155610100Y-90947400D01*
G75*
G02*
X155745100Y-90812400I135000J0D01*
G01*
X156015100Y-90812400D01*
G75*
G02*
X156150100Y-90947400I0J-135000D01*
G01*
X156150100Y-91317400D01*
G75*
G02*
X156015100Y-91452400I-135000J0D01*
G01*
X155745100Y-91452400D01*
G75*
G02*
X155610100Y-91317400I0J135000D01*
G01*
G37*
G36*
G01*
X154590100Y-93067400D02*
X154590100Y-92697400D01*
G75*
G02*
X154725100Y-92562400I135000J0D01*
G01*
X154995100Y-92562400D01*
G75*
G02*
X155130100Y-92697400I0J-135000D01*
G01*
X155130100Y-93067400D01*
G75*
G02*
X154995100Y-93202400I-135000J0D01*
G01*
X154725100Y-93202400D01*
G75*
G02*
X154590100Y-93067400I0J135000D01*
G01*
G37*
G36*
G01*
X155610100Y-93067400D02*
X155610100Y-92697400D01*
G75*
G02*
X155745100Y-92562400I135000J0D01*
G01*
X156015100Y-92562400D01*
G75*
G02*
X156150100Y-92697400I0J-135000D01*
G01*
X156150100Y-93067400D01*
G75*
G02*
X156015100Y-93202400I-135000J0D01*
G01*
X155745100Y-93202400D01*
G75*
G02*
X155610100Y-93067400I0J135000D01*
G01*
G37*
G36*
G01*
X154590100Y-94817400D02*
X154590100Y-94447400D01*
G75*
G02*
X154725100Y-94312400I135000J0D01*
G01*
X154995100Y-94312400D01*
G75*
G02*
X155130100Y-94447400I0J-135000D01*
G01*
X155130100Y-94817400D01*
G75*
G02*
X154995100Y-94952400I-135000J0D01*
G01*
X154725100Y-94952400D01*
G75*
G02*
X154590100Y-94817400I0J135000D01*
G01*
G37*
G36*
G01*
X155610100Y-94817400D02*
X155610100Y-94447400D01*
G75*
G02*
X155745100Y-94312400I135000J0D01*
G01*
X156015100Y-94312400D01*
G75*
G02*
X156150100Y-94447400I0J-135000D01*
G01*
X156150100Y-94817400D01*
G75*
G02*
X156015100Y-94952400I-135000J0D01*
G01*
X155745100Y-94952400D01*
G75*
G02*
X155610100Y-94817400I0J135000D01*
G01*
G37*
G36*
G01*
X154590100Y-96567400D02*
X154590100Y-96197400D01*
G75*
G02*
X154725100Y-96062400I135000J0D01*
G01*
X154995100Y-96062400D01*
G75*
G02*
X155130100Y-96197400I0J-135000D01*
G01*
X155130100Y-96567400D01*
G75*
G02*
X154995100Y-96702400I-135000J0D01*
G01*
X154725100Y-96702400D01*
G75*
G02*
X154590100Y-96567400I0J135000D01*
G01*
G37*
G36*
G01*
X155610100Y-96567400D02*
X155610100Y-96197400D01*
G75*
G02*
X155745100Y-96062400I135000J0D01*
G01*
X156015100Y-96062400D01*
G75*
G02*
X156150100Y-96197400I0J-135000D01*
G01*
X156150100Y-96567400D01*
G75*
G02*
X156015100Y-96702400I-135000J0D01*
G01*
X155745100Y-96702400D01*
G75*
G02*
X155610100Y-96567400I0J135000D01*
G01*
G37*
G36*
G01*
X134140100Y-86597400D02*
X134140100Y-86967400D01*
G75*
G02*
X134005100Y-87102400I-135000J0D01*
G01*
X133735100Y-87102400D01*
G75*
G02*
X133600100Y-86967400I0J135000D01*
G01*
X133600100Y-86597400D01*
G75*
G02*
X133735100Y-86462400I135000J0D01*
G01*
X134005100Y-86462400D01*
G75*
G02*
X134140100Y-86597400I0J-135000D01*
G01*
G37*
G36*
G01*
X133120100Y-86597400D02*
X133120100Y-86967400D01*
G75*
G02*
X132985100Y-87102400I-135000J0D01*
G01*
X132715100Y-87102400D01*
G75*
G02*
X132580100Y-86967400I0J135000D01*
G01*
X132580100Y-86597400D01*
G75*
G02*
X132715100Y-86462400I135000J0D01*
G01*
X132985100Y-86462400D01*
G75*
G02*
X133120100Y-86597400I0J-135000D01*
G01*
G37*
G36*
G01*
X134140100Y-87847400D02*
X134140100Y-88217400D01*
G75*
G02*
X134005100Y-88352400I-135000J0D01*
G01*
X133735100Y-88352400D01*
G75*
G02*
X133600100Y-88217400I0J135000D01*
G01*
X133600100Y-87847400D01*
G75*
G02*
X133735100Y-87712400I135000J0D01*
G01*
X134005100Y-87712400D01*
G75*
G02*
X134140100Y-87847400I0J-135000D01*
G01*
G37*
G36*
G01*
X133120100Y-87847400D02*
X133120100Y-88217400D01*
G75*
G02*
X132985100Y-88352400I-135000J0D01*
G01*
X132715100Y-88352400D01*
G75*
G02*
X132580100Y-88217400I0J135000D01*
G01*
X132580100Y-87847400D01*
G75*
G02*
X132715100Y-87712400I135000J0D01*
G01*
X132985100Y-87712400D01*
G75*
G02*
X133120100Y-87847400I0J-135000D01*
G01*
G37*
G36*
G01*
X134150100Y-89097400D02*
X134150100Y-89467400D01*
G75*
G02*
X134015100Y-89602400I-135000J0D01*
G01*
X133745100Y-89602400D01*
G75*
G02*
X133610100Y-89467400I0J135000D01*
G01*
X133610100Y-89097400D01*
G75*
G02*
X133745100Y-88962400I135000J0D01*
G01*
X134015100Y-88962400D01*
G75*
G02*
X134150100Y-89097400I0J-135000D01*
G01*
G37*
G36*
G01*
X133130100Y-89097400D02*
X133130100Y-89467400D01*
G75*
G02*
X132995100Y-89602400I-135000J0D01*
G01*
X132725100Y-89602400D01*
G75*
G02*
X132590100Y-89467400I0J135000D01*
G01*
X132590100Y-89097400D01*
G75*
G02*
X132725100Y-88962400I135000J0D01*
G01*
X132995100Y-88962400D01*
G75*
G02*
X133130100Y-89097400I0J-135000D01*
G01*
G37*
G36*
G01*
X122555100Y-91162400D02*
X122185100Y-91162400D01*
G75*
G02*
X122050100Y-91027400I0J135000D01*
G01*
X122050100Y-90757400D01*
G75*
G02*
X122185100Y-90622400I135000J0D01*
G01*
X122555100Y-90622400D01*
G75*
G02*
X122690100Y-90757400I0J-135000D01*
G01*
X122690100Y-91027400D01*
G75*
G02*
X122555100Y-91162400I-135000J0D01*
G01*
G37*
G36*
G01*
X122555100Y-90142400D02*
X122185100Y-90142400D01*
G75*
G02*
X122050100Y-90007400I0J135000D01*
G01*
X122050100Y-89737400D01*
G75*
G02*
X122185100Y-89602400I135000J0D01*
G01*
X122555100Y-89602400D01*
G75*
G02*
X122690100Y-89737400I0J-135000D01*
G01*
X122690100Y-90007400D01*
G75*
G02*
X122555100Y-90142400I-135000J0D01*
G01*
G37*
G36*
G01*
X154590100Y-79067400D02*
X154590100Y-78697400D01*
G75*
G02*
X154725100Y-78562400I135000J0D01*
G01*
X154995100Y-78562400D01*
G75*
G02*
X155130100Y-78697400I0J-135000D01*
G01*
X155130100Y-79067400D01*
G75*
G02*
X154995100Y-79202400I-135000J0D01*
G01*
X154725100Y-79202400D01*
G75*
G02*
X154590100Y-79067400I0J135000D01*
G01*
G37*
G36*
G01*
X155610100Y-79067400D02*
X155610100Y-78697400D01*
G75*
G02*
X155745100Y-78562400I135000J0D01*
G01*
X156015100Y-78562400D01*
G75*
G02*
X156150100Y-78697400I0J-135000D01*
G01*
X156150100Y-79067400D01*
G75*
G02*
X156015100Y-79202400I-135000J0D01*
G01*
X155745100Y-79202400D01*
G75*
G02*
X155610100Y-79067400I0J135000D01*
G01*
G37*
G36*
X130620100Y-92232400D02*
G01*
X130620100Y-91732400D01*
X130624378Y-91732400D01*
X130624378Y-91667137D01*
X130658160Y-91541058D01*
X130723423Y-91428019D01*
X130815719Y-91335723D01*
X130928758Y-91270460D01*
X131054837Y-91236678D01*
X131120100Y-91236678D01*
X131120100Y-91232400D01*
X131620100Y-91232400D01*
X131620100Y-91236678D01*
X131685363Y-91236678D01*
X131811442Y-91270460D01*
X131924481Y-91335723D01*
X132016777Y-91428019D01*
X132082040Y-91541058D01*
X132115822Y-91667137D01*
X132115822Y-91732400D01*
X132120100Y-91732400D01*
X132120100Y-92232400D01*
X130620100Y-92232400D01*
G37*
G36*
X132115822Y-93032400D02*
G01*
X132115822Y-93097663D01*
X132082040Y-93223742D01*
X132016777Y-93336781D01*
X131924481Y-93429077D01*
X131811442Y-93494340D01*
X131685363Y-93528122D01*
X131620100Y-93528122D01*
X131620100Y-93532400D01*
X131120100Y-93532400D01*
X131120100Y-93528122D01*
X131054837Y-93528122D01*
X130928758Y-93494340D01*
X130815719Y-93429077D01*
X130723423Y-93336781D01*
X130658160Y-93223742D01*
X130624378Y-93097663D01*
X130624378Y-93032400D01*
X130620100Y-93032400D01*
X130620100Y-92532400D01*
X132120100Y-92532400D01*
X132120100Y-93032400D01*
X132115822Y-93032400D01*
G37*
G36*
G01*
X155625100Y-102182400D02*
X155925100Y-102182400D01*
G75*
G02*
X156075100Y-102332400I0J-150000D01*
G01*
X156075100Y-103982400D01*
G75*
G02*
X155925100Y-104132400I-150000J0D01*
G01*
X155625100Y-104132400D01*
G75*
G02*
X155475100Y-103982400I0J150000D01*
G01*
X155475100Y-102332400D01*
G75*
G02*
X155625100Y-102182400I150000J0D01*
G01*
G37*
G36*
G01*
X154355100Y-102182400D02*
X154655100Y-102182400D01*
G75*
G02*
X154805100Y-102332400I0J-150000D01*
G01*
X154805100Y-103982400D01*
G75*
G02*
X154655100Y-104132400I-150000J0D01*
G01*
X154355100Y-104132400D01*
G75*
G02*
X154205100Y-103982400I0J150000D01*
G01*
X154205100Y-102332400D01*
G75*
G02*
X154355100Y-102182400I150000J0D01*
G01*
G37*
G36*
G01*
X153085100Y-102182400D02*
X153385100Y-102182400D01*
G75*
G02*
X153535100Y-102332400I0J-150000D01*
G01*
X153535100Y-103982400D01*
G75*
G02*
X153385100Y-104132400I-150000J0D01*
G01*
X153085100Y-104132400D01*
G75*
G02*
X152935100Y-103982400I0J150000D01*
G01*
X152935100Y-102332400D01*
G75*
G02*
X153085100Y-102182400I150000J0D01*
G01*
G37*
G36*
G01*
X151815100Y-102182400D02*
X152115100Y-102182400D01*
G75*
G02*
X152265100Y-102332400I0J-150000D01*
G01*
X152265100Y-103982400D01*
G75*
G02*
X152115100Y-104132400I-150000J0D01*
G01*
X151815100Y-104132400D01*
G75*
G02*
X151665100Y-103982400I0J150000D01*
G01*
X151665100Y-102332400D01*
G75*
G02*
X151815100Y-102182400I150000J0D01*
G01*
G37*
G36*
G01*
X151815100Y-107132400D02*
X152115100Y-107132400D01*
G75*
G02*
X152265100Y-107282400I0J-150000D01*
G01*
X152265100Y-108932400D01*
G75*
G02*
X152115100Y-109082400I-150000J0D01*
G01*
X151815100Y-109082400D01*
G75*
G02*
X151665100Y-108932400I0J150000D01*
G01*
X151665100Y-107282400D01*
G75*
G02*
X151815100Y-107132400I150000J0D01*
G01*
G37*
G36*
G01*
X153085100Y-107132400D02*
X153385100Y-107132400D01*
G75*
G02*
X153535100Y-107282400I0J-150000D01*
G01*
X153535100Y-108932400D01*
G75*
G02*
X153385100Y-109082400I-150000J0D01*
G01*
X153085100Y-109082400D01*
G75*
G02*
X152935100Y-108932400I0J150000D01*
G01*
X152935100Y-107282400D01*
G75*
G02*
X153085100Y-107132400I150000J0D01*
G01*
G37*
G36*
G01*
X154355100Y-107132400D02*
X154655100Y-107132400D01*
G75*
G02*
X154805100Y-107282400I0J-150000D01*
G01*
X154805100Y-108932400D01*
G75*
G02*
X154655100Y-109082400I-150000J0D01*
G01*
X154355100Y-109082400D01*
G75*
G02*
X154205100Y-108932400I0J150000D01*
G01*
X154205100Y-107282400D01*
G75*
G02*
X154355100Y-107132400I150000J0D01*
G01*
G37*
G36*
G01*
X155625100Y-107132400D02*
X155925100Y-107132400D01*
G75*
G02*
X156075100Y-107282400I0J-150000D01*
G01*
X156075100Y-108932400D01*
G75*
G02*
X155925100Y-109082400I-150000J0D01*
G01*
X155625100Y-109082400D01*
G75*
G02*
X155475100Y-108932400I0J150000D01*
G01*
X155475100Y-107282400D01*
G75*
G02*
X155625100Y-107132400I150000J0D01*
G01*
G37*
G36*
G01*
X130620100Y-51632401D02*
X130620100Y-54132399D01*
G75*
G02*
X130370099Y-54382400I-250001J0D01*
G01*
X129370101Y-54382400D01*
G75*
G02*
X129120100Y-54132399I0J250001D01*
G01*
X129120100Y-51632401D01*
G75*
G02*
X129370101Y-51382400I250001J0D01*
G01*
X130370099Y-51382400D01*
G75*
G02*
X130620100Y-51632401I0J-250001D01*
G01*
G37*
D14*
X129870100Y-47882400D03*
D15*
X124870100Y-52882400D03*
X124870100Y-47882400D03*
D17*
X130160100Y-66632400D03*
X127620100Y-66632400D03*
X125080100Y-66632400D03*
G36*
G01*
X130870100Y-60732400D02*
X130870100Y-62032400D01*
G75*
G02*
X130620100Y-62282400I-250000J0D01*
G01*
X128620100Y-62282400D01*
G75*
G02*
X128370100Y-62032400I0J250000D01*
G01*
X128370100Y-60732400D01*
G75*
G02*
X128620100Y-60482400I250000J0D01*
G01*
X130620100Y-60482400D01*
G75*
G02*
X130870100Y-60732400I0J-250000D01*
G01*
G37*
G36*
G01*
X126870100Y-60732400D02*
X126870100Y-62032400D01*
G75*
G02*
X126620100Y-62282400I-250000J0D01*
G01*
X124620100Y-62282400D01*
G75*
G02*
X124370100Y-62032400I0J250000D01*
G01*
X124370100Y-60732400D01*
G75*
G02*
X124620100Y-60482400I250000J0D01*
G01*
X126620100Y-60482400D01*
G75*
G02*
X126870100Y-60732400I0J-250000D01*
G01*
G37*
G36*
G01*
X157870100Y-54282400D02*
X157870100Y-53982400D01*
G75*
G02*
X158020100Y-53832400I150000J0D01*
G01*
X159045100Y-53832400D01*
G75*
G02*
X159195100Y-53982400I0J-150000D01*
G01*
X159195100Y-54282400D01*
G75*
G02*
X159045100Y-54432400I-150000J0D01*
G01*
X158020100Y-54432400D01*
G75*
G02*
X157870100Y-54282400I0J150000D01*
G01*
G37*
G36*
G01*
X157870100Y-55232400D02*
X157870100Y-54932400D01*
G75*
G02*
X158020100Y-54782400I150000J0D01*
G01*
X159045100Y-54782400D01*
G75*
G02*
X159195100Y-54932400I0J-150000D01*
G01*
X159195100Y-55232400D01*
G75*
G02*
X159045100Y-55382400I-150000J0D01*
G01*
X158020100Y-55382400D01*
G75*
G02*
X157870100Y-55232400I0J150000D01*
G01*
G37*
G36*
G01*
X157870100Y-56182400D02*
X157870100Y-55882400D01*
G75*
G02*
X158020100Y-55732400I150000J0D01*
G01*
X159045100Y-55732400D01*
G75*
G02*
X159195100Y-55882400I0J-150000D01*
G01*
X159195100Y-56182400D01*
G75*
G02*
X159045100Y-56332400I-150000J0D01*
G01*
X158020100Y-56332400D01*
G75*
G02*
X157870100Y-56182400I0J150000D01*
G01*
G37*
G36*
G01*
X160145100Y-56182400D02*
X160145100Y-55882400D01*
G75*
G02*
X160295100Y-55732400I150000J0D01*
G01*
X161320100Y-55732400D01*
G75*
G02*
X161470100Y-55882400I0J-150000D01*
G01*
X161470100Y-56182400D01*
G75*
G02*
X161320100Y-56332400I-150000J0D01*
G01*
X160295100Y-56332400D01*
G75*
G02*
X160145100Y-56182400I0J150000D01*
G01*
G37*
G36*
G01*
X160145100Y-55232400D02*
X160145100Y-54932400D01*
G75*
G02*
X160295100Y-54782400I150000J0D01*
G01*
X161320100Y-54782400D01*
G75*
G02*
X161470100Y-54932400I0J-150000D01*
G01*
X161470100Y-55232400D01*
G75*
G02*
X161320100Y-55382400I-150000J0D01*
G01*
X160295100Y-55382400D01*
G75*
G02*
X160145100Y-55232400I0J150000D01*
G01*
G37*
G36*
G01*
X160145100Y-54282400D02*
X160145100Y-53982400D01*
G75*
G02*
X160295100Y-53832400I150000J0D01*
G01*
X161320100Y-53832400D01*
G75*
G02*
X161470100Y-53982400I0J-150000D01*
G01*
X161470100Y-54282400D01*
G75*
G02*
X161320100Y-54432400I-150000J0D01*
G01*
X160295100Y-54432400D01*
G75*
G02*
X160145100Y-54282400I0J150000D01*
G01*
G37*
D18*
X123495100Y-126382400D03*
X125245100Y-126382400D03*
X125245100Y-122882400D03*
X123495100Y-122882400D03*
D19*
X145450000Y-125720000D03*
X145450000Y-124450000D03*
X145450000Y-123180000D03*
X145450000Y-121910000D03*
X145450000Y-120640000D03*
X145450000Y-119370000D03*
X145450000Y-118100000D03*
X145450000Y-116830000D03*
X145450000Y-115560000D03*
X145450000Y-114290000D03*
X145450000Y-113020000D03*
X145450000Y-111750000D03*
X145450000Y-110480000D03*
X145450000Y-109210000D03*
D20*
X143685000Y-107960000D03*
X142415000Y-107960000D03*
X141145000Y-107960000D03*
X139875000Y-107960000D03*
X138605000Y-107960000D03*
X137335000Y-107960000D03*
X136065000Y-107960000D03*
X134795000Y-107960000D03*
X133525000Y-107960000D03*
X132255000Y-107960000D03*
X130985000Y-107960000D03*
X129715000Y-107960000D03*
D19*
X127950000Y-109210000D03*
X127950000Y-110480000D03*
X127950000Y-111750000D03*
X127950000Y-113020000D03*
X127950000Y-114290000D03*
X127950000Y-115560000D03*
X127950000Y-116830000D03*
X127950000Y-118100000D03*
X127950000Y-119370000D03*
X127950000Y-120640000D03*
X127950000Y-121910000D03*
X127950000Y-123180000D03*
X127950000Y-124450000D03*
X127950000Y-125720000D03*
D21*
X139600000Y-119400000D03*
X139600000Y-118000000D03*
X139600000Y-116600000D03*
X138200000Y-119400000D03*
X138200000Y-118000000D03*
X138200000Y-116600000D03*
X136800000Y-119400000D03*
X136800000Y-118000000D03*
X136800000Y-116600000D03*
G36*
G01*
X164400100Y-59459900D02*
X164400100Y-59804900D01*
G75*
G02*
X164252600Y-59952400I-147500J0D01*
G01*
X163957600Y-59952400D01*
G75*
G02*
X163810100Y-59804900I0J147500D01*
G01*
X163810100Y-59459900D01*
G75*
G02*
X163957600Y-59312400I147500J0D01*
G01*
X164252600Y-59312400D01*
G75*
G02*
X164400100Y-59459900I0J-147500D01*
G01*
G37*
G36*
G01*
X163430100Y-59459900D02*
X163430100Y-59804900D01*
G75*
G02*
X163282600Y-59952400I-147500J0D01*
G01*
X162987600Y-59952400D01*
G75*
G02*
X162840100Y-59804900I0J147500D01*
G01*
X162840100Y-59459900D01*
G75*
G02*
X162987600Y-59312400I147500J0D01*
G01*
X163282600Y-59312400D01*
G75*
G02*
X163430100Y-59459900I0J-147500D01*
G01*
G37*
D22*
X129740100Y-104688400D03*
D23*
X129740100Y-102148400D03*
D22*
X129740100Y-99608400D03*
X124025100Y-104688400D03*
X124025100Y-99608400D03*
D23*
X122120100Y-103164400D03*
X122120100Y-101132400D03*
D24*
X128470100Y-101513400D03*
X127200100Y-101513400D03*
X125930100Y-101513400D03*
X124660100Y-101513400D03*
X123390100Y-101513400D03*
X123390100Y-102783400D03*
X124660100Y-102783400D03*
X125930100Y-102783400D03*
X127200100Y-102783400D03*
X128470100Y-102783400D03*
D25*
X164370100Y-55982400D03*
X164370100Y-55332400D03*
X164370100Y-54682400D03*
X164370100Y-54032400D03*
X164370100Y-53382400D03*
D26*
X165570100Y-57632400D03*
D27*
X164270100Y-57532400D03*
D28*
X166320100Y-57412400D03*
D29*
X167250100Y-57412400D03*
D30*
X164250100Y-57102400D03*
D31*
X167520100Y-55642400D03*
X167520100Y-53722400D03*
D30*
X164250100Y-52262400D03*
D29*
X167250100Y-51952400D03*
D28*
X166320100Y-51932400D03*
D27*
X164250100Y-51782400D03*
D26*
X165570100Y-51682400D03*
D12*
X143670100Y-100282400D03*
D13*
X141130100Y-100282400D03*
X138590100Y-100282400D03*
G36*
X124120100Y-84032400D02*
G01*
X123620100Y-84032400D01*
X123620100Y-84028122D01*
X123554837Y-84028122D01*
X123428758Y-83994340D01*
X123315719Y-83929077D01*
X123223423Y-83836781D01*
X123158160Y-83723742D01*
X123124378Y-83597663D01*
X123124378Y-83532400D01*
X123120100Y-83532400D01*
X123120100Y-83032400D01*
X123124378Y-83032400D01*
X123124378Y-82967137D01*
X123158160Y-82841058D01*
X123223423Y-82728019D01*
X123315719Y-82635723D01*
X123428758Y-82570460D01*
X123554837Y-82536678D01*
X123620100Y-82536678D01*
X123620100Y-82532400D01*
X124120100Y-82532400D01*
X124120100Y-84032400D01*
G37*
G36*
X124920100Y-82536678D02*
G01*
X124985363Y-82536678D01*
X125111442Y-82570460D01*
X125224481Y-82635723D01*
X125316777Y-82728019D01*
X125382040Y-82841058D01*
X125415822Y-82967137D01*
X125415822Y-83032400D01*
X125420100Y-83032400D01*
X125420100Y-83532400D01*
X125415822Y-83532400D01*
X125415822Y-83597663D01*
X125382040Y-83723742D01*
X125316777Y-83836781D01*
X125224481Y-83929077D01*
X125111442Y-83994340D01*
X124985363Y-84028122D01*
X124920100Y-84028122D01*
X124920100Y-84032400D01*
X124420100Y-84032400D01*
X124420100Y-82532400D01*
X124920100Y-82532400D01*
X124920100Y-82536678D01*
G37*
%LPD*%
M02*
