G04 #@! TF.GenerationSoftware,KiCad,Pcbnew,9.0.1+1*
G04 #@! TF.CreationDate,2025-11-20T01:05:31+00:00*
G04 #@! TF.ProjectId,com4bbb,636f6d34-6262-4622-9e6b-696361645f70,rev?*
G04 #@! TF.SameCoordinates,Original*
G04 #@! TF.FileFunction,Copper,L2,Bot*
G04 #@! TF.FilePolarity,Positive*
%FSLAX46Y46*%
G04 Gerber Fmt 4.6, Leading zero omitted, Abs format (unit mm)*
G04 Created by KiCad (PCBNEW 9.0.1+1) date 2025-11-20 01:05:31*
%MOMM*%
%LPD*%
G01*
G04 APERTURE LIST*
G04 #@! TA.AperFunction,ComponentPad*
%ADD10R,1.700000X1.700000*%
G04 #@! TD*
G04 #@! TA.AperFunction,ComponentPad*
%ADD11C,1.700000*%
G04 #@! TD*
G04 #@! TA.AperFunction,ComponentPad*
%ADD12O,1.500000X3.000000*%
G04 #@! TD*
G04 #@! TA.AperFunction,ComponentPad*
%ADD13C,2.000000*%
G04 #@! TD*
G04 #@! TA.AperFunction,HeatsinkPad*
%ADD14C,0.600000*%
G04 #@! TD*
G04 #@! TA.AperFunction,ComponentPad*
%ADD15C,2.200000*%
G04 #@! TD*
G04 #@! TA.AperFunction,ViaPad*
%ADD16C,0.600000*%
G04 #@! TD*
G04 #@! TA.AperFunction,Conductor*
%ADD17C,0.500000*%
G04 #@! TD*
G04 #@! TA.AperFunction,Conductor*
%ADD18C,0.250000*%
G04 #@! TD*
G04 APERTURE END LIST*
D10*
X164630100Y-62382400D03*
D11*
X167170100Y-62382400D03*
X164630100Y-64922400D03*
X167170100Y-64922400D03*
X164630100Y-67462400D03*
X167170100Y-67462400D03*
X164630100Y-70002400D03*
X167170100Y-70002400D03*
X164630100Y-72542400D03*
X167170100Y-72542400D03*
X164630100Y-75082400D03*
X167170100Y-75082400D03*
X164630100Y-77622400D03*
X167170100Y-77622400D03*
X164630100Y-80162400D03*
X167170100Y-80162400D03*
X164630100Y-82702400D03*
X167170100Y-82702400D03*
X164630100Y-85242400D03*
X167170100Y-85242400D03*
X164630100Y-87782400D03*
X167170100Y-87782400D03*
X164630100Y-90322400D03*
X167170100Y-90322400D03*
X164630100Y-92862400D03*
X167170100Y-92862400D03*
X164630100Y-95402400D03*
X167170100Y-95402400D03*
X164630100Y-97942400D03*
X167170100Y-97942400D03*
X164630100Y-100482400D03*
X167170100Y-100482400D03*
X164630100Y-103022400D03*
X167170100Y-103022400D03*
X164630100Y-105562400D03*
X167170100Y-105562400D03*
X164630100Y-108102400D03*
X167170100Y-108102400D03*
X164630100Y-110642400D03*
X167170100Y-110642400D03*
X164630100Y-113182400D03*
X167170100Y-113182400D03*
X164630100Y-115722400D03*
X167170100Y-115722400D03*
X164630100Y-118262400D03*
X167170100Y-118262400D03*
D10*
X116370100Y-62382400D03*
D11*
X118910100Y-62382400D03*
X116370100Y-64922400D03*
X118910100Y-64922400D03*
X116370100Y-67462400D03*
X118910100Y-67462400D03*
X116370100Y-70002400D03*
X118910100Y-70002400D03*
X116370100Y-72542400D03*
X118910100Y-72542400D03*
X116370100Y-75082400D03*
X118910100Y-75082400D03*
X116370100Y-77622400D03*
X118910100Y-77622400D03*
X116370100Y-80162400D03*
X118910100Y-80162400D03*
X116370100Y-82702400D03*
X118910100Y-82702400D03*
X116370100Y-85242400D03*
X118910100Y-85242400D03*
X116370100Y-87782400D03*
X118910100Y-87782400D03*
X116370100Y-90322400D03*
X118910100Y-90322400D03*
X116370100Y-92862400D03*
X118910100Y-92862400D03*
X116370100Y-95402400D03*
X118910100Y-95402400D03*
X116370100Y-97942400D03*
X118910100Y-97942400D03*
X116370100Y-100482400D03*
X118910100Y-100482400D03*
X116370100Y-103022400D03*
X118910100Y-103022400D03*
X116370100Y-105562400D03*
X118910100Y-105562400D03*
X116370100Y-108102400D03*
X118910100Y-108102400D03*
X116370100Y-110642400D03*
X118910100Y-110642400D03*
X116370100Y-113182400D03*
X118910100Y-113182400D03*
X116370100Y-115722400D03*
X118910100Y-115722400D03*
X116370100Y-118262400D03*
X118910100Y-118262400D03*
G04 #@! TA.AperFunction,ComponentPad*
G36*
G01*
X150620100Y-119632399D02*
X150620100Y-117132401D01*
G75*
G02*
X150870101Y-116882400I250001J0D01*
G01*
X151870099Y-116882400D01*
G75*
G02*
X152120100Y-117132401I0J-250001D01*
G01*
X152120100Y-119632399D01*
G75*
G02*
X151870099Y-119882400I-250001J0D01*
G01*
X150870101Y-119882400D01*
G75*
G02*
X150620100Y-119632399I0J250001D01*
G01*
G37*
G04 #@! TD.AperFunction*
D12*
X156370100Y-118382400D03*
D13*
X155370100Y-72382400D03*
X155370100Y-65882400D03*
X159870100Y-72382400D03*
X159870100Y-65882400D03*
X125370100Y-72382400D03*
X125370100Y-65882400D03*
X129870100Y-72382400D03*
X129870100Y-65882400D03*
D14*
X139270100Y-113772400D03*
X139270100Y-112372400D03*
X138570100Y-114472400D03*
X138570100Y-113072400D03*
X138570100Y-111672400D03*
X137870100Y-113772400D03*
X137870100Y-112372400D03*
X137170100Y-114472400D03*
X137170100Y-113072400D03*
X137170100Y-111672400D03*
X136470100Y-113772400D03*
X136470100Y-112372400D03*
G04 #@! TA.AperFunction,ComponentPad*
G36*
G01*
X117957499Y-52532400D02*
X119657501Y-52532400D01*
G75*
G02*
X119907500Y-52782399I0J-249999D01*
G01*
X119907500Y-54482401D01*
G75*
G02*
X119657501Y-54732400I-249999J0D01*
G01*
X117957499Y-54732400D01*
G75*
G02*
X117707500Y-54482401I0J249999D01*
G01*
X117707500Y-52782399D01*
G75*
G02*
X117957499Y-52532400I249999J0D01*
G01*
G37*
G04 #@! TD.AperFunction*
D15*
X118807500Y-56172400D03*
D13*
X126500000Y-57132400D03*
X129040000Y-57132400D03*
X131580000Y-57132400D03*
G04 #@! TA.AperFunction,ComponentPad*
G36*
G01*
X132720100Y-46282399D02*
X132720100Y-47982401D01*
G75*
G02*
X132470101Y-48232400I-249999J0D01*
G01*
X130770099Y-48232400D01*
G75*
G02*
X130520100Y-47982401I0J249999D01*
G01*
X130520100Y-46282399D01*
G75*
G02*
X130770099Y-46032400I249999J0D01*
G01*
X132470101Y-46032400D01*
G75*
G02*
X132720100Y-46282399I0J-249999D01*
G01*
G37*
G04 #@! TD.AperFunction*
D15*
X121460100Y-47132400D03*
D16*
X121870100Y-95882400D03*
X144870100Y-97632400D03*
X122620100Y-74882400D03*
X129870100Y-92882400D03*
X129370100Y-97632400D03*
X123370100Y-103882400D03*
X139370100Y-95132400D03*
X121370100Y-69632400D03*
X122870100Y-106132400D03*
X136870100Y-108132400D03*
X121870100Y-99382400D03*
X123620100Y-84132400D03*
X123120100Y-70132400D03*
X121620100Y-114632400D03*
X121370100Y-104632400D03*
X132620100Y-106882400D03*
X120870100Y-82632400D03*
X120870100Y-87382400D03*
X120870100Y-101382400D03*
X137870100Y-90382400D03*
X121120100Y-72382400D03*
X123270100Y-100982400D03*
X135620100Y-98132400D03*
X123870100Y-86882400D03*
X124370100Y-91882400D03*
X123120100Y-72632400D03*
X141870100Y-106882400D03*
X121120100Y-74632400D03*
X121370100Y-110882400D03*
X121120100Y-94632400D03*
X121620100Y-80132400D03*
X141870100Y-115382400D03*
X126120100Y-120632400D03*
X150370100Y-75382400D03*
X127370100Y-82382400D03*
X127370100Y-89132400D03*
X124370100Y-114132400D03*
X123170099Y-110772399D03*
X125370100Y-114132400D03*
X124620100Y-108882400D03*
X150215149Y-100880796D03*
X122870100Y-92882400D03*
X155620100Y-101382400D03*
X126120100Y-77882400D03*
X126120100Y-116882400D03*
X129620100Y-115632400D03*
X130120100Y-77382400D03*
D17*
X130591414Y-75382400D02*
X150370100Y-75382400D01*
X120131414Y-64922400D02*
X130591414Y-75382400D01*
X127370100Y-72161086D02*
X127370100Y-82382400D01*
X118910100Y-64922400D02*
X120131414Y-64922400D01*
X120131414Y-64922400D02*
X127370100Y-72161086D01*
X127370100Y-82382400D02*
X127370100Y-89132400D01*
D18*
X118502369Y-104373799D02*
X119480629Y-104373799D01*
X118910100Y-82702400D02*
X117558701Y-84053799D01*
X117558701Y-84053799D02*
X117558701Y-103430131D01*
X119480629Y-104373799D02*
X123995099Y-108888269D01*
X123995099Y-113757399D02*
X124370100Y-114132400D01*
X117558701Y-103430131D02*
X118502369Y-104373799D01*
X123995099Y-108888269D02*
X123995099Y-113757399D01*
X117721499Y-106132929D02*
X118502369Y-106913799D01*
X117721499Y-105154669D02*
X117721499Y-106132929D01*
X116940629Y-104373799D02*
X117721499Y-105154669D01*
X119480629Y-106913799D02*
X123170099Y-110603269D01*
X115962369Y-104373799D02*
X116940629Y-104373799D01*
X115181499Y-103592929D02*
X115962369Y-104373799D01*
X123170099Y-110603269D02*
X123170099Y-110772399D01*
X118502369Y-106913799D02*
X119480629Y-106913799D01*
X115181499Y-88971001D02*
X115181499Y-103592929D01*
X116370100Y-87782400D02*
X115181499Y-88971001D01*
D17*
X118910100Y-75082400D02*
X125370100Y-81542400D01*
X125370100Y-81542400D02*
X125370100Y-114132400D01*
X124620100Y-93492400D02*
X124620100Y-108882400D01*
X118910100Y-87782400D02*
X124620100Y-93492400D01*
X118910100Y-92862400D02*
X122850100Y-92862400D01*
X122850100Y-92862400D02*
X122870100Y-92882400D01*
X150215149Y-100880796D02*
X155118496Y-100880796D01*
X155118496Y-100880796D02*
X155620100Y-101382400D01*
X126120100Y-116882400D02*
X126120100Y-77882400D01*
X128120101Y-113632399D02*
X129620100Y-115132398D01*
X130120100Y-78632402D02*
X128120101Y-80632401D01*
X129620100Y-115132398D02*
X129620100Y-115632400D01*
X130120100Y-77382400D02*
X130120100Y-78632402D01*
X128120101Y-80632401D02*
X128120101Y-113632399D01*
G04 #@! TA.AperFunction,Conductor*
G36*
X135360451Y-42719172D02*
G01*
X135406944Y-42772828D01*
X135418330Y-42825170D01*
X135418330Y-64288134D01*
X135419365Y-64289169D01*
X135419367Y-64289170D01*
X153200833Y-64289170D01*
X153201870Y-64288133D01*
X153201870Y-49810170D01*
X153221872Y-49742049D01*
X153275528Y-49695556D01*
X153327870Y-49684170D01*
X168947330Y-49684170D01*
X169015451Y-49704172D01*
X169061944Y-49757828D01*
X169073330Y-49810170D01*
X169073330Y-116355686D01*
X169073284Y-116359098D01*
X169055413Y-117018775D01*
X169055261Y-117022427D01*
X169052521Y-117071220D01*
X169052303Y-117074382D01*
X169000710Y-117707989D01*
X169000333Y-117711873D01*
X168995377Y-117755852D01*
X168995017Y-117758752D01*
X168908437Y-118394217D01*
X168907809Y-118398315D01*
X168901724Y-118434125D01*
X168901248Y-118436761D01*
X168778743Y-119075198D01*
X168777840Y-119079494D01*
X168772389Y-119103374D01*
X168771825Y-119105742D01*
X168611911Y-119748773D01*
X168610713Y-119753238D01*
X168608539Y-119760786D01*
X168607911Y-119762897D01*
X168409619Y-120408701D01*
X168407440Y-120415168D01*
X168172635Y-121054300D01*
X168170109Y-121060639D01*
X167901050Y-121686109D01*
X167898185Y-121692302D01*
X167595658Y-122302294D01*
X167592462Y-122308323D01*
X167257347Y-122901054D01*
X167253828Y-122906902D01*
X166887126Y-123480600D01*
X166883297Y-123486248D01*
X166486058Y-124039277D01*
X166481928Y-124044709D01*
X166055345Y-124575402D01*
X166050927Y-124580603D01*
X165596234Y-125087428D01*
X165591541Y-125092382D01*
X165110082Y-125573841D01*
X165105128Y-125578534D01*
X164598303Y-126033227D01*
X164593102Y-126037645D01*
X164062409Y-126464228D01*
X164056977Y-126468358D01*
X163503948Y-126865597D01*
X163498300Y-126869426D01*
X162924602Y-127236128D01*
X162918754Y-127239647D01*
X162326023Y-127574762D01*
X162319994Y-127577958D01*
X161710002Y-127880485D01*
X161703809Y-127883350D01*
X161078339Y-128152409D01*
X161072000Y-128154935D01*
X160432868Y-128389740D01*
X160426401Y-128391919D01*
X159780597Y-128590211D01*
X159778486Y-128590839D01*
X159770938Y-128593013D01*
X159766473Y-128594211D01*
X159123442Y-128754125D01*
X159121074Y-128754689D01*
X159097194Y-128760140D01*
X159092898Y-128761043D01*
X158454461Y-128883548D01*
X158451825Y-128884024D01*
X158416015Y-128890109D01*
X158411917Y-128890737D01*
X157776452Y-128977317D01*
X157773552Y-128977677D01*
X157729573Y-128982633D01*
X157725689Y-128983010D01*
X157092082Y-129034603D01*
X157088920Y-129034821D01*
X157040127Y-129037561D01*
X157036475Y-129037713D01*
X156376798Y-129055584D01*
X156373386Y-129055630D01*
X127166814Y-129055630D01*
X127163402Y-129055584D01*
X126503723Y-129037713D01*
X126500071Y-129037561D01*
X126451278Y-129034821D01*
X126448116Y-129034603D01*
X125814509Y-128983010D01*
X125810625Y-128982633D01*
X125766646Y-128977677D01*
X125763746Y-128977317D01*
X125128281Y-128890737D01*
X125124183Y-128890109D01*
X125088373Y-128884024D01*
X125085737Y-128883548D01*
X124447300Y-128761043D01*
X124443004Y-128760140D01*
X124419124Y-128754689D01*
X124416756Y-128754125D01*
X123773725Y-128594211D01*
X123769260Y-128593013D01*
X123761712Y-128590839D01*
X123759601Y-128590211D01*
X123113798Y-128391919D01*
X123107331Y-128389740D01*
X122468199Y-128154935D01*
X122461860Y-128152409D01*
X121836390Y-127883350D01*
X121830197Y-127880485D01*
X121220205Y-127577958D01*
X121214176Y-127574762D01*
X120621445Y-127239647D01*
X120615597Y-127236128D01*
X120041899Y-126869426D01*
X120036251Y-126865597D01*
X119483222Y-126468358D01*
X119477790Y-126464228D01*
X118947097Y-126037645D01*
X118941896Y-126033227D01*
X118435071Y-125578534D01*
X118430117Y-125573841D01*
X117948658Y-125092382D01*
X117943965Y-125087428D01*
X117489272Y-124580603D01*
X117484854Y-124575402D01*
X117278033Y-124318105D01*
X117058260Y-124044695D01*
X117054152Y-124039291D01*
X116656902Y-123486248D01*
X116653073Y-123480600D01*
X116572249Y-123354153D01*
X116286362Y-122906888D01*
X116282860Y-122901068D01*
X115947731Y-122308313D01*
X115944541Y-122302294D01*
X115642014Y-121692302D01*
X115639149Y-121686109D01*
X115506805Y-121378454D01*
X115370080Y-121060615D01*
X115367573Y-121054323D01*
X115132757Y-120415164D01*
X115130580Y-120408701D01*
X115121856Y-120380287D01*
X114932248Y-119762766D01*
X114931693Y-119760902D01*
X114929477Y-119753210D01*
X114928298Y-119748814D01*
X114911919Y-119682952D01*
X150111599Y-119682952D01*
X150122212Y-119786821D01*
X150122212Y-119786823D01*
X150122213Y-119786825D01*
X150177985Y-119955138D01*
X150262607Y-120092330D01*
X150271070Y-120106051D01*
X150271075Y-120106057D01*
X150396442Y-120231424D01*
X150396448Y-120231429D01*
X150396449Y-120231430D01*
X150547362Y-120324515D01*
X150715675Y-120380287D01*
X150744006Y-120383181D01*
X150819548Y-120390900D01*
X150819556Y-120390900D01*
X151920652Y-120390900D01*
X151989898Y-120383824D01*
X152024525Y-120380287D01*
X152192838Y-120324515D01*
X152343751Y-120231430D01*
X152469130Y-120106051D01*
X152562215Y-119955138D01*
X152617987Y-119786825D01*
X152621875Y-119748773D01*
X152628600Y-119682952D01*
X152628600Y-117533354D01*
X155111600Y-117533354D01*
X155111600Y-119231446D01*
X155142588Y-119427100D01*
X155203802Y-119615497D01*
X155293734Y-119791998D01*
X155293736Y-119792001D01*
X155410171Y-119952260D01*
X155550239Y-120092328D01*
X155655513Y-120168814D01*
X155710502Y-120208766D01*
X155887003Y-120298698D01*
X156075400Y-120359912D01*
X156271054Y-120390900D01*
X156271057Y-120390900D01*
X156469143Y-120390900D01*
X156469146Y-120390900D01*
X156664800Y-120359912D01*
X156853197Y-120298698D01*
X157029698Y-120208766D01*
X157189958Y-120092330D01*
X157330030Y-119952258D01*
X157446466Y-119791998D01*
X157536398Y-119615497D01*
X157597612Y-119427100D01*
X157628600Y-119231446D01*
X157628600Y-117533354D01*
X157597612Y-117337700D01*
X157536398Y-117149303D01*
X157446466Y-116972802D01*
X157330030Y-116812542D01*
X157330028Y-116812539D01*
X157189960Y-116672471D01*
X157029701Y-116556036D01*
X157029700Y-116556035D01*
X157029698Y-116556034D01*
X156853197Y-116466102D01*
X156664800Y-116404888D01*
X156469146Y-116373900D01*
X156271054Y-116373900D01*
X156075400Y-116404888D01*
X156075397Y-116404888D01*
X156075396Y-116404889D01*
X155887003Y-116466102D01*
X155887001Y-116466103D01*
X155710498Y-116556036D01*
X155550239Y-116672471D01*
X155410171Y-116812539D01*
X155293736Y-116972798D01*
X155203803Y-117149301D01*
X155203802Y-117149303D01*
X155178819Y-117226194D01*
X155142588Y-117337700D01*
X155111600Y-117533354D01*
X152628600Y-117533354D01*
X152628600Y-117081847D01*
X152617987Y-116977978D01*
X152617987Y-116977975D01*
X152562215Y-116809662D01*
X152469130Y-116658749D01*
X152469129Y-116658748D01*
X152469124Y-116658742D01*
X152343757Y-116533375D01*
X152343751Y-116533370D01*
X152234695Y-116466103D01*
X152192838Y-116440285D01*
X152024525Y-116384513D01*
X152024523Y-116384512D01*
X152024521Y-116384512D01*
X151920652Y-116373900D01*
X151920644Y-116373900D01*
X150819556Y-116373900D01*
X150819548Y-116373900D01*
X150715678Y-116384512D01*
X150547362Y-116440285D01*
X150547360Y-116440286D01*
X150396448Y-116533370D01*
X150396442Y-116533375D01*
X150271075Y-116658742D01*
X150271070Y-116658748D01*
X150177986Y-116809660D01*
X150177985Y-116809662D01*
X150122212Y-116977978D01*
X150111600Y-117081847D01*
X150111600Y-119682952D01*
X150111599Y-119682952D01*
X114911919Y-119682952D01*
X114768370Y-119105730D01*
X114767809Y-119103374D01*
X114762358Y-119079494D01*
X114761463Y-119075239D01*
X114638947Y-118436746D01*
X114638474Y-118434125D01*
X114632389Y-118398315D01*
X114631768Y-118394267D01*
X114545173Y-117758688D01*
X114544821Y-117755852D01*
X114539859Y-117711821D01*
X114539498Y-117708094D01*
X114487887Y-117074278D01*
X114487683Y-117071316D01*
X114484933Y-117022352D01*
X114484788Y-117018856D01*
X114466916Y-116359098D01*
X114466870Y-116355686D01*
X114466870Y-104077720D01*
X114486872Y-104009599D01*
X114540528Y-103963106D01*
X114610802Y-103953002D01*
X114675382Y-103982496D01*
X114685030Y-103992405D01*
X114685051Y-103992385D01*
X115273019Y-104580353D01*
X115307045Y-104642665D01*
X115301980Y-104713480D01*
X115285860Y-104743509D01*
X115208208Y-104850387D01*
X115111129Y-105040915D01*
X115111126Y-105040921D01*
X115045052Y-105244278D01*
X115045051Y-105244283D01*
X115045051Y-105244284D01*
X115011600Y-105455484D01*
X115011600Y-105669316D01*
X115045051Y-105880516D01*
X115045052Y-105880521D01*
X115111126Y-106083878D01*
X115111128Y-106083883D01*
X115208206Y-106274409D01*
X115333894Y-106447404D01*
X115333896Y-106447406D01*
X115333898Y-106447409D01*
X115485090Y-106598601D01*
X115485093Y-106598603D01*
X115485096Y-106598606D01*
X115658091Y-106724294D01*
X115658096Y-106724296D01*
X115659188Y-106724966D01*
X115659518Y-106725331D01*
X115662096Y-106727204D01*
X115661702Y-106727745D01*
X115706821Y-106777613D01*
X115718428Y-106847655D01*
X115690326Y-106912853D01*
X115661970Y-106937423D01*
X115662096Y-106937596D01*
X115660082Y-106939058D01*
X115659188Y-106939834D01*
X115658087Y-106940508D01*
X115485093Y-107066196D01*
X115485090Y-107066198D01*
X115333898Y-107217390D01*
X115333896Y-107217393D01*
X115208208Y-107390387D01*
X115111129Y-107580915D01*
X115111126Y-107580921D01*
X115045052Y-107784278D01*
X115045051Y-107784283D01*
X115045051Y-107784284D01*
X115011600Y-107995484D01*
X115011600Y-108209316D01*
X115045051Y-108420516D01*
X115045052Y-108420521D01*
X115111126Y-108623878D01*
X115111128Y-108623883D01*
X115208206Y-108814409D01*
X115333894Y-108987404D01*
X115333896Y-108987406D01*
X115333898Y-108987409D01*
X115485090Y-109138601D01*
X115485093Y-109138603D01*
X115485096Y-109138606D01*
X115658091Y-109264294D01*
X115658096Y-109264296D01*
X115659188Y-109264966D01*
X115659518Y-109265331D01*
X115662096Y-109267204D01*
X115661702Y-109267745D01*
X115706821Y-109317613D01*
X115718428Y-109387655D01*
X115690326Y-109452853D01*
X115661970Y-109477423D01*
X115662096Y-109477596D01*
X115660082Y-109479058D01*
X115659188Y-109479834D01*
X115658087Y-109480508D01*
X115485093Y-109606196D01*
X115485090Y-109606198D01*
X115333898Y-109757390D01*
X115333896Y-109757393D01*
X115208208Y-109930387D01*
X115111129Y-110120915D01*
X115111126Y-110120921D01*
X115045052Y-110324278D01*
X115045051Y-110324283D01*
X115045051Y-110324284D01*
X115011600Y-110535484D01*
X115011600Y-110749316D01*
X115027869Y-110852031D01*
X115045052Y-110960521D01*
X115108361Y-111155367D01*
X115111128Y-111163883D01*
X115208206Y-111354409D01*
X115333894Y-111527404D01*
X115333896Y-111527406D01*
X115333898Y-111527409D01*
X115485090Y-111678601D01*
X115485093Y-111678603D01*
X115485096Y-111678606D01*
X115658091Y-111804294D01*
X115658096Y-111804296D01*
X115659188Y-111804966D01*
X115659518Y-111805331D01*
X115662096Y-111807204D01*
X115661702Y-111807745D01*
X115706821Y-111857613D01*
X115718428Y-111927655D01*
X115690326Y-111992853D01*
X115661970Y-112017423D01*
X115662096Y-112017596D01*
X115660082Y-112019058D01*
X115659188Y-112019834D01*
X115658087Y-112020508D01*
X115485093Y-112146196D01*
X115485090Y-112146198D01*
X115333898Y-112297390D01*
X115333896Y-112297393D01*
X115208208Y-112470387D01*
X115111129Y-112660915D01*
X115111126Y-112660921D01*
X115045052Y-112864278D01*
X115045051Y-112864283D01*
X115045051Y-112864284D01*
X115011600Y-113075484D01*
X115011600Y-113289316D01*
X115012154Y-113292811D01*
X115045052Y-113500521D01*
X115108243Y-113695005D01*
X115111128Y-113703883D01*
X115208206Y-113894409D01*
X115333894Y-114067404D01*
X115333896Y-114067406D01*
X115333898Y-114067409D01*
X115485090Y-114218601D01*
X115485093Y-114218603D01*
X115485096Y-114218606D01*
X115658091Y-114344294D01*
X115848617Y-114441372D01*
X116051978Y-114507447D01*
X116051979Y-114507447D01*
X116051984Y-114507449D01*
X116263184Y-114540900D01*
X116263187Y-114540900D01*
X116477013Y-114540900D01*
X116477016Y-114540900D01*
X116688216Y-114507449D01*
X116891583Y-114441372D01*
X117082109Y-114344294D01*
X117255104Y-114218606D01*
X117406306Y-114067404D01*
X117531994Y-113894409D01*
X117531999Y-113894397D01*
X117532661Y-113893320D01*
X117533024Y-113892991D01*
X117534904Y-113890404D01*
X117535447Y-113890798D01*
X117585304Y-113845683D01*
X117655344Y-113834070D01*
X117720545Y-113862166D01*
X117745121Y-113890530D01*
X117745296Y-113890404D01*
X117746768Y-113892430D01*
X117747539Y-113893320D01*
X117748205Y-113894407D01*
X117748206Y-113894409D01*
X117873894Y-114067404D01*
X117873896Y-114067406D01*
X117873898Y-114067409D01*
X118025090Y-114218601D01*
X118025093Y-114218603D01*
X118025096Y-114218606D01*
X118198091Y-114344294D01*
X118388617Y-114441372D01*
X118591978Y-114507447D01*
X118591979Y-114507447D01*
X118591984Y-114507449D01*
X118803184Y-114540900D01*
X118803187Y-114540900D01*
X119017013Y-114540900D01*
X119017016Y-114540900D01*
X119228216Y-114507449D01*
X119431583Y-114441372D01*
X119622109Y-114344294D01*
X119795104Y-114218606D01*
X119946306Y-114067404D01*
X120071994Y-113894409D01*
X120169072Y-113703883D01*
X120235149Y-113500516D01*
X120268600Y-113289316D01*
X120268600Y-113075484D01*
X120235149Y-112864284D01*
X120169072Y-112660917D01*
X120071994Y-112470391D01*
X119946306Y-112297396D01*
X119946303Y-112297393D01*
X119946301Y-112297390D01*
X119795109Y-112146198D01*
X119795106Y-112146196D01*
X119795104Y-112146194D01*
X119622109Y-112020506D01*
X119622107Y-112020505D01*
X119621020Y-112019839D01*
X119620691Y-112019475D01*
X119618104Y-112017596D01*
X119618498Y-112017052D01*
X119573383Y-111967196D01*
X119561770Y-111897156D01*
X119589866Y-111831955D01*
X119618230Y-111807378D01*
X119618104Y-111807204D01*
X119620130Y-111805731D01*
X119621020Y-111804961D01*
X119622097Y-111804299D01*
X119622109Y-111804294D01*
X119795104Y-111678606D01*
X119946306Y-111527404D01*
X120071994Y-111354409D01*
X120169072Y-111163883D01*
X120235149Y-110960516D01*
X120268600Y-110749316D01*
X120268600Y-110535484D01*
X120235149Y-110324284D01*
X120169072Y-110120917D01*
X120071994Y-109930391D01*
X119946306Y-109757396D01*
X119946303Y-109757393D01*
X119946301Y-109757390D01*
X119795109Y-109606198D01*
X119795106Y-109606196D01*
X119795104Y-109606194D01*
X119622109Y-109480506D01*
X119622107Y-109480505D01*
X119621020Y-109479839D01*
X119620691Y-109479475D01*
X119618104Y-109477596D01*
X119618498Y-109477052D01*
X119573383Y-109427196D01*
X119561770Y-109357156D01*
X119589866Y-109291955D01*
X119618230Y-109267378D01*
X119618104Y-109267204D01*
X119620130Y-109265731D01*
X119621020Y-109264961D01*
X119622097Y-109264299D01*
X119622109Y-109264294D01*
X119795104Y-109138606D01*
X119946306Y-108987404D01*
X120071994Y-108814409D01*
X120132781Y-108695107D01*
X120181528Y-108643494D01*
X120250443Y-108626428D01*
X120317645Y-108649329D01*
X120334142Y-108663217D01*
X122324694Y-110653769D01*
X122358720Y-110716081D01*
X122361599Y-110742864D01*
X122361599Y-110852029D01*
X122392669Y-111008230D01*
X122453616Y-111155367D01*
X122459307Y-111163884D01*
X122542097Y-111287789D01*
X122542102Y-111287795D01*
X122654702Y-111400395D01*
X122654708Y-111400400D01*
X122654710Y-111400402D01*
X122787131Y-111488882D01*
X122934268Y-111549829D01*
X123090469Y-111580899D01*
X123090470Y-111580899D01*
X123235599Y-111580899D01*
X123303720Y-111600901D01*
X123350213Y-111654557D01*
X123361599Y-111706899D01*
X123361599Y-113695005D01*
X123361599Y-113819793D01*
X123385944Y-113942184D01*
X123433699Y-114057474D01*
X123503028Y-114161232D01*
X123503030Y-114161234D01*
X123536502Y-114194706D01*
X123570528Y-114257018D01*
X123570986Y-114259219D01*
X123592670Y-114368231D01*
X123653617Y-114515368D01*
X123742097Y-114647789D01*
X123742098Y-114647790D01*
X123742103Y-114647796D01*
X123854703Y-114760396D01*
X123854709Y-114760401D01*
X123854711Y-114760403D01*
X123987132Y-114848883D01*
X124134269Y-114909830D01*
X124290470Y-114940900D01*
X124290471Y-114940900D01*
X124449729Y-114940900D01*
X124449730Y-114940900D01*
X124605931Y-114909830D01*
X124753068Y-114848883D01*
X124800099Y-114817457D01*
X124867850Y-114796243D01*
X124936317Y-114815026D01*
X124940075Y-114817441D01*
X124987132Y-114848883D01*
X125134269Y-114909830D01*
X125260181Y-114934875D01*
X125323091Y-114967782D01*
X125358223Y-115029477D01*
X125361600Y-115058454D01*
X125361600Y-116575804D01*
X125352009Y-116624022D01*
X125342672Y-116646562D01*
X125342670Y-116646568D01*
X125311600Y-116802767D01*
X125311600Y-116962032D01*
X125327135Y-117040130D01*
X125342670Y-117118231D01*
X125403617Y-117265368D01*
X125478467Y-117377390D01*
X125492098Y-117397790D01*
X125492103Y-117397796D01*
X125604703Y-117510396D01*
X125604709Y-117510401D01*
X125604711Y-117510403D01*
X125737132Y-117598883D01*
X125884269Y-117659830D01*
X126040470Y-117690900D01*
X126040471Y-117690900D01*
X126199729Y-117690900D01*
X126199730Y-117690900D01*
X126355931Y-117659830D01*
X126503068Y-117598883D01*
X126635489Y-117510403D01*
X126748103Y-117397789D01*
X126836583Y-117265368D01*
X126897530Y-117118231D01*
X126928600Y-116962030D01*
X126928600Y-116802770D01*
X126897530Y-116646569D01*
X126888191Y-116624022D01*
X126878600Y-116575804D01*
X126878600Y-89992500D01*
X126886036Y-89967171D01*
X126889598Y-89941017D01*
X126895876Y-89933660D01*
X126898602Y-89924379D01*
X126918553Y-89907091D01*
X126935688Y-89887015D01*
X126944947Y-89884220D01*
X126952258Y-89877886D01*
X126978390Y-89874128D01*
X127003657Y-89866504D01*
X127015439Y-89868801D01*
X127022532Y-89867782D01*
X127039192Y-89871342D01*
X127046143Y-89873326D01*
X127134269Y-89909830D01*
X127265235Y-89935880D01*
X127270193Y-89937296D01*
X127296013Y-89953617D01*
X127323092Y-89967782D01*
X127325719Y-89972395D01*
X127330205Y-89975231D01*
X127343103Y-90002924D01*
X127358224Y-90029477D01*
X127359142Y-90037359D01*
X127360181Y-90039589D01*
X127359761Y-90042669D01*
X127361601Y-90058454D01*
X127361601Y-113707110D01*
X127373746Y-113768163D01*
X127376175Y-113780375D01*
X127390750Y-113853646D01*
X127447927Y-113991683D01*
X127530935Y-114115914D01*
X127530939Y-114115918D01*
X128789890Y-115374869D01*
X128823916Y-115437181D01*
X128824374Y-115488544D01*
X128811600Y-115552762D01*
X128811600Y-115552770D01*
X128811600Y-115712030D01*
X128842670Y-115868231D01*
X128903617Y-116015368D01*
X128920424Y-116040521D01*
X128992098Y-116147790D01*
X128992103Y-116147796D01*
X129104703Y-116260396D01*
X129104709Y-116260401D01*
X129104711Y-116260403D01*
X129237132Y-116348883D01*
X129384269Y-116409830D01*
X129540470Y-116440900D01*
X129540471Y-116440900D01*
X129699729Y-116440900D01*
X129699730Y-116440900D01*
X129855931Y-116409830D01*
X130003068Y-116348883D01*
X130135489Y-116260403D01*
X130248103Y-116147789D01*
X130336583Y-116015368D01*
X130397530Y-115868231D01*
X130428600Y-115712030D01*
X130428600Y-115552770D01*
X130397530Y-115396569D01*
X130388191Y-115374022D01*
X130378600Y-115325804D01*
X130378600Y-115057691D01*
X130378599Y-115057688D01*
X130375603Y-115042626D01*
X130349451Y-114911152D01*
X130348903Y-114909830D01*
X130292274Y-114773114D01*
X130209266Y-114648883D01*
X128915506Y-113355123D01*
X128881480Y-113292811D01*
X128878601Y-113266028D01*
X128878601Y-100801163D01*
X149406649Y-100801163D01*
X149406649Y-100960428D01*
X149415292Y-101003878D01*
X149437719Y-101116627D01*
X149498666Y-101263764D01*
X149567917Y-101367406D01*
X149587147Y-101396186D01*
X149587152Y-101396192D01*
X149699752Y-101508792D01*
X149699758Y-101508797D01*
X149699760Y-101508799D01*
X149832181Y-101597279D01*
X149979318Y-101658226D01*
X150135519Y-101689296D01*
X150135520Y-101689296D01*
X150294778Y-101689296D01*
X150294779Y-101689296D01*
X150450980Y-101658226D01*
X150473524Y-101648887D01*
X150521742Y-101639296D01*
X154752125Y-101639296D01*
X154782040Y-101648079D01*
X154812510Y-101654708D01*
X154817605Y-101658522D01*
X154820246Y-101659298D01*
X154841220Y-101676201D01*
X154866964Y-101701945D01*
X154894277Y-101742821D01*
X154903614Y-101765363D01*
X154903616Y-101765367D01*
X154992098Y-101897790D01*
X154992103Y-101897796D01*
X155104703Y-102010396D01*
X155104709Y-102010401D01*
X155104711Y-102010403D01*
X155237132Y-102098883D01*
X155384269Y-102159830D01*
X155540470Y-102190900D01*
X155540471Y-102190900D01*
X155699729Y-102190900D01*
X155699730Y-102190900D01*
X155855931Y-102159830D01*
X156003068Y-102098883D01*
X156135489Y-102010403D01*
X156248103Y-101897789D01*
X156336583Y-101765368D01*
X156397530Y-101618231D01*
X156428600Y-101462030D01*
X156428600Y-101302770D01*
X156397530Y-101146569D01*
X156336583Y-100999432D01*
X156248103Y-100867011D01*
X156248101Y-100867009D01*
X156248096Y-100867003D01*
X156135496Y-100754403D01*
X156135490Y-100754398D01*
X156003067Y-100665916D01*
X156003063Y-100665914D01*
X155980521Y-100656577D01*
X155939645Y-100629264D01*
X155602015Y-100291634D01*
X155602011Y-100291630D01*
X155477780Y-100208622D01*
X155339743Y-100151445D01*
X155266472Y-100136870D01*
X155266471Y-100136869D01*
X155193207Y-100122296D01*
X155193202Y-100122296D01*
X150521742Y-100122296D01*
X150473524Y-100112704D01*
X150450980Y-100103366D01*
X150398913Y-100093009D01*
X150294781Y-100072296D01*
X150294779Y-100072296D01*
X150135519Y-100072296D01*
X150135516Y-100072296D01*
X150018368Y-100095598D01*
X149979318Y-100103366D01*
X149863247Y-100151445D01*
X149832181Y-100164313D01*
X149699758Y-100252794D01*
X149699752Y-100252799D01*
X149587152Y-100365399D01*
X149587147Y-100365405D01*
X149587146Y-100365407D01*
X149498666Y-100497828D01*
X149437719Y-100644965D01*
X149429951Y-100684015D01*
X149406649Y-100801163D01*
X128878601Y-100801163D01*
X128878601Y-80998772D01*
X128898603Y-80930651D01*
X128915506Y-80909677D01*
X129769699Y-80055484D01*
X130709266Y-79115917D01*
X130792274Y-78991686D01*
X130849451Y-78853648D01*
X130859347Y-78803900D01*
X130878600Y-78707108D01*
X130878600Y-77688993D01*
X130888191Y-77640775D01*
X130897530Y-77618231D01*
X130928600Y-77462030D01*
X130928600Y-77302770D01*
X130897530Y-77146569D01*
X130836583Y-76999432D01*
X130748103Y-76867011D01*
X130748101Y-76867009D01*
X130748096Y-76867003D01*
X130635496Y-76754403D01*
X130635490Y-76754398D01*
X130635489Y-76754397D01*
X130503068Y-76665917D01*
X130355931Y-76604970D01*
X130261537Y-76586194D01*
X130199732Y-76573900D01*
X130199730Y-76573900D01*
X130040470Y-76573900D01*
X130040467Y-76573900D01*
X129923319Y-76597202D01*
X129884269Y-76604970D01*
X129884267Y-76604971D01*
X129737132Y-76665917D01*
X129604709Y-76754398D01*
X129604703Y-76754403D01*
X129492103Y-76867003D01*
X129492098Y-76867009D01*
X129441573Y-76942626D01*
X129403617Y-76999432D01*
X129342670Y-77146569D01*
X129334902Y-77185619D01*
X129311600Y-77302767D01*
X129311600Y-77462032D01*
X129322233Y-77515487D01*
X129342670Y-77618231D01*
X129352008Y-77640775D01*
X129361600Y-77688993D01*
X129361600Y-78266031D01*
X129341598Y-78334152D01*
X129324695Y-78355126D01*
X128343695Y-79336126D01*
X128281383Y-79370152D01*
X128210568Y-79365087D01*
X128153732Y-79322540D01*
X128128921Y-79256020D01*
X128128600Y-79247031D01*
X128128600Y-74296457D01*
X128148602Y-74228336D01*
X128202258Y-74181843D01*
X128272532Y-74171739D01*
X128337112Y-74201233D01*
X128343695Y-74207362D01*
X130107899Y-75971566D01*
X130232130Y-76054574D01*
X130370167Y-76111751D01*
X130443436Y-76126324D01*
X130443437Y-76126325D01*
X130458012Y-76129224D01*
X130516708Y-76140900D01*
X130516709Y-76140900D01*
X130666119Y-76140900D01*
X150063507Y-76140900D01*
X150111724Y-76150491D01*
X150134269Y-76159830D01*
X150290470Y-76190900D01*
X150290471Y-76190900D01*
X150449729Y-76190900D01*
X150449730Y-76190900D01*
X150605931Y-76159830D01*
X150753068Y-76098883D01*
X150885489Y-76010403D01*
X150998103Y-75897789D01*
X151086583Y-75765368D01*
X151147530Y-75618231D01*
X151178600Y-75462030D01*
X151178600Y-75302770D01*
X151147530Y-75146569D01*
X151086583Y-74999432D01*
X150998103Y-74867011D01*
X150998101Y-74867009D01*
X150998096Y-74867003D01*
X150885496Y-74754403D01*
X150885490Y-74754398D01*
X150885489Y-74754397D01*
X150753068Y-74665917D01*
X150605931Y-74604970D01*
X150515564Y-74586995D01*
X150449732Y-74573900D01*
X150449730Y-74573900D01*
X150290470Y-74573900D01*
X150290467Y-74573900D01*
X150134269Y-74604970D01*
X150134268Y-74604970D01*
X150124883Y-74608857D01*
X150111724Y-74614308D01*
X150063507Y-74623900D01*
X130957785Y-74623900D01*
X130889664Y-74603898D01*
X130868690Y-74586995D01*
X128545373Y-72263678D01*
X153861600Y-72263678D01*
X153861600Y-72501122D01*
X153885071Y-72649312D01*
X153898745Y-72735646D01*
X153972116Y-72961458D01*
X153972118Y-72961463D01*
X154079915Y-73173027D01*
X154219480Y-73365122D01*
X154219482Y-73365124D01*
X154219484Y-73365127D01*
X154387372Y-73533015D01*
X154387375Y-73533017D01*
X154387378Y-73533020D01*
X154579473Y-73672585D01*
X154791037Y-73780382D01*
X155016859Y-73853756D01*
X155251378Y-73890900D01*
X155251381Y-73890900D01*
X155488819Y-73890900D01*
X155488822Y-73890900D01*
X155723341Y-73853756D01*
X155949163Y-73780382D01*
X156160727Y-73672585D01*
X156352822Y-73533020D01*
X156520720Y-73365122D01*
X156660285Y-73173027D01*
X156768082Y-72961463D01*
X156841456Y-72735641D01*
X156878600Y-72501122D01*
X156878600Y-72263678D01*
X156841456Y-72029159D01*
X156768082Y-71803337D01*
X156660285Y-71591773D01*
X156520720Y-71399678D01*
X156520717Y-71399675D01*
X156520715Y-71399672D01*
X156352827Y-71231784D01*
X156352824Y-71231782D01*
X156352822Y-71231780D01*
X156160727Y-71092215D01*
X155949163Y-70984418D01*
X155949160Y-70984417D01*
X155949158Y-70984416D01*
X155723346Y-70911045D01*
X155723342Y-70911044D01*
X155723341Y-70911044D01*
X155488822Y-70873900D01*
X155251378Y-70873900D01*
X155016859Y-70911044D01*
X155016853Y-70911045D01*
X154791041Y-70984416D01*
X154791035Y-70984419D01*
X154579469Y-71092217D01*
X154387375Y-71231782D01*
X154387372Y-71231784D01*
X154219484Y-71399672D01*
X154219482Y-71399675D01*
X154079917Y-71591769D01*
X153972119Y-71803335D01*
X153972116Y-71803341D01*
X153898745Y-72029153D01*
X153898744Y-72029158D01*
X153898744Y-72029159D01*
X153861600Y-72263678D01*
X128545373Y-72263678D01*
X122045373Y-65763678D01*
X123861600Y-65763678D01*
X123861600Y-66001122D01*
X123898744Y-66235641D01*
X123898745Y-66235646D01*
X123972116Y-66461458D01*
X123972118Y-66461463D01*
X124079915Y-66673027D01*
X124219480Y-66865122D01*
X124219482Y-66865124D01*
X124219484Y-66865127D01*
X124387372Y-67033015D01*
X124387375Y-67033017D01*
X124387378Y-67033020D01*
X124579473Y-67172585D01*
X124791037Y-67280382D01*
X125016859Y-67353756D01*
X125251378Y-67390900D01*
X125251381Y-67390900D01*
X125488819Y-67390900D01*
X125488822Y-67390900D01*
X125723341Y-67353756D01*
X125949163Y-67280382D01*
X126160727Y-67172585D01*
X126352822Y-67033020D01*
X126520720Y-66865122D01*
X126660285Y-66673027D01*
X126768082Y-66461463D01*
X126841456Y-66235641D01*
X126878600Y-66001122D01*
X126878600Y-65763678D01*
X153861600Y-65763678D01*
X153861600Y-66001122D01*
X153898744Y-66235641D01*
X153898745Y-66235646D01*
X153972116Y-66461458D01*
X153972118Y-66461463D01*
X154079915Y-66673027D01*
X154219480Y-66865122D01*
X154219482Y-66865124D01*
X154219484Y-66865127D01*
X154387372Y-67033015D01*
X154387375Y-67033017D01*
X154387378Y-67033020D01*
X154579473Y-67172585D01*
X154791037Y-67280382D01*
X155016859Y-67353756D01*
X155251378Y-67390900D01*
X155251381Y-67390900D01*
X155488819Y-67390900D01*
X155488822Y-67390900D01*
X155723341Y-67353756D01*
X155949163Y-67280382D01*
X156160727Y-67172585D01*
X156352822Y-67033020D01*
X156520720Y-66865122D01*
X156660285Y-66673027D01*
X156768082Y-66461463D01*
X156841456Y-66235641D01*
X156878600Y-66001122D01*
X156878600Y-65763678D01*
X156841456Y-65529159D01*
X156768082Y-65303337D01*
X156660285Y-65091773D01*
X156520720Y-64899678D01*
X156520717Y-64899675D01*
X156520715Y-64899672D01*
X156436527Y-64815484D01*
X163271600Y-64815484D01*
X163271600Y-65029316D01*
X163305051Y-65240516D01*
X163305052Y-65240521D01*
X163371126Y-65443878D01*
X163371128Y-65443883D01*
X163468206Y-65634409D01*
X163593894Y-65807404D01*
X163593896Y-65807406D01*
X163593898Y-65807409D01*
X163745090Y-65958601D01*
X163745093Y-65958603D01*
X163745096Y-65958606D01*
X163918091Y-66084294D01*
X163918096Y-66084296D01*
X163919188Y-66084966D01*
X163919518Y-66085331D01*
X163922096Y-66087204D01*
X163921702Y-66087745D01*
X163966821Y-66137613D01*
X163978428Y-66207655D01*
X163950326Y-66272853D01*
X163921970Y-66297423D01*
X163922096Y-66297596D01*
X163920082Y-66299058D01*
X163919188Y-66299834D01*
X163918087Y-66300508D01*
X163745093Y-66426196D01*
X163745090Y-66426198D01*
X163593898Y-66577390D01*
X163593896Y-66577393D01*
X163468208Y-66750387D01*
X163371129Y-66940915D01*
X163371126Y-66940921D01*
X163305052Y-67144278D01*
X163305051Y-67144283D01*
X163305051Y-67144284D01*
X163271600Y-67355484D01*
X163271600Y-67569316D01*
X163305051Y-67780516D01*
X163305052Y-67780521D01*
X163371126Y-67983878D01*
X163371128Y-67983883D01*
X163468206Y-68174409D01*
X163593894Y-68347404D01*
X163593896Y-68347406D01*
X163593898Y-68347409D01*
X163745090Y-68498601D01*
X163745093Y-68498603D01*
X163745096Y-68498606D01*
X163918091Y-68624294D01*
X163918096Y-68624296D01*
X163919188Y-68624966D01*
X163919518Y-68625331D01*
X163922096Y-68627204D01*
X163921702Y-68627745D01*
X163966821Y-68677613D01*
X163978428Y-68747655D01*
X163950326Y-68812853D01*
X163921970Y-68837423D01*
X163922096Y-68837596D01*
X163920082Y-68839058D01*
X163919188Y-68839834D01*
X163918087Y-68840508D01*
X163745093Y-68966196D01*
X163745090Y-68966198D01*
X163593898Y-69117390D01*
X163593896Y-69117393D01*
X163468208Y-69290387D01*
X163371129Y-69480915D01*
X163371126Y-69480921D01*
X163305052Y-69684278D01*
X163305051Y-69684283D01*
X163305051Y-69684284D01*
X163271600Y-69895484D01*
X163271600Y-70109316D01*
X163305051Y-70320516D01*
X163305052Y-70320521D01*
X163371126Y-70523878D01*
X163371128Y-70523883D01*
X163468206Y-70714409D01*
X163593894Y-70887404D01*
X163593896Y-70887406D01*
X163593898Y-70887409D01*
X163745090Y-71038601D01*
X163745093Y-71038603D01*
X163745096Y-71038606D01*
X163918091Y-71164294D01*
X163918096Y-71164296D01*
X163919188Y-71164966D01*
X163919518Y-71165331D01*
X163922096Y-71167204D01*
X163921702Y-71167745D01*
X163966821Y-71217613D01*
X163978428Y-71287655D01*
X163950326Y-71352853D01*
X163921970Y-71377423D01*
X163922096Y-71377596D01*
X163920082Y-71379058D01*
X163919188Y-71379834D01*
X163918087Y-71380508D01*
X163745093Y-71506196D01*
X163745090Y-71506198D01*
X163593898Y-71657390D01*
X163593896Y-71657393D01*
X163468208Y-71830387D01*
X163371129Y-72020915D01*
X163371126Y-72020921D01*
X163305052Y-72224278D01*
X163305051Y-72224283D01*
X163305051Y-72224284D01*
X163271600Y-72435484D01*
X163271600Y-72649316D01*
X163305051Y-72860516D01*
X163305052Y-72860521D01*
X163371126Y-73063878D01*
X163371128Y-73063883D01*
X163468206Y-73254409D01*
X163593894Y-73427404D01*
X163593896Y-73427406D01*
X163593898Y-73427409D01*
X163745090Y-73578601D01*
X163745093Y-73578603D01*
X163745096Y-73578606D01*
X163918091Y-73704294D01*
X163918096Y-73704296D01*
X163919188Y-73704966D01*
X163919518Y-73705331D01*
X163922096Y-73707204D01*
X163921702Y-73707745D01*
X163966821Y-73757613D01*
X163978428Y-73827655D01*
X163950326Y-73892853D01*
X163921970Y-73917423D01*
X163922096Y-73917596D01*
X163920082Y-73919058D01*
X163919188Y-73919834D01*
X163918087Y-73920508D01*
X163745093Y-74046196D01*
X163745090Y-74046198D01*
X163593898Y-74197390D01*
X163593896Y-74197393D01*
X163468208Y-74370387D01*
X163371129Y-74560915D01*
X163371126Y-74560921D01*
X163305052Y-74764278D01*
X163305051Y-74764283D01*
X163305051Y-74764284D01*
X163271600Y-74975484D01*
X163271600Y-75189316D01*
X163305051Y-75400516D01*
X163305052Y-75400521D01*
X163371126Y-75603878D01*
X163371128Y-75603883D01*
X163468206Y-75794409D01*
X163593894Y-75967404D01*
X163593896Y-75967406D01*
X163593898Y-75967409D01*
X163745090Y-76118601D01*
X163745093Y-76118603D01*
X163745096Y-76118606D01*
X163918091Y-76244294D01*
X163918096Y-76244296D01*
X163919188Y-76244966D01*
X163919518Y-76245331D01*
X163922096Y-76247204D01*
X163921702Y-76247745D01*
X163966821Y-76297613D01*
X163978428Y-76367655D01*
X163950326Y-76432853D01*
X163921970Y-76457423D01*
X163922096Y-76457596D01*
X163920082Y-76459058D01*
X163919188Y-76459834D01*
X163918087Y-76460508D01*
X163745093Y-76586196D01*
X163745090Y-76586198D01*
X163593898Y-76737390D01*
X163593896Y-76737393D01*
X163468208Y-76910387D01*
X163371129Y-77100915D01*
X163371126Y-77100921D01*
X163305052Y-77304278D01*
X163305051Y-77304283D01*
X163305051Y-77304284D01*
X163271600Y-77515484D01*
X163271600Y-77729316D01*
X163305051Y-77940516D01*
X163305052Y-77940521D01*
X163371126Y-78143878D01*
X163371128Y-78143883D01*
X163468206Y-78334409D01*
X163593894Y-78507404D01*
X163593896Y-78507406D01*
X163593898Y-78507409D01*
X163745090Y-78658601D01*
X163745093Y-78658603D01*
X163745096Y-78658606D01*
X163918091Y-78784294D01*
X163918096Y-78784296D01*
X163919188Y-78784966D01*
X163919518Y-78785331D01*
X163922096Y-78787204D01*
X163921702Y-78787745D01*
X163966821Y-78837613D01*
X163978428Y-78907655D01*
X163950326Y-78972853D01*
X163921970Y-78997423D01*
X163922096Y-78997596D01*
X163920082Y-78999058D01*
X163919188Y-78999834D01*
X163918087Y-79000508D01*
X163745093Y-79126196D01*
X163745090Y-79126198D01*
X163593898Y-79277390D01*
X163593896Y-79277393D01*
X163468208Y-79450387D01*
X163371129Y-79640915D01*
X163371126Y-79640921D01*
X163305052Y-79844278D01*
X163305051Y-79844283D01*
X163305051Y-79844284D01*
X163271600Y-80055484D01*
X163271600Y-80269316D01*
X163271969Y-80271643D01*
X163305052Y-80480521D01*
X163371126Y-80683878D01*
X163371128Y-80683883D01*
X163468206Y-80874409D01*
X163593894Y-81047404D01*
X163593896Y-81047406D01*
X163593898Y-81047409D01*
X163745090Y-81198601D01*
X163745093Y-81198603D01*
X163745096Y-81198606D01*
X163918091Y-81324294D01*
X163918096Y-81324296D01*
X163919188Y-81324966D01*
X163919518Y-81325331D01*
X163922096Y-81327204D01*
X163921702Y-81327745D01*
X163966821Y-81377613D01*
X163978428Y-81447655D01*
X163950326Y-81512853D01*
X163921970Y-81537423D01*
X163922096Y-81537596D01*
X163920082Y-81539058D01*
X163919188Y-81539834D01*
X163918087Y-81540508D01*
X163745093Y-81666196D01*
X163745090Y-81666198D01*
X163593898Y-81817390D01*
X163593896Y-81817393D01*
X163468208Y-81990387D01*
X163371129Y-82180915D01*
X163371126Y-82180921D01*
X163305052Y-82384278D01*
X163305051Y-82384283D01*
X163305051Y-82384284D01*
X163271600Y-82595484D01*
X163271600Y-82809316D01*
X163305051Y-83020516D01*
X163305052Y-83020521D01*
X163371126Y-83223878D01*
X163371128Y-83223883D01*
X163468206Y-83414409D01*
X163593894Y-83587404D01*
X163593896Y-83587406D01*
X163593898Y-83587409D01*
X163745090Y-83738601D01*
X163745093Y-83738603D01*
X163745096Y-83738606D01*
X163918091Y-83864294D01*
X163918096Y-83864296D01*
X163919188Y-83864966D01*
X163919518Y-83865331D01*
X163922096Y-83867204D01*
X163921702Y-83867745D01*
X163966821Y-83917613D01*
X163978428Y-83987655D01*
X163950326Y-84052853D01*
X163921970Y-84077423D01*
X163922096Y-84077596D01*
X163920082Y-84079058D01*
X163919188Y-84079834D01*
X163918087Y-84080508D01*
X163745093Y-84206196D01*
X163745090Y-84206198D01*
X163593898Y-84357390D01*
X163593896Y-84357393D01*
X163468208Y-84530387D01*
X163371129Y-84720915D01*
X163371126Y-84720921D01*
X163305052Y-84924278D01*
X163305051Y-84924283D01*
X163305051Y-84924284D01*
X163271600Y-85135484D01*
X163271600Y-85349316D01*
X163305051Y-85560516D01*
X163305052Y-85560521D01*
X163371126Y-85763878D01*
X163371128Y-85763883D01*
X163468206Y-85954409D01*
X163593894Y-86127404D01*
X163593896Y-86127406D01*
X163593898Y-86127409D01*
X163745090Y-86278601D01*
X163745093Y-86278603D01*
X163745096Y-86278606D01*
X163918091Y-86404294D01*
X163918096Y-86404296D01*
X163919188Y-86404966D01*
X163919518Y-86405331D01*
X163922096Y-86407204D01*
X163921702Y-86407745D01*
X163966821Y-86457613D01*
X163978428Y-86527655D01*
X163950326Y-86592853D01*
X163921970Y-86617423D01*
X163922096Y-86617596D01*
X163920082Y-86619058D01*
X163919188Y-86619834D01*
X163918087Y-86620508D01*
X163745093Y-86746196D01*
X163745090Y-86746198D01*
X163593898Y-86897390D01*
X163593896Y-86897393D01*
X163468208Y-87070387D01*
X163371129Y-87260915D01*
X163371126Y-87260921D01*
X163305052Y-87464278D01*
X163305051Y-87464283D01*
X163305051Y-87464284D01*
X163271600Y-87675484D01*
X163271600Y-87889316D01*
X163305051Y-88100516D01*
X163305052Y-88100521D01*
X163371126Y-88303878D01*
X163371128Y-88303883D01*
X163468206Y-88494409D01*
X163593894Y-88667404D01*
X163593896Y-88667406D01*
X163593898Y-88667409D01*
X163745090Y-88818601D01*
X163745093Y-88818603D01*
X163745096Y-88818606D01*
X163918091Y-88944294D01*
X163918096Y-88944296D01*
X163919188Y-88944966D01*
X163919518Y-88945331D01*
X163922096Y-88947204D01*
X163921702Y-88947745D01*
X163966821Y-88997613D01*
X163978428Y-89067655D01*
X163950326Y-89132853D01*
X163921970Y-89157423D01*
X163922096Y-89157596D01*
X163920082Y-89159058D01*
X163919188Y-89159834D01*
X163918087Y-89160508D01*
X163745093Y-89286196D01*
X163745090Y-89286198D01*
X163593898Y-89437390D01*
X163593896Y-89437393D01*
X163468208Y-89610387D01*
X163371129Y-89800915D01*
X163371126Y-89800921D01*
X163305052Y-90004278D01*
X163305051Y-90004283D01*
X163305051Y-90004284D01*
X163271600Y-90215484D01*
X163271600Y-90429316D01*
X163305051Y-90640516D01*
X163305052Y-90640521D01*
X163371126Y-90843878D01*
X163371128Y-90843883D01*
X163468206Y-91034409D01*
X163593894Y-91207404D01*
X163593896Y-91207406D01*
X163593898Y-91207409D01*
X163745090Y-91358601D01*
X163745093Y-91358603D01*
X163745096Y-91358606D01*
X163918091Y-91484294D01*
X163918096Y-91484296D01*
X163919188Y-91484966D01*
X163919518Y-91485331D01*
X163922096Y-91487204D01*
X163921702Y-91487745D01*
X163966821Y-91537613D01*
X163978428Y-91607655D01*
X163950326Y-91672853D01*
X163921970Y-91697423D01*
X163922096Y-91697596D01*
X163920082Y-91699058D01*
X163919188Y-91699834D01*
X163918087Y-91700508D01*
X163745093Y-91826196D01*
X163745090Y-91826198D01*
X163593898Y-91977390D01*
X163593896Y-91977393D01*
X163468208Y-92150387D01*
X163371129Y-92340915D01*
X163371126Y-92340921D01*
X163305052Y-92544278D01*
X163305051Y-92544283D01*
X163305051Y-92544284D01*
X163271600Y-92755484D01*
X163271600Y-92969316D01*
X163305051Y-93180516D01*
X163305052Y-93180521D01*
X163371126Y-93383878D01*
X163371128Y-93383883D01*
X163468206Y-93574409D01*
X163593894Y-93747404D01*
X163593896Y-93747406D01*
X163593898Y-93747409D01*
X163745090Y-93898601D01*
X163745093Y-93898603D01*
X163745096Y-93898606D01*
X163918091Y-94024294D01*
X163918096Y-94024296D01*
X163919188Y-94024966D01*
X163919518Y-94025331D01*
X163922096Y-94027204D01*
X163921702Y-94027745D01*
X163966821Y-94077613D01*
X163978428Y-94147655D01*
X163950326Y-94212853D01*
X163921970Y-94237423D01*
X163922096Y-94237596D01*
X163920082Y-94239058D01*
X163919188Y-94239834D01*
X163918087Y-94240508D01*
X163745093Y-94366196D01*
X163745090Y-94366198D01*
X163593898Y-94517390D01*
X163593896Y-94517393D01*
X163468208Y-94690387D01*
X163371129Y-94880915D01*
X163371126Y-94880921D01*
X163305052Y-95084278D01*
X163305051Y-95084283D01*
X163305051Y-95084284D01*
X163271600Y-95295484D01*
X163271600Y-95509316D01*
X163305051Y-95720516D01*
X163305052Y-95720521D01*
X163371126Y-95923878D01*
X163371128Y-95923883D01*
X163468206Y-96114409D01*
X163593894Y-96287404D01*
X163593896Y-96287406D01*
X163593898Y-96287409D01*
X163745090Y-96438601D01*
X163745093Y-96438603D01*
X163745096Y-96438606D01*
X163918091Y-96564294D01*
X163918096Y-96564296D01*
X163919188Y-96564966D01*
X163919518Y-96565331D01*
X163922096Y-96567204D01*
X163921702Y-96567745D01*
X163966821Y-96617613D01*
X163978428Y-96687655D01*
X163950326Y-96752853D01*
X163921970Y-96777423D01*
X163922096Y-96777596D01*
X163920082Y-96779058D01*
X163919188Y-96779834D01*
X163918087Y-96780508D01*
X163745093Y-96906196D01*
X163745090Y-96906198D01*
X163593898Y-97057390D01*
X163593896Y-97057393D01*
X163468208Y-97230387D01*
X163371129Y-97420915D01*
X163371126Y-97420921D01*
X163305052Y-97624278D01*
X163305051Y-97624283D01*
X163305051Y-97624284D01*
X163271600Y-97835484D01*
X163271600Y-98049316D01*
X163305051Y-98260516D01*
X163305052Y-98260521D01*
X163371126Y-98463878D01*
X163371128Y-98463883D01*
X163468206Y-98654409D01*
X163593894Y-98827404D01*
X163593896Y-98827406D01*
X163593898Y-98827409D01*
X163745090Y-98978601D01*
X163745093Y-98978603D01*
X163745096Y-98978606D01*
X163918091Y-99104294D01*
X163918096Y-99104296D01*
X163919188Y-99104966D01*
X163919518Y-99105331D01*
X163922096Y-99107204D01*
X163921702Y-99107745D01*
X163966821Y-99157613D01*
X163978428Y-99227655D01*
X163950326Y-99292853D01*
X163921970Y-99317423D01*
X163922096Y-99317596D01*
X163920082Y-99319058D01*
X163919188Y-99319834D01*
X163918087Y-99320508D01*
X163745093Y-99446196D01*
X163745090Y-99446198D01*
X163593898Y-99597390D01*
X163593896Y-99597393D01*
X163468208Y-99770387D01*
X163371129Y-99960915D01*
X163371126Y-99960921D01*
X163305052Y-100164278D01*
X163305051Y-100164283D01*
X163305051Y-100164284D01*
X163271600Y-100375484D01*
X163271600Y-100589316D01*
X163305051Y-100800516D01*
X163305052Y-100800521D01*
X163371126Y-101003878D01*
X163371128Y-101003883D01*
X163468206Y-101194409D01*
X163593894Y-101367404D01*
X163593896Y-101367406D01*
X163593898Y-101367409D01*
X163745090Y-101518601D01*
X163745093Y-101518603D01*
X163745096Y-101518606D01*
X163918091Y-101644294D01*
X163918096Y-101644296D01*
X163919188Y-101644966D01*
X163919518Y-101645331D01*
X163922096Y-101647204D01*
X163921702Y-101647745D01*
X163966821Y-101697613D01*
X163978428Y-101767655D01*
X163950326Y-101832853D01*
X163921970Y-101857423D01*
X163922096Y-101857596D01*
X163920082Y-101859058D01*
X163919188Y-101859834D01*
X163918087Y-101860508D01*
X163745093Y-101986196D01*
X163745090Y-101986198D01*
X163593898Y-102137390D01*
X163593896Y-102137393D01*
X163468208Y-102310387D01*
X163371129Y-102500915D01*
X163371126Y-102500921D01*
X163305052Y-102704278D01*
X163305051Y-102704283D01*
X163305051Y-102704284D01*
X163271600Y-102915484D01*
X163271600Y-103129316D01*
X163305051Y-103340516D01*
X163305052Y-103340521D01*
X163366791Y-103530535D01*
X163371128Y-103543883D01*
X163468206Y-103734409D01*
X163593894Y-103907404D01*
X163593896Y-103907406D01*
X163593898Y-103907409D01*
X163745090Y-104058601D01*
X163745093Y-104058603D01*
X163745096Y-104058606D01*
X163918091Y-104184294D01*
X163918096Y-104184296D01*
X163919188Y-104184966D01*
X163919518Y-104185331D01*
X163922096Y-104187204D01*
X163921702Y-104187745D01*
X163966821Y-104237613D01*
X163978428Y-104307655D01*
X163950326Y-104372853D01*
X163921970Y-104397423D01*
X163922096Y-104397596D01*
X163920082Y-104399058D01*
X163919188Y-104399834D01*
X163918087Y-104400508D01*
X163745093Y-104526196D01*
X163745090Y-104526198D01*
X163593898Y-104677390D01*
X163593896Y-104677393D01*
X163468208Y-104850387D01*
X163371129Y-105040915D01*
X163371126Y-105040921D01*
X163305052Y-105244278D01*
X163305051Y-105244283D01*
X163305051Y-105244284D01*
X163271600Y-105455484D01*
X163271600Y-105669316D01*
X163305051Y-105880516D01*
X163305052Y-105880521D01*
X163371126Y-106083878D01*
X163371128Y-106083883D01*
X163468206Y-106274409D01*
X163593894Y-106447404D01*
X163593896Y-106447406D01*
X163593898Y-106447409D01*
X163745090Y-106598601D01*
X163745093Y-106598603D01*
X163745096Y-106598606D01*
X163918091Y-106724294D01*
X163918096Y-106724296D01*
X163919188Y-106724966D01*
X163919518Y-106725331D01*
X163922096Y-106727204D01*
X163921702Y-106727745D01*
X163966821Y-106777613D01*
X163978428Y-106847655D01*
X163950326Y-106912853D01*
X163921970Y-106937423D01*
X163922096Y-106937596D01*
X163920082Y-106939058D01*
X163919188Y-106939834D01*
X163918087Y-106940508D01*
X163745093Y-107066196D01*
X163745090Y-107066198D01*
X163593898Y-107217390D01*
X163593896Y-107217393D01*
X163468208Y-107390387D01*
X163371129Y-107580915D01*
X163371126Y-107580921D01*
X163305052Y-107784278D01*
X163305051Y-107784283D01*
X163305051Y-107784284D01*
X163271600Y-107995484D01*
X163271600Y-108209316D01*
X163305051Y-108420516D01*
X163305052Y-108420521D01*
X163371126Y-108623878D01*
X163371128Y-108623883D01*
X163468206Y-108814409D01*
X163593894Y-108987404D01*
X163593896Y-108987406D01*
X163593898Y-108987409D01*
X163745090Y-109138601D01*
X163745093Y-109138603D01*
X163745096Y-109138606D01*
X163918091Y-109264294D01*
X163918096Y-109264296D01*
X163919188Y-109264966D01*
X163919518Y-109265331D01*
X163922096Y-109267204D01*
X163921702Y-109267745D01*
X163966821Y-109317613D01*
X163978428Y-109387655D01*
X163950326Y-109452853D01*
X163921970Y-109477423D01*
X163922096Y-109477596D01*
X163920082Y-109479058D01*
X163919188Y-109479834D01*
X163918087Y-109480508D01*
X163745093Y-109606196D01*
X163745090Y-109606198D01*
X163593898Y-109757390D01*
X163593896Y-109757393D01*
X163468208Y-109930387D01*
X163371129Y-110120915D01*
X163371126Y-110120921D01*
X163305052Y-110324278D01*
X163305051Y-110324283D01*
X163305051Y-110324284D01*
X163271600Y-110535484D01*
X163271600Y-110749316D01*
X163287869Y-110852031D01*
X163305052Y-110960521D01*
X163368361Y-111155367D01*
X163371128Y-111163883D01*
X163468206Y-111354409D01*
X163593894Y-111527404D01*
X163593896Y-111527406D01*
X163593898Y-111527409D01*
X163745090Y-111678601D01*
X163745093Y-111678603D01*
X163745096Y-111678606D01*
X163918091Y-111804294D01*
X163918096Y-111804296D01*
X163919188Y-111804966D01*
X163919518Y-111805331D01*
X163922096Y-111807204D01*
X163921702Y-111807745D01*
X163966821Y-111857613D01*
X163978428Y-111927655D01*
X163950326Y-111992853D01*
X163921970Y-112017423D01*
X163922096Y-112017596D01*
X163920082Y-112019058D01*
X163919188Y-112019834D01*
X163918087Y-112020508D01*
X163745093Y-112146196D01*
X163745090Y-112146198D01*
X163593898Y-112297390D01*
X163593896Y-112297393D01*
X163468208Y-112470387D01*
X163371129Y-112660915D01*
X163371126Y-112660921D01*
X163305052Y-112864278D01*
X163305051Y-112864283D01*
X163305051Y-112864284D01*
X163271600Y-113075484D01*
X163271600Y-113289316D01*
X163272154Y-113292811D01*
X163305052Y-113500521D01*
X163368243Y-113695005D01*
X163371128Y-113703883D01*
X163468206Y-113894409D01*
X163593894Y-114067404D01*
X163593896Y-114067406D01*
X163593898Y-114067409D01*
X163745090Y-114218601D01*
X163745093Y-114218603D01*
X163745096Y-114218606D01*
X163918091Y-114344294D01*
X163918096Y-114344296D01*
X163919188Y-114344966D01*
X163919518Y-114345331D01*
X163922096Y-114347204D01*
X163921702Y-114347745D01*
X163966821Y-114397613D01*
X163978428Y-114467655D01*
X163950326Y-114532853D01*
X163921970Y-114557423D01*
X163922096Y-114557596D01*
X163920082Y-114559058D01*
X163919188Y-114559834D01*
X163918087Y-114560508D01*
X163745093Y-114686196D01*
X163745090Y-114686198D01*
X163593898Y-114837390D01*
X163593896Y-114837393D01*
X163468208Y-115010387D01*
X163371129Y-115200915D01*
X163371126Y-115200921D01*
X163305052Y-115404278D01*
X163305051Y-115404283D01*
X163305051Y-115404284D01*
X163271600Y-115615484D01*
X163271600Y-115829316D01*
X163277764Y-115868231D01*
X163305052Y-116040521D01*
X163371126Y-116243878D01*
X163371128Y-116243883D01*
X163468206Y-116434409D01*
X163593894Y-116607404D01*
X163593896Y-116607406D01*
X163593898Y-116607409D01*
X163745090Y-116758601D01*
X163745093Y-116758603D01*
X163745096Y-116758606D01*
X163918091Y-116884294D01*
X163918096Y-116884296D01*
X163919188Y-116884966D01*
X163919518Y-116885331D01*
X163922096Y-116887204D01*
X163921702Y-116887745D01*
X163966821Y-116937613D01*
X163978428Y-117007655D01*
X163950326Y-117072853D01*
X163921970Y-117097423D01*
X163922096Y-117097596D01*
X163920082Y-117099058D01*
X163919188Y-117099834D01*
X163918087Y-117100508D01*
X163745093Y-117226196D01*
X163745090Y-117226198D01*
X163593898Y-117377390D01*
X163593896Y-117377393D01*
X163468208Y-117550387D01*
X163371129Y-117740915D01*
X163371126Y-117740921D01*
X163305052Y-117944278D01*
X163305051Y-117944283D01*
X163305051Y-117944284D01*
X163271600Y-118155484D01*
X163271600Y-118369316D01*
X163305051Y-118580516D01*
X163305052Y-118580521D01*
X163371126Y-118783878D01*
X163371128Y-118783883D01*
X163468206Y-118974409D01*
X163593894Y-119147404D01*
X163593896Y-119147406D01*
X163593898Y-119147409D01*
X163745090Y-119298601D01*
X163745093Y-119298603D01*
X163745096Y-119298606D01*
X163918091Y-119424294D01*
X164108617Y-119521372D01*
X164311978Y-119587447D01*
X164311979Y-119587447D01*
X164311984Y-119587449D01*
X164523184Y-119620900D01*
X164523187Y-119620900D01*
X164737013Y-119620900D01*
X164737016Y-119620900D01*
X164948216Y-119587449D01*
X165151583Y-119521372D01*
X165342109Y-119424294D01*
X165515104Y-119298606D01*
X165666306Y-119147404D01*
X165791994Y-118974409D01*
X165791999Y-118974397D01*
X165792661Y-118973320D01*
X165793024Y-118972991D01*
X165794904Y-118970404D01*
X165795447Y-118970798D01*
X165845304Y-118925683D01*
X165915344Y-118914070D01*
X165980545Y-118942166D01*
X166005121Y-118970530D01*
X166005296Y-118970404D01*
X166006768Y-118972430D01*
X166007539Y-118973320D01*
X166008205Y-118974407D01*
X166008206Y-118974409D01*
X166133894Y-119147404D01*
X166133896Y-119147406D01*
X166133898Y-119147409D01*
X166285090Y-119298601D01*
X166285093Y-119298603D01*
X166285096Y-119298606D01*
X166458091Y-119424294D01*
X166648617Y-119521372D01*
X166851978Y-119587447D01*
X166851979Y-119587447D01*
X166851984Y-119587449D01*
X167063184Y-119620900D01*
X167063187Y-119620900D01*
X167277013Y-119620900D01*
X167277016Y-119620900D01*
X167488216Y-119587449D01*
X167691583Y-119521372D01*
X167882109Y-119424294D01*
X168055104Y-119298606D01*
X168206306Y-119147404D01*
X168331994Y-118974409D01*
X168429072Y-118783883D01*
X168495149Y-118580516D01*
X168528600Y-118369316D01*
X168528600Y-118155484D01*
X168495149Y-117944284D01*
X168429072Y-117740917D01*
X168331994Y-117550391D01*
X168206306Y-117377396D01*
X168206303Y-117377393D01*
X168206301Y-117377390D01*
X168055109Y-117226198D01*
X168055106Y-117226196D01*
X168055104Y-117226194D01*
X167906507Y-117118232D01*
X167882112Y-117100508D01*
X167881020Y-117099839D01*
X167880691Y-117099475D01*
X167878104Y-117097596D01*
X167878498Y-117097052D01*
X167833383Y-117047196D01*
X167821770Y-116977156D01*
X167849866Y-116911955D01*
X167878230Y-116887378D01*
X167878104Y-116887204D01*
X167880130Y-116885731D01*
X167881020Y-116884961D01*
X167882097Y-116884299D01*
X167882109Y-116884294D01*
X168055104Y-116758606D01*
X168206306Y-116607404D01*
X168331994Y-116434409D01*
X168429072Y-116243883D01*
X168495149Y-116040516D01*
X168528600Y-115829316D01*
X168528600Y-115615484D01*
X168495149Y-115404284D01*
X168429072Y-115200917D01*
X168331994Y-115010391D01*
X168206306Y-114837396D01*
X168206303Y-114837393D01*
X168206301Y-114837390D01*
X168055109Y-114686198D01*
X168055106Y-114686196D01*
X168055104Y-114686194D01*
X167882109Y-114560506D01*
X167882107Y-114560505D01*
X167881020Y-114559839D01*
X167880691Y-114559475D01*
X167878104Y-114557596D01*
X167878498Y-114557052D01*
X167833383Y-114507196D01*
X167821770Y-114437156D01*
X167849866Y-114371955D01*
X167878230Y-114347378D01*
X167878104Y-114347204D01*
X167880130Y-114345731D01*
X167881020Y-114344961D01*
X167882097Y-114344299D01*
X167882109Y-114344294D01*
X168055104Y-114218606D01*
X168206306Y-114067404D01*
X168331994Y-113894409D01*
X168429072Y-113703883D01*
X168495149Y-113500516D01*
X168528600Y-113289316D01*
X168528600Y-113075484D01*
X168495149Y-112864284D01*
X168429072Y-112660917D01*
X168331994Y-112470391D01*
X168206306Y-112297396D01*
X168206303Y-112297393D01*
X168206301Y-112297390D01*
X168055109Y-112146198D01*
X168055106Y-112146196D01*
X168055104Y-112146194D01*
X167882109Y-112020506D01*
X167882107Y-112020505D01*
X167881020Y-112019839D01*
X167880691Y-112019475D01*
X167878104Y-112017596D01*
X167878498Y-112017052D01*
X167833383Y-111967196D01*
X167821770Y-111897156D01*
X167849866Y-111831955D01*
X167878230Y-111807378D01*
X167878104Y-111807204D01*
X167880130Y-111805731D01*
X167881020Y-111804961D01*
X167882097Y-111804299D01*
X167882109Y-111804294D01*
X168055104Y-111678606D01*
X168206306Y-111527404D01*
X168331994Y-111354409D01*
X168429072Y-111163883D01*
X168495149Y-110960516D01*
X168528600Y-110749316D01*
X168528600Y-110535484D01*
X168495149Y-110324284D01*
X168429072Y-110120917D01*
X168331994Y-109930391D01*
X168206306Y-109757396D01*
X168206303Y-109757393D01*
X168206301Y-109757390D01*
X168055109Y-109606198D01*
X168055106Y-109606196D01*
X168055104Y-109606194D01*
X167882109Y-109480506D01*
X167882107Y-109480505D01*
X167881020Y-109479839D01*
X167880691Y-109479475D01*
X167878104Y-109477596D01*
X167878498Y-109477052D01*
X167833383Y-109427196D01*
X167821770Y-109357156D01*
X167849866Y-109291955D01*
X167878230Y-109267378D01*
X167878104Y-109267204D01*
X167880130Y-109265731D01*
X167881020Y-109264961D01*
X167882097Y-109264299D01*
X167882109Y-109264294D01*
X168055104Y-109138606D01*
X168206306Y-108987404D01*
X168331994Y-108814409D01*
X168429072Y-108623883D01*
X168495149Y-108420516D01*
X168528600Y-108209316D01*
X168528600Y-107995484D01*
X168495149Y-107784284D01*
X168429072Y-107580917D01*
X168331994Y-107390391D01*
X168206306Y-107217396D01*
X168206303Y-107217393D01*
X168206301Y-107217390D01*
X168055109Y-107066198D01*
X168055106Y-107066196D01*
X168055104Y-107066194D01*
X167882109Y-106940506D01*
X167882107Y-106940505D01*
X167881020Y-106939839D01*
X167880691Y-106939475D01*
X167878104Y-106937596D01*
X167878498Y-106937052D01*
X167833383Y-106887196D01*
X167821770Y-106817156D01*
X167849866Y-106751955D01*
X167878230Y-106727378D01*
X167878104Y-106727204D01*
X167880130Y-106725731D01*
X167881020Y-106724961D01*
X167882097Y-106724299D01*
X167882109Y-106724294D01*
X168055104Y-106598606D01*
X168206306Y-106447404D01*
X168331994Y-106274409D01*
X168429072Y-106083883D01*
X168495149Y-105880516D01*
X168528600Y-105669316D01*
X168528600Y-105455484D01*
X168495149Y-105244284D01*
X168429072Y-105040917D01*
X168331994Y-104850391D01*
X168206306Y-104677396D01*
X168206303Y-104677393D01*
X168206301Y-104677390D01*
X168055109Y-104526198D01*
X168055106Y-104526196D01*
X168055104Y-104526194D01*
X167882109Y-104400506D01*
X167882107Y-104400505D01*
X167881020Y-104399839D01*
X167880691Y-104399475D01*
X167878104Y-104397596D01*
X167878498Y-104397052D01*
X167833383Y-104347196D01*
X167821770Y-104277156D01*
X167849866Y-104211955D01*
X167878230Y-104187378D01*
X167878104Y-104187204D01*
X167880130Y-104185731D01*
X167881020Y-104184961D01*
X167882097Y-104184299D01*
X167882109Y-104184294D01*
X168055104Y-104058606D01*
X168206306Y-103907404D01*
X168331994Y-103734409D01*
X168429072Y-103543883D01*
X168495149Y-103340516D01*
X168528600Y-103129316D01*
X168528600Y-102915484D01*
X168495149Y-102704284D01*
X168429072Y-102500917D01*
X168331994Y-102310391D01*
X168206306Y-102137396D01*
X168206303Y-102137393D01*
X168206301Y-102137390D01*
X168055109Y-101986198D01*
X168055106Y-101986196D01*
X168055104Y-101986194D01*
X167882109Y-101860506D01*
X167882107Y-101860505D01*
X167881020Y-101859839D01*
X167880691Y-101859475D01*
X167878104Y-101857596D01*
X167878498Y-101857052D01*
X167833383Y-101807196D01*
X167821770Y-101737156D01*
X167849866Y-101671955D01*
X167878230Y-101647378D01*
X167878104Y-101647204D01*
X167880130Y-101645731D01*
X167881020Y-101644961D01*
X167882097Y-101644299D01*
X167882109Y-101644294D01*
X168055104Y-101518606D01*
X168206306Y-101367404D01*
X168331994Y-101194409D01*
X168429072Y-101003883D01*
X168495149Y-100800516D01*
X168528600Y-100589316D01*
X168528600Y-100375484D01*
X168495149Y-100164284D01*
X168429072Y-99960917D01*
X168331994Y-99770391D01*
X168206306Y-99597396D01*
X168206303Y-99597393D01*
X168206301Y-99597390D01*
X168055109Y-99446198D01*
X168055106Y-99446196D01*
X168055104Y-99446194D01*
X167882109Y-99320506D01*
X167882107Y-99320505D01*
X167881020Y-99319839D01*
X167880691Y-99319475D01*
X167878104Y-99317596D01*
X167878498Y-99317052D01*
X167833383Y-99267196D01*
X167821770Y-99197156D01*
X167849866Y-99131955D01*
X167878230Y-99107378D01*
X167878104Y-99107204D01*
X167880130Y-99105731D01*
X167881020Y-99104961D01*
X167882097Y-99104299D01*
X167882109Y-99104294D01*
X168055104Y-98978606D01*
X168206306Y-98827404D01*
X168331994Y-98654409D01*
X168429072Y-98463883D01*
X168495149Y-98260516D01*
X168528600Y-98049316D01*
X168528600Y-97835484D01*
X168495149Y-97624284D01*
X168429072Y-97420917D01*
X168331994Y-97230391D01*
X168206306Y-97057396D01*
X168206303Y-97057393D01*
X168206301Y-97057390D01*
X168055109Y-96906198D01*
X168055106Y-96906196D01*
X168055104Y-96906194D01*
X167882109Y-96780506D01*
X167882107Y-96780505D01*
X167881020Y-96779839D01*
X167880691Y-96779475D01*
X167878104Y-96777596D01*
X167878498Y-96777052D01*
X167833383Y-96727196D01*
X167821770Y-96657156D01*
X167849866Y-96591955D01*
X167878230Y-96567378D01*
X167878104Y-96567204D01*
X167880130Y-96565731D01*
X167881020Y-96564961D01*
X167882097Y-96564299D01*
X167882109Y-96564294D01*
X168055104Y-96438606D01*
X168206306Y-96287404D01*
X168331994Y-96114409D01*
X168429072Y-95923883D01*
X168495149Y-95720516D01*
X168528600Y-95509316D01*
X168528600Y-95295484D01*
X168495149Y-95084284D01*
X168429072Y-94880917D01*
X168331994Y-94690391D01*
X168206306Y-94517396D01*
X168206303Y-94517393D01*
X168206301Y-94517390D01*
X168055109Y-94366198D01*
X168055106Y-94366196D01*
X168055104Y-94366194D01*
X167882109Y-94240506D01*
X167882107Y-94240505D01*
X167881020Y-94239839D01*
X167880691Y-94239475D01*
X167878104Y-94237596D01*
X167878498Y-94237052D01*
X167833383Y-94187196D01*
X167821770Y-94117156D01*
X167849866Y-94051955D01*
X167878230Y-94027378D01*
X167878104Y-94027204D01*
X167880130Y-94025731D01*
X167881020Y-94024961D01*
X167882097Y-94024299D01*
X167882109Y-94024294D01*
X168055104Y-93898606D01*
X168206306Y-93747404D01*
X168331994Y-93574409D01*
X168429072Y-93383883D01*
X168495149Y-93180516D01*
X168528600Y-92969316D01*
X168528600Y-92755484D01*
X168495149Y-92544284D01*
X168429072Y-92340917D01*
X168331994Y-92150391D01*
X168206306Y-91977396D01*
X168206303Y-91977393D01*
X168206301Y-91977390D01*
X168055109Y-91826198D01*
X168055106Y-91826196D01*
X168055104Y-91826194D01*
X167882109Y-91700506D01*
X167882107Y-91700505D01*
X167881020Y-91699839D01*
X167880691Y-91699475D01*
X167878104Y-91697596D01*
X167878498Y-91697052D01*
X167833383Y-91647196D01*
X167821770Y-91577156D01*
X167849866Y-91511955D01*
X167878230Y-91487378D01*
X167878104Y-91487204D01*
X167880130Y-91485731D01*
X167881020Y-91484961D01*
X167882097Y-91484299D01*
X167882109Y-91484294D01*
X168055104Y-91358606D01*
X168206306Y-91207404D01*
X168331994Y-91034409D01*
X168429072Y-90843883D01*
X168495149Y-90640516D01*
X168528600Y-90429316D01*
X168528600Y-90215484D01*
X168495149Y-90004284D01*
X168429072Y-89800917D01*
X168331994Y-89610391D01*
X168206306Y-89437396D01*
X168206303Y-89437393D01*
X168206301Y-89437390D01*
X168055109Y-89286198D01*
X168055106Y-89286196D01*
X168055104Y-89286194D01*
X167882109Y-89160506D01*
X167882107Y-89160505D01*
X167881020Y-89159839D01*
X167880691Y-89159475D01*
X167878104Y-89157596D01*
X167878498Y-89157052D01*
X167833383Y-89107196D01*
X167821770Y-89037156D01*
X167849866Y-88971955D01*
X167878230Y-88947378D01*
X167878104Y-88947204D01*
X167880130Y-88945731D01*
X167881020Y-88944961D01*
X167882097Y-88944299D01*
X167882109Y-88944294D01*
X168055104Y-88818606D01*
X168206306Y-88667404D01*
X168331994Y-88494409D01*
X168429072Y-88303883D01*
X168495149Y-88100516D01*
X168528600Y-87889316D01*
X168528600Y-87675484D01*
X168495149Y-87464284D01*
X168429072Y-87260917D01*
X168331994Y-87070391D01*
X168206306Y-86897396D01*
X168206303Y-86897393D01*
X168206301Y-86897390D01*
X168055109Y-86746198D01*
X168055106Y-86746196D01*
X168055104Y-86746194D01*
X167882109Y-86620506D01*
X167882107Y-86620505D01*
X167881020Y-86619839D01*
X167880691Y-86619475D01*
X167878104Y-86617596D01*
X167878498Y-86617052D01*
X167833383Y-86567196D01*
X167821770Y-86497156D01*
X167849866Y-86431955D01*
X167878230Y-86407378D01*
X167878104Y-86407204D01*
X167880130Y-86405731D01*
X167881020Y-86404961D01*
X167882097Y-86404299D01*
X167882109Y-86404294D01*
X168055104Y-86278606D01*
X168206306Y-86127404D01*
X168331994Y-85954409D01*
X168429072Y-85763883D01*
X168495149Y-85560516D01*
X168528600Y-85349316D01*
X168528600Y-85135484D01*
X168495149Y-84924284D01*
X168429072Y-84720917D01*
X168331994Y-84530391D01*
X168206306Y-84357396D01*
X168206303Y-84357393D01*
X168206301Y-84357390D01*
X168055109Y-84206198D01*
X168055106Y-84206196D01*
X168055104Y-84206194D01*
X167882109Y-84080506D01*
X167882107Y-84080505D01*
X167881020Y-84079839D01*
X167880691Y-84079475D01*
X167878104Y-84077596D01*
X167878498Y-84077052D01*
X167833383Y-84027196D01*
X167821770Y-83957156D01*
X167849866Y-83891955D01*
X167878230Y-83867378D01*
X167878104Y-83867204D01*
X167880130Y-83865731D01*
X167881020Y-83864961D01*
X167882097Y-83864299D01*
X167882109Y-83864294D01*
X168055104Y-83738606D01*
X168206306Y-83587404D01*
X168331994Y-83414409D01*
X168429072Y-83223883D01*
X168495149Y-83020516D01*
X168528600Y-82809316D01*
X168528600Y-82595484D01*
X168495149Y-82384284D01*
X168429072Y-82180917D01*
X168331994Y-81990391D01*
X168206306Y-81817396D01*
X168206303Y-81817393D01*
X168206301Y-81817390D01*
X168055109Y-81666198D01*
X168055106Y-81666196D01*
X168055104Y-81666194D01*
X167882109Y-81540506D01*
X167882107Y-81540505D01*
X167881020Y-81539839D01*
X167880691Y-81539475D01*
X167878104Y-81537596D01*
X167878498Y-81537052D01*
X167833383Y-81487196D01*
X167821770Y-81417156D01*
X167849866Y-81351955D01*
X167878230Y-81327378D01*
X167878104Y-81327204D01*
X167880130Y-81325731D01*
X167881020Y-81324961D01*
X167882097Y-81324299D01*
X167882109Y-81324294D01*
X168055104Y-81198606D01*
X168206306Y-81047404D01*
X168331994Y-80874409D01*
X168429072Y-80683883D01*
X168495149Y-80480516D01*
X168528600Y-80269316D01*
X168528600Y-80055484D01*
X168495149Y-79844284D01*
X168429072Y-79640917D01*
X168331994Y-79450391D01*
X168206306Y-79277396D01*
X168206303Y-79277393D01*
X168206301Y-79277390D01*
X168055109Y-79126198D01*
X168055106Y-79126196D01*
X168055104Y-79126194D01*
X167882109Y-79000506D01*
X167882107Y-79000505D01*
X167881020Y-78999839D01*
X167880691Y-78999475D01*
X167878104Y-78997596D01*
X167878498Y-78997052D01*
X167833383Y-78947196D01*
X167821770Y-78877156D01*
X167849866Y-78811955D01*
X167878230Y-78787378D01*
X167878104Y-78787204D01*
X167880130Y-78785731D01*
X167881020Y-78784961D01*
X167882097Y-78784299D01*
X167882109Y-78784294D01*
X168055104Y-78658606D01*
X168206306Y-78507404D01*
X168331994Y-78334409D01*
X168429072Y-78143883D01*
X168495149Y-77940516D01*
X168528600Y-77729316D01*
X168528600Y-77515484D01*
X168495149Y-77304284D01*
X168429072Y-77100917D01*
X168331994Y-76910391D01*
X168206306Y-76737396D01*
X168206303Y-76737393D01*
X168206301Y-76737390D01*
X168055109Y-76586198D01*
X168055106Y-76586196D01*
X168055104Y-76586194D01*
X167882109Y-76460506D01*
X167882107Y-76460505D01*
X167881020Y-76459839D01*
X167880691Y-76459475D01*
X167878104Y-76457596D01*
X167878498Y-76457052D01*
X167833383Y-76407196D01*
X167821770Y-76337156D01*
X167849866Y-76271955D01*
X167878230Y-76247378D01*
X167878104Y-76247204D01*
X167880130Y-76245731D01*
X167881020Y-76244961D01*
X167882097Y-76244299D01*
X167882109Y-76244294D01*
X168055104Y-76118606D01*
X168206306Y-75967404D01*
X168331994Y-75794409D01*
X168429072Y-75603883D01*
X168495149Y-75400516D01*
X168528600Y-75189316D01*
X168528600Y-74975484D01*
X168495149Y-74764284D01*
X168429072Y-74560917D01*
X168331994Y-74370391D01*
X168206306Y-74197396D01*
X168206303Y-74197393D01*
X168206301Y-74197390D01*
X168055109Y-74046198D01*
X168055106Y-74046196D01*
X168055104Y-74046194D01*
X167882109Y-73920506D01*
X167882107Y-73920505D01*
X167881020Y-73919839D01*
X167880691Y-73919475D01*
X167878104Y-73917596D01*
X167878498Y-73917052D01*
X167833383Y-73867196D01*
X167821770Y-73797156D01*
X167849866Y-73731955D01*
X167878230Y-73707378D01*
X167878104Y-73707204D01*
X167880130Y-73705731D01*
X167881020Y-73704961D01*
X167882097Y-73704299D01*
X167882109Y-73704294D01*
X168055104Y-73578606D01*
X168206306Y-73427404D01*
X168331994Y-73254409D01*
X168429072Y-73063883D01*
X168495149Y-72860516D01*
X168528600Y-72649316D01*
X168528600Y-72435484D01*
X168495149Y-72224284D01*
X168429072Y-72020917D01*
X168331994Y-71830391D01*
X168206306Y-71657396D01*
X168206303Y-71657393D01*
X168206301Y-71657390D01*
X168055109Y-71506198D01*
X168055106Y-71506196D01*
X168055104Y-71506194D01*
X167882109Y-71380506D01*
X167882107Y-71380505D01*
X167881020Y-71379839D01*
X167880691Y-71379475D01*
X167878104Y-71377596D01*
X167878498Y-71377052D01*
X167833383Y-71327196D01*
X167821770Y-71257156D01*
X167849866Y-71191955D01*
X167878230Y-71167378D01*
X167878104Y-71167204D01*
X167880130Y-71165731D01*
X167881020Y-71164961D01*
X167882097Y-71164299D01*
X167882109Y-71164294D01*
X168055104Y-71038606D01*
X168206306Y-70887404D01*
X168331994Y-70714409D01*
X168429072Y-70523883D01*
X168495149Y-70320516D01*
X168528600Y-70109316D01*
X168528600Y-69895484D01*
X168495149Y-69684284D01*
X168429072Y-69480917D01*
X168331994Y-69290391D01*
X168206306Y-69117396D01*
X168206303Y-69117393D01*
X168206301Y-69117390D01*
X168055109Y-68966198D01*
X168055106Y-68966196D01*
X168055104Y-68966194D01*
X167882109Y-68840506D01*
X167882107Y-68840505D01*
X167881020Y-68839839D01*
X167880691Y-68839475D01*
X167878104Y-68837596D01*
X167878498Y-68837052D01*
X167833383Y-68787196D01*
X167821770Y-68717156D01*
X167849866Y-68651955D01*
X167878230Y-68627378D01*
X167878104Y-68627204D01*
X167880130Y-68625731D01*
X167881020Y-68624961D01*
X167882097Y-68624299D01*
X167882109Y-68624294D01*
X168055104Y-68498606D01*
X168206306Y-68347404D01*
X168331994Y-68174409D01*
X168429072Y-67983883D01*
X168495149Y-67780516D01*
X168528600Y-67569316D01*
X168528600Y-67355484D01*
X168495149Y-67144284D01*
X168429072Y-66940917D01*
X168331994Y-66750391D01*
X168206306Y-66577396D01*
X168206303Y-66577393D01*
X168206301Y-66577390D01*
X168055109Y-66426198D01*
X168055106Y-66426196D01*
X168055104Y-66426194D01*
X167882109Y-66300506D01*
X167882107Y-66300505D01*
X167881020Y-66299839D01*
X167880691Y-66299475D01*
X167878104Y-66297596D01*
X167878498Y-66297052D01*
X167833383Y-66247196D01*
X167821770Y-66177156D01*
X167849866Y-66111955D01*
X167878230Y-66087378D01*
X167878104Y-66087204D01*
X167880130Y-66085731D01*
X167881020Y-66084961D01*
X167882097Y-66084299D01*
X167882109Y-66084294D01*
X168055104Y-65958606D01*
X168206306Y-65807404D01*
X168331994Y-65634409D01*
X168429072Y-65443883D01*
X168495149Y-65240516D01*
X168528600Y-65029316D01*
X168528600Y-64815484D01*
X168495149Y-64604284D01*
X168429072Y-64400917D01*
X168331994Y-64210391D01*
X168206306Y-64037396D01*
X168206303Y-64037393D01*
X168206301Y-64037390D01*
X168055109Y-63886198D01*
X168055106Y-63886196D01*
X168055104Y-63886194D01*
X167882109Y-63760506D01*
X167691583Y-63663428D01*
X167691580Y-63663427D01*
X167691578Y-63663426D01*
X167488220Y-63597352D01*
X167488223Y-63597352D01*
X167448901Y-63591124D01*
X167277016Y-63563900D01*
X167063184Y-63563900D01*
X166851984Y-63597351D01*
X166851978Y-63597352D01*
X166648621Y-63663426D01*
X166648615Y-63663429D01*
X166458087Y-63760508D01*
X166285093Y-63886196D01*
X166285090Y-63886198D01*
X166133898Y-64037390D01*
X166133896Y-64037393D01*
X166008208Y-64210387D01*
X166007534Y-64211488D01*
X166007168Y-64211818D01*
X166005296Y-64214396D01*
X166004754Y-64214002D01*
X165954887Y-64259121D01*
X165884845Y-64270728D01*
X165819647Y-64242626D01*
X165795076Y-64214270D01*
X165794904Y-64214396D01*
X165793441Y-64212382D01*
X165792666Y-64211488D01*
X165791996Y-64210396D01*
X165791994Y-64210391D01*
X165666306Y-64037396D01*
X165666303Y-64037393D01*
X165666301Y-64037390D01*
X165515109Y-63886198D01*
X165515106Y-63886196D01*
X165515104Y-63886194D01*
X165342109Y-63760506D01*
X165151583Y-63663428D01*
X165151580Y-63663427D01*
X165151578Y-63663426D01*
X164948220Y-63597352D01*
X164948223Y-63597352D01*
X164908901Y-63591124D01*
X164737016Y-63563900D01*
X164523184Y-63563900D01*
X164311984Y-63597351D01*
X164311978Y-63597352D01*
X164108621Y-63663426D01*
X164108615Y-63663429D01*
X163918087Y-63760508D01*
X163745093Y-63886196D01*
X163745090Y-63886198D01*
X163593898Y-64037390D01*
X163593896Y-64037393D01*
X163468208Y-64210387D01*
X163371129Y-64400915D01*
X163371126Y-64400921D01*
X163305052Y-64604278D01*
X163305051Y-64604283D01*
X163305051Y-64604284D01*
X163271600Y-64815484D01*
X156436527Y-64815484D01*
X156352827Y-64731784D01*
X156352824Y-64731782D01*
X156352822Y-64731780D01*
X156160727Y-64592215D01*
X155949163Y-64484418D01*
X155949160Y-64484417D01*
X155949158Y-64484416D01*
X155723346Y-64411045D01*
X155723342Y-64411044D01*
X155723341Y-64411044D01*
X155488822Y-64373900D01*
X155251378Y-64373900D01*
X155016859Y-64411044D01*
X155016853Y-64411045D01*
X154791041Y-64484416D01*
X154791035Y-64484419D01*
X154579469Y-64592217D01*
X154387375Y-64731782D01*
X154387372Y-64731784D01*
X154219484Y-64899672D01*
X154219482Y-64899675D01*
X154079917Y-65091769D01*
X153972119Y-65303335D01*
X153972116Y-65303341D01*
X153898745Y-65529153D01*
X153898744Y-65529158D01*
X153898744Y-65529159D01*
X153861600Y-65763678D01*
X126878600Y-65763678D01*
X126841456Y-65529159D01*
X126768082Y-65303337D01*
X126660285Y-65091773D01*
X126520720Y-64899678D01*
X126520717Y-64899675D01*
X126520715Y-64899672D01*
X126352827Y-64731784D01*
X126352824Y-64731782D01*
X126352822Y-64731780D01*
X126160727Y-64592215D01*
X125949163Y-64484418D01*
X125949160Y-64484417D01*
X125949158Y-64484416D01*
X125723346Y-64411045D01*
X125723342Y-64411044D01*
X125723341Y-64411044D01*
X125488822Y-64373900D01*
X125251378Y-64373900D01*
X125016859Y-64411044D01*
X125016853Y-64411045D01*
X124791041Y-64484416D01*
X124791035Y-64484419D01*
X124579469Y-64592217D01*
X124387375Y-64731782D01*
X124387372Y-64731784D01*
X124219484Y-64899672D01*
X124219482Y-64899675D01*
X124079917Y-65091769D01*
X123972119Y-65303335D01*
X123972116Y-65303341D01*
X123898745Y-65529153D01*
X123898744Y-65529158D01*
X123898744Y-65529159D01*
X123861600Y-65763678D01*
X122045373Y-65763678D01*
X120614933Y-64333238D01*
X120614929Y-64333234D01*
X120490698Y-64250226D01*
X120352661Y-64193049D01*
X120279390Y-64178474D01*
X120279389Y-64178473D01*
X120206125Y-64163900D01*
X120206120Y-64163900D01*
X120102416Y-64163900D01*
X120034295Y-64143898D01*
X120000480Y-64111961D01*
X119946306Y-64037396D01*
X119946303Y-64037393D01*
X119946301Y-64037390D01*
X119795109Y-63886198D01*
X119795106Y-63886196D01*
X119795104Y-63886194D01*
X119622109Y-63760506D01*
X119431583Y-63663428D01*
X119431580Y-63663427D01*
X119431578Y-63663426D01*
X119228220Y-63597352D01*
X119228223Y-63597352D01*
X119188901Y-63591124D01*
X119017016Y-63563900D01*
X118803184Y-63563900D01*
X118591984Y-63597351D01*
X118591978Y-63597352D01*
X118388621Y-63663426D01*
X118388615Y-63663429D01*
X118198087Y-63760508D01*
X118025093Y-63886196D01*
X118025090Y-63886198D01*
X117873898Y-64037390D01*
X117873896Y-64037393D01*
X117748208Y-64210387D01*
X117747534Y-64211488D01*
X117747168Y-64211818D01*
X117745296Y-64214396D01*
X117744754Y-64214002D01*
X117694887Y-64259121D01*
X117624845Y-64270728D01*
X117559647Y-64242626D01*
X117535076Y-64214270D01*
X117534904Y-64214396D01*
X117533441Y-64212382D01*
X117532666Y-64211488D01*
X117531996Y-64210396D01*
X117531994Y-64210391D01*
X117406306Y-64037396D01*
X117406303Y-64037393D01*
X117406301Y-64037390D01*
X117255109Y-63886198D01*
X117255106Y-63886196D01*
X117255104Y-63886194D01*
X117082109Y-63760506D01*
X116891583Y-63663428D01*
X116891580Y-63663427D01*
X116891578Y-63663426D01*
X116688220Y-63597352D01*
X116688223Y-63597352D01*
X116648901Y-63591124D01*
X116477016Y-63563900D01*
X116263184Y-63563900D01*
X116051984Y-63597351D01*
X116051978Y-63597352D01*
X115848621Y-63663426D01*
X115848615Y-63663429D01*
X115658087Y-63760508D01*
X115485093Y-63886196D01*
X115485090Y-63886198D01*
X115333898Y-64037390D01*
X115333896Y-64037393D01*
X115208208Y-64210387D01*
X115111129Y-64400915D01*
X115111126Y-64400921D01*
X115045052Y-64604278D01*
X115045051Y-64604283D01*
X115045051Y-64604284D01*
X115011600Y-64815484D01*
X115011600Y-65029316D01*
X115045051Y-65240516D01*
X115045052Y-65240521D01*
X115111126Y-65443878D01*
X115111128Y-65443883D01*
X115208206Y-65634409D01*
X115333894Y-65807404D01*
X115333896Y-65807406D01*
X115333898Y-65807409D01*
X115485090Y-65958601D01*
X115485093Y-65958603D01*
X115485096Y-65958606D01*
X115658091Y-66084294D01*
X115658096Y-66084296D01*
X115659188Y-66084966D01*
X115659518Y-66085331D01*
X115662096Y-66087204D01*
X115661702Y-66087745D01*
X115706821Y-66137613D01*
X115718428Y-66207655D01*
X115690326Y-66272853D01*
X115661970Y-66297423D01*
X115662096Y-66297596D01*
X115660082Y-66299058D01*
X115659188Y-66299834D01*
X115658087Y-66300508D01*
X115485093Y-66426196D01*
X115485090Y-66426198D01*
X115333898Y-66577390D01*
X115333896Y-66577393D01*
X115208208Y-66750387D01*
X115111129Y-66940915D01*
X115111126Y-66940921D01*
X115045052Y-67144278D01*
X115045051Y-67144283D01*
X115045051Y-67144284D01*
X115011600Y-67355484D01*
X115011600Y-67569316D01*
X115045051Y-67780516D01*
X115045052Y-67780521D01*
X115111126Y-67983878D01*
X115111128Y-67983883D01*
X115208206Y-68174409D01*
X115333894Y-68347404D01*
X115333896Y-68347406D01*
X115333898Y-68347409D01*
X115485090Y-68498601D01*
X115485093Y-68498603D01*
X115485096Y-68498606D01*
X115658091Y-68624294D01*
X115658096Y-68624296D01*
X115659188Y-68624966D01*
X115659518Y-68625331D01*
X115662096Y-68627204D01*
X115661702Y-68627745D01*
X115706821Y-68677613D01*
X115718428Y-68747655D01*
X115690326Y-68812853D01*
X115661970Y-68837423D01*
X115662096Y-68837596D01*
X115660082Y-68839058D01*
X115659188Y-68839834D01*
X115658087Y-68840508D01*
X115485093Y-68966196D01*
X115485090Y-68966198D01*
X115333898Y-69117390D01*
X115333896Y-69117393D01*
X115208208Y-69290387D01*
X115111129Y-69480915D01*
X115111126Y-69480921D01*
X115045052Y-69684278D01*
X115045051Y-69684283D01*
X115045051Y-69684284D01*
X115011600Y-69895484D01*
X115011600Y-70109316D01*
X115045051Y-70320516D01*
X115045052Y-70320521D01*
X115111126Y-70523878D01*
X115111128Y-70523883D01*
X115208206Y-70714409D01*
X115333894Y-70887404D01*
X115333896Y-70887406D01*
X115333898Y-70887409D01*
X115485090Y-71038601D01*
X115485093Y-71038603D01*
X115485096Y-71038606D01*
X115658091Y-71164294D01*
X115658096Y-71164296D01*
X115659188Y-71164966D01*
X115659518Y-71165331D01*
X115662096Y-71167204D01*
X115661702Y-71167745D01*
X115706821Y-71217613D01*
X115718428Y-71287655D01*
X115690326Y-71352853D01*
X115661970Y-71377423D01*
X115662096Y-71377596D01*
X115660082Y-71379058D01*
X115659188Y-71379834D01*
X115658087Y-71380508D01*
X115485093Y-71506196D01*
X115485090Y-71506198D01*
X115333898Y-71657390D01*
X115333896Y-71657393D01*
X115208208Y-71830387D01*
X115111129Y-72020915D01*
X115111126Y-72020921D01*
X115045052Y-72224278D01*
X115045051Y-72224283D01*
X115045051Y-72224284D01*
X115011600Y-72435484D01*
X115011600Y-72649316D01*
X115045051Y-72860516D01*
X115045052Y-72860521D01*
X115111126Y-73063878D01*
X115111128Y-73063883D01*
X115208206Y-73254409D01*
X115333894Y-73427404D01*
X115333896Y-73427406D01*
X115333898Y-73427409D01*
X115485090Y-73578601D01*
X115485093Y-73578603D01*
X115485096Y-73578606D01*
X115658091Y-73704294D01*
X115658096Y-73704296D01*
X115659188Y-73704966D01*
X115659518Y-73705331D01*
X115662096Y-73707204D01*
X115661702Y-73707745D01*
X115706821Y-73757613D01*
X115718428Y-73827655D01*
X115690326Y-73892853D01*
X115661970Y-73917423D01*
X115662096Y-73917596D01*
X115660082Y-73919058D01*
X115659188Y-73919834D01*
X115658087Y-73920508D01*
X115485093Y-74046196D01*
X115485090Y-74046198D01*
X115333898Y-74197390D01*
X115333896Y-74197393D01*
X115208208Y-74370387D01*
X115111129Y-74560915D01*
X115111126Y-74560921D01*
X115045052Y-74764278D01*
X115045051Y-74764283D01*
X115045051Y-74764284D01*
X115011600Y-74975484D01*
X115011600Y-75189316D01*
X115045051Y-75400516D01*
X115045052Y-75400521D01*
X115111126Y-75603878D01*
X115111128Y-75603883D01*
X115208206Y-75794409D01*
X115333894Y-75967404D01*
X115333896Y-75967406D01*
X115333898Y-75967409D01*
X115485090Y-76118601D01*
X115485093Y-76118603D01*
X115485096Y-76118606D01*
X115658091Y-76244294D01*
X115658096Y-76244296D01*
X115659188Y-76244966D01*
X115659518Y-76245331D01*
X115662096Y-76247204D01*
X115661702Y-76247745D01*
X115706821Y-76297613D01*
X115718428Y-76367655D01*
X115690326Y-76432853D01*
X115661970Y-76457423D01*
X115662096Y-76457596D01*
X115660082Y-76459058D01*
X115659188Y-76459834D01*
X115658087Y-76460508D01*
X115485093Y-76586196D01*
X115485090Y-76586198D01*
X115333898Y-76737390D01*
X115333896Y-76737393D01*
X115208208Y-76910387D01*
X115111129Y-77100915D01*
X115111126Y-77100921D01*
X115045052Y-77304278D01*
X115045051Y-77304283D01*
X115045051Y-77304284D01*
X115011600Y-77515484D01*
X115011600Y-77729316D01*
X115045051Y-77940516D01*
X115045052Y-77940521D01*
X115111126Y-78143878D01*
X115111128Y-78143883D01*
X115208206Y-78334409D01*
X115333894Y-78507404D01*
X115333896Y-78507406D01*
X115333898Y-78507409D01*
X115485090Y-78658601D01*
X115485093Y-78658603D01*
X115485096Y-78658606D01*
X115658091Y-78784294D01*
X115658096Y-78784296D01*
X115659188Y-78784966D01*
X115659518Y-78785331D01*
X115662096Y-78787204D01*
X115661702Y-78787745D01*
X115706821Y-78837613D01*
X115718428Y-78907655D01*
X115690326Y-78972853D01*
X115661970Y-78997423D01*
X115662096Y-78997596D01*
X115660082Y-78999058D01*
X115659188Y-78999834D01*
X115658087Y-79000508D01*
X115485093Y-79126196D01*
X115485090Y-79126198D01*
X115333898Y-79277390D01*
X115333896Y-79277393D01*
X115208208Y-79450387D01*
X115111129Y-79640915D01*
X115111126Y-79640921D01*
X115045052Y-79844278D01*
X115045051Y-79844283D01*
X115045051Y-79844284D01*
X115011600Y-80055484D01*
X115011600Y-80269316D01*
X115011969Y-80271643D01*
X115045052Y-80480521D01*
X115111126Y-80683878D01*
X115111128Y-80683883D01*
X115208206Y-80874409D01*
X115333894Y-81047404D01*
X115333896Y-81047406D01*
X115333898Y-81047409D01*
X115485090Y-81198601D01*
X115485093Y-81198603D01*
X115485096Y-81198606D01*
X115658091Y-81324294D01*
X115658096Y-81324296D01*
X115659188Y-81324966D01*
X115659518Y-81325331D01*
X115662096Y-81327204D01*
X115661702Y-81327745D01*
X115706821Y-81377613D01*
X115718428Y-81447655D01*
X115690326Y-81512853D01*
X115661970Y-81537423D01*
X115662096Y-81537596D01*
X115660082Y-81539058D01*
X115659188Y-81539834D01*
X115658087Y-81540508D01*
X115485093Y-81666196D01*
X115485090Y-81666198D01*
X115333898Y-81817390D01*
X115333896Y-81817393D01*
X115208208Y-81990387D01*
X115111129Y-82180915D01*
X115111126Y-82180921D01*
X115045052Y-82384278D01*
X115045051Y-82384283D01*
X115045051Y-82384284D01*
X115011600Y-82595484D01*
X115011600Y-82809316D01*
X115045051Y-83020516D01*
X115045052Y-83020521D01*
X115111126Y-83223878D01*
X115111128Y-83223883D01*
X115208206Y-83414409D01*
X115333894Y-83587404D01*
X115333896Y-83587406D01*
X115333898Y-83587409D01*
X115485090Y-83738601D01*
X115485093Y-83738603D01*
X115485096Y-83738606D01*
X115658091Y-83864294D01*
X115658096Y-83864296D01*
X115659188Y-83864966D01*
X115659518Y-83865331D01*
X115662096Y-83867204D01*
X115661702Y-83867745D01*
X115706821Y-83917613D01*
X115718428Y-83987655D01*
X115690326Y-84052853D01*
X115661970Y-84077423D01*
X115662096Y-84077596D01*
X115660082Y-84079058D01*
X115659188Y-84079834D01*
X115658087Y-84080508D01*
X115485093Y-84206196D01*
X115485090Y-84206198D01*
X115333898Y-84357390D01*
X115333896Y-84357393D01*
X115208208Y-84530387D01*
X115111129Y-84720915D01*
X115111126Y-84720921D01*
X115045052Y-84924278D01*
X115045051Y-84924283D01*
X115045051Y-84924284D01*
X115011600Y-85135484D01*
X115011600Y-85349316D01*
X115045051Y-85560516D01*
X115045052Y-85560521D01*
X115111126Y-85763878D01*
X115111128Y-85763883D01*
X115208206Y-85954409D01*
X115333894Y-86127404D01*
X115333896Y-86127406D01*
X115333898Y-86127409D01*
X115485090Y-86278601D01*
X115485093Y-86278603D01*
X115485096Y-86278606D01*
X115658091Y-86404294D01*
X115658096Y-86404296D01*
X115659188Y-86404966D01*
X115659518Y-86405331D01*
X115662096Y-86407204D01*
X115661702Y-86407745D01*
X115706821Y-86457613D01*
X115718428Y-86527655D01*
X115690326Y-86592853D01*
X115661970Y-86617423D01*
X115662096Y-86617596D01*
X115660082Y-86619058D01*
X115659188Y-86619834D01*
X115658087Y-86620508D01*
X115485093Y-86746196D01*
X115485090Y-86746198D01*
X115333898Y-86897390D01*
X115333896Y-86897393D01*
X115208208Y-87070387D01*
X115111129Y-87260915D01*
X115111126Y-87260921D01*
X115045052Y-87464278D01*
X115045051Y-87464283D01*
X115045051Y-87464284D01*
X115011600Y-87675484D01*
X115011600Y-87889316D01*
X115045051Y-88100516D01*
X115045052Y-88100522D01*
X115048420Y-88110888D01*
X115050444Y-88181856D01*
X115017681Y-88238913D01*
X114952717Y-88303878D01*
X114777666Y-88478930D01*
X114689428Y-88567168D01*
X114689426Y-88567170D01*
X114685052Y-88571545D01*
X114683955Y-88570448D01*
X114631572Y-88606118D01*
X114560600Y-88608007D01*
X114499874Y-88571225D01*
X114468674Y-88507452D01*
X114466870Y-88486209D01*
X114466870Y-56093555D01*
X115467000Y-56093555D01*
X115467000Y-56093558D01*
X115467000Y-56251242D01*
X115497763Y-56405897D01*
X115558106Y-56551579D01*
X115645711Y-56682689D01*
X115757211Y-56794189D01*
X115888321Y-56881794D01*
X116034003Y-56942137D01*
X116188658Y-56972900D01*
X116188659Y-56972900D01*
X116346341Y-56972900D01*
X116346342Y-56972900D01*
X116500997Y-56942137D01*
X116646679Y-56881794D01*
X116777789Y-56794189D01*
X116889289Y-56682689D01*
X116976894Y-56551579D01*
X116995535Y-56506574D01*
X117040082Y-56451294D01*
X117107446Y-56428872D01*
X117176237Y-56446430D01*
X117224616Y-56498391D01*
X117236391Y-56535078D01*
X117238606Y-56549058D01*
X117238607Y-56549062D01*
X117282023Y-56682684D01*
X117316844Y-56789850D01*
X117431787Y-57015438D01*
X117580605Y-57220268D01*
X117580607Y-57220270D01*
X117580609Y-57220273D01*
X117759626Y-57399290D01*
X117759629Y-57399292D01*
X117759632Y-57399295D01*
X117964462Y-57548113D01*
X118190050Y-57663056D01*
X118430842Y-57741294D01*
X118680908Y-57780900D01*
X118680911Y-57780900D01*
X118934089Y-57780900D01*
X118934092Y-57780900D01*
X119184158Y-57741294D01*
X119424950Y-57663056D01*
X119650538Y-57548113D01*
X119855368Y-57399295D01*
X120034395Y-57220268D01*
X120183213Y-57015438D01*
X120184110Y-57013678D01*
X124991500Y-57013678D01*
X124991500Y-57251122D01*
X125028644Y-57485641D01*
X125028645Y-57485646D01*
X125086290Y-57663057D01*
X125102018Y-57711463D01*
X125209815Y-57923027D01*
X125349380Y-58115122D01*
X125349382Y-58115124D01*
X125349384Y-58115127D01*
X125517272Y-58283015D01*
X125517275Y-58283017D01*
X125517278Y-58283020D01*
X125709373Y-58422585D01*
X125920937Y-58530382D01*
X126146759Y-58603756D01*
X126381278Y-58640900D01*
X126381281Y-58640900D01*
X126618719Y-58640900D01*
X126618722Y-58640900D01*
X126853241Y-58603756D01*
X127079063Y-58530382D01*
X127290627Y-58422585D01*
X127482722Y-58283020D01*
X127650620Y-58115122D01*
X127790185Y-57923027D01*
X127897982Y-57711463D01*
X127971356Y-57485641D01*
X128008500Y-57251122D01*
X128008500Y-57013678D01*
X130071500Y-57013678D01*
X130071500Y-57251122D01*
X130108644Y-57485641D01*
X130108645Y-57485646D01*
X130166290Y-57663057D01*
X130182018Y-57711463D01*
X130289815Y-57923027D01*
X130429380Y-58115122D01*
X130429382Y-58115124D01*
X130429384Y-58115127D01*
X130597272Y-58283015D01*
X130597275Y-58283017D01*
X130597278Y-58283020D01*
X130789373Y-58422585D01*
X131000937Y-58530382D01*
X131226759Y-58603756D01*
X131461278Y-58640900D01*
X131461281Y-58640900D01*
X131698719Y-58640900D01*
X131698722Y-58640900D01*
X131933241Y-58603756D01*
X132159063Y-58530382D01*
X132370627Y-58422585D01*
X132562722Y-58283020D01*
X132730620Y-58115122D01*
X132870185Y-57923027D01*
X132977982Y-57711463D01*
X133051356Y-57485641D01*
X133088500Y-57251122D01*
X133088500Y-57013678D01*
X133051356Y-56779159D01*
X132977982Y-56553337D01*
X132870185Y-56341773D01*
X132730620Y-56149678D01*
X132730617Y-56149675D01*
X132730615Y-56149672D01*
X132562727Y-55981784D01*
X132562724Y-55981782D01*
X132562722Y-55981780D01*
X132370627Y-55842215D01*
X132159063Y-55734418D01*
X132159060Y-55734417D01*
X132159058Y-55734416D01*
X131933246Y-55661045D01*
X131933242Y-55661044D01*
X131933241Y-55661044D01*
X131698722Y-55623900D01*
X131461278Y-55623900D01*
X131226759Y-55661044D01*
X131226753Y-55661045D01*
X131000941Y-55734416D01*
X131000935Y-55734419D01*
X130789369Y-55842217D01*
X130597275Y-55981782D01*
X130597272Y-55981784D01*
X130429384Y-56149672D01*
X130429382Y-56149675D01*
X130289817Y-56341769D01*
X130182019Y-56553335D01*
X130182016Y-56553341D01*
X130108645Y-56779153D01*
X130108644Y-56779158D01*
X130108644Y-56779159D01*
X130071500Y-57013678D01*
X128008500Y-57013678D01*
X127971356Y-56779159D01*
X127897982Y-56553337D01*
X127790185Y-56341773D01*
X127650620Y-56149678D01*
X127650617Y-56149675D01*
X127650615Y-56149672D01*
X127482727Y-55981784D01*
X127482724Y-55981782D01*
X127482722Y-55981780D01*
X127290627Y-55842215D01*
X127079063Y-55734418D01*
X127079060Y-55734417D01*
X127079058Y-55734416D01*
X126853246Y-55661045D01*
X126853242Y-55661044D01*
X126853241Y-55661044D01*
X126618722Y-55623900D01*
X126381278Y-55623900D01*
X126146759Y-55661044D01*
X126146753Y-55661045D01*
X125920941Y-55734416D01*
X125920935Y-55734419D01*
X125709369Y-55842217D01*
X125517275Y-55981782D01*
X125517272Y-55981784D01*
X125349384Y-56149672D01*
X125349382Y-56149675D01*
X125209817Y-56341769D01*
X125102019Y-56553335D01*
X125102016Y-56553341D01*
X125028645Y-56779153D01*
X125028644Y-56779158D01*
X125028644Y-56779159D01*
X124991500Y-57013678D01*
X120184110Y-57013678D01*
X120298156Y-56789850D01*
X120376394Y-56549058D01*
X120416000Y-56298992D01*
X120416000Y-56045808D01*
X120376394Y-55795742D01*
X120298156Y-55554950D01*
X120183213Y-55329362D01*
X120034395Y-55124532D01*
X120034392Y-55124529D01*
X120034390Y-55124526D01*
X119855373Y-54945509D01*
X119855370Y-54945507D01*
X119855368Y-54945505D01*
X119650538Y-54796687D01*
X119424950Y-54681744D01*
X119424947Y-54681743D01*
X119424945Y-54681742D01*
X119184163Y-54603507D01*
X119184159Y-54603506D01*
X119184158Y-54603506D01*
X118934092Y-54563900D01*
X118680908Y-54563900D01*
X118430842Y-54603506D01*
X118430836Y-54603507D01*
X118190054Y-54681742D01*
X118190048Y-54681745D01*
X117964458Y-54796689D01*
X117759629Y-54945507D01*
X117759626Y-54945509D01*
X117580609Y-55124526D01*
X117580607Y-55124529D01*
X117431789Y-55329358D01*
X117316845Y-55554948D01*
X117316842Y-55554954D01*
X117238607Y-55795736D01*
X117238606Y-55795741D01*
X117238606Y-55795742D01*
X117236392Y-55809719D01*
X117205980Y-55873871D01*
X117145712Y-55911398D01*
X117074723Y-55910384D01*
X117015551Y-55871151D01*
X116995535Y-55838225D01*
X116977938Y-55795742D01*
X116976894Y-55793221D01*
X116889289Y-55662111D01*
X116777789Y-55550611D01*
X116646679Y-55463006D01*
X116500997Y-55402663D01*
X116346344Y-55371900D01*
X116346342Y-55371900D01*
X116188658Y-55371900D01*
X116188655Y-55371900D01*
X116034002Y-55402663D01*
X116033997Y-55402665D01*
X115888320Y-55463006D01*
X115757215Y-55550608D01*
X115757208Y-55550613D01*
X115645713Y-55662108D01*
X115645708Y-55662115D01*
X115558106Y-55793220D01*
X115497765Y-55938897D01*
X115497763Y-55938902D01*
X115467000Y-56093555D01*
X114466870Y-56093555D01*
X114466870Y-53553555D01*
X115467000Y-53553555D01*
X115467000Y-53553558D01*
X115467000Y-53711242D01*
X115497763Y-53865897D01*
X115558106Y-54011579D01*
X115645711Y-54142689D01*
X115757211Y-54254189D01*
X115888321Y-54341794D01*
X116034003Y-54402137D01*
X116188658Y-54432900D01*
X116188659Y-54432900D01*
X116346341Y-54432900D01*
X116346342Y-54432900D01*
X116500997Y-54402137D01*
X116646679Y-54341794D01*
X116777789Y-54254189D01*
X116889289Y-54142689D01*
X116976894Y-54011579D01*
X117037237Y-53865897D01*
X117068000Y-53711242D01*
X117068000Y-53553558D01*
X117037237Y-53398903D01*
X116976894Y-53253221D01*
X116889289Y-53122111D01*
X116777789Y-53010611D01*
X116646679Y-52923006D01*
X116500997Y-52862663D01*
X116346344Y-52831900D01*
X116346342Y-52831900D01*
X116188658Y-52831900D01*
X116188655Y-52831900D01*
X116034002Y-52862663D01*
X116033997Y-52862665D01*
X115888320Y-52923006D01*
X115757215Y-53010608D01*
X115757208Y-53010613D01*
X115645713Y-53122108D01*
X115645708Y-53122115D01*
X115558106Y-53253220D01*
X115497765Y-53398897D01*
X115497763Y-53398902D01*
X115467000Y-53553555D01*
X114466870Y-53553555D01*
X114466870Y-49049759D01*
X114466958Y-49045048D01*
X114483951Y-48590901D01*
X114484243Y-48585864D01*
X114486564Y-48556374D01*
X114486960Y-48552229D01*
X114536209Y-48115134D01*
X114536965Y-48109556D01*
X114540596Y-48086628D01*
X114541230Y-48082975D01*
X114624405Y-47643388D01*
X114625665Y-47637512D01*
X114628428Y-47626003D01*
X114629193Y-47622991D01*
X114747691Y-47180749D01*
X114750456Y-47171790D01*
X114808535Y-47005808D01*
X119851600Y-47005808D01*
X119851600Y-47258992D01*
X119874296Y-47402291D01*
X119891207Y-47509063D01*
X119969442Y-47749845D01*
X119969444Y-47749850D01*
X120084387Y-47975438D01*
X120233205Y-48180268D01*
X120233207Y-48180270D01*
X120233209Y-48180273D01*
X120412226Y-48359290D01*
X120412229Y-48359292D01*
X120412232Y-48359295D01*
X120617062Y-48508113D01*
X120842650Y-48623056D01*
X121083442Y-48701294D01*
X121333508Y-48740900D01*
X121333511Y-48740900D01*
X121586689Y-48740900D01*
X121586692Y-48740900D01*
X121836758Y-48701294D01*
X122077550Y-48623056D01*
X122303138Y-48508113D01*
X122507968Y-48359295D01*
X122686995Y-48180268D01*
X122794025Y-48032954D01*
X130011599Y-48032954D01*
X130022212Y-48136821D01*
X130022213Y-48136828D01*
X130036608Y-48180270D01*
X130077985Y-48305139D01*
X130111389Y-48359295D01*
X130171070Y-48456052D01*
X130171075Y-48456058D01*
X130296441Y-48581424D01*
X130296447Y-48581429D01*
X130296448Y-48581430D01*
X130447361Y-48674515D01*
X130615673Y-48730287D01*
X130655627Y-48734368D01*
X130719546Y-48740900D01*
X130719554Y-48740900D01*
X132520654Y-48740900D01*
X132580006Y-48734835D01*
X132624527Y-48730287D01*
X132792839Y-48674515D01*
X132943752Y-48581430D01*
X133069130Y-48456052D01*
X133162215Y-48305139D01*
X133217987Y-48136827D01*
X133223495Y-48082911D01*
X133228600Y-48032954D01*
X133228600Y-46231845D01*
X133221777Y-46165073D01*
X133217987Y-46127973D01*
X133162215Y-45959661D01*
X133069130Y-45808748D01*
X133069129Y-45808747D01*
X133069124Y-45808741D01*
X132943758Y-45683375D01*
X132943752Y-45683370D01*
X132792839Y-45590285D01*
X132708683Y-45562399D01*
X132624528Y-45534513D01*
X132624521Y-45534512D01*
X132520654Y-45523900D01*
X132520646Y-45523900D01*
X130719554Y-45523900D01*
X130719546Y-45523900D01*
X130615678Y-45534512D01*
X130615671Y-45534513D01*
X130447361Y-45590285D01*
X130296447Y-45683370D01*
X130296441Y-45683375D01*
X130171075Y-45808741D01*
X130171070Y-45808747D01*
X130077985Y-45959661D01*
X130022213Y-46127971D01*
X130022212Y-46127978D01*
X130011600Y-46231845D01*
X130011600Y-48032954D01*
X130011599Y-48032954D01*
X122794025Y-48032954D01*
X122835813Y-47975438D01*
X122950756Y-47749850D01*
X123028994Y-47509058D01*
X123068600Y-47258992D01*
X123068600Y-47005808D01*
X123028994Y-46755742D01*
X122950756Y-46514950D01*
X122835813Y-46289362D01*
X122835810Y-46289358D01*
X122718560Y-46127978D01*
X122686995Y-46084532D01*
X122686992Y-46084529D01*
X122686990Y-46084526D01*
X122507973Y-45905509D01*
X122507970Y-45905507D01*
X122507968Y-45905505D01*
X122303138Y-45756687D01*
X122077550Y-45641744D01*
X122077547Y-45641743D01*
X122077545Y-45641742D01*
X121836763Y-45563507D01*
X121836759Y-45563506D01*
X121836758Y-45563506D01*
X121586692Y-45523900D01*
X121333508Y-45523900D01*
X121083442Y-45563506D01*
X121083436Y-45563507D01*
X120842654Y-45641742D01*
X120842648Y-45641745D01*
X120617058Y-45756689D01*
X120412229Y-45905507D01*
X120412226Y-45905509D01*
X120233209Y-46084526D01*
X120233207Y-46084529D01*
X120084389Y-46289358D01*
X119969445Y-46514948D01*
X119969442Y-46514954D01*
X119891207Y-46755736D01*
X119891206Y-46755741D01*
X119891206Y-46755742D01*
X119851600Y-47005808D01*
X114808535Y-47005808D01*
X114904144Y-46732573D01*
X114907582Y-46723814D01*
X115093668Y-46297301D01*
X115097736Y-46288854D01*
X115315175Y-45877441D01*
X115319871Y-45869307D01*
X115567446Y-45475293D01*
X115572740Y-45467529D01*
X115849062Y-45093125D01*
X115854920Y-45085779D01*
X116158456Y-44733064D01*
X116164840Y-44726184D01*
X116493884Y-44397140D01*
X116500764Y-44390756D01*
X116853479Y-44087220D01*
X116860825Y-44081362D01*
X117235229Y-43805040D01*
X117242993Y-43799746D01*
X117637007Y-43552171D01*
X117645141Y-43547475D01*
X118056554Y-43330036D01*
X118065001Y-43325968D01*
X118491525Y-43139877D01*
X118500273Y-43136444D01*
X118939490Y-42982756D01*
X118948449Y-42979991D01*
X119390691Y-42861493D01*
X119393703Y-42860728D01*
X119405212Y-42857965D01*
X119411088Y-42856705D01*
X119850675Y-42773530D01*
X119854296Y-42772901D01*
X119877258Y-42769264D01*
X119882834Y-42768509D01*
X120319929Y-42719260D01*
X120324074Y-42718864D01*
X120353564Y-42716543D01*
X120358601Y-42716251D01*
X120812748Y-42699257D01*
X120817459Y-42699170D01*
X135292330Y-42699170D01*
X135360451Y-42719172D01*
G37*
G04 #@! TD.AperFunction*
G04 #@! TA.AperFunction,Conductor*
G36*
X123519465Y-93480562D02*
G01*
X123564550Y-93509531D01*
X123824695Y-93769676D01*
X123858721Y-93831988D01*
X123861600Y-93858771D01*
X123861600Y-107554675D01*
X123841598Y-107622796D01*
X123787942Y-107669289D01*
X123717668Y-107679393D01*
X123653088Y-107649899D01*
X123646505Y-107643770D01*
X120007181Y-104004446D01*
X119973155Y-103942134D01*
X119978220Y-103871319D01*
X119994338Y-103841292D01*
X120071994Y-103734409D01*
X120169072Y-103543883D01*
X120235149Y-103340516D01*
X120268600Y-103129316D01*
X120268600Y-102915484D01*
X120235149Y-102704284D01*
X120169072Y-102500917D01*
X120071994Y-102310391D01*
X119946306Y-102137396D01*
X119946303Y-102137393D01*
X119946301Y-102137390D01*
X119795109Y-101986198D01*
X119795106Y-101986196D01*
X119795104Y-101986194D01*
X119622109Y-101860506D01*
X119622107Y-101860505D01*
X119621020Y-101859839D01*
X119620691Y-101859475D01*
X119618104Y-101857596D01*
X119618498Y-101857052D01*
X119573383Y-101807196D01*
X119561770Y-101737156D01*
X119589866Y-101671955D01*
X119618230Y-101647378D01*
X119618104Y-101647204D01*
X119620130Y-101645731D01*
X119621020Y-101644961D01*
X119622097Y-101644299D01*
X119622109Y-101644294D01*
X119795104Y-101518606D01*
X119946306Y-101367404D01*
X120071994Y-101194409D01*
X120169072Y-101003883D01*
X120235149Y-100800516D01*
X120268600Y-100589316D01*
X120268600Y-100375484D01*
X120235149Y-100164284D01*
X120169072Y-99960917D01*
X120071994Y-99770391D01*
X119946306Y-99597396D01*
X119946303Y-99597393D01*
X119946301Y-99597390D01*
X119795109Y-99446198D01*
X119795106Y-99446196D01*
X119795104Y-99446194D01*
X119622109Y-99320506D01*
X119622107Y-99320505D01*
X119621020Y-99319839D01*
X119620691Y-99319475D01*
X119618104Y-99317596D01*
X119618498Y-99317052D01*
X119573383Y-99267196D01*
X119561770Y-99197156D01*
X119589866Y-99131955D01*
X119618230Y-99107378D01*
X119618104Y-99107204D01*
X119620130Y-99105731D01*
X119621020Y-99104961D01*
X119622097Y-99104299D01*
X119622109Y-99104294D01*
X119795104Y-98978606D01*
X119946306Y-98827404D01*
X120071994Y-98654409D01*
X120169072Y-98463883D01*
X120235149Y-98260516D01*
X120268600Y-98049316D01*
X120268600Y-97835484D01*
X120235149Y-97624284D01*
X120169072Y-97420917D01*
X120071994Y-97230391D01*
X119946306Y-97057396D01*
X119946303Y-97057393D01*
X119946301Y-97057390D01*
X119795109Y-96906198D01*
X119795106Y-96906196D01*
X119795104Y-96906194D01*
X119622109Y-96780506D01*
X119622107Y-96780505D01*
X119621020Y-96779839D01*
X119620691Y-96779475D01*
X119618104Y-96777596D01*
X119618498Y-96777052D01*
X119573383Y-96727196D01*
X119561770Y-96657156D01*
X119589866Y-96591955D01*
X119618230Y-96567378D01*
X119618104Y-96567204D01*
X119620130Y-96565731D01*
X119621020Y-96564961D01*
X119622097Y-96564299D01*
X119622109Y-96564294D01*
X119795104Y-96438606D01*
X119946306Y-96287404D01*
X120071994Y-96114409D01*
X120169072Y-95923883D01*
X120235149Y-95720516D01*
X120268600Y-95509316D01*
X120268600Y-95295484D01*
X120235149Y-95084284D01*
X120169072Y-94880917D01*
X120071994Y-94690391D01*
X119946306Y-94517396D01*
X119946303Y-94517393D01*
X119946301Y-94517390D01*
X119795109Y-94366198D01*
X119795106Y-94366196D01*
X119795104Y-94366194D01*
X119622109Y-94240506D01*
X119622107Y-94240505D01*
X119621020Y-94239839D01*
X119620691Y-94239475D01*
X119618104Y-94237596D01*
X119618498Y-94237052D01*
X119573383Y-94187196D01*
X119561770Y-94117156D01*
X119589866Y-94051955D01*
X119618230Y-94027378D01*
X119618104Y-94027204D01*
X119620130Y-94025731D01*
X119621020Y-94024961D01*
X119622097Y-94024299D01*
X119622109Y-94024294D01*
X119795104Y-93898606D01*
X119946306Y-93747404D01*
X120000480Y-93672838D01*
X120056702Y-93629485D01*
X120102416Y-93620900D01*
X122515221Y-93620900D01*
X122563439Y-93630491D01*
X122634269Y-93659830D01*
X122790470Y-93690900D01*
X122790471Y-93690900D01*
X122949729Y-93690900D01*
X122949730Y-93690900D01*
X123105931Y-93659830D01*
X123253068Y-93598883D01*
X123385489Y-93510403D01*
X123386345Y-93509546D01*
X123386904Y-93509241D01*
X123390279Y-93506472D01*
X123390803Y-93507111D01*
X123448648Y-93475511D01*
X123519465Y-93480562D01*
G37*
G04 #@! TD.AperFunction*
G04 #@! TA.AperFunction,Conductor*
G36*
X120421082Y-77686655D02*
G01*
X120472956Y-77717937D01*
X124574695Y-81819676D01*
X124608721Y-81881988D01*
X124611600Y-81908771D01*
X124611600Y-92107029D01*
X124591598Y-92175150D01*
X124537942Y-92221643D01*
X124467668Y-92231747D01*
X124403088Y-92202253D01*
X124396505Y-92196124D01*
X120289535Y-88089154D01*
X120255509Y-88026842D01*
X120254181Y-87980349D01*
X120268600Y-87889316D01*
X120268600Y-87675484D01*
X120235149Y-87464284D01*
X120169072Y-87260917D01*
X120071994Y-87070391D01*
X119946306Y-86897396D01*
X119946303Y-86897393D01*
X119946301Y-86897390D01*
X119795109Y-86746198D01*
X119795106Y-86746196D01*
X119795104Y-86746194D01*
X119622109Y-86620506D01*
X119622107Y-86620505D01*
X119621020Y-86619839D01*
X119620691Y-86619475D01*
X119618104Y-86617596D01*
X119618498Y-86617052D01*
X119573383Y-86567196D01*
X119561770Y-86497156D01*
X119589866Y-86431955D01*
X119618230Y-86407378D01*
X119618104Y-86407204D01*
X119620130Y-86405731D01*
X119621020Y-86404961D01*
X119622097Y-86404299D01*
X119622109Y-86404294D01*
X119795104Y-86278606D01*
X119946306Y-86127404D01*
X120071994Y-85954409D01*
X120169072Y-85763883D01*
X120235149Y-85560516D01*
X120268600Y-85349316D01*
X120268600Y-85135484D01*
X120235149Y-84924284D01*
X120169072Y-84720917D01*
X120071994Y-84530391D01*
X119946306Y-84357396D01*
X119946303Y-84357393D01*
X119946301Y-84357390D01*
X119795109Y-84206198D01*
X119795106Y-84206196D01*
X119795104Y-84206194D01*
X119622109Y-84080506D01*
X119622107Y-84080505D01*
X119621020Y-84079839D01*
X119620691Y-84079475D01*
X119618104Y-84077596D01*
X119618498Y-84077052D01*
X119573383Y-84027196D01*
X119561770Y-83957156D01*
X119589866Y-83891955D01*
X119618230Y-83867378D01*
X119618104Y-83867204D01*
X119620130Y-83865731D01*
X119621020Y-83864961D01*
X119622097Y-83864299D01*
X119622109Y-83864294D01*
X119795104Y-83738606D01*
X119946306Y-83587404D01*
X120071994Y-83414409D01*
X120169072Y-83223883D01*
X120235149Y-83020516D01*
X120268600Y-82809316D01*
X120268600Y-82595484D01*
X120235149Y-82384284D01*
X120169072Y-82180917D01*
X120071994Y-81990391D01*
X119946306Y-81817396D01*
X119946303Y-81817393D01*
X119946301Y-81817390D01*
X119795109Y-81666198D01*
X119795106Y-81666196D01*
X119795104Y-81666194D01*
X119622109Y-81540506D01*
X119622107Y-81540505D01*
X119621020Y-81539839D01*
X119620691Y-81539475D01*
X119618104Y-81537596D01*
X119618498Y-81537052D01*
X119573383Y-81487196D01*
X119561770Y-81417156D01*
X119589866Y-81351955D01*
X119618230Y-81327378D01*
X119618104Y-81327204D01*
X119620130Y-81325731D01*
X119621020Y-81324961D01*
X119622097Y-81324299D01*
X119622109Y-81324294D01*
X119795104Y-81198606D01*
X119946306Y-81047404D01*
X120071994Y-80874409D01*
X120169072Y-80683883D01*
X120235149Y-80480516D01*
X120268600Y-80269316D01*
X120268600Y-80055484D01*
X120235149Y-79844284D01*
X120169072Y-79640917D01*
X120071994Y-79450391D01*
X119946306Y-79277396D01*
X119946303Y-79277393D01*
X119946301Y-79277390D01*
X119795109Y-79126198D01*
X119795106Y-79126196D01*
X119795104Y-79126194D01*
X119622109Y-79000506D01*
X119622107Y-79000505D01*
X119621020Y-78999839D01*
X119620691Y-78999475D01*
X119618104Y-78997596D01*
X119618498Y-78997052D01*
X119573383Y-78947196D01*
X119561770Y-78877156D01*
X119589866Y-78811955D01*
X119618230Y-78787378D01*
X119618104Y-78787204D01*
X119620130Y-78785731D01*
X119621020Y-78784961D01*
X119622097Y-78784299D01*
X119622109Y-78784294D01*
X119795104Y-78658606D01*
X119946306Y-78507404D01*
X120071994Y-78334409D01*
X120169072Y-78143883D01*
X120235149Y-77940516D01*
X120259413Y-77787318D01*
X120289824Y-77723168D01*
X120350093Y-77685641D01*
X120421082Y-77686655D01*
G37*
G04 #@! TD.AperFunction*
G04 #@! TA.AperFunction,Conductor*
G36*
X119989052Y-65868822D02*
G01*
X120034116Y-65897783D01*
X124894502Y-70758169D01*
X124928528Y-70820481D01*
X124923463Y-70891296D01*
X124880916Y-70948132D01*
X124844345Y-70967096D01*
X124791046Y-70984414D01*
X124791035Y-70984419D01*
X124579469Y-71092217D01*
X124387375Y-71231782D01*
X124387372Y-71231784D01*
X124219484Y-71399672D01*
X124219482Y-71399675D01*
X124079917Y-71591769D01*
X123972119Y-71803335D01*
X123972116Y-71803341D01*
X123898745Y-72029153D01*
X123898744Y-72029158D01*
X123898744Y-72029159D01*
X123861600Y-72263678D01*
X123861600Y-72501122D01*
X123885071Y-72649312D01*
X123898745Y-72735646D01*
X123972116Y-72961458D01*
X123972118Y-72961463D01*
X124079915Y-73173027D01*
X124219480Y-73365122D01*
X124219482Y-73365124D01*
X124219484Y-73365127D01*
X124387372Y-73533015D01*
X124387375Y-73533017D01*
X124387378Y-73533020D01*
X124579473Y-73672585D01*
X124791037Y-73780382D01*
X125016859Y-73853756D01*
X125251378Y-73890900D01*
X125251381Y-73890900D01*
X125488819Y-73890900D01*
X125488822Y-73890900D01*
X125723341Y-73853756D01*
X125949163Y-73780382D01*
X126160727Y-73672585D01*
X126352822Y-73533020D01*
X126352827Y-73533015D01*
X126396505Y-73489338D01*
X126458817Y-73455312D01*
X126529632Y-73460377D01*
X126586468Y-73502924D01*
X126611279Y-73569444D01*
X126611600Y-73578433D01*
X126611600Y-77022299D01*
X126591598Y-77090420D01*
X126537942Y-77136913D01*
X126467668Y-77147017D01*
X126437383Y-77138708D01*
X126355937Y-77104972D01*
X126355934Y-77104971D01*
X126355931Y-77104970D01*
X126277830Y-77089435D01*
X126199732Y-77073900D01*
X126199730Y-77073900D01*
X126040470Y-77073900D01*
X126040467Y-77073900D01*
X125923319Y-77097202D01*
X125884269Y-77104970D01*
X125783842Y-77146569D01*
X125737132Y-77165917D01*
X125604709Y-77254398D01*
X125604703Y-77254403D01*
X125492103Y-77367003D01*
X125492098Y-77367009D01*
X125403617Y-77499432D01*
X125342671Y-77646567D01*
X125342670Y-77646570D01*
X125311600Y-77802767D01*
X125311600Y-77802770D01*
X125311600Y-77962030D01*
X125342670Y-78118231D01*
X125352008Y-78140775D01*
X125361600Y-78188993D01*
X125361600Y-80157029D01*
X125341598Y-80225150D01*
X125287942Y-80271643D01*
X125217668Y-80281747D01*
X125153088Y-80252253D01*
X125146505Y-80246124D01*
X120289535Y-75389154D01*
X120255509Y-75326842D01*
X120254181Y-75280349D01*
X120268600Y-75189316D01*
X120268600Y-74975484D01*
X120235149Y-74764284D01*
X120169072Y-74560917D01*
X120071994Y-74370391D01*
X119946306Y-74197396D01*
X119946303Y-74197393D01*
X119946301Y-74197390D01*
X119795109Y-74046198D01*
X119795106Y-74046196D01*
X119795104Y-74046194D01*
X119622109Y-73920506D01*
X119622107Y-73920505D01*
X119621020Y-73919839D01*
X119620691Y-73919475D01*
X119618104Y-73917596D01*
X119618498Y-73917052D01*
X119573383Y-73867196D01*
X119561770Y-73797156D01*
X119589866Y-73731955D01*
X119618230Y-73707378D01*
X119618104Y-73707204D01*
X119620130Y-73705731D01*
X119621020Y-73704961D01*
X119622097Y-73704299D01*
X119622109Y-73704294D01*
X119795104Y-73578606D01*
X119946306Y-73427404D01*
X120071994Y-73254409D01*
X120169072Y-73063883D01*
X120235149Y-72860516D01*
X120268600Y-72649316D01*
X120268600Y-72435484D01*
X120235149Y-72224284D01*
X120169072Y-72020917D01*
X120071994Y-71830391D01*
X119946306Y-71657396D01*
X119946303Y-71657393D01*
X119946301Y-71657390D01*
X119795109Y-71506198D01*
X119795106Y-71506196D01*
X119795104Y-71506194D01*
X119622109Y-71380506D01*
X119622107Y-71380505D01*
X119621020Y-71379839D01*
X119620691Y-71379475D01*
X119618104Y-71377596D01*
X119618498Y-71377052D01*
X119573383Y-71327196D01*
X119561770Y-71257156D01*
X119589866Y-71191955D01*
X119618230Y-71167378D01*
X119618104Y-71167204D01*
X119620130Y-71165731D01*
X119621020Y-71164961D01*
X119622097Y-71164299D01*
X119622109Y-71164294D01*
X119795104Y-71038606D01*
X119946306Y-70887404D01*
X120071994Y-70714409D01*
X120169072Y-70523883D01*
X120235149Y-70320516D01*
X120268600Y-70109316D01*
X120268600Y-69895484D01*
X120235149Y-69684284D01*
X120169072Y-69480917D01*
X120071994Y-69290391D01*
X119946306Y-69117396D01*
X119946303Y-69117393D01*
X119946301Y-69117390D01*
X119795109Y-68966198D01*
X119795106Y-68966196D01*
X119795104Y-68966194D01*
X119622109Y-68840506D01*
X119622107Y-68840505D01*
X119621020Y-68839839D01*
X119620691Y-68839475D01*
X119618104Y-68837596D01*
X119618498Y-68837052D01*
X119573383Y-68787196D01*
X119561770Y-68717156D01*
X119589866Y-68651955D01*
X119618230Y-68627378D01*
X119618104Y-68627204D01*
X119620130Y-68625731D01*
X119621020Y-68624961D01*
X119622097Y-68624299D01*
X119622109Y-68624294D01*
X119795104Y-68498606D01*
X119946306Y-68347404D01*
X120071994Y-68174409D01*
X120169072Y-67983883D01*
X120235149Y-67780516D01*
X120268600Y-67569316D01*
X120268600Y-67355484D01*
X120235149Y-67144284D01*
X120169072Y-66940917D01*
X120071994Y-66750391D01*
X119946306Y-66577396D01*
X119946303Y-66577393D01*
X119946301Y-66577390D01*
X119795109Y-66426198D01*
X119795106Y-66426196D01*
X119795104Y-66426194D01*
X119622109Y-66300506D01*
X119622107Y-66300505D01*
X119621020Y-66299839D01*
X119620691Y-66299475D01*
X119618104Y-66297596D01*
X119618498Y-66297052D01*
X119573383Y-66247196D01*
X119561770Y-66177156D01*
X119589866Y-66111955D01*
X119618230Y-66087378D01*
X119618104Y-66087204D01*
X119620130Y-66085731D01*
X119621020Y-66084961D01*
X119622097Y-66084299D01*
X119622109Y-66084294D01*
X119795104Y-65958606D01*
X119855927Y-65897782D01*
X119918236Y-65863758D01*
X119989052Y-65868822D01*
G37*
G04 #@! TD.AperFunction*
M02*
