G04 #@! TF.GenerationSoftware,KiCad,Pcbnew,9.0.1+1*
G04 #@! TF.CreationDate,2025-11-17T18:19:14+00:00*
G04 #@! TF.ProjectId,com4bbb,636f6d34-6262-4622-9e6b-696361645f70,rev?*
G04 #@! TF.SameCoordinates,Original*
G04 #@! TF.FileFunction,Soldermask,Top*
G04 #@! TF.FilePolarity,Negative*
%FSLAX46Y46*%
G04 Gerber Fmt 4.6, Leading zero omitted, Abs format (unit mm)*
G04 Created by KiCad (PCBNEW 9.0.1+1) date 2025-11-17 18:19:14*
%MOMM*%
%LPD*%
G01*
G04 APERTURE LIST*
%ADD10R,1.700000X1.700000*%
%ADD11C,1.700000*%
%ADD12O,1.500000X3.000000*%
%ADD13R,1.500000X1.000000*%
%ADD14C,2.000000*%
%ADD15R,1.500000X0.900000*%
%ADD16R,0.900000X1.500000*%
%ADD17C,0.600000*%
%ADD18R,3.800000X3.800000*%
%ADD19C,1.100000*%
%ADD20C,2.200000*%
G04 APERTURE END LIST*
G36*
X124120100Y-78132400D02*
G01*
X125620100Y-78132400D01*
X125620100Y-76632400D01*
X124120100Y-76632400D01*
X124120100Y-78132400D01*
G37*
G36*
X129120100Y-76632400D02*
G01*
X127620100Y-76632400D01*
X127620100Y-78132400D01*
X129120100Y-78132400D01*
X129120100Y-76632400D01*
G37*
G36*
X123620100Y-112382400D02*
G01*
X125120100Y-112382400D01*
X125120100Y-110882400D01*
X123620100Y-110882400D01*
X123620100Y-112382400D01*
G37*
G36*
X123620100Y-120132400D02*
G01*
X125120100Y-120132400D01*
X125120100Y-118632400D01*
X123620100Y-118632400D01*
X123620100Y-120132400D01*
G37*
G36*
X129120100Y-92232400D02*
G01*
X127620100Y-92232400D01*
X127620100Y-92532400D01*
X129120100Y-92532400D01*
X129120100Y-92232400D01*
G37*
G36*
X135120100Y-92232400D02*
G01*
X133620100Y-92232400D01*
X133620100Y-92532400D01*
X135120100Y-92532400D01*
X135120100Y-92232400D01*
G37*
G36*
X121620100Y-87532400D02*
G01*
X123120100Y-87532400D01*
X123120100Y-87232400D01*
X121620100Y-87232400D01*
X121620100Y-87532400D01*
G37*
G36*
X132120100Y-92232400D02*
G01*
X130620100Y-92232400D01*
X130620100Y-92532400D01*
X132120100Y-92532400D01*
X132120100Y-92232400D01*
G37*
D10*
X164630100Y-62382400D03*
D11*
X167170100Y-62382400D03*
X164630100Y-64922400D03*
X167170100Y-64922400D03*
X164630100Y-67462400D03*
X167170100Y-67462400D03*
X164630100Y-70002400D03*
X167170100Y-70002400D03*
X164630100Y-72542400D03*
X167170100Y-72542400D03*
X164630100Y-75082400D03*
X167170100Y-75082400D03*
X164630100Y-77622400D03*
X167170100Y-77622400D03*
X164630100Y-80162400D03*
X167170100Y-80162400D03*
X164630100Y-82702400D03*
X167170100Y-82702400D03*
X164630100Y-85242400D03*
X167170100Y-85242400D03*
X164630100Y-87782400D03*
X167170100Y-87782400D03*
X164630100Y-90322400D03*
X167170100Y-90322400D03*
X164630100Y-92862400D03*
X167170100Y-92862400D03*
X164630100Y-95402400D03*
X167170100Y-95402400D03*
X164630100Y-97942400D03*
X167170100Y-97942400D03*
X164630100Y-100482400D03*
X167170100Y-100482400D03*
X164630100Y-103022400D03*
X167170100Y-103022400D03*
X164630100Y-105562400D03*
X167170100Y-105562400D03*
X164630100Y-108102400D03*
X167170100Y-108102400D03*
X164630100Y-110642400D03*
X167170100Y-110642400D03*
X164630100Y-113182400D03*
X167170100Y-113182400D03*
X164630100Y-115722400D03*
X167170100Y-115722400D03*
X164630100Y-118262400D03*
X167170100Y-118262400D03*
D10*
X116370100Y-62382400D03*
D11*
X118910100Y-62382400D03*
X116370100Y-64922400D03*
X118910100Y-64922400D03*
X116370100Y-67462400D03*
X118910100Y-67462400D03*
X116370100Y-70002400D03*
X118910100Y-70002400D03*
X116370100Y-72542400D03*
X118910100Y-72542400D03*
X116370100Y-75082400D03*
X118910100Y-75082400D03*
X116370100Y-77622400D03*
X118910100Y-77622400D03*
X116370100Y-80162400D03*
X118910100Y-80162400D03*
X116370100Y-82702400D03*
X118910100Y-82702400D03*
X116370100Y-85242400D03*
X118910100Y-85242400D03*
X116370100Y-87782400D03*
X118910100Y-87782400D03*
X116370100Y-90322400D03*
X118910100Y-90322400D03*
X116370100Y-92862400D03*
X118910100Y-92862400D03*
X116370100Y-95402400D03*
X118910100Y-95402400D03*
X116370100Y-97942400D03*
X118910100Y-97942400D03*
X116370100Y-100482400D03*
X118910100Y-100482400D03*
X116370100Y-103022400D03*
X118910100Y-103022400D03*
X116370100Y-105562400D03*
X118910100Y-105562400D03*
X116370100Y-108102400D03*
X118910100Y-108102400D03*
X116370100Y-110642400D03*
X118910100Y-110642400D03*
X116370100Y-113182400D03*
X118910100Y-113182400D03*
X116370100Y-115722400D03*
X118910100Y-115722400D03*
X116370100Y-118262400D03*
X118910100Y-118262400D03*
G36*
G01*
X124950100Y-90622400D02*
X125290100Y-90622400D01*
G75*
G02*
X125430100Y-90762400I0J-140000D01*
G01*
X125430100Y-91042400D01*
G75*
G02*
X125290100Y-91182400I-140000J0D01*
G01*
X124950100Y-91182400D01*
G75*
G02*
X124810100Y-91042400I0J140000D01*
G01*
X124810100Y-90762400D01*
G75*
G02*
X124950100Y-90622400I140000J0D01*
G01*
G37*
G36*
G01*
X124950100Y-91582400D02*
X125290100Y-91582400D01*
G75*
G02*
X125430100Y-91722400I0J-140000D01*
G01*
X125430100Y-92002400D01*
G75*
G02*
X125290100Y-92142400I-140000J0D01*
G01*
X124950100Y-92142400D01*
G75*
G02*
X124810100Y-92002400I0J140000D01*
G01*
X124810100Y-91722400D01*
G75*
G02*
X124950100Y-91582400I140000J0D01*
G01*
G37*
G36*
G01*
X150620100Y-119632399D02*
X150620100Y-117132401D01*
G75*
G02*
X150870101Y-116882400I250001J0D01*
G01*
X151870099Y-116882400D01*
G75*
G02*
X152120100Y-117132401I0J-250001D01*
G01*
X152120100Y-119632399D01*
G75*
G02*
X151870099Y-119882400I-250001J0D01*
G01*
X150870101Y-119882400D01*
G75*
G02*
X150620100Y-119632399I0J250001D01*
G01*
G37*
D12*
X156370100Y-118382400D03*
G36*
X125620100Y-78132400D02*
G01*
X125620100Y-78682400D01*
X125615822Y-78682400D01*
X125615822Y-78747663D01*
X125582040Y-78873742D01*
X125516777Y-78986781D01*
X125424481Y-79079077D01*
X125311442Y-79144340D01*
X125185363Y-79178122D01*
X125120100Y-79178122D01*
X125120100Y-79182400D01*
X124620100Y-79182400D01*
X124620100Y-79178122D01*
X124554837Y-79178122D01*
X124428758Y-79144340D01*
X124315719Y-79079077D01*
X124223423Y-78986781D01*
X124158160Y-78873742D01*
X124124378Y-78747663D01*
X124124378Y-78682400D01*
X124120100Y-78682400D01*
X124120100Y-78132400D01*
X125620100Y-78132400D01*
G37*
D13*
X124870100Y-77382400D03*
G36*
X124124378Y-76082400D02*
G01*
X124124378Y-76017137D01*
X124158160Y-75891058D01*
X124223423Y-75778019D01*
X124315719Y-75685723D01*
X124428758Y-75620460D01*
X124554837Y-75586678D01*
X124620100Y-75586678D01*
X124620100Y-75582400D01*
X125120100Y-75582400D01*
X125120100Y-75586678D01*
X125185363Y-75586678D01*
X125311442Y-75620460D01*
X125424481Y-75685723D01*
X125516777Y-75778019D01*
X125582040Y-75891058D01*
X125615822Y-76017137D01*
X125615822Y-76082400D01*
X125620100Y-76082400D01*
X125620100Y-76632400D01*
X124120100Y-76632400D01*
X124120100Y-76082400D01*
X124124378Y-76082400D01*
G37*
G36*
X127620100Y-76632400D02*
G01*
X127620100Y-76082400D01*
X127624378Y-76082400D01*
X127624378Y-76017137D01*
X127658160Y-75891058D01*
X127723423Y-75778019D01*
X127815719Y-75685723D01*
X127928758Y-75620460D01*
X128054837Y-75586678D01*
X128120100Y-75586678D01*
X128120100Y-75582400D01*
X128620100Y-75582400D01*
X128620100Y-75586678D01*
X128685363Y-75586678D01*
X128811442Y-75620460D01*
X128924481Y-75685723D01*
X129016777Y-75778019D01*
X129082040Y-75891058D01*
X129115822Y-76017137D01*
X129115822Y-76082400D01*
X129120100Y-76082400D01*
X129120100Y-76632400D01*
X127620100Y-76632400D01*
G37*
X128370100Y-77382400D03*
G36*
X129115822Y-78682400D02*
G01*
X129115822Y-78747663D01*
X129082040Y-78873742D01*
X129016777Y-78986781D01*
X128924481Y-79079077D01*
X128811442Y-79144340D01*
X128685363Y-79178122D01*
X128620100Y-79178122D01*
X128620100Y-79182400D01*
X128120100Y-79182400D01*
X128120100Y-79178122D01*
X128054837Y-79178122D01*
X127928758Y-79144340D01*
X127815719Y-79079077D01*
X127723423Y-78986781D01*
X127658160Y-78873742D01*
X127624378Y-78747663D01*
X127624378Y-78682400D01*
X127620100Y-78682400D01*
X127620100Y-78132400D01*
X129120100Y-78132400D01*
X129120100Y-78682400D01*
X129115822Y-78682400D01*
G37*
G36*
X125120100Y-112382400D02*
G01*
X125120100Y-112932400D01*
X125115822Y-112932400D01*
X125115822Y-112997663D01*
X125082040Y-113123742D01*
X125016777Y-113236781D01*
X124924481Y-113329077D01*
X124811442Y-113394340D01*
X124685363Y-113428122D01*
X124620100Y-113428122D01*
X124620100Y-113432400D01*
X124120100Y-113432400D01*
X124120100Y-113428122D01*
X124054837Y-113428122D01*
X123928758Y-113394340D01*
X123815719Y-113329077D01*
X123723423Y-113236781D01*
X123658160Y-113123742D01*
X123624378Y-112997663D01*
X123624378Y-112932400D01*
X123620100Y-112932400D01*
X123620100Y-112382400D01*
X125120100Y-112382400D01*
G37*
X124370100Y-111632400D03*
G36*
X123624378Y-110332400D02*
G01*
X123624378Y-110267137D01*
X123658160Y-110141058D01*
X123723423Y-110028019D01*
X123815719Y-109935723D01*
X123928758Y-109870460D01*
X124054837Y-109836678D01*
X124120100Y-109836678D01*
X124120100Y-109832400D01*
X124620100Y-109832400D01*
X124620100Y-109836678D01*
X124685363Y-109836678D01*
X124811442Y-109870460D01*
X124924481Y-109935723D01*
X125016777Y-110028019D01*
X125082040Y-110141058D01*
X125115822Y-110267137D01*
X125115822Y-110332400D01*
X125120100Y-110332400D01*
X125120100Y-110882400D01*
X123620100Y-110882400D01*
X123620100Y-110332400D01*
X123624378Y-110332400D01*
G37*
G36*
X125120100Y-120132400D02*
G01*
X125120100Y-120682400D01*
X125115822Y-120682400D01*
X125115822Y-120747663D01*
X125082040Y-120873742D01*
X125016777Y-120986781D01*
X124924481Y-121079077D01*
X124811442Y-121144340D01*
X124685363Y-121178122D01*
X124620100Y-121178122D01*
X124620100Y-121182400D01*
X124120100Y-121182400D01*
X124120100Y-121178122D01*
X124054837Y-121178122D01*
X123928758Y-121144340D01*
X123815719Y-121079077D01*
X123723423Y-120986781D01*
X123658160Y-120873742D01*
X123624378Y-120747663D01*
X123624378Y-120682400D01*
X123620100Y-120682400D01*
X123620100Y-120132400D01*
X125120100Y-120132400D01*
G37*
X124370100Y-119382400D03*
G36*
X123624378Y-118082400D02*
G01*
X123624378Y-118017137D01*
X123658160Y-117891058D01*
X123723423Y-117778019D01*
X123815719Y-117685723D01*
X123928758Y-117620460D01*
X124054837Y-117586678D01*
X124120100Y-117586678D01*
X124120100Y-117582400D01*
X124620100Y-117582400D01*
X124620100Y-117586678D01*
X124685363Y-117586678D01*
X124811442Y-117620460D01*
X124924481Y-117685723D01*
X125016777Y-117778019D01*
X125082040Y-117891058D01*
X125115822Y-118017137D01*
X125115822Y-118082400D01*
X125120100Y-118082400D01*
X125120100Y-118632400D01*
X123620100Y-118632400D01*
X123620100Y-118082400D01*
X123624378Y-118082400D01*
G37*
G36*
X127620100Y-92232400D02*
G01*
X127620100Y-91732400D01*
X127624378Y-91732400D01*
X127624378Y-91667137D01*
X127658160Y-91541058D01*
X127723423Y-91428019D01*
X127815719Y-91335723D01*
X127928758Y-91270460D01*
X128054837Y-91236678D01*
X128120100Y-91236678D01*
X128120100Y-91232400D01*
X128620100Y-91232400D01*
X128620100Y-91236678D01*
X128685363Y-91236678D01*
X128811442Y-91270460D01*
X128924481Y-91335723D01*
X129016777Y-91428019D01*
X129082040Y-91541058D01*
X129115822Y-91667137D01*
X129115822Y-91732400D01*
X129120100Y-91732400D01*
X129120100Y-92232400D01*
X127620100Y-92232400D01*
G37*
G36*
X129115822Y-93032400D02*
G01*
X129115822Y-93097663D01*
X129082040Y-93223742D01*
X129016777Y-93336781D01*
X128924481Y-93429077D01*
X128811442Y-93494340D01*
X128685363Y-93528122D01*
X128620100Y-93528122D01*
X128620100Y-93532400D01*
X128120100Y-93532400D01*
X128120100Y-93528122D01*
X128054837Y-93528122D01*
X127928758Y-93494340D01*
X127815719Y-93429077D01*
X127723423Y-93336781D01*
X127658160Y-93223742D01*
X127624378Y-93097663D01*
X127624378Y-93032400D01*
X127620100Y-93032400D01*
X127620100Y-92532400D01*
X129120100Y-92532400D01*
X129120100Y-93032400D01*
X129115822Y-93032400D01*
G37*
G36*
X133620100Y-92232400D02*
G01*
X133620100Y-91732400D01*
X133624378Y-91732400D01*
X133624378Y-91667137D01*
X133658160Y-91541058D01*
X133723423Y-91428019D01*
X133815719Y-91335723D01*
X133928758Y-91270460D01*
X134054837Y-91236678D01*
X134120100Y-91236678D01*
X134120100Y-91232400D01*
X134620100Y-91232400D01*
X134620100Y-91236678D01*
X134685363Y-91236678D01*
X134811442Y-91270460D01*
X134924481Y-91335723D01*
X135016777Y-91428019D01*
X135082040Y-91541058D01*
X135115822Y-91667137D01*
X135115822Y-91732400D01*
X135120100Y-91732400D01*
X135120100Y-92232400D01*
X133620100Y-92232400D01*
G37*
G36*
X135115822Y-93032400D02*
G01*
X135115822Y-93097663D01*
X135082040Y-93223742D01*
X135016777Y-93336781D01*
X134924481Y-93429077D01*
X134811442Y-93494340D01*
X134685363Y-93528122D01*
X134620100Y-93528122D01*
X134620100Y-93532400D01*
X134120100Y-93532400D01*
X134120100Y-93528122D01*
X134054837Y-93528122D01*
X133928758Y-93494340D01*
X133815719Y-93429077D01*
X133723423Y-93336781D01*
X133658160Y-93223742D01*
X133624378Y-93097663D01*
X133624378Y-93032400D01*
X133620100Y-93032400D01*
X133620100Y-92532400D01*
X135120100Y-92532400D01*
X135120100Y-93032400D01*
X135115822Y-93032400D01*
G37*
G36*
X123120100Y-87532400D02*
G01*
X123120100Y-88032400D01*
X123115822Y-88032400D01*
X123115822Y-88097663D01*
X123082040Y-88223742D01*
X123016777Y-88336781D01*
X122924481Y-88429077D01*
X122811442Y-88494340D01*
X122685363Y-88528122D01*
X122620100Y-88528122D01*
X122620100Y-88532400D01*
X122120100Y-88532400D01*
X122120100Y-88528122D01*
X122054837Y-88528122D01*
X121928758Y-88494340D01*
X121815719Y-88429077D01*
X121723423Y-88336781D01*
X121658160Y-88223742D01*
X121624378Y-88097663D01*
X121624378Y-88032400D01*
X121620100Y-88032400D01*
X121620100Y-87532400D01*
X123120100Y-87532400D01*
G37*
G36*
X121624378Y-86732400D02*
G01*
X121624378Y-86667137D01*
X121658160Y-86541058D01*
X121723423Y-86428019D01*
X121815719Y-86335723D01*
X121928758Y-86270460D01*
X122054837Y-86236678D01*
X122120100Y-86236678D01*
X122120100Y-86232400D01*
X122620100Y-86232400D01*
X122620100Y-86236678D01*
X122685363Y-86236678D01*
X122811442Y-86270460D01*
X122924481Y-86335723D01*
X123016777Y-86428019D01*
X123082040Y-86541058D01*
X123115822Y-86667137D01*
X123115822Y-86732400D01*
X123120100Y-86732400D01*
X123120100Y-87232400D01*
X121620100Y-87232400D01*
X121620100Y-86732400D01*
X121624378Y-86732400D01*
G37*
G36*
G01*
X134150100Y-86447400D02*
X134150100Y-86817400D01*
G75*
G02*
X134015100Y-86952400I-135000J0D01*
G01*
X133745100Y-86952400D01*
G75*
G02*
X133610100Y-86817400I0J135000D01*
G01*
X133610100Y-86447400D01*
G75*
G02*
X133745100Y-86312400I135000J0D01*
G01*
X134015100Y-86312400D01*
G75*
G02*
X134150100Y-86447400I0J-135000D01*
G01*
G37*
G36*
G01*
X133130100Y-86447400D02*
X133130100Y-86817400D01*
G75*
G02*
X132995100Y-86952400I-135000J0D01*
G01*
X132725100Y-86952400D01*
G75*
G02*
X132590100Y-86817400I0J135000D01*
G01*
X132590100Y-86447400D01*
G75*
G02*
X132725100Y-86312400I135000J0D01*
G01*
X132995100Y-86312400D01*
G75*
G02*
X133130100Y-86447400I0J-135000D01*
G01*
G37*
G36*
G01*
X134150100Y-87697400D02*
X134150100Y-88067400D01*
G75*
G02*
X134015100Y-88202400I-135000J0D01*
G01*
X133745100Y-88202400D01*
G75*
G02*
X133610100Y-88067400I0J135000D01*
G01*
X133610100Y-87697400D01*
G75*
G02*
X133745100Y-87562400I135000J0D01*
G01*
X134015100Y-87562400D01*
G75*
G02*
X134150100Y-87697400I0J-135000D01*
G01*
G37*
G36*
G01*
X133130100Y-87697400D02*
X133130100Y-88067400D01*
G75*
G02*
X132995100Y-88202400I-135000J0D01*
G01*
X132725100Y-88202400D01*
G75*
G02*
X132590100Y-88067400I0J135000D01*
G01*
X132590100Y-87697400D01*
G75*
G02*
X132725100Y-87562400I135000J0D01*
G01*
X132995100Y-87562400D01*
G75*
G02*
X133130100Y-87697400I0J-135000D01*
G01*
G37*
G36*
G01*
X122555100Y-91162400D02*
X122185100Y-91162400D01*
G75*
G02*
X122050100Y-91027400I0J135000D01*
G01*
X122050100Y-90757400D01*
G75*
G02*
X122185100Y-90622400I135000J0D01*
G01*
X122555100Y-90622400D01*
G75*
G02*
X122690100Y-90757400I0J-135000D01*
G01*
X122690100Y-91027400D01*
G75*
G02*
X122555100Y-91162400I-135000J0D01*
G01*
G37*
G36*
G01*
X122555100Y-90142400D02*
X122185100Y-90142400D01*
G75*
G02*
X122050100Y-90007400I0J135000D01*
G01*
X122050100Y-89737400D01*
G75*
G02*
X122185100Y-89602400I135000J0D01*
G01*
X122555100Y-89602400D01*
G75*
G02*
X122690100Y-89737400I0J-135000D01*
G01*
X122690100Y-90007400D01*
G75*
G02*
X122555100Y-90142400I-135000J0D01*
G01*
G37*
D14*
X155370100Y-72382400D03*
X155370100Y-65882400D03*
X159870100Y-72382400D03*
X159870100Y-65882400D03*
X125370100Y-72382400D03*
X125370100Y-65882400D03*
X129870100Y-72382400D03*
X129870100Y-65882400D03*
D15*
X145120100Y-120637400D03*
X145120100Y-119367400D03*
X145120100Y-118097400D03*
X145120100Y-116827400D03*
X145120100Y-115557400D03*
X145120100Y-114287400D03*
X145120100Y-113017400D03*
X145120100Y-111747400D03*
X145120100Y-110477400D03*
X145120100Y-109207400D03*
X145120100Y-107937400D03*
X145120100Y-106667400D03*
X145120100Y-105397400D03*
X145120100Y-104127400D03*
D16*
X142085100Y-103032400D03*
X140815100Y-103032400D03*
X139545100Y-103032400D03*
X138275100Y-103032400D03*
X137005100Y-103032400D03*
X135735100Y-103032400D03*
X134465100Y-103032400D03*
X133195100Y-103032400D03*
X131925100Y-103032400D03*
X130655100Y-103032400D03*
D15*
X127620100Y-104127400D03*
X127620100Y-105397400D03*
X127620100Y-106667400D03*
X127620100Y-107937400D03*
X127620100Y-109207400D03*
X127620100Y-110477400D03*
X127620100Y-111747400D03*
X127620100Y-113017400D03*
X127620100Y-114287400D03*
X127620100Y-115557400D03*
X127620100Y-116827400D03*
X127620100Y-118097400D03*
X127620100Y-119367400D03*
X127620100Y-120637400D03*
D17*
X139270100Y-113772400D03*
X139270100Y-112372400D03*
X138570100Y-114472400D03*
X138570100Y-113072400D03*
X138570100Y-111672400D03*
X137870100Y-113772400D03*
D18*
X137870100Y-113072400D03*
D17*
X137870100Y-112372400D03*
X137170100Y-114472400D03*
X137170100Y-113072400D03*
X137170100Y-111672400D03*
X136470100Y-113772400D03*
X136470100Y-112372400D03*
G36*
G01*
X131820100Y-89137400D02*
X131820100Y-89437400D01*
G75*
G02*
X131670100Y-89587400I-150000J0D01*
G01*
X130020100Y-89587400D01*
G75*
G02*
X129870100Y-89437400I0J150000D01*
G01*
X129870100Y-89137400D01*
G75*
G02*
X130020100Y-88987400I150000J0D01*
G01*
X131670100Y-88987400D01*
G75*
G02*
X131820100Y-89137400I0J-150000D01*
G01*
G37*
G36*
G01*
X131820100Y-87867400D02*
X131820100Y-88167400D01*
G75*
G02*
X131670100Y-88317400I-150000J0D01*
G01*
X130020100Y-88317400D01*
G75*
G02*
X129870100Y-88167400I0J150000D01*
G01*
X129870100Y-87867400D01*
G75*
G02*
X130020100Y-87717400I150000J0D01*
G01*
X131670100Y-87717400D01*
G75*
G02*
X131820100Y-87867400I0J-150000D01*
G01*
G37*
G36*
G01*
X131820100Y-86597400D02*
X131820100Y-86897400D01*
G75*
G02*
X131670100Y-87047400I-150000J0D01*
G01*
X130020100Y-87047400D01*
G75*
G02*
X129870100Y-86897400I0J150000D01*
G01*
X129870100Y-86597400D01*
G75*
G02*
X130020100Y-86447400I150000J0D01*
G01*
X131670100Y-86447400D01*
G75*
G02*
X131820100Y-86597400I0J-150000D01*
G01*
G37*
G36*
G01*
X131820100Y-85327400D02*
X131820100Y-85627400D01*
G75*
G02*
X131670100Y-85777400I-150000J0D01*
G01*
X130020100Y-85777400D01*
G75*
G02*
X129870100Y-85627400I0J150000D01*
G01*
X129870100Y-85327400D01*
G75*
G02*
X130020100Y-85177400I150000J0D01*
G01*
X131670100Y-85177400D01*
G75*
G02*
X131820100Y-85327400I0J-150000D01*
G01*
G37*
G36*
G01*
X126870100Y-85327400D02*
X126870100Y-85627400D01*
G75*
G02*
X126720100Y-85777400I-150000J0D01*
G01*
X125070100Y-85777400D01*
G75*
G02*
X124920100Y-85627400I0J150000D01*
G01*
X124920100Y-85327400D01*
G75*
G02*
X125070100Y-85177400I150000J0D01*
G01*
X126720100Y-85177400D01*
G75*
G02*
X126870100Y-85327400I0J-150000D01*
G01*
G37*
G36*
G01*
X126870100Y-86597400D02*
X126870100Y-86897400D01*
G75*
G02*
X126720100Y-87047400I-150000J0D01*
G01*
X125070100Y-87047400D01*
G75*
G02*
X124920100Y-86897400I0J150000D01*
G01*
X124920100Y-86597400D01*
G75*
G02*
X125070100Y-86447400I150000J0D01*
G01*
X126720100Y-86447400D01*
G75*
G02*
X126870100Y-86597400I0J-150000D01*
G01*
G37*
G36*
G01*
X126870100Y-87867400D02*
X126870100Y-88167400D01*
G75*
G02*
X126720100Y-88317400I-150000J0D01*
G01*
X125070100Y-88317400D01*
G75*
G02*
X124920100Y-88167400I0J150000D01*
G01*
X124920100Y-87867400D01*
G75*
G02*
X125070100Y-87717400I150000J0D01*
G01*
X126720100Y-87717400D01*
G75*
G02*
X126870100Y-87867400I0J-150000D01*
G01*
G37*
G36*
G01*
X126870100Y-89137400D02*
X126870100Y-89437400D01*
G75*
G02*
X126720100Y-89587400I-150000J0D01*
G01*
X125070100Y-89587400D01*
G75*
G02*
X124920100Y-89437400I0J150000D01*
G01*
X124920100Y-89137400D01*
G75*
G02*
X125070100Y-88987400I150000J0D01*
G01*
X126720100Y-88987400D01*
G75*
G02*
X126870100Y-89137400I0J-150000D01*
G01*
G37*
G36*
G01*
X153595100Y-75126150D02*
X153595100Y-75638650D01*
G75*
G02*
X153376350Y-75857400I-218750J0D01*
G01*
X152938850Y-75857400D01*
G75*
G02*
X152720100Y-75638650I0J218750D01*
G01*
X152720100Y-75126150D01*
G75*
G02*
X152938850Y-74907400I218750J0D01*
G01*
X153376350Y-74907400D01*
G75*
G02*
X153595100Y-75126150I0J-218750D01*
G01*
G37*
G36*
G01*
X152020100Y-75126150D02*
X152020100Y-75638650D01*
G75*
G02*
X151801350Y-75857400I-218750J0D01*
G01*
X151363850Y-75857400D01*
G75*
G02*
X151145100Y-75638650I0J218750D01*
G01*
X151145100Y-75126150D01*
G75*
G02*
X151363850Y-74907400I218750J0D01*
G01*
X151801350Y-74907400D01*
G75*
G02*
X152020100Y-75126150I0J-218750D01*
G01*
G37*
G36*
G01*
X153595100Y-76876150D02*
X153595100Y-77388650D01*
G75*
G02*
X153376350Y-77607400I-218750J0D01*
G01*
X152938850Y-77607400D01*
G75*
G02*
X152720100Y-77388650I0J218750D01*
G01*
X152720100Y-76876150D01*
G75*
G02*
X152938850Y-76657400I218750J0D01*
G01*
X153376350Y-76657400D01*
G75*
G02*
X153595100Y-76876150I0J-218750D01*
G01*
G37*
G36*
G01*
X152020100Y-76876150D02*
X152020100Y-77388650D01*
G75*
G02*
X151801350Y-77607400I-218750J0D01*
G01*
X151363850Y-77607400D01*
G75*
G02*
X151145100Y-77388650I0J218750D01*
G01*
X151145100Y-76876150D01*
G75*
G02*
X151363850Y-76657400I218750J0D01*
G01*
X151801350Y-76657400D01*
G75*
G02*
X152020100Y-76876150I0J-218750D01*
G01*
G37*
G36*
G01*
X153595100Y-78626150D02*
X153595100Y-79138650D01*
G75*
G02*
X153376350Y-79357400I-218750J0D01*
G01*
X152938850Y-79357400D01*
G75*
G02*
X152720100Y-79138650I0J218750D01*
G01*
X152720100Y-78626150D01*
G75*
G02*
X152938850Y-78407400I218750J0D01*
G01*
X153376350Y-78407400D01*
G75*
G02*
X153595100Y-78626150I0J-218750D01*
G01*
G37*
G36*
G01*
X152020100Y-78626150D02*
X152020100Y-79138650D01*
G75*
G02*
X151801350Y-79357400I-218750J0D01*
G01*
X151363850Y-79357400D01*
G75*
G02*
X151145100Y-79138650I0J218750D01*
G01*
X151145100Y-78626150D01*
G75*
G02*
X151363850Y-78407400I218750J0D01*
G01*
X151801350Y-78407400D01*
G75*
G02*
X152020100Y-78626150I0J-218750D01*
G01*
G37*
G36*
G01*
X153595100Y-80376150D02*
X153595100Y-80888650D01*
G75*
G02*
X153376350Y-81107400I-218750J0D01*
G01*
X152938850Y-81107400D01*
G75*
G02*
X152720100Y-80888650I0J218750D01*
G01*
X152720100Y-80376150D01*
G75*
G02*
X152938850Y-80157400I218750J0D01*
G01*
X153376350Y-80157400D01*
G75*
G02*
X153595100Y-80376150I0J-218750D01*
G01*
G37*
G36*
G01*
X152020100Y-80376150D02*
X152020100Y-80888650D01*
G75*
G02*
X151801350Y-81107400I-218750J0D01*
G01*
X151363850Y-81107400D01*
G75*
G02*
X151145100Y-80888650I0J218750D01*
G01*
X151145100Y-80376150D01*
G75*
G02*
X151363850Y-80157400I218750J0D01*
G01*
X151801350Y-80157400D01*
G75*
G02*
X152020100Y-80376150I0J-218750D01*
G01*
G37*
G36*
G01*
X153595100Y-82126150D02*
X153595100Y-82638650D01*
G75*
G02*
X153376350Y-82857400I-218750J0D01*
G01*
X152938850Y-82857400D01*
G75*
G02*
X152720100Y-82638650I0J218750D01*
G01*
X152720100Y-82126150D01*
G75*
G02*
X152938850Y-81907400I218750J0D01*
G01*
X153376350Y-81907400D01*
G75*
G02*
X153595100Y-82126150I0J-218750D01*
G01*
G37*
G36*
G01*
X152020100Y-82126150D02*
X152020100Y-82638650D01*
G75*
G02*
X151801350Y-82857400I-218750J0D01*
G01*
X151363850Y-82857400D01*
G75*
G02*
X151145100Y-82638650I0J218750D01*
G01*
X151145100Y-82126150D01*
G75*
G02*
X151363850Y-81907400I218750J0D01*
G01*
X151801350Y-81907400D01*
G75*
G02*
X152020100Y-82126150I0J-218750D01*
G01*
G37*
G36*
G01*
X153595100Y-83876150D02*
X153595100Y-84388650D01*
G75*
G02*
X153376350Y-84607400I-218750J0D01*
G01*
X152938850Y-84607400D01*
G75*
G02*
X152720100Y-84388650I0J218750D01*
G01*
X152720100Y-83876150D01*
G75*
G02*
X152938850Y-83657400I218750J0D01*
G01*
X153376350Y-83657400D01*
G75*
G02*
X153595100Y-83876150I0J-218750D01*
G01*
G37*
G36*
G01*
X152020100Y-83876150D02*
X152020100Y-84388650D01*
G75*
G02*
X151801350Y-84607400I-218750J0D01*
G01*
X151363850Y-84607400D01*
G75*
G02*
X151145100Y-84388650I0J218750D01*
G01*
X151145100Y-83876150D01*
G75*
G02*
X151363850Y-83657400I218750J0D01*
G01*
X151801350Y-83657400D01*
G75*
G02*
X152020100Y-83876150I0J-218750D01*
G01*
G37*
G36*
G01*
X153595100Y-85626150D02*
X153595100Y-86138650D01*
G75*
G02*
X153376350Y-86357400I-218750J0D01*
G01*
X152938850Y-86357400D01*
G75*
G02*
X152720100Y-86138650I0J218750D01*
G01*
X152720100Y-85626150D01*
G75*
G02*
X152938850Y-85407400I218750J0D01*
G01*
X153376350Y-85407400D01*
G75*
G02*
X153595100Y-85626150I0J-218750D01*
G01*
G37*
G36*
G01*
X152020100Y-85626150D02*
X152020100Y-86138650D01*
G75*
G02*
X151801350Y-86357400I-218750J0D01*
G01*
X151363850Y-86357400D01*
G75*
G02*
X151145100Y-86138650I0J218750D01*
G01*
X151145100Y-85626150D01*
G75*
G02*
X151363850Y-85407400I218750J0D01*
G01*
X151801350Y-85407400D01*
G75*
G02*
X152020100Y-85626150I0J-218750D01*
G01*
G37*
G36*
G01*
X153595100Y-87376150D02*
X153595100Y-87888650D01*
G75*
G02*
X153376350Y-88107400I-218750J0D01*
G01*
X152938850Y-88107400D01*
G75*
G02*
X152720100Y-87888650I0J218750D01*
G01*
X152720100Y-87376150D01*
G75*
G02*
X152938850Y-87157400I218750J0D01*
G01*
X153376350Y-87157400D01*
G75*
G02*
X153595100Y-87376150I0J-218750D01*
G01*
G37*
G36*
G01*
X152020100Y-87376150D02*
X152020100Y-87888650D01*
G75*
G02*
X151801350Y-88107400I-218750J0D01*
G01*
X151363850Y-88107400D01*
G75*
G02*
X151145100Y-87888650I0J218750D01*
G01*
X151145100Y-87376150D01*
G75*
G02*
X151363850Y-87157400I218750J0D01*
G01*
X151801350Y-87157400D01*
G75*
G02*
X152020100Y-87376150I0J-218750D01*
G01*
G37*
G36*
G01*
X153595100Y-89126150D02*
X153595100Y-89638650D01*
G75*
G02*
X153376350Y-89857400I-218750J0D01*
G01*
X152938850Y-89857400D01*
G75*
G02*
X152720100Y-89638650I0J218750D01*
G01*
X152720100Y-89126150D01*
G75*
G02*
X152938850Y-88907400I218750J0D01*
G01*
X153376350Y-88907400D01*
G75*
G02*
X153595100Y-89126150I0J-218750D01*
G01*
G37*
G36*
G01*
X152020100Y-89126150D02*
X152020100Y-89638650D01*
G75*
G02*
X151801350Y-89857400I-218750J0D01*
G01*
X151363850Y-89857400D01*
G75*
G02*
X151145100Y-89638650I0J218750D01*
G01*
X151145100Y-89126150D01*
G75*
G02*
X151363850Y-88907400I218750J0D01*
G01*
X151801350Y-88907400D01*
G75*
G02*
X152020100Y-89126150I0J-218750D01*
G01*
G37*
G36*
G01*
X153595100Y-90876150D02*
X153595100Y-91388650D01*
G75*
G02*
X153376350Y-91607400I-218750J0D01*
G01*
X152938850Y-91607400D01*
G75*
G02*
X152720100Y-91388650I0J218750D01*
G01*
X152720100Y-90876150D01*
G75*
G02*
X152938850Y-90657400I218750J0D01*
G01*
X153376350Y-90657400D01*
G75*
G02*
X153595100Y-90876150I0J-218750D01*
G01*
G37*
G36*
G01*
X152020100Y-90876150D02*
X152020100Y-91388650D01*
G75*
G02*
X151801350Y-91607400I-218750J0D01*
G01*
X151363850Y-91607400D01*
G75*
G02*
X151145100Y-91388650I0J218750D01*
G01*
X151145100Y-90876150D01*
G75*
G02*
X151363850Y-90657400I218750J0D01*
G01*
X151801350Y-90657400D01*
G75*
G02*
X152020100Y-90876150I0J-218750D01*
G01*
G37*
G36*
G01*
X153595100Y-92626150D02*
X153595100Y-93138650D01*
G75*
G02*
X153376350Y-93357400I-218750J0D01*
G01*
X152938850Y-93357400D01*
G75*
G02*
X152720100Y-93138650I0J218750D01*
G01*
X152720100Y-92626150D01*
G75*
G02*
X152938850Y-92407400I218750J0D01*
G01*
X153376350Y-92407400D01*
G75*
G02*
X153595100Y-92626150I0J-218750D01*
G01*
G37*
G36*
G01*
X152020100Y-92626150D02*
X152020100Y-93138650D01*
G75*
G02*
X151801350Y-93357400I-218750J0D01*
G01*
X151363850Y-93357400D01*
G75*
G02*
X151145100Y-93138650I0J218750D01*
G01*
X151145100Y-92626150D01*
G75*
G02*
X151363850Y-92407400I218750J0D01*
G01*
X151801350Y-92407400D01*
G75*
G02*
X152020100Y-92626150I0J-218750D01*
G01*
G37*
G36*
G01*
X153595100Y-94376150D02*
X153595100Y-94888650D01*
G75*
G02*
X153376350Y-95107400I-218750J0D01*
G01*
X152938850Y-95107400D01*
G75*
G02*
X152720100Y-94888650I0J218750D01*
G01*
X152720100Y-94376150D01*
G75*
G02*
X152938850Y-94157400I218750J0D01*
G01*
X153376350Y-94157400D01*
G75*
G02*
X153595100Y-94376150I0J-218750D01*
G01*
G37*
G36*
G01*
X152020100Y-94376150D02*
X152020100Y-94888650D01*
G75*
G02*
X151801350Y-95107400I-218750J0D01*
G01*
X151363850Y-95107400D01*
G75*
G02*
X151145100Y-94888650I0J218750D01*
G01*
X151145100Y-94376150D01*
G75*
G02*
X151363850Y-94157400I218750J0D01*
G01*
X151801350Y-94157400D01*
G75*
G02*
X152020100Y-94376150I0J-218750D01*
G01*
G37*
G36*
G01*
X153595100Y-96126150D02*
X153595100Y-96638650D01*
G75*
G02*
X153376350Y-96857400I-218750J0D01*
G01*
X152938850Y-96857400D01*
G75*
G02*
X152720100Y-96638650I0J218750D01*
G01*
X152720100Y-96126150D01*
G75*
G02*
X152938850Y-95907400I218750J0D01*
G01*
X153376350Y-95907400D01*
G75*
G02*
X153595100Y-96126150I0J-218750D01*
G01*
G37*
G36*
G01*
X152020100Y-96126150D02*
X152020100Y-96638650D01*
G75*
G02*
X151801350Y-96857400I-218750J0D01*
G01*
X151363850Y-96857400D01*
G75*
G02*
X151145100Y-96638650I0J218750D01*
G01*
X151145100Y-96126150D01*
G75*
G02*
X151363850Y-95907400I218750J0D01*
G01*
X151801350Y-95907400D01*
G75*
G02*
X152020100Y-96126150I0J-218750D01*
G01*
G37*
G36*
G01*
X154590100Y-75567400D02*
X154590100Y-75197400D01*
G75*
G02*
X154725100Y-75062400I135000J0D01*
G01*
X154995100Y-75062400D01*
G75*
G02*
X155130100Y-75197400I0J-135000D01*
G01*
X155130100Y-75567400D01*
G75*
G02*
X154995100Y-75702400I-135000J0D01*
G01*
X154725100Y-75702400D01*
G75*
G02*
X154590100Y-75567400I0J135000D01*
G01*
G37*
G36*
G01*
X155610100Y-75567400D02*
X155610100Y-75197400D01*
G75*
G02*
X155745100Y-75062400I135000J0D01*
G01*
X156015100Y-75062400D01*
G75*
G02*
X156150100Y-75197400I0J-135000D01*
G01*
X156150100Y-75567400D01*
G75*
G02*
X156015100Y-75702400I-135000J0D01*
G01*
X155745100Y-75702400D01*
G75*
G02*
X155610100Y-75567400I0J135000D01*
G01*
G37*
G36*
G01*
X154590100Y-77317400D02*
X154590100Y-76947400D01*
G75*
G02*
X154725100Y-76812400I135000J0D01*
G01*
X154995100Y-76812400D01*
G75*
G02*
X155130100Y-76947400I0J-135000D01*
G01*
X155130100Y-77317400D01*
G75*
G02*
X154995100Y-77452400I-135000J0D01*
G01*
X154725100Y-77452400D01*
G75*
G02*
X154590100Y-77317400I0J135000D01*
G01*
G37*
G36*
G01*
X155610100Y-77317400D02*
X155610100Y-76947400D01*
G75*
G02*
X155745100Y-76812400I135000J0D01*
G01*
X156015100Y-76812400D01*
G75*
G02*
X156150100Y-76947400I0J-135000D01*
G01*
X156150100Y-77317400D01*
G75*
G02*
X156015100Y-77452400I-135000J0D01*
G01*
X155745100Y-77452400D01*
G75*
G02*
X155610100Y-77317400I0J135000D01*
G01*
G37*
G36*
G01*
X154590100Y-79067400D02*
X154590100Y-78697400D01*
G75*
G02*
X154725100Y-78562400I135000J0D01*
G01*
X154995100Y-78562400D01*
G75*
G02*
X155130100Y-78697400I0J-135000D01*
G01*
X155130100Y-79067400D01*
G75*
G02*
X154995100Y-79202400I-135000J0D01*
G01*
X154725100Y-79202400D01*
G75*
G02*
X154590100Y-79067400I0J135000D01*
G01*
G37*
G36*
G01*
X155610100Y-79067400D02*
X155610100Y-78697400D01*
G75*
G02*
X155745100Y-78562400I135000J0D01*
G01*
X156015100Y-78562400D01*
G75*
G02*
X156150100Y-78697400I0J-135000D01*
G01*
X156150100Y-79067400D01*
G75*
G02*
X156015100Y-79202400I-135000J0D01*
G01*
X155745100Y-79202400D01*
G75*
G02*
X155610100Y-79067400I0J135000D01*
G01*
G37*
G36*
G01*
X154590100Y-80817400D02*
X154590100Y-80447400D01*
G75*
G02*
X154725100Y-80312400I135000J0D01*
G01*
X154995100Y-80312400D01*
G75*
G02*
X155130100Y-80447400I0J-135000D01*
G01*
X155130100Y-80817400D01*
G75*
G02*
X154995100Y-80952400I-135000J0D01*
G01*
X154725100Y-80952400D01*
G75*
G02*
X154590100Y-80817400I0J135000D01*
G01*
G37*
G36*
G01*
X155610100Y-80817400D02*
X155610100Y-80447400D01*
G75*
G02*
X155745100Y-80312400I135000J0D01*
G01*
X156015100Y-80312400D01*
G75*
G02*
X156150100Y-80447400I0J-135000D01*
G01*
X156150100Y-80817400D01*
G75*
G02*
X156015100Y-80952400I-135000J0D01*
G01*
X155745100Y-80952400D01*
G75*
G02*
X155610100Y-80817400I0J135000D01*
G01*
G37*
G36*
G01*
X154590100Y-82567400D02*
X154590100Y-82197400D01*
G75*
G02*
X154725100Y-82062400I135000J0D01*
G01*
X154995100Y-82062400D01*
G75*
G02*
X155130100Y-82197400I0J-135000D01*
G01*
X155130100Y-82567400D01*
G75*
G02*
X154995100Y-82702400I-135000J0D01*
G01*
X154725100Y-82702400D01*
G75*
G02*
X154590100Y-82567400I0J135000D01*
G01*
G37*
G36*
G01*
X155610100Y-82567400D02*
X155610100Y-82197400D01*
G75*
G02*
X155745100Y-82062400I135000J0D01*
G01*
X156015100Y-82062400D01*
G75*
G02*
X156150100Y-82197400I0J-135000D01*
G01*
X156150100Y-82567400D01*
G75*
G02*
X156015100Y-82702400I-135000J0D01*
G01*
X155745100Y-82702400D01*
G75*
G02*
X155610100Y-82567400I0J135000D01*
G01*
G37*
G36*
G01*
X154590100Y-84317400D02*
X154590100Y-83947400D01*
G75*
G02*
X154725100Y-83812400I135000J0D01*
G01*
X154995100Y-83812400D01*
G75*
G02*
X155130100Y-83947400I0J-135000D01*
G01*
X155130100Y-84317400D01*
G75*
G02*
X154995100Y-84452400I-135000J0D01*
G01*
X154725100Y-84452400D01*
G75*
G02*
X154590100Y-84317400I0J135000D01*
G01*
G37*
G36*
G01*
X155610100Y-84317400D02*
X155610100Y-83947400D01*
G75*
G02*
X155745100Y-83812400I135000J0D01*
G01*
X156015100Y-83812400D01*
G75*
G02*
X156150100Y-83947400I0J-135000D01*
G01*
X156150100Y-84317400D01*
G75*
G02*
X156015100Y-84452400I-135000J0D01*
G01*
X155745100Y-84452400D01*
G75*
G02*
X155610100Y-84317400I0J135000D01*
G01*
G37*
G36*
G01*
X154590100Y-86067400D02*
X154590100Y-85697400D01*
G75*
G02*
X154725100Y-85562400I135000J0D01*
G01*
X154995100Y-85562400D01*
G75*
G02*
X155130100Y-85697400I0J-135000D01*
G01*
X155130100Y-86067400D01*
G75*
G02*
X154995100Y-86202400I-135000J0D01*
G01*
X154725100Y-86202400D01*
G75*
G02*
X154590100Y-86067400I0J135000D01*
G01*
G37*
G36*
G01*
X155610100Y-86067400D02*
X155610100Y-85697400D01*
G75*
G02*
X155745100Y-85562400I135000J0D01*
G01*
X156015100Y-85562400D01*
G75*
G02*
X156150100Y-85697400I0J-135000D01*
G01*
X156150100Y-86067400D01*
G75*
G02*
X156015100Y-86202400I-135000J0D01*
G01*
X155745100Y-86202400D01*
G75*
G02*
X155610100Y-86067400I0J135000D01*
G01*
G37*
G36*
G01*
X154590100Y-87817400D02*
X154590100Y-87447400D01*
G75*
G02*
X154725100Y-87312400I135000J0D01*
G01*
X154995100Y-87312400D01*
G75*
G02*
X155130100Y-87447400I0J-135000D01*
G01*
X155130100Y-87817400D01*
G75*
G02*
X154995100Y-87952400I-135000J0D01*
G01*
X154725100Y-87952400D01*
G75*
G02*
X154590100Y-87817400I0J135000D01*
G01*
G37*
G36*
G01*
X155610100Y-87817400D02*
X155610100Y-87447400D01*
G75*
G02*
X155745100Y-87312400I135000J0D01*
G01*
X156015100Y-87312400D01*
G75*
G02*
X156150100Y-87447400I0J-135000D01*
G01*
X156150100Y-87817400D01*
G75*
G02*
X156015100Y-87952400I-135000J0D01*
G01*
X155745100Y-87952400D01*
G75*
G02*
X155610100Y-87817400I0J135000D01*
G01*
G37*
G36*
G01*
X154590100Y-89567400D02*
X154590100Y-89197400D01*
G75*
G02*
X154725100Y-89062400I135000J0D01*
G01*
X154995100Y-89062400D01*
G75*
G02*
X155130100Y-89197400I0J-135000D01*
G01*
X155130100Y-89567400D01*
G75*
G02*
X154995100Y-89702400I-135000J0D01*
G01*
X154725100Y-89702400D01*
G75*
G02*
X154590100Y-89567400I0J135000D01*
G01*
G37*
G36*
G01*
X155610100Y-89567400D02*
X155610100Y-89197400D01*
G75*
G02*
X155745100Y-89062400I135000J0D01*
G01*
X156015100Y-89062400D01*
G75*
G02*
X156150100Y-89197400I0J-135000D01*
G01*
X156150100Y-89567400D01*
G75*
G02*
X156015100Y-89702400I-135000J0D01*
G01*
X155745100Y-89702400D01*
G75*
G02*
X155610100Y-89567400I0J135000D01*
G01*
G37*
G36*
G01*
X154590100Y-91317400D02*
X154590100Y-90947400D01*
G75*
G02*
X154725100Y-90812400I135000J0D01*
G01*
X154995100Y-90812400D01*
G75*
G02*
X155130100Y-90947400I0J-135000D01*
G01*
X155130100Y-91317400D01*
G75*
G02*
X154995100Y-91452400I-135000J0D01*
G01*
X154725100Y-91452400D01*
G75*
G02*
X154590100Y-91317400I0J135000D01*
G01*
G37*
G36*
G01*
X155610100Y-91317400D02*
X155610100Y-90947400D01*
G75*
G02*
X155745100Y-90812400I135000J0D01*
G01*
X156015100Y-90812400D01*
G75*
G02*
X156150100Y-90947400I0J-135000D01*
G01*
X156150100Y-91317400D01*
G75*
G02*
X156015100Y-91452400I-135000J0D01*
G01*
X155745100Y-91452400D01*
G75*
G02*
X155610100Y-91317400I0J135000D01*
G01*
G37*
G36*
G01*
X154590100Y-93067400D02*
X154590100Y-92697400D01*
G75*
G02*
X154725100Y-92562400I135000J0D01*
G01*
X154995100Y-92562400D01*
G75*
G02*
X155130100Y-92697400I0J-135000D01*
G01*
X155130100Y-93067400D01*
G75*
G02*
X154995100Y-93202400I-135000J0D01*
G01*
X154725100Y-93202400D01*
G75*
G02*
X154590100Y-93067400I0J135000D01*
G01*
G37*
G36*
G01*
X155610100Y-93067400D02*
X155610100Y-92697400D01*
G75*
G02*
X155745100Y-92562400I135000J0D01*
G01*
X156015100Y-92562400D01*
G75*
G02*
X156150100Y-92697400I0J-135000D01*
G01*
X156150100Y-93067400D01*
G75*
G02*
X156015100Y-93202400I-135000J0D01*
G01*
X155745100Y-93202400D01*
G75*
G02*
X155610100Y-93067400I0J135000D01*
G01*
G37*
G36*
G01*
X154590100Y-94817400D02*
X154590100Y-94447400D01*
G75*
G02*
X154725100Y-94312400I135000J0D01*
G01*
X154995100Y-94312400D01*
G75*
G02*
X155130100Y-94447400I0J-135000D01*
G01*
X155130100Y-94817400D01*
G75*
G02*
X154995100Y-94952400I-135000J0D01*
G01*
X154725100Y-94952400D01*
G75*
G02*
X154590100Y-94817400I0J135000D01*
G01*
G37*
G36*
G01*
X155610100Y-94817400D02*
X155610100Y-94447400D01*
G75*
G02*
X155745100Y-94312400I135000J0D01*
G01*
X156015100Y-94312400D01*
G75*
G02*
X156150100Y-94447400I0J-135000D01*
G01*
X156150100Y-94817400D01*
G75*
G02*
X156015100Y-94952400I-135000J0D01*
G01*
X155745100Y-94952400D01*
G75*
G02*
X155610100Y-94817400I0J135000D01*
G01*
G37*
G36*
G01*
X154590100Y-96567400D02*
X154590100Y-96197400D01*
G75*
G02*
X154725100Y-96062400I135000J0D01*
G01*
X154995100Y-96062400D01*
G75*
G02*
X155130100Y-96197400I0J-135000D01*
G01*
X155130100Y-96567400D01*
G75*
G02*
X154995100Y-96702400I-135000J0D01*
G01*
X154725100Y-96702400D01*
G75*
G02*
X154590100Y-96567400I0J135000D01*
G01*
G37*
G36*
G01*
X155610100Y-96567400D02*
X155610100Y-96197400D01*
G75*
G02*
X155745100Y-96062400I135000J0D01*
G01*
X156015100Y-96062400D01*
G75*
G02*
X156150100Y-96197400I0J-135000D01*
G01*
X156150100Y-96567400D01*
G75*
G02*
X156015100Y-96702400I-135000J0D01*
G01*
X155745100Y-96702400D01*
G75*
G02*
X155610100Y-96567400I0J135000D01*
G01*
G37*
G36*
G01*
X134150100Y-88947400D02*
X134150100Y-89317400D01*
G75*
G02*
X134015100Y-89452400I-135000J0D01*
G01*
X133745100Y-89452400D01*
G75*
G02*
X133610100Y-89317400I0J135000D01*
G01*
X133610100Y-88947400D01*
G75*
G02*
X133745100Y-88812400I135000J0D01*
G01*
X134015100Y-88812400D01*
G75*
G02*
X134150100Y-88947400I0J-135000D01*
G01*
G37*
G36*
G01*
X133130100Y-88947400D02*
X133130100Y-89317400D01*
G75*
G02*
X132995100Y-89452400I-135000J0D01*
G01*
X132725100Y-89452400D01*
G75*
G02*
X132590100Y-89317400I0J135000D01*
G01*
X132590100Y-88947400D01*
G75*
G02*
X132725100Y-88812400I135000J0D01*
G01*
X132995100Y-88812400D01*
G75*
G02*
X133130100Y-88947400I0J-135000D01*
G01*
G37*
G36*
X130620100Y-92232400D02*
G01*
X130620100Y-91732400D01*
X130624378Y-91732400D01*
X130624378Y-91667137D01*
X130658160Y-91541058D01*
X130723423Y-91428019D01*
X130815719Y-91335723D01*
X130928758Y-91270460D01*
X131054837Y-91236678D01*
X131120100Y-91236678D01*
X131120100Y-91232400D01*
X131620100Y-91232400D01*
X131620100Y-91236678D01*
X131685363Y-91236678D01*
X131811442Y-91270460D01*
X131924481Y-91335723D01*
X132016777Y-91428019D01*
X132082040Y-91541058D01*
X132115822Y-91667137D01*
X132115822Y-91732400D01*
X132120100Y-91732400D01*
X132120100Y-92232400D01*
X130620100Y-92232400D01*
G37*
G36*
X132115822Y-93032400D02*
G01*
X132115822Y-93097663D01*
X132082040Y-93223742D01*
X132016777Y-93336781D01*
X131924481Y-93429077D01*
X131811442Y-93494340D01*
X131685363Y-93528122D01*
X131620100Y-93528122D01*
X131620100Y-93532400D01*
X131120100Y-93532400D01*
X131120100Y-93528122D01*
X131054837Y-93528122D01*
X130928758Y-93494340D01*
X130815719Y-93429077D01*
X130723423Y-93336781D01*
X130658160Y-93223742D01*
X130624378Y-93097663D01*
X130624378Y-93032400D01*
X130620100Y-93032400D01*
X130620100Y-92532400D01*
X132120100Y-92532400D01*
X132120100Y-93032400D01*
X132115822Y-93032400D01*
G37*
G36*
G01*
X155625100Y-102182400D02*
X155925100Y-102182400D01*
G75*
G02*
X156075100Y-102332400I0J-150000D01*
G01*
X156075100Y-103982400D01*
G75*
G02*
X155925100Y-104132400I-150000J0D01*
G01*
X155625100Y-104132400D01*
G75*
G02*
X155475100Y-103982400I0J150000D01*
G01*
X155475100Y-102332400D01*
G75*
G02*
X155625100Y-102182400I150000J0D01*
G01*
G37*
G36*
G01*
X154355100Y-102182400D02*
X154655100Y-102182400D01*
G75*
G02*
X154805100Y-102332400I0J-150000D01*
G01*
X154805100Y-103982400D01*
G75*
G02*
X154655100Y-104132400I-150000J0D01*
G01*
X154355100Y-104132400D01*
G75*
G02*
X154205100Y-103982400I0J150000D01*
G01*
X154205100Y-102332400D01*
G75*
G02*
X154355100Y-102182400I150000J0D01*
G01*
G37*
G36*
G01*
X153085100Y-102182400D02*
X153385100Y-102182400D01*
G75*
G02*
X153535100Y-102332400I0J-150000D01*
G01*
X153535100Y-103982400D01*
G75*
G02*
X153385100Y-104132400I-150000J0D01*
G01*
X153085100Y-104132400D01*
G75*
G02*
X152935100Y-103982400I0J150000D01*
G01*
X152935100Y-102332400D01*
G75*
G02*
X153085100Y-102182400I150000J0D01*
G01*
G37*
G36*
G01*
X151815100Y-102182400D02*
X152115100Y-102182400D01*
G75*
G02*
X152265100Y-102332400I0J-150000D01*
G01*
X152265100Y-103982400D01*
G75*
G02*
X152115100Y-104132400I-150000J0D01*
G01*
X151815100Y-104132400D01*
G75*
G02*
X151665100Y-103982400I0J150000D01*
G01*
X151665100Y-102332400D01*
G75*
G02*
X151815100Y-102182400I150000J0D01*
G01*
G37*
G36*
G01*
X151815100Y-107132400D02*
X152115100Y-107132400D01*
G75*
G02*
X152265100Y-107282400I0J-150000D01*
G01*
X152265100Y-108932400D01*
G75*
G02*
X152115100Y-109082400I-150000J0D01*
G01*
X151815100Y-109082400D01*
G75*
G02*
X151665100Y-108932400I0J150000D01*
G01*
X151665100Y-107282400D01*
G75*
G02*
X151815100Y-107132400I150000J0D01*
G01*
G37*
G36*
G01*
X153085100Y-107132400D02*
X153385100Y-107132400D01*
G75*
G02*
X153535100Y-107282400I0J-150000D01*
G01*
X153535100Y-108932400D01*
G75*
G02*
X153385100Y-109082400I-150000J0D01*
G01*
X153085100Y-109082400D01*
G75*
G02*
X152935100Y-108932400I0J150000D01*
G01*
X152935100Y-107282400D01*
G75*
G02*
X153085100Y-107132400I150000J0D01*
G01*
G37*
G36*
G01*
X154355100Y-107132400D02*
X154655100Y-107132400D01*
G75*
G02*
X154805100Y-107282400I0J-150000D01*
G01*
X154805100Y-108932400D01*
G75*
G02*
X154655100Y-109082400I-150000J0D01*
G01*
X154355100Y-109082400D01*
G75*
G02*
X154205100Y-108932400I0J150000D01*
G01*
X154205100Y-107282400D01*
G75*
G02*
X154355100Y-107132400I150000J0D01*
G01*
G37*
G36*
G01*
X155625100Y-107132400D02*
X155925100Y-107132400D01*
G75*
G02*
X156075100Y-107282400I0J-150000D01*
G01*
X156075100Y-108932400D01*
G75*
G02*
X155925100Y-109082400I-150000J0D01*
G01*
X155625100Y-109082400D01*
G75*
G02*
X155475100Y-108932400I0J150000D01*
G01*
X155475100Y-107282400D01*
G75*
G02*
X155625100Y-107132400I150000J0D01*
G01*
G37*
D19*
X116267500Y-53632400D03*
X116267500Y-56172400D03*
G36*
G01*
X117957499Y-52532400D02*
X119657501Y-52532400D01*
G75*
G02*
X119907500Y-52782399I0J-249999D01*
G01*
X119907500Y-54482401D01*
G75*
G02*
X119657501Y-54732400I-249999J0D01*
G01*
X117957499Y-54732400D01*
G75*
G02*
X117707500Y-54482401I0J249999D01*
G01*
X117707500Y-52782399D01*
G75*
G02*
X117957499Y-52532400I249999J0D01*
G01*
G37*
D20*
X118807500Y-56172400D03*
D14*
X126500000Y-57132400D03*
X129040000Y-57132400D03*
X131580000Y-57132400D03*
G36*
G01*
X132720100Y-46282399D02*
X132720100Y-47982401D01*
G75*
G02*
X132470101Y-48232400I-249999J0D01*
G01*
X130770099Y-48232400D01*
G75*
G02*
X130520100Y-47982401I0J249999D01*
G01*
X130520100Y-46282399D01*
G75*
G02*
X130770099Y-46032400I249999J0D01*
G01*
X132470101Y-46032400D01*
G75*
G02*
X132720100Y-46282399I0J-249999D01*
G01*
G37*
D20*
X121460100Y-47132400D03*
M02*
