G04 #@! TF.GenerationSoftware,KiCad,Pcbnew,9.0.6+1*
G04 #@! TF.CreationDate,2025-12-05T21:37:57+00:00*
G04 #@! TF.ProjectId,com4bbb,636f6d34-6262-4622-9e6b-696361645f70,0.2*
G04 #@! TF.SameCoordinates,Original*
G04 #@! TF.FileFunction,Soldermask,Bot*
G04 #@! TF.FilePolarity,Negative*
%FSLAX46Y46*%
G04 Gerber Fmt 4.6, Leading zero omitted, Abs format (unit mm)*
G04 Created by KiCad (PCBNEW 9.0.6+1) date 2025-12-05 21:37:57*
%MOMM*%
%LPD*%
G01*
G04 APERTURE LIST*
%ADD10R,1.700000X1.700000*%
%ADD11C,1.700000*%
%ADD12R,1.500000X3.000000*%
%ADD13O,1.500000X3.000000*%
%ADD14C,2.000000*%
%ADD15C,2.374900*%
%ADD16C,0.990600*%
%ADD17C,1.600000*%
%ADD18O,1.700000X1.350000*%
%ADD19O,1.500000X1.100000*%
G04 APERTURE END LIST*
D10*
X164630100Y-62382400D03*
D11*
X167170100Y-62382400D03*
X164630100Y-64922400D03*
X167170100Y-64922400D03*
X164630100Y-67462400D03*
X167170100Y-67462400D03*
X164630100Y-70002400D03*
X167170100Y-70002400D03*
X164630100Y-72542400D03*
X167170100Y-72542400D03*
X164630100Y-75082400D03*
X167170100Y-75082400D03*
X164630100Y-77622400D03*
X167170100Y-77622400D03*
X164630100Y-80162400D03*
X167170100Y-80162400D03*
X164630100Y-82702400D03*
X167170100Y-82702400D03*
X164630100Y-85242400D03*
X167170100Y-85242400D03*
X164630100Y-87782400D03*
X167170100Y-87782400D03*
X164630100Y-90322400D03*
X167170100Y-90322400D03*
X164630100Y-92862400D03*
X167170100Y-92862400D03*
X164630100Y-95402400D03*
X167170100Y-95402400D03*
X164630100Y-97942400D03*
X167170100Y-97942400D03*
X164630100Y-100482400D03*
X167170100Y-100482400D03*
X164630100Y-103022400D03*
X167170100Y-103022400D03*
X164630100Y-105562400D03*
X167170100Y-105562400D03*
X164630100Y-108102400D03*
X167170100Y-108102400D03*
X164630100Y-110642400D03*
X167170100Y-110642400D03*
X164630100Y-113182400D03*
X167170100Y-113182400D03*
X164630100Y-115722400D03*
X167170100Y-115722400D03*
X164630100Y-118262400D03*
X167170100Y-118262400D03*
D10*
X116370100Y-62382400D03*
D11*
X118910100Y-62382400D03*
X116370100Y-64922400D03*
X118910100Y-64922400D03*
X116370100Y-67462400D03*
X118910100Y-67462400D03*
X116370100Y-70002400D03*
X118910100Y-70002400D03*
X116370100Y-72542400D03*
X118910100Y-72542400D03*
X116370100Y-75082400D03*
X118910100Y-75082400D03*
X116370100Y-77622400D03*
X118910100Y-77622400D03*
X116370100Y-80162400D03*
X118910100Y-80162400D03*
X116370100Y-82702400D03*
X118910100Y-82702400D03*
X116370100Y-85242400D03*
X118910100Y-85242400D03*
X116370100Y-87782400D03*
X118910100Y-87782400D03*
X116370100Y-90322400D03*
X118910100Y-90322400D03*
X116370100Y-92862400D03*
X118910100Y-92862400D03*
X116370100Y-95402400D03*
X118910100Y-95402400D03*
X116370100Y-97942400D03*
X118910100Y-97942400D03*
X116370100Y-100482400D03*
X118910100Y-100482400D03*
X116370100Y-103022400D03*
X118910100Y-103022400D03*
X116370100Y-105562400D03*
X118910100Y-105562400D03*
X116370100Y-108102400D03*
X118910100Y-108102400D03*
X116370100Y-110642400D03*
X118910100Y-110642400D03*
X116370100Y-113182400D03*
X118910100Y-113182400D03*
X116370100Y-115722400D03*
X118910100Y-115722400D03*
X116370100Y-118262400D03*
X118910100Y-118262400D03*
G36*
G01*
X150620100Y-119632399D02*
X150620100Y-117132401D01*
G75*
G02*
X150870101Y-116882400I250001J0D01*
G01*
X151870099Y-116882400D01*
G75*
G02*
X152120100Y-117132401I0J-250001D01*
G01*
X152120100Y-119632399D01*
G75*
G02*
X151870099Y-119882400I-250001J0D01*
G01*
X150870101Y-119882400D01*
G75*
G02*
X150620100Y-119632399I0J250001D01*
G01*
G37*
D12*
X151370100Y-123382400D03*
D13*
X156370100Y-118382400D03*
X156370100Y-123382400D03*
D14*
X155370100Y-72382400D03*
X155370100Y-65882400D03*
X159870100Y-72382400D03*
X159870100Y-65882400D03*
X136870100Y-72382400D03*
X136870100Y-65882400D03*
X141370100Y-72382400D03*
X141370100Y-65882400D03*
G36*
G01*
X130620100Y-51632401D02*
X130620100Y-54132399D01*
G75*
G02*
X130370099Y-54382400I-250001J0D01*
G01*
X129370101Y-54382400D01*
G75*
G02*
X129120100Y-54132399I0J250001D01*
G01*
X129120100Y-51632401D01*
G75*
G02*
X129370101Y-51382400I250001J0D01*
G01*
X130370099Y-51382400D01*
G75*
G02*
X130620100Y-51632401I0J-250001D01*
G01*
G37*
D12*
X129870100Y-47882400D03*
D13*
X124870100Y-52882400D03*
X124870100Y-47882400D03*
D14*
X130160100Y-66632400D03*
X127620100Y-66632400D03*
X125080100Y-66632400D03*
D15*
X129740100Y-104688400D03*
D16*
X129740100Y-102148400D03*
D15*
X129740100Y-99608400D03*
X124025100Y-104688400D03*
X124025100Y-99608400D03*
D16*
X122120100Y-103164400D03*
X122120100Y-101132400D03*
G36*
G01*
X135920100Y-81835051D02*
X134820100Y-81835051D01*
G75*
G02*
X134570100Y-81585051I0J250000D01*
G01*
X134570100Y-80485051D01*
G75*
G02*
X134820100Y-80235051I250000J0D01*
G01*
X135920100Y-80235051D01*
G75*
G02*
X136170100Y-80485051I0J-250000D01*
G01*
X136170100Y-81585051D01*
G75*
G02*
X135920100Y-81835051I-250000J0D01*
G01*
G37*
D17*
X135370100Y-77535051D03*
D10*
X117620100Y-54607400D03*
D11*
X117620100Y-57147400D03*
D10*
X117620100Y-47857400D03*
D11*
X117620100Y-50397400D03*
G36*
G01*
X144920100Y-81835051D02*
X143820100Y-81835051D01*
G75*
G02*
X143570100Y-81585051I0J250000D01*
G01*
X143570100Y-80485051D01*
G75*
G02*
X143820100Y-80235051I250000J0D01*
G01*
X144920100Y-80235051D01*
G75*
G02*
X145170100Y-80485051I0J-250000D01*
G01*
X145170100Y-81585051D01*
G75*
G02*
X144920100Y-81835051I-250000J0D01*
G01*
G37*
D17*
X144370100Y-77535051D03*
D18*
X167250100Y-57412400D03*
D19*
X164250100Y-57102400D03*
X164250100Y-52262400D03*
D18*
X167250100Y-51952400D03*
D10*
X160870100Y-108107400D03*
D11*
X160870100Y-110647400D03*
D10*
X135830100Y-99882400D03*
D11*
X138370100Y-99882400D03*
X140910100Y-99882400D03*
M02*
