M48
; DRILL file {KiCad 9.0.1+1} date 2025-11-22T15:40:33+0000
; FORMAT={-:-/ absolute / inch / decimal}
; #@! TF.CreationDate,2025-11-22T15:40:33+00:00
; #@! TF.GenerationSoftware,Kicad,Pcbnew,9.0.1+1
; #@! TF.FileFunction,Plated,1,4,PTH
FMAT,2
INCH
; #@! TA.AperFunction,Plated,PTH,ViaDrill
T1C0.0157
; #@! TA.AperFunction,Plated,PTH,ComponentDrill
T2C0.0256
; #@! TA.AperFunction,Plated,PTH,ComponentDrill
T3C0.0276
; #@! TA.AperFunction,Plated,PTH,ComponentDrill
T4C0.0315
; #@! TA.AperFunction,Plated,PTH,ComponentDrill
T5C0.0394
; #@! TA.AperFunction,Plated,PTH,ComponentDrill
T6C0.0433
; #@! TA.AperFunction,Plated,PTH,ComponentDrill
T7C0.0453
%
G90
G05
T1
X4.7587Y-3.2532
X4.7587Y-3.4403
X4.7587Y-3.5308
X4.7587Y-3.7631
X4.7685Y-2.8497
X4.7685Y-2.9383
X4.7705Y-3.3143
X4.7784Y-2.7414
X4.7882Y-3.1548
X4.8059Y-3.9127
X4.8177Y-3.2788
X4.8183Y-3.4653
X4.8276Y-2.9481
X4.8472Y-2.7611
X4.8472Y-2.8595
X4.8492Y-4.3611
X4.865Y-3.0466
X4.8965Y-3.356
X4.8965Y-3.4127
X4.8965Y-3.6174
X4.8965Y-4.4934
X4.9424Y-4.3371
X4.9427Y-3.8269
X4.9427Y-4.4048
X4.9427Y-4.4934
X4.985Y-3.0466
X4.9909Y-4.7513
X4.9909Y-4.7985
X5.0096Y-3.8851
X5.0096Y-3.9206
X5.0096Y-3.9599
X5.0146Y-3.2434
X5.0146Y-3.5091
X5.0146Y-3.8515
X5.0274Y-4.1725
X5.0618Y-3.3615
X5.0736Y-3.1529
X5.0972Y-4.5466
X5.0972Y-4.5977
X5.0972Y-4.6489
X5.0972Y-4.7001
X5.113Y-3.6056
X5.1287Y-4.8615
X5.1681Y-3.9954
X5.2114Y-3.8438
X5.2469Y-4.5662
X5.2665Y-4.956
X5.2902Y-4.7591
X5.3492Y-4.1292
X5.3571Y-4.3103
X5.3846Y-3.6056
X5.3857Y-3.6371
X5.4083Y-3.834
X5.4083Y-4.3103
X5.4555Y-4.3103
X5.4995Y-3.561
X5.5067Y-4.1962
X5.5697Y-4.9442
X5.6287Y-4.6292
X5.6681Y-4.4481
X5.6681Y-4.4993
X5.6721Y-4.8497
X5.674Y-3.9816
X5.7429Y-3.4304
X5.7823Y-4.2985
X5.7823Y-4.3497
X5.8315Y-4.2473
X5.8807Y-3.3812
X5.941Y-3.9311
X6.0087Y-2.9678
X6.1268Y-3.9914
X6.1445Y-2.1519
X6.1445Y-2.1853
X6.1917Y-2.1686
X6.424Y-2.1017
T4
X5.3295Y-3.0526
X5.3295Y-3.1904
X5.6839Y-3.0526
X5.6839Y-3.1904
T5
X4.5815Y-2.456
X4.5815Y-2.556
X4.5815Y-2.656
X4.5815Y-2.756
X4.5815Y-2.856
X4.5815Y-2.956
X4.5815Y-3.056
X4.5815Y-3.156
X4.5815Y-3.256
X4.5815Y-3.356
X4.5815Y-3.456
X4.5815Y-3.556
X4.5815Y-3.656
X4.5815Y-3.756
X4.5815Y-3.856
X4.5815Y-3.956
X4.5815Y-4.056
X4.5815Y-4.156
X4.5815Y-4.256
X4.5815Y-4.356
X4.5815Y-4.456
X4.5815Y-4.556
X4.5815Y-4.656
X4.6815Y-2.456
X4.6815Y-2.556
X4.6815Y-2.656
X4.6815Y-2.756
X4.6815Y-2.856
X4.6815Y-2.956
X4.6815Y-3.056
X4.6815Y-3.156
X4.6815Y-3.256
X4.6815Y-3.356
X4.6815Y-3.456
X4.6815Y-3.556
X4.6815Y-3.656
X4.6815Y-3.756
X4.6815Y-3.856
X4.6815Y-3.956
X4.6815Y-4.056
X4.6815Y-4.156
X4.6815Y-4.256
X4.6815Y-4.356
X4.6815Y-4.456
X4.6815Y-4.556
X4.6815Y-4.656
X4.9244Y-2.6233
X5.0244Y-2.6233
X5.1244Y-2.6233
X5.3476Y-3.9324
X5.4476Y-3.9324
X5.5476Y-3.9324
X6.4815Y-2.456
X6.4815Y-2.556
X6.4815Y-2.656
X6.4815Y-2.756
X6.4815Y-2.856
X6.4815Y-2.956
X6.4815Y-3.056
X6.4815Y-3.156
X6.4815Y-3.256
X6.4815Y-3.356
X6.4815Y-3.456
X6.4815Y-3.556
X6.4815Y-3.656
X6.4815Y-3.756
X6.4815Y-3.856
X6.4815Y-3.956
X6.4815Y-4.056
X6.4815Y-4.156
X6.4815Y-4.256
X6.4815Y-4.356
X6.4815Y-4.456
X6.4815Y-4.556
X6.4815Y-4.656
X6.5815Y-2.456
X6.5815Y-2.556
X6.5815Y-2.656
X6.5815Y-2.756
X6.5815Y-2.856
X6.5815Y-2.956
X6.5815Y-3.056
X6.5815Y-3.156
X6.5815Y-3.256
X6.5815Y-3.356
X6.5815Y-3.456
X6.5815Y-3.556
X6.5815Y-3.656
X6.5815Y-3.756
X6.5815Y-3.856
X6.5815Y-3.956
X6.5815Y-4.056
X6.5815Y-4.156
X6.5815Y-4.256
X6.5815Y-4.356
X6.5815Y-4.456
X6.5815Y-4.556
X6.5815Y-4.656
T6
X5.3886Y-2.5938
X5.3886Y-2.8497
X5.5658Y-2.5938
X5.5658Y-2.8497
X6.1169Y-2.5938
X6.1169Y-2.8497
X6.2941Y-2.5938
X6.2941Y-2.8497
T7
X4.9161Y-1.8851
X4.9161Y-2.082
X5.113Y-1.8851
X5.113Y-2.082
X5.9595Y-4.6607
X5.9595Y-4.8576
X6.1563Y-4.6607
X6.1563Y-4.8576
T2
G00X6.4744Y-2.0576
M15
G01X6.4587Y-2.0576
M16
G05
G00X6.4744Y-2.2481
M15
G01X6.4587Y-2.2481
M16
G05
T3
G00X6.5945Y-2.0454
M15
G01X6.5748Y-2.0454
M16
G05
G00X6.5945Y-2.2603
M15
G01X6.5748Y-2.2603
M16
G05
M30
