M48
; DRILL file {KiCad 9.0.1+1} date 2025-11-20T01:51:37+0000
; FORMAT={-:-/ absolute / inch / decimal}
; #@! TF.CreationDate,2025-11-20T01:51:37+00:00
; #@! TF.GenerationSoftware,Kicad,Pcbnew,9.0.1+1
; #@! TF.FileFunction,Plated,1,2,PTH
FMAT,2
INCH
; #@! TA.AperFunction,Plated,PTH,ComponentDrill
T1C0.0079
; #@! TA.AperFunction,Plated,PTH,ViaDrill
T2C0.0157
; #@! TA.AperFunction,Plated,PTH,ComponentDrill
T3C0.0394
; #@! TA.AperFunction,Plated,PTH,ComponentDrill
T4C0.0433
; #@! TA.AperFunction,Plated,PTH,ComponentDrill
T5C0.0453
%
G90
G05
T1
X5.3728Y-4.4241
X5.3728Y-4.4792
X5.4004Y-4.3966
X5.4004Y-4.4517
X5.4004Y-4.5068
X5.428Y-4.4241
X5.428Y-4.4792
X5.4555Y-4.3966
X5.4555Y-4.4517
X5.4555Y-4.5068
X5.4831Y-4.4241
X5.4831Y-4.4792
T2
X4.7587Y-3.2532
X4.7587Y-3.4403
X4.7587Y-3.9914
X4.7685Y-2.8497
X4.7685Y-2.9383
X4.7685Y-3.7257
X4.7784Y-2.7414
X4.7784Y-4.1194
X4.7784Y-4.3654
X4.7882Y-3.1548
X4.7882Y-4.5131
X4.798Y-3.7749
X4.798Y-3.9127
X4.8276Y-2.9481
X4.8374Y-3.6568
X4.8374Y-4.1784
X4.8472Y-2.7611
X4.8472Y-2.8595
X4.8492Y-4.3611
X4.8532Y-3.9757
X4.8571Y-4.0899
X4.8669Y-3.3123
X4.8768Y-3.4206
X4.8965Y-3.6174
X4.8965Y-4.4934
X4.9063Y-4.2867
X4.9358Y-4.4934
X4.9654Y-3.0662
X4.9654Y-4.6017
X4.9654Y-4.7493
X5.0146Y-3.2434
X5.0146Y-3.5091
X5.0933Y-3.8438
X5.1032Y-4.5525
X5.113Y-3.6568
X5.1228Y-3.0466
X5.2213Y-4.208
X5.3394Y-3.8635
X5.3886Y-4.2572
X5.428Y-3.5584
X5.487Y-3.7454
X5.5854Y-4.208
X5.5854Y-4.5426
X5.7035Y-3.8438
X5.914Y-3.9717
X5.9201Y-2.9678
X6.1268Y-3.9914
T3
X4.5815Y-2.456
X4.5815Y-2.556
X4.5815Y-2.656
X4.5815Y-2.756
X4.5815Y-2.856
X4.5815Y-2.956
X4.5815Y-3.056
X4.5815Y-3.156
X4.5815Y-3.256
X4.5815Y-3.356
X4.5815Y-3.456
X4.5815Y-3.556
X4.5815Y-3.656
X4.5815Y-3.756
X4.5815Y-3.856
X4.5815Y-3.956
X4.5815Y-4.056
X4.5815Y-4.156
X4.5815Y-4.256
X4.5815Y-4.356
X4.5815Y-4.456
X4.5815Y-4.556
X4.5815Y-4.656
X4.6815Y-2.456
X4.6815Y-2.556
X4.6815Y-2.656
X4.6815Y-2.756
X4.6815Y-2.856
X4.6815Y-2.956
X4.6815Y-3.056
X4.6815Y-3.156
X4.6815Y-3.256
X4.6815Y-3.356
X4.6815Y-3.456
X4.6815Y-3.556
X4.6815Y-3.656
X4.6815Y-3.756
X4.6815Y-3.856
X4.6815Y-3.956
X4.6815Y-4.056
X4.6815Y-4.156
X4.6815Y-4.256
X4.6815Y-4.356
X4.6815Y-4.456
X4.6815Y-4.556
X4.6815Y-4.656
X4.9803Y-2.2493
X5.0803Y-2.2493
X5.1803Y-2.2493
X6.4815Y-2.456
X6.4815Y-2.556
X6.4815Y-2.656
X6.4815Y-2.756
X6.4815Y-2.856
X6.4815Y-2.956
X6.4815Y-3.056
X6.4815Y-3.156
X6.4815Y-3.256
X6.4815Y-3.356
X6.4815Y-3.456
X6.4815Y-3.556
X6.4815Y-3.656
X6.4815Y-3.756
X6.4815Y-3.856
X6.4815Y-3.956
X6.4815Y-4.056
X6.4815Y-4.156
X6.4815Y-4.256
X6.4815Y-4.356
X6.4815Y-4.456
X6.4815Y-4.556
X6.4815Y-4.656
X6.5815Y-2.456
X6.5815Y-2.556
X6.5815Y-2.656
X6.5815Y-2.756
X6.5815Y-2.856
X6.5815Y-2.956
X6.5815Y-3.056
X6.5815Y-3.156
X6.5815Y-3.256
X6.5815Y-3.356
X6.5815Y-3.456
X6.5815Y-3.556
X6.5815Y-3.656
X6.5815Y-3.756
X6.5815Y-3.856
X6.5815Y-3.956
X6.5815Y-4.056
X6.5815Y-4.156
X6.5815Y-4.256
X6.5815Y-4.356
X6.5815Y-4.456
X6.5815Y-4.556
X6.5815Y-4.656
T4
X4.6775Y-2.1115
X4.6775Y-2.2115
X4.7819Y-1.8556
X4.9358Y-2.5938
X4.9358Y-2.8497
X5.113Y-2.5938
X5.113Y-2.8497
X5.1819Y-1.8556
X6.1169Y-2.5938
X6.1169Y-2.8497
X6.2941Y-2.5938
X6.2941Y-2.8497
T5
X5.9595Y-4.6607
X6.1563Y-4.6607
M30
